<?xml version="1.0" encoding="utf-8" standalone="no"?>
<!DOCTYPE svg PUBLIC "-//W3C//DTD SVG 1.1//EN"
  "http://www.w3.org/Graphics/SVG/1.1/DTD/svg11.dtd">
<!-- Created with matplotlib (https://matplotlib.org/) -->
<svg height="360pt" version="1.1" viewBox="0 0 360 360" width="360pt" xmlns="http://www.w3.org/2000/svg" xmlns:xlink="http://www.w3.org/1999/xlink">
 <defs>
  <style type="text/css">
*{stroke-linecap:butt;stroke-linejoin:round;}
  </style>
 </defs>
 <g id="figure_1">
  <g id="patch_1">
   <path d="M 0 360 
L 360 360 
L 360 0 
L 0 0 
z
" style="fill:#ffffff;"/>
  </g>
  <g id="axes_1">
   <g id="patch_2">
    <path d="M 65.93 304.42 
L 329.76 304.42 
L 329.76 30.24 
L 65.93 30.24 
z
" style="fill:#eaeaf2;"/>
   </g>
   <g id="matplotlib.axis_1">
    <g id="xtick_1">
     <g id="line2d_1">
      <path clip-path="url(#p04278a7b0a)" d="M 110.888233 304.42 
L 110.888233 30.24 
" style="fill:none;stroke:#ffffff;stroke-linecap:round;"/>
     </g>
     <g id="text_1">
      <!-- 2 -->
      <defs>
       <path d="M 50.34375 8.453125 
L 50.34375 0 
L 3.03125 0 
Q 2.9375 3.171875 4.046875 6.109375 
Q 5.859375 10.9375 9.828125 15.625 
Q 13.8125 20.3125 21.34375 26.46875 
Q 33.015625 36.03125 37.109375 41.625 
Q 41.21875 47.21875 41.21875 52.203125 
Q 41.21875 57.421875 37.46875 61 
Q 33.734375 64.59375 27.734375 64.59375 
Q 21.390625 64.59375 17.578125 60.78125 
Q 13.765625 56.984375 13.71875 50.25 
L 4.6875 51.171875 
Q 5.609375 61.28125 11.65625 66.578125 
Q 17.71875 71.875 27.9375 71.875 
Q 38.234375 71.875 44.234375 66.15625 
Q 50.25 60.453125 50.25 52 
Q 50.25 47.703125 48.484375 43.546875 
Q 46.734375 39.40625 42.65625 34.8125 
Q 38.578125 30.21875 29.109375 22.21875 
Q 21.1875 15.578125 18.9375 13.203125 
Q 16.703125 10.84375 15.234375 8.453125 
z
" id="ArialMT-50"/>
      </defs>
      <g style="fill:#262626;" transform="translate(104.771202 329.667188)scale(0.22 -0.22)">
       <use xlink:href="#ArialMT-50"/>
      </g>
     </g>
    </g>
    <g id="xtick_2">
     <g id="line2d_2">
      <path clip-path="url(#p04278a7b0a)" d="M 213.190312 304.42 
L 213.190312 30.24 
" style="fill:none;stroke:#ffffff;stroke-linecap:round;"/>
     </g>
     <g id="text_2">
      <!-- 4 -->
      <defs>
       <path d="M 32.328125 0 
L 32.328125 17.140625 
L 1.265625 17.140625 
L 1.265625 25.203125 
L 33.9375 71.578125 
L 41.109375 71.578125 
L 41.109375 25.203125 
L 50.78125 25.203125 
L 50.78125 17.140625 
L 41.109375 17.140625 
L 41.109375 0 
z
M 32.328125 25.203125 
L 32.328125 57.46875 
L 9.90625 25.203125 
z
" id="ArialMT-52"/>
      </defs>
      <g style="fill:#262626;" transform="translate(207.073281 329.667188)scale(0.22 -0.22)">
       <use xlink:href="#ArialMT-52"/>
      </g>
     </g>
    </g>
    <g id="xtick_3">
     <g id="line2d_3">
      <path clip-path="url(#p04278a7b0a)" d="M 315.49239 304.42 
L 315.49239 30.24 
" style="fill:none;stroke:#ffffff;stroke-linecap:round;"/>
     </g>
     <g id="text_3">
      <!-- 6 -->
      <defs>
       <path d="M 49.75 54.046875 
L 41.015625 53.375 
Q 39.84375 58.546875 37.703125 60.890625 
Q 34.125 64.65625 28.90625 64.65625 
Q 24.703125 64.65625 21.53125 62.3125 
Q 17.390625 59.28125 14.984375 53.46875 
Q 12.59375 47.65625 12.5 36.921875 
Q 15.671875 41.75 20.265625 44.09375 
Q 24.859375 46.4375 29.890625 46.4375 
Q 38.671875 46.4375 44.84375 39.96875 
Q 51.03125 33.5 51.03125 23.25 
Q 51.03125 16.5 48.125 10.71875 
Q 45.21875 4.9375 40.140625 1.859375 
Q 35.0625 -1.21875 28.609375 -1.21875 
Q 17.625 -1.21875 10.6875 6.859375 
Q 3.765625 14.9375 3.765625 33.5 
Q 3.765625 54.25 11.421875 63.671875 
Q 18.109375 71.875 29.4375 71.875 
Q 37.890625 71.875 43.28125 67.140625 
Q 48.6875 62.40625 49.75 54.046875 
z
M 13.875 23.1875 
Q 13.875 18.65625 15.796875 14.5 
Q 17.71875 10.359375 21.1875 8.171875 
Q 24.65625 6 28.46875 6 
Q 34.03125 6 38.03125 10.484375 
Q 42.046875 14.984375 42.046875 22.703125 
Q 42.046875 30.125 38.078125 34.390625 
Q 34.125 38.671875 28.125 38.671875 
Q 22.171875 38.671875 18.015625 34.390625 
Q 13.875 30.125 13.875 23.1875 
z
" id="ArialMT-54"/>
      </defs>
      <g style="fill:#262626;" transform="translate(309.375359 329.667188)scale(0.22 -0.22)">
       <use xlink:href="#ArialMT-54"/>
      </g>
     </g>
    </g>
    <g id="text_4">
     <!-- COPM -->
     <defs>
      <path d="M 58.796875 25.09375 
L 68.265625 22.703125 
Q 65.28125 11.03125 57.546875 4.90625 
Q 49.8125 -1.21875 38.625 -1.21875 
Q 27.046875 -1.21875 19.796875 3.484375 
Q 12.546875 8.203125 8.765625 17.140625 
Q 4.984375 26.078125 4.984375 36.328125 
Q 4.984375 47.515625 9.25 55.828125 
Q 13.53125 64.15625 21.40625 68.46875 
Q 29.296875 72.796875 38.765625 72.796875 
Q 49.515625 72.796875 56.828125 67.328125 
Q 64.15625 61.859375 67.046875 51.953125 
L 57.71875 49.75 
Q 55.21875 57.5625 50.484375 61.125 
Q 45.75 64.703125 38.578125 64.703125 
Q 30.328125 64.703125 24.78125 60.734375 
Q 19.234375 56.78125 16.984375 50.109375 
Q 14.75 43.453125 14.75 36.375 
Q 14.75 27.25 17.40625 20.4375 
Q 20.0625 13.625 25.671875 10.25 
Q 31.296875 6.890625 37.84375 6.890625 
Q 45.796875 6.890625 51.3125 11.46875 
Q 56.84375 16.0625 58.796875 25.09375 
z
" id="ArialMT-67"/>
      <path d="M 4.828125 34.859375 
Q 4.828125 52.6875 14.390625 62.765625 
Q 23.96875 72.859375 39.109375 72.859375 
Q 49.03125 72.859375 56.984375 68.109375 
Q 64.9375 63.375 69.109375 54.90625 
Q 73.296875 46.4375 73.296875 35.6875 
Q 73.296875 24.8125 68.890625 16.21875 
Q 64.5 7.625 56.4375 3.203125 
Q 48.390625 -1.21875 39.0625 -1.21875 
Q 28.953125 -1.21875 20.984375 3.65625 
Q 13.03125 8.546875 8.921875 16.984375 
Q 4.828125 25.4375 4.828125 34.859375 
z
M 14.59375 34.71875 
Q 14.59375 21.78125 21.546875 14.328125 
Q 28.515625 6.890625 39.015625 6.890625 
Q 49.703125 6.890625 56.609375 14.40625 
Q 63.53125 21.921875 63.53125 35.75 
Q 63.53125 44.484375 60.578125 51 
Q 57.625 57.515625 51.921875 61.109375 
Q 46.234375 64.703125 39.15625 64.703125 
Q 29.109375 64.703125 21.84375 57.78125 
Q 14.59375 50.875 14.59375 34.71875 
z
" id="ArialMT-79"/>
      <path d="M 7.71875 0 
L 7.71875 71.578125 
L 34.71875 71.578125 
Q 41.84375 71.578125 45.609375 70.90625 
Q 50.875 70.015625 54.4375 67.546875 
Q 58.015625 65.09375 60.1875 60.640625 
Q 62.359375 56.203125 62.359375 50.875 
Q 62.359375 41.75 56.546875 35.421875 
Q 50.734375 29.109375 35.546875 29.109375 
L 17.1875 29.109375 
L 17.1875 0 
z
M 17.1875 37.546875 
L 35.6875 37.546875 
Q 44.875 37.546875 48.734375 40.96875 
Q 52.59375 44.390625 52.59375 50.59375 
Q 52.59375 55.078125 50.3125 58.265625 
Q 48.046875 61.46875 44.34375 62.5 
Q 41.9375 63.140625 35.5 63.140625 
L 17.1875 63.140625 
z
" id="ArialMT-80"/>
      <path d="M 7.421875 0 
L 7.421875 71.578125 
L 21.6875 71.578125 
L 38.625 20.90625 
Q 40.96875 13.8125 42.046875 10.296875 
Q 43.265625 14.203125 45.84375 21.78125 
L 62.984375 71.578125 
L 75.734375 71.578125 
L 75.734375 0 
L 66.609375 0 
L 66.609375 59.90625 
L 45.796875 0 
L 37.25 0 
L 16.546875 60.9375 
L 16.546875 0 
z
" id="ArialMT-77"/>
     </defs>
     <g style="fill:#262626;" transform="translate(161.845 355.218438)scale(0.24 -0.24)">
      <use xlink:href="#ArialMT-67"/>
      <use x="72.216797" xlink:href="#ArialMT-79"/>
      <use x="150" xlink:href="#ArialMT-80"/>
      <use x="216.699219" xlink:href="#ArialMT-77"/>
     </g>
    </g>
   </g>
   <g id="matplotlib.axis_2">
    <g id="ytick_1">
     <g id="line2d_4">
      <path clip-path="url(#p04278a7b0a)" d="M 65.93 239.548647 
L 329.76 239.548647 
" style="fill:none;stroke:#ffffff;stroke-linecap:round;"/>
     </g>
     <g id="text_5">
      <!-- 0.4 -->
      <defs>
       <path d="M 4.15625 35.296875 
Q 4.15625 48 6.765625 55.734375 
Q 9.375 63.484375 14.515625 67.671875 
Q 19.671875 71.875 27.484375 71.875 
Q 33.25 71.875 37.59375 69.546875 
Q 41.9375 67.234375 44.765625 62.859375 
Q 47.609375 58.5 49.21875 52.21875 
Q 50.828125 45.953125 50.828125 35.296875 
Q 50.828125 22.703125 48.234375 14.96875 
Q 45.65625 7.234375 40.5 3 
Q 35.359375 -1.21875 27.484375 -1.21875 
Q 17.140625 -1.21875 11.234375 6.203125 
Q 4.15625 15.140625 4.15625 35.296875 
z
M 13.1875 35.296875 
Q 13.1875 17.671875 17.3125 11.828125 
Q 21.4375 6 27.484375 6 
Q 33.546875 6 37.671875 11.859375 
Q 41.796875 17.71875 41.796875 35.296875 
Q 41.796875 52.984375 37.671875 58.78125 
Q 33.546875 64.59375 27.390625 64.59375 
Q 21.34375 64.59375 17.71875 59.46875 
Q 13.1875 52.9375 13.1875 35.296875 
z
" id="ArialMT-48"/>
       <path d="M 9.078125 0 
L 9.078125 10.015625 
L 19.09375 10.015625 
L 19.09375 0 
z
" id="ArialMT-46"/>
      </defs>
      <g style="fill:#262626;" transform="translate(25.85 247.422241)scale(0.22 -0.22)">
       <use xlink:href="#ArialMT-48"/>
       <use x="55.615234" xlink:href="#ArialMT-46"/>
       <use x="83.398438" xlink:href="#ArialMT-52"/>
      </g>
     </g>
    </g>
    <g id="ytick_2">
     <g id="line2d_5">
      <path clip-path="url(#p04278a7b0a)" d="M 65.93 168.66266 
L 329.76 168.66266 
" style="fill:none;stroke:#ffffff;stroke-linecap:round;"/>
     </g>
     <g id="text_6">
      <!-- 0.6 -->
      <g style="fill:#262626;" transform="translate(25.85 176.536254)scale(0.22 -0.22)">
       <use xlink:href="#ArialMT-48"/>
       <use x="55.615234" xlink:href="#ArialMT-46"/>
       <use x="83.398438" xlink:href="#ArialMT-54"/>
      </g>
     </g>
    </g>
    <g id="ytick_3">
     <g id="line2d_6">
      <path clip-path="url(#p04278a7b0a)" d="M 65.93 97.776672 
L 329.76 97.776672 
" style="fill:none;stroke:#ffffff;stroke-linecap:round;"/>
     </g>
     <g id="text_7">
      <!-- 0.8 -->
      <defs>
       <path d="M 17.671875 38.8125 
Q 12.203125 40.828125 9.5625 44.53125 
Q 6.9375 48.25 6.9375 53.421875 
Q 6.9375 61.234375 12.546875 66.546875 
Q 18.171875 71.875 27.484375 71.875 
Q 36.859375 71.875 42.578125 66.421875 
Q 48.296875 60.984375 48.296875 53.171875 
Q 48.296875 48.1875 45.671875 44.5 
Q 43.0625 40.828125 37.75 38.8125 
Q 44.34375 36.671875 47.78125 31.875 
Q 51.21875 27.09375 51.21875 20.453125 
Q 51.21875 11.28125 44.71875 5.03125 
Q 38.234375 -1.21875 27.640625 -1.21875 
Q 17.046875 -1.21875 10.546875 5.046875 
Q 4.046875 11.328125 4.046875 20.703125 
Q 4.046875 27.6875 7.59375 32.390625 
Q 11.140625 37.109375 17.671875 38.8125 
z
M 15.921875 53.71875 
Q 15.921875 48.640625 19.1875 45.40625 
Q 22.46875 42.1875 27.6875 42.1875 
Q 32.765625 42.1875 36.015625 45.375 
Q 39.265625 48.578125 39.265625 53.21875 
Q 39.265625 58.0625 35.90625 61.359375 
Q 32.5625 64.65625 27.59375 64.65625 
Q 22.5625 64.65625 19.234375 61.421875 
Q 15.921875 58.203125 15.921875 53.71875 
z
M 13.09375 20.65625 
Q 13.09375 16.890625 14.875 13.375 
Q 16.65625 9.859375 20.171875 7.921875 
Q 23.6875 6 27.734375 6 
Q 34.03125 6 38.125 10.046875 
Q 42.234375 14.109375 42.234375 20.359375 
Q 42.234375 26.703125 38.015625 30.859375 
Q 33.796875 35.015625 27.4375 35.015625 
Q 21.234375 35.015625 17.15625 30.90625 
Q 13.09375 26.8125 13.09375 20.65625 
z
" id="ArialMT-56"/>
      </defs>
      <g style="fill:#262626;" transform="translate(25.85 105.650266)scale(0.22 -0.22)">
       <use xlink:href="#ArialMT-48"/>
       <use x="55.615234" xlink:href="#ArialMT-46"/>
       <use x="83.398438" xlink:href="#ArialMT-56"/>
      </g>
     </g>
    </g>
    <g id="text_8">
     <!-- PROP SYMM LA MUS -->
     <defs>
      <path d="M 7.859375 0 
L 7.859375 71.578125 
L 39.59375 71.578125 
Q 49.171875 71.578125 54.140625 69.640625 
Q 59.125 67.71875 62.109375 62.828125 
Q 65.09375 57.953125 65.09375 52.046875 
Q 65.09375 44.4375 60.15625 39.203125 
Q 55.21875 33.984375 44.921875 32.5625 
Q 48.6875 30.765625 50.640625 29 
Q 54.78125 25.203125 58.5 19.484375 
L 70.953125 0 
L 59.03125 0 
L 49.5625 14.890625 
Q 45.40625 21.34375 42.71875 24.75 
Q 40.046875 28.171875 37.921875 29.53125 
Q 35.796875 30.90625 33.59375 31.453125 
Q 31.984375 31.78125 28.328125 31.78125 
L 17.328125 31.78125 
L 17.328125 0 
z
M 17.328125 39.984375 
L 37.703125 39.984375 
Q 44.1875 39.984375 47.84375 41.328125 
Q 51.515625 42.671875 53.421875 45.625 
Q 55.328125 48.578125 55.328125 52.046875 
Q 55.328125 57.125 51.640625 60.390625 
Q 47.953125 63.671875 39.984375 63.671875 
L 17.328125 63.671875 
z
" id="ArialMT-82"/>
      <path id="ArialMT-32"/>
      <path d="M 4.5 23 
L 13.421875 23.78125 
Q 14.0625 18.40625 16.375 14.96875 
Q 18.703125 11.53125 23.578125 9.40625 
Q 28.46875 7.28125 34.578125 7.28125 
Q 39.984375 7.28125 44.140625 8.890625 
Q 48.296875 10.5 50.3125 13.296875 
Q 52.34375 16.109375 52.34375 19.4375 
Q 52.34375 22.796875 50.390625 25.3125 
Q 48.4375 27.828125 43.953125 29.546875 
Q 41.0625 30.671875 31.203125 33.03125 
Q 21.34375 35.40625 17.390625 37.5 
Q 12.25 40.1875 9.734375 44.15625 
Q 7.234375 48.140625 7.234375 53.078125 
Q 7.234375 58.5 10.296875 63.203125 
Q 13.375 67.921875 19.28125 70.359375 
Q 25.203125 72.796875 32.421875 72.796875 
Q 40.375 72.796875 46.453125 70.234375 
Q 52.546875 67.671875 55.8125 62.6875 
Q 59.078125 57.71875 59.328125 51.421875 
L 50.25 50.734375 
Q 49.515625 57.515625 45.28125 60.984375 
Q 41.0625 64.453125 32.8125 64.453125 
Q 24.21875 64.453125 20.28125 61.296875 
Q 16.359375 58.15625 16.359375 53.71875 
Q 16.359375 49.859375 19.140625 47.359375 
Q 21.875 44.875 33.421875 42.265625 
Q 44.96875 39.65625 49.265625 37.703125 
Q 55.515625 34.8125 58.484375 30.390625 
Q 61.46875 25.984375 61.46875 20.21875 
Q 61.46875 14.5 58.203125 9.4375 
Q 54.9375 4.390625 48.796875 1.578125 
Q 42.671875 -1.21875 35.015625 -1.21875 
Q 25.296875 -1.21875 18.71875 1.609375 
Q 12.15625 4.4375 8.421875 10.125 
Q 4.6875 15.828125 4.5 23 
z
" id="ArialMT-83"/>
      <path d="M 27.875 0 
L 27.875 30.328125 
L 0.296875 71.578125 
L 11.8125 71.578125 
L 25.921875 50 
Q 29.828125 43.953125 33.203125 37.890625 
Q 36.421875 43.5 41.015625 50.53125 
L 54.890625 71.578125 
L 65.921875 71.578125 
L 37.359375 30.328125 
L 37.359375 0 
z
" id="ArialMT-89"/>
      <path d="M 7.328125 0 
L 7.328125 71.578125 
L 16.796875 71.578125 
L 16.796875 8.453125 
L 52.046875 8.453125 
L 52.046875 0 
z
" id="ArialMT-76"/>
      <path d="M -0.140625 0 
L 27.34375 71.578125 
L 37.546875 71.578125 
L 66.84375 0 
L 56.0625 0 
L 47.703125 21.6875 
L 17.78125 21.6875 
L 9.90625 0 
z
M 20.515625 29.390625 
L 44.78125 29.390625 
L 37.3125 49.21875 
Q 33.890625 58.25 32.234375 64.0625 
Q 30.859375 57.171875 28.375 50.390625 
z
" id="ArialMT-65"/>
      <path d="M 54.6875 71.578125 
L 64.15625 71.578125 
L 64.15625 30.21875 
Q 64.15625 19.4375 61.71875 13.078125 
Q 59.28125 6.734375 52.90625 2.75 
Q 46.53125 -1.21875 36.1875 -1.21875 
Q 26.125 -1.21875 19.71875 2.25 
Q 13.328125 5.71875 10.59375 12.28125 
Q 7.859375 18.84375 7.859375 30.21875 
L 7.859375 71.578125 
L 17.328125 71.578125 
L 17.328125 30.28125 
Q 17.328125 20.953125 19.0625 16.53125 
Q 20.796875 12.109375 25.015625 9.71875 
Q 29.25 7.328125 35.359375 7.328125 
Q 45.796875 7.328125 50.234375 12.0625 
Q 54.6875 16.796875 54.6875 30.28125 
z
" id="ArialMT-85"/>
     </defs>
     <g style="fill:#262626;" transform="translate(17.08 288.6725)rotate(-90)scale(0.24 -0.24)">
      <use xlink:href="#ArialMT-80"/>
      <use x="66.699219" xlink:href="#ArialMT-82"/>
      <use x="138.916016" xlink:href="#ArialMT-79"/>
      <use x="216.699219" xlink:href="#ArialMT-80"/>
      <use x="283.382812" xlink:href="#ArialMT-32"/>
      <use x="311.166016" xlink:href="#ArialMT-83"/>
      <use x="377.865234" xlink:href="#ArialMT-89"/>
      <use x="444.564453" xlink:href="#ArialMT-77"/>
      <use x="527.865234" xlink:href="#ArialMT-77"/>
      <use x="611.166016" xlink:href="#ArialMT-32"/>
      <use x="638.949219" xlink:href="#ArialMT-76"/>
      <use x="694.564453" xlink:href="#ArialMT-65"/>
      <use x="761.185547" xlink:href="#ArialMT-32"/>
      <use x="788.96875" xlink:href="#ArialMT-77"/>
      <use x="872.269531" xlink:href="#ArialMT-85"/>
      <use x="944.486328" xlink:href="#ArialMT-83"/>
     </g>
    </g>
   </g>
   <g id="PathCollection_1">
    <defs>
     <path d="M 0 3 
C 0.795609 3 1.55874 2.683901 2.12132 2.12132 
C 2.683901 1.55874 3 0.795609 3 0 
C 3 -0.795609 2.683901 -1.55874 2.12132 -2.12132 
C 1.55874 -2.683901 0.795609 -3 0 -3 
C -0.795609 -3 -1.55874 -2.683901 -2.12132 -2.12132 
C -2.683901 -1.55874 -3 -0.795609 -3 0 
C -3 0.795609 -2.683901 1.55874 -2.12132 2.12132 
C -1.55874 2.683901 -0.795609 3 0 3 
z
" id="m35a42ff937" style="stroke:#4c72b0;stroke-opacity:0.8;"/>
    </defs>
    <g clip-path="url(#p04278a7b0a)">
     <use style="fill:#4c72b0;fill-opacity:0.8;stroke:#4c72b0;stroke-opacity:0.8;" x="131.348649" xlink:href="#m35a42ff937" y="207.480541"/>
     <use style="fill:#4c72b0;fill-opacity:0.8;stroke:#4c72b0;stroke-opacity:0.8;" x="233.650727" xlink:href="#m35a42ff937" y="201.887644"/>
     <use style="fill:#4c72b0;fill-opacity:0.8;stroke:#4c72b0;stroke-opacity:0.8;" x="264.341351" xlink:href="#m35a42ff937" y="114.824847"/>
     <use style="fill:#4c72b0;fill-opacity:0.8;stroke:#4c72b0;stroke-opacity:0.8;" x="90.427818" xlink:href="#m35a42ff937" y="194.488063"/>
     <use style="fill:#4c72b0;fill-opacity:0.8;stroke:#4c72b0;stroke-opacity:0.8;" x="141.578857" xlink:href="#m35a42ff937" y="289.569397"/>
     <use style="fill:#4c72b0;fill-opacity:0.8;stroke:#4c72b0;stroke-opacity:0.8;" x="315.49239" xlink:href="#m35a42ff937" y="128.649407"/>
     <use style="fill:#4c72b0;fill-opacity:0.8;stroke:#4c72b0;stroke-opacity:0.8;" x="151.809065" xlink:href="#m35a42ff937" y="187.969483"/>
     <use style="fill:#4c72b0;fill-opacity:0.8;stroke:#4c72b0;stroke-opacity:0.8;" x="151.809065" xlink:href="#m35a42ff937" y="200.11271"/>
     <use style="fill:#4c72b0;fill-opacity:0.8;stroke:#4c72b0;stroke-opacity:0.8;" x="213.190312" xlink:href="#m35a42ff937" y="212.671478"/>
     <use style="fill:#4c72b0;fill-opacity:0.8;stroke:#4c72b0;stroke-opacity:0.8;" x="110.888233" xlink:href="#m35a42ff937" y="291.907583"/>
     <use style="fill:#4c72b0;fill-opacity:0.8;stroke:#4c72b0;stroke-opacity:0.8;" x="80.19761" xlink:href="#m35a42ff937" y="200.11271"/>
     <use style="fill:#4c72b0;fill-opacity:0.8;stroke:#4c72b0;stroke-opacity:0.8;" x="90.427818" xlink:href="#m35a42ff937" y="200.11271"/>
     <use style="fill:#4c72b0;fill-opacity:0.8;stroke:#4c72b0;stroke-opacity:0.8;" x="162.039273" xlink:href="#m35a42ff937" y="110.422907"/>
     <use style="fill:#4c72b0;fill-opacity:0.8;stroke:#4c72b0;stroke-opacity:0.8;" x="162.039273" xlink:href="#m35a42ff937" y="78.033041"/>
     <use style="fill:#4c72b0;fill-opacity:0.8;stroke:#4c72b0;stroke-opacity:0.8;" x="141.578857" xlink:href="#m35a42ff937" y="246.203438"/>
     <use style="fill:#4c72b0;fill-opacity:0.8;stroke:#4c72b0;stroke-opacity:0.8;" x="149.251513" xlink:href="#m35a42ff937" y="263.016284"/>
     <use style="fill:#4c72b0;fill-opacity:0.8;stroke:#4c72b0;stroke-opacity:0.8;" x="238.765831" xlink:href="#m35a42ff937" y="75.277743"/>
    </g>
   </g>
   <g id="PolyCollection_1">
    <defs>
     <path d="M 80.19761 -164.348066 
L 80.19761 -79.663705 
L 82.574325 -81.879368 
L 84.95104 -84.095031 
L 87.327755 -86.310694 
L 89.70447 -88.526357 
L 92.081185 -90.742067 
L 94.4579 -92.958437 
L 96.834614 -95.174808 
L 99.211329 -97.391179 
L 101.588044 -99.557251 
L 103.964759 -101.548782 
L 106.341474 -103.436641 
L 108.718189 -105.402956 
L 111.094904 -107.193984 
L 113.471619 -108.748286 
L 115.848334 -110.319038 
L 118.225049 -111.889789 
L 120.601764 -113.973129 
L 122.978479 -116.184542 
L 125.355194 -118.140328 
L 127.731909 -120.312396 
L 130.108624 -122.014254 
L 132.485339 -123.726299 
L 134.862054 -125.210708 
L 137.238769 -127.136571 
L 139.615484 -128.833662 
L 141.992199 -130.491439 
L 144.368914 -131.568179 
L 146.745628 -132.644919 
L 149.122343 -132.777642 
L 151.499058 -134.13703 
L 153.875773 -135.221973 
L 156.252488 -136.070617 
L 158.629203 -137.076042 
L 161.005918 -138.877546 
L 163.382633 -140.204817 
L 165.759348 -140.63467 
L 168.136063 -141.535081 
L 170.512778 -142.797598 
L 172.889493 -144.15867 
L 175.266208 -145.613653 
L 177.642923 -146.948451 
L 180.019638 -148.07456 
L 182.396353 -150.081401 
L 184.773068 -151.79444 
L 187.149783 -152.412139 
L 189.526498 -153.585926 
L 191.903213 -154.346382 
L 194.279928 -155.171587 
L 196.656643 -156.449339 
L 199.033357 -157.720961 
L 201.410072 -158.968879 
L 203.786787 -160.271014 
L 206.163502 -161.184451 
L 208.540217 -162.609055 
L 210.916932 -164.077444 
L 213.293647 -164.329204 
L 215.670362 -165.329696 
L 218.047077 -166.367435 
L 220.423792 -166.538631 
L 222.800507 -168.064955 
L 225.177222 -169.01257 
L 227.553937 -169.775432 
L 229.930652 -170.385091 
L 232.307367 -171.449873 
L 234.684082 -171.997715 
L 237.060797 -172.704096 
L 239.437512 -173.61972 
L 241.814227 -174.541133 
L 244.190942 -175.470592 
L 246.567657 -176.400051 
L 248.944372 -177.329509 
L 251.321086 -178.248069 
L 253.697801 -178.942323 
L 256.074516 -179.772821 
L 258.451231 -180.259658 
L 260.827946 -180.746495 
L 263.204661 -181.233332 
L 265.581376 -181.720169 
L 267.958091 -182.207005 
L 270.334806 -182.693842 
L 272.711521 -183.182891 
L 275.088236 -183.682178 
L 277.464951 -184.181466 
L 279.841666 -184.684113 
L 282.218381 -185.429637 
L 284.595096 -186.322478 
L 286.971811 -187.000782 
L 289.348526 -187.908932 
L 291.725241 -188.817082 
L 294.101956 -189.725232 
L 296.478671 -190.633382 
L 298.855386 -191.541532 
L 301.2321 -192.449682 
L 303.608815 -193.092935 
L 305.98553 -193.825545 
L 308.362245 -194.687097 
L 310.73896 -195.548649 
L 313.115675 -196.340742 
L 315.49239 -196.954978 
L 315.49239 -317.297273 
L 315.49239 -317.297273 
L 313.115675 -315.100983 
L 310.73896 -313.21924 
L 308.362245 -311.328122 
L 305.98553 -309.107252 
L 303.608815 -306.886381 
L 301.2321 -305.053332 
L 298.855386 -303.392393 
L 296.478671 -301.731453 
L 294.101956 -300.070514 
L 291.725241 -298.247196 
L 289.348526 -296.381626 
L 286.971811 -294.507583 
L 284.595096 -292.566068 
L 282.218381 -290.766487 
L 279.841666 -288.652816 
L 277.464951 -286.409762 
L 275.088236 -284.85124 
L 272.711521 -282.549631 
L 270.334806 -280.236813 
L 267.958091 -277.919016 
L 265.581376 -275.601219 
L 263.204661 -273.283422 
L 260.827946 -270.965625 
L 258.451231 -268.861775 
L 256.074516 -267.173246 
L 253.697801 -265.484717 
L 251.321086 -263.438954 
L 248.944372 -261.211758 
L 246.567657 -259.166112 
L 244.190942 -256.985123 
L 241.814227 -255.402471 
L 239.437512 -253.81413 
L 237.060797 -251.039932 
L 234.684082 -248.93912 
L 232.307367 -247.711991 
L 229.930652 -245.374087 
L 227.553937 -243.56591 
L 225.177222 -241.447344 
L 222.800507 -240.171388 
L 220.423792 -238.243478 
L 218.047077 -236.126814 
L 215.670362 -234.37208 
L 213.293647 -232.607255 
L 210.916932 -230.823678 
L 208.540217 -229.039638 
L 206.163502 -227.315094 
L 203.786787 -225.507256 
L 201.410072 -224.891509 
L 199.033357 -223.641051 
L 196.656643 -222.352042 
L 194.279928 -220.585449 
L 191.903213 -217.879031 
L 189.526498 -215.844411 
L 187.149783 -213.310115 
L 184.773068 -211.83884 
L 182.396353 -210.872299 
L 180.019638 -209.792669 
L 177.642923 -208.042451 
L 175.266208 -206.575621 
L 172.889493 -204.855831 
L 170.512778 -204.253072 
L 168.136063 -203.268099 
L 165.759348 -201.981565 
L 163.382633 -200.582196 
L 161.005918 -199.71553 
L 158.629203 -197.882619 
L 156.252488 -196.824058 
L 153.875773 -195.44982 
L 151.499058 -194.688299 
L 149.122343 -193.105153 
L 146.745628 -191.237447 
L 144.368914 -190.16735 
L 141.992199 -189.117512 
L 139.615484 -188.209363 
L 137.238769 -187.2447 
L 134.862054 -186.330786 
L 132.485339 -185.287304 
L 130.108624 -184.316194 
L 127.731909 -183.345083 
L 125.355194 -182.359991 
L 122.978479 -181.26037 
L 120.601764 -180.405848 
L 118.225049 -179.15465 
L 115.848334 -177.760265 
L 113.471619 -176.715766 
L 111.094904 -175.812019 
L 108.718189 -175.315611 
L 106.341474 -174.560396 
L 103.964759 -173.589709 
L 101.588044 -172.580342 
L 99.211329 -171.631588 
L 96.834614 -170.660717 
L 94.4579 -169.741357 
L 92.081185 -169.020009 
L 89.70447 -168.293586 
L 87.327755 -167.260332 
L 84.95104 -166.476506 
L 82.574325 -165.59983 
L 80.19761 -164.348066 
z
" id="m3e1184121d" style="stroke:#ffffff;stroke-opacity:0.15;"/>
    </defs>
    <g clip-path="url(#p04278a7b0a)">
     <use style="fill:#4c72b0;fill-opacity:0.15;stroke:#ffffff;stroke-opacity:0.15;" x="0" xlink:href="#m3e1184121d" y="360"/>
    </g>
   </g>
   <g id="line2d_7">
    <path clip-path="url(#p04278a7b0a)" d="M 80.19761 232.848524 
L 82.574325 231.622952 
L 84.95104 230.39738 
L 87.327755 229.171809 
L 89.70447 227.946237 
L 92.081185 226.720665 
L 94.4579 225.495093 
L 96.834614 224.269521 
L 99.211329 223.043949 
L 101.588044 221.818378 
L 103.964759 220.592806 
L 106.341474 219.367234 
L 108.718189 218.141662 
L 111.094904 216.91609 
L 113.471619 215.690518 
L 115.848334 214.464947 
L 118.225049 213.239375 
L 120.601764 212.013803 
L 122.978479 210.788231 
L 125.355194 209.562659 
L 127.731909 208.337088 
L 130.108624 207.111516 
L 132.485339 205.885944 
L 134.862054 204.660372 
L 137.238769 203.4348 
L 139.615484 202.209228 
L 141.992199 200.983657 
L 144.368914 199.758085 
L 146.745628 198.532513 
L 149.122343 197.306941 
L 151.499058 196.081369 
L 153.875773 194.855798 
L 156.252488 193.630226 
L 158.629203 192.404654 
L 161.005918 191.179082 
L 163.382633 189.95351 
L 165.759348 188.727938 
L 168.136063 187.502367 
L 170.512778 186.276795 
L 172.889493 185.051223 
L 175.266208 183.825651 
L 177.642923 182.600079 
L 180.019638 181.374507 
L 182.396353 180.148936 
L 184.773068 178.923364 
L 187.149783 177.697792 
L 189.526498 176.47222 
L 191.903213 175.246648 
L 194.279928 174.021077 
L 196.656643 172.795505 
L 199.033357 171.569933 
L 201.410072 170.344361 
L 203.786787 169.118789 
L 206.163502 167.893217 
L 208.540217 166.667646 
L 210.916932 165.442074 
L 213.293647 164.216502 
L 215.670362 162.99093 
L 218.047077 161.765358 
L 220.423792 160.539786 
L 222.800507 159.314215 
L 225.177222 158.088643 
L 227.553937 156.863071 
L 229.930652 155.637499 
L 232.307367 154.411927 
L 234.684082 153.186356 
L 237.060797 151.960784 
L 239.437512 150.735212 
L 241.814227 149.50964 
L 244.190942 148.284068 
L 246.567657 147.058496 
L 248.944372 145.832925 
L 251.321086 144.607353 
L 253.697801 143.381781 
L 256.074516 142.156209 
L 258.451231 140.930637 
L 260.827946 139.705066 
L 263.204661 138.479494 
L 265.581376 137.253922 
L 267.958091 136.02835 
L 270.334806 134.802778 
L 272.711521 133.577206 
L 275.088236 132.351635 
L 277.464951 131.126063 
L 279.841666 129.900491 
L 282.218381 128.674919 
L 284.595096 127.449347 
L 286.971811 126.223775 
L 289.348526 124.998204 
L 291.725241 123.772632 
L 294.101956 122.54706 
L 296.478671 121.321488 
L 298.855386 120.095916 
L 301.2321 118.870345 
L 303.608815 117.644773 
L 305.98553 116.419201 
L 308.362245 115.193629 
L 310.73896 113.968057 
L 313.115675 112.742485 
L 315.49239 111.516914 
" style="fill:none;stroke:#4c72b0;stroke-linecap:round;stroke-width:2.25;"/>
   </g>
   <g id="patch_3">
    <path d="M 65.93 304.42 
L 65.93 30.24 
" style="fill:none;stroke:#ffffff;stroke-linecap:square;stroke-linejoin:miter;stroke-width:1.25;"/>
   </g>
   <g id="patch_4">
    <path d="M 65.93 304.42 
L 329.76 304.42 
" style="fill:none;stroke:#ffffff;stroke-linecap:square;stroke-linejoin:miter;stroke-width:1.25;"/>
   </g>
  </g>
 </g>
 <defs>
  <clipPath id="p04278a7b0a">
   <rect height="274.18" width="263.83" x="65.93" y="30.24"/>
  </clipPath>
 </defs>
</svg>
