<?xml version="1.0" encoding="utf-8" standalone="no"?>
<!DOCTYPE svg PUBLIC "-//W3C//DTD SVG 1.1//EN"
  "http://www.w3.org/Graphics/SVG/1.1/DTD/svg11.dtd">
<!-- Created with matplotlib (https://matplotlib.org/) -->
<svg height="360pt" version="1.1" viewBox="0 0 360 360" width="360pt" xmlns="http://www.w3.org/2000/svg" xmlns:xlink="http://www.w3.org/1999/xlink">
 <defs>
  <style type="text/css">
*{stroke-linecap:butt;stroke-linejoin:round;}
  </style>
 </defs>
 <g id="figure_1">
  <g id="patch_1">
   <path d="M 0 360 
L 360 360 
L 360 0 
L 0 0 
z
" style="fill:#ffffff;"/>
  </g>
  <g id="axes_1">
   <g id="patch_2">
    <path d="M 33.64 332.12 
L 346.68 332.12 
L 346.68 13.32 
L 33.64 13.32 
z
" style="fill:#ffffff;"/>
   </g>
   <g id="PathCollection_1">
    <defs>
     <path d="M 0 3 
C 0.795609 3 1.55874 2.683901 2.12132 2.12132 
C 2.683901 1.55874 3 0.795609 3 0 
C 3 -0.795609 2.683901 -1.55874 2.12132 -2.12132 
C 1.55874 -2.683901 0.795609 -3 0 -3 
C -0.795609 -3 -1.55874 -2.683901 -2.12132 -2.12132 
C -2.683901 -1.55874 -3 -0.795609 -3 0 
C -3 0.795609 -2.683901 1.55874 -2.12132 2.12132 
C -1.55874 2.683901 -0.795609 3 0 3 
z
" id="mb18e8b1064" style="stroke:#1f77b4;stroke-opacity:0.8;"/>
    </defs>
    <g clip-path="url(#paf1974021a)">
     <use style="fill:#1f77b4;fill-opacity:0.8;stroke:#1f77b4;stroke-opacity:0.8;" x="150.124081" xlink:href="#mb18e8b1064" y="190.157827"/>
     <use style="fill:#1f77b4;fill-opacity:0.8;stroke:#1f77b4;stroke-opacity:0.8;" x="176.814694" xlink:href="#mb18e8b1064" y="137.03132"/>
     <use style="fill:#1f77b4;fill-opacity:0.8;stroke:#1f77b4;stroke-opacity:0.8;" x="110.088162" xlink:href="#mb18e8b1064" y="219.938749"/>
     <use style="fill:#1f77b4;fill-opacity:0.8;stroke:#1f77b4;stroke-opacity:0.8;" x="50.034284" xlink:href="#mb18e8b1064" y="216.112473"/>
     <use style="fill:#1f77b4;fill-opacity:0.8;stroke:#1f77b4;stroke-opacity:0.8;" x="210.177959" xlink:href="#mb18e8b1064" y="285.054664"/>
     <use style="fill:#1f77b4;fill-opacity:0.8;stroke:#1f77b4;stroke-opacity:0.8;" x="103.415509" xlink:href="#mb18e8b1064" y="202.943879"/>
     <use style="fill:#1f77b4;fill-opacity:0.8;stroke:#1f77b4;stroke-opacity:0.8;" x="150.124081" xlink:href="#mb18e8b1064" y="178.648277"/>
     <use style="fill:#1f77b4;fill-opacity:0.8;stroke:#1f77b4;stroke-opacity:0.8;" x="96.742856" xlink:href="#mb18e8b1064" y="138.98143"/>
     <use style="fill:#1f77b4;fill-opacity:0.8;stroke:#1f77b4;stroke-opacity:0.8;" x="263.559185" xlink:href="#mb18e8b1064" y="124.850843"/>
     <use style="fill:#1f77b4;fill-opacity:0.8;stroke:#1f77b4;stroke-opacity:0.8;" x="156.796734" xlink:href="#mb18e8b1064" y="171.13877"/>
     <use style="fill:#1f77b4;fill-opacity:0.8;stroke:#1f77b4;stroke-opacity:0.8;" x="123.433469" xlink:href="#mb18e8b1064" y="139.360853"/>
     <use style="fill:#1f77b4;fill-opacity:0.8;stroke:#1f77b4;stroke-opacity:0.8;" x="130.106122" xlink:href="#mb18e8b1064" y="264.655228"/>
     <use style="fill:#1f77b4;fill-opacity:0.8;stroke:#1f77b4;stroke-opacity:0.8;" x="316.94041" xlink:href="#mb18e8b1064" y="130.873704"/>
     <use style="fill:#1f77b4;fill-opacity:0.8;stroke:#1f77b4;stroke-opacity:0.8;" x="236.868572" xlink:href="#mb18e8b1064" y="105.539638"/>
     <use style="fill:#1f77b4;fill-opacity:0.8;stroke:#1f77b4;stroke-opacity:0.8;" x="116.760815" xlink:href="#mb18e8b1064" y="234.221718"/>
     <use style="fill:#1f77b4;fill-opacity:0.8;stroke:#1f77b4;stroke-opacity:0.8;" x="163.469387" xlink:href="#mb18e8b1064" y="149.953965"/>
     <use style="fill:#1f77b4;fill-opacity:0.8;stroke:#1f77b4;stroke-opacity:0.8;" x="330.285716" xlink:href="#mb18e8b1064" y="163.629263"/>
    </g>
   </g>
   <g id="PolyCollection_1">
    <path clip-path="url(#paf1974021a)" d="M 50.034284 116.739475 
L 50.034284 317.629091 
L 52.865107 312.752261 
L 55.695929 307.93881 
L 58.526752 303.150358 
L 61.357574 298.785071 
L 64.188397 293.834309 
L 67.019219 289.250829 
L 69.850042 284.726378 
L 72.680864 279.366642 
L 75.511687 274.031002 
L 78.34251 268.784464 
L 81.173332 263.619635 
L 84.004155 258.995388 
L 86.834977 254.702345 
L 89.6658 251.352146 
L 92.496622 247.970579 
L 95.327445 245.973927 
L 98.158267 241.501991 
L 100.98909 238.42974 
L 103.819912 235.521041 
L 106.650735 232.116796 
L 109.481558 228.648414 
L 112.31238 225.968494 
L 115.143203 223.142905 
L 117.974025 221.202195 
L 120.804848 220.336941 
L 123.63567 220.455485 
L 126.466493 219.919696 
L 129.297315 219.383022 
L 132.128138 217.999263 
L 134.95896 217.427013 
L 137.789783 216.817822 
L 140.620605 217.429722 
L 143.451428 217.478315 
L 146.282251 217.830632 
L 149.113073 218.167202 
L 151.943896 217.939055 
L 154.774718 218.304271 
L 157.605541 218.382951 
L 160.436363 218.667103 
L 163.267186 218.962574 
L 166.098008 219.22503 
L 168.928831 219.510971 
L 171.759653 219.726595 
L 174.590476 219.864022 
L 177.421299 219.66208 
L 180.252121 219.644786 
L 183.082944 219.741219 
L 185.913766 219.614385 
L 188.744589 219.430265 
L 191.575411 219.703876 
L 194.406234 219.279818 
L 197.237056 218.805937 
L 200.067879 218.626243 
L 202.898701 218.661518 
L 205.729524 217.768624 
L 208.560347 217.348863 
L 211.391169 216.878355 
L 214.221992 216.092636 
L 217.052814 215.206765 
L 219.883637 214.510461 
L 222.714459 213.76436 
L 225.545282 213.36938 
L 228.376104 212.334481 
L 231.206927 211.319531 
L 234.037749 210.618642 
L 236.868572 210.140246 
L 239.699395 210.689623 
L 242.530217 209.564727 
L 245.36104 208.572246 
L 248.191862 207.51986 
L 251.022685 206.04644 
L 253.853507 205.19889 
L 256.68433 204.047725 
L 259.515152 203.363171 
L 262.345975 202.233158 
L 265.176797 201.07005 
L 268.00762 199.913453 
L 270.838442 199.386329 
L 273.669265 197.939013 
L 276.500088 196.467949 
L 279.33091 195.926081 
L 282.161733 194.124482 
L 284.992555 192.231672 
L 287.823378 190.352817 
L 290.6542 188.833968 
L 293.485023 187.28686 
L 296.315845 186.310559 
L 299.146668 185.189403 
L 301.97749 183.925281 
L 304.808313 182.61845 
L 307.639136 180.823365 
L 310.469958 179.487711 
L 313.300781 178.34048 
L 316.131603 177.224551 
L 318.962426 176.078838 
L 321.793248 175.356484 
L 324.624071 174.540877 
L 327.454893 174.647239 
L 330.285716 173.525216 
L 330.285716 27.810909 
L 330.285716 27.810909 
L 327.454893 32.917565 
L 324.624071 37.937287 
L 321.793248 42.170531 
L 318.962426 44.672736 
L 316.131603 48.432982 
L 313.300781 51.553947 
L 310.469958 56.534092 
L 307.639136 61.475064 
L 304.808313 66.525077 
L 301.97749 71.700177 
L 299.146668 77.139424 
L 296.315845 80.753323 
L 293.485023 84.865486 
L 290.6542 89.245289 
L 287.823378 92.741252 
L 284.992555 93.941969 
L 282.161733 94.915334 
L 279.33091 96.611473 
L 276.500088 100.612834 
L 273.669265 103.818699 
L 270.838442 107.247943 
L 268.00762 108.439251 
L 265.176797 108.638171 
L 262.345975 110.22984 
L 259.515152 109.751237 
L 256.68433 112.952305 
L 253.853507 112.999521 
L 251.022685 113.337277 
L 248.191862 114.38239 
L 245.36104 115.863903 
L 242.530217 115.99279 
L 239.699395 116.76633 
L 236.868572 117.541025 
L 234.037749 119.082339 
L 231.206927 119.479413 
L 228.376104 120.142186 
L 225.545282 121.072507 
L 222.714459 122.252069 
L 219.883637 123.370552 
L 217.052814 124.332677 
L 214.221992 125.510544 
L 211.391169 126.447045 
L 208.560347 128.338017 
L 205.729524 129.094683 
L 202.898701 130.537289 
L 200.067879 131.608298 
L 197.237056 133.502637 
L 194.406234 134.783865 
L 191.575411 136.123139 
L 188.744589 137.054391 
L 185.913766 138.806065 
L 183.082944 140.417867 
L 180.252121 141.948116 
L 177.421299 143.267233 
L 174.590476 144.585906 
L 171.759653 146.358726 
L 168.928831 148.085779 
L 166.098008 149.789302 
L 163.267186 151.454713 
L 160.436363 152.905644 
L 157.605541 154.015719 
L 154.774718 155.071656 
L 151.943896 156.049882 
L 149.113073 157.02082 
L 146.282251 158.014532 
L 143.451428 158.789133 
L 140.620605 160.107892 
L 137.789783 161.197283 
L 134.95896 162.478418 
L 132.128138 163.854254 
L 129.297315 165.256766 
L 126.466493 166.029692 
L 123.63567 166.871422 
L 120.804848 167.544956 
L 117.974025 167.681037 
L 115.143203 166.985557 
L 112.31238 166.118653 
L 109.481558 166.035419 
L 106.650735 166.318232 
L 103.819912 166.360045 
L 100.98909 164.828779 
L 98.158267 164.424771 
L 95.327445 162.908237 
L 92.496622 161.608565 
L 89.6658 159.078468 
L 86.834977 155.938195 
L 84.004155 152.524438 
L 81.173332 151.097812 
L 78.34251 148.310084 
L 75.511687 145.455103 
L 72.680864 142.532868 
L 69.850042 139.569702 
L 67.019219 136.759673 
L 64.188397 133.556977 
L 61.357574 130.215963 
L 58.526752 126.947965 
L 55.695929 123.612551 
L 52.865107 120.209721 
L 50.034284 116.739475 
z
" style="fill:#1f77b4;fill-opacity:0.15;"/>
   </g>
   <g id="matplotlib.axis_1">
    <g id="xtick_1">
     <g id="line2d_1">
      <defs>
       <path d="M 0 0 
L 0 3.5 
" id="m42d511a880" style="stroke:#000000;stroke-width:0.8;"/>
      </defs>
      <g>
       <use style="stroke:#000000;stroke-width:0.8;" x="36.688978" xlink:href="#m42d511a880" y="332.12"/>
      </g>
     </g>
     <g id="text_1">
      <!-- 0 -->
      <defs>
       <path d="M 31.78125 66.40625 
Q 24.171875 66.40625 20.328125 58.90625 
Q 16.5 51.421875 16.5 36.375 
Q 16.5 21.390625 20.328125 13.890625 
Q 24.171875 6.390625 31.78125 6.390625 
Q 39.453125 6.390625 43.28125 13.890625 
Q 47.125 21.390625 47.125 36.375 
Q 47.125 51.421875 43.28125 58.90625 
Q 39.453125 66.40625 31.78125 66.40625 
z
M 31.78125 74.21875 
Q 44.046875 74.21875 50.515625 64.515625 
Q 56.984375 54.828125 56.984375 36.375 
Q 56.984375 17.96875 50.515625 8.265625 
Q 44.046875 -1.421875 31.78125 -1.421875 
Q 19.53125 -1.421875 13.0625 8.265625 
Q 6.59375 17.96875 6.59375 36.375 
Q 6.59375 54.828125 13.0625 64.515625 
Q 19.53125 74.21875 31.78125 74.21875 
z
" id="DejaVuSans-48"/>
      </defs>
      <g transform="translate(33.507728 346.718437)scale(0.1 -0.1)">
       <use xlink:href="#DejaVuSans-48"/>
      </g>
     </g>
    </g>
    <g id="xtick_2">
     <g id="line2d_2">
      <g>
       <use style="stroke:#000000;stroke-width:0.8;" x="103.415509" xlink:href="#m42d511a880" y="332.12"/>
      </g>
     </g>
     <g id="text_2">
      <!-- 10 -->
      <defs>
       <path d="M 12.40625 8.296875 
L 28.515625 8.296875 
L 28.515625 63.921875 
L 10.984375 60.40625 
L 10.984375 69.390625 
L 28.421875 72.90625 
L 38.28125 72.90625 
L 38.28125 8.296875 
L 54.390625 8.296875 
L 54.390625 0 
L 12.40625 0 
z
" id="DejaVuSans-49"/>
      </defs>
      <g transform="translate(97.053009 346.718437)scale(0.1 -0.1)">
       <use xlink:href="#DejaVuSans-49"/>
       <use x="63.623047" xlink:href="#DejaVuSans-48"/>
      </g>
     </g>
    </g>
    <g id="xtick_3">
     <g id="line2d_3">
      <g>
       <use style="stroke:#000000;stroke-width:0.8;" x="170.142041" xlink:href="#m42d511a880" y="332.12"/>
      </g>
     </g>
     <g id="text_3">
      <!-- 20 -->
      <defs>
       <path d="M 19.1875 8.296875 
L 53.609375 8.296875 
L 53.609375 0 
L 7.328125 0 
L 7.328125 8.296875 
Q 12.9375 14.109375 22.625 23.890625 
Q 32.328125 33.6875 34.8125 36.53125 
Q 39.546875 41.84375 41.421875 45.53125 
Q 43.3125 49.21875 43.3125 52.78125 
Q 43.3125 58.59375 39.234375 62.25 
Q 35.15625 65.921875 28.609375 65.921875 
Q 23.96875 65.921875 18.8125 64.3125 
Q 13.671875 62.703125 7.8125 59.421875 
L 7.8125 69.390625 
Q 13.765625 71.78125 18.9375 73 
Q 24.125 74.21875 28.421875 74.21875 
Q 39.75 74.21875 46.484375 68.546875 
Q 53.21875 62.890625 53.21875 53.421875 
Q 53.21875 48.921875 51.53125 44.890625 
Q 49.859375 40.875 45.40625 35.40625 
Q 44.1875 33.984375 37.640625 27.21875 
Q 31.109375 20.453125 19.1875 8.296875 
z
" id="DejaVuSans-50"/>
      </defs>
      <g transform="translate(163.779541 346.718437)scale(0.1 -0.1)">
       <use xlink:href="#DejaVuSans-50"/>
       <use x="63.623047" xlink:href="#DejaVuSans-48"/>
      </g>
     </g>
    </g>
    <g id="xtick_4">
     <g id="line2d_4">
      <g>
       <use style="stroke:#000000;stroke-width:0.8;" x="236.868572" xlink:href="#m42d511a880" y="332.12"/>
      </g>
     </g>
     <g id="text_4">
      <!-- 30 -->
      <defs>
       <path d="M 40.578125 39.3125 
Q 47.65625 37.796875 51.625 33 
Q 55.609375 28.21875 55.609375 21.1875 
Q 55.609375 10.40625 48.1875 4.484375 
Q 40.765625 -1.421875 27.09375 -1.421875 
Q 22.515625 -1.421875 17.65625 -0.515625 
Q 12.796875 0.390625 7.625 2.203125 
L 7.625 11.71875 
Q 11.71875 9.328125 16.59375 8.109375 
Q 21.484375 6.890625 26.8125 6.890625 
Q 36.078125 6.890625 40.9375 10.546875 
Q 45.796875 14.203125 45.796875 21.1875 
Q 45.796875 27.640625 41.28125 31.265625 
Q 36.765625 34.90625 28.71875 34.90625 
L 20.21875 34.90625 
L 20.21875 43.015625 
L 29.109375 43.015625 
Q 36.375 43.015625 40.234375 45.921875 
Q 44.09375 48.828125 44.09375 54.296875 
Q 44.09375 59.90625 40.109375 62.90625 
Q 36.140625 65.921875 28.71875 65.921875 
Q 24.65625 65.921875 20.015625 65.03125 
Q 15.375 64.15625 9.8125 62.3125 
L 9.8125 71.09375 
Q 15.4375 72.65625 20.34375 73.4375 
Q 25.25 74.21875 29.59375 74.21875 
Q 40.828125 74.21875 47.359375 69.109375 
Q 53.90625 64.015625 53.90625 55.328125 
Q 53.90625 49.265625 50.4375 45.09375 
Q 46.96875 40.921875 40.578125 39.3125 
z
" id="DejaVuSans-51"/>
      </defs>
      <g transform="translate(230.506072 346.718437)scale(0.1 -0.1)">
       <use xlink:href="#DejaVuSans-51"/>
       <use x="63.623047" xlink:href="#DejaVuSans-48"/>
      </g>
     </g>
    </g>
    <g id="xtick_5">
     <g id="line2d_5">
      <g>
       <use style="stroke:#000000;stroke-width:0.8;" x="303.595103" xlink:href="#m42d511a880" y="332.12"/>
      </g>
     </g>
     <g id="text_5">
      <!-- 40 -->
      <defs>
       <path d="M 37.796875 64.3125 
L 12.890625 25.390625 
L 37.796875 25.390625 
z
M 35.203125 72.90625 
L 47.609375 72.90625 
L 47.609375 25.390625 
L 58.015625 25.390625 
L 58.015625 17.1875 
L 47.609375 17.1875 
L 47.609375 0 
L 37.796875 0 
L 37.796875 17.1875 
L 4.890625 17.1875 
L 4.890625 26.703125 
z
" id="DejaVuSans-52"/>
      </defs>
      <g transform="translate(297.232603 346.718437)scale(0.1 -0.1)">
       <use xlink:href="#DejaVuSans-52"/>
       <use x="63.623047" xlink:href="#DejaVuSans-48"/>
      </g>
     </g>
    </g>
    <g id="text_6">
     <!-- BBT AH -->
     <defs>
      <path d="M 19.671875 34.8125 
L 19.671875 8.109375 
L 35.5 8.109375 
Q 43.453125 8.109375 47.28125 11.40625 
Q 51.125 14.703125 51.125 21.484375 
Q 51.125 28.328125 47.28125 31.5625 
Q 43.453125 34.8125 35.5 34.8125 
z
M 19.671875 64.796875 
L 19.671875 42.828125 
L 34.28125 42.828125 
Q 41.5 42.828125 45.03125 45.53125 
Q 48.578125 48.25 48.578125 53.8125 
Q 48.578125 59.328125 45.03125 62.0625 
Q 41.5 64.796875 34.28125 64.796875 
z
M 9.8125 72.90625 
L 35.015625 72.90625 
Q 46.296875 72.90625 52.390625 68.21875 
Q 58.5 63.53125 58.5 54.890625 
Q 58.5 48.1875 55.375 44.234375 
Q 52.25 40.28125 46.1875 39.3125 
Q 53.46875 37.75 57.5 32.78125 
Q 61.53125 27.828125 61.53125 20.40625 
Q 61.53125 10.640625 54.890625 5.3125 
Q 48.25 0 35.984375 0 
L 9.8125 0 
z
" id="DejaVuSans-66"/>
      <path d="M -0.296875 72.90625 
L 61.375 72.90625 
L 61.375 64.59375 
L 35.5 64.59375 
L 35.5 0 
L 25.59375 0 
L 25.59375 64.59375 
L -0.296875 64.59375 
z
" id="DejaVuSans-84"/>
      <path id="DejaVuSans-32"/>
      <path d="M 34.1875 63.1875 
L 20.796875 26.90625 
L 47.609375 26.90625 
z
M 28.609375 72.90625 
L 39.796875 72.90625 
L 67.578125 0 
L 57.328125 0 
L 50.6875 18.703125 
L 17.828125 18.703125 
L 11.1875 0 
L 0.78125 0 
z
" id="DejaVuSans-65"/>
      <path d="M 9.8125 72.90625 
L 19.671875 72.90625 
L 19.671875 43.015625 
L 55.515625 43.015625 
L 55.515625 72.90625 
L 65.375 72.90625 
L 65.375 0 
L 55.515625 0 
L 55.515625 34.71875 
L 19.671875 34.71875 
L 19.671875 0 
L 9.8125 0 
z
" id="DejaVuSans-72"/>
     </defs>
     <g transform="translate(171.475625 360.396563)scale(0.1 -0.1)">
      <use xlink:href="#DejaVuSans-66"/>
      <use x="68.603516" xlink:href="#DejaVuSans-66"/>
      <use x="137.207031" xlink:href="#DejaVuSans-84"/>
      <use x="198.291016" xlink:href="#DejaVuSans-32"/>
      <use x="230.078125" xlink:href="#DejaVuSans-65"/>
      <use x="298.486328" xlink:href="#DejaVuSans-72"/>
     </g>
    </g>
   </g>
   <g id="matplotlib.axis_2">
    <g id="ytick_1">
     <g id="line2d_6">
      <defs>
       <path d="M 0 0 
L -3.5 0 
" id="m2f6c424b65" style="stroke:#000000;stroke-width:0.8;"/>
      </defs>
      <g>
       <use style="stroke:#000000;stroke-width:0.8;" x="33.64" xlink:href="#m2f6c424b65" y="298.525222"/>
      </g>
     </g>
     <g id="text_7">
      <!-- 0.2 -->
      <defs>
       <path d="M 10.6875 12.40625 
L 21 12.40625 
L 21 0 
L 10.6875 0 
z
" id="DejaVuSans-46"/>
      </defs>
      <g transform="translate(10.736875 302.32444)scale(0.1 -0.1)">
       <use xlink:href="#DejaVuSans-48"/>
       <use x="63.623047" xlink:href="#DejaVuSans-46"/>
       <use x="95.410156" xlink:href="#DejaVuSans-50"/>
      </g>
     </g>
    </g>
    <g id="ytick_2">
     <g id="line2d_7">
      <g>
       <use style="stroke:#000000;stroke-width:0.8;" x="33.64" xlink:href="#m2f6c424b65" y="239.661711"/>
      </g>
     </g>
     <g id="text_8">
      <!-- 0.4 -->
      <g transform="translate(10.736875 243.46093)scale(0.1 -0.1)">
       <use xlink:href="#DejaVuSans-48"/>
       <use x="63.623047" xlink:href="#DejaVuSans-46"/>
       <use x="95.410156" xlink:href="#DejaVuSans-52"/>
      </g>
     </g>
    </g>
    <g id="ytick_3">
     <g id="line2d_8">
      <g>
       <use style="stroke:#000000;stroke-width:0.8;" x="33.64" xlink:href="#m2f6c424b65" y="180.7982"/>
      </g>
     </g>
     <g id="text_9">
      <!-- 0.6 -->
      <defs>
       <path d="M 33.015625 40.375 
Q 26.375 40.375 22.484375 35.828125 
Q 18.609375 31.296875 18.609375 23.390625 
Q 18.609375 15.53125 22.484375 10.953125 
Q 26.375 6.390625 33.015625 6.390625 
Q 39.65625 6.390625 43.53125 10.953125 
Q 47.40625 15.53125 47.40625 23.390625 
Q 47.40625 31.296875 43.53125 35.828125 
Q 39.65625 40.375 33.015625 40.375 
z
M 52.59375 71.296875 
L 52.59375 62.3125 
Q 48.875 64.0625 45.09375 64.984375 
Q 41.3125 65.921875 37.59375 65.921875 
Q 27.828125 65.921875 22.671875 59.328125 
Q 17.53125 52.734375 16.796875 39.40625 
Q 19.671875 43.65625 24.015625 45.921875 
Q 28.375 48.1875 33.59375 48.1875 
Q 44.578125 48.1875 50.953125 41.515625 
Q 57.328125 34.859375 57.328125 23.390625 
Q 57.328125 12.15625 50.6875 5.359375 
Q 44.046875 -1.421875 33.015625 -1.421875 
Q 20.359375 -1.421875 13.671875 8.265625 
Q 6.984375 17.96875 6.984375 36.375 
Q 6.984375 53.65625 15.1875 63.9375 
Q 23.390625 74.21875 37.203125 74.21875 
Q 40.921875 74.21875 44.703125 73.484375 
Q 48.484375 72.75 52.59375 71.296875 
z
" id="DejaVuSans-54"/>
      </defs>
      <g transform="translate(10.736875 184.597419)scale(0.1 -0.1)">
       <use xlink:href="#DejaVuSans-48"/>
       <use x="63.623047" xlink:href="#DejaVuSans-46"/>
       <use x="95.410156" xlink:href="#DejaVuSans-54"/>
      </g>
     </g>
    </g>
    <g id="ytick_4">
     <g id="line2d_9">
      <g>
       <use style="stroke:#000000;stroke-width:0.8;" x="33.64" xlink:href="#m2f6c424b65" y="121.93469"/>
      </g>
     </g>
     <g id="text_10">
      <!-- 0.8 -->
      <defs>
       <path d="M 31.78125 34.625 
Q 24.75 34.625 20.71875 30.859375 
Q 16.703125 27.09375 16.703125 20.515625 
Q 16.703125 13.921875 20.71875 10.15625 
Q 24.75 6.390625 31.78125 6.390625 
Q 38.8125 6.390625 42.859375 10.171875 
Q 46.921875 13.96875 46.921875 20.515625 
Q 46.921875 27.09375 42.890625 30.859375 
Q 38.875 34.625 31.78125 34.625 
z
M 21.921875 38.8125 
Q 15.578125 40.375 12.03125 44.71875 
Q 8.5 49.078125 8.5 55.328125 
Q 8.5 64.0625 14.71875 69.140625 
Q 20.953125 74.21875 31.78125 74.21875 
Q 42.671875 74.21875 48.875 69.140625 
Q 55.078125 64.0625 55.078125 55.328125 
Q 55.078125 49.078125 51.53125 44.71875 
Q 48 40.375 41.703125 38.8125 
Q 48.828125 37.15625 52.796875 32.3125 
Q 56.78125 27.484375 56.78125 20.515625 
Q 56.78125 9.90625 50.3125 4.234375 
Q 43.84375 -1.421875 31.78125 -1.421875 
Q 19.734375 -1.421875 13.25 4.234375 
Q 6.78125 9.90625 6.78125 20.515625 
Q 6.78125 27.484375 10.78125 32.3125 
Q 14.796875 37.15625 21.921875 38.8125 
z
M 18.3125 54.390625 
Q 18.3125 48.734375 21.84375 45.5625 
Q 25.390625 42.390625 31.78125 42.390625 
Q 38.140625 42.390625 41.71875 45.5625 
Q 45.3125 48.734375 45.3125 54.390625 
Q 45.3125 60.0625 41.71875 63.234375 
Q 38.140625 66.40625 31.78125 66.40625 
Q 25.390625 66.40625 21.84375 63.234375 
Q 18.3125 60.0625 18.3125 54.390625 
z
" id="DejaVuSans-56"/>
      </defs>
      <g transform="translate(10.736875 125.733909)scale(0.1 -0.1)">
       <use xlink:href="#DejaVuSans-48"/>
       <use x="63.623047" xlink:href="#DejaVuSans-46"/>
       <use x="95.410156" xlink:href="#DejaVuSans-56"/>
      </g>
     </g>
    </g>
    <g id="ytick_5">
     <g id="line2d_10">
      <g>
       <use style="stroke:#000000;stroke-width:0.8;" x="33.64" xlink:href="#m2f6c424b65" y="63.071179"/>
      </g>
     </g>
     <g id="text_11">
      <!-- 1.0 -->
      <g transform="translate(10.736875 66.870398)scale(0.1 -0.1)">
       <use xlink:href="#DejaVuSans-49"/>
       <use x="63.623047" xlink:href="#DejaVuSans-46"/>
       <use x="95.410156" xlink:href="#DejaVuSans-48"/>
      </g>
     </g>
    </g>
    <g id="text_12">
     <!-- PROP SYMM AH MUS -->
     <defs>
      <path d="M 19.671875 64.796875 
L 19.671875 37.40625 
L 32.078125 37.40625 
Q 38.96875 37.40625 42.71875 40.96875 
Q 46.484375 44.53125 46.484375 51.125 
Q 46.484375 57.671875 42.71875 61.234375 
Q 38.96875 64.796875 32.078125 64.796875 
z
M 9.8125 72.90625 
L 32.078125 72.90625 
Q 44.34375 72.90625 50.609375 67.359375 
Q 56.890625 61.8125 56.890625 51.125 
Q 56.890625 40.328125 50.609375 34.8125 
Q 44.34375 29.296875 32.078125 29.296875 
L 19.671875 29.296875 
L 19.671875 0 
L 9.8125 0 
z
" id="DejaVuSans-80"/>
      <path d="M 44.390625 34.1875 
Q 47.5625 33.109375 50.5625 29.59375 
Q 53.5625 26.078125 56.59375 19.921875 
L 66.609375 0 
L 56 0 
L 46.6875 18.703125 
Q 43.0625 26.03125 39.671875 28.421875 
Q 36.28125 30.8125 30.421875 30.8125 
L 19.671875 30.8125 
L 19.671875 0 
L 9.8125 0 
L 9.8125 72.90625 
L 32.078125 72.90625 
Q 44.578125 72.90625 50.734375 67.671875 
Q 56.890625 62.453125 56.890625 51.90625 
Q 56.890625 45.015625 53.6875 40.46875 
Q 50.484375 35.9375 44.390625 34.1875 
z
M 19.671875 64.796875 
L 19.671875 38.921875 
L 32.078125 38.921875 
Q 39.203125 38.921875 42.84375 42.21875 
Q 46.484375 45.515625 46.484375 51.90625 
Q 46.484375 58.296875 42.84375 61.546875 
Q 39.203125 64.796875 32.078125 64.796875 
z
" id="DejaVuSans-82"/>
      <path d="M 39.40625 66.21875 
Q 28.65625 66.21875 22.328125 58.203125 
Q 16.015625 50.203125 16.015625 36.375 
Q 16.015625 22.609375 22.328125 14.59375 
Q 28.65625 6.59375 39.40625 6.59375 
Q 50.140625 6.59375 56.421875 14.59375 
Q 62.703125 22.609375 62.703125 36.375 
Q 62.703125 50.203125 56.421875 58.203125 
Q 50.140625 66.21875 39.40625 66.21875 
z
M 39.40625 74.21875 
Q 54.734375 74.21875 63.90625 63.9375 
Q 73.09375 53.65625 73.09375 36.375 
Q 73.09375 19.140625 63.90625 8.859375 
Q 54.734375 -1.421875 39.40625 -1.421875 
Q 24.03125 -1.421875 14.8125 8.828125 
Q 5.609375 19.09375 5.609375 36.375 
Q 5.609375 53.65625 14.8125 63.9375 
Q 24.03125 74.21875 39.40625 74.21875 
z
" id="DejaVuSans-79"/>
      <path d="M 53.515625 70.515625 
L 53.515625 60.890625 
Q 47.90625 63.578125 42.921875 64.890625 
Q 37.9375 66.21875 33.296875 66.21875 
Q 25.25 66.21875 20.875 63.09375 
Q 16.5 59.96875 16.5 54.203125 
Q 16.5 49.359375 19.40625 46.890625 
Q 22.3125 44.4375 30.421875 42.921875 
L 36.375 41.703125 
Q 47.40625 39.59375 52.65625 34.296875 
Q 57.90625 29 57.90625 20.125 
Q 57.90625 9.515625 50.796875 4.046875 
Q 43.703125 -1.421875 29.984375 -1.421875 
Q 24.8125 -1.421875 18.96875 -0.25 
Q 13.140625 0.921875 6.890625 3.21875 
L 6.890625 13.375 
Q 12.890625 10.015625 18.65625 8.296875 
Q 24.421875 6.59375 29.984375 6.59375 
Q 38.421875 6.59375 43.015625 9.90625 
Q 47.609375 13.234375 47.609375 19.390625 
Q 47.609375 24.75 44.3125 27.78125 
Q 41.015625 30.8125 33.5 32.328125 
L 27.484375 33.5 
Q 16.453125 35.6875 11.515625 40.375 
Q 6.59375 45.0625 6.59375 53.421875 
Q 6.59375 63.09375 13.40625 68.65625 
Q 20.21875 74.21875 32.171875 74.21875 
Q 37.3125 74.21875 42.625 73.28125 
Q 47.953125 72.359375 53.515625 70.515625 
z
" id="DejaVuSans-83"/>
      <path d="M -0.203125 72.90625 
L 10.40625 72.90625 
L 30.609375 42.921875 
L 50.6875 72.90625 
L 61.28125 72.90625 
L 35.5 34.71875 
L 35.5 0 
L 25.59375 0 
L 25.59375 34.71875 
z
" id="DejaVuSans-89"/>
      <path d="M 9.8125 72.90625 
L 24.515625 72.90625 
L 43.109375 23.296875 
L 61.8125 72.90625 
L 76.515625 72.90625 
L 76.515625 0 
L 66.890625 0 
L 66.890625 64.015625 
L 48.09375 14.015625 
L 38.1875 14.015625 
L 19.390625 64.015625 
L 19.390625 0 
L 9.8125 0 
z
" id="DejaVuSans-77"/>
      <path d="M 8.6875 72.90625 
L 18.609375 72.90625 
L 18.609375 28.609375 
Q 18.609375 16.890625 22.84375 11.734375 
Q 27.09375 6.59375 36.625 6.59375 
Q 46.09375 6.59375 50.34375 11.734375 
Q 54.59375 16.890625 54.59375 28.609375 
L 54.59375 72.90625 
L 64.5 72.90625 
L 64.5 27.390625 
Q 64.5 13.140625 57.4375 5.859375 
Q 50.390625 -1.421875 36.625 -1.421875 
Q 22.796875 -1.421875 15.734375 5.859375 
Q 8.6875 13.140625 8.6875 27.390625 
z
" id="DejaVuSans-85"/>
     </defs>
     <g transform="translate(4.657187 224.111406)rotate(-90)scale(0.1 -0.1)">
      <use xlink:href="#DejaVuSans-80"/>
      <use x="60.302734" xlink:href="#DejaVuSans-82"/>
      <use x="129.785156" xlink:href="#DejaVuSans-79"/>
      <use x="208.496094" xlink:href="#DejaVuSans-80"/>
      <use x="268.798828" xlink:href="#DejaVuSans-32"/>
      <use x="300.585938" xlink:href="#DejaVuSans-83"/>
      <use x="364.0625" xlink:href="#DejaVuSans-89"/>
      <use x="425.146484" xlink:href="#DejaVuSans-77"/>
      <use x="511.425781" xlink:href="#DejaVuSans-77"/>
      <use x="597.705078" xlink:href="#DejaVuSans-32"/>
      <use x="629.492188" xlink:href="#DejaVuSans-65"/>
      <use x="697.900391" xlink:href="#DejaVuSans-72"/>
      <use x="773.095703" xlink:href="#DejaVuSans-32"/>
      <use x="804.882812" xlink:href="#DejaVuSans-77"/>
      <use x="891.162109" xlink:href="#DejaVuSans-85"/>
      <use x="964.355469" xlink:href="#DejaVuSans-83"/>
     </g>
    </g>
   </g>
   <g id="line2d_11">
    <path clip-path="url(#paf1974021a)" d="M 50.034284 213.475922 
L 52.865107 212.597896 
L 55.695929 211.722509 
L 58.526752 210.849761 
L 61.357574 209.979653 
L 64.188397 209.112184 
L 67.019219 208.247355 
L 69.850042 207.385165 
L 72.680864 206.525615 
L 75.511687 205.668704 
L 78.34251 204.814433 
L 81.173332 203.962801 
L 84.004155 203.113808 
L 86.834977 202.267455 
L 89.6658 201.423741 
L 92.496622 200.582667 
L 95.327445 199.744232 
L 98.158267 198.908436 
L 100.98909 198.07528 
L 103.819912 197.244763 
L 106.650735 196.416886 
L 109.481558 195.591649 
L 112.31238 194.76905 
L 115.143203 193.949091 
L 117.974025 193.131772 
L 120.804848 192.317092 
L 123.63567 191.505051 
L 126.466493 190.69565 
L 129.297315 189.888888 
L 132.128138 189.084766 
L 134.95896 188.283283 
L 137.789783 187.48444 
L 140.620605 186.688236 
L 143.451428 185.894671 
L 146.282251 185.103746 
L 149.113073 184.31546 
L 151.943896 183.529814 
L 154.774718 182.746807 
L 157.605541 181.96644 
L 160.436363 181.188712 
L 163.267186 180.413623 
L 166.098008 179.641174 
L 168.928831 178.871364 
L 171.759653 178.104194 
L 174.590476 177.339663 
L 177.421299 176.577772 
L 180.252121 175.81852 
L 183.082944 175.061907 
L 185.913766 174.307934 
L 188.744589 173.5566 
L 191.575411 172.807906 
L 194.406234 172.061851 
L 197.237056 171.318436 
L 200.067879 170.57766 
L 202.898701 169.839524 
L 205.729524 169.104026 
L 208.560347 168.371169 
L 211.391169 167.640951 
L 214.221992 166.913372 
L 217.052814 166.188432 
L 219.883637 165.466132 
L 222.714459 164.746472 
L 225.545282 164.029451 
L 228.376104 163.315069 
L 231.206927 162.603327 
L 234.037749 161.894224 
L 236.868572 161.187761 
L 239.699395 160.483937 
L 242.530217 159.782753 
L 245.36104 159.084207 
L 248.191862 158.388302 
L 251.022685 157.695036 
L 253.853507 157.004409 
L 256.68433 156.316422 
L 259.515152 155.631074 
L 262.345975 154.948365 
L 265.176797 154.268296 
L 268.00762 153.590867 
L 270.838442 152.916076 
L 273.669265 152.243926 
L 276.500088 151.574414 
L 279.33091 150.907542 
L 282.161733 150.24331 
L 284.992555 149.581717 
L 287.823378 148.922763 
L 290.6542 148.266449 
L 293.485023 147.612775 
L 296.315845 146.961739 
L 299.146668 146.313343 
L 301.97749 145.667587 
L 304.808313 145.02447 
L 307.639136 144.383992 
L 310.469958 143.746154 
L 313.300781 143.110956 
L 316.131603 142.478396 
L 318.962426 141.848477 
L 321.793248 141.221196 
L 324.624071 140.596555 
L 327.454893 139.974554 
L 330.285716 139.355192 
" style="fill:none;stroke:#1f77b4;stroke-linecap:square;stroke-width:2.25;"/>
   </g>
   <g id="patch_3">
    <path d="M 33.64 332.12 
L 33.64 13.32 
" style="fill:none;stroke:#000000;stroke-linecap:square;stroke-linejoin:miter;stroke-width:0.8;"/>
   </g>
   <g id="patch_4">
    <path d="M 33.64 332.12 
L 346.68 332.12 
" style="fill:none;stroke:#000000;stroke-linecap:square;stroke-linejoin:miter;stroke-width:0.8;"/>
   </g>
  </g>
 </g>
 <defs>
  <clipPath id="paf1974021a">
   <rect height="318.8" width="313.04" x="33.64" y="13.32"/>
  </clipPath>
 </defs>
</svg>
