<?xml version="1.0" encoding="utf-8" standalone="no"?>
<!DOCTYPE svg PUBLIC "-//W3C//DTD SVG 1.1//EN"
  "http://www.w3.org/Graphics/SVG/1.1/DTD/svg11.dtd">
<!-- Created with matplotlib (https://matplotlib.org/) -->
<svg height="576pt" version="1.1" viewBox="0 0 648 576" width="648pt" xmlns="http://www.w3.org/2000/svg" xmlns:xlink="http://www.w3.org/1999/xlink">
 <metadata>
  <rdf:RDF xmlns:cc="http://creativecommons.org/ns#" xmlns:dc="http://purl.org/dc/elements/1.1/" xmlns:rdf="http://www.w3.org/1999/02/22-rdf-syntax-ns#">
   <cc:Work>
    <dc:type rdf:resource="http://purl.org/dc/dcmitype/StillImage"/>
    <dc:date>2024-03-11T14:36:26.941775</dc:date>
    <dc:format>image/svg+xml</dc:format>
    <dc:creator>
     <cc:Agent>
      <dc:title>Matplotlib v3.3.1, https://matplotlib.org/</dc:title>
     </cc:Agent>
    </dc:creator>
   </cc:Work>
  </rdf:RDF>
 </metadata>
 <defs>
  <style type="text/css">*{stroke-linecap:butt;stroke-linejoin:round;}</style>
 </defs>
 <g id="figure_1">
  <g id="patch_1">
   <path d="M 0 576 
L 648 576 
L 648 0 
L 0 0 
z
" style="fill:#ffffff;"/>
  </g>
  <g id="axes_1">
   <g id="patch_2">
    <path d="M 92.25 241.082753 
L 622.08 241.082753 
L 622.08 49.2 
L 92.25 49.2 
z
" style="fill:#eaeaf2;"/>
   </g>
   <g id="matplotlib.axis_1">
    <g id="xtick_1"/>
    <g id="xtick_2"/>
   </g>
   <g id="matplotlib.axis_2">
    <g id="ytick_1">
     <g id="line2d_1">
      <path clip-path="url(#p514ef48175)" d="M 92.25 240.777263 
L 622.08 240.777263 
" style="fill:none;stroke:#ffffff;stroke-linecap:round;"/>
     </g>
     <g id="text_1">
      <!-- 0.4 -->
      <g style="fill:#262626;" transform="translate(52.17 248.650857)scale(0.22 -0.22)">
       <defs>
        <path d="M 4.15625 35.296875 
Q 4.15625 48 6.765625 55.734375 
Q 9.375 63.484375 14.515625 67.671875 
Q 19.671875 71.875 27.484375 71.875 
Q 33.25 71.875 37.59375 69.546875 
Q 41.9375 67.234375 44.765625 62.859375 
Q 47.609375 58.5 49.21875 52.21875 
Q 50.828125 45.953125 50.828125 35.296875 
Q 50.828125 22.703125 48.234375 14.96875 
Q 45.65625 7.234375 40.5 3 
Q 35.359375 -1.21875 27.484375 -1.21875 
Q 17.140625 -1.21875 11.234375 6.203125 
Q 4.15625 15.140625 4.15625 35.296875 
z
M 13.1875 35.296875 
Q 13.1875 17.671875 17.3125 11.828125 
Q 21.4375 6 27.484375 6 
Q 33.546875 6 37.671875 11.859375 
Q 41.796875 17.71875 41.796875 35.296875 
Q 41.796875 52.984375 37.671875 58.78125 
Q 33.546875 64.59375 27.390625 64.59375 
Q 21.34375 64.59375 17.71875 59.46875 
Q 13.1875 52.9375 13.1875 35.296875 
z
" id="ArialMT-48"/>
        <path d="M 9.078125 0 
L 9.078125 10.015625 
L 19.09375 10.015625 
L 19.09375 0 
z
" id="ArialMT-46"/>
        <path d="M 32.328125 0 
L 32.328125 17.140625 
L 1.265625 17.140625 
L 1.265625 25.203125 
L 33.9375 71.578125 
L 41.109375 71.578125 
L 41.109375 25.203125 
L 50.78125 25.203125 
L 50.78125 17.140625 
L 41.109375 17.140625 
L 41.109375 0 
z
M 32.328125 25.203125 
L 32.328125 57.46875 
L 9.90625 25.203125 
z
" id="ArialMT-52"/>
       </defs>
       <use xlink:href="#ArialMT-48"/>
       <use x="55.615234" xlink:href="#ArialMT-46"/>
       <use x="83.398438" xlink:href="#ArialMT-52"/>
      </g>
     </g>
    </g>
    <g id="ytick_2">
     <g id="line2d_2">
      <path clip-path="url(#p514ef48175)" d="M 92.25 179.020318 
L 622.08 179.020318 
" style="fill:none;stroke:#ffffff;stroke-linecap:round;"/>
     </g>
     <g id="text_2">
      <!-- 0.6 -->
      <g style="fill:#262626;" transform="translate(52.17 186.893911)scale(0.22 -0.22)">
       <defs>
        <path d="M 49.75 54.046875 
L 41.015625 53.375 
Q 39.84375 58.546875 37.703125 60.890625 
Q 34.125 64.65625 28.90625 64.65625 
Q 24.703125 64.65625 21.53125 62.3125 
Q 17.390625 59.28125 14.984375 53.46875 
Q 12.59375 47.65625 12.5 36.921875 
Q 15.671875 41.75 20.265625 44.09375 
Q 24.859375 46.4375 29.890625 46.4375 
Q 38.671875 46.4375 44.84375 39.96875 
Q 51.03125 33.5 51.03125 23.25 
Q 51.03125 16.5 48.125 10.71875 
Q 45.21875 4.9375 40.140625 1.859375 
Q 35.0625 -1.21875 28.609375 -1.21875 
Q 17.625 -1.21875 10.6875 6.859375 
Q 3.765625 14.9375 3.765625 33.5 
Q 3.765625 54.25 11.421875 63.671875 
Q 18.109375 71.875 29.4375 71.875 
Q 37.890625 71.875 43.28125 67.140625 
Q 48.6875 62.40625 49.75 54.046875 
z
M 13.875 23.1875 
Q 13.875 18.65625 15.796875 14.5 
Q 17.71875 10.359375 21.1875 8.171875 
Q 24.65625 6 28.46875 6 
Q 34.03125 6 38.03125 10.484375 
Q 42.046875 14.984375 42.046875 22.703125 
Q 42.046875 30.125 38.078125 34.390625 
Q 34.125 38.671875 28.125 38.671875 
Q 22.171875 38.671875 18.015625 34.390625 
Q 13.875 30.125 13.875 23.1875 
z
" id="ArialMT-54"/>
       </defs>
       <use xlink:href="#ArialMT-48"/>
       <use x="55.615234" xlink:href="#ArialMT-46"/>
       <use x="83.398438" xlink:href="#ArialMT-54"/>
      </g>
     </g>
    </g>
    <g id="ytick_3">
     <g id="line2d_3">
      <path clip-path="url(#p514ef48175)" d="M 92.25 117.263372 
L 622.08 117.263372 
" style="fill:none;stroke:#ffffff;stroke-linecap:round;"/>
     </g>
     <g id="text_3">
      <!-- 0.8 -->
      <g style="fill:#262626;" transform="translate(52.17 125.136966)scale(0.22 -0.22)">
       <defs>
        <path d="M 17.671875 38.8125 
Q 12.203125 40.828125 9.5625 44.53125 
Q 6.9375 48.25 6.9375 53.421875 
Q 6.9375 61.234375 12.546875 66.546875 
Q 18.171875 71.875 27.484375 71.875 
Q 36.859375 71.875 42.578125 66.421875 
Q 48.296875 60.984375 48.296875 53.171875 
Q 48.296875 48.1875 45.671875 44.5 
Q 43.0625 40.828125 37.75 38.8125 
Q 44.34375 36.671875 47.78125 31.875 
Q 51.21875 27.09375 51.21875 20.453125 
Q 51.21875 11.28125 44.71875 5.03125 
Q 38.234375 -1.21875 27.640625 -1.21875 
Q 17.046875 -1.21875 10.546875 5.046875 
Q 4.046875 11.328125 4.046875 20.703125 
Q 4.046875 27.6875 7.59375 32.390625 
Q 11.140625 37.109375 17.671875 38.8125 
z
M 15.921875 53.71875 
Q 15.921875 48.640625 19.1875 45.40625 
Q 22.46875 42.1875 27.6875 42.1875 
Q 32.765625 42.1875 36.015625 45.375 
Q 39.265625 48.578125 39.265625 53.21875 
Q 39.265625 58.0625 35.90625 61.359375 
Q 32.5625 64.65625 27.59375 64.65625 
Q 22.5625 64.65625 19.234375 61.421875 
Q 15.921875 58.203125 15.921875 53.71875 
z
M 13.09375 20.65625 
Q 13.09375 16.890625 14.875 13.375 
Q 16.65625 9.859375 20.171875 7.921875 
Q 23.6875 6 27.734375 6 
Q 34.03125 6 38.125 10.046875 
Q 42.234375 14.109375 42.234375 20.359375 
Q 42.234375 26.703125 38.015625 30.859375 
Q 33.796875 35.015625 27.4375 35.015625 
Q 21.234375 35.015625 17.15625 30.90625 
Q 13.09375 26.8125 13.09375 20.65625 
z
" id="ArialMT-56"/>
       </defs>
       <use xlink:href="#ArialMT-48"/>
       <use x="55.615234" xlink:href="#ArialMT-46"/>
       <use x="83.398438" xlink:href="#ArialMT-56"/>
      </g>
     </g>
    </g>
    <g id="ytick_4">
     <g id="line2d_4">
      <path clip-path="url(#p514ef48175)" d="M 92.25 55.506427 
L 622.08 55.506427 
" style="fill:none;stroke:#ffffff;stroke-linecap:round;"/>
     </g>
     <g id="text_4">
      <!-- 1.0 -->
      <g style="fill:#262626;" transform="translate(52.17 63.38002)scale(0.22 -0.22)">
       <defs>
        <path d="M 37.25 0 
L 28.46875 0 
L 28.46875 56 
Q 25.296875 52.984375 20.140625 49.953125 
Q 14.984375 46.921875 10.890625 45.40625 
L 10.890625 53.90625 
Q 18.265625 57.375 23.78125 62.296875 
Q 29.296875 67.234375 31.59375 71.875 
L 37.25 71.875 
z
" id="ArialMT-49"/>
       </defs>
       <use xlink:href="#ArialMT-49"/>
       <use x="55.615234" xlink:href="#ArialMT-46"/>
       <use x="83.398438" xlink:href="#ArialMT-48"/>
      </g>
     </g>
    </g>
    <g id="text_5">
     <!-- Values -->
     <g style="fill:#262626;" transform="translate(43.4 180.946377)rotate(-90)scale(0.24 -0.24)">
      <defs>
       <path d="M 28.171875 0 
L 0.4375 71.578125 
L 10.6875 71.578125 
L 29.296875 19.578125 
Q 31.546875 13.328125 33.0625 7.859375 
Q 34.71875 13.71875 36.921875 19.578125 
L 56.25 71.578125 
L 65.921875 71.578125 
L 37.890625 0 
z
" id="ArialMT-86"/>
       <path d="M 40.4375 6.390625 
Q 35.546875 2.25 31.03125 0.53125 
Q 26.515625 -1.171875 21.34375 -1.171875 
Q 12.796875 -1.171875 8.203125 3 
Q 3.609375 7.171875 3.609375 13.671875 
Q 3.609375 17.484375 5.34375 20.625 
Q 7.078125 23.78125 9.890625 25.6875 
Q 12.703125 27.59375 16.21875 28.5625 
Q 18.796875 29.25 24.03125 29.890625 
Q 34.671875 31.15625 39.703125 32.90625 
Q 39.75 34.71875 39.75 35.203125 
Q 39.75 40.578125 37.25 42.78125 
Q 33.890625 45.75 27.25 45.75 
Q 21.046875 45.75 18.09375 43.578125 
Q 15.140625 41.40625 13.71875 35.890625 
L 5.125 37.0625 
Q 6.296875 42.578125 8.984375 45.96875 
Q 11.671875 49.359375 16.75 51.1875 
Q 21.828125 53.03125 28.515625 53.03125 
Q 35.15625 53.03125 39.296875 51.46875 
Q 43.453125 49.90625 45.40625 47.53125 
Q 47.359375 45.171875 48.140625 41.546875 
Q 48.578125 39.3125 48.578125 33.453125 
L 48.578125 21.734375 
Q 48.578125 9.46875 49.140625 6.21875 
Q 49.703125 2.984375 51.375 0 
L 42.1875 0 
Q 40.828125 2.734375 40.4375 6.390625 
z
M 39.703125 26.03125 
Q 34.90625 24.078125 25.34375 22.703125 
Q 19.921875 21.921875 17.671875 20.9375 
Q 15.4375 19.96875 14.203125 18.09375 
Q 12.984375 16.21875 12.984375 13.921875 
Q 12.984375 10.40625 15.640625 8.0625 
Q 18.3125 5.71875 23.4375 5.71875 
Q 28.515625 5.71875 32.46875 7.9375 
Q 36.421875 10.15625 38.28125 14.015625 
Q 39.703125 17 39.703125 22.796875 
z
" id="ArialMT-97"/>
       <path d="M 6.390625 0 
L 6.390625 71.578125 
L 15.1875 71.578125 
L 15.1875 0 
z
" id="ArialMT-108"/>
       <path d="M 40.578125 0 
L 40.578125 7.625 
Q 34.515625 -1.171875 24.125 -1.171875 
Q 19.53125 -1.171875 15.546875 0.578125 
Q 11.578125 2.34375 9.640625 5 
Q 7.71875 7.671875 6.9375 11.53125 
Q 6.390625 14.109375 6.390625 19.734375 
L 6.390625 51.859375 
L 15.1875 51.859375 
L 15.1875 23.09375 
Q 15.1875 16.21875 15.71875 13.8125 
Q 16.546875 10.359375 19.234375 8.375 
Q 21.921875 6.390625 25.875 6.390625 
Q 29.828125 6.390625 33.296875 8.421875 
Q 36.765625 10.453125 38.203125 13.9375 
Q 39.65625 17.4375 39.65625 24.078125 
L 39.65625 51.859375 
L 48.4375 51.859375 
L 48.4375 0 
z
" id="ArialMT-117"/>
       <path d="M 42.09375 16.703125 
L 51.171875 15.578125 
Q 49.03125 7.625 43.21875 3.21875 
Q 37.40625 -1.171875 28.375 -1.171875 
Q 17 -1.171875 10.328125 5.828125 
Q 3.65625 12.84375 3.65625 25.484375 
Q 3.65625 38.578125 10.390625 45.796875 
Q 17.140625 53.03125 27.875 53.03125 
Q 38.28125 53.03125 44.875 45.953125 
Q 51.46875 38.875 51.46875 26.03125 
Q 51.46875 25.25 51.421875 23.6875 
L 12.75 23.6875 
Q 13.234375 15.140625 17.578125 10.59375 
Q 21.921875 6.0625 28.421875 6.0625 
Q 33.25 6.0625 36.671875 8.59375 
Q 40.09375 11.140625 42.09375 16.703125 
z
M 13.234375 30.90625 
L 42.1875 30.90625 
Q 41.609375 37.453125 38.875 40.71875 
Q 34.671875 45.796875 27.984375 45.796875 
Q 21.921875 45.796875 17.796875 41.75 
Q 13.671875 37.703125 13.234375 30.90625 
z
" id="ArialMT-101"/>
       <path d="M 3.078125 15.484375 
L 11.765625 16.84375 
Q 12.5 11.625 15.84375 8.84375 
Q 19.1875 6.0625 25.203125 6.0625 
Q 31.25 6.0625 34.171875 8.515625 
Q 37.109375 10.984375 37.109375 14.3125 
Q 37.109375 17.28125 34.515625 19 
Q 32.71875 20.171875 25.53125 21.96875 
Q 15.875 24.421875 12.140625 26.203125 
Q 8.40625 27.984375 6.46875 31.125 
Q 4.546875 34.28125 4.546875 38.09375 
Q 4.546875 41.546875 6.125 44.5 
Q 7.71875 47.46875 10.453125 49.421875 
Q 12.5 50.921875 16.03125 51.96875 
Q 19.578125 53.03125 23.640625 53.03125 
Q 29.734375 53.03125 34.34375 51.265625 
Q 38.96875 49.515625 41.15625 46.5 
Q 43.359375 43.5 44.1875 38.484375 
L 35.59375 37.3125 
Q 35.015625 41.3125 32.203125 43.546875 
Q 29.390625 45.796875 24.265625 45.796875 
Q 18.21875 45.796875 15.625 43.796875 
Q 13.03125 41.796875 13.03125 39.109375 
Q 13.03125 37.40625 14.109375 36.03125 
Q 15.1875 34.625 17.484375 33.6875 
Q 18.796875 33.203125 25.25 31.453125 
Q 34.578125 28.953125 38.25 27.359375 
Q 41.9375 25.78125 44.03125 22.75 
Q 46.140625 19.734375 46.140625 15.234375 
Q 46.140625 10.84375 43.578125 6.953125 
Q 41.015625 3.078125 36.171875 0.953125 
Q 31.34375 -1.171875 25.25 -1.171875 
Q 15.140625 -1.171875 9.84375 3.03125 
Q 4.546875 7.234375 3.078125 15.484375 
z
" id="ArialMT-115"/>
      </defs>
      <use xlink:href="#ArialMT-86"/>
      <use x="59.324219" xlink:href="#ArialMT-97"/>
      <use x="114.939453" xlink:href="#ArialMT-108"/>
      <use x="137.15625" xlink:href="#ArialMT-117"/>
      <use x="192.771484" xlink:href="#ArialMT-101"/>
      <use x="248.386719" xlink:href="#ArialMT-115"/>
     </g>
    </g>
   </g>
   <g id="patch_3">
    <path clip-path="url(#p514ef48175)" d="M 119.44794 132.109997 
L 188.67906 132.109997 
L 188.67906 87.549292 
L 119.44794 87.549292 
L 119.44794 132.109997 
z
" style="fill:#176d9c;stroke:#303030;stroke-linejoin:miter;"/>
   </g>
   <g id="patch_4">
    <path clip-path="url(#p514ef48175)" d="M 190.09194 149.499568 
L 259.32306 149.499568 
L 259.32306 85.724097 
L 190.09194 85.724097 
L 190.09194 149.499568 
z
" style="fill:#c38820;stroke:#303030;stroke-linejoin:miter;"/>
   </g>
   <g id="patch_5">
    <path clip-path="url(#p514ef48175)" d="M 260.73594 96.85544 
L 329.96706 96.85544 
L 329.96706 77.346292 
L 260.73594 77.346292 
L 260.73594 96.85544 
z
" style="fill:#158b6a;stroke:#303030;stroke-linejoin:miter;"/>
   </g>
   <g id="patch_6">
    <path clip-path="url(#p514ef48175)" d="M 384.36294 127.156207 
L 453.59406 127.156207 
L 453.59406 93.067041 
L 384.36294 93.067041 
L 384.36294 127.156207 
z
" style="fill:#176d9c;stroke:#303030;stroke-linejoin:miter;"/>
   </g>
   <g id="patch_7">
    <path clip-path="url(#p514ef48175)" d="M 455.00694 147.531947 
L 524.23806 147.531947 
L 524.23806 89.180898 
L 455.00694 89.180898 
L 455.00694 147.531947 
z
" style="fill:#c38820;stroke:#303030;stroke-linejoin:miter;"/>
   </g>
   <g id="patch_8">
    <path clip-path="url(#p514ef48175)" d="M 525.65094 88.255653 
L 594.88206 88.255653 
L 594.88206 70.64634 
L 525.65094 70.64634 
L 525.65094 88.255653 
z
" style="fill:#158b6a;stroke:#303030;stroke-linejoin:miter;"/>
   </g>
   <g id="PathCollection_1"/>
   <g id="PathCollection_2"/>
   <g id="PathCollection_3"/>
   <g id="patch_9">
    <path clip-path="url(#p514ef48175)" d="M 224.7075 364.291154 
L 224.7075 364.291154 
L 224.7075 364.291154 
L 224.7075 364.291154 
z
" style="fill:#176d9c;stroke:#303030;stroke-linejoin:miter;stroke-width:0.5;"/>
   </g>
   <g id="patch_10">
    <path clip-path="url(#p514ef48175)" d="M 224.7075 364.291154 
L 224.7075 364.291154 
L 224.7075 364.291154 
L 224.7075 364.291154 
z
" style="fill:#c38820;stroke:#303030;stroke-linejoin:miter;stroke-width:0.5;"/>
   </g>
   <g id="patch_11">
    <path clip-path="url(#p514ef48175)" d="M 224.7075 364.291154 
L 224.7075 364.291154 
L 224.7075 364.291154 
L 224.7075 364.291154 
z
" style="fill:#158b6a;stroke:#303030;stroke-linejoin:miter;stroke-width:0.5;"/>
   </g>
   <g id="line2d_5">
    <path clip-path="url(#p514ef48175)" d="M 154.0635 132.109997 
L 154.0635 160.146445 
" style="fill:none;stroke:#303030;stroke-linecap:round;"/>
   </g>
   <g id="line2d_6">
    <path clip-path="url(#p514ef48175)" d="M 154.0635 87.549292 
L 154.0635 65.666917 
" style="fill:none;stroke:#303030;stroke-linecap:round;"/>
   </g>
   <g id="line2d_7">
    <path clip-path="url(#p514ef48175)" d="M 136.75572 160.146445 
L 171.37128 160.146445 
" style="fill:none;stroke:#303030;stroke-linecap:round;"/>
   </g>
   <g id="line2d_8">
    <path clip-path="url(#p514ef48175)" d="M 136.75572 65.666917 
L 171.37128 65.666917 
" style="fill:none;stroke:#303030;stroke-linecap:round;"/>
   </g>
   <g id="line2d_9">
    <path clip-path="url(#p514ef48175)" d="M 224.7075 149.499568 
L 224.7075 232.36081 
" style="fill:none;stroke:#303030;stroke-linecap:round;"/>
   </g>
   <g id="line2d_10">
    <path clip-path="url(#p514ef48175)" d="M 224.7075 85.724097 
L 224.7075 57.921943 
" style="fill:none;stroke:#303030;stroke-linecap:round;"/>
   </g>
   <g id="line2d_11">
    <path clip-path="url(#p514ef48175)" d="M 207.39972 232.36081 
L 242.01528 232.36081 
" style="fill:none;stroke:#303030;stroke-linecap:round;"/>
   </g>
   <g id="line2d_12">
    <path clip-path="url(#p514ef48175)" d="M 207.39972 57.921943 
L 242.01528 57.921943 
" style="fill:none;stroke:#303030;stroke-linecap:round;"/>
   </g>
   <g id="line2d_13">
    <path clip-path="url(#p514ef48175)" d="M 295.3515 96.85544 
L 295.3515 120.225763 
" style="fill:none;stroke:#303030;stroke-linecap:round;"/>
   </g>
   <g id="line2d_14">
    <path clip-path="url(#p514ef48175)" d="M 295.3515 77.346292 
L 295.3515 59.952343 
" style="fill:none;stroke:#303030;stroke-linecap:round;"/>
   </g>
   <g id="line2d_15">
    <path clip-path="url(#p514ef48175)" d="M 278.04372 120.225763 
L 312.65928 120.225763 
" style="fill:none;stroke:#303030;stroke-linecap:round;"/>
   </g>
   <g id="line2d_16">
    <path clip-path="url(#p514ef48175)" d="M 278.04372 59.952343 
L 312.65928 59.952343 
" style="fill:none;stroke:#303030;stroke-linecap:round;"/>
   </g>
   <g id="line2d_17">
    <path clip-path="url(#p514ef48175)" d="M 418.9785 127.156207 
L 418.9785 161.252776 
" style="fill:none;stroke:#303030;stroke-linecap:round;"/>
   </g>
   <g id="line2d_18">
    <path clip-path="url(#p514ef48175)" d="M 418.9785 93.067041 
L 418.9785 71.233119 
" style="fill:none;stroke:#303030;stroke-linecap:round;"/>
   </g>
   <g id="line2d_19">
    <path clip-path="url(#p514ef48175)" d="M 401.67072 161.252776 
L 436.28628 161.252776 
" style="fill:none;stroke:#303030;stroke-linecap:round;"/>
   </g>
   <g id="line2d_20">
    <path clip-path="url(#p514ef48175)" d="M 401.67072 71.233119 
L 436.28628 71.233119 
" style="fill:none;stroke:#303030;stroke-linecap:round;"/>
   </g>
   <g id="line2d_21">
    <path clip-path="url(#p514ef48175)" d="M 489.6225 147.531947 
L 489.6225 209.015608 
" style="fill:none;stroke:#303030;stroke-linecap:round;"/>
   </g>
   <g id="line2d_22">
    <path clip-path="url(#p514ef48175)" d="M 489.6225 89.180898 
L 489.6225 64.458445 
" style="fill:none;stroke:#303030;stroke-linecap:round;"/>
   </g>
   <g id="line2d_23">
    <path clip-path="url(#p514ef48175)" d="M 472.31472 209.015608 
L 506.93028 209.015608 
" style="fill:none;stroke:#303030;stroke-linecap:round;"/>
   </g>
   <g id="line2d_24">
    <path clip-path="url(#p514ef48175)" d="M 472.31472 64.458445 
L 506.93028 64.458445 
" style="fill:none;stroke:#303030;stroke-linecap:round;"/>
   </g>
   <g id="line2d_25">
    <path clip-path="url(#p514ef48175)" d="M 560.2665 88.255653 
L 560.2665 106.1116 
" style="fill:none;stroke:#303030;stroke-linecap:round;"/>
   </g>
   <g id="line2d_26">
    <path clip-path="url(#p514ef48175)" d="M 560.2665 70.64634 
L 560.2665 59.952343 
" style="fill:none;stroke:#303030;stroke-linecap:round;"/>
   </g>
   <g id="line2d_27">
    <path clip-path="url(#p514ef48175)" d="M 542.95872 106.1116 
L 577.57428 106.1116 
" style="fill:none;stroke:#303030;stroke-linecap:round;"/>
   </g>
   <g id="line2d_28">
    <path clip-path="url(#p514ef48175)" d="M 542.95872 59.952343 
L 577.57428 59.952343 
" style="fill:none;stroke:#303030;stroke-linecap:round;"/>
   </g>
   <g id="line2d_29">
    <path clip-path="url(#p514ef48175)" d="M 119.44794 115.655542 
L 188.67906 115.655542 
" style="fill:none;stroke:#303030;stroke-linecap:round;"/>
   </g>
   <g id="line2d_30">
    <path clip-path="url(#p514ef48175)" d="M 190.09194 120.21514 
L 259.32306 120.21514 
" style="fill:none;stroke:#303030;stroke-linecap:round;"/>
   </g>
   <g id="line2d_31">
    <path clip-path="url(#p514ef48175)" d="M 260.73594 84.364201 
L 329.96706 84.364201 
" style="fill:none;stroke:#303030;stroke-linecap:round;"/>
   </g>
   <g id="line2d_32">
    <path clip-path="url(#p514ef48175)" d="M 384.36294 108.09939 
L 453.59406 108.09939 
" style="fill:none;stroke:#303030;stroke-linecap:round;"/>
   </g>
   <g id="line2d_33">
    <path clip-path="url(#p514ef48175)" d="M 455.00694 109.04586 
L 524.23806 109.04586 
" style="fill:none;stroke:#303030;stroke-linecap:round;"/>
   </g>
   <g id="line2d_34">
    <path clip-path="url(#p514ef48175)" d="M 525.65094 82.557786 
L 594.88206 82.557786 
" style="fill:none;stroke:#303030;stroke-linecap:round;"/>
   </g>
   <g id="patch_12">
    <path d="M 92.25 241.082753 
L 92.25 49.2 
" style="fill:none;stroke:#ffffff;stroke-linecap:square;stroke-linejoin:miter;stroke-width:1.25;"/>
   </g>
   <g id="patch_13">
    <path d="M 92.25 241.082753 
L 622.08 241.082753 
" style="fill:none;stroke:#ffffff;stroke-linecap:square;stroke-linejoin:miter;stroke-width:1.25;"/>
   </g>
   <g id="PathCollection_4">
    <defs>
     <path d="M 0 2.5 
C 0.663008 2.5 1.29895 2.236584 1.767767 1.767767 
C 2.236584 1.29895 2.5 0.663008 2.5 -0 
C 2.5 -0.663008 2.236584 -1.29895 1.767767 -1.767767 
C 1.29895 -2.236584 0.663008 -2.5 0 -2.5 
C -0.663008 -2.5 -1.29895 -2.236584 -1.767767 -1.767767 
C -2.236584 -1.29895 -2.5 -0.663008 -2.5 0 
C -2.5 0.663008 -2.236584 1.29895 -1.767767 1.767767 
C -1.29895 2.236584 -0.663008 2.5 0 2.5 
z
" id="C0_0_379dbb3bbd"/>
    </defs>
    <g clip-path="url(#p514ef48175)">
     <use style="fill:#0173b2;stroke:#000000;" x="154.855972" xlink:href="#C0_0_379dbb3bbd" y="65.666917"/>
    </g>
    <g clip-path="url(#p514ef48175)">
     <use style="fill:#0173b2;stroke:#000000;" x="151.963613" xlink:href="#C0_0_379dbb3bbd" y="107.418975"/>
    </g>
    <g clip-path="url(#p514ef48175)">
     <use style="fill:#0173b2;stroke:#000000;" x="160.837095" xlink:href="#C0_0_379dbb3bbd" y="117.325295"/>
    </g>
    <g clip-path="url(#p514ef48175)">
     <use style="fill:#0173b2;stroke:#000000;" x="158.168687" xlink:href="#C0_0_379dbb3bbd" y="90.283586"/>
    </g>
    <g clip-path="url(#p514ef48175)">
     <use style="fill:#0173b2;stroke:#000000;" x="147.101024" xlink:href="#C0_0_379dbb3bbd" y="102.149949"/>
    </g>
    <g clip-path="url(#p514ef48175)">
     <use style="fill:#0173b2;stroke:#000000;" x="157.44573" xlink:href="#C0_0_379dbb3bbd" y="160.146445"/>
    </g>
    <g clip-path="url(#p514ef48175)">
     <use style="fill:#0173b2;stroke:#000000;" x="151.980947" xlink:href="#C0_0_379dbb3bbd" y="76.884162"/>
    </g>
    <g clip-path="url(#p514ef48175)">
     <use style="fill:#0173b2;stroke:#000000;" x="147.758212" xlink:href="#C0_0_379dbb3bbd" y="131.41241"/>
    </g>
    <g clip-path="url(#p514ef48175)">
     <use style="fill:#0173b2;stroke:#000000;" x="159.395945" xlink:href="#C0_0_379dbb3bbd" y="115.786364"/>
    </g>
    <g clip-path="url(#p514ef48175)">
     <use style="fill:#0173b2;stroke:#000000;" x="147.622381" xlink:href="#C0_0_379dbb3bbd" y="132.342527"/>
    </g>
    <g clip-path="url(#p514ef48175)">
     <use style="fill:#0173b2;stroke:#000000;" x="146.285425" xlink:href="#C0_0_379dbb3bbd" y="133.623339"/>
    </g>
    <g clip-path="url(#p514ef48175)">
     <use style="fill:#0173b2;stroke:#000000;" x="156.975437" xlink:href="#C0_0_379dbb3bbd" y="86.637861"/>
    </g>
    <g clip-path="url(#p514ef48175)">
     <use style="fill:#0173b2;stroke:#000000;" x="149.30614" xlink:href="#C0_0_379dbb3bbd" y="71.233119"/>
    </g>
    <g clip-path="url(#p514ef48175)">
     <use style="fill:#0173b2;stroke:#000000;" x="148.384426" xlink:href="#C0_0_379dbb3bbd" y="154.209395"/>
    </g>
    <g clip-path="url(#p514ef48175)">
     <use style="fill:#0173b2;stroke:#000000;" x="151.751589" xlink:href="#C0_0_379dbb3bbd" y="147.522925"/>
    </g>
    <g clip-path="url(#p514ef48175)">
     <use style="fill:#0173b2;stroke:#000000;" x="161.347722" xlink:href="#C0_0_379dbb3bbd" y="72.158255"/>
    </g>
    <g clip-path="url(#p514ef48175)">
     <use style="fill:#0173b2;stroke:#000000;" x="147.509039" xlink:href="#C0_0_379dbb3bbd" y="123.409252"/>
    </g>
    <g clip-path="url(#p514ef48175)">
     <use style="fill:#0173b2;stroke:#000000;" x="161.945362" xlink:href="#C0_0_379dbb3bbd" y="115.524719"/>
    </g>
   </g>
   <g id="PathCollection_5">
    <defs>
     <path d="M 0 2.5 
C 0.663008 2.5 1.29895 2.236584 1.767767 1.767767 
C 2.236584 1.29895 2.5 0.663008 2.5 -0 
C 2.5 -0.663008 2.236584 -1.29895 1.767767 -1.767767 
C 1.29895 -2.236584 0.663008 -2.5 0 -2.5 
C -0.663008 -2.5 -1.29895 -2.236584 -1.767767 -1.767767 
C -2.236584 -1.29895 -2.5 -0.663008 -2.5 0 
C -2.5 0.663008 -2.236584 1.29895 -1.767767 1.767767 
C -1.29895 2.236584 -0.663008 2.5 0 2.5 
z
" id="C1_0_32325f00b1"/>
    </defs>
    <g clip-path="url(#p514ef48175)">
     <use style="fill:#de8f05;stroke:#000000;" x="217.521957" xlink:href="#C1_0_32325f00b1" y="57.921943"/>
    </g>
    <g clip-path="url(#p514ef48175)">
     <use style="fill:#de8f05;stroke:#000000;" x="233.242623" xlink:href="#C1_0_32325f00b1" y="116.60585"/>
    </g>
    <g clip-path="url(#p514ef48175)">
     <use style="fill:#de8f05;stroke:#000000;" x="223.302345" xlink:href="#C1_0_32325f00b1" y="135.51678"/>
    </g>
    <g clip-path="url(#p514ef48175)">
     <use style="fill:#de8f05;stroke:#000000;" x="232.679196" xlink:href="#C1_0_32325f00b1" y="80.896597"/>
    </g>
    <g clip-path="url(#p514ef48175)">
     <use style="fill:#de8f05;stroke:#000000;" x="224.503995" xlink:href="#C1_0_32325f00b1" y="134.374412"/>
    </g>
    <g clip-path="url(#p514ef48175)">
     <use style="fill:#de8f05;stroke:#000000;" x="224.061873" xlink:href="#C1_0_32325f00b1" y="224.658269"/>
    </g>
    <g clip-path="url(#p514ef48175)">
     <use style="fill:#de8f05;stroke:#000000;" x="226.615087" xlink:href="#C1_0_32325f00b1" y="97.449244"/>
    </g>
    <g clip-path="url(#p514ef48175)">
     <use style="fill:#de8f05;stroke:#000000;" x="231.681915" xlink:href="#C1_0_32325f00b1" y="100.932549"/>
    </g>
    <g clip-path="url(#p514ef48175)">
     <use style="fill:#de8f05;stroke:#000000;" x="220.17413" xlink:href="#C1_0_32325f00b1" y="147.724198"/>
    </g>
    <g clip-path="url(#p514ef48175)">
     <use style="fill:#de8f05;stroke:#000000;" x="218.746102" xlink:href="#C1_0_32325f00b1" y="150.091358"/>
    </g>
    <g clip-path="url(#p514ef48175)">
     <use style="fill:#de8f05;stroke:#000000;" x="222.951051" xlink:href="#C1_0_32325f00b1" y="232.36081"/>
    </g>
    <g clip-path="url(#p514ef48175)">
     <use style="fill:#de8f05;stroke:#000000;" x="226.604142" xlink:href="#C1_0_32325f00b1" y="80.520485"/>
    </g>
    <g clip-path="url(#p514ef48175)">
     <use style="fill:#de8f05;stroke:#000000;" x="228.941795" xlink:href="#C1_0_32325f00b1" y="81.815715"/>
    </g>
    <g clip-path="url(#p514ef48175)">
     <use style="fill:#de8f05;stroke:#000000;" x="222.693944" xlink:href="#C1_0_32325f00b1" y="183.053982"/>
    </g>
    <g clip-path="url(#p514ef48175)">
     <use style="fill:#de8f05;stroke:#000000;" x="227.74457" xlink:href="#C1_0_32325f00b1" y="202.468182"/>
    </g>
    <g clip-path="url(#p514ef48175)">
     <use style="fill:#de8f05;stroke:#000000;" x="229.224064" xlink:href="#C1_0_32325f00b1" y="65.949144"/>
    </g>
    <g clip-path="url(#p514ef48175)">
     <use style="fill:#de8f05;stroke:#000000;" x="221.915695" xlink:href="#C1_0_32325f00b1" y="123.824431"/>
    </g>
    <g clip-path="url(#p514ef48175)">
     <use style="fill:#de8f05;stroke:#000000;" x="220.170268" xlink:href="#C1_0_32325f00b1" y="97.902013"/>
    </g>
   </g>
   <g id="PathCollection_6">
    <defs>
     <path d="M 0 2.5 
C 0.663008 2.5 1.29895 2.236584 1.767767 1.767767 
C 2.236584 1.29895 2.5 0.663008 2.5 -0 
C 2.5 -0.663008 2.236584 -1.29895 1.767767 -1.767767 
C 1.29895 -2.236584 0.663008 -2.5 0 -2.5 
C -0.663008 -2.5 -1.29895 -2.236584 -1.767767 -1.767767 
C -2.236584 -1.29895 -2.5 -0.663008 -2.5 0 
C -2.5 0.663008 -2.236584 1.29895 -1.767767 1.767767 
C -1.29895 2.236584 -0.663008 2.5 0 2.5 
z
" id="C2_0_6650e5a6f0"/>
    </defs>
    <g clip-path="url(#p514ef48175)">
     <use style="fill:#029e73;stroke:#000000;" x="296.205826" xlink:href="#C2_0_6650e5a6f0" y="86.416363"/>
    </g>
    <g clip-path="url(#p514ef48175)">
     <use style="fill:#029e73;stroke:#000000;" x="295.364774" xlink:href="#C2_0_6650e5a6f0" y="137.320535"/>
    </g>
    <g clip-path="url(#p514ef48175)">
     <use style="fill:#029e73;stroke:#000000;" x="294.941852" xlink:href="#C2_0_6650e5a6f0" y="100.478874"/>
    </g>
    <g clip-path="url(#p514ef48175)">
     <use style="fill:#029e73;stroke:#000000;" x="286.752146" xlink:href="#C2_0_6650e5a6f0" y="79.206853"/>
    </g>
    <g clip-path="url(#p514ef48175)">
     <use style="fill:#029e73;stroke:#000000;" x="295.117313" xlink:href="#C2_0_6650e5a6f0" y="96.677498"/>
    </g>
    <g clip-path="url(#p514ef48175)">
     <use style="fill:#029e73;stroke:#000000;" x="299.953841" xlink:href="#C2_0_6650e5a6f0" y="96.914753"/>
    </g>
    <g clip-path="url(#p514ef48175)">
     <use style="fill:#029e73;stroke:#000000;" x="297.447874" xlink:href="#C2_0_6650e5a6f0" y="90.612177"/>
    </g>
    <g clip-path="url(#p514ef48175)">
     <use style="fill:#029e73;stroke:#000000;" x="298.641934" xlink:href="#C2_0_6650e5a6f0" y="102.408695"/>
    </g>
    <g clip-path="url(#p514ef48175)">
     <use style="fill:#029e73;stroke:#000000;" x="299.608545" xlink:href="#C2_0_6650e5a6f0" y="84.594522"/>
    </g>
    <g clip-path="url(#p514ef48175)">
     <use style="fill:#029e73;stroke:#000000;" x="294.077228" xlink:href="#C2_0_6650e5a6f0" y="82.316341"/>
    </g>
    <g clip-path="url(#p514ef48175)">
     <use style="fill:#029e73;stroke:#000000;" x="291.463858" xlink:href="#C2_0_6650e5a6f0" y="120.225763"/>
    </g>
    <g clip-path="url(#p514ef48175)">
     <use style="fill:#029e73;stroke:#000000;" x="302.621461" xlink:href="#C2_0_6650e5a6f0" y="78.682051"/>
    </g>
    <g clip-path="url(#p514ef48175)">
     <use style="fill:#029e73;stroke:#000000;" x="303.847947" xlink:href="#C2_0_6650e5a6f0" y="59.952343"/>
    </g>
    <g clip-path="url(#p514ef48175)">
     <use style="fill:#029e73;stroke:#000000;" x="289.502127" xlink:href="#C2_0_6650e5a6f0" y="69.501659"/>
    </g>
    <g clip-path="url(#p514ef48175)">
     <use style="fill:#029e73;stroke:#000000;" x="295.831426" xlink:href="#C2_0_6650e5a6f0" y="84.13388"/>
    </g>
    <g clip-path="url(#p514ef48175)">
     <use style="fill:#029e73;stroke:#000000;" x="297.997089" xlink:href="#C2_0_6650e5a6f0" y="76.901039"/>
    </g>
    <g clip-path="url(#p514ef48175)">
     <use style="fill:#029e73;stroke:#000000;" x="303.802219" xlink:href="#C2_0_6650e5a6f0" y="70.451608"/>
    </g>
    <g clip-path="url(#p514ef48175)">
     <use style="fill:#029e73;stroke:#000000;" x="294.140275" xlink:href="#C2_0_6650e5a6f0" y="74.989853"/>
    </g>
   </g>
   <g id="PathCollection_7">
    <defs>
     <path d="M 0 2.5 
C 0.663008 2.5 1.29895 2.236584 1.767767 1.767767 
C 2.236584 1.29895 2.5 0.663008 2.5 -0 
C 2.5 -0.663008 2.236584 -1.29895 1.767767 -1.767767 
C 1.29895 -2.236584 0.663008 -2.5 0 -2.5 
C -0.663008 -2.5 -1.29895 -2.236584 -1.767767 -1.767767 
C -2.236584 -1.29895 -2.5 -0.663008 -2.5 0 
C -2.5 0.663008 -2.236584 1.29895 -1.767767 1.767767 
C -1.29895 2.236584 -0.663008 2.5 0 2.5 
z
" id="C3_0_8a14b5316c"/>
    </defs>
    <g clip-path="url(#p514ef48175)">
     <use style="fill:#0173b2;stroke:#000000;" x="416.583161" xlink:href="#C3_0_8a14b5316c" y="108.447631"/>
    </g>
    <g clip-path="url(#p514ef48175)">
     <use style="fill:#0173b2;stroke:#000000;" x="410.392959" xlink:href="#C3_0_8a14b5316c" y="119.067993"/>
    </g>
    <g clip-path="url(#p514ef48175)">
     <use style="fill:#0173b2;stroke:#000000;" x="423.755955" xlink:href="#C3_0_8a14b5316c" y="77.449663"/>
    </g>
    <g clip-path="url(#p514ef48175)">
     <use style="fill:#0173b2;stroke:#000000;" x="420.591062" xlink:href="#C3_0_8a14b5316c" y="135.24442"/>
    </g>
    <g clip-path="url(#p514ef48175)">
     <use style="fill:#0173b2;stroke:#000000;" x="425.784827" xlink:href="#C3_0_8a14b5316c" y="116.181712"/>
    </g>
    <g clip-path="url(#p514ef48175)">
     <use style="fill:#0173b2;stroke:#000000;" x="416.687968" xlink:href="#C3_0_8a14b5316c" y="195.131651"/>
    </g>
    <g clip-path="url(#p514ef48175)">
     <use style="fill:#0173b2;stroke:#000000;" x="422.236294" xlink:href="#C3_0_8a14b5316c" y="94.787588"/>
    </g>
    <g clip-path="url(#p514ef48175)">
     <use style="fill:#0173b2;stroke:#000000;" x="414.060312" xlink:href="#C3_0_8a14b5316c" y="113.078021"/>
    </g>
    <g clip-path="url(#p514ef48175)">
     <use style="fill:#0173b2;stroke:#000000;" x="418.770393" xlink:href="#C3_0_8a14b5316c" y="83.564965"/>
    </g>
    <g clip-path="url(#p514ef48175)">
     <use style="fill:#0173b2;stroke:#000000;" x="413.361177" xlink:href="#C3_0_8a14b5316c" y="97.06089"/>
    </g>
    <g clip-path="url(#p514ef48175)">
     <use style="fill:#0173b2;stroke:#000000;" x="425.467437" xlink:href="#C3_0_8a14b5316c" y="80.06901"/>
    </g>
    <g clip-path="url(#p514ef48175)">
     <use style="fill:#0173b2;stroke:#000000;" x="410.157949" xlink:href="#C3_0_8a14b5316c" y="161.252776"/>
    </g>
    <g clip-path="url(#p514ef48175)">
     <use style="fill:#0173b2;stroke:#000000;" x="413.125157" xlink:href="#C3_0_8a14b5316c" y="100.945875"/>
    </g>
    <g clip-path="url(#p514ef48175)">
     <use style="fill:#0173b2;stroke:#000000;" x="418.647077" xlink:href="#C3_0_8a14b5316c" y="71.233119"/>
    </g>
    <g clip-path="url(#p514ef48175)">
     <use style="fill:#0173b2;stroke:#000000;" x="412.274782" xlink:href="#C3_0_8a14b5316c" y="137.976016"/>
    </g>
    <g clip-path="url(#p514ef48175)">
     <use style="fill:#0173b2;stroke:#000000;" x="423.541766" xlink:href="#C3_0_8a14b5316c" y="91.346495"/>
    </g>
    <g clip-path="url(#p514ef48175)">
     <use style="fill:#0173b2;stroke:#000000;" x="425.136806" xlink:href="#C3_0_8a14b5316c" y="108.09939"/>
    </g>
    <g clip-path="url(#p514ef48175)">
     <use style="fill:#0173b2;stroke:#000000;" x="419.425757" xlink:href="#C3_0_8a14b5316c" y="149.467295"/>
    </g>
    <g clip-path="url(#p514ef48175)">
     <use style="fill:#0173b2;stroke:#000000;" x="417.67948" xlink:href="#C3_0_8a14b5316c" y="105.980779"/>
    </g>
   </g>
   <g id="PathCollection_8">
    <defs>
     <path d="M 0 2.5 
C 0.663008 2.5 1.29895 2.236584 1.767767 1.767767 
C 2.236584 1.29895 2.5 0.663008 2.5 -0 
C 2.5 -0.663008 2.236584 -1.29895 1.767767 -1.767767 
C 1.29895 -2.236584 0.663008 -2.5 0 -2.5 
C -0.663008 -2.5 -1.29895 -2.236584 -1.767767 -1.767767 
C -2.236584 -1.29895 -2.5 -0.663008 -2.5 0 
C -2.5 0.663008 -2.236584 1.29895 -1.767767 1.767767 
C -1.29895 2.236584 -0.663008 2.5 0 2.5 
z
" id="C4_0_c4ae85f660"/>
    </defs>
    <g clip-path="url(#p514ef48175)">
     <use style="fill:#de8f05;stroke:#000000;" x="493.419447" xlink:href="#C4_0_c4ae85f660" y="104.736831"/>
    </g>
    <g clip-path="url(#p514ef48175)">
     <use style="fill:#de8f05;stroke:#000000;" x="497.228524" xlink:href="#C4_0_c4ae85f660" y="100.059722"/>
    </g>
    <g clip-path="url(#p514ef48175)">
     <use style="fill:#de8f05;stroke:#000000;" x="491.691883" xlink:href="#C4_0_c4ae85f660" y="86.445554"/>
    </g>
    <g clip-path="url(#p514ef48175)">
     <use style="fill:#de8f05;stroke:#000000;" x="498.148445" xlink:href="#C4_0_c4ae85f660" y="150.95081"/>
    </g>
    <g clip-path="url(#p514ef48175)">
     <use style="fill:#de8f05;stroke:#000000;" x="490.771087" xlink:href="#C4_0_c4ae85f660" y="144.113085"/>
    </g>
    <g clip-path="url(#p514ef48175)">
     <use style="fill:#de8f05;stroke:#000000;" x="483.772457" xlink:href="#C4_0_c4ae85f660" y="209.015608"/>
    </g>
    <g clip-path="url(#p514ef48175)">
     <use style="fill:#de8f05;stroke:#000000;" x="498.407669" xlink:href="#C4_0_c4ae85f660" y="133.242619"/>
    </g>
    <g clip-path="url(#p514ef48175)">
     <use style="fill:#de8f05;stroke:#000000;" x="486.816469" xlink:href="#C4_0_c4ae85f660" y="109.04586"/>
    </g>
    <g clip-path="url(#p514ef48175)">
     <use style="fill:#de8f05;stroke:#000000;" x="482.86246" xlink:href="#C4_0_c4ae85f660" y="80.438807"/>
    </g>
    <g clip-path="url(#p514ef48175)">
     <use style="fill:#de8f05;stroke:#000000;" x="484.317663" xlink:href="#C4_0_c4ae85f660" y="64.458445"/>
    </g>
    <g clip-path="url(#p514ef48175)">
     <use style="fill:#de8f05;stroke:#000000;" x="482.302515" xlink:href="#C4_0_c4ae85f660" y="91.916243"/>
    </g>
    <g clip-path="url(#p514ef48175)">
     <use style="fill:#de8f05;stroke:#000000;" x="482.69613" xlink:href="#C4_0_c4ae85f660" y="201.187481"/>
    </g>
    <g clip-path="url(#p514ef48175)">
     <use style="fill:#de8f05;stroke:#000000;" x="486.443182" xlink:href="#C4_0_c4ae85f660" y="74.485982"/>
    </g>
    <g clip-path="url(#p514ef48175)">
     <use style="fill:#de8f05;stroke:#000000;" x="483.93116" xlink:href="#C4_0_c4ae85f660" y="81.815715"/>
    </g>
    <g clip-path="url(#p514ef48175)">
     <use style="fill:#de8f05;stroke:#000000;" x="492.520968" xlink:href="#C4_0_c4ae85f660" y="180.14231"/>
    </g>
    <g clip-path="url(#p514ef48175)">
     <use style="fill:#de8f05;stroke:#000000;" x="488.016354" xlink:href="#C4_0_c4ae85f660" y="94.5015"/>
    </g>
    <g clip-path="url(#p514ef48175)">
     <use style="fill:#de8f05;stroke:#000000;" x="488.165839" xlink:href="#C4_0_c4ae85f660" y="109.800358"/>
    </g>
    <g clip-path="url(#p514ef48175)">
     <use style="fill:#de8f05;stroke:#000000;" x="483.407258" xlink:href="#C4_0_c4ae85f660" y="179.921283"/>
    </g>
    <g clip-path="url(#p514ef48175)">
     <use style="fill:#de8f05;stroke:#000000;" x="485.245962" xlink:href="#C4_0_c4ae85f660" y="126.074102"/>
    </g>
   </g>
   <g id="PathCollection_9">
    <defs>
     <path d="M 0 2.5 
C 0.663008 2.5 1.29895 2.236584 1.767767 1.767767 
C 2.236584 1.29895 2.5 0.663008 2.5 -0 
C 2.5 -0.663008 2.236584 -1.29895 1.767767 -1.767767 
C 1.29895 -2.236584 0.663008 -2.5 0 -2.5 
C -0.663008 -2.5 -1.29895 -2.236584 -1.767767 -1.767767 
C -2.236584 -1.29895 -2.5 -0.663008 -2.5 0 
C -2.5 0.663008 -2.236584 1.29895 -1.767767 1.767767 
C -1.29895 2.236584 -0.663008 2.5 0 2.5 
z
" id="C5_0_a3161e2a69"/>
    </defs>
    <g clip-path="url(#p514ef48175)">
     <use style="fill:#029e73;stroke:#000000;" x="564.475215" xlink:href="#C5_0_a3161e2a69" y="72.40633"/>
    </g>
    <g clip-path="url(#p514ef48175)">
     <use style="fill:#029e73;stroke:#000000;" x="559.8011" xlink:href="#C5_0_a3161e2a69" y="106.1116"/>
    </g>
    <g clip-path="url(#p514ef48175)">
     <use style="fill:#029e73;stroke:#000000;" x="565.090265" xlink:href="#C5_0_a3161e2a69" y="87.703086"/>
    </g>
    <g clip-path="url(#p514ef48175)">
     <use style="fill:#029e73;stroke:#000000;" x="566.378563" xlink:href="#C5_0_a3161e2a69" y="82.907498"/>
    </g>
    <g clip-path="url(#p514ef48175)">
     <use style="fill:#029e73;stroke:#000000;" x="551.523641" xlink:href="#C5_0_a3161e2a69" y="103.091829"/>
    </g>
    <g clip-path="url(#p514ef48175)">
     <use style="fill:#029e73;stroke:#000000;" x="562.097239" xlink:href="#C5_0_a3161e2a69" y="88.808221"/>
    </g>
    <g clip-path="url(#p514ef48175)">
     <use style="fill:#029e73;stroke:#000000;" x="561.415151" xlink:href="#C5_0_a3161e2a69" y="116.187933"/>
    </g>
    <g clip-path="url(#p514ef48175)">
     <use style="fill:#029e73;stroke:#000000;" x="566.320052" xlink:href="#C5_0_a3161e2a69" y="85.439654"/>
    </g>
    <g clip-path="url(#p514ef48175)">
     <use style="fill:#029e73;stroke:#000000;" x="557.385644" xlink:href="#C5_0_a3161e2a69" y="90.106587"/>
    </g>
    <g clip-path="url(#p514ef48175)">
     <use style="fill:#029e73;stroke:#000000;" x="559.781967" xlink:href="#C5_0_a3161e2a69" y="73.968886"/>
    </g>
    <g clip-path="url(#p514ef48175)">
     <use style="fill:#029e73;stroke:#000000;" x="554.012721" xlink:href="#C5_0_a3161e2a69" y="82.557786"/>
    </g>
    <g clip-path="url(#p514ef48175)">
     <use style="fill:#029e73;stroke:#000000;" x="566.245839" xlink:href="#C5_0_a3161e2a69" y="84.169898"/>
    </g>
    <g clip-path="url(#p514ef48175)">
     <use style="fill:#029e73;stroke:#000000;" x="556.519638" xlink:href="#C5_0_a3161e2a69" y="67.386761"/>
    </g>
    <g clip-path="url(#p514ef48175)">
     <use style="fill:#029e73;stroke:#000000;" x="560.155918" xlink:href="#C5_0_a3161e2a69" y="59.952343"/>
    </g>
    <g clip-path="url(#p514ef48175)">
     <use style="fill:#029e73;stroke:#000000;" x="555.813292" xlink:href="#C5_0_a3161e2a69" y="68.651229"/>
    </g>
    <g clip-path="url(#p514ef48175)">
     <use style="fill:#029e73;stroke:#000000;" x="553.689042" xlink:href="#C5_0_a3161e2a69" y="82.496384"/>
    </g>
    <g clip-path="url(#p514ef48175)">
     <use style="fill:#029e73;stroke:#000000;" x="559.020945" xlink:href="#C5_0_a3161e2a69" y="68.886349"/>
    </g>
    <g clip-path="url(#p514ef48175)">
     <use style="fill:#029e73;stroke:#000000;" x="552.879135" xlink:href="#C5_0_a3161e2a69" y="76.768505"/>
    </g>
    <g clip-path="url(#p514ef48175)">
     <use style="fill:#029e73;stroke:#000000;" x="560.080793" xlink:href="#C5_0_a3161e2a69" y="68.787443"/>
    </g>
   </g>
   <g id="text_6">
    <!-- Muscles Pose -->
    <g style="fill:#262626;" transform="translate(282.4725 29.2)scale(0.24 -0.24)">
     <defs>
      <path d="M 7.421875 0 
L 7.421875 71.578125 
L 21.6875 71.578125 
L 38.625 20.90625 
Q 40.96875 13.8125 42.046875 10.296875 
Q 43.265625 14.203125 45.84375 21.78125 
L 62.984375 71.578125 
L 75.734375 71.578125 
L 75.734375 0 
L 66.609375 0 
L 66.609375 59.90625 
L 45.796875 0 
L 37.25 0 
L 16.546875 60.9375 
L 16.546875 0 
z
" id="ArialMT-77"/>
      <path d="M 40.4375 19 
L 49.078125 17.875 
Q 47.65625 8.9375 41.8125 3.875 
Q 35.984375 -1.171875 27.484375 -1.171875 
Q 16.84375 -1.171875 10.375 5.78125 
Q 3.90625 12.75 3.90625 25.734375 
Q 3.90625 34.125 6.6875 40.421875 
Q 9.46875 46.734375 15.15625 49.875 
Q 20.84375 53.03125 27.546875 53.03125 
Q 35.984375 53.03125 41.359375 48.75 
Q 46.734375 44.484375 48.25 36.625 
L 39.703125 35.296875 
Q 38.484375 40.53125 35.375 43.15625 
Q 32.28125 45.796875 27.875 45.796875 
Q 21.234375 45.796875 17.078125 41.03125 
Q 12.9375 36.28125 12.9375 25.984375 
Q 12.9375 15.53125 16.9375 10.796875 
Q 20.953125 6.0625 27.390625 6.0625 
Q 32.5625 6.0625 36.03125 9.234375 
Q 39.5 12.40625 40.4375 19 
z
" id="ArialMT-99"/>
      <path id="ArialMT-32"/>
      <path d="M 7.71875 0 
L 7.71875 71.578125 
L 34.71875 71.578125 
Q 41.84375 71.578125 45.609375 70.90625 
Q 50.875 70.015625 54.4375 67.546875 
Q 58.015625 65.09375 60.1875 60.640625 
Q 62.359375 56.203125 62.359375 50.875 
Q 62.359375 41.75 56.546875 35.421875 
Q 50.734375 29.109375 35.546875 29.109375 
L 17.1875 29.109375 
L 17.1875 0 
z
M 17.1875 37.546875 
L 35.6875 37.546875 
Q 44.875 37.546875 48.734375 40.96875 
Q 52.59375 44.390625 52.59375 50.59375 
Q 52.59375 55.078125 50.3125 58.265625 
Q 48.046875 61.46875 44.34375 62.5 
Q 41.9375 63.140625 35.5 63.140625 
L 17.1875 63.140625 
z
" id="ArialMT-80"/>
      <path d="M 3.328125 25.921875 
Q 3.328125 40.328125 11.328125 47.265625 
Q 18.015625 53.03125 27.640625 53.03125 
Q 38.328125 53.03125 45.109375 46.015625 
Q 51.90625 39.015625 51.90625 26.65625 
Q 51.90625 16.65625 48.90625 10.90625 
Q 45.90625 5.171875 40.15625 2 
Q 34.421875 -1.171875 27.640625 -1.171875 
Q 16.75 -1.171875 10.03125 5.8125 
Q 3.328125 12.796875 3.328125 25.921875 
z
M 12.359375 25.921875 
Q 12.359375 15.96875 16.703125 11.015625 
Q 21.046875 6.0625 27.640625 6.0625 
Q 34.1875 6.0625 38.53125 11.03125 
Q 42.875 16.015625 42.875 26.21875 
Q 42.875 35.84375 38.5 40.796875 
Q 34.125 45.75 27.640625 45.75 
Q 21.046875 45.75 16.703125 40.8125 
Q 12.359375 35.890625 12.359375 25.921875 
z
" id="ArialMT-111"/>
     </defs>
     <use xlink:href="#ArialMT-77"/>
     <use x="83.300781" xlink:href="#ArialMT-117"/>
     <use x="138.916016" xlink:href="#ArialMT-115"/>
     <use x="188.916016" xlink:href="#ArialMT-99"/>
     <use x="238.916016" xlink:href="#ArialMT-108"/>
     <use x="261.132812" xlink:href="#ArialMT-101"/>
     <use x="316.748047" xlink:href="#ArialMT-115"/>
     <use x="366.748047" xlink:href="#ArialMT-32"/>
     <use x="394.53125" xlink:href="#ArialMT-80"/>
     <use x="461.230469" xlink:href="#ArialMT-111"/>
     <use x="516.845703" xlink:href="#ArialMT-115"/>
     <use x="566.845703" xlink:href="#ArialMT-101"/>
    </g>
   </g>
  </g>
  <g id="axes_2">
   <g id="patch_14">
    <path d="M 92.25 494.1 
L 622.08 494.1 
L 622.08 302.217247 
L 92.25 302.217247 
z
" style="fill:#eaeaf2;"/>
   </g>
   <g id="matplotlib.axis_3">
    <g id="xtick_3">
     <g id="text_7">
      <!-- CP AH -->
      <g style="fill:#262626;" transform="translate(191.88625 519.347188)scale(0.22 -0.22)">
       <defs>
        <path d="M 58.796875 25.09375 
L 68.265625 22.703125 
Q 65.28125 11.03125 57.546875 4.90625 
Q 49.8125 -1.21875 38.625 -1.21875 
Q 27.046875 -1.21875 19.796875 3.484375 
Q 12.546875 8.203125 8.765625 17.140625 
Q 4.984375 26.078125 4.984375 36.328125 
Q 4.984375 47.515625 9.25 55.828125 
Q 13.53125 64.15625 21.40625 68.46875 
Q 29.296875 72.796875 38.765625 72.796875 
Q 49.515625 72.796875 56.828125 67.328125 
Q 64.15625 61.859375 67.046875 51.953125 
L 57.71875 49.75 
Q 55.21875 57.5625 50.484375 61.125 
Q 45.75 64.703125 38.578125 64.703125 
Q 30.328125 64.703125 24.78125 60.734375 
Q 19.234375 56.78125 16.984375 50.109375 
Q 14.75 43.453125 14.75 36.375 
Q 14.75 27.25 17.40625 20.4375 
Q 20.0625 13.625 25.671875 10.25 
Q 31.296875 6.890625 37.84375 6.890625 
Q 45.796875 6.890625 51.3125 11.46875 
Q 56.84375 16.0625 58.796875 25.09375 
z
" id="ArialMT-67"/>
        <path d="M -0.140625 0 
L 27.34375 71.578125 
L 37.546875 71.578125 
L 66.84375 0 
L 56.0625 0 
L 47.703125 21.6875 
L 17.78125 21.6875 
L 9.90625 0 
z
M 20.515625 29.390625 
L 44.78125 29.390625 
L 37.3125 49.21875 
Q 33.890625 58.25 32.234375 64.0625 
Q 30.859375 57.171875 28.375 50.390625 
z
" id="ArialMT-65"/>
        <path d="M 8.015625 0 
L 8.015625 71.578125 
L 17.484375 71.578125 
L 17.484375 42.1875 
L 54.6875 42.1875 
L 54.6875 71.578125 
L 64.15625 71.578125 
L 64.15625 0 
L 54.6875 0 
L 54.6875 33.734375 
L 17.484375 33.734375 
L 17.484375 0 
z
" id="ArialMT-72"/>
       </defs>
       <use xlink:href="#ArialMT-67"/>
       <use x="72.216797" xlink:href="#ArialMT-80"/>
       <use x="137.166016" xlink:href="#ArialMT-32"/>
       <use x="159.449219" xlink:href="#ArialMT-65"/>
       <use x="226.148438" xlink:href="#ArialMT-72"/>
      </g>
     </g>
    </g>
    <g id="xtick_4">
     <g id="text_8">
      <!-- CP LA -->
      <g style="fill:#262626;" transform="translate(458.023281 519.347188)scale(0.22 -0.22)">
       <defs>
        <path d="M 7.328125 0 
L 7.328125 71.578125 
L 16.796875 71.578125 
L 16.796875 8.453125 
L 52.046875 8.453125 
L 52.046875 0 
z
" id="ArialMT-76"/>
       </defs>
       <use xlink:href="#ArialMT-67"/>
       <use x="72.216797" xlink:href="#ArialMT-80"/>
       <use x="137.166016" xlink:href="#ArialMT-32"/>
       <use x="164.949219" xlink:href="#ArialMT-76"/>
       <use x="220.564453" xlink:href="#ArialMT-65"/>
      </g>
     </g>
    </g>
    <g id="text_9">
     <!-- Group -->
     <g style="fill:#262626;" transform="translate(323.81625 545.190938)scale(0.24 -0.24)">
      <defs>
       <path d="M 41.21875 28.078125 
L 41.21875 36.46875 
L 71.53125 36.53125 
L 71.53125 9.96875 
Q 64.546875 4.390625 57.125 1.578125 
Q 49.703125 -1.21875 41.890625 -1.21875 
Q 31.34375 -1.21875 22.71875 3.296875 
Q 14.109375 7.8125 9.71875 16.359375 
Q 5.328125 24.90625 5.328125 35.453125 
Q 5.328125 45.90625 9.6875 54.953125 
Q 14.0625 64.015625 22.265625 68.40625 
Q 30.46875 72.796875 41.15625 72.796875 
Q 48.921875 72.796875 55.1875 70.28125 
Q 61.46875 67.78125 65.03125 63.28125 
Q 68.609375 58.796875 70.453125 51.5625 
L 61.921875 49.21875 
Q 60.296875 54.6875 57.90625 57.8125 
Q 55.515625 60.9375 51.0625 62.8125 
Q 46.625 64.703125 41.21875 64.703125 
Q 34.71875 64.703125 29.984375 62.71875 
Q 25.25 60.75 22.34375 57.515625 
Q 19.4375 54.296875 17.828125 50.4375 
Q 15.09375 43.796875 15.09375 36.03125 
Q 15.09375 26.46875 18.390625 20.015625 
Q 21.6875 13.578125 27.984375 10.453125 
Q 34.28125 7.328125 41.359375 7.328125 
Q 47.515625 7.328125 53.375 9.6875 
Q 59.234375 12.0625 62.25 14.75 
L 62.25 28.078125 
z
" id="ArialMT-71"/>
       <path d="M 6.5 0 
L 6.5 51.859375 
L 14.40625 51.859375 
L 14.40625 44 
Q 17.4375 49.515625 20 51.265625 
Q 22.5625 53.03125 25.640625 53.03125 
Q 30.078125 53.03125 34.671875 50.203125 
L 31.640625 42.046875 
Q 28.421875 43.953125 25.203125 43.953125 
Q 22.3125 43.953125 20.015625 42.21875 
Q 17.71875 40.484375 16.75 37.40625 
Q 15.28125 32.71875 15.28125 27.15625 
L 15.28125 0 
z
" id="ArialMT-114"/>
       <path d="M 6.59375 -19.875 
L 6.59375 51.859375 
L 14.59375 51.859375 
L 14.59375 45.125 
Q 17.4375 49.078125 21 51.046875 
Q 24.5625 53.03125 29.640625 53.03125 
Q 36.28125 53.03125 41.359375 49.609375 
Q 46.4375 46.1875 49.015625 39.953125 
Q 51.609375 33.734375 51.609375 26.3125 
Q 51.609375 18.359375 48.75 11.984375 
Q 45.90625 5.609375 40.453125 2.21875 
Q 35.015625 -1.171875 29 -1.171875 
Q 24.609375 -1.171875 21.109375 0.6875 
Q 17.625 2.546875 15.375 5.375 
L 15.375 -19.875 
z
M 14.546875 25.640625 
Q 14.546875 15.625 18.59375 10.84375 
Q 22.65625 6.0625 28.421875 6.0625 
Q 34.28125 6.0625 38.453125 11.015625 
Q 42.625 15.96875 42.625 26.375 
Q 42.625 36.28125 38.546875 41.203125 
Q 34.46875 46.140625 28.8125 46.140625 
Q 23.1875 46.140625 18.859375 40.890625 
Q 14.546875 35.640625 14.546875 25.640625 
z
" id="ArialMT-112"/>
      </defs>
      <use xlink:href="#ArialMT-71"/>
      <use x="77.783203" xlink:href="#ArialMT-114"/>
      <use x="111.083984" xlink:href="#ArialMT-111"/>
      <use x="166.699219" xlink:href="#ArialMT-117"/>
      <use x="222.314453" xlink:href="#ArialMT-112"/>
     </g>
    </g>
   </g>
   <g id="matplotlib.axis_4">
    <g id="ytick_5">
     <g id="line2d_35">
      <path clip-path="url(#pa14356f9eb)" d="M 92.25 493.79451 
L 622.08 493.79451 
" style="fill:none;stroke:#ffffff;stroke-linecap:round;"/>
     </g>
     <g id="text_10">
      <!-- 0.4 -->
      <g style="fill:#262626;" transform="translate(52.17 501.668104)scale(0.22 -0.22)">
       <use xlink:href="#ArialMT-48"/>
       <use x="55.615234" xlink:href="#ArialMT-46"/>
       <use x="83.398438" xlink:href="#ArialMT-52"/>
      </g>
     </g>
    </g>
    <g id="ytick_6">
     <g id="line2d_36">
      <path clip-path="url(#pa14356f9eb)" d="M 92.25 432.037564 
L 622.08 432.037564 
" style="fill:none;stroke:#ffffff;stroke-linecap:round;"/>
     </g>
     <g id="text_11">
      <!-- 0.6 -->
      <g style="fill:#262626;" transform="translate(52.17 439.911158)scale(0.22 -0.22)">
       <use xlink:href="#ArialMT-48"/>
       <use x="55.615234" xlink:href="#ArialMT-46"/>
       <use x="83.398438" xlink:href="#ArialMT-54"/>
      </g>
     </g>
    </g>
    <g id="ytick_7">
     <g id="line2d_37">
      <path clip-path="url(#pa14356f9eb)" d="M 92.25 370.280619 
L 622.08 370.280619 
" style="fill:none;stroke:#ffffff;stroke-linecap:round;"/>
     </g>
     <g id="text_12">
      <!-- 0.8 -->
      <g style="fill:#262626;" transform="translate(52.17 378.154213)scale(0.22 -0.22)">
       <use xlink:href="#ArialMT-48"/>
       <use x="55.615234" xlink:href="#ArialMT-46"/>
       <use x="83.398438" xlink:href="#ArialMT-56"/>
      </g>
     </g>
    </g>
    <g id="ytick_8">
     <g id="line2d_38">
      <path clip-path="url(#pa14356f9eb)" d="M 92.25 308.523673 
L 622.08 308.523673 
" style="fill:none;stroke:#ffffff;stroke-linecap:round;"/>
     </g>
     <g id="text_13">
      <!-- 1.0 -->
      <g style="fill:#262626;" transform="translate(52.17 316.397267)scale(0.22 -0.22)">
       <use xlink:href="#ArialMT-49"/>
       <use x="55.615234" xlink:href="#ArialMT-46"/>
       <use x="83.398438" xlink:href="#ArialMT-48"/>
      </g>
     </g>
    </g>
    <g id="text_14">
     <!-- Values -->
     <g style="fill:#262626;" transform="translate(43.4 433.963623)rotate(-90)scale(0.24 -0.24)">
      <use xlink:href="#ArialMT-86"/>
      <use x="59.324219" xlink:href="#ArialMT-97"/>
      <use x="114.939453" xlink:href="#ArialMT-108"/>
      <use x="137.15625" xlink:href="#ArialMT-117"/>
      <use x="192.771484" xlink:href="#ArialMT-101"/>
      <use x="248.386719" xlink:href="#ArialMT-115"/>
     </g>
    </g>
   </g>
   <g id="patch_15">
    <path clip-path="url(#pa14356f9eb)" d="M 119.44794 371.455542 
L 188.67906 371.455542 
L 188.67906 340.057875 
L 119.44794 340.057875 
L 119.44794 371.455542 
z
" style="fill:#176d9c;stroke:#303030;stroke-linejoin:miter;"/>
   </g>
   <g id="patch_16">
    <path clip-path="url(#pa14356f9eb)" d="M 190.09194 387.777688 
L 259.32306 387.777688 
L 259.32306 345.391612 
L 190.09194 345.391612 
L 190.09194 387.777688 
z
" style="fill:#c38820;stroke:#303030;stroke-linejoin:miter;"/>
   </g>
   <g id="patch_17">
    <path clip-path="url(#pa14356f9eb)" d="M 260.73594 340.78432 
L 329.96706 340.78432 
L 329.96706 328.004786 
L 260.73594 328.004786 
L 260.73594 340.78432 
z
" style="fill:#158b6a;stroke:#303030;stroke-linejoin:miter;"/>
   </g>
   <g id="patch_18">
    <path clip-path="url(#pa14356f9eb)" d="M 384.36294 369.650963 
L 453.59406 369.650963 
L 453.59406 340.489992 
L 384.36294 340.489992 
L 384.36294 369.650963 
z
" style="fill:#176d9c;stroke:#303030;stroke-linejoin:miter;"/>
   </g>
   <g id="patch_19">
    <path clip-path="url(#pa14356f9eb)" d="M 455.00694 381.868539 
L 524.23806 381.868539 
L 524.23806 334.274546 
L 455.00694 334.274546 
L 455.00694 381.868539 
z
" style="fill:#c38820;stroke:#303030;stroke-linejoin:miter;"/>
   </g>
   <g id="patch_20">
    <path clip-path="url(#pa14356f9eb)" d="M 525.65094 346.862458 
L 594.88206 346.862458 
L 594.88206 328.435649 
L 525.65094 328.435649 
L 525.65094 346.862458 
z
" style="fill:#158b6a;stroke:#303030;stroke-linejoin:miter;"/>
   </g>
   <g id="PathCollection_10"/>
   <g id="PathCollection_11"/>
   <g id="PathCollection_12"/>
   <g id="patch_21">
    <path clip-path="url(#pa14356f9eb)" d="M 224.7075 617.308401 
L 224.7075 617.308401 
L 224.7075 617.308401 
L 224.7075 617.308401 
z
" style="fill:#176d9c;stroke:#303030;stroke-linejoin:miter;stroke-width:0.5;"/>
   </g>
   <g id="patch_22">
    <path clip-path="url(#pa14356f9eb)" d="M 224.7075 617.308401 
L 224.7075 617.308401 
L 224.7075 617.308401 
L 224.7075 617.308401 
z
" style="fill:#c38820;stroke:#303030;stroke-linejoin:miter;stroke-width:0.5;"/>
   </g>
   <g id="patch_23">
    <path clip-path="url(#pa14356f9eb)" d="M 224.7075 617.308401 
L 224.7075 617.308401 
L 224.7075 617.308401 
L 224.7075 617.308401 
z
" style="fill:#158b6a;stroke:#303030;stroke-linejoin:miter;stroke-width:0.5;"/>
   </g>
   <g id="line2d_39">
    <path clip-path="url(#pa14356f9eb)" d="M 154.0635 371.455542 
L 154.0635 395.54888 
" style="fill:none;stroke:#303030;stroke-linecap:round;"/>
   </g>
   <g id="line2d_40">
    <path clip-path="url(#pa14356f9eb)" d="M 154.0635 340.057875 
L 154.0635 312.083828 
" style="fill:none;stroke:#303030;stroke-linecap:round;"/>
   </g>
   <g id="line2d_41">
    <path clip-path="url(#pa14356f9eb)" d="M 136.75572 395.54888 
L 171.37128 395.54888 
" style="fill:none;stroke:#303030;stroke-linecap:round;"/>
   </g>
   <g id="line2d_42">
    <path clip-path="url(#pa14356f9eb)" d="M 136.75572 312.083828 
L 171.37128 312.083828 
" style="fill:none;stroke:#303030;stroke-linecap:round;"/>
   </g>
   <g id="line2d_43">
    <path clip-path="url(#pa14356f9eb)" d="M 224.7075 387.777688 
L 224.7075 395.387495 
" style="fill:none;stroke:#303030;stroke-linecap:round;"/>
   </g>
   <g id="line2d_44">
    <path clip-path="url(#pa14356f9eb)" d="M 224.7075 345.391612 
L 224.7075 334.794771 
" style="fill:none;stroke:#303030;stroke-linecap:round;"/>
   </g>
   <g id="line2d_45">
    <path clip-path="url(#pa14356f9eb)" d="M 207.39972 395.387495 
L 242.01528 395.387495 
" style="fill:none;stroke:#303030;stroke-linecap:round;"/>
   </g>
   <g id="line2d_46">
    <path clip-path="url(#pa14356f9eb)" d="M 207.39972 334.794771 
L 242.01528 334.794771 
" style="fill:none;stroke:#303030;stroke-linecap:round;"/>
   </g>
   <g id="line2d_47">
    <path clip-path="url(#pa14356f9eb)" d="M 295.3515 340.78432 
L 295.3515 353.274092 
" style="fill:none;stroke:#303030;stroke-linecap:round;"/>
   </g>
   <g id="line2d_48">
    <path clip-path="url(#pa14356f9eb)" d="M 295.3515 328.004786 
L 295.3515 313.42572 
" style="fill:none;stroke:#303030;stroke-linecap:round;"/>
   </g>
   <g id="line2d_49">
    <path clip-path="url(#pa14356f9eb)" d="M 278.04372 353.274092 
L 312.65928 353.274092 
" style="fill:none;stroke:#303030;stroke-linecap:round;"/>
   </g>
   <g id="line2d_50">
    <path clip-path="url(#pa14356f9eb)" d="M 278.04372 313.42572 
L 312.65928 313.42572 
" style="fill:none;stroke:#303030;stroke-linecap:round;"/>
   </g>
   <g id="line2d_51">
    <path clip-path="url(#pa14356f9eb)" d="M 418.9785 369.650963 
L 418.9785 410.957734 
" style="fill:none;stroke:#303030;stroke-linecap:round;"/>
   </g>
   <g id="line2d_52">
    <path clip-path="url(#pa14356f9eb)" d="M 418.9785 340.489992 
L 418.9785 318.215338 
" style="fill:none;stroke:#303030;stroke-linecap:round;"/>
   </g>
   <g id="line2d_53">
    <path clip-path="url(#pa14356f9eb)" d="M 401.67072 410.957734 
L 436.28628 410.957734 
" style="fill:none;stroke:#303030;stroke-linecap:round;"/>
   </g>
   <g id="line2d_54">
    <path clip-path="url(#pa14356f9eb)" d="M 401.67072 318.215338 
L 436.28628 318.215338 
" style="fill:none;stroke:#303030;stroke-linecap:round;"/>
   </g>
   <g id="line2d_55">
    <path clip-path="url(#pa14356f9eb)" d="M 489.6225 381.868539 
L 489.6225 394.469293 
" style="fill:none;stroke:#303030;stroke-linecap:round;"/>
   </g>
   <g id="line2d_56">
    <path clip-path="url(#pa14356f9eb)" d="M 489.6225 334.274546 
L 489.6225 318.207493 
" style="fill:none;stroke:#303030;stroke-linecap:round;"/>
   </g>
   <g id="line2d_57">
    <path clip-path="url(#pa14356f9eb)" d="M 472.31472 394.469293 
L 506.93028 394.469293 
" style="fill:none;stroke:#303030;stroke-linecap:round;"/>
   </g>
   <g id="line2d_58">
    <path clip-path="url(#pa14356f9eb)" d="M 472.31472 318.207493 
L 506.93028 318.207493 
" style="fill:none;stroke:#303030;stroke-linecap:round;"/>
   </g>
   <g id="line2d_59">
    <path clip-path="url(#pa14356f9eb)" d="M 560.2665 346.862458 
L 560.2665 359.173313 
" style="fill:none;stroke:#303030;stroke-linecap:round;"/>
   </g>
   <g id="line2d_60">
    <path clip-path="url(#pa14356f9eb)" d="M 560.2665 328.435649 
L 560.2665 314.77659 
" style="fill:none;stroke:#303030;stroke-linecap:round;"/>
   </g>
   <g id="line2d_61">
    <path clip-path="url(#pa14356f9eb)" d="M 542.95872 359.173313 
L 577.57428 359.173313 
" style="fill:none;stroke:#303030;stroke-linecap:round;"/>
   </g>
   <g id="line2d_62">
    <path clip-path="url(#pa14356f9eb)" d="M 542.95872 314.77659 
L 577.57428 314.77659 
" style="fill:none;stroke:#303030;stroke-linecap:round;"/>
   </g>
   <g id="line2d_63">
    <path clip-path="url(#pa14356f9eb)" d="M 119.44794 348.580617 
L 188.67906 348.580617 
" style="fill:none;stroke:#303030;stroke-linecap:round;"/>
   </g>
   <g id="line2d_64">
    <path clip-path="url(#pa14356f9eb)" d="M 190.09194 353.782244 
L 259.32306 353.782244 
" style="fill:none;stroke:#303030;stroke-linecap:round;"/>
   </g>
   <g id="line2d_65">
    <path clip-path="url(#pa14356f9eb)" d="M 260.73594 337.018692 
L 329.96706 337.018692 
" style="fill:none;stroke:#303030;stroke-linecap:round;"/>
   </g>
   <g id="line2d_66">
    <path clip-path="url(#pa14356f9eb)" d="M 384.36294 354.379499 
L 453.59406 354.379499 
" style="fill:none;stroke:#303030;stroke-linecap:round;"/>
   </g>
   <g id="line2d_67">
    <path clip-path="url(#pa14356f9eb)" d="M 455.00694 354.748013 
L 524.23806 354.748013 
" style="fill:none;stroke:#303030;stroke-linecap:round;"/>
   </g>
   <g id="line2d_68">
    <path clip-path="url(#pa14356f9eb)" d="M 525.65094 337.445978 
L 594.88206 337.445978 
" style="fill:none;stroke:#303030;stroke-linecap:round;"/>
   </g>
   <g id="patch_24">
    <path d="M 92.25 494.1 
L 92.25 302.217247 
" style="fill:none;stroke:#ffffff;stroke-linecap:square;stroke-linejoin:miter;stroke-width:1.25;"/>
   </g>
   <g id="patch_25">
    <path d="M 92.25 494.1 
L 622.08 494.1 
" style="fill:none;stroke:#ffffff;stroke-linecap:square;stroke-linejoin:miter;stroke-width:1.25;"/>
   </g>
   <g id="PathCollection_13">
    <defs>
     <path d="M 0 2.5 
C 0.663008 2.5 1.29895 2.236584 1.767767 1.767767 
C 2.236584 1.29895 2.5 0.663008 2.5 -0 
C 2.5 -0.663008 2.236584 -1.29895 1.767767 -1.767767 
C 1.29895 -2.236584 0.663008 -2.5 0 -2.5 
C -0.663008 -2.5 -1.29895 -2.236584 -1.767767 -1.767767 
C -2.236584 -1.29895 -2.5 -0.663008 -2.5 0 
C -2.5 0.663008 -2.236584 1.29895 -1.767767 1.767767 
C -1.29895 2.236584 -0.663008 2.5 0 2.5 
z
" id="C6_0_e21f85c7b9"/>
    </defs>
    <g clip-path="url(#pa14356f9eb)">
     <use style="fill:#0173b2;stroke:#000000;" x="156.770384" xlink:href="#C6_0_e21f85c7b9" y="312.083828"/>
    </g>
    <g clip-path="url(#pa14356f9eb)">
     <use style="fill:#0173b2;stroke:#000000;" x="147.723895" xlink:href="#C6_0_e21f85c7b9" y="365.006475"/>
    </g>
    <g clip-path="url(#pa14356f9eb)">
     <use style="fill:#0173b2;stroke:#000000;" x="153.569458" xlink:href="#C6_0_e21f85c7b9" y="320.895103"/>
    </g>
    <g clip-path="url(#pa14356f9eb)">
     <use style="fill:#0173b2;stroke:#000000;" x="158.394034" xlink:href="#C6_0_e21f85c7b9" y="372.045226"/>
    </g>
    <g clip-path="url(#pa14356f9eb)">
     <use style="fill:#0173b2;stroke:#000000;" x="152.725553" xlink:href="#C6_0_e21f85c7b9" y="356.932925"/>
    </g>
    <g clip-path="url(#pa14356f9eb)">
     <use style="fill:#0173b2;stroke:#000000;" x="154.119612" xlink:href="#C6_0_e21f85c7b9" y="312.74282"/>
    </g>
    <g clip-path="url(#pa14356f9eb)">
     <use style="fill:#0173b2;stroke:#000000;" x="162.08897" xlink:href="#C6_0_e21f85c7b9" y="336.906842"/>
    </g>
    <g clip-path="url(#pa14356f9eb)">
     <use style="fill:#0173b2;stroke:#000000;" x="153.582795" xlink:href="#C6_0_e21f85c7b9" y="395.54888"/>
    </g>
    <g clip-path="url(#pa14356f9eb)">
     <use style="fill:#0173b2;stroke:#000000;" x="146.393599" xlink:href="#C6_0_e21f85c7b9" y="371.455542"/>
    </g>
    <g clip-path="url(#pa14356f9eb)">
     <use style="fill:#0173b2;stroke:#000000;" x="153.976956" xlink:href="#C6_0_e21f85c7b9" y="395.341652"/>
    </g>
    <g clip-path="url(#pa14356f9eb)">
     <use style="fill:#0173b2;stroke:#000000;" x="157.469072" xlink:href="#C6_0_e21f85c7b9" y="348.123099"/>
    </g>
    <g clip-path="url(#pa14356f9eb)">
     <use style="fill:#0173b2;stroke:#000000;" x="159.2214" xlink:href="#C6_0_e21f85c7b9" y="340.057875"/>
    </g>
    <g clip-path="url(#pa14356f9eb)">
     <use style="fill:#0173b2;stroke:#000000;" x="146.616213" xlink:href="#C6_0_e21f85c7b9" y="344.270949"/>
    </g>
    <g clip-path="url(#pa14356f9eb)">
     <use style="fill:#0173b2;stroke:#000000;" x="159.633575" xlink:href="#C6_0_e21f85c7b9" y="348.580617"/>
    </g>
    <g clip-path="url(#pa14356f9eb)">
     <use style="fill:#0173b2;stroke:#000000;" x="147.352725" xlink:href="#C6_0_e21f85c7b9" y="346.731594"/>
    </g>
    <g clip-path="url(#pa14356f9eb)">
     <use style="fill:#0173b2;stroke:#000000;" x="148.883689" xlink:href="#C6_0_e21f85c7b9" y="355.767111"/>
    </g>
    <g clip-path="url(#pa14356f9eb)">
     <use style="fill:#0173b2;stroke:#000000;" x="155.674684" xlink:href="#C6_0_e21f85c7b9" y="395.288566"/>
    </g>
   </g>
   <g id="PathCollection_14">
    <defs>
     <path d="M 0 2.5 
C 0.663008 2.5 1.29895 2.236584 1.767767 1.767767 
C 2.236584 1.29895 2.5 0.663008 2.5 -0 
C 2.5 -0.663008 2.236584 -1.29895 1.767767 -1.767767 
C 1.29895 -2.236584 0.663008 -2.5 0 -2.5 
C -0.663008 -2.5 -1.29895 -2.236584 -1.767767 -1.767767 
C -2.236584 -1.29895 -2.5 -0.663008 -2.5 0 
C -2.5 0.663008 -2.236584 1.29895 -1.767767 1.767767 
C -1.29895 2.236584 -0.663008 2.5 0 2.5 
z
" id="C7_0_74e6752aca"/>
    </defs>
    <g clip-path="url(#pa14356f9eb)">
     <use style="fill:#de8f05;stroke:#000000;" x="218.274529" xlink:href="#C7_0_74e6752aca" y="340.395433"/>
    </g>
    <g clip-path="url(#pa14356f9eb)">
     <use style="fill:#de8f05;stroke:#000000;" x="218.25845" xlink:href="#C7_0_74e6752aca" y="347.597158"/>
    </g>
    <g clip-path="url(#pa14356f9eb)">
     <use style="fill:#de8f05;stroke:#000000;" x="230.513934" xlink:href="#C7_0_74e6752aca" y="334.794771"/>
    </g>
    <g clip-path="url(#pa14356f9eb)">
     <use style="fill:#de8f05;stroke:#000000;" x="226.751126" xlink:href="#C7_0_74e6752aca" y="393.515133"/>
    </g>
    <g clip-path="url(#pa14356f9eb)">
     <use style="fill:#de8f05;stroke:#000000;" x="226.427387" xlink:href="#C7_0_74e6752aca" y="377.132568"/>
    </g>
    <g clip-path="url(#pa14356f9eb)">
     <use style="fill:#de8f05;stroke:#000000;" x="229.850104" xlink:href="#C7_0_74e6752aca" y="345.391612"/>
    </g>
    <g clip-path="url(#pa14356f9eb)">
     <use style="fill:#de8f05;stroke:#000000;" x="231.815611" xlink:href="#C7_0_74e6752aca" y="365.98756"/>
    </g>
    <g clip-path="url(#pa14356f9eb)">
     <use style="fill:#de8f05;stroke:#000000;" x="225.937488" xlink:href="#C7_0_74e6752aca" y="393.509388"/>
    </g>
    <g clip-path="url(#pa14356f9eb)">
     <use style="fill:#de8f05;stroke:#000000;" x="225.130233" xlink:href="#C7_0_74e6752aca" y="341.182925"/>
    </g>
    <g clip-path="url(#pa14356f9eb)">
     <use style="fill:#de8f05;stroke:#000000;" x="232.890128" xlink:href="#C7_0_74e6752aca" y="387.777688"/>
    </g>
    <g clip-path="url(#pa14356f9eb)">
     <use style="fill:#de8f05;stroke:#000000;" x="231.110818" xlink:href="#C7_0_74e6752aca" y="349.053136"/>
    </g>
    <g clip-path="url(#pa14356f9eb)">
     <use style="fill:#de8f05;stroke:#000000;" x="230.439208" xlink:href="#C7_0_74e6752aca" y="347.53215"/>
    </g>
    <g clip-path="url(#pa14356f9eb)">
     <use style="fill:#de8f05;stroke:#000000;" x="231.43868" xlink:href="#C7_0_74e6752aca" y="353.782244"/>
    </g>
    <g clip-path="url(#pa14356f9eb)">
     <use style="fill:#de8f05;stroke:#000000;" x="226.018372" xlink:href="#C7_0_74e6752aca" y="388.021272"/>
    </g>
    <g clip-path="url(#pa14356f9eb)">
     <use style="fill:#de8f05;stroke:#000000;" x="216.700963" xlink:href="#C7_0_74e6752aca" y="342.608975"/>
    </g>
    <g clip-path="url(#pa14356f9eb)">
     <use style="fill:#de8f05;stroke:#000000;" x="218.520007" xlink:href="#C7_0_74e6752aca" y="371.660283"/>
    </g>
    <g clip-path="url(#pa14356f9eb)">
     <use style="fill:#de8f05;stroke:#000000;" x="232.565734" xlink:href="#C7_0_74e6752aca" y="395.387495"/>
    </g>
   </g>
   <g id="PathCollection_15">
    <defs>
     <path d="M 0 2.5 
C 0.663008 2.5 1.29895 2.236584 1.767767 1.767767 
C 2.236584 1.29895 2.5 0.663008 2.5 -0 
C 2.5 -0.663008 2.236584 -1.29895 1.767767 -1.767767 
C 1.29895 -2.236584 0.663008 -2.5 0 -2.5 
C -0.663008 -2.5 -1.29895 -2.236584 -1.767767 -1.767767 
C -2.236584 -1.29895 -2.5 -0.663008 -2.5 0 
C -2.5 0.663008 -2.236584 1.29895 -1.767767 1.767767 
C -1.29895 2.236584 -0.663008 2.5 0 2.5 
z
" id="C8_0_2a7896e9e2"/>
    </defs>
    <g clip-path="url(#pa14356f9eb)">
     <use style="fill:#029e73;stroke:#000000;" x="303.634205" xlink:href="#C8_0_2a7896e9e2" y="328.004786"/>
    </g>
    <g clip-path="url(#pa14356f9eb)">
     <use style="fill:#029e73;stroke:#000000;" x="288.100511" xlink:href="#C8_0_2a7896e9e2" y="349.552121"/>
    </g>
    <g clip-path="url(#pa14356f9eb)">
     <use style="fill:#029e73;stroke:#000000;" x="301.507557" xlink:href="#C8_0_2a7896e9e2" y="325.110823"/>
    </g>
    <g clip-path="url(#pa14356f9eb)">
     <use style="fill:#029e73;stroke:#000000;" x="299.198507" xlink:href="#C8_0_2a7896e9e2" y="353.086419"/>
    </g>
    <g clip-path="url(#pa14356f9eb)">
     <use style="fill:#029e73;stroke:#000000;" x="291.923352" xlink:href="#C8_0_2a7896e9e2" y="381.155314"/>
    </g>
    <g clip-path="url(#pa14356f9eb)">
     <use style="fill:#029e73;stroke:#000000;" x="290.778395" xlink:href="#C8_0_2a7896e9e2" y="335.566365"/>
    </g>
    <g clip-path="url(#pa14356f9eb)">
     <use style="fill:#029e73;stroke:#000000;" x="300.631873" xlink:href="#C8_0_2a7896e9e2" y="338.579568"/>
    </g>
    <g clip-path="url(#pa14356f9eb)">
     <use style="fill:#029e73;stroke:#000000;" x="289.72016" xlink:href="#C8_0_2a7896e9e2" y="353.274092"/>
    </g>
    <g clip-path="url(#pa14356f9eb)">
     <use style="fill:#029e73;stroke:#000000;" x="303.311429" xlink:href="#C8_0_2a7896e9e2" y="332.376735"/>
    </g>
    <g clip-path="url(#pa14356f9eb)">
     <use style="fill:#029e73;stroke:#000000;" x="303.297228" xlink:href="#C8_0_2a7896e9e2" y="338.511776"/>
    </g>
    <g clip-path="url(#pa14356f9eb)">
     <use style="fill:#029e73;stroke:#000000;" x="298.870188" xlink:href="#C8_0_2a7896e9e2" y="331.385448"/>
    </g>
    <g clip-path="url(#pa14356f9eb)">
     <use style="fill:#029e73;stroke:#000000;" x="286.859929" xlink:href="#C8_0_2a7896e9e2" y="313.42572"/>
    </g>
    <g clip-path="url(#pa14356f9eb)">
     <use style="fill:#029e73;stroke:#000000;" x="292.108699" xlink:href="#C8_0_2a7896e9e2" y="326.116145"/>
    </g>
    <g clip-path="url(#pa14356f9eb)">
     <use style="fill:#029e73;stroke:#000000;" x="293.620896" xlink:href="#C8_0_2a7896e9e2" y="338.164191"/>
    </g>
    <g clip-path="url(#pa14356f9eb)">
     <use style="fill:#029e73;stroke:#000000;" x="288.396804" xlink:href="#C8_0_2a7896e9e2" y="321.515126"/>
    </g>
    <g clip-path="url(#pa14356f9eb)">
     <use style="fill:#029e73;stroke:#000000;" x="295.382034" xlink:href="#C8_0_2a7896e9e2" y="337.018692"/>
    </g>
    <g clip-path="url(#pa14356f9eb)">
     <use style="fill:#029e73;stroke:#000000;" x="295.938075" xlink:href="#C8_0_2a7896e9e2" y="340.78432"/>
    </g>
   </g>
   <g id="PathCollection_16">
    <defs>
     <path d="M 0 2.5 
C 0.663008 2.5 1.29895 2.236584 1.767767 1.767767 
C 2.236584 1.29895 2.5 0.663008 2.5 -0 
C 2.5 -0.663008 2.236584 -1.29895 1.767767 -1.767767 
C 1.29895 -2.236584 0.663008 -2.5 0 -2.5 
C -0.663008 -2.5 -1.29895 -2.236584 -1.767767 -1.767767 
C -2.236584 -1.29895 -2.5 -0.663008 -2.5 0 
C -2.5 0.663008 -2.236584 1.29895 -1.767767 1.767767 
C -1.29895 2.236584 -0.663008 2.5 0 2.5 
z
" id="C9_0_7023adb9d7"/>
    </defs>
    <g clip-path="url(#pa14356f9eb)">
     <use style="fill:#0173b2;stroke:#000000;" x="425.79908" xlink:href="#C9_0_7023adb9d7" y="318.988268"/>
    </g>
    <g clip-path="url(#pa14356f9eb)">
     <use style="fill:#0173b2;stroke:#000000;" x="419.138057" xlink:href="#C9_0_7023adb9d7" y="385.78223"/>
    </g>
    <g clip-path="url(#pa14356f9eb)">
     <use style="fill:#0173b2;stroke:#000000;" x="416.265793" xlink:href="#C9_0_7023adb9d7" y="342.335582"/>
    </g>
    <g clip-path="url(#pa14356f9eb)">
     <use style="fill:#0173b2;stroke:#000000;" x="413.287145" xlink:href="#C9_0_7023adb9d7" y="358.186219"/>
    </g>
    <g clip-path="url(#pa14356f9eb)">
     <use style="fill:#0173b2;stroke:#000000;" x="411.491304" xlink:href="#C9_0_7023adb9d7" y="333.624686"/>
    </g>
    <g clip-path="url(#pa14356f9eb)">
     <use style="fill:#0173b2;stroke:#000000;" x="424.819717" xlink:href="#C9_0_7023adb9d7" y="410.957734"/>
    </g>
    <g clip-path="url(#pa14356f9eb)">
     <use style="fill:#0173b2;stroke:#000000;" x="416.790059" xlink:href="#C9_0_7023adb9d7" y="372.153751"/>
    </g>
    <g clip-path="url(#pa14356f9eb)">
     <use style="fill:#0173b2;stroke:#000000;" x="413.071318" xlink:href="#C9_0_7023adb9d7" y="347.272804"/>
    </g>
    <g clip-path="url(#pa14356f9eb)">
     <use style="fill:#0173b2;stroke:#000000;" x="425.260143" xlink:href="#C9_0_7023adb9d7" y="355.440883"/>
    </g>
    <g clip-path="url(#pa14356f9eb)">
     <use style="fill:#0173b2;stroke:#000000;" x="424.733043" xlink:href="#C9_0_7023adb9d7" y="363.875179"/>
    </g>
    <g clip-path="url(#pa14356f9eb)">
     <use style="fill:#0173b2;stroke:#000000;" x="426.452057" xlink:href="#C9_0_7023adb9d7" y="339.121592"/>
    </g>
    <g clip-path="url(#pa14356f9eb)">
     <use style="fill:#0173b2;stroke:#000000;" x="410.610094" xlink:href="#C9_0_7023adb9d7" y="367.148175"/>
    </g>
    <g clip-path="url(#pa14356f9eb)">
     <use style="fill:#0173b2;stroke:#000000;" x="422.839386" xlink:href="#C9_0_7023adb9d7" y="341.858392"/>
    </g>
    <g clip-path="url(#pa14356f9eb)">
     <use style="fill:#0173b2;stroke:#000000;" x="412.435186" xlink:href="#C9_0_7023adb9d7" y="318.215338"/>
    </g>
    <g clip-path="url(#pa14356f9eb)">
     <use style="fill:#0173b2;stroke:#000000;" x="420.099211" xlink:href="#C9_0_7023adb9d7" y="354.379499"/>
    </g>
    <g clip-path="url(#pa14356f9eb)">
     <use style="fill:#0173b2;stroke:#000000;" x="413.925823" xlink:href="#C9_0_7023adb9d7" y="342.494347"/>
    </g>
    <g clip-path="url(#pa14356f9eb)">
     <use style="fill:#0173b2;stroke:#000000;" x="423.755167" xlink:href="#C9_0_7023adb9d7" y="334.02813"/>
    </g>
    <g clip-path="url(#pa14356f9eb)">
     <use style="fill:#0173b2;stroke:#000000;" x="424.235317" xlink:href="#C9_0_7023adb9d7" y="376.113388"/>
    </g>
    <g clip-path="url(#pa14356f9eb)">
     <use style="fill:#0173b2;stroke:#000000;" x="413.448048" xlink:href="#C9_0_7023adb9d7" y="380.561582"/>
    </g>
   </g>
   <g id="PathCollection_17">
    <defs>
     <path d="M 0 2.5 
C 0.663008 2.5 1.29895 2.236584 1.767767 1.767767 
C 2.236584 1.29895 2.5 0.663008 2.5 -0 
C 2.5 -0.663008 2.236584 -1.29895 1.767767 -1.767767 
C 1.29895 -2.236584 0.663008 -2.5 0 -2.5 
C -0.663008 -2.5 -1.29895 -2.236584 -1.767767 -1.767767 
C -2.236584 -1.29895 -2.5 -0.663008 -2.5 0 
C -2.5 0.663008 -2.236584 1.29895 -1.767767 1.767767 
C -1.29895 2.236584 -0.663008 2.5 0 2.5 
z
" id="Ca_0_1778b7e39f"/>
    </defs>
    <g clip-path="url(#pa14356f9eb)">
     <use style="fill:#de8f05;stroke:#000000;" x="495.636473" xlink:href="#Ca_0_1778b7e39f" y="318.207493"/>
    </g>
    <g clip-path="url(#pa14356f9eb)">
     <use style="fill:#de8f05;stroke:#000000;" x="495.857261" xlink:href="#Ca_0_1778b7e39f" y="380.054949"/>
    </g>
    <g clip-path="url(#pa14356f9eb)">
     <use style="fill:#de8f05;stroke:#000000;" x="488.431357" xlink:href="#Ca_0_1778b7e39f" y="389.69302"/>
    </g>
    <g clip-path="url(#pa14356f9eb)">
     <use style="fill:#de8f05;stroke:#000000;" x="490.841214" xlink:href="#Ca_0_1778b7e39f" y="394.469293"/>
    </g>
    <g clip-path="url(#pa14356f9eb)">
     <use style="fill:#de8f05;stroke:#000000;" x="496.154272" xlink:href="#Ca_0_1778b7e39f" y="322.250389"/>
    </g>
    <g clip-path="url(#pa14356f9eb)">
     <use style="fill:#de8f05;stroke:#000000;" x="487.785669" xlink:href="#Ca_0_1778b7e39f" y="470.126311"/>
    </g>
    <g clip-path="url(#pa14356f9eb)">
     <use style="fill:#de8f05;stroke:#000000;" x="485.14381" xlink:href="#Ca_0_1778b7e39f" y="341.869551"/>
    </g>
    <g clip-path="url(#pa14356f9eb)">
     <use style="fill:#de8f05;stroke:#000000;" x="492.207405" xlink:href="#Ca_0_1778b7e39f" y="336.74668"/>
    </g>
    <g clip-path="url(#pa14356f9eb)">
     <use style="fill:#de8f05;stroke:#000000;" x="489.217199" xlink:href="#Ca_0_1778b7e39f" y="363.025455"/>
    </g>
    <g clip-path="url(#pa14356f9eb)">
     <use style="fill:#de8f05;stroke:#000000;" x="491.372919" xlink:href="#Ca_0_1778b7e39f" y="345.872054"/>
    </g>
    <g clip-path="url(#pa14356f9eb)">
     <use style="fill:#de8f05;stroke:#000000;" x="484.263126" xlink:href="#Ca_0_1778b7e39f" y="340.356759"/>
    </g>
    <g clip-path="url(#pa14356f9eb)">
     <use style="fill:#de8f05;stroke:#000000;" x="491.378082" xlink:href="#Ca_0_1778b7e39f" y="383.68213"/>
    </g>
    <g clip-path="url(#pa14356f9eb)">
     <use style="fill:#de8f05;stroke:#000000;" x="481.721522" xlink:href="#Ca_0_1778b7e39f" y="328.423397"/>
    </g>
    <g clip-path="url(#pa14356f9eb)">
     <use style="fill:#de8f05;stroke:#000000;" x="495.139334" xlink:href="#Ca_0_1778b7e39f" y="331.802412"/>
    </g>
    <g clip-path="url(#pa14356f9eb)">
     <use style="fill:#de8f05;stroke:#000000;" x="492.455578" xlink:href="#Ca_0_1778b7e39f" y="354.748013"/>
    </g>
    <g clip-path="url(#pa14356f9eb)">
     <use style="fill:#de8f05;stroke:#000000;" x="489.309551" xlink:href="#Ca_0_1778b7e39f" y="364.421616"/>
    </g>
    <g clip-path="url(#pa14356f9eb)">
     <use style="fill:#de8f05;stroke:#000000;" x="491.857002" xlink:href="#Ca_0_1778b7e39f" y="322.693842"/>
    </g>
    <g clip-path="url(#pa14356f9eb)">
     <use style="fill:#de8f05;stroke:#000000;" x="490.800118" xlink:href="#Ca_0_1778b7e39f" y="385.966977"/>
    </g>
    <g clip-path="url(#pa14356f9eb)">
     <use style="fill:#de8f05;stroke:#000000;" x="486.892158" xlink:href="#Ca_0_1778b7e39f" y="376.45956"/>
    </g>
   </g>
   <g id="PathCollection_18">
    <defs>
     <path d="M 0 2.5 
C 0.663008 2.5 1.29895 2.236584 1.767767 1.767767 
C 2.236584 1.29895 2.5 0.663008 2.5 -0 
C 2.5 -0.663008 2.236584 -1.29895 1.767767 -1.767767 
C 1.29895 -2.236584 0.663008 -2.5 0 -2.5 
C -0.663008 -2.5 -1.29895 -2.236584 -1.767767 -1.767767 
C -2.236584 -1.29895 -2.5 -0.663008 -2.5 0 
C -2.5 0.663008 -2.236584 1.29895 -1.767767 1.767767 
C -1.29895 2.236584 -0.663008 2.5 0 2.5 
z
" id="Cb_0_b1dae24518"/>
    </defs>
    <g clip-path="url(#pa14356f9eb)">
     <use style="fill:#029e73;stroke:#000000;" x="560.226766" xlink:href="#Cb_0_b1dae24518" y="324.765448"/>
    </g>
    <g clip-path="url(#pa14356f9eb)">
     <use style="fill:#029e73;stroke:#000000;" x="556.264998" xlink:href="#Cb_0_b1dae24518" y="348.902275"/>
    </g>
    <g clip-path="url(#pa14356f9eb)">
     <use style="fill:#029e73;stroke:#000000;" x="563.460533" xlink:href="#Cb_0_b1dae24518" y="331.229945"/>
    </g>
    <g clip-path="url(#pa14356f9eb)">
     <use style="fill:#029e73;stroke:#000000;" x="557.247217" xlink:href="#Cb_0_b1dae24518" y="359.173313"/>
    </g>
    <g clip-path="url(#pa14356f9eb)">
     <use style="fill:#029e73;stroke:#000000;" x="551.655936" xlink:href="#Cb_0_b1dae24518" y="323.192463"/>
    </g>
    <g clip-path="url(#pa14356f9eb)">
     <use style="fill:#029e73;stroke:#000000;" x="562.352186" xlink:href="#Cb_0_b1dae24518" y="357.146895"/>
    </g>
    <g clip-path="url(#pa14356f9eb)">
     <use style="fill:#029e73;stroke:#000000;" x="564.029035" xlink:href="#Cb_0_b1dae24518" y="348.422071"/>
    </g>
    <g clip-path="url(#pa14356f9eb)">
     <use style="fill:#029e73;stroke:#000000;" x="562.024593" xlink:href="#Cb_0_b1dae24518" y="341.281599"/>
    </g>
    <g clip-path="url(#pa14356f9eb)">
     <use style="fill:#029e73;stroke:#000000;" x="557.988973" xlink:href="#Cb_0_b1dae24518" y="337.445978"/>
    </g>
    <g clip-path="url(#pa14356f9eb)">
     <use style="fill:#029e73;stroke:#000000;" x="553.927948" xlink:href="#Cb_0_b1dae24518" y="335.001686"/>
    </g>
    <g clip-path="url(#pa14356f9eb)">
     <use style="fill:#029e73;stroke:#000000;" x="554.257003" xlink:href="#Cb_0_b1dae24518" y="345.302845"/>
    </g>
    <g clip-path="url(#pa14356f9eb)">
     <use style="fill:#029e73;stroke:#000000;" x="561.564329" xlink:href="#Cb_0_b1dae24518" y="348.779973"/>
    </g>
    <g clip-path="url(#pa14356f9eb)">
     <use style="fill:#029e73;stroke:#000000;" x="557.371125" xlink:href="#Cb_0_b1dae24518" y="328.668584"/>
    </g>
    <g clip-path="url(#pa14356f9eb)">
     <use style="fill:#029e73;stroke:#000000;" x="560.340316" xlink:href="#Cb_0_b1dae24518" y="314.77659"/>
    </g>
    <g clip-path="url(#pa14356f9eb)">
     <use style="fill:#029e73;stroke:#000000;" x="561.360753" xlink:href="#Cb_0_b1dae24518" y="327.038748"/>
    </g>
    <g clip-path="url(#pa14356f9eb)">
     <use style="fill:#029e73;stroke:#000000;" x="568.400127" xlink:href="#Cb_0_b1dae24518" y="343.467909"/>
    </g>
    <g clip-path="url(#pa14356f9eb)">
     <use style="fill:#029e73;stroke:#000000;" x="567.143502" xlink:href="#Cb_0_b1dae24518" y="334.097058"/>
    </g>
    <g clip-path="url(#pa14356f9eb)">
     <use style="fill:#029e73;stroke:#000000;" x="559.052726" xlink:href="#Cb_0_b1dae24518" y="328.202714"/>
    </g>
    <g clip-path="url(#pa14356f9eb)">
     <use style="fill:#029e73;stroke:#000000;" x="567.676769" xlink:href="#Cb_0_b1dae24518" y="344.96557"/>
    </g>
   </g>
   <g id="text_15">
    <!-- Powerbars Pose -->
    <g style="fill:#262626;" transform="translate(269.12625 282.217247)scale(0.24 -0.24)">
     <defs>
      <path d="M 16.15625 0 
L 0.296875 51.859375 
L 9.375 51.859375 
L 17.625 21.921875 
L 20.703125 10.796875 
Q 20.90625 11.625 23.390625 21.484375 
L 31.640625 51.859375 
L 40.671875 51.859375 
L 48.4375 21.78125 
L 51.03125 11.859375 
L 54 21.875 
L 62.890625 51.859375 
L 71.4375 51.859375 
L 55.21875 0 
L 46.09375 0 
L 37.84375 31.0625 
L 35.84375 39.890625 
L 25.34375 0 
z
" id="ArialMT-119"/>
      <path d="M 14.703125 0 
L 6.546875 0 
L 6.546875 71.578125 
L 15.328125 71.578125 
L 15.328125 46.046875 
Q 20.90625 53.03125 29.546875 53.03125 
Q 34.328125 53.03125 38.59375 51.09375 
Q 42.875 49.171875 45.625 45.671875 
Q 48.390625 42.1875 49.953125 37.25 
Q 51.515625 32.328125 51.515625 26.703125 
Q 51.515625 13.375 44.921875 6.09375 
Q 38.328125 -1.171875 29.109375 -1.171875 
Q 19.921875 -1.171875 14.703125 6.5 
z
M 14.59375 26.3125 
Q 14.59375 17 17.140625 12.84375 
Q 21.296875 6.0625 28.375 6.0625 
Q 34.125 6.0625 38.328125 11.0625 
Q 42.53125 16.0625 42.53125 25.984375 
Q 42.53125 36.140625 38.5 40.96875 
Q 34.46875 45.796875 28.765625 45.796875 
Q 23 45.796875 18.796875 40.796875 
Q 14.59375 35.796875 14.59375 26.3125 
z
" id="ArialMT-98"/>
     </defs>
     <use xlink:href="#ArialMT-80"/>
     <use x="66.699219" xlink:href="#ArialMT-111"/>
     <use x="122.314453" xlink:href="#ArialMT-119"/>
     <use x="194.53125" xlink:href="#ArialMT-101"/>
     <use x="250.146484" xlink:href="#ArialMT-114"/>
     <use x="283.447266" xlink:href="#ArialMT-98"/>
     <use x="339.0625" xlink:href="#ArialMT-97"/>
     <use x="394.677734" xlink:href="#ArialMT-114"/>
     <use x="427.978516" xlink:href="#ArialMT-115"/>
     <use x="477.978516" xlink:href="#ArialMT-32"/>
     <use x="505.761719" xlink:href="#ArialMT-80"/>
     <use x="572.460938" xlink:href="#ArialMT-111"/>
     <use x="628.076172" xlink:href="#ArialMT-115"/>
     <use x="678.076172" xlink:href="#ArialMT-101"/>
    </g>
   </g>
   <g id="legend_1">
    <g id="patch_26">
     <path d="M 516.585 488.1 
L 613.68 488.1 
Q 616.08 488.1 616.08 485.7 
L 616.08 435.83625 
Q 616.08 433.43625 613.68 433.43625 
L 516.585 433.43625 
Q 514.185 433.43625 514.185 435.83625 
L 514.185 485.7 
Q 514.185 488.1 516.585 488.1 
z
" style="fill:#eaeaf2;opacity:0.8;stroke:#cccccc;stroke-linejoin:miter;"/>
    </g>
    <g id="patch_27">
     <path d="M 518.985 446.825625 
L 542.985 446.825625 
L 542.985 438.425625 
L 518.985 438.425625 
z
" style="fill:#176d9c;stroke:#303030;stroke-linejoin:miter;stroke-width:0.5;"/>
    </g>
    <g id="text_16">
     <!-- Distance -->
     <g style="fill:#262626;" transform="translate(552.585 446.825625)scale(0.12 -0.12)">
      <defs>
       <path d="M 7.71875 0 
L 7.71875 71.578125 
L 32.375 71.578125 
Q 40.71875 71.578125 45.125 70.5625 
Q 51.265625 69.140625 55.609375 65.4375 
Q 61.28125 60.640625 64.078125 53.1875 
Q 66.890625 45.75 66.890625 36.1875 
Q 66.890625 28.03125 64.984375 21.734375 
Q 63.09375 15.4375 60.109375 11.296875 
Q 57.125 7.171875 53.578125 4.796875 
Q 50.046875 2.4375 45.046875 1.21875 
Q 40.046875 0 33.546875 0 
z
M 17.1875 8.453125 
L 32.46875 8.453125 
Q 39.546875 8.453125 43.578125 9.765625 
Q 47.609375 11.078125 50 13.484375 
Q 53.375 16.84375 55.25 22.53125 
Q 57.125 28.21875 57.125 36.328125 
Q 57.125 47.5625 53.4375 53.59375 
Q 49.75 59.625 44.484375 61.671875 
Q 40.671875 63.140625 32.234375 63.140625 
L 17.1875 63.140625 
z
" id="ArialMT-68"/>
       <path d="M 6.640625 61.46875 
L 6.640625 71.578125 
L 15.4375 71.578125 
L 15.4375 61.46875 
z
M 6.640625 0 
L 6.640625 51.859375 
L 15.4375 51.859375 
L 15.4375 0 
z
" id="ArialMT-105"/>
       <path d="M 25.78125 7.859375 
L 27.046875 0.09375 
Q 23.34375 -0.6875 20.40625 -0.6875 
Q 15.625 -0.6875 12.984375 0.828125 
Q 10.359375 2.34375 9.28125 4.8125 
Q 8.203125 7.28125 8.203125 15.1875 
L 8.203125 45.015625 
L 1.765625 45.015625 
L 1.765625 51.859375 
L 8.203125 51.859375 
L 8.203125 64.703125 
L 16.9375 69.96875 
L 16.9375 51.859375 
L 25.78125 51.859375 
L 25.78125 45.015625 
L 16.9375 45.015625 
L 16.9375 14.703125 
Q 16.9375 10.9375 17.40625 9.859375 
Q 17.875 8.796875 18.921875 8.15625 
Q 19.96875 7.515625 21.921875 7.515625 
Q 23.390625 7.515625 25.78125 7.859375 
z
" id="ArialMT-116"/>
       <path d="M 6.59375 0 
L 6.59375 51.859375 
L 14.5 51.859375 
L 14.5 44.484375 
Q 20.21875 53.03125 31 53.03125 
Q 35.6875 53.03125 39.625 51.34375 
Q 43.5625 49.65625 45.515625 46.921875 
Q 47.46875 44.1875 48.25 40.4375 
Q 48.734375 37.984375 48.734375 31.890625 
L 48.734375 0 
L 39.9375 0 
L 39.9375 31.546875 
Q 39.9375 36.921875 38.90625 39.578125 
Q 37.890625 42.234375 35.28125 43.8125 
Q 32.671875 45.40625 29.15625 45.40625 
Q 23.53125 45.40625 19.453125 41.84375 
Q 15.375 38.28125 15.375 28.328125 
L 15.375 0 
z
" id="ArialMT-110"/>
      </defs>
      <use xlink:href="#ArialMT-68"/>
      <use x="72.216797" xlink:href="#ArialMT-105"/>
      <use x="94.433594" xlink:href="#ArialMT-115"/>
      <use x="144.433594" xlink:href="#ArialMT-116"/>
      <use x="172.216797" xlink:href="#ArialMT-97"/>
      <use x="227.832031" xlink:href="#ArialMT-110"/>
      <use x="283.447266" xlink:href="#ArialMT-99"/>
      <use x="333.447266" xlink:href="#ArialMT-101"/>
     </g>
    </g>
    <g id="patch_28">
     <path d="M 518.985 463.8 
L 542.985 463.8 
L 542.985 455.4 
L 518.985 455.4 
z
" style="fill:#c38820;stroke:#303030;stroke-linejoin:miter;stroke-width:0.5;"/>
    </g>
    <g id="text_17">
     <!-- Angle -->
     <g style="fill:#262626;" transform="translate(552.585 463.8)scale(0.12 -0.12)">
      <defs>
       <path d="M 4.984375 -4.296875 
L 13.53125 -5.5625 
Q 14.0625 -9.515625 16.5 -11.328125 
Q 19.78125 -13.765625 25.4375 -13.765625 
Q 31.546875 -13.765625 34.859375 -11.328125 
Q 38.1875 -8.890625 39.359375 -4.5 
Q 40.046875 -1.8125 39.984375 6.78125 
Q 34.234375 0 25.640625 0 
Q 14.9375 0 9.078125 7.71875 
Q 3.21875 15.4375 3.21875 26.21875 
Q 3.21875 33.640625 5.90625 39.90625 
Q 8.59375 46.1875 13.6875 49.609375 
Q 18.796875 53.03125 25.6875 53.03125 
Q 34.859375 53.03125 40.828125 45.609375 
L 40.828125 51.859375 
L 48.921875 51.859375 
L 48.921875 7.03125 
Q 48.921875 -5.078125 46.453125 -10.125 
Q 44 -15.1875 38.640625 -18.109375 
Q 33.296875 -21.046875 25.484375 -21.046875 
Q 16.21875 -21.046875 10.5 -16.875 
Q 4.78125 -12.703125 4.984375 -4.296875 
z
M 12.25 26.859375 
Q 12.25 16.65625 16.296875 11.96875 
Q 20.359375 7.28125 26.46875 7.28125 
Q 32.515625 7.28125 36.609375 11.9375 
Q 40.71875 16.609375 40.71875 26.5625 
Q 40.71875 36.078125 36.5 40.90625 
Q 32.28125 45.75 26.3125 45.75 
Q 20.453125 45.75 16.34375 40.984375 
Q 12.25 36.234375 12.25 26.859375 
z
" id="ArialMT-103"/>
      </defs>
      <use xlink:href="#ArialMT-65"/>
      <use x="66.699219" xlink:href="#ArialMT-110"/>
      <use x="122.314453" xlink:href="#ArialMT-103"/>
      <use x="177.929688" xlink:href="#ArialMT-108"/>
      <use x="200.146484" xlink:href="#ArialMT-101"/>
     </g>
    </g>
    <g id="patch_29">
     <path d="M 518.985 480.915 
L 542.985 480.915 
L 542.985 472.515 
L 518.985 472.515 
z
" style="fill:#158b6a;stroke:#303030;stroke-linejoin:miter;stroke-width:0.5;"/>
    </g>
    <g id="text_18">
     <!-- Orientation -->
     <g style="fill:#262626;" transform="translate(552.585 480.915)scale(0.12 -0.12)">
      <defs>
       <path d="M 4.828125 34.859375 
Q 4.828125 52.6875 14.390625 62.765625 
Q 23.96875 72.859375 39.109375 72.859375 
Q 49.03125 72.859375 56.984375 68.109375 
Q 64.9375 63.375 69.109375 54.90625 
Q 73.296875 46.4375 73.296875 35.6875 
Q 73.296875 24.8125 68.890625 16.21875 
Q 64.5 7.625 56.4375 3.203125 
Q 48.390625 -1.21875 39.0625 -1.21875 
Q 28.953125 -1.21875 20.984375 3.65625 
Q 13.03125 8.546875 8.921875 16.984375 
Q 4.828125 25.4375 4.828125 34.859375 
z
M 14.59375 34.71875 
Q 14.59375 21.78125 21.546875 14.328125 
Q 28.515625 6.890625 39.015625 6.890625 
Q 49.703125 6.890625 56.609375 14.40625 
Q 63.53125 21.921875 63.53125 35.75 
Q 63.53125 44.484375 60.578125 51 
Q 57.625 57.515625 51.921875 61.109375 
Q 46.234375 64.703125 39.15625 64.703125 
Q 29.109375 64.703125 21.84375 57.78125 
Q 14.59375 50.875 14.59375 34.71875 
z
" id="ArialMT-79"/>
      </defs>
      <use xlink:href="#ArialMT-79"/>
      <use x="77.783203" xlink:href="#ArialMT-114"/>
      <use x="111.083984" xlink:href="#ArialMT-105"/>
      <use x="133.300781" xlink:href="#ArialMT-101"/>
      <use x="188.916016" xlink:href="#ArialMT-110"/>
      <use x="244.53125" xlink:href="#ArialMT-116"/>
      <use x="272.314453" xlink:href="#ArialMT-97"/>
      <use x="327.929688" xlink:href="#ArialMT-116"/>
      <use x="355.712891" xlink:href="#ArialMT-105"/>
      <use x="377.929688" xlink:href="#ArialMT-111"/>
      <use x="433.544922" xlink:href="#ArialMT-110"/>
     </g>
    </g>
   </g>
  </g>
 </g>
 <defs>
  <clipPath id="p514ef48175">
   <rect height="191.882753" width="529.83" x="92.25" y="49.2"/>
  </clipPath>
  <clipPath id="pa14356f9eb">
   <rect height="191.882753" width="529.83" x="92.25" y="302.217247"/>
  </clipPath>
 </defs>
</svg>
