<?xml version="1.0" encoding="utf-8" standalone="no"?>
<!DOCTYPE svg PUBLIC "-//W3C//DTD SVG 1.1//EN"
  "http://www.w3.org/Graphics/SVG/1.1/DTD/svg11.dtd">
<!-- Created with matplotlib (https://matplotlib.org/) -->
<svg height="432pt" version="1.1" viewBox="0 0 576 432" width="576pt" xmlns="http://www.w3.org/2000/svg" xmlns:xlink="http://www.w3.org/1999/xlink">
 <defs>
  <style type="text/css">
*{stroke-linecap:butt;stroke-linejoin:round;}
  </style>
 </defs>
 <g id="figure_1">
  <g id="patch_1">
   <path d="M 0 432 
L 576 432 
L 576 0 
L 0 0 
z
" style="fill:#ffffff;"/>
  </g>
  <g id="axes_1">
   <g id="patch_2">
    <path d="M 72 367.2 
L 518.4 367.2 
L 518.4 51.84 
L 72 51.84 
z
" style="fill:#eaeaf2;"/>
   </g>
   <g id="matplotlib.axis_1">
    <g id="xtick_1">
     <g id="text_1">
      <!-- CP AH -->
      <defs>
       <path d="M 58.796875 25.09375 
L 68.265625 22.703125 
Q 65.28125 11.03125 57.546875 4.90625 
Q 49.8125 -1.21875 38.625 -1.21875 
Q 27.046875 -1.21875 19.796875 3.484375 
Q 12.546875 8.203125 8.765625 17.140625 
Q 4.984375 26.078125 4.984375 36.328125 
Q 4.984375 47.515625 9.25 55.828125 
Q 13.53125 64.15625 21.40625 68.46875 
Q 29.296875 72.796875 38.765625 72.796875 
Q 49.515625 72.796875 56.828125 67.328125 
Q 64.15625 61.859375 67.046875 51.953125 
L 57.71875 49.75 
Q 55.21875 57.5625 50.484375 61.125 
Q 45.75 64.703125 38.578125 64.703125 
Q 30.328125 64.703125 24.78125 60.734375 
Q 19.234375 56.78125 16.984375 50.109375 
Q 14.75 43.453125 14.75 36.375 
Q 14.75 27.25 17.40625 20.4375 
Q 20.0625 13.625 25.671875 10.25 
Q 31.296875 6.890625 37.84375 6.890625 
Q 45.796875 6.890625 51.3125 11.46875 
Q 56.84375 16.0625 58.796875 25.09375 
z
" id="ArialMT-67"/>
       <path d="M 7.71875 0 
L 7.71875 71.578125 
L 34.71875 71.578125 
Q 41.84375 71.578125 45.609375 70.90625 
Q 50.875 70.015625 54.4375 67.546875 
Q 58.015625 65.09375 60.1875 60.640625 
Q 62.359375 56.203125 62.359375 50.875 
Q 62.359375 41.75 56.546875 35.421875 
Q 50.734375 29.109375 35.546875 29.109375 
L 17.1875 29.109375 
L 17.1875 0 
z
M 17.1875 37.546875 
L 35.6875 37.546875 
Q 44.875 37.546875 48.734375 40.96875 
Q 52.59375 44.390625 52.59375 50.59375 
Q 52.59375 55.078125 50.3125 58.265625 
Q 48.046875 61.46875 44.34375 62.5 
Q 41.9375 63.140625 35.5 63.140625 
L 17.1875 63.140625 
z
" id="ArialMT-80"/>
       <path id="ArialMT-32"/>
       <path d="M -0.140625 0 
L 27.34375 71.578125 
L 37.546875 71.578125 
L 66.84375 0 
L 56.0625 0 
L 47.703125 21.6875 
L 17.78125 21.6875 
L 9.90625 0 
z
M 20.515625 29.390625 
L 44.78125 29.390625 
L 37.3125 49.21875 
Q 33.890625 58.25 32.234375 64.0625 
Q 30.859375 57.171875 28.375 50.390625 
z
" id="ArialMT-65"/>
       <path d="M 8.015625 0 
L 8.015625 71.578125 
L 17.484375 71.578125 
L 17.484375 42.1875 
L 54.6875 42.1875 
L 54.6875 71.578125 
L 64.15625 71.578125 
L 64.15625 0 
L 54.6875 0 
L 54.6875 33.734375 
L 17.484375 33.734375 
L 17.484375 0 
z
" id="ArialMT-72"/>
      </defs>
      <g style="fill:#262626;" transform="translate(99.835781 384.573594)scale(0.11 -0.11)">
       <use xlink:href="#ArialMT-67"/>
       <use x="72.216797" xlink:href="#ArialMT-80"/>
       <use x="138.900391" xlink:href="#ArialMT-32"/>
       <use x="166.605469" xlink:href="#ArialMT-65"/>
       <use x="233.304688" xlink:href="#ArialMT-72"/>
      </g>
     </g>
    </g>
    <g id="xtick_2">
     <g id="text_2">
      <!-- CP LA -->
      <defs>
       <path d="M 7.328125 0 
L 7.328125 71.578125 
L 16.796875 71.578125 
L 16.796875 8.453125 
L 52.046875 8.453125 
L 52.046875 0 
z
" id="ArialMT-76"/>
      </defs>
      <g style="fill:#262626;" transform="translate(190.025 384.573594)scale(0.11 -0.11)">
       <use xlink:href="#ArialMT-67"/>
       <use x="72.216797" xlink:href="#ArialMT-80"/>
       <use x="138.900391" xlink:href="#ArialMT-32"/>
       <use x="166.683594" xlink:href="#ArialMT-76"/>
       <use x="222.298828" xlink:href="#ArialMT-65"/>
      </g>
     </g>
    </g>
    <g id="xtick_3">
     <g id="text_3">
      <!-- TD Control -->
      <defs>
       <path d="M 25.921875 0 
L 25.921875 63.140625 
L 2.34375 63.140625 
L 2.34375 71.578125 
L 59.078125 71.578125 
L 59.078125 63.140625 
L 35.40625 63.140625 
L 35.40625 0 
z
" id="ArialMT-84"/>
       <path d="M 7.71875 0 
L 7.71875 71.578125 
L 32.375 71.578125 
Q 40.71875 71.578125 45.125 70.5625 
Q 51.265625 69.140625 55.609375 65.4375 
Q 61.28125 60.640625 64.078125 53.1875 
Q 66.890625 45.75 66.890625 36.1875 
Q 66.890625 28.03125 64.984375 21.734375 
Q 63.09375 15.4375 60.109375 11.296875 
Q 57.125 7.171875 53.578125 4.796875 
Q 50.046875 2.4375 45.046875 1.21875 
Q 40.046875 0 33.546875 0 
z
M 17.1875 8.453125 
L 32.46875 8.453125 
Q 39.546875 8.453125 43.578125 9.765625 
Q 47.609375 11.078125 50 13.484375 
Q 53.375 16.84375 55.25 22.53125 
Q 57.125 28.21875 57.125 36.328125 
Q 57.125 47.5625 53.4375 53.59375 
Q 49.75 59.625 44.484375 61.671875 
Q 40.671875 63.140625 32.234375 63.140625 
L 17.1875 63.140625 
z
" id="ArialMT-68"/>
       <path d="M 3.328125 25.921875 
Q 3.328125 40.328125 11.328125 47.265625 
Q 18.015625 53.03125 27.640625 53.03125 
Q 38.328125 53.03125 45.109375 46.015625 
Q 51.90625 39.015625 51.90625 26.65625 
Q 51.90625 16.65625 48.90625 10.90625 
Q 45.90625 5.171875 40.15625 2 
Q 34.421875 -1.171875 27.640625 -1.171875 
Q 16.75 -1.171875 10.03125 5.8125 
Q 3.328125 12.796875 3.328125 25.921875 
z
M 12.359375 25.921875 
Q 12.359375 15.96875 16.703125 11.015625 
Q 21.046875 6.0625 27.640625 6.0625 
Q 34.1875 6.0625 38.53125 11.03125 
Q 42.875 16.015625 42.875 26.21875 
Q 42.875 35.84375 38.5 40.796875 
Q 34.125 45.75 27.640625 45.75 
Q 21.046875 45.75 16.703125 40.8125 
Q 12.359375 35.890625 12.359375 25.921875 
z
" id="ArialMT-111"/>
       <path d="M 6.59375 0 
L 6.59375 51.859375 
L 14.5 51.859375 
L 14.5 44.484375 
Q 20.21875 53.03125 31 53.03125 
Q 35.6875 53.03125 39.625 51.34375 
Q 43.5625 49.65625 45.515625 46.921875 
Q 47.46875 44.1875 48.25 40.4375 
Q 48.734375 37.984375 48.734375 31.890625 
L 48.734375 0 
L 39.9375 0 
L 39.9375 31.546875 
Q 39.9375 36.921875 38.90625 39.578125 
Q 37.890625 42.234375 35.28125 43.8125 
Q 32.671875 45.40625 29.15625 45.40625 
Q 23.53125 45.40625 19.453125 41.84375 
Q 15.375 38.28125 15.375 28.328125 
L 15.375 0 
z
" id="ArialMT-110"/>
       <path d="M 25.78125 7.859375 
L 27.046875 0.09375 
Q 23.34375 -0.6875 20.40625 -0.6875 
Q 15.625 -0.6875 12.984375 0.828125 
Q 10.359375 2.34375 9.28125 4.8125 
Q 8.203125 7.28125 8.203125 15.1875 
L 8.203125 45.015625 
L 1.765625 45.015625 
L 1.765625 51.859375 
L 8.203125 51.859375 
L 8.203125 64.703125 
L 16.9375 69.96875 
L 16.9375 51.859375 
L 25.78125 51.859375 
L 25.78125 45.015625 
L 16.9375 45.015625 
L 16.9375 14.703125 
Q 16.9375 10.9375 17.40625 9.859375 
Q 17.875 8.796875 18.921875 8.15625 
Q 19.96875 7.515625 21.921875 7.515625 
Q 23.390625 7.515625 25.78125 7.859375 
z
" id="ArialMT-116"/>
       <path d="M 6.5 0 
L 6.5 51.859375 
L 14.40625 51.859375 
L 14.40625 44 
Q 17.4375 49.515625 20 51.265625 
Q 22.5625 53.03125 25.640625 53.03125 
Q 30.078125 53.03125 34.671875 50.203125 
L 31.640625 42.046875 
Q 28.421875 43.953125 25.203125 43.953125 
Q 22.3125 43.953125 20.015625 42.21875 
Q 17.71875 40.484375 16.75 37.40625 
Q 15.28125 32.71875 15.28125 27.15625 
L 15.28125 0 
z
" id="ArialMT-114"/>
       <path d="M 6.390625 0 
L 6.390625 71.578125 
L 15.1875 71.578125 
L 15.1875 0 
z
" id="ArialMT-108"/>
      </defs>
      <g style="fill:#262626;" transform="translate(268.611797 384.573594)scale(0.11 -0.11)">
       <use xlink:href="#ArialMT-84"/>
       <use x="61.083984" xlink:href="#ArialMT-68"/>
       <use x="133.300781" xlink:href="#ArialMT-32"/>
       <use x="161.083984" xlink:href="#ArialMT-67"/>
       <use x="233.300781" xlink:href="#ArialMT-111"/>
       <use x="288.916016" xlink:href="#ArialMT-110"/>
       <use x="344.53125" xlink:href="#ArialMT-116"/>
       <use x="372.314453" xlink:href="#ArialMT-114"/>
       <use x="405.615234" xlink:href="#ArialMT-111"/>
       <use x="461.230469" xlink:href="#ArialMT-108"/>
      </g>
     </g>
    </g>
    <g id="xtick_4">
     <g id="text_4">
      <!-- Adult Control 1 -->
      <defs>
       <path d="M 40.234375 0 
L 40.234375 6.546875 
Q 35.296875 -1.171875 25.734375 -1.171875 
Q 19.53125 -1.171875 14.328125 2.25 
Q 9.125 5.671875 6.265625 11.796875 
Q 3.421875 17.921875 3.421875 25.875 
Q 3.421875 33.640625 6 39.96875 
Q 8.59375 46.296875 13.765625 49.65625 
Q 18.953125 53.03125 25.34375 53.03125 
Q 30.03125 53.03125 33.6875 51.046875 
Q 37.359375 49.078125 39.65625 45.90625 
L 39.65625 71.578125 
L 48.390625 71.578125 
L 48.390625 0 
z
M 12.453125 25.875 
Q 12.453125 15.921875 16.640625 10.984375 
Q 20.84375 6.0625 26.5625 6.0625 
Q 32.328125 6.0625 36.34375 10.765625 
Q 40.375 15.484375 40.375 25.140625 
Q 40.375 35.796875 36.265625 40.765625 
Q 32.171875 45.75 26.171875 45.75 
Q 20.3125 45.75 16.375 40.96875 
Q 12.453125 36.1875 12.453125 25.875 
z
" id="ArialMT-100"/>
       <path d="M 40.578125 0 
L 40.578125 7.625 
Q 34.515625 -1.171875 24.125 -1.171875 
Q 19.53125 -1.171875 15.546875 0.578125 
Q 11.578125 2.34375 9.640625 5 
Q 7.71875 7.671875 6.9375 11.53125 
Q 6.390625 14.109375 6.390625 19.734375 
L 6.390625 51.859375 
L 15.1875 51.859375 
L 15.1875 23.09375 
Q 15.1875 16.21875 15.71875 13.8125 
Q 16.546875 10.359375 19.234375 8.375 
Q 21.921875 6.390625 25.875 6.390625 
Q 29.828125 6.390625 33.296875 8.421875 
Q 36.765625 10.453125 38.203125 13.9375 
Q 39.65625 17.4375 39.65625 24.078125 
L 39.65625 51.859375 
L 48.4375 51.859375 
L 48.4375 0 
z
" id="ArialMT-117"/>
       <path d="M 37.25 0 
L 28.46875 0 
L 28.46875 56 
Q 25.296875 52.984375 20.140625 49.953125 
Q 14.984375 46.921875 10.890625 45.40625 
L 10.890625 53.90625 
Q 18.265625 57.375 23.78125 62.296875 
Q 29.296875 67.234375 31.59375 71.875 
L 37.25 71.875 
z
" id="ArialMT-49"/>
      </defs>
      <g style="fill:#262626;" transform="translate(348.100937 384.573594)scale(0.11 -0.11)">
       <use xlink:href="#ArialMT-65"/>
       <use x="66.699219" xlink:href="#ArialMT-100"/>
       <use x="122.314453" xlink:href="#ArialMT-117"/>
       <use x="177.929688" xlink:href="#ArialMT-108"/>
       <use x="200.146484" xlink:href="#ArialMT-116"/>
       <use x="227.929688" xlink:href="#ArialMT-32"/>
       <use x="255.712891" xlink:href="#ArialMT-67"/>
       <use x="327.929688" xlink:href="#ArialMT-111"/>
       <use x="383.544922" xlink:href="#ArialMT-110"/>
       <use x="439.160156" xlink:href="#ArialMT-116"/>
       <use x="466.943359" xlink:href="#ArialMT-114"/>
       <use x="500.244141" xlink:href="#ArialMT-111"/>
       <use x="555.859375" xlink:href="#ArialMT-108"/>
       <use x="578.076172" xlink:href="#ArialMT-32"/>
       <use x="605.859375" xlink:href="#ArialMT-49"/>
      </g>
     </g>
    </g>
    <g id="xtick_5">
     <g id="text_5">
      <!-- Adult Control 2 -->
      <defs>
       <path d="M 50.34375 8.453125 
L 50.34375 0 
L 3.03125 0 
Q 2.9375 3.171875 4.046875 6.109375 
Q 5.859375 10.9375 9.828125 15.625 
Q 13.8125 20.3125 21.34375 26.46875 
Q 33.015625 36.03125 37.109375 41.625 
Q 41.21875 47.21875 41.21875 52.203125 
Q 41.21875 57.421875 37.46875 61 
Q 33.734375 64.59375 27.734375 64.59375 
Q 21.390625 64.59375 17.578125 60.78125 
Q 13.765625 56.984375 13.71875 50.25 
L 4.6875 51.171875 
Q 5.609375 61.28125 11.65625 66.578125 
Q 17.71875 71.875 27.9375 71.875 
Q 38.234375 71.875 44.234375 66.15625 
Q 50.25 60.453125 50.25 52 
Q 50.25 47.703125 48.484375 43.546875 
Q 46.734375 39.40625 42.65625 34.8125 
Q 38.578125 30.21875 29.109375 22.21875 
Q 21.1875 15.578125 18.9375 13.203125 
Q 16.703125 10.84375 15.234375 8.453125 
z
" id="ArialMT-50"/>
      </defs>
      <g style="fill:#262626;" transform="translate(437.380937 384.573594)scale(0.11 -0.11)">
       <use xlink:href="#ArialMT-65"/>
       <use x="66.699219" xlink:href="#ArialMT-100"/>
       <use x="122.314453" xlink:href="#ArialMT-117"/>
       <use x="177.929688" xlink:href="#ArialMT-108"/>
       <use x="200.146484" xlink:href="#ArialMT-116"/>
       <use x="227.929688" xlink:href="#ArialMT-32"/>
       <use x="255.712891" xlink:href="#ArialMT-67"/>
       <use x="327.929688" xlink:href="#ArialMT-111"/>
       <use x="383.544922" xlink:href="#ArialMT-110"/>
       <use x="439.160156" xlink:href="#ArialMT-116"/>
       <use x="466.943359" xlink:href="#ArialMT-114"/>
       <use x="500.244141" xlink:href="#ArialMT-111"/>
       <use x="555.859375" xlink:href="#ArialMT-108"/>
       <use x="578.076172" xlink:href="#ArialMT-32"/>
       <use x="605.859375" xlink:href="#ArialMT-50"/>
      </g>
     </g>
    </g>
    <g id="text_6">
     <!-- Group -->
     <defs>
      <path d="M 41.21875 28.078125 
L 41.21875 36.46875 
L 71.53125 36.53125 
L 71.53125 9.96875 
Q 64.546875 4.390625 57.125 1.578125 
Q 49.703125 -1.21875 41.890625 -1.21875 
Q 31.34375 -1.21875 22.71875 3.296875 
Q 14.109375 7.8125 9.71875 16.359375 
Q 5.328125 24.90625 5.328125 35.453125 
Q 5.328125 45.90625 9.6875 54.953125 
Q 14.0625 64.015625 22.265625 68.40625 
Q 30.46875 72.796875 41.15625 72.796875 
Q 48.921875 72.796875 55.1875 70.28125 
Q 61.46875 67.78125 65.03125 63.28125 
Q 68.609375 58.796875 70.453125 51.5625 
L 61.921875 49.21875 
Q 60.296875 54.6875 57.90625 57.8125 
Q 55.515625 60.9375 51.0625 62.8125 
Q 46.625 64.703125 41.21875 64.703125 
Q 34.71875 64.703125 29.984375 62.71875 
Q 25.25 60.75 22.34375 57.515625 
Q 19.4375 54.296875 17.828125 50.4375 
Q 15.09375 43.796875 15.09375 36.03125 
Q 15.09375 26.46875 18.390625 20.015625 
Q 21.6875 13.578125 27.984375 10.453125 
Q 34.28125 7.328125 41.359375 7.328125 
Q 47.515625 7.328125 53.375 9.6875 
Q 59.234375 12.0625 62.25 14.75 
L 62.25 28.078125 
z
" id="ArialMT-71"/>
      <path d="M 6.59375 -19.875 
L 6.59375 51.859375 
L 14.59375 51.859375 
L 14.59375 45.125 
Q 17.4375 49.078125 21 51.046875 
Q 24.5625 53.03125 29.640625 53.03125 
Q 36.28125 53.03125 41.359375 49.609375 
Q 46.4375 46.1875 49.015625 39.953125 
Q 51.609375 33.734375 51.609375 26.3125 
Q 51.609375 18.359375 48.75 11.984375 
Q 45.90625 5.609375 40.453125 2.21875 
Q 35.015625 -1.171875 29 -1.171875 
Q 24.609375 -1.171875 21.109375 0.6875 
Q 17.625 2.546875 15.375 5.375 
L 15.375 -19.875 
z
M 14.546875 25.640625 
Q 14.546875 15.625 18.59375 10.84375 
Q 22.65625 6.0625 28.421875 6.0625 
Q 34.28125 6.0625 38.453125 11.015625 
Q 42.625 15.96875 42.625 26.375 
Q 42.625 36.28125 38.546875 41.203125 
Q 34.46875 46.140625 28.8125 46.140625 
Q 23.1875 46.140625 18.859375 40.890625 
Q 14.546875 35.640625 14.546875 25.640625 
z
" id="ArialMT-112"/>
     </defs>
     <g style="fill:#262626;" transform="translate(278.525625 399.495469)scale(0.12 -0.12)">
      <use xlink:href="#ArialMT-71"/>
      <use x="77.783203" xlink:href="#ArialMT-114"/>
      <use x="111.083984" xlink:href="#ArialMT-111"/>
      <use x="166.699219" xlink:href="#ArialMT-117"/>
      <use x="222.314453" xlink:href="#ArialMT-112"/>
     </g>
    </g>
   </g>
   <g id="matplotlib.axis_2">
    <g id="ytick_1">
     <g id="line2d_1">
      <path clip-path="url(#p72669fc11a)" d="M 72 367.2 
L 518.4 367.2 
" style="fill:none;stroke:#ffffff;stroke-linecap:round;"/>
     </g>
     <g id="text_7">
      <!-- 0.0 -->
      <defs>
       <path d="M 4.15625 35.296875 
Q 4.15625 48 6.765625 55.734375 
Q 9.375 63.484375 14.515625 67.671875 
Q 19.671875 71.875 27.484375 71.875 
Q 33.25 71.875 37.59375 69.546875 
Q 41.9375 67.234375 44.765625 62.859375 
Q 47.609375 58.5 49.21875 52.21875 
Q 50.828125 45.953125 50.828125 35.296875 
Q 50.828125 22.703125 48.234375 14.96875 
Q 45.65625 7.234375 40.5 3 
Q 35.359375 -1.21875 27.484375 -1.21875 
Q 17.140625 -1.21875 11.234375 6.203125 
Q 4.15625 15.140625 4.15625 35.296875 
z
M 13.1875 35.296875 
Q 13.1875 17.671875 17.3125 11.828125 
Q 21.4375 6 27.484375 6 
Q 33.546875 6 37.671875 11.859375 
Q 41.796875 17.71875 41.796875 35.296875 
Q 41.796875 52.984375 37.671875 58.78125 
Q 33.546875 64.59375 27.390625 64.59375 
Q 21.34375 64.59375 17.71875 59.46875 
Q 13.1875 52.9375 13.1875 35.296875 
z
" id="ArialMT-48"/>
       <path d="M 9.078125 0 
L 9.078125 10.015625 
L 19.09375 10.015625 
L 19.09375 0 
z
" id="ArialMT-46"/>
      </defs>
      <g style="fill:#262626;" transform="translate(47.21 371.136797)scale(0.11 -0.11)">
       <use xlink:href="#ArialMT-48"/>
       <use x="55.615234" xlink:href="#ArialMT-46"/>
       <use x="83.398438" xlink:href="#ArialMT-48"/>
      </g>
     </g>
    </g>
    <g id="ytick_2">
     <g id="line2d_2">
      <path clip-path="url(#p72669fc11a)" d="M 72 304.128 
L 518.4 304.128 
" style="fill:none;stroke:#ffffff;stroke-linecap:round;"/>
     </g>
     <g id="text_8">
      <!-- 0.2 -->
      <g style="fill:#262626;" transform="translate(47.21 308.064797)scale(0.11 -0.11)">
       <use xlink:href="#ArialMT-48"/>
       <use x="55.615234" xlink:href="#ArialMT-46"/>
       <use x="83.398438" xlink:href="#ArialMT-50"/>
      </g>
     </g>
    </g>
    <g id="ytick_3">
     <g id="line2d_3">
      <path clip-path="url(#p72669fc11a)" d="M 72 241.056 
L 518.4 241.056 
" style="fill:none;stroke:#ffffff;stroke-linecap:round;"/>
     </g>
     <g id="text_9">
      <!-- 0.4 -->
      <defs>
       <path d="M 32.328125 0 
L 32.328125 17.140625 
L 1.265625 17.140625 
L 1.265625 25.203125 
L 33.9375 71.578125 
L 41.109375 71.578125 
L 41.109375 25.203125 
L 50.78125 25.203125 
L 50.78125 17.140625 
L 41.109375 17.140625 
L 41.109375 0 
z
M 32.328125 25.203125 
L 32.328125 57.46875 
L 9.90625 25.203125 
z
" id="ArialMT-52"/>
      </defs>
      <g style="fill:#262626;" transform="translate(47.21 244.992797)scale(0.11 -0.11)">
       <use xlink:href="#ArialMT-48"/>
       <use x="55.615234" xlink:href="#ArialMT-46"/>
       <use x="83.398438" xlink:href="#ArialMT-52"/>
      </g>
     </g>
    </g>
    <g id="ytick_4">
     <g id="line2d_4">
      <path clip-path="url(#p72669fc11a)" d="M 72 177.984 
L 518.4 177.984 
" style="fill:none;stroke:#ffffff;stroke-linecap:round;"/>
     </g>
     <g id="text_10">
      <!-- 0.6 -->
      <defs>
       <path d="M 49.75 54.046875 
L 41.015625 53.375 
Q 39.84375 58.546875 37.703125 60.890625 
Q 34.125 64.65625 28.90625 64.65625 
Q 24.703125 64.65625 21.53125 62.3125 
Q 17.390625 59.28125 14.984375 53.46875 
Q 12.59375 47.65625 12.5 36.921875 
Q 15.671875 41.75 20.265625 44.09375 
Q 24.859375 46.4375 29.890625 46.4375 
Q 38.671875 46.4375 44.84375 39.96875 
Q 51.03125 33.5 51.03125 23.25 
Q 51.03125 16.5 48.125 10.71875 
Q 45.21875 4.9375 40.140625 1.859375 
Q 35.0625 -1.21875 28.609375 -1.21875 
Q 17.625 -1.21875 10.6875 6.859375 
Q 3.765625 14.9375 3.765625 33.5 
Q 3.765625 54.25 11.421875 63.671875 
Q 18.109375 71.875 29.4375 71.875 
Q 37.890625 71.875 43.28125 67.140625 
Q 48.6875 62.40625 49.75 54.046875 
z
M 13.875 23.1875 
Q 13.875 18.65625 15.796875 14.5 
Q 17.71875 10.359375 21.1875 8.171875 
Q 24.65625 6 28.46875 6 
Q 34.03125 6 38.03125 10.484375 
Q 42.046875 14.984375 42.046875 22.703125 
Q 42.046875 30.125 38.078125 34.390625 
Q 34.125 38.671875 28.125 38.671875 
Q 22.171875 38.671875 18.015625 34.390625 
Q 13.875 30.125 13.875 23.1875 
z
" id="ArialMT-54"/>
      </defs>
      <g style="fill:#262626;" transform="translate(47.21 181.920797)scale(0.11 -0.11)">
       <use xlink:href="#ArialMT-48"/>
       <use x="55.615234" xlink:href="#ArialMT-46"/>
       <use x="83.398438" xlink:href="#ArialMT-54"/>
      </g>
     </g>
    </g>
    <g id="ytick_5">
     <g id="line2d_5">
      <path clip-path="url(#p72669fc11a)" d="M 72 114.912 
L 518.4 114.912 
" style="fill:none;stroke:#ffffff;stroke-linecap:round;"/>
     </g>
     <g id="text_11">
      <!-- 0.8 -->
      <defs>
       <path d="M 17.671875 38.8125 
Q 12.203125 40.828125 9.5625 44.53125 
Q 6.9375 48.25 6.9375 53.421875 
Q 6.9375 61.234375 12.546875 66.546875 
Q 18.171875 71.875 27.484375 71.875 
Q 36.859375 71.875 42.578125 66.421875 
Q 48.296875 60.984375 48.296875 53.171875 
Q 48.296875 48.1875 45.671875 44.5 
Q 43.0625 40.828125 37.75 38.8125 
Q 44.34375 36.671875 47.78125 31.875 
Q 51.21875 27.09375 51.21875 20.453125 
Q 51.21875 11.28125 44.71875 5.03125 
Q 38.234375 -1.21875 27.640625 -1.21875 
Q 17.046875 -1.21875 10.546875 5.046875 
Q 4.046875 11.328125 4.046875 20.703125 
Q 4.046875 27.6875 7.59375 32.390625 
Q 11.140625 37.109375 17.671875 38.8125 
z
M 15.921875 53.71875 
Q 15.921875 48.640625 19.1875 45.40625 
Q 22.46875 42.1875 27.6875 42.1875 
Q 32.765625 42.1875 36.015625 45.375 
Q 39.265625 48.578125 39.265625 53.21875 
Q 39.265625 58.0625 35.90625 61.359375 
Q 32.5625 64.65625 27.59375 64.65625 
Q 22.5625 64.65625 19.234375 61.421875 
Q 15.921875 58.203125 15.921875 53.71875 
z
M 13.09375 20.65625 
Q 13.09375 16.890625 14.875 13.375 
Q 16.65625 9.859375 20.171875 7.921875 
Q 23.6875 6 27.734375 6 
Q 34.03125 6 38.125 10.046875 
Q 42.234375 14.109375 42.234375 20.359375 
Q 42.234375 26.703125 38.015625 30.859375 
Q 33.796875 35.015625 27.4375 35.015625 
Q 21.234375 35.015625 17.15625 30.90625 
Q 13.09375 26.8125 13.09375 20.65625 
z
" id="ArialMT-56"/>
      </defs>
      <g style="fill:#262626;" transform="translate(47.21 118.848797)scale(0.11 -0.11)">
       <use xlink:href="#ArialMT-48"/>
       <use x="55.615234" xlink:href="#ArialMT-46"/>
       <use x="83.398438" xlink:href="#ArialMT-56"/>
      </g>
     </g>
    </g>
    <g id="ytick_6">
     <g id="line2d_6">
      <path clip-path="url(#p72669fc11a)" d="M 72 51.84 
L 518.4 51.84 
" style="fill:none;stroke:#ffffff;stroke-linecap:round;"/>
     </g>
     <g id="text_12">
      <!-- 1.0 -->
      <g style="fill:#262626;" transform="translate(47.21 55.776797)scale(0.11 -0.11)">
       <use xlink:href="#ArialMT-49"/>
       <use x="55.615234" xlink:href="#ArialMT-46"/>
       <use x="83.398438" xlink:href="#ArialMT-48"/>
      </g>
     </g>
    </g>
    <g id="text_13">
     <!-- Values -->
     <defs>
      <path d="M 28.171875 0 
L 0.4375 71.578125 
L 10.6875 71.578125 
L 29.296875 19.578125 
Q 31.546875 13.328125 33.0625 7.859375 
Q 34.71875 13.71875 36.921875 19.578125 
L 56.25 71.578125 
L 65.921875 71.578125 
L 37.890625 0 
z
" id="ArialMT-86"/>
      <path d="M 40.4375 6.390625 
Q 35.546875 2.25 31.03125 0.53125 
Q 26.515625 -1.171875 21.34375 -1.171875 
Q 12.796875 -1.171875 8.203125 3 
Q 3.609375 7.171875 3.609375 13.671875 
Q 3.609375 17.484375 5.34375 20.625 
Q 7.078125 23.78125 9.890625 25.6875 
Q 12.703125 27.59375 16.21875 28.5625 
Q 18.796875 29.25 24.03125 29.890625 
Q 34.671875 31.15625 39.703125 32.90625 
Q 39.75 34.71875 39.75 35.203125 
Q 39.75 40.578125 37.25 42.78125 
Q 33.890625 45.75 27.25 45.75 
Q 21.046875 45.75 18.09375 43.578125 
Q 15.140625 41.40625 13.71875 35.890625 
L 5.125 37.0625 
Q 6.296875 42.578125 8.984375 45.96875 
Q 11.671875 49.359375 16.75 51.1875 
Q 21.828125 53.03125 28.515625 53.03125 
Q 35.15625 53.03125 39.296875 51.46875 
Q 43.453125 49.90625 45.40625 47.53125 
Q 47.359375 45.171875 48.140625 41.546875 
Q 48.578125 39.3125 48.578125 33.453125 
L 48.578125 21.734375 
Q 48.578125 9.46875 49.140625 6.21875 
Q 49.703125 2.984375 51.375 0 
L 42.1875 0 
Q 40.828125 2.734375 40.4375 6.390625 
z
M 39.703125 26.03125 
Q 34.90625 24.078125 25.34375 22.703125 
Q 19.921875 21.921875 17.671875 20.9375 
Q 15.4375 19.96875 14.203125 18.09375 
Q 12.984375 16.21875 12.984375 13.921875 
Q 12.984375 10.40625 15.640625 8.0625 
Q 18.3125 5.71875 23.4375 5.71875 
Q 28.515625 5.71875 32.46875 7.9375 
Q 36.421875 10.15625 38.28125 14.015625 
Q 39.703125 17 39.703125 22.796875 
z
" id="ArialMT-97"/>
      <path d="M 42.09375 16.703125 
L 51.171875 15.578125 
Q 49.03125 7.625 43.21875 3.21875 
Q 37.40625 -1.171875 28.375 -1.171875 
Q 17 -1.171875 10.328125 5.828125 
Q 3.65625 12.84375 3.65625 25.484375 
Q 3.65625 38.578125 10.390625 45.796875 
Q 17.140625 53.03125 27.875 53.03125 
Q 38.28125 53.03125 44.875 45.953125 
Q 51.46875 38.875 51.46875 26.03125 
Q 51.46875 25.25 51.421875 23.6875 
L 12.75 23.6875 
Q 13.234375 15.140625 17.578125 10.59375 
Q 21.921875 6.0625 28.421875 6.0625 
Q 33.25 6.0625 36.671875 8.59375 
Q 40.09375 11.140625 42.09375 16.703125 
z
M 13.234375 30.90625 
L 42.1875 30.90625 
Q 41.609375 37.453125 38.875 40.71875 
Q 34.671875 45.796875 27.984375 45.796875 
Q 21.921875 45.796875 17.796875 41.75 
Q 13.671875 37.703125 13.234375 30.90625 
z
" id="ArialMT-101"/>
      <path d="M 3.078125 15.484375 
L 11.765625 16.84375 
Q 12.5 11.625 15.84375 8.84375 
Q 19.1875 6.0625 25.203125 6.0625 
Q 31.25 6.0625 34.171875 8.515625 
Q 37.109375 10.984375 37.109375 14.3125 
Q 37.109375 17.28125 34.515625 19 
Q 32.71875 20.171875 25.53125 21.96875 
Q 15.875 24.421875 12.140625 26.203125 
Q 8.40625 27.984375 6.46875 31.125 
Q 4.546875 34.28125 4.546875 38.09375 
Q 4.546875 41.546875 6.125 44.5 
Q 7.71875 47.46875 10.453125 49.421875 
Q 12.5 50.921875 16.03125 51.96875 
Q 19.578125 53.03125 23.640625 53.03125 
Q 29.734375 53.03125 34.34375 51.265625 
Q 38.96875 49.515625 41.15625 46.5 
Q 43.359375 43.5 44.1875 38.484375 
L 35.59375 37.3125 
Q 35.015625 41.3125 32.203125 43.546875 
Q 29.390625 45.796875 24.265625 45.796875 
Q 18.21875 45.796875 15.625 43.796875 
Q 13.03125 41.796875 13.03125 39.109375 
Q 13.03125 37.40625 14.109375 36.03125 
Q 15.1875 34.625 17.484375 33.6875 
Q 18.796875 33.203125 25.25 31.453125 
Q 34.578125 28.953125 38.25 27.359375 
Q 41.9375 25.78125 44.03125 22.75 
Q 46.140625 19.734375 46.140625 15.234375 
Q 46.140625 10.84375 43.578125 6.953125 
Q 41.015625 3.078125 36.171875 0.953125 
Q 31.34375 -1.171875 25.25 -1.171875 
Q 15.140625 -1.171875 9.84375 3.03125 
Q 4.546875 7.234375 3.078125 15.484375 
z
" id="ArialMT-115"/>
     </defs>
     <g style="fill:#262626;" transform="translate(40.825 227.858437)rotate(-90)scale(0.12 -0.12)">
      <use xlink:href="#ArialMT-86"/>
      <use x="66.589844" xlink:href="#ArialMT-97"/>
      <use x="122.205078" xlink:href="#ArialMT-108"/>
      <use x="144.421875" xlink:href="#ArialMT-117"/>
      <use x="200.037109" xlink:href="#ArialMT-101"/>
      <use x="255.652344" xlink:href="#ArialMT-115"/>
     </g>
    </g>
   </g>
   <g id="patch_3">
    <path clip-path="url(#p72669fc11a)" d="M 81.16608 120.885271 
L 104.49792 120.885271 
L 104.49792 79.603419 
L 81.16608 79.603419 
L 81.16608 120.885271 
z
" style="fill:#176d9c;stroke:#303030;stroke-linejoin:miter;"/>
   </g>
   <g id="patch_4">
    <path clip-path="url(#p72669fc11a)" d="M 104.97408 156.770055 
L 128.30592 156.770055 
L 128.30592 78.357962 
L 104.97408 78.357962 
L 104.97408 156.770055 
z
" style="fill:#c38820;stroke:#303030;stroke-linejoin:miter;"/>
   </g>
   <g id="patch_5">
    <path clip-path="url(#p72669fc11a)" d="M 128.78208 90.544005 
L 152.11392 90.544005 
L 152.11392 71.533175 
L 128.78208 71.533175 
L 128.78208 90.544005 
z
" style="fill:#158b6a;stroke:#303030;stroke-linejoin:miter;"/>
   </g>
   <g id="patch_6">
    <path clip-path="url(#p72669fc11a)" d="M 170.44608 130.284302 
L 193.77792 130.284302 
L 193.77792 91.307474 
L 170.44608 91.307474 
L 170.44608 130.284302 
z
" style="fill:#176d9c;stroke:#303030;stroke-linejoin:miter;"/>
   </g>
   <g id="patch_7">
    <path clip-path="url(#p72669fc11a)" d="M 194.25408 165.271292 
L 217.58592 165.271292 
L 217.58592 106.236952 
L 194.25408 106.236952 
L 194.25408 165.271292 
z
" style="fill:#c38820;stroke:#303030;stroke-linejoin:miter;"/>
   </g>
   <g id="patch_8">
    <path clip-path="url(#p72669fc11a)" d="M 218.06208 96.919559 
L 241.39392 96.919559 
L 241.39392 75.997268 
L 218.06208 75.997268 
L 218.06208 96.919559 
z
" style="fill:#158b6a;stroke:#303030;stroke-linejoin:miter;"/>
   </g>
   <g id="patch_9">
    <path clip-path="url(#p72669fc11a)" d="M 259.72608 89.896572 
L 283.05792 89.896572 
L 283.05792 71.705286 
L 259.72608 71.705286 
L 259.72608 89.896572 
z
" style="fill:#176d9c;stroke:#303030;stroke-linejoin:miter;"/>
   </g>
   <g id="patch_10">
    <path clip-path="url(#p72669fc11a)" d="M 283.53408 102.885732 
L 306.86592 102.885732 
L 306.86592 67.631145 
L 283.53408 67.631145 
L 283.53408 102.885732 
z
" style="fill:#c38820;stroke:#303030;stroke-linejoin:miter;"/>
   </g>
   <g id="patch_11">
    <path clip-path="url(#p72669fc11a)" d="M 307.34208 71.497295 
L 330.67392 71.497295 
L 330.67392 63.375435 
L 307.34208 63.375435 
L 307.34208 71.497295 
z
" style="fill:#158b6a;stroke:#303030;stroke-linejoin:miter;"/>
   </g>
   <g id="patch_12">
    <path clip-path="url(#p72669fc11a)" d="M 349.00608 78.715043 
L 372.33792 78.715043 
L 372.33792 63.5432 
L 349.00608 63.5432 
L 349.00608 78.715043 
z
" style="fill:#176d9c;stroke:#303030;stroke-linejoin:miter;"/>
   </g>
   <g id="patch_13">
    <path clip-path="url(#p72669fc11a)" d="M 372.81408 78.108338 
L 396.14592 78.108338 
L 396.14592 69.272065 
L 372.81408 69.272065 
L 372.81408 78.108338 
z
" style="fill:#c38820;stroke:#303030;stroke-linejoin:miter;"/>
   </g>
   <g id="patch_14">
    <path clip-path="url(#p72669fc11a)" d="M 396.62208 69.68839 
L 419.95392 69.68839 
L 419.95392 58.985145 
L 396.62208 58.985145 
L 396.62208 69.68839 
z
" style="fill:#158b6a;stroke:#303030;stroke-linejoin:miter;"/>
   </g>
   <g id="patch_15">
    <path clip-path="url(#p72669fc11a)" d="M 438.28608 77.997185 
L 461.61792 77.997185 
L 461.61792 61.749105 
L 438.28608 61.749105 
L 438.28608 77.997185 
z
" style="fill:#176d9c;stroke:#303030;stroke-linejoin:miter;"/>
   </g>
   <g id="patch_16">
    <path clip-path="url(#p72669fc11a)" d="M 462.09408 78.433174 
L 485.42592 78.433174 
L 485.42592 64.416137 
L 462.09408 64.416137 
L 462.09408 78.433174 
z
" style="fill:#c38820;stroke:#303030;stroke-linejoin:miter;"/>
   </g>
   <g id="patch_17">
    <path clip-path="url(#p72669fc11a)" d="M 485.90208 68.181084 
L 509.23392 68.181084 
L 509.23392 58.695299 
L 485.90208 58.695299 
L 485.90208 68.181084 
z
" style="fill:#158b6a;stroke:#303030;stroke-linejoin:miter;"/>
   </g>
   <g id="PathCollection_1"/>
   <g id="PathCollection_2"/>
   <g id="PathCollection_3"/>
   <g id="patch_18">
    <path clip-path="url(#p72669fc11a)" d="M 116.64 367.2 
L 116.64 367.2 
L 116.64 367.2 
L 116.64 367.2 
z
" style="fill:#176d9c;stroke:#303030;stroke-linejoin:miter;stroke-width:0.5;"/>
   </g>
   <g id="patch_19">
    <path clip-path="url(#p72669fc11a)" d="M 116.64 367.2 
L 116.64 367.2 
L 116.64 367.2 
L 116.64 367.2 
z
" style="fill:#c38820;stroke:#303030;stroke-linejoin:miter;stroke-width:0.5;"/>
   </g>
   <g id="patch_20">
    <path clip-path="url(#p72669fc11a)" d="M 116.64 367.2 
L 116.64 367.2 
L 116.64 367.2 
L 116.64 367.2 
z
" style="fill:#158b6a;stroke:#303030;stroke-linejoin:miter;stroke-width:0.5;"/>
   </g>
   <g id="line2d_7">
    <path clip-path="url(#p72669fc11a)" d="M 92.832 120.885271 
L 92.832 159.838116 
" style="fill:none;stroke:#303030;stroke-linecap:round;"/>
   </g>
   <g id="line2d_8">
    <path clip-path="url(#p72669fc11a)" d="M 92.832 79.603419 
L 92.832 56.12267 
" style="fill:none;stroke:#303030;stroke-linecap:round;"/>
   </g>
   <g id="line2d_9">
    <path clip-path="url(#p72669fc11a)" d="M 86.99904 159.838116 
L 98.66496 159.838116 
" style="fill:none;stroke:#303030;stroke-linecap:round;"/>
   </g>
   <g id="line2d_10">
    <path clip-path="url(#p72669fc11a)" d="M 86.99904 56.12267 
L 98.66496 56.12267 
" style="fill:none;stroke:#303030;stroke-linecap:round;"/>
   </g>
   <g id="line2d_11">
    <path clip-path="url(#p72669fc11a)" d="M 116.64 156.770055 
L 116.64 208.618011 
" style="fill:none;stroke:#303030;stroke-linecap:round;"/>
   </g>
   <g id="line2d_12">
    <path clip-path="url(#p72669fc11a)" d="M 116.64 78.357962 
L 116.64 55.168943 
" style="fill:none;stroke:#303030;stroke-linecap:round;"/>
   </g>
   <g id="line2d_13">
    <path clip-path="url(#p72669fc11a)" d="M 110.80704 208.618011 
L 122.47296 208.618011 
" style="fill:none;stroke:#303030;stroke-linecap:round;"/>
   </g>
   <g id="line2d_14">
    <path clip-path="url(#p72669fc11a)" d="M 110.80704 55.168943 
L 122.47296 55.168943 
" style="fill:none;stroke:#303030;stroke-linecap:round;"/>
   </g>
   <g id="line2d_15">
    <path clip-path="url(#p72669fc11a)" d="M 140.448 90.544005 
L 140.448 113.813348 
" style="fill:none;stroke:#303030;stroke-linecap:round;"/>
   </g>
   <g id="line2d_16">
    <path clip-path="url(#p72669fc11a)" d="M 140.448 71.533175 
L 140.448 56.380588 
" style="fill:none;stroke:#303030;stroke-linecap:round;"/>
   </g>
   <g id="line2d_17">
    <path clip-path="url(#p72669fc11a)" d="M 134.61504 113.813348 
L 146.28096 113.813348 
" style="fill:none;stroke:#303030;stroke-linecap:round;"/>
   </g>
   <g id="line2d_18">
    <path clip-path="url(#p72669fc11a)" d="M 134.61504 56.380588 
L 146.28096 56.380588 
" style="fill:none;stroke:#303030;stroke-linecap:round;"/>
   </g>
   <g id="line2d_19">
    <path clip-path="url(#p72669fc11a)" d="M 182.112 130.284302 
L 182.112 158.708227 
" style="fill:none;stroke:#303030;stroke-linecap:round;"/>
   </g>
   <g id="line2d_20">
    <path clip-path="url(#p72669fc11a)" d="M 182.112 91.307474 
L 182.112 73.672954 
" style="fill:none;stroke:#303030;stroke-linecap:round;"/>
   </g>
   <g id="line2d_21">
    <path clip-path="url(#p72669fc11a)" d="M 176.27904 158.708227 
L 187.94496 158.708227 
" style="fill:none;stroke:#303030;stroke-linecap:round;"/>
   </g>
   <g id="line2d_22">
    <path clip-path="url(#p72669fc11a)" d="M 176.27904 73.672954 
L 187.94496 73.672954 
" style="fill:none;stroke:#303030;stroke-linecap:round;"/>
   </g>
   <g id="line2d_23">
    <path clip-path="url(#p72669fc11a)" d="M 205.92 165.271292 
L 205.92 232.460326 
" style="fill:none;stroke:#303030;stroke-linecap:round;"/>
   </g>
   <g id="line2d_24">
    <path clip-path="url(#p72669fc11a)" d="M 205.92 106.236952 
L 205.92 77.386708 
" style="fill:none;stroke:#303030;stroke-linecap:round;"/>
   </g>
   <g id="line2d_25">
    <path clip-path="url(#p72669fc11a)" d="M 200.08704 232.460326 
L 211.75296 232.460326 
" style="fill:none;stroke:#303030;stroke-linecap:round;"/>
   </g>
   <g id="line2d_26">
    <path clip-path="url(#p72669fc11a)" d="M 200.08704 77.386708 
L 211.75296 77.386708 
" style="fill:none;stroke:#303030;stroke-linecap:round;"/>
   </g>
   <g id="line2d_27">
    <path clip-path="url(#p72669fc11a)" d="M 229.728 96.919559 
L 229.728 117.937473 
" style="fill:none;stroke:#303030;stroke-linecap:round;"/>
   </g>
   <g id="line2d_28">
    <path clip-path="url(#p72669fc11a)" d="M 229.728 75.997268 
L 229.728 66.133248 
" style="fill:none;stroke:#303030;stroke-linecap:round;"/>
   </g>
   <g id="line2d_29">
    <path clip-path="url(#p72669fc11a)" d="M 223.89504 117.937473 
L 235.56096 117.937473 
" style="fill:none;stroke:#303030;stroke-linecap:round;"/>
   </g>
   <g id="line2d_30">
    <path clip-path="url(#p72669fc11a)" d="M 223.89504 66.133248 
L 235.56096 66.133248 
" style="fill:none;stroke:#303030;stroke-linecap:round;"/>
   </g>
   <g id="line2d_31">
    <path clip-path="url(#p72669fc11a)" d="M 271.392 89.896572 
L 271.392 97.772632 
" style="fill:none;stroke:#303030;stroke-linecap:round;"/>
   </g>
   <g id="line2d_32">
    <path clip-path="url(#p72669fc11a)" d="M 271.392 71.705286 
L 271.392 56.995745 
" style="fill:none;stroke:#303030;stroke-linecap:round;"/>
   </g>
   <g id="line2d_33">
    <path clip-path="url(#p72669fc11a)" d="M 265.55904 97.772632 
L 277.22496 97.772632 
" style="fill:none;stroke:#303030;stroke-linecap:round;"/>
   </g>
   <g id="line2d_34">
    <path clip-path="url(#p72669fc11a)" d="M 265.55904 56.995745 
L 277.22496 56.995745 
" style="fill:none;stroke:#303030;stroke-linecap:round;"/>
   </g>
   <g id="line2d_35">
    <path clip-path="url(#p72669fc11a)" d="M 295.2 102.885732 
L 295.2 153.603505 
" style="fill:none;stroke:#303030;stroke-linecap:round;"/>
   </g>
   <g id="line2d_36">
    <path clip-path="url(#p72669fc11a)" d="M 295.2 67.631145 
L 295.2 63.853077 
" style="fill:none;stroke:#303030;stroke-linecap:round;"/>
   </g>
   <g id="line2d_37">
    <path clip-path="url(#p72669fc11a)" d="M 289.36704 153.603505 
L 301.03296 153.603505 
" style="fill:none;stroke:#303030;stroke-linecap:round;"/>
   </g>
   <g id="line2d_38">
    <path clip-path="url(#p72669fc11a)" d="M 289.36704 63.853077 
L 301.03296 63.853077 
" style="fill:none;stroke:#303030;stroke-linecap:round;"/>
   </g>
   <g id="line2d_39">
    <path clip-path="url(#p72669fc11a)" d="M 319.008 71.497295 
L 319.008 80.15617 
" style="fill:none;stroke:#303030;stroke-linecap:round;"/>
   </g>
   <g id="line2d_40">
    <path clip-path="url(#p72669fc11a)" d="M 319.008 63.375435 
L 319.008 57.034743 
" style="fill:none;stroke:#303030;stroke-linecap:round;"/>
   </g>
   <g id="line2d_41">
    <path clip-path="url(#p72669fc11a)" d="M 313.17504 80.15617 
L 324.84096 80.15617 
" style="fill:none;stroke:#303030;stroke-linecap:round;"/>
   </g>
   <g id="line2d_42">
    <path clip-path="url(#p72669fc11a)" d="M 313.17504 57.034743 
L 324.84096 57.034743 
" style="fill:none;stroke:#303030;stroke-linecap:round;"/>
   </g>
   <g id="line2d_43">
    <path clip-path="url(#p72669fc11a)" d="M 360.672 78.715043 
L 360.672 96.778839 
" style="fill:none;stroke:#303030;stroke-linecap:round;"/>
   </g>
   <g id="line2d_44">
    <path clip-path="url(#p72669fc11a)" d="M 360.672 63.5432 
L 360.672 56.672641 
" style="fill:none;stroke:#303030;stroke-linecap:round;"/>
   </g>
   <g id="line2d_45">
    <path clip-path="url(#p72669fc11a)" d="M 354.83904 96.778839 
L 366.50496 96.778839 
" style="fill:none;stroke:#303030;stroke-linecap:round;"/>
   </g>
   <g id="line2d_46">
    <path clip-path="url(#p72669fc11a)" d="M 354.83904 56.672641 
L 366.50496 56.672641 
" style="fill:none;stroke:#303030;stroke-linecap:round;"/>
   </g>
   <g id="line2d_47">
    <path clip-path="url(#p72669fc11a)" d="M 384.48 78.108338 
L 384.48 81.150807 
" style="fill:none;stroke:#303030;stroke-linecap:round;"/>
   </g>
   <g id="line2d_48">
    <path clip-path="url(#p72669fc11a)" d="M 384.48 69.272065 
L 384.48 57.49534 
" style="fill:none;stroke:#303030;stroke-linecap:round;"/>
   </g>
   <g id="line2d_49">
    <path clip-path="url(#p72669fc11a)" d="M 378.64704 81.150807 
L 390.31296 81.150807 
" style="fill:none;stroke:#303030;stroke-linecap:round;"/>
   </g>
   <g id="line2d_50">
    <path clip-path="url(#p72669fc11a)" d="M 378.64704 57.49534 
L 390.31296 57.49534 
" style="fill:none;stroke:#303030;stroke-linecap:round;"/>
   </g>
   <g id="line2d_51">
    <path clip-path="url(#p72669fc11a)" d="M 408.288 69.68839 
L 408.288 77.550596 
" style="fill:none;stroke:#303030;stroke-linecap:round;"/>
   </g>
   <g id="line2d_52">
    <path clip-path="url(#p72669fc11a)" d="M 408.288 58.985145 
L 408.288 56.200192 
" style="fill:none;stroke:#303030;stroke-linecap:round;"/>
   </g>
   <g id="line2d_53">
    <path clip-path="url(#p72669fc11a)" d="M 402.45504 77.550596 
L 414.12096 77.550596 
" style="fill:none;stroke:#303030;stroke-linecap:round;"/>
   </g>
   <g id="line2d_54">
    <path clip-path="url(#p72669fc11a)" d="M 402.45504 56.200192 
L 414.12096 56.200192 
" style="fill:none;stroke:#303030;stroke-linecap:round;"/>
   </g>
   <g id="line2d_55">
    <path clip-path="url(#p72669fc11a)" d="M 449.952 77.997185 
L 449.952 89.020311 
" style="fill:none;stroke:#303030;stroke-linecap:round;"/>
   </g>
   <g id="line2d_56">
    <path clip-path="url(#p72669fc11a)" d="M 449.952 61.749105 
L 449.952 57.232737 
" style="fill:none;stroke:#303030;stroke-linecap:round;"/>
   </g>
   <g id="line2d_57">
    <path clip-path="url(#p72669fc11a)" d="M 444.11904 89.020311 
L 455.78496 89.020311 
" style="fill:none;stroke:#303030;stroke-linecap:round;"/>
   </g>
   <g id="line2d_58">
    <path clip-path="url(#p72669fc11a)" d="M 444.11904 57.232737 
L 455.78496 57.232737 
" style="fill:none;stroke:#303030;stroke-linecap:round;"/>
   </g>
   <g id="line2d_59">
    <path clip-path="url(#p72669fc11a)" d="M 473.76 78.433174 
L 473.76 98.788545 
" style="fill:none;stroke:#303030;stroke-linecap:round;"/>
   </g>
   <g id="line2d_60">
    <path clip-path="url(#p72669fc11a)" d="M 473.76 64.416137 
L 473.76 58.888058 
" style="fill:none;stroke:#303030;stroke-linecap:round;"/>
   </g>
   <g id="line2d_61">
    <path clip-path="url(#p72669fc11a)" d="M 467.92704 98.788545 
L 479.59296 98.788545 
" style="fill:none;stroke:#303030;stroke-linecap:round;"/>
   </g>
   <g id="line2d_62">
    <path clip-path="url(#p72669fc11a)" d="M 467.92704 58.888058 
L 479.59296 58.888058 
" style="fill:none;stroke:#303030;stroke-linecap:round;"/>
   </g>
   <g id="line2d_63">
    <path clip-path="url(#p72669fc11a)" d="M 497.568 68.181084 
L 497.568 74.015639 
" style="fill:none;stroke:#303030;stroke-linecap:round;"/>
   </g>
   <g id="line2d_64">
    <path clip-path="url(#p72669fc11a)" d="M 497.568 58.695299 
L 497.568 58.300912 
" style="fill:none;stroke:#303030;stroke-linecap:round;"/>
   </g>
   <g id="line2d_65">
    <path clip-path="url(#p72669fc11a)" d="M 491.73504 74.015639 
L 503.40096 74.015639 
" style="fill:none;stroke:#303030;stroke-linecap:round;"/>
   </g>
   <g id="line2d_66">
    <path clip-path="url(#p72669fc11a)" d="M 491.73504 58.300912 
L 503.40096 58.300912 
" style="fill:none;stroke:#303030;stroke-linecap:round;"/>
   </g>
   <g id="line2d_67">
    <path clip-path="url(#p72669fc11a)" d="M 81.16608 97.856496 
L 104.49792 97.856496 
" style="fill:none;stroke:#303030;stroke-linecap:round;"/>
   </g>
   <g id="line2d_68">
    <path clip-path="url(#p72669fc11a)" d="M 104.97408 101.930759 
L 128.30592 101.930759 
" style="fill:none;stroke:#303030;stroke-linecap:round;"/>
   </g>
   <g id="line2d_69">
    <path clip-path="url(#p72669fc11a)" d="M 128.78208 81.76223 
L 152.11392 81.76223 
" style="fill:none;stroke:#303030;stroke-linecap:round;"/>
   </g>
   <g id="line2d_70">
    <path clip-path="url(#p72669fc11a)" d="M 170.44608 113.40354 
L 193.77792 113.40354 
" style="fill:none;stroke:#303030;stroke-linecap:round;"/>
   </g>
   <g id="line2d_71">
    <path clip-path="url(#p72669fc11a)" d="M 194.25408 139.439832 
L 217.58592 139.439832 
" style="fill:none;stroke:#303030;stroke-linecap:round;"/>
   </g>
   <g id="line2d_72">
    <path clip-path="url(#p72669fc11a)" d="M 218.06208 81.547499 
L 241.39392 81.547499 
" style="fill:none;stroke:#303030;stroke-linecap:round;"/>
   </g>
   <g id="line2d_73">
    <path clip-path="url(#p72669fc11a)" d="M 259.72608 83.422074 
L 283.05792 83.422074 
" style="fill:none;stroke:#303030;stroke-linecap:round;"/>
   </g>
   <g id="line2d_74">
    <path clip-path="url(#p72669fc11a)" d="M 283.53408 86.593709 
L 306.86592 86.593709 
" style="fill:none;stroke:#303030;stroke-linecap:round;"/>
   </g>
   <g id="line2d_75">
    <path clip-path="url(#p72669fc11a)" d="M 307.34208 65.155864 
L 330.67392 65.155864 
" style="fill:none;stroke:#303030;stroke-linecap:round;"/>
   </g>
   <g id="line2d_76">
    <path clip-path="url(#p72669fc11a)" d="M 349.00608 69.464461 
L 372.33792 69.464461 
" style="fill:none;stroke:#303030;stroke-linecap:round;"/>
   </g>
   <g id="line2d_77">
    <path clip-path="url(#p72669fc11a)" d="M 372.81408 74.604425 
L 396.14592 74.604425 
" style="fill:none;stroke:#303030;stroke-linecap:round;"/>
   </g>
   <g id="line2d_78">
    <path clip-path="url(#p72669fc11a)" d="M 396.62208 62.479154 
L 419.95392 62.479154 
" style="fill:none;stroke:#303030;stroke-linecap:round;"/>
   </g>
   <g id="line2d_79">
    <path clip-path="url(#p72669fc11a)" d="M 438.28608 72.688874 
L 461.61792 72.688874 
" style="fill:none;stroke:#303030;stroke-linecap:round;"/>
   </g>
   <g id="line2d_80">
    <path clip-path="url(#p72669fc11a)" d="M 462.09408 68.409592 
L 485.42592 68.409592 
" style="fill:none;stroke:#303030;stroke-linecap:round;"/>
   </g>
   <g id="line2d_81">
    <path clip-path="url(#p72669fc11a)" d="M 485.90208 61.809629 
L 509.23392 61.809629 
" style="fill:none;stroke:#303030;stroke-linecap:round;"/>
   </g>
   <g id="patch_21">
    <path d="M 72 367.2 
L 518.4 367.2 
" style="fill:none;stroke:#ffffff;stroke-linecap:square;stroke-linejoin:miter;stroke-width:1.25;"/>
   </g>
   <g id="PathCollection_4">
    <defs>
     <path d="M 0 3.5 
C 0.928211 3.5 1.81853 3.131218 2.474874 2.474874 
C 3.131218 1.81853 3.5 0.928211 3.5 0 
C 3.5 -0.928211 3.131218 -1.81853 2.474874 -2.474874 
C 1.81853 -3.131218 0.928211 -3.5 0 -3.5 
C -0.928211 -3.5 -1.81853 -3.131218 -2.474874 -2.474874 
C -3.131218 -1.81853 -3.5 -0.928211 -3.5 0 
C -3.5 0.928211 -3.131218 1.81853 -2.474874 2.474874 
C -1.81853 3.131218 -0.928211 3.5 0 3.5 
z
" id="C0_0_10fe80c7f0"/>
    </defs>
    <g clip-path="url(#p72669fc11a)">
     <use style="fill:#0173b2;stroke:#000000;" x="90.682036" xlink:href="#C0_0_10fe80c7f0" y="113.807307"/>
    </g>
    <g clip-path="url(#p72669fc11a)">
     <use style="fill:#0173b2;stroke:#000000;" x="90.631421" xlink:href="#C0_0_10fe80c7f0" y="74.250496"/>
    </g>
    <g clip-path="url(#p72669fc11a)">
     <use style="fill:#0173b2;stroke:#000000;" x="92.890741" xlink:href="#C0_0_10fe80c7f0" y="110.636898"/>
    </g>
    <g clip-path="url(#p72669fc11a)">
     <use style="fill:#0173b2;stroke:#000000;" x="93.129363" xlink:href="#C0_0_10fe80c7f0" y="194.438408"/>
    </g>
    <g clip-path="url(#p72669fc11a)">
     <use style="fill:#0173b2;stroke:#000000;" x="94.165323" xlink:href="#C0_0_10fe80c7f0" y="116.755049"/>
    </g>
    <g clip-path="url(#p72669fc11a)">
     <use style="fill:#0173b2;stroke:#000000;" x="94.883714" xlink:href="#C0_0_10fe80c7f0" y="133.275937"/>
    </g>
    <g clip-path="url(#p72669fc11a)">
     <use style="fill:#0173b2;stroke:#000000;" x="91.768768" xlink:href="#C0_0_10fe80c7f0" y="91.957615"/>
    </g>
    <g clip-path="url(#p72669fc11a)">
     <use style="fill:#0173b2;stroke:#000000;" x="93.438973" xlink:href="#C0_0_10fe80c7f0" y="94.279325"/>
    </g>
    <g clip-path="url(#p72669fc11a)">
     <use style="fill:#0173b2;stroke:#000000;" x="94.66129" xlink:href="#C0_0_10fe80c7f0" y="80.496018"/>
    </g>
    <g clip-path="url(#p72669fc11a)">
     <use style="fill:#0173b2;stroke:#000000;" x="93.759154" xlink:href="#C0_0_10fe80c7f0" y="76.92562"/>
    </g>
    <g clip-path="url(#p72669fc11a)">
     <use style="fill:#0173b2;stroke:#000000;" x="90.094892" xlink:href="#C0_0_10fe80c7f0" y="159.838116"/>
    </g>
    <g clip-path="url(#p72669fc11a)">
     <use style="fill:#0173b2;stroke:#000000;" x="94.963639" xlink:href="#C0_0_10fe80c7f0" y="98.247037"/>
    </g>
    <g clip-path="url(#p72669fc11a)">
     <use style="fill:#0173b2;stroke:#000000;" x="95.38679" xlink:href="#C0_0_10fe80c7f0" y="67.901577"/>
    </g>
    <g clip-path="url(#p72669fc11a)">
     <use style="fill:#0173b2;stroke:#000000;" x="93.590847" xlink:href="#C0_0_10fe80c7f0" y="136.065699"/>
    </g>
    <g clip-path="url(#p72669fc11a)">
     <use style="fill:#0173b2;stroke:#000000;" x="90.722708" xlink:href="#C0_0_10fe80c7f0" y="97.465955"/>
    </g>
    <g clip-path="url(#p72669fc11a)">
     <use style="fill:#0173b2;stroke:#000000;" x="94.751721" xlink:href="#C0_0_10fe80c7f0" y="56.12267"/>
    </g>
   </g>
   <g id="PathCollection_5">
    <defs>
     <path d="M 0 3.5 
C 0.928211 3.5 1.81853 3.131218 2.474874 2.474874 
C 3.131218 1.81853 3.5 0.928211 3.5 0 
C 3.5 -0.928211 3.131218 -1.81853 2.474874 -2.474874 
C 1.81853 -3.131218 0.928211 -3.5 0 -3.5 
C -0.928211 -3.5 -1.81853 -3.131218 -2.474874 -2.474874 
C -3.131218 -1.81853 -3.5 -0.928211 -3.5 0 
C -3.5 0.928211 -3.131218 1.81853 -2.474874 2.474874 
C -1.81853 3.131218 -0.928211 3.5 0 3.5 
z
" id="C1_0_53d6cfed22"/>
    </defs>
    <g clip-path="url(#p72669fc11a)">
     <use style="fill:#de8f05;stroke:#000000;" x="115.619159" xlink:href="#C1_0_53d6cfed22" y="144.30914"/>
    </g>
    <g clip-path="url(#p72669fc11a)">
     <use style="fill:#de8f05;stroke:#000000;" x="119.351996" xlink:href="#C1_0_53d6cfed22" y="83.437946"/>
    </g>
    <g clip-path="url(#p72669fc11a)">
     <use style="fill:#de8f05;stroke:#000000;" x="114.783163" xlink:href="#C1_0_53d6cfed22" y="106.519503"/>
    </g>
    <g clip-path="url(#p72669fc11a)">
     <use style="fill:#de8f05;stroke:#000000;" x="117.109964" xlink:href="#C1_0_53d6cfed22" y="208.618011"/>
    </g>
    <g clip-path="url(#p72669fc11a)">
     <use style="fill:#de8f05;stroke:#000000;" x="117.575343" xlink:href="#C1_0_53d6cfed22" y="97.342014"/>
    </g>
    <g clip-path="url(#p72669fc11a)">
     <use style="fill:#de8f05;stroke:#000000;" x="115.269149" xlink:href="#C1_0_53d6cfed22" y="149.316779"/>
    </g>
    <g clip-path="url(#p72669fc11a)">
     <use style="fill:#de8f05;stroke:#000000;" x="117.384235" xlink:href="#C1_0_53d6cfed22" y="131.218448"/>
    </g>
    <g clip-path="url(#p72669fc11a)">
     <use style="fill:#de8f05;stroke:#000000;" x="118.580815" xlink:href="#C1_0_53d6cfed22" y="60.982643"/>
    </g>
    <g clip-path="url(#p72669fc11a)">
     <use style="fill:#de8f05;stroke:#000000;" x="114.430051" xlink:href="#C1_0_53d6cfed22" y="77.303291"/>
    </g>
    <g clip-path="url(#p72669fc11a)">
     <use style="fill:#de8f05;stroke:#000000;" x="116.180895" xlink:href="#C1_0_53d6cfed22" y="89.025128"/>
    </g>
    <g clip-path="url(#p72669fc11a)">
     <use style="fill:#de8f05;stroke:#000000;" x="114.407605" xlink:href="#C1_0_53d6cfed22" y="200.623192"/>
    </g>
    <g clip-path="url(#p72669fc11a)">
     <use style="fill:#de8f05;stroke:#000000;" x="114.177808" xlink:href="#C1_0_53d6cfed22" y="71.223706"/>
    </g>
    <g clip-path="url(#p72669fc11a)">
     <use style="fill:#de8f05;stroke:#000000;" x="113.683201" xlink:href="#C1_0_53d6cfed22" y="78.709519"/>
    </g>
    <g clip-path="url(#p72669fc11a)">
     <use style="fill:#de8f05;stroke:#000000;" x="115.612185" xlink:href="#C1_0_53d6cfed22" y="179.129884"/>
    </g>
    <g clip-path="url(#p72669fc11a)">
     <use style="fill:#de8f05;stroke:#000000;" x="113.744013" xlink:href="#C1_0_53d6cfed22" y="185.469239"/>
    </g>
    <g clip-path="url(#p72669fc11a)">
     <use style="fill:#de8f05;stroke:#000000;" x="115.441128" xlink:href="#C1_0_53d6cfed22" y="55.168943"/>
    </g>
   </g>
   <g id="PathCollection_6">
    <defs>
     <path d="M 0 3.5 
C 0.928211 3.5 1.81853 3.131218 2.474874 2.474874 
C 3.131218 1.81853 3.5 0.928211 3.5 0 
C 3.5 -0.928211 3.131218 -1.81853 2.474874 -2.474874 
C 1.81853 -3.131218 0.928211 -3.5 0 -3.5 
C -0.928211 -3.5 -1.81853 -3.131218 -2.474874 -2.474874 
C -3.131218 -1.81853 -3.5 -0.928211 -3.5 0 
C -3.5 0.928211 -3.131218 1.81853 -2.474874 2.474874 
C -1.81853 3.131218 -0.928211 3.5 0 3.5 
z
" id="C2_0_fc4bc23355"/>
    </defs>
    <g clip-path="url(#p72669fc11a)">
     <use style="fill:#029e73;stroke:#000000;" x="142.838748" xlink:href="#C2_0_fc4bc23355" y="100.645208"/>
    </g>
    <g clip-path="url(#p72669fc11a)">
     <use style="fill:#029e73;stroke:#000000;" x="142.945596" xlink:href="#C2_0_fc4bc23355" y="84.722257"/>
    </g>
    <g clip-path="url(#p72669fc11a)">
     <use style="fill:#029e73;stroke:#000000;" x="141.794636" xlink:href="#C2_0_fc4bc23355" y="82.410627"/>
    </g>
    <g clip-path="url(#p72669fc11a)">
     <use style="fill:#029e73;stroke:#000000;" x="139.120958" xlink:href="#C2_0_fc4bc23355" y="85.850924"/>
    </g>
    <g clip-path="url(#p72669fc11a)">
     <use style="fill:#029e73;stroke:#000000;" x="139.03314" xlink:href="#C2_0_fc4bc23355" y="103.522762"/>
    </g>
    <g clip-path="url(#p72669fc11a)">
     <use style="fill:#029e73;stroke:#000000;" x="137.926756" xlink:href="#C2_0_fc4bc23355" y="79.82455"/>
    </g>
    <g clip-path="url(#p72669fc11a)">
     <use style="fill:#029e73;stroke:#000000;" x="142.461511" xlink:href="#C2_0_fc4bc23355" y="113.813348"/>
    </g>
    <g clip-path="url(#p72669fc11a)">
     <use style="fill:#029e73;stroke:#000000;" x="141.79015" xlink:href="#C2_0_fc4bc23355" y="70.6956"/>
    </g>
    <g clip-path="url(#p72669fc11a)">
     <use style="fill:#029e73;stroke:#000000;" x="138.326832" xlink:href="#C2_0_fc4bc23355" y="87.176937"/>
    </g>
    <g clip-path="url(#p72669fc11a)">
     <use style="fill:#029e73;stroke:#000000;" x="137.486318" xlink:href="#C2_0_fc4bc23355" y="79.467392"/>
    </g>
    <g clip-path="url(#p72669fc11a)">
     <use style="fill:#029e73;stroke:#000000;" x="139.139847" xlink:href="#C2_0_fc4bc23355" y="81.113833"/>
    </g>
    <g clip-path="url(#p72669fc11a)">
     <use style="fill:#029e73;stroke:#000000;" x="139.086707" xlink:href="#C2_0_fc4bc23355" y="63.973315"/>
    </g>
    <g clip-path="url(#p72669fc11a)">
     <use style="fill:#029e73;stroke:#000000;" x="140.011113" xlink:href="#C2_0_fc4bc23355" y="56.380588"/>
    </g>
    <g clip-path="url(#p72669fc11a)">
     <use style="fill:#029e73;stroke:#000000;" x="143.323972" xlink:href="#C2_0_fc4bc23355" y="65.264709"/>
    </g>
    <g clip-path="url(#p72669fc11a)">
     <use style="fill:#029e73;stroke:#000000;" x="139.933334" xlink:href="#C2_0_fc4bc23355" y="103.652026"/>
    </g>
    <g clip-path="url(#p72669fc11a)">
     <use style="fill:#029e73;stroke:#000000;" x="140.911572" xlink:href="#C2_0_fc4bc23355" y="71.812367"/>
    </g>
   </g>
   <g id="PathCollection_7">
    <defs>
     <path d="M 0 3.5 
C 0.928211 3.5 1.81853 3.131218 2.474874 2.474874 
C 3.131218 1.81853 3.5 0.928211 3.5 0 
C 3.5 -0.928211 3.131218 -1.81853 2.474874 -2.474874 
C 1.81853 -3.131218 0.928211 -3.5 0 -3.5 
C -0.928211 -3.5 -1.81853 -3.131218 -2.474874 -2.474874 
C -3.131218 -1.81853 -3.5 -0.928211 -3.5 0 
C -3.5 0.928211 -3.131218 1.81853 -2.474874 2.474874 
C -1.81853 3.131218 -0.928211 3.5 0 3.5 
z
" id="C3_0_7ddcc1a587"/>
    </defs>
    <g clip-path="url(#p72669fc11a)">
     <use style="fill:#0173b2;stroke:#000000;" x="184.200951" xlink:href="#C3_0_7ddcc1a587" y="99.477372"/>
    </g>
    <g clip-path="url(#p72669fc11a)">
     <use style="fill:#0173b2;stroke:#000000;" x="184.966198" xlink:href="#C3_0_7ddcc1a587" y="114.975241"/>
    </g>
    <g clip-path="url(#p72669fc11a)">
     <use style="fill:#0173b2;stroke:#000000;" x="184.999335" xlink:href="#C3_0_7ddcc1a587" y="129.362328"/>
    </g>
    <g clip-path="url(#p72669fc11a)">
     <use style="fill:#0173b2;stroke:#000000;" x="183.992889" xlink:href="#C3_0_7ddcc1a587" y="158.708227"/>
    </g>
    <g clip-path="url(#p72669fc11a)">
     <use style="fill:#0173b2;stroke:#000000;" x="183.049744" xlink:href="#C3_0_7ddcc1a587" y="104.857976"/>
    </g>
    <g clip-path="url(#p72669fc11a)">
     <use style="fill:#0173b2;stroke:#000000;" x="184.427336" xlink:href="#C3_0_7ddcc1a587" y="87.357705"/>
    </g>
    <g clip-path="url(#p72669fc11a)">
     <use style="fill:#0173b2;stroke:#000000;" x="183.70653" xlink:href="#C3_0_7ddcc1a587" y="73.672954"/>
    </g>
    <g clip-path="url(#p72669fc11a)">
     <use style="fill:#0173b2;stroke:#000000;" x="181.627525" xlink:href="#C3_0_7ddcc1a587" y="130.312251"/>
    </g>
    <g clip-path="url(#p72669fc11a)">
     <use style="fill:#0173b2;stroke:#000000;" x="180.365681" xlink:href="#C3_0_7ddcc1a587" y="113.40354"/>
    </g>
    <g clip-path="url(#p72669fc11a)">
     <use style="fill:#0173b2;stroke:#000000;" x="179.985017" xlink:href="#C3_0_7ddcc1a587" y="131.620336"/>
    </g>
    <g clip-path="url(#p72669fc11a)">
     <use style="fill:#0173b2;stroke:#000000;" x="183.106842" xlink:href="#C3_0_7ddcc1a587" y="83.634348"/>
    </g>
    <g clip-path="url(#p72669fc11a)">
     <use style="fill:#0173b2;stroke:#000000;" x="181.143288" xlink:href="#C3_0_7ddcc1a587" y="87.298595"/>
    </g>
    <g clip-path="url(#p72669fc11a)">
     <use style="fill:#0173b2;stroke:#000000;" x="184.526112" xlink:href="#C3_0_7ddcc1a587" y="152.644752"/>
    </g>
    <g clip-path="url(#p72669fc11a)">
     <use style="fill:#0173b2;stroke:#000000;" x="181.503285" xlink:href="#C3_0_7ddcc1a587" y="130.256354"/>
    </g>
    <g clip-path="url(#p72669fc11a)">
     <use style="fill:#0173b2;stroke:#000000;" x="184.94883" xlink:href="#C3_0_7ddcc1a587" y="95.257244"/>
    </g>
   </g>
   <g id="PathCollection_8">
    <defs>
     <path d="M 0 3.5 
C 0.928211 3.5 1.81853 3.131218 2.474874 2.474874 
C 3.131218 1.81853 3.5 0.928211 3.5 0 
C 3.5 -0.928211 3.131218 -1.81853 2.474874 -2.474874 
C 1.81853 -3.131218 0.928211 -3.5 0 -3.5 
C -0.928211 -3.5 -1.81853 -3.131218 -2.474874 -2.474874 
C -3.131218 -1.81853 -3.5 -0.928211 -3.5 0 
C -3.5 0.928211 -3.131218 1.81853 -2.474874 2.474874 
C -1.81853 3.131218 -0.928211 3.5 0 3.5 
z
" id="C4_0_ef17c0fb54"/>
    </defs>
    <g clip-path="url(#p72669fc11a)">
     <use style="fill:#de8f05;stroke:#000000;" x="203.273602" xlink:href="#C4_0_ef17c0fb54" y="139.439832"/>
    </g>
    <g clip-path="url(#p72669fc11a)">
     <use style="fill:#de8f05;stroke:#000000;" x="205.546985" xlink:href="#C4_0_ef17c0fb54" y="133.554096"/>
    </g>
    <g clip-path="url(#p72669fc11a)">
     <use style="fill:#de8f05;stroke:#000000;" x="204.148536" xlink:href="#C4_0_ef17c0fb54" y="98.233427"/>
    </g>
    <g clip-path="url(#p72669fc11a)">
     <use style="fill:#de8f05;stroke:#000000;" x="203.546223" xlink:href="#C4_0_ef17c0fb54" y="224.593767"/>
    </g>
    <g clip-path="url(#p72669fc11a)">
     <use style="fill:#de8f05;stroke:#000000;" x="208.384271" xlink:href="#C4_0_ef17c0fb54" y="114.240476"/>
    </g>
    <g clip-path="url(#p72669fc11a)">
     <use style="fill:#de8f05;stroke:#000000;" x="208.858042" xlink:href="#C4_0_ef17c0fb54" y="77.77083"/>
    </g>
    <g clip-path="url(#p72669fc11a)">
     <use style="fill:#de8f05;stroke:#000000;" x="208.220177" xlink:href="#C4_0_ef17c0fb54" y="94.675949"/>
    </g>
    <g clip-path="url(#p72669fc11a)">
     <use style="fill:#de8f05;stroke:#000000;" x="206.224762" xlink:href="#C4_0_ef17c0fb54" y="148.439026"/>
    </g>
    <g clip-path="url(#p72669fc11a)">
     <use style="fill:#de8f05;stroke:#000000;" x="208.015834" xlink:href="#C4_0_ef17c0fb54" y="146.02146"/>
    </g>
    <g clip-path="url(#p72669fc11a)">
     <use style="fill:#de8f05;stroke:#000000;" x="207.337168" xlink:href="#C4_0_ef17c0fb54" y="232.460326"/>
    </g>
    <g clip-path="url(#p72669fc11a)">
     <use style="fill:#de8f05;stroke:#000000;" x="205.212387" xlink:href="#C4_0_ef17c0fb54" y="77.386708"/>
    </g>
    <g clip-path="url(#p72669fc11a)">
     <use style="fill:#de8f05;stroke:#000000;" x="204.110397" xlink:href="#C4_0_ef17c0fb54" y="144.964413"/>
    </g>
    <g clip-path="url(#p72669fc11a)">
     <use style="fill:#de8f05;stroke:#000000;" x="203.175203" xlink:href="#C4_0_ef17c0fb54" y="182.103557"/>
    </g>
    <g clip-path="url(#p72669fc11a)">
     <use style="fill:#de8f05;stroke:#000000;" x="206.426829" xlink:href="#C4_0_ef17c0fb54" y="185.198883"/>
    </g>
    <g clip-path="url(#p72669fc11a)">
     <use style="fill:#de8f05;stroke:#000000;" x="204.706028" xlink:href="#C4_0_ef17c0fb54" y="125.873383"/>
    </g>
   </g>
   <g id="PathCollection_9">
    <defs>
     <path d="M 0 3.5 
C 0.928211 3.5 1.81853 3.131218 2.474874 2.474874 
C 3.131218 1.81853 3.5 0.928211 3.5 0 
C 3.5 -0.928211 3.131218 -1.81853 2.474874 -2.474874 
C 1.81853 -3.131218 0.928211 -3.5 0 -3.5 
C -0.928211 -3.5 -1.81853 -3.131218 -2.474874 -2.474874 
C -3.131218 -1.81853 -3.5 -0.928211 -3.5 0 
C -3.5 0.928211 -3.131218 1.81853 -2.474874 2.474874 
C -1.81853 3.131218 -0.928211 3.5 0 3.5 
z
" id="C5_0_5b254b3100"/>
    </defs>
    <g clip-path="url(#p72669fc11a)">
     <use style="fill:#029e73;stroke:#000000;" x="228.20092" xlink:href="#C5_0_5b254b3100" y="96.069026"/>
    </g>
    <g clip-path="url(#p72669fc11a)">
     <use style="fill:#029e73;stroke:#000000;" x="231.057198" xlink:href="#C5_0_5b254b3100" y="97.770093"/>
    </g>
    <g clip-path="url(#p72669fc11a)">
     <use style="fill:#029e73;stroke:#000000;" x="228.735528" xlink:href="#C5_0_5b254b3100" y="99.741007"/>
    </g>
    <g clip-path="url(#p72669fc11a)">
     <use style="fill:#029e73;stroke:#000000;" x="231.436408" xlink:href="#C5_0_5b254b3100" y="94.130077"/>
    </g>
    <g clip-path="url(#p72669fc11a)">
     <use style="fill:#029e73;stroke:#000000;" x="227.008044" xlink:href="#C5_0_5b254b3100" y="135.396261"/>
    </g>
    <g clip-path="url(#p72669fc11a)">
     <use style="fill:#029e73;stroke:#000000;" x="227.998763" xlink:href="#C5_0_5b254b3100" y="76.045104"/>
    </g>
    <g clip-path="url(#p72669fc11a)">
     <use style="fill:#029e73;stroke:#000000;" x="228.543485" xlink:href="#C5_0_5b254b3100" y="87.693294"/>
    </g>
    <g clip-path="url(#p72669fc11a)">
     <use style="fill:#029e73;stroke:#000000;" x="230.66263" xlink:href="#C5_0_5b254b3100" y="79.220806"/>
    </g>
    <g clip-path="url(#p72669fc11a)">
     <use style="fill:#029e73;stroke:#000000;" x="229.385122" xlink:href="#C5_0_5b254b3100" y="81.547499"/>
    </g>
    <g clip-path="url(#p72669fc11a)">
     <use style="fill:#029e73;stroke:#000000;" x="228.712078" xlink:href="#C5_0_5b254b3100" y="117.937473"/>
    </g>
    <g clip-path="url(#p72669fc11a)">
     <use style="fill:#029e73;stroke:#000000;" x="231.833763" xlink:href="#C5_0_5b254b3100" y="75.509127"/>
    </g>
    <g clip-path="url(#p72669fc11a)">
     <use style="fill:#029e73;stroke:#000000;" x="231.430542" xlink:href="#C5_0_5b254b3100" y="75.949432"/>
    </g>
    <g clip-path="url(#p72669fc11a)">
     <use style="fill:#029e73;stroke:#000000;" x="230.220486" xlink:href="#C5_0_5b254b3100" y="66.133248"/>
    </g>
    <g clip-path="url(#p72669fc11a)">
     <use style="fill:#029e73;stroke:#000000;" x="231.252292" xlink:href="#C5_0_5b254b3100" y="80.824197"/>
    </g>
    <g clip-path="url(#p72669fc11a)">
     <use style="fill:#029e73;stroke:#000000;" x="231.493055" xlink:href="#C5_0_5b254b3100" y="68.191924"/>
    </g>
   </g>
   <g id="PathCollection_10">
    <defs>
     <path d="M 0 3.5 
C 0.928211 3.5 1.81853 3.131218 2.474874 2.474874 
C 3.131218 1.81853 3.5 0.928211 3.5 0 
C 3.5 -0.928211 3.131218 -1.81853 2.474874 -2.474874 
C 1.81853 -3.131218 0.928211 -3.5 0 -3.5 
C -0.928211 -3.5 -1.81853 -3.131218 -2.474874 -2.474874 
C -3.131218 -1.81853 -3.5 -0.928211 -3.5 0 
C -3.5 0.928211 -3.131218 1.81853 -2.474874 2.474874 
C -1.81853 3.131218 -0.928211 3.5 0 3.5 
z
" id="C6_0_8a73e41ad0"/>
    </defs>
    <g clip-path="url(#p72669fc11a)">
     <use style="fill:#0173b2;stroke:#000000;" x="272.52708" xlink:href="#C6_0_8a73e41ad0" y="97.772632"/>
    </g>
    <g clip-path="url(#p72669fc11a)">
     <use style="fill:#0173b2;stroke:#000000;" x="268.855817" xlink:href="#C6_0_8a73e41ad0" y="83.919319"/>
    </g>
    <g clip-path="url(#p72669fc11a)">
     <use style="fill:#0173b2;stroke:#000000;" x="268.462785" xlink:href="#C6_0_8a73e41ad0" y="56.995745"/>
    </g>
    <g clip-path="url(#p72669fc11a)">
     <use style="fill:#0173b2;stroke:#000000;" x="272.590001" xlink:href="#C6_0_8a73e41ad0" y="83.422074"/>
    </g>
    <g clip-path="url(#p72669fc11a)">
     <use style="fill:#0173b2;stroke:#000000;" x="271.717042" xlink:href="#C6_0_8a73e41ad0" y="76.645449"/>
    </g>
    <g clip-path="url(#p72669fc11a)">
     <use style="fill:#0173b2;stroke:#000000;" x="269.627536" xlink:href="#C6_0_8a73e41ad0" y="89.375187"/>
    </g>
    <g clip-path="url(#p72669fc11a)">
     <use style="fill:#0173b2;stroke:#000000;" x="273.346392" xlink:href="#C6_0_8a73e41ad0" y="89.896572"/>
    </g>
    <g clip-path="url(#p72669fc11a)">
     <use style="fill:#0173b2;stroke:#000000;" x="273.068292" xlink:href="#C6_0_8a73e41ad0" y="119.212308"/>
    </g>
    <g clip-path="url(#p72669fc11a)">
     <use style="fill:#0173b2;stroke:#000000;" x="274.343873" xlink:href="#C6_0_8a73e41ad0" y="81.515041"/>
    </g>
    <g clip-path="url(#p72669fc11a)">
     <use style="fill:#0173b2;stroke:#000000;" x="270.169857" xlink:href="#C6_0_8a73e41ad0" y="71.705286"/>
    </g>
    <g clip-path="url(#p72669fc11a)">
     <use style="fill:#0173b2;stroke:#000000;" x="270.548774" xlink:href="#C6_0_8a73e41ad0" y="69.697861"/>
    </g>
    <g clip-path="url(#p72669fc11a)">
     <use style="fill:#0173b2;stroke:#000000;" x="270.345709" xlink:href="#C6_0_8a73e41ad0" y="94.01357"/>
    </g>
    <g clip-path="url(#p72669fc11a)">
     <use style="fill:#0173b2;stroke:#000000;" x="271.267185" xlink:href="#C6_0_8a73e41ad0" y="69.609707"/>
    </g>
   </g>
   <g id="PathCollection_11">
    <defs>
     <path d="M 0 3.5 
C 0.928211 3.5 1.81853 3.131218 2.474874 2.474874 
C 3.131218 1.81853 3.5 0.928211 3.5 0 
C 3.5 -0.928211 3.131218 -1.81853 2.474874 -2.474874 
C 1.81853 -3.131218 0.928211 -3.5 0 -3.5 
C -0.928211 -3.5 -1.81853 -3.131218 -2.474874 -2.474874 
C -3.131218 -1.81853 -3.5 -0.928211 -3.5 0 
C -3.5 0.928211 -3.131218 1.81853 -2.474874 2.474874 
C -1.81853 3.131218 -0.928211 3.5 0 3.5 
z
" id="C7_0_5d0026d18f"/>
    </defs>
    <g clip-path="url(#p72669fc11a)">
     <use style="fill:#de8f05;stroke:#000000;" x="296.795929" xlink:href="#C7_0_5d0026d18f" y="121.083513"/>
    </g>
    <g clip-path="url(#p72669fc11a)">
     <use style="fill:#de8f05;stroke:#000000;" x="294.238156" xlink:href="#C7_0_5d0026d18f" y="74.982339"/>
    </g>
    <g clip-path="url(#p72669fc11a)">
     <use style="fill:#de8f05;stroke:#000000;" x="294.296301" xlink:href="#C7_0_5d0026d18f" y="69.734044"/>
    </g>
    <g clip-path="url(#p72669fc11a)">
     <use style="fill:#de8f05;stroke:#000000;" x="294.787276" xlink:href="#C7_0_5d0026d18f" y="92.155167"/>
    </g>
    <g clip-path="url(#p72669fc11a)">
     <use style="fill:#de8f05;stroke:#000000;" x="295.38214" xlink:href="#C7_0_5d0026d18f" y="91.963766"/>
    </g>
    <g clip-path="url(#p72669fc11a)">
     <use style="fill:#de8f05;stroke:#000000;" x="298.174864" xlink:href="#C7_0_5d0026d18f" y="67.631145"/>
    </g>
    <g clip-path="url(#p72669fc11a)">
     <use style="fill:#de8f05;stroke:#000000;" x="296.159114" xlink:href="#C7_0_5d0026d18f" y="102.885732"/>
    </g>
    <g clip-path="url(#p72669fc11a)">
     <use style="fill:#de8f05;stroke:#000000;" x="297.351977" xlink:href="#C7_0_5d0026d18f" y="153.603505"/>
    </g>
    <g clip-path="url(#p72669fc11a)">
     <use style="fill:#de8f05;stroke:#000000;" x="295.093075" xlink:href="#C7_0_5d0026d18f" y="65.893559"/>
    </g>
    <g clip-path="url(#p72669fc11a)">
     <use style="fill:#de8f05;stroke:#000000;" x="294.436678" xlink:href="#C7_0_5d0026d18f" y="86.593709"/>
    </g>
    <g clip-path="url(#p72669fc11a)">
     <use style="fill:#de8f05;stroke:#000000;" x="293.718726" xlink:href="#C7_0_5d0026d18f" y="65.243041"/>
    </g>
    <g clip-path="url(#p72669fc11a)">
     <use style="fill:#de8f05;stroke:#000000;" x="294.477001" xlink:href="#C7_0_5d0026d18f" y="118.460119"/>
    </g>
    <g clip-path="url(#p72669fc11a)">
     <use style="fill:#de8f05;stroke:#000000;" x="296.456946" xlink:href="#C7_0_5d0026d18f" y="63.853077"/>
    </g>
   </g>
   <g id="PathCollection_12">
    <defs>
     <path d="M 0 3.5 
C 0.928211 3.5 1.81853 3.131218 2.474874 2.474874 
C 3.131218 1.81853 3.5 0.928211 3.5 0 
C 3.5 -0.928211 3.131218 -1.81853 2.474874 -2.474874 
C 1.81853 -3.131218 0.928211 -3.5 0 -3.5 
C -0.928211 -3.5 -1.81853 -3.131218 -2.474874 -2.474874 
C -3.131218 -1.81853 -3.5 -0.928211 -3.5 0 
C -3.5 0.928211 -3.131218 1.81853 -2.474874 2.474874 
C -1.81853 3.131218 -0.928211 3.5 0 3.5 
z
" id="C8_0_35f3871232"/>
    </defs>
    <g clip-path="url(#p72669fc11a)">
     <use style="fill:#029e73;stroke:#000000;" x="317.76402" xlink:href="#C8_0_35f3871232" y="80.15617"/>
    </g>
    <g clip-path="url(#p72669fc11a)">
     <use style="fill:#029e73;stroke:#000000;" x="317.100295" xlink:href="#C8_0_35f3871232" y="67.590541"/>
    </g>
    <g clip-path="url(#p72669fc11a)">
     <use style="fill:#029e73;stroke:#000000;" x="320.666237" xlink:href="#C8_0_35f3871232" y="65.155864"/>
    </g>
    <g clip-path="url(#p72669fc11a)">
     <use style="fill:#029e73;stroke:#000000;" x="316.614306" xlink:href="#C8_0_35f3871232" y="73.088985"/>
    </g>
    <g clip-path="url(#p72669fc11a)">
     <use style="fill:#029e73;stroke:#000000;" x="318.103561" xlink:href="#C8_0_35f3871232" y="96.58657"/>
    </g>
    <g clip-path="url(#p72669fc11a)">
     <use style="fill:#029e73;stroke:#000000;" x="319.703547" xlink:href="#C8_0_35f3871232" y="63.106196"/>
    </g>
    <g clip-path="url(#p72669fc11a)">
     <use style="fill:#029e73;stroke:#000000;" x="321.067609" xlink:href="#C8_0_35f3871232" y="64.402693"/>
    </g>
    <g clip-path="url(#p72669fc11a)">
     <use style="fill:#029e73;stroke:#000000;" x="316.728982" xlink:href="#C8_0_35f3871232" y="71.497295"/>
    </g>
    <g clip-path="url(#p72669fc11a)">
     <use style="fill:#029e73;stroke:#000000;" x="317.30771" xlink:href="#C8_0_35f3871232" y="63.375435"/>
    </g>
    <g clip-path="url(#p72669fc11a)">
     <use style="fill:#029e73;stroke:#000000;" x="321.338597" xlink:href="#C8_0_35f3871232" y="57.034743"/>
    </g>
    <g clip-path="url(#p72669fc11a)">
     <use style="fill:#029e73;stroke:#000000;" x="321.384329" xlink:href="#C8_0_35f3871232" y="63.131816"/>
    </g>
    <g clip-path="url(#p72669fc11a)">
     <use style="fill:#029e73;stroke:#000000;" x="319.304956" xlink:href="#C8_0_35f3871232" y="63.987322"/>
    </g>
    <g clip-path="url(#p72669fc11a)">
     <use style="fill:#029e73;stroke:#000000;" x="320.426244" xlink:href="#C8_0_35f3871232" y="66.536838"/>
    </g>
   </g>
   <g id="PathCollection_13">
    <defs>
     <path d="M 0 3.5 
C 0.928211 3.5 1.81853 3.131218 2.474874 2.474874 
C 3.131218 1.81853 3.5 0.928211 3.5 0 
C 3.5 -0.928211 3.131218 -1.81853 2.474874 -2.474874 
C 1.81853 -3.131218 0.928211 -3.5 0 -3.5 
C -0.928211 -3.5 -1.81853 -3.131218 -2.474874 -2.474874 
C -3.131218 -1.81853 -3.5 -0.928211 -3.5 0 
C -3.5 0.928211 -3.131218 1.81853 -2.474874 2.474874 
C -1.81853 3.131218 -0.928211 3.5 0 3.5 
z
" id="C9_0_ad7597bd1e"/>
    </defs>
    <g clip-path="url(#p72669fc11a)">
     <use style="fill:#0173b2;stroke:#000000;" x="362.717786" xlink:href="#C9_0_ad7597bd1e" y="61.856327"/>
    </g>
    <g clip-path="url(#p72669fc11a)">
     <use style="fill:#0173b2;stroke:#000000;" x="363.009663" xlink:href="#C9_0_ad7597bd1e" y="67.753754"/>
    </g>
    <g clip-path="url(#p72669fc11a)">
     <use style="fill:#0173b2;stroke:#000000;" x="359.304358" xlink:href="#C9_0_ad7597bd1e" y="61.865067"/>
    </g>
    <g clip-path="url(#p72669fc11a)">
     <use style="fill:#0173b2;stroke:#000000;" x="358.700617" xlink:href="#C9_0_ad7597bd1e" y="63.5432"/>
    </g>
    <g clip-path="url(#p72669fc11a)">
     <use style="fill:#0173b2;stroke:#000000;" x="359.667635" xlink:href="#C9_0_ad7597bd1e" y="58.382905"/>
    </g>
    <g clip-path="url(#p72669fc11a)">
     <use style="fill:#0173b2;stroke:#000000;" x="357.965421" xlink:href="#C9_0_ad7597bd1e" y="79.208539"/>
    </g>
    <g clip-path="url(#p72669fc11a)">
     <use style="fill:#0173b2;stroke:#000000;" x="360.946301" xlink:href="#C9_0_ad7597bd1e" y="78.715043"/>
    </g>
    <g clip-path="url(#p72669fc11a)">
     <use style="fill:#0173b2;stroke:#000000;" x="361.679787" xlink:href="#C9_0_ad7597bd1e" y="72.332683"/>
    </g>
    <g clip-path="url(#p72669fc11a)">
     <use style="fill:#0173b2;stroke:#000000;" x="360.954985" xlink:href="#C9_0_ad7597bd1e" y="56.672641"/>
    </g>
    <g clip-path="url(#p72669fc11a)">
     <use style="fill:#0173b2;stroke:#000000;" x="359.644133" xlink:href="#C9_0_ad7597bd1e" y="76.819346"/>
    </g>
    <g clip-path="url(#p72669fc11a)">
     <use style="fill:#0173b2;stroke:#000000;" x="362.155126" xlink:href="#C9_0_ad7597bd1e" y="86.672563"/>
    </g>
    <g clip-path="url(#p72669fc11a)">
     <use style="fill:#0173b2;stroke:#000000;" x="362.067907" xlink:href="#C9_0_ad7597bd1e" y="66.261387"/>
    </g>
    <g clip-path="url(#p72669fc11a)">
     <use style="fill:#0173b2;stroke:#000000;" x="361.825323" xlink:href="#C9_0_ad7597bd1e" y="96.778839"/>
    </g>
    <g clip-path="url(#p72669fc11a)">
     <use style="fill:#0173b2;stroke:#000000;" x="360.807235" xlink:href="#C9_0_ad7597bd1e" y="82.575654"/>
    </g>
    <g clip-path="url(#p72669fc11a)">
     <use style="fill:#0173b2;stroke:#000000;" x="362.050857" xlink:href="#C9_0_ad7597bd1e" y="67.672693"/>
    </g>
    <g clip-path="url(#p72669fc11a)">
     <use style="fill:#0173b2;stroke:#000000;" x="360.902834" xlink:href="#C9_0_ad7597bd1e" y="69.464461"/>
    </g>
    <g clip-path="url(#p72669fc11a)">
     <use style="fill:#0173b2;stroke:#000000;" x="362.505984" xlink:href="#C9_0_ad7597bd1e" y="72.700867"/>
    </g>
   </g>
   <g id="PathCollection_14">
    <defs>
     <path d="M 0 3.5 
C 0.928211 3.5 1.81853 3.131218 2.474874 2.474874 
C 3.131218 1.81853 3.5 0.928211 3.5 0 
C 3.5 -0.928211 3.131218 -1.81853 2.474874 -2.474874 
C 1.81853 -3.131218 0.928211 -3.5 0 -3.5 
C -0.928211 -3.5 -1.81853 -3.131218 -2.474874 -2.474874 
C -3.131218 -1.81853 -3.5 -0.928211 -3.5 0 
C -3.5 0.928211 -3.131218 1.81853 -2.474874 2.474874 
C -1.81853 3.131218 -0.928211 3.5 0 3.5 
z
" id="Ca_0_950cf1419c"/>
    </defs>
    <g clip-path="url(#p72669fc11a)">
     <use style="fill:#de8f05;stroke:#000000;" x="383.053754" xlink:href="#Ca_0_950cf1419c" y="69.272065"/>
    </g>
    <g clip-path="url(#p72669fc11a)">
     <use style="fill:#de8f05;stroke:#000000;" x="387.281896" xlink:href="#Ca_0_950cf1419c" y="78.108338"/>
    </g>
    <g clip-path="url(#p72669fc11a)">
     <use style="fill:#de8f05;stroke:#000000;" x="382.542891" xlink:href="#Ca_0_950cf1419c" y="74.604425"/>
    </g>
    <g clip-path="url(#p72669fc11a)">
     <use style="fill:#de8f05;stroke:#000000;" x="381.549837" xlink:href="#Ca_0_950cf1419c" y="78.694824"/>
    </g>
    <g clip-path="url(#p72669fc11a)">
     <use style="fill:#de8f05;stroke:#000000;" x="386.657536" xlink:href="#Ca_0_950cf1419c" y="57.49534"/>
    </g>
    <g clip-path="url(#p72669fc11a)">
     <use style="fill:#de8f05;stroke:#000000;" x="384.038783" xlink:href="#Ca_0_950cf1419c" y="72.692996"/>
    </g>
    <g clip-path="url(#p72669fc11a)">
     <use style="fill:#de8f05;stroke:#000000;" x="385.659215" xlink:href="#Ca_0_950cf1419c" y="74.639561"/>
    </g>
    <g clip-path="url(#p72669fc11a)">
     <use style="fill:#de8f05;stroke:#000000;" x="384.925624" xlink:href="#Ca_0_950cf1419c" y="79.152664"/>
    </g>
    <g clip-path="url(#p72669fc11a)">
     <use style="fill:#de8f05;stroke:#000000;" x="383.089038" xlink:href="#Ca_0_950cf1419c" y="68.031627"/>
    </g>
    <g clip-path="url(#p72669fc11a)">
     <use style="fill:#de8f05;stroke:#000000;" x="387.387112" xlink:href="#Ca_0_950cf1419c" y="95.44589"/>
    </g>
    <g clip-path="url(#p72669fc11a)">
     <use style="fill:#de8f05;stroke:#000000;" x="381.79994" xlink:href="#Ca_0_950cf1419c" y="65.70651"/>
    </g>
    <g clip-path="url(#p72669fc11a)">
     <use style="fill:#de8f05;stroke:#000000;" x="386.452282" xlink:href="#Ca_0_950cf1419c" y="69.606562"/>
    </g>
    <g clip-path="url(#p72669fc11a)">
     <use style="fill:#de8f05;stroke:#000000;" x="384.572634" xlink:href="#Ca_0_950cf1419c" y="81.150807"/>
    </g>
    <g clip-path="url(#p72669fc11a)">
     <use style="fill:#de8f05;stroke:#000000;" x="384.7919" xlink:href="#Ca_0_950cf1419c" y="66.61438"/>
    </g>
    <g clip-path="url(#p72669fc11a)">
     <use style="fill:#de8f05;stroke:#000000;" x="381.569103" xlink:href="#Ca_0_950cf1419c" y="74.497788"/>
    </g>
    <g clip-path="url(#p72669fc11a)">
     <use style="fill:#de8f05;stroke:#000000;" x="382.308143" xlink:href="#Ca_0_950cf1419c" y="74.990768"/>
    </g>
    <g clip-path="url(#p72669fc11a)">
     <use style="fill:#de8f05;stroke:#000000;" x="383.432416" xlink:href="#Ca_0_950cf1419c" y="76.714999"/>
    </g>
   </g>
   <g id="PathCollection_15">
    <defs>
     <path d="M 0 3.5 
C 0.928211 3.5 1.81853 3.131218 2.474874 2.474874 
C 3.131218 1.81853 3.5 0.928211 3.5 0 
C 3.5 -0.928211 3.131218 -1.81853 2.474874 -2.474874 
C 1.81853 -3.131218 0.928211 -3.5 0 -3.5 
C -0.928211 -3.5 -1.81853 -3.131218 -2.474874 -2.474874 
C -3.131218 -1.81853 -3.5 -0.928211 -3.5 0 
C -3.5 0.928211 -3.131218 1.81853 -2.474874 2.474874 
C -1.81853 3.131218 -0.928211 3.5 0 3.5 
z
" id="Cb_0_fc7e610838"/>
    </defs>
    <g clip-path="url(#p72669fc11a)">
     <use style="fill:#029e73;stroke:#000000;" x="410.307797" xlink:href="#Cb_0_fc7e610838" y="69.02436"/>
    </g>
    <g clip-path="url(#p72669fc11a)">
     <use style="fill:#029e73;stroke:#000000;" x="411.027623" xlink:href="#Cb_0_fc7e610838" y="77.550596"/>
    </g>
    <g clip-path="url(#p72669fc11a)">
     <use style="fill:#029e73;stroke:#000000;" x="411.006604" xlink:href="#Cb_0_fc7e610838" y="58.985145"/>
    </g>
    <g clip-path="url(#p72669fc11a)">
     <use style="fill:#029e73;stroke:#000000;" x="407.845714" xlink:href="#Cb_0_fc7e610838" y="75.384195"/>
    </g>
    <g clip-path="url(#p72669fc11a)">
     <use style="fill:#029e73;stroke:#000000;" x="406.544364" xlink:href="#Cb_0_fc7e610838" y="56.200192"/>
    </g>
    <g clip-path="url(#p72669fc11a)">
     <use style="fill:#029e73;stroke:#000000;" x="408.087615" xlink:href="#Cb_0_fc7e610838" y="62.479154"/>
    </g>
    <g clip-path="url(#p72669fc11a)">
     <use style="fill:#029e73;stroke:#000000;" x="405.633344" xlink:href="#Cb_0_fc7e610838" y="70.68492"/>
    </g>
    <g clip-path="url(#p72669fc11a)">
     <use style="fill:#029e73;stroke:#000000;" x="410.690174" xlink:href="#Cb_0_fc7e610838" y="57.97475"/>
    </g>
    <g clip-path="url(#p72669fc11a)">
     <use style="fill:#029e73;stroke:#000000;" x="409.208715" xlink:href="#Cb_0_fc7e610838" y="64.750515"/>
    </g>
    <g clip-path="url(#p72669fc11a)">
     <use style="fill:#029e73;stroke:#000000;" x="408.808905" xlink:href="#Cb_0_fc7e610838" y="56.808091"/>
    </g>
    <g clip-path="url(#p72669fc11a)">
     <use style="fill:#029e73;stroke:#000000;" x="408.778946" xlink:href="#Cb_0_fc7e610838" y="60.326082"/>
    </g>
    <g clip-path="url(#p72669fc11a)">
     <use style="fill:#029e73;stroke:#000000;" x="407.187502" xlink:href="#Cb_0_fc7e610838" y="60.48735"/>
    </g>
    <g clip-path="url(#p72669fc11a)">
     <use style="fill:#029e73;stroke:#000000;" x="406.556819" xlink:href="#Cb_0_fc7e610838" y="69.68839"/>
    </g>
    <g clip-path="url(#p72669fc11a)">
     <use style="fill:#029e73;stroke:#000000;" x="411.234885" xlink:href="#Cb_0_fc7e610838" y="71.98531"/>
    </g>
    <g clip-path="url(#p72669fc11a)">
     <use style="fill:#029e73;stroke:#000000;" x="407.135065" xlink:href="#Cb_0_fc7e610838" y="56.567496"/>
    </g>
    <g clip-path="url(#p72669fc11a)">
     <use style="fill:#029e73;stroke:#000000;" x="408.917113" xlink:href="#Cb_0_fc7e610838" y="60.94784"/>
    </g>
    <g clip-path="url(#p72669fc11a)">
     <use style="fill:#029e73;stroke:#000000;" x="408.592018" xlink:href="#Cb_0_fc7e610838" y="63.28704"/>
    </g>
   </g>
   <g id="PathCollection_16">
    <defs>
     <path d="M 0 3.5 
C 0.928211 3.5 1.81853 3.131218 2.474874 2.474874 
C 3.131218 1.81853 3.5 0.928211 3.5 0 
C 3.5 -0.928211 3.131218 -1.81853 2.474874 -2.474874 
C 1.81853 -3.131218 0.928211 -3.5 0 -3.5 
C -0.928211 -3.5 -1.81853 -3.131218 -2.474874 -2.474874 
C -3.131218 -1.81853 -3.5 -0.928211 -3.5 0 
C -3.5 0.928211 -3.131218 1.81853 -2.474874 2.474874 
C -1.81853 3.131218 -0.928211 3.5 0 3.5 
z
" id="Cc_0_729c5af0a2"/>
    </defs>
    <g clip-path="url(#p72669fc11a)">
     <use style="fill:#0173b2;stroke:#000000;" x="450.541452" xlink:href="#Cc_0_729c5af0a2" y="58.969222"/>
    </g>
    <g clip-path="url(#p72669fc11a)">
     <use style="fill:#0173b2;stroke:#000000;" x="451.958281" xlink:href="#Cc_0_729c5af0a2" y="72.688874"/>
    </g>
    <g clip-path="url(#p72669fc11a)">
     <use style="fill:#0173b2;stroke:#000000;" x="448.245662" xlink:href="#Cc_0_729c5af0a2" y="58.969222"/>
    </g>
    <g clip-path="url(#p72669fc11a)">
     <use style="fill:#0173b2;stroke:#000000;" x="450.837377" xlink:href="#Cc_0_729c5af0a2" y="82.974193"/>
    </g>
    <g clip-path="url(#p72669fc11a)">
     <use style="fill:#0173b2;stroke:#000000;" x="451.359674" xlink:href="#Cc_0_729c5af0a2" y="61.749105"/>
    </g>
    <g clip-path="url(#p72669fc11a)">
     <use style="fill:#0173b2;stroke:#000000;" x="449.292075" xlink:href="#Cc_0_729c5af0a2" y="66.080433"/>
    </g>
    <g clip-path="url(#p72669fc11a)">
     <use style="fill:#0173b2;stroke:#000000;" x="450.202261" xlink:href="#Cc_0_729c5af0a2" y="63.230711"/>
    </g>
    <g clip-path="url(#p72669fc11a)">
     <use style="fill:#0173b2;stroke:#000000;" x="451.148" xlink:href="#Cc_0_729c5af0a2" y="57.232737"/>
    </g>
    <g clip-path="url(#p72669fc11a)">
     <use style="fill:#0173b2;stroke:#000000;" x="452.643596" xlink:href="#Cc_0_729c5af0a2" y="89.020311"/>
    </g>
    <g clip-path="url(#p72669fc11a)">
     <use style="fill:#0173b2;stroke:#000000;" x="448.88428" xlink:href="#Cc_0_729c5af0a2" y="77.997185"/>
    </g>
    <g clip-path="url(#p72669fc11a)">
     <use style="fill:#0173b2;stroke:#000000;" x="452.626114" xlink:href="#Cc_0_729c5af0a2" y="68.776667"/>
    </g>
    <g clip-path="url(#p72669fc11a)">
     <use style="fill:#0173b2;stroke:#000000;" x="452.852443" xlink:href="#Cc_0_729c5af0a2" y="77.342975"/>
    </g>
    <g clip-path="url(#p72669fc11a)">
     <use style="fill:#0173b2;stroke:#000000;" x="452.629088" xlink:href="#Cc_0_729c5af0a2" y="76.414878"/>
    </g>
    <g clip-path="url(#p72669fc11a)">
     <use style="fill:#0173b2;stroke:#000000;" x="448.829411" xlink:href="#Cc_0_729c5af0a2" y="108.093427"/>
    </g>
    <g clip-path="url(#p72669fc11a)">
     <use style="fill:#0173b2;stroke:#000000;" x="450.932025" xlink:href="#Cc_0_729c5af0a2" y="60.527637"/>
    </g>
    <g clip-path="url(#p72669fc11a)">
     <use style="fill:#0173b2;stroke:#000000;" x="451.347259" xlink:href="#Cc_0_729c5af0a2" y="73.277874"/>
    </g>
    <g clip-path="url(#p72669fc11a)">
     <use style="fill:#0173b2;stroke:#000000;" x="451.235019" xlink:href="#Cc_0_729c5af0a2" y="80.445818"/>
    </g>
   </g>
   <g id="PathCollection_17">
    <defs>
     <path d="M 0 3.5 
C 0.928211 3.5 1.81853 3.131218 2.474874 2.474874 
C 3.131218 1.81853 3.5 0.928211 3.5 0 
C 3.5 -0.928211 3.131218 -1.81853 2.474874 -2.474874 
C 1.81853 -3.131218 0.928211 -3.5 0 -3.5 
C -0.928211 -3.5 -1.81853 -3.131218 -2.474874 -2.474874 
C -3.131218 -1.81853 -3.5 -0.928211 -3.5 0 
C -3.5 0.928211 -3.131218 1.81853 -2.474874 2.474874 
C -1.81853 3.131218 -0.928211 3.5 0 3.5 
z
" id="Cd_0_70fe780f8f"/>
    </defs>
    <g clip-path="url(#p72669fc11a)">
     <use style="fill:#de8f05;stroke:#000000;" x="473.266509" xlink:href="#Cd_0_70fe780f8f" y="67.691953"/>
    </g>
    <g clip-path="url(#p72669fc11a)">
     <use style="fill:#de8f05;stroke:#000000;" x="474.276139" xlink:href="#Cd_0_70fe780f8f" y="61.964587"/>
    </g>
    <g clip-path="url(#p72669fc11a)">
     <use style="fill:#de8f05;stroke:#000000;" x="474.634626" xlink:href="#Cd_0_70fe780f8f" y="67.691953"/>
    </g>
    <g clip-path="url(#p72669fc11a)">
     <use style="fill:#de8f05;stroke:#000000;" x="475.680936" xlink:href="#Cd_0_70fe780f8f" y="64.416137"/>
    </g>
    <g clip-path="url(#p72669fc11a)">
     <use style="fill:#de8f05;stroke:#000000;" x="473.177082" xlink:href="#Cd_0_70fe780f8f" y="68.409592"/>
    </g>
    <g clip-path="url(#p72669fc11a)">
     <use style="fill:#de8f05;stroke:#000000;" x="475.00208" xlink:href="#Cd_0_70fe780f8f" y="58.888058"/>
    </g>
    <g clip-path="url(#p72669fc11a)">
     <use style="fill:#de8f05;stroke:#000000;" x="472.407067" xlink:href="#Cd_0_70fe780f8f" y="68.900084"/>
    </g>
    <g clip-path="url(#p72669fc11a)">
     <use style="fill:#de8f05;stroke:#000000;" x="471.574307" xlink:href="#Cd_0_70fe780f8f" y="63.250416"/>
    </g>
    <g clip-path="url(#p72669fc11a)">
     <use style="fill:#de8f05;stroke:#000000;" x="473.809198" xlink:href="#Cd_0_70fe780f8f" y="98.788545"/>
    </g>
    <g clip-path="url(#p72669fc11a)">
     <use style="fill:#de8f05;stroke:#000000;" x="476.48114" xlink:href="#Cd_0_70fe780f8f" y="78.433174"/>
    </g>
    <g clip-path="url(#p72669fc11a)">
     <use style="fill:#de8f05;stroke:#000000;" x="474.876807" xlink:href="#Cd_0_70fe780f8f" y="75.873961"/>
    </g>
    <g clip-path="url(#p72669fc11a)">
     <use style="fill:#de8f05;stroke:#000000;" x="471.176107" xlink:href="#Cd_0_70fe780f8f" y="72.958058"/>
    </g>
    <g clip-path="url(#p72669fc11a)">
     <use style="fill:#de8f05;stroke:#000000;" x="474.772674" xlink:href="#Cd_0_70fe780f8f" y="94.751485"/>
    </g>
    <g clip-path="url(#p72669fc11a)">
     <use style="fill:#de8f05;stroke:#000000;" x="476.531121" xlink:href="#Cd_0_70fe780f8f" y="118.433611"/>
    </g>
    <g clip-path="url(#p72669fc11a)">
     <use style="fill:#de8f05;stroke:#000000;" x="474.932937" xlink:href="#Cd_0_70fe780f8f" y="59.601196"/>
    </g>
    <g clip-path="url(#p72669fc11a)">
     <use style="fill:#de8f05;stroke:#000000;" x="474.928641" xlink:href="#Cd_0_70fe780f8f" y="88.824134"/>
    </g>
    <g clip-path="url(#p72669fc11a)">
     <use style="fill:#de8f05;stroke:#000000;" x="471.486616" xlink:href="#Cd_0_70fe780f8f" y="65.818475"/>
    </g>
   </g>
   <g id="PathCollection_18">
    <defs>
     <path d="M 0 3.5 
C 0.928211 3.5 1.81853 3.131218 2.474874 2.474874 
C 3.131218 1.81853 3.5 0.928211 3.5 0 
C 3.5 -0.928211 3.131218 -1.81853 2.474874 -2.474874 
C 1.81853 -3.131218 0.928211 -3.5 0 -3.5 
C -0.928211 -3.5 -1.81853 -3.131218 -2.474874 -2.474874 
C -3.131218 -1.81853 -3.5 -0.928211 -3.5 0 
C -3.5 0.928211 -3.131218 1.81853 -2.474874 2.474874 
C -1.81853 3.131218 -0.928211 3.5 0 3.5 
z
" id="Ce_0_8d7d90f5b8"/>
    </defs>
    <g clip-path="url(#p72669fc11a)">
     <use style="fill:#029e73;stroke:#000000;" x="498.244467" xlink:href="#Ce_0_8d7d90f5b8" y="72.379298"/>
    </g>
    <g clip-path="url(#p72669fc11a)">
     <use style="fill:#029e73;stroke:#000000;" x="498.285956" xlink:href="#Ce_0_8d7d90f5b8" y="58.695299"/>
    </g>
    <g clip-path="url(#p72669fc11a)">
     <use style="fill:#029e73;stroke:#000000;" x="498.470349" xlink:href="#Ce_0_8d7d90f5b8" y="72.379298"/>
    </g>
    <g clip-path="url(#p72669fc11a)">
     <use style="fill:#029e73;stroke:#000000;" x="499.062595" xlink:href="#Ce_0_8d7d90f5b8" y="65.712065"/>
    </g>
    <g clip-path="url(#p72669fc11a)">
     <use style="fill:#029e73;stroke:#000000;" x="497.888841" xlink:href="#Ce_0_8d7d90f5b8" y="58.694391"/>
    </g>
    <g clip-path="url(#p72669fc11a)">
     <use style="fill:#029e73;stroke:#000000;" x="498.731122" xlink:href="#Ce_0_8d7d90f5b8" y="74.015639"/>
    </g>
    <g clip-path="url(#p72669fc11a)">
     <use style="fill:#029e73;stroke:#000000;" x="497.517949" xlink:href="#Ce_0_8d7d90f5b8" y="61.809629"/>
    </g>
    <g clip-path="url(#p72669fc11a)">
     <use style="fill:#029e73;stroke:#000000;" x="496.035302" xlink:href="#Ce_0_8d7d90f5b8" y="60.47501"/>
    </g>
    <g clip-path="url(#p72669fc11a)">
     <use style="fill:#029e73;stroke:#000000;" x="497.411925" xlink:href="#Ce_0_8d7d90f5b8" y="58.374779"/>
    </g>
    <g clip-path="url(#p72669fc11a)">
     <use style="fill:#029e73;stroke:#000000;" x="495.940378" xlink:href="#Ce_0_8d7d90f5b8" y="58.300912"/>
    </g>
    <g clip-path="url(#p72669fc11a)">
     <use style="fill:#029e73;stroke:#000000;" x="494.732855" xlink:href="#Ce_0_8d7d90f5b8" y="60.852857"/>
    </g>
    <g clip-path="url(#p72669fc11a)">
     <use style="fill:#029e73;stroke:#000000;" x="500.131749" xlink:href="#Ce_0_8d7d90f5b8" y="67.594344"/>
    </g>
    <g clip-path="url(#p72669fc11a)">
     <use style="fill:#029e73;stroke:#000000;" x="500.54279" xlink:href="#Ce_0_8d7d90f5b8" y="60.350378"/>
    </g>
    <g clip-path="url(#p72669fc11a)">
     <use style="fill:#029e73;stroke:#000000;" x="499.428861" xlink:href="#Ce_0_8d7d90f5b8" y="72.219764"/>
    </g>
    <g clip-path="url(#p72669fc11a)">
     <use style="fill:#029e73;stroke:#000000;" x="494.902234" xlink:href="#Ce_0_8d7d90f5b8" y="68.181084"/>
    </g>
    <g clip-path="url(#p72669fc11a)">
     <use style="fill:#029e73;stroke:#000000;" x="496.17938" xlink:href="#Ce_0_8d7d90f5b8" y="58.368552"/>
    </g>
    <g clip-path="url(#p72669fc11a)">
     <use style="fill:#029e73;stroke:#000000;" x="495.069028" xlink:href="#Ce_0_8d7d90f5b8" y="66.161164"/>
    </g>
   </g>
   <g id="legend_1">
    <g id="patch_22">
     <path d="M 421.69625 361.7 
L 510.7 361.7 
Q 512.9 361.7 512.9 359.5 
L 512.9 313.791562 
Q 512.9 311.591563 510.7 311.591563 
L 421.69625 311.591563 
Q 419.49625 311.591563 419.49625 313.791562 
L 419.49625 359.5 
Q 419.49625 361.7 421.69625 361.7 
z
" style="fill:#eaeaf2;opacity:0.8;stroke:#cccccc;stroke-linejoin:miter;"/>
    </g>
    <g id="patch_23">
     <path d="M 423.89625 323.865156 
L 445.89625 323.865156 
L 445.89625 316.165156 
L 423.89625 316.165156 
z
" style="fill:#176d9c;stroke:#303030;stroke-linejoin:miter;stroke-width:0.5;"/>
    </g>
    <g id="text_14">
     <!-- Distance -->
     <defs>
      <path d="M 6.640625 61.46875 
L 6.640625 71.578125 
L 15.4375 71.578125 
L 15.4375 61.46875 
z
M 6.640625 0 
L 6.640625 51.859375 
L 15.4375 51.859375 
L 15.4375 0 
z
" id="ArialMT-105"/>
      <path d="M 40.4375 19 
L 49.078125 17.875 
Q 47.65625 8.9375 41.8125 3.875 
Q 35.984375 -1.171875 27.484375 -1.171875 
Q 16.84375 -1.171875 10.375 5.78125 
Q 3.90625 12.75 3.90625 25.734375 
Q 3.90625 34.125 6.6875 40.421875 
Q 9.46875 46.734375 15.15625 49.875 
Q 20.84375 53.03125 27.546875 53.03125 
Q 35.984375 53.03125 41.359375 48.75 
Q 46.734375 44.484375 48.25 36.625 
L 39.703125 35.296875 
Q 38.484375 40.53125 35.375 43.15625 
Q 32.28125 45.796875 27.875 45.796875 
Q 21.234375 45.796875 17.078125 41.03125 
Q 12.9375 36.28125 12.9375 25.984375 
Q 12.9375 15.53125 16.9375 10.796875 
Q 20.953125 6.0625 27.390625 6.0625 
Q 32.5625 6.0625 36.03125 9.234375 
Q 39.5 12.40625 40.4375 19 
z
" id="ArialMT-99"/>
     </defs>
     <g style="fill:#262626;" transform="translate(454.69625 323.865156)scale(0.11 -0.11)">
      <use xlink:href="#ArialMT-68"/>
      <use x="72.216797" xlink:href="#ArialMT-105"/>
      <use x="94.433594" xlink:href="#ArialMT-115"/>
      <use x="144.433594" xlink:href="#ArialMT-116"/>
      <use x="172.216797" xlink:href="#ArialMT-97"/>
      <use x="227.832031" xlink:href="#ArialMT-110"/>
      <use x="283.447266" xlink:href="#ArialMT-99"/>
      <use x="333.447266" xlink:href="#ArialMT-101"/>
     </g>
    </g>
    <g id="patch_24">
     <path d="M 423.89625 339.425 
L 445.89625 339.425 
L 445.89625 331.725 
L 423.89625 331.725 
z
" style="fill:#c38820;stroke:#303030;stroke-linejoin:miter;stroke-width:0.5;"/>
    </g>
    <g id="text_15">
     <!-- Angle -->
     <defs>
      <path d="M 4.984375 -4.296875 
L 13.53125 -5.5625 
Q 14.0625 -9.515625 16.5 -11.328125 
Q 19.78125 -13.765625 25.4375 -13.765625 
Q 31.546875 -13.765625 34.859375 -11.328125 
Q 38.1875 -8.890625 39.359375 -4.5 
Q 40.046875 -1.8125 39.984375 6.78125 
Q 34.234375 0 25.640625 0 
Q 14.9375 0 9.078125 7.71875 
Q 3.21875 15.4375 3.21875 26.21875 
Q 3.21875 33.640625 5.90625 39.90625 
Q 8.59375 46.1875 13.6875 49.609375 
Q 18.796875 53.03125 25.6875 53.03125 
Q 34.859375 53.03125 40.828125 45.609375 
L 40.828125 51.859375 
L 48.921875 51.859375 
L 48.921875 7.03125 
Q 48.921875 -5.078125 46.453125 -10.125 
Q 44 -15.1875 38.640625 -18.109375 
Q 33.296875 -21.046875 25.484375 -21.046875 
Q 16.21875 -21.046875 10.5 -16.875 
Q 4.78125 -12.703125 4.984375 -4.296875 
z
M 12.25 26.859375 
Q 12.25 16.65625 16.296875 11.96875 
Q 20.359375 7.28125 26.46875 7.28125 
Q 32.515625 7.28125 36.609375 11.9375 
Q 40.71875 16.609375 40.71875 26.5625 
Q 40.71875 36.078125 36.5 40.90625 
Q 32.28125 45.75 26.3125 45.75 
Q 20.453125 45.75 16.34375 40.984375 
Q 12.25 36.234375 12.25 26.859375 
z
" id="ArialMT-103"/>
     </defs>
     <g style="fill:#262626;" transform="translate(454.69625 339.425)scale(0.11 -0.11)">
      <use xlink:href="#ArialMT-65"/>
      <use x="66.699219" xlink:href="#ArialMT-110"/>
      <use x="122.314453" xlink:href="#ArialMT-103"/>
      <use x="177.929688" xlink:href="#ArialMT-108"/>
      <use x="200.146484" xlink:href="#ArialMT-101"/>
     </g>
    </g>
    <g id="patch_25">
     <path d="M 423.89625 355.11375 
L 445.89625 355.11375 
L 445.89625 347.41375 
L 423.89625 347.41375 
z
" style="fill:#158b6a;stroke:#303030;stroke-linejoin:miter;stroke-width:0.5;"/>
    </g>
    <g id="text_16">
     <!-- Orientation -->
     <defs>
      <path d="M 4.828125 34.859375 
Q 4.828125 52.6875 14.390625 62.765625 
Q 23.96875 72.859375 39.109375 72.859375 
Q 49.03125 72.859375 56.984375 68.109375 
Q 64.9375 63.375 69.109375 54.90625 
Q 73.296875 46.4375 73.296875 35.6875 
Q 73.296875 24.8125 68.890625 16.21875 
Q 64.5 7.625 56.4375 3.203125 
Q 48.390625 -1.21875 39.0625 -1.21875 
Q 28.953125 -1.21875 20.984375 3.65625 
Q 13.03125 8.546875 8.921875 16.984375 
Q 4.828125 25.4375 4.828125 34.859375 
z
M 14.59375 34.71875 
Q 14.59375 21.78125 21.546875 14.328125 
Q 28.515625 6.890625 39.015625 6.890625 
Q 49.703125 6.890625 56.609375 14.40625 
Q 63.53125 21.921875 63.53125 35.75 
Q 63.53125 44.484375 60.578125 51 
Q 57.625 57.515625 51.921875 61.109375 
Q 46.234375 64.703125 39.15625 64.703125 
Q 29.109375 64.703125 21.84375 57.78125 
Q 14.59375 50.875 14.59375 34.71875 
z
" id="ArialMT-79"/>
     </defs>
     <g style="fill:#262626;" transform="translate(454.69625 355.11375)scale(0.11 -0.11)">
      <use xlink:href="#ArialMT-79"/>
      <use x="77.783203" xlink:href="#ArialMT-114"/>
      <use x="111.083984" xlink:href="#ArialMT-105"/>
      <use x="133.300781" xlink:href="#ArialMT-101"/>
      <use x="188.916016" xlink:href="#ArialMT-110"/>
      <use x="244.53125" xlink:href="#ArialMT-116"/>
      <use x="272.314453" xlink:href="#ArialMT-97"/>
      <use x="327.929688" xlink:href="#ArialMT-116"/>
      <use x="355.712891" xlink:href="#ArialMT-105"/>
      <use x="377.929688" xlink:href="#ArialMT-111"/>
      <use x="433.544922" xlink:href="#ArialMT-110"/>
     </g>
    </g>
   </g>
  </g>
 </g>
 <defs>
  <clipPath id="p72669fc11a">
   <rect height="315.36" width="446.4" x="72" y="51.84"/>
  </clipPath>
 </defs>
</svg>
