<?xml version="1.0" encoding="utf-8" standalone="no"?>
<!DOCTYPE svg PUBLIC "-//W3C//DTD SVG 1.1//EN"
  "http://www.w3.org/Graphics/SVG/1.1/DTD/svg11.dtd">
<!-- Created with matplotlib (https://matplotlib.org/) -->
<svg height="432pt" version="1.1" viewBox="0 0 576 432" width="576pt" xmlns="http://www.w3.org/2000/svg" xmlns:xlink="http://www.w3.org/1999/xlink">
 <defs>
  <style type="text/css">
*{stroke-linecap:butt;stroke-linejoin:round;}
  </style>
 </defs>
 <g id="figure_1">
  <g id="patch_1">
   <path d="M 0 432 
L 576 432 
L 576 0 
L 0 0 
z
" style="fill:#ffffff;"/>
  </g>
  <g id="axes_1">
   <g id="patch_2">
    <path d="M 72 367.2 
L 518.4 367.2 
L 518.4 51.84 
L 72 51.84 
z
" style="fill:#eaeaf2;"/>
   </g>
   <g id="matplotlib.axis_1">
    <g id="xtick_1">
     <g id="text_1">
      <!-- CP AH -->
      <defs>
       <path d="M 58.796875 25.09375 
L 68.265625 22.703125 
Q 65.28125 11.03125 57.546875 4.90625 
Q 49.8125 -1.21875 38.625 -1.21875 
Q 27.046875 -1.21875 19.796875 3.484375 
Q 12.546875 8.203125 8.765625 17.140625 
Q 4.984375 26.078125 4.984375 36.328125 
Q 4.984375 47.515625 9.25 55.828125 
Q 13.53125 64.15625 21.40625 68.46875 
Q 29.296875 72.796875 38.765625 72.796875 
Q 49.515625 72.796875 56.828125 67.328125 
Q 64.15625 61.859375 67.046875 51.953125 
L 57.71875 49.75 
Q 55.21875 57.5625 50.484375 61.125 
Q 45.75 64.703125 38.578125 64.703125 
Q 30.328125 64.703125 24.78125 60.734375 
Q 19.234375 56.78125 16.984375 50.109375 
Q 14.75 43.453125 14.75 36.375 
Q 14.75 27.25 17.40625 20.4375 
Q 20.0625 13.625 25.671875 10.25 
Q 31.296875 6.890625 37.84375 6.890625 
Q 45.796875 6.890625 51.3125 11.46875 
Q 56.84375 16.0625 58.796875 25.09375 
z
" id="ArialMT-67"/>
       <path d="M 7.71875 0 
L 7.71875 71.578125 
L 34.71875 71.578125 
Q 41.84375 71.578125 45.609375 70.90625 
Q 50.875 70.015625 54.4375 67.546875 
Q 58.015625 65.09375 60.1875 60.640625 
Q 62.359375 56.203125 62.359375 50.875 
Q 62.359375 41.75 56.546875 35.421875 
Q 50.734375 29.109375 35.546875 29.109375 
L 17.1875 29.109375 
L 17.1875 0 
z
M 17.1875 37.546875 
L 35.6875 37.546875 
Q 44.875 37.546875 48.734375 40.96875 
Q 52.59375 44.390625 52.59375 50.59375 
Q 52.59375 55.078125 50.3125 58.265625 
Q 48.046875 61.46875 44.34375 62.5 
Q 41.9375 63.140625 35.5 63.140625 
L 17.1875 63.140625 
z
" id="ArialMT-80"/>
       <path id="ArialMT-32"/>
       <path d="M -0.140625 0 
L 27.34375 71.578125 
L 37.546875 71.578125 
L 66.84375 0 
L 56.0625 0 
L 47.703125 21.6875 
L 17.78125 21.6875 
L 9.90625 0 
z
M 20.515625 29.390625 
L 44.78125 29.390625 
L 37.3125 49.21875 
Q 33.890625 58.25 32.234375 64.0625 
Q 30.859375 57.171875 28.375 50.390625 
z
" id="ArialMT-65"/>
       <path d="M 8.015625 0 
L 8.015625 71.578125 
L 17.484375 71.578125 
L 17.484375 42.1875 
L 54.6875 42.1875 
L 54.6875 71.578125 
L 64.15625 71.578125 
L 64.15625 0 
L 54.6875 0 
L 54.6875 33.734375 
L 17.484375 33.734375 
L 17.484375 0 
z
" id="ArialMT-72"/>
      </defs>
      <g style="fill:#262626;" transform="translate(99.835781 384.573594)scale(0.11 -0.11)">
       <use xlink:href="#ArialMT-67"/>
       <use x="72.216797" xlink:href="#ArialMT-80"/>
       <use x="138.900391" xlink:href="#ArialMT-32"/>
       <use x="166.605469" xlink:href="#ArialMT-65"/>
       <use x="233.304688" xlink:href="#ArialMT-72"/>
      </g>
     </g>
    </g>
    <g id="xtick_2">
     <g id="text_2">
      <!-- CP LA -->
      <defs>
       <path d="M 7.328125 0 
L 7.328125 71.578125 
L 16.796875 71.578125 
L 16.796875 8.453125 
L 52.046875 8.453125 
L 52.046875 0 
z
" id="ArialMT-76"/>
      </defs>
      <g style="fill:#262626;" transform="translate(190.025 384.573594)scale(0.11 -0.11)">
       <use xlink:href="#ArialMT-67"/>
       <use x="72.216797" xlink:href="#ArialMT-80"/>
       <use x="138.900391" xlink:href="#ArialMT-32"/>
       <use x="166.683594" xlink:href="#ArialMT-76"/>
       <use x="222.298828" xlink:href="#ArialMT-65"/>
      </g>
     </g>
    </g>
    <g id="xtick_3">
     <g id="text_3">
      <!-- TD Control -->
      <defs>
       <path d="M 25.921875 0 
L 25.921875 63.140625 
L 2.34375 63.140625 
L 2.34375 71.578125 
L 59.078125 71.578125 
L 59.078125 63.140625 
L 35.40625 63.140625 
L 35.40625 0 
z
" id="ArialMT-84"/>
       <path d="M 7.71875 0 
L 7.71875 71.578125 
L 32.375 71.578125 
Q 40.71875 71.578125 45.125 70.5625 
Q 51.265625 69.140625 55.609375 65.4375 
Q 61.28125 60.640625 64.078125 53.1875 
Q 66.890625 45.75 66.890625 36.1875 
Q 66.890625 28.03125 64.984375 21.734375 
Q 63.09375 15.4375 60.109375 11.296875 
Q 57.125 7.171875 53.578125 4.796875 
Q 50.046875 2.4375 45.046875 1.21875 
Q 40.046875 0 33.546875 0 
z
M 17.1875 8.453125 
L 32.46875 8.453125 
Q 39.546875 8.453125 43.578125 9.765625 
Q 47.609375 11.078125 50 13.484375 
Q 53.375 16.84375 55.25 22.53125 
Q 57.125 28.21875 57.125 36.328125 
Q 57.125 47.5625 53.4375 53.59375 
Q 49.75 59.625 44.484375 61.671875 
Q 40.671875 63.140625 32.234375 63.140625 
L 17.1875 63.140625 
z
" id="ArialMT-68"/>
       <path d="M 3.328125 25.921875 
Q 3.328125 40.328125 11.328125 47.265625 
Q 18.015625 53.03125 27.640625 53.03125 
Q 38.328125 53.03125 45.109375 46.015625 
Q 51.90625 39.015625 51.90625 26.65625 
Q 51.90625 16.65625 48.90625 10.90625 
Q 45.90625 5.171875 40.15625 2 
Q 34.421875 -1.171875 27.640625 -1.171875 
Q 16.75 -1.171875 10.03125 5.8125 
Q 3.328125 12.796875 3.328125 25.921875 
z
M 12.359375 25.921875 
Q 12.359375 15.96875 16.703125 11.015625 
Q 21.046875 6.0625 27.640625 6.0625 
Q 34.1875 6.0625 38.53125 11.03125 
Q 42.875 16.015625 42.875 26.21875 
Q 42.875 35.84375 38.5 40.796875 
Q 34.125 45.75 27.640625 45.75 
Q 21.046875 45.75 16.703125 40.8125 
Q 12.359375 35.890625 12.359375 25.921875 
z
" id="ArialMT-111"/>
       <path d="M 6.59375 0 
L 6.59375 51.859375 
L 14.5 51.859375 
L 14.5 44.484375 
Q 20.21875 53.03125 31 53.03125 
Q 35.6875 53.03125 39.625 51.34375 
Q 43.5625 49.65625 45.515625 46.921875 
Q 47.46875 44.1875 48.25 40.4375 
Q 48.734375 37.984375 48.734375 31.890625 
L 48.734375 0 
L 39.9375 0 
L 39.9375 31.546875 
Q 39.9375 36.921875 38.90625 39.578125 
Q 37.890625 42.234375 35.28125 43.8125 
Q 32.671875 45.40625 29.15625 45.40625 
Q 23.53125 45.40625 19.453125 41.84375 
Q 15.375 38.28125 15.375 28.328125 
L 15.375 0 
z
" id="ArialMT-110"/>
       <path d="M 25.78125 7.859375 
L 27.046875 0.09375 
Q 23.34375 -0.6875 20.40625 -0.6875 
Q 15.625 -0.6875 12.984375 0.828125 
Q 10.359375 2.34375 9.28125 4.8125 
Q 8.203125 7.28125 8.203125 15.1875 
L 8.203125 45.015625 
L 1.765625 45.015625 
L 1.765625 51.859375 
L 8.203125 51.859375 
L 8.203125 64.703125 
L 16.9375 69.96875 
L 16.9375 51.859375 
L 25.78125 51.859375 
L 25.78125 45.015625 
L 16.9375 45.015625 
L 16.9375 14.703125 
Q 16.9375 10.9375 17.40625 9.859375 
Q 17.875 8.796875 18.921875 8.15625 
Q 19.96875 7.515625 21.921875 7.515625 
Q 23.390625 7.515625 25.78125 7.859375 
z
" id="ArialMT-116"/>
       <path d="M 6.5 0 
L 6.5 51.859375 
L 14.40625 51.859375 
L 14.40625 44 
Q 17.4375 49.515625 20 51.265625 
Q 22.5625 53.03125 25.640625 53.03125 
Q 30.078125 53.03125 34.671875 50.203125 
L 31.640625 42.046875 
Q 28.421875 43.953125 25.203125 43.953125 
Q 22.3125 43.953125 20.015625 42.21875 
Q 17.71875 40.484375 16.75 37.40625 
Q 15.28125 32.71875 15.28125 27.15625 
L 15.28125 0 
z
" id="ArialMT-114"/>
       <path d="M 6.390625 0 
L 6.390625 71.578125 
L 15.1875 71.578125 
L 15.1875 0 
z
" id="ArialMT-108"/>
      </defs>
      <g style="fill:#262626;" transform="translate(268.611797 384.573594)scale(0.11 -0.11)">
       <use xlink:href="#ArialMT-84"/>
       <use x="61.083984" xlink:href="#ArialMT-68"/>
       <use x="133.300781" xlink:href="#ArialMT-32"/>
       <use x="161.083984" xlink:href="#ArialMT-67"/>
       <use x="233.300781" xlink:href="#ArialMT-111"/>
       <use x="288.916016" xlink:href="#ArialMT-110"/>
       <use x="344.53125" xlink:href="#ArialMT-116"/>
       <use x="372.314453" xlink:href="#ArialMT-114"/>
       <use x="405.615234" xlink:href="#ArialMT-111"/>
       <use x="461.230469" xlink:href="#ArialMT-108"/>
      </g>
     </g>
    </g>
    <g id="xtick_4">
     <g id="text_4">
      <!-- Adult Control 1 -->
      <defs>
       <path d="M 40.234375 0 
L 40.234375 6.546875 
Q 35.296875 -1.171875 25.734375 -1.171875 
Q 19.53125 -1.171875 14.328125 2.25 
Q 9.125 5.671875 6.265625 11.796875 
Q 3.421875 17.921875 3.421875 25.875 
Q 3.421875 33.640625 6 39.96875 
Q 8.59375 46.296875 13.765625 49.65625 
Q 18.953125 53.03125 25.34375 53.03125 
Q 30.03125 53.03125 33.6875 51.046875 
Q 37.359375 49.078125 39.65625 45.90625 
L 39.65625 71.578125 
L 48.390625 71.578125 
L 48.390625 0 
z
M 12.453125 25.875 
Q 12.453125 15.921875 16.640625 10.984375 
Q 20.84375 6.0625 26.5625 6.0625 
Q 32.328125 6.0625 36.34375 10.765625 
Q 40.375 15.484375 40.375 25.140625 
Q 40.375 35.796875 36.265625 40.765625 
Q 32.171875 45.75 26.171875 45.75 
Q 20.3125 45.75 16.375 40.96875 
Q 12.453125 36.1875 12.453125 25.875 
z
" id="ArialMT-100"/>
       <path d="M 40.578125 0 
L 40.578125 7.625 
Q 34.515625 -1.171875 24.125 -1.171875 
Q 19.53125 -1.171875 15.546875 0.578125 
Q 11.578125 2.34375 9.640625 5 
Q 7.71875 7.671875 6.9375 11.53125 
Q 6.390625 14.109375 6.390625 19.734375 
L 6.390625 51.859375 
L 15.1875 51.859375 
L 15.1875 23.09375 
Q 15.1875 16.21875 15.71875 13.8125 
Q 16.546875 10.359375 19.234375 8.375 
Q 21.921875 6.390625 25.875 6.390625 
Q 29.828125 6.390625 33.296875 8.421875 
Q 36.765625 10.453125 38.203125 13.9375 
Q 39.65625 17.4375 39.65625 24.078125 
L 39.65625 51.859375 
L 48.4375 51.859375 
L 48.4375 0 
z
" id="ArialMT-117"/>
       <path d="M 37.25 0 
L 28.46875 0 
L 28.46875 56 
Q 25.296875 52.984375 20.140625 49.953125 
Q 14.984375 46.921875 10.890625 45.40625 
L 10.890625 53.90625 
Q 18.265625 57.375 23.78125 62.296875 
Q 29.296875 67.234375 31.59375 71.875 
L 37.25 71.875 
z
" id="ArialMT-49"/>
      </defs>
      <g style="fill:#262626;" transform="translate(348.100937 384.573594)scale(0.11 -0.11)">
       <use xlink:href="#ArialMT-65"/>
       <use x="66.699219" xlink:href="#ArialMT-100"/>
       <use x="122.314453" xlink:href="#ArialMT-117"/>
       <use x="177.929688" xlink:href="#ArialMT-108"/>
       <use x="200.146484" xlink:href="#ArialMT-116"/>
       <use x="227.929688" xlink:href="#ArialMT-32"/>
       <use x="255.712891" xlink:href="#ArialMT-67"/>
       <use x="327.929688" xlink:href="#ArialMT-111"/>
       <use x="383.544922" xlink:href="#ArialMT-110"/>
       <use x="439.160156" xlink:href="#ArialMT-116"/>
       <use x="466.943359" xlink:href="#ArialMT-114"/>
       <use x="500.244141" xlink:href="#ArialMT-111"/>
       <use x="555.859375" xlink:href="#ArialMT-108"/>
       <use x="578.076172" xlink:href="#ArialMT-32"/>
       <use x="605.859375" xlink:href="#ArialMT-49"/>
      </g>
     </g>
    </g>
    <g id="xtick_5">
     <g id="text_5">
      <!-- Adult Control 2 -->
      <defs>
       <path d="M 50.34375 8.453125 
L 50.34375 0 
L 3.03125 0 
Q 2.9375 3.171875 4.046875 6.109375 
Q 5.859375 10.9375 9.828125 15.625 
Q 13.8125 20.3125 21.34375 26.46875 
Q 33.015625 36.03125 37.109375 41.625 
Q 41.21875 47.21875 41.21875 52.203125 
Q 41.21875 57.421875 37.46875 61 
Q 33.734375 64.59375 27.734375 64.59375 
Q 21.390625 64.59375 17.578125 60.78125 
Q 13.765625 56.984375 13.71875 50.25 
L 4.6875 51.171875 
Q 5.609375 61.28125 11.65625 66.578125 
Q 17.71875 71.875 27.9375 71.875 
Q 38.234375 71.875 44.234375 66.15625 
Q 50.25 60.453125 50.25 52 
Q 50.25 47.703125 48.484375 43.546875 
Q 46.734375 39.40625 42.65625 34.8125 
Q 38.578125 30.21875 29.109375 22.21875 
Q 21.1875 15.578125 18.9375 13.203125 
Q 16.703125 10.84375 15.234375 8.453125 
z
" id="ArialMT-50"/>
      </defs>
      <g style="fill:#262626;" transform="translate(437.380937 384.573594)scale(0.11 -0.11)">
       <use xlink:href="#ArialMT-65"/>
       <use x="66.699219" xlink:href="#ArialMT-100"/>
       <use x="122.314453" xlink:href="#ArialMT-117"/>
       <use x="177.929688" xlink:href="#ArialMT-108"/>
       <use x="200.146484" xlink:href="#ArialMT-116"/>
       <use x="227.929688" xlink:href="#ArialMT-32"/>
       <use x="255.712891" xlink:href="#ArialMT-67"/>
       <use x="327.929688" xlink:href="#ArialMT-111"/>
       <use x="383.544922" xlink:href="#ArialMT-110"/>
       <use x="439.160156" xlink:href="#ArialMT-116"/>
       <use x="466.943359" xlink:href="#ArialMT-114"/>
       <use x="500.244141" xlink:href="#ArialMT-111"/>
       <use x="555.859375" xlink:href="#ArialMT-108"/>
       <use x="578.076172" xlink:href="#ArialMT-32"/>
       <use x="605.859375" xlink:href="#ArialMT-50"/>
      </g>
     </g>
    </g>
    <g id="text_6">
     <!-- Group -->
     <defs>
      <path d="M 41.21875 28.078125 
L 41.21875 36.46875 
L 71.53125 36.53125 
L 71.53125 9.96875 
Q 64.546875 4.390625 57.125 1.578125 
Q 49.703125 -1.21875 41.890625 -1.21875 
Q 31.34375 -1.21875 22.71875 3.296875 
Q 14.109375 7.8125 9.71875 16.359375 
Q 5.328125 24.90625 5.328125 35.453125 
Q 5.328125 45.90625 9.6875 54.953125 
Q 14.0625 64.015625 22.265625 68.40625 
Q 30.46875 72.796875 41.15625 72.796875 
Q 48.921875 72.796875 55.1875 70.28125 
Q 61.46875 67.78125 65.03125 63.28125 
Q 68.609375 58.796875 70.453125 51.5625 
L 61.921875 49.21875 
Q 60.296875 54.6875 57.90625 57.8125 
Q 55.515625 60.9375 51.0625 62.8125 
Q 46.625 64.703125 41.21875 64.703125 
Q 34.71875 64.703125 29.984375 62.71875 
Q 25.25 60.75 22.34375 57.515625 
Q 19.4375 54.296875 17.828125 50.4375 
Q 15.09375 43.796875 15.09375 36.03125 
Q 15.09375 26.46875 18.390625 20.015625 
Q 21.6875 13.578125 27.984375 10.453125 
Q 34.28125 7.328125 41.359375 7.328125 
Q 47.515625 7.328125 53.375 9.6875 
Q 59.234375 12.0625 62.25 14.75 
L 62.25 28.078125 
z
" id="ArialMT-71"/>
      <path d="M 6.59375 -19.875 
L 6.59375 51.859375 
L 14.59375 51.859375 
L 14.59375 45.125 
Q 17.4375 49.078125 21 51.046875 
Q 24.5625 53.03125 29.640625 53.03125 
Q 36.28125 53.03125 41.359375 49.609375 
Q 46.4375 46.1875 49.015625 39.953125 
Q 51.609375 33.734375 51.609375 26.3125 
Q 51.609375 18.359375 48.75 11.984375 
Q 45.90625 5.609375 40.453125 2.21875 
Q 35.015625 -1.171875 29 -1.171875 
Q 24.609375 -1.171875 21.109375 0.6875 
Q 17.625 2.546875 15.375 5.375 
L 15.375 -19.875 
z
M 14.546875 25.640625 
Q 14.546875 15.625 18.59375 10.84375 
Q 22.65625 6.0625 28.421875 6.0625 
Q 34.28125 6.0625 38.453125 11.015625 
Q 42.625 15.96875 42.625 26.375 
Q 42.625 36.28125 38.546875 41.203125 
Q 34.46875 46.140625 28.8125 46.140625 
Q 23.1875 46.140625 18.859375 40.890625 
Q 14.546875 35.640625 14.546875 25.640625 
z
" id="ArialMT-112"/>
     </defs>
     <g style="fill:#262626;" transform="translate(278.525625 399.495469)scale(0.12 -0.12)">
      <use xlink:href="#ArialMT-71"/>
      <use x="77.783203" xlink:href="#ArialMT-114"/>
      <use x="111.083984" xlink:href="#ArialMT-111"/>
      <use x="166.699219" xlink:href="#ArialMT-117"/>
      <use x="222.314453" xlink:href="#ArialMT-112"/>
     </g>
    </g>
   </g>
   <g id="matplotlib.axis_2">
    <g id="ytick_1">
     <g id="line2d_1">
      <path clip-path="url(#p67cdc899b3)" d="M 72 338.906837 
L 518.4 338.906837 
" style="fill:none;stroke:#ffffff;stroke-linecap:round;"/>
     </g>
     <g id="text_7">
      <!-- 0.5 -->
      <defs>
       <path d="M 4.15625 35.296875 
Q 4.15625 48 6.765625 55.734375 
Q 9.375 63.484375 14.515625 67.671875 
Q 19.671875 71.875 27.484375 71.875 
Q 33.25 71.875 37.59375 69.546875 
Q 41.9375 67.234375 44.765625 62.859375 
Q 47.609375 58.5 49.21875 52.21875 
Q 50.828125 45.953125 50.828125 35.296875 
Q 50.828125 22.703125 48.234375 14.96875 
Q 45.65625 7.234375 40.5 3 
Q 35.359375 -1.21875 27.484375 -1.21875 
Q 17.140625 -1.21875 11.234375 6.203125 
Q 4.15625 15.140625 4.15625 35.296875 
z
M 13.1875 35.296875 
Q 13.1875 17.671875 17.3125 11.828125 
Q 21.4375 6 27.484375 6 
Q 33.546875 6 37.671875 11.859375 
Q 41.796875 17.71875 41.796875 35.296875 
Q 41.796875 52.984375 37.671875 58.78125 
Q 33.546875 64.59375 27.390625 64.59375 
Q 21.34375 64.59375 17.71875 59.46875 
Q 13.1875 52.9375 13.1875 35.296875 
z
" id="ArialMT-48"/>
       <path d="M 9.078125 0 
L 9.078125 10.015625 
L 19.09375 10.015625 
L 19.09375 0 
z
" id="ArialMT-46"/>
       <path d="M 4.15625 18.75 
L 13.375 19.53125 
Q 14.40625 12.796875 18.140625 9.390625 
Q 21.875 6 27.15625 6 
Q 33.5 6 37.890625 10.78125 
Q 42.28125 15.578125 42.28125 23.484375 
Q 42.28125 31 38.0625 35.34375 
Q 33.84375 39.703125 27 39.703125 
Q 22.75 39.703125 19.328125 37.765625 
Q 15.921875 35.84375 13.96875 32.765625 
L 5.71875 33.84375 
L 12.640625 70.609375 
L 48.25 70.609375 
L 48.25 62.203125 
L 19.671875 62.203125 
L 15.828125 42.96875 
Q 22.265625 47.46875 29.34375 47.46875 
Q 38.71875 47.46875 45.15625 40.96875 
Q 51.609375 34.46875 51.609375 24.265625 
Q 51.609375 14.546875 45.953125 7.46875 
Q 39.0625 -1.21875 27.15625 -1.21875 
Q 17.390625 -1.21875 11.203125 4.25 
Q 5.03125 9.71875 4.15625 18.75 
z
" id="ArialMT-53"/>
      </defs>
      <g style="fill:#262626;" transform="translate(47.21 342.843634)scale(0.11 -0.11)">
       <use xlink:href="#ArialMT-48"/>
       <use x="55.615234" xlink:href="#ArialMT-46"/>
       <use x="83.398438" xlink:href="#ArialMT-53"/>
      </g>
     </g>
    </g>
    <g id="ytick_2">
     <g id="line2d_2">
      <path clip-path="url(#p67cdc899b3)" d="M 72 283.695863 
L 518.4 283.695863 
" style="fill:none;stroke:#ffffff;stroke-linecap:round;"/>
     </g>
     <g id="text_8">
      <!-- 0.6 -->
      <defs>
       <path d="M 49.75 54.046875 
L 41.015625 53.375 
Q 39.84375 58.546875 37.703125 60.890625 
Q 34.125 64.65625 28.90625 64.65625 
Q 24.703125 64.65625 21.53125 62.3125 
Q 17.390625 59.28125 14.984375 53.46875 
Q 12.59375 47.65625 12.5 36.921875 
Q 15.671875 41.75 20.265625 44.09375 
Q 24.859375 46.4375 29.890625 46.4375 
Q 38.671875 46.4375 44.84375 39.96875 
Q 51.03125 33.5 51.03125 23.25 
Q 51.03125 16.5 48.125 10.71875 
Q 45.21875 4.9375 40.140625 1.859375 
Q 35.0625 -1.21875 28.609375 -1.21875 
Q 17.625 -1.21875 10.6875 6.859375 
Q 3.765625 14.9375 3.765625 33.5 
Q 3.765625 54.25 11.421875 63.671875 
Q 18.109375 71.875 29.4375 71.875 
Q 37.890625 71.875 43.28125 67.140625 
Q 48.6875 62.40625 49.75 54.046875 
z
M 13.875 23.1875 
Q 13.875 18.65625 15.796875 14.5 
Q 17.71875 10.359375 21.1875 8.171875 
Q 24.65625 6 28.46875 6 
Q 34.03125 6 38.03125 10.484375 
Q 42.046875 14.984375 42.046875 22.703125 
Q 42.046875 30.125 38.078125 34.390625 
Q 34.125 38.671875 28.125 38.671875 
Q 22.171875 38.671875 18.015625 34.390625 
Q 13.875 30.125 13.875 23.1875 
z
" id="ArialMT-54"/>
      </defs>
      <g style="fill:#262626;" transform="translate(47.21 287.632659)scale(0.11 -0.11)">
       <use xlink:href="#ArialMT-48"/>
       <use x="55.615234" xlink:href="#ArialMT-46"/>
       <use x="83.398438" xlink:href="#ArialMT-54"/>
      </g>
     </g>
    </g>
    <g id="ytick_3">
     <g id="line2d_3">
      <path clip-path="url(#p67cdc899b3)" d="M 72 228.484888 
L 518.4 228.484888 
" style="fill:none;stroke:#ffffff;stroke-linecap:round;"/>
     </g>
     <g id="text_9">
      <!-- 0.7 -->
      <defs>
       <path d="M 4.734375 62.203125 
L 4.734375 70.65625 
L 51.078125 70.65625 
L 51.078125 63.8125 
Q 44.234375 56.546875 37.515625 44.484375 
Q 30.8125 32.421875 27.15625 19.671875 
Q 24.515625 10.6875 23.78125 0 
L 14.75 0 
Q 14.890625 8.453125 18.0625 20.40625 
Q 21.234375 32.375 27.171875 43.484375 
Q 33.109375 54.59375 39.796875 62.203125 
z
" id="ArialMT-55"/>
      </defs>
      <g style="fill:#262626;" transform="translate(47.21 232.421685)scale(0.11 -0.11)">
       <use xlink:href="#ArialMT-48"/>
       <use x="55.615234" xlink:href="#ArialMT-46"/>
       <use x="83.398438" xlink:href="#ArialMT-55"/>
      </g>
     </g>
    </g>
    <g id="ytick_4">
     <g id="line2d_4">
      <path clip-path="url(#p67cdc899b3)" d="M 72 173.273913 
L 518.4 173.273913 
" style="fill:none;stroke:#ffffff;stroke-linecap:round;"/>
     </g>
     <g id="text_10">
      <!-- 0.8 -->
      <defs>
       <path d="M 17.671875 38.8125 
Q 12.203125 40.828125 9.5625 44.53125 
Q 6.9375 48.25 6.9375 53.421875 
Q 6.9375 61.234375 12.546875 66.546875 
Q 18.171875 71.875 27.484375 71.875 
Q 36.859375 71.875 42.578125 66.421875 
Q 48.296875 60.984375 48.296875 53.171875 
Q 48.296875 48.1875 45.671875 44.5 
Q 43.0625 40.828125 37.75 38.8125 
Q 44.34375 36.671875 47.78125 31.875 
Q 51.21875 27.09375 51.21875 20.453125 
Q 51.21875 11.28125 44.71875 5.03125 
Q 38.234375 -1.21875 27.640625 -1.21875 
Q 17.046875 -1.21875 10.546875 5.046875 
Q 4.046875 11.328125 4.046875 20.703125 
Q 4.046875 27.6875 7.59375 32.390625 
Q 11.140625 37.109375 17.671875 38.8125 
z
M 15.921875 53.71875 
Q 15.921875 48.640625 19.1875 45.40625 
Q 22.46875 42.1875 27.6875 42.1875 
Q 32.765625 42.1875 36.015625 45.375 
Q 39.265625 48.578125 39.265625 53.21875 
Q 39.265625 58.0625 35.90625 61.359375 
Q 32.5625 64.65625 27.59375 64.65625 
Q 22.5625 64.65625 19.234375 61.421875 
Q 15.921875 58.203125 15.921875 53.71875 
z
M 13.09375 20.65625 
Q 13.09375 16.890625 14.875 13.375 
Q 16.65625 9.859375 20.171875 7.921875 
Q 23.6875 6 27.734375 6 
Q 34.03125 6 38.125 10.046875 
Q 42.234375 14.109375 42.234375 20.359375 
Q 42.234375 26.703125 38.015625 30.859375 
Q 33.796875 35.015625 27.4375 35.015625 
Q 21.234375 35.015625 17.15625 30.90625 
Q 13.09375 26.8125 13.09375 20.65625 
z
" id="ArialMT-56"/>
      </defs>
      <g style="fill:#262626;" transform="translate(47.21 177.21071)scale(0.11 -0.11)">
       <use xlink:href="#ArialMT-48"/>
       <use x="55.615234" xlink:href="#ArialMT-46"/>
       <use x="83.398438" xlink:href="#ArialMT-56"/>
      </g>
     </g>
    </g>
    <g id="ytick_5">
     <g id="line2d_5">
      <path clip-path="url(#p67cdc899b3)" d="M 72 118.062938 
L 518.4 118.062938 
" style="fill:none;stroke:#ffffff;stroke-linecap:round;"/>
     </g>
     <g id="text_11">
      <!-- 0.9 -->
      <defs>
       <path d="M 5.46875 16.546875 
L 13.921875 17.328125 
Q 14.984375 11.375 18.015625 8.6875 
Q 21.046875 6 25.78125 6 
Q 29.828125 6 32.875 7.859375 
Q 35.9375 9.71875 37.890625 12.8125 
Q 39.84375 15.921875 41.15625 21.1875 
Q 42.484375 26.46875 42.484375 31.9375 
Q 42.484375 32.515625 42.4375 33.6875 
Q 39.796875 29.5 35.234375 26.875 
Q 30.671875 24.265625 25.34375 24.265625 
Q 16.453125 24.265625 10.296875 30.703125 
Q 4.15625 37.15625 4.15625 47.703125 
Q 4.15625 58.59375 10.578125 65.234375 
Q 17 71.875 26.65625 71.875 
Q 33.640625 71.875 39.421875 68.109375 
Q 45.21875 64.359375 48.21875 57.390625 
Q 51.21875 50.4375 51.21875 37.25 
Q 51.21875 23.53125 48.234375 15.40625 
Q 45.265625 7.28125 39.375 3.03125 
Q 33.5 -1.21875 25.59375 -1.21875 
Q 17.1875 -1.21875 11.859375 3.4375 
Q 6.546875 8.109375 5.46875 16.546875 
z
M 41.453125 48.140625 
Q 41.453125 55.71875 37.421875 60.15625 
Q 33.40625 64.59375 27.734375 64.59375 
Q 21.875 64.59375 17.53125 59.8125 
Q 13.1875 55.03125 13.1875 47.40625 
Q 13.1875 40.578125 17.3125 36.296875 
Q 21.4375 32.03125 27.484375 32.03125 
Q 33.59375 32.03125 37.515625 36.296875 
Q 41.453125 40.578125 41.453125 48.140625 
z
" id="ArialMT-57"/>
      </defs>
      <g style="fill:#262626;" transform="translate(47.21 121.999735)scale(0.11 -0.11)">
       <use xlink:href="#ArialMT-48"/>
       <use x="55.615234" xlink:href="#ArialMT-46"/>
       <use x="83.398438" xlink:href="#ArialMT-57"/>
      </g>
     </g>
    </g>
    <g id="ytick_6">
     <g id="line2d_6">
      <path clip-path="url(#p67cdc899b3)" d="M 72 62.851963 
L 518.4 62.851963 
" style="fill:none;stroke:#ffffff;stroke-linecap:round;"/>
     </g>
     <g id="text_12">
      <!-- 1.0 -->
      <g style="fill:#262626;" transform="translate(47.21 66.78876)scale(0.11 -0.11)">
       <use xlink:href="#ArialMT-49"/>
       <use x="55.615234" xlink:href="#ArialMT-46"/>
       <use x="83.398438" xlink:href="#ArialMT-48"/>
      </g>
     </g>
    </g>
    <g id="text_13">
     <!-- Values -->
     <defs>
      <path d="M 28.171875 0 
L 0.4375 71.578125 
L 10.6875 71.578125 
L 29.296875 19.578125 
Q 31.546875 13.328125 33.0625 7.859375 
Q 34.71875 13.71875 36.921875 19.578125 
L 56.25 71.578125 
L 65.921875 71.578125 
L 37.890625 0 
z
" id="ArialMT-86"/>
      <path d="M 40.4375 6.390625 
Q 35.546875 2.25 31.03125 0.53125 
Q 26.515625 -1.171875 21.34375 -1.171875 
Q 12.796875 -1.171875 8.203125 3 
Q 3.609375 7.171875 3.609375 13.671875 
Q 3.609375 17.484375 5.34375 20.625 
Q 7.078125 23.78125 9.890625 25.6875 
Q 12.703125 27.59375 16.21875 28.5625 
Q 18.796875 29.25 24.03125 29.890625 
Q 34.671875 31.15625 39.703125 32.90625 
Q 39.75 34.71875 39.75 35.203125 
Q 39.75 40.578125 37.25 42.78125 
Q 33.890625 45.75 27.25 45.75 
Q 21.046875 45.75 18.09375 43.578125 
Q 15.140625 41.40625 13.71875 35.890625 
L 5.125 37.0625 
Q 6.296875 42.578125 8.984375 45.96875 
Q 11.671875 49.359375 16.75 51.1875 
Q 21.828125 53.03125 28.515625 53.03125 
Q 35.15625 53.03125 39.296875 51.46875 
Q 43.453125 49.90625 45.40625 47.53125 
Q 47.359375 45.171875 48.140625 41.546875 
Q 48.578125 39.3125 48.578125 33.453125 
L 48.578125 21.734375 
Q 48.578125 9.46875 49.140625 6.21875 
Q 49.703125 2.984375 51.375 0 
L 42.1875 0 
Q 40.828125 2.734375 40.4375 6.390625 
z
M 39.703125 26.03125 
Q 34.90625 24.078125 25.34375 22.703125 
Q 19.921875 21.921875 17.671875 20.9375 
Q 15.4375 19.96875 14.203125 18.09375 
Q 12.984375 16.21875 12.984375 13.921875 
Q 12.984375 10.40625 15.640625 8.0625 
Q 18.3125 5.71875 23.4375 5.71875 
Q 28.515625 5.71875 32.46875 7.9375 
Q 36.421875 10.15625 38.28125 14.015625 
Q 39.703125 17 39.703125 22.796875 
z
" id="ArialMT-97"/>
      <path d="M 42.09375 16.703125 
L 51.171875 15.578125 
Q 49.03125 7.625 43.21875 3.21875 
Q 37.40625 -1.171875 28.375 -1.171875 
Q 17 -1.171875 10.328125 5.828125 
Q 3.65625 12.84375 3.65625 25.484375 
Q 3.65625 38.578125 10.390625 45.796875 
Q 17.140625 53.03125 27.875 53.03125 
Q 38.28125 53.03125 44.875 45.953125 
Q 51.46875 38.875 51.46875 26.03125 
Q 51.46875 25.25 51.421875 23.6875 
L 12.75 23.6875 
Q 13.234375 15.140625 17.578125 10.59375 
Q 21.921875 6.0625 28.421875 6.0625 
Q 33.25 6.0625 36.671875 8.59375 
Q 40.09375 11.140625 42.09375 16.703125 
z
M 13.234375 30.90625 
L 42.1875 30.90625 
Q 41.609375 37.453125 38.875 40.71875 
Q 34.671875 45.796875 27.984375 45.796875 
Q 21.921875 45.796875 17.796875 41.75 
Q 13.671875 37.703125 13.234375 30.90625 
z
" id="ArialMT-101"/>
      <path d="M 3.078125 15.484375 
L 11.765625 16.84375 
Q 12.5 11.625 15.84375 8.84375 
Q 19.1875 6.0625 25.203125 6.0625 
Q 31.25 6.0625 34.171875 8.515625 
Q 37.109375 10.984375 37.109375 14.3125 
Q 37.109375 17.28125 34.515625 19 
Q 32.71875 20.171875 25.53125 21.96875 
Q 15.875 24.421875 12.140625 26.203125 
Q 8.40625 27.984375 6.46875 31.125 
Q 4.546875 34.28125 4.546875 38.09375 
Q 4.546875 41.546875 6.125 44.5 
Q 7.71875 47.46875 10.453125 49.421875 
Q 12.5 50.921875 16.03125 51.96875 
Q 19.578125 53.03125 23.640625 53.03125 
Q 29.734375 53.03125 34.34375 51.265625 
Q 38.96875 49.515625 41.15625 46.5 
Q 43.359375 43.5 44.1875 38.484375 
L 35.59375 37.3125 
Q 35.015625 41.3125 32.203125 43.546875 
Q 29.390625 45.796875 24.265625 45.796875 
Q 18.21875 45.796875 15.625 43.796875 
Q 13.03125 41.796875 13.03125 39.109375 
Q 13.03125 37.40625 14.109375 36.03125 
Q 15.1875 34.625 17.484375 33.6875 
Q 18.796875 33.203125 25.25 31.453125 
Q 34.578125 28.953125 38.25 27.359375 
Q 41.9375 25.78125 44.03125 22.75 
Q 46.140625 19.734375 46.140625 15.234375 
Q 46.140625 10.84375 43.578125 6.953125 
Q 41.015625 3.078125 36.171875 0.953125 
Q 31.34375 -1.171875 25.25 -1.171875 
Q 15.140625 -1.171875 9.84375 3.03125 
Q 4.546875 7.234375 3.078125 15.484375 
z
" id="ArialMT-115"/>
     </defs>
     <g style="fill:#262626;" transform="translate(40.825 227.858437)rotate(-90)scale(0.12 -0.12)">
      <use xlink:href="#ArialMT-86"/>
      <use x="66.589844" xlink:href="#ArialMT-97"/>
      <use x="122.205078" xlink:href="#ArialMT-108"/>
      <use x="144.421875" xlink:href="#ArialMT-117"/>
      <use x="200.037109" xlink:href="#ArialMT-101"/>
      <use x="255.652344" xlink:href="#ArialMT-115"/>
     </g>
    </g>
   </g>
   <g id="patch_3">
    <path clip-path="url(#p67cdc899b3)" d="M 81.16608 163.385482 
L 104.49792 163.385482 
L 104.49792 116.928643 
L 81.16608 116.928643 
L 81.16608 163.385482 
z
" style="fill:#176d9c;stroke:#303030;stroke-linejoin:miter;"/>
   </g>
   <g id="patch_4">
    <path clip-path="url(#p67cdc899b3)" d="M 104.97408 192.481941 
L 128.30592 192.481941 
L 128.30592 111.104844 
L 104.97408 111.104844 
L 104.97408 192.481941 
z
" style="fill:#c38820;stroke:#303030;stroke-linejoin:miter;"/>
   </g>
   <g id="patch_5">
    <path clip-path="url(#p67cdc899b3)" d="M 128.78208 134.190515 
L 152.11392 134.190515 
L 152.11392 93.844552 
L 128.78208 93.844552 
L 128.78208 134.190515 
z
" style="fill:#158b6a;stroke:#303030;stroke-linejoin:miter;"/>
   </g>
   <g id="patch_6">
    <path clip-path="url(#p67cdc899b3)" d="M 170.44608 183.803197 
L 193.77792 183.803197 
L 193.77792 113.869732 
L 170.44608 113.869732 
L 170.44608 183.803197 
z
" style="fill:#176d9c;stroke:#303030;stroke-linejoin:miter;"/>
   </g>
   <g id="patch_7">
    <path clip-path="url(#p67cdc899b3)" d="M 194.25408 210.884725 
L 217.58592 210.884725 
L 217.58592 125.00957 
L 194.25408 125.00957 
L 194.25408 210.884725 
z
" style="fill:#c38820;stroke:#303030;stroke-linejoin:miter;"/>
   </g>
   <g id="patch_8">
    <path clip-path="url(#p67cdc899b3)" d="M 218.06208 126.401671 
L 241.39392 126.401671 
L 241.39392 93.408692 
L 218.06208 93.408692 
L 218.06208 126.401671 
z
" style="fill:#158b6a;stroke:#303030;stroke-linejoin:miter;"/>
   </g>
   <g id="patch_9">
    <path clip-path="url(#p67cdc899b3)" d="M 259.72608 112.888283 
L 283.05792 112.888283 
L 283.05792 86.779972 
L 259.72608 86.779972 
L 259.72608 112.888283 
z
" style="fill:#176d9c;stroke:#303030;stroke-linejoin:miter;"/>
   </g>
   <g id="patch_10">
    <path clip-path="url(#p67cdc899b3)" d="M 283.53408 127.263999 
L 306.86592 127.263999 
L 306.86592 100.072243 
L 283.53408 100.072243 
L 283.53408 127.263999 
z
" style="fill:#c38820;stroke:#303030;stroke-linejoin:miter;"/>
   </g>
   <g id="patch_11">
    <path clip-path="url(#p67cdc899b3)" d="M 307.34208 110.847982 
L 330.67392 110.847982 
L 330.67392 86.545182 
L 307.34208 86.545182 
L 307.34208 110.847982 
z
" style="fill:#158b6a;stroke:#303030;stroke-linejoin:miter;"/>
   </g>
   <g id="patch_12">
    <path clip-path="url(#p67cdc899b3)" d="M 349.00608 112.135651 
L 372.33792 112.135651 
L 372.33792 86.842684 
L 349.00608 86.842684 
L 349.00608 112.135651 
z
" style="fill:#176d9c;stroke:#303030;stroke-linejoin:miter;"/>
   </g>
   <g id="patch_13">
    <path clip-path="url(#p67cdc899b3)" d="M 372.81408 116.838735 
L 396.14592 116.838735 
L 396.14592 78.830889 
L 372.81408 78.830889 
L 372.81408 116.838735 
z
" style="fill:#c38820;stroke:#303030;stroke-linejoin:miter;"/>
   </g>
   <g id="patch_14">
    <path clip-path="url(#p67cdc899b3)" d="M 396.62208 93.499589 
L 419.95392 93.499589 
L 419.95392 80.270205 
L 396.62208 80.270205 
L 396.62208 93.499589 
z
" style="fill:#158b6a;stroke:#303030;stroke-linejoin:miter;"/>
   </g>
   <g id="patch_15">
    <path clip-path="url(#p67cdc899b3)" d="M 438.28608 98.986917 
L 461.61792 98.986917 
L 461.61792 82.654321 
L 438.28608 82.654321 
L 438.28608 98.986917 
z
" style="fill:#176d9c;stroke:#303030;stroke-linejoin:miter;"/>
   </g>
   <g id="patch_16">
    <path clip-path="url(#p67cdc899b3)" d="M 462.09408 103.064658 
L 485.42592 103.064658 
L 485.42592 80.727487 
L 462.09408 80.727487 
L 462.09408 103.064658 
z
" style="fill:#c38820;stroke:#303030;stroke-linejoin:miter;"/>
   </g>
   <g id="patch_17">
    <path clip-path="url(#p67cdc899b3)" d="M 485.90208 89.31309 
L 509.23392 89.31309 
L 509.23392 79.776188 
L 485.90208 79.776188 
L 485.90208 89.31309 
z
" style="fill:#158b6a;stroke:#303030;stroke-linejoin:miter;"/>
   </g>
   <g id="PathCollection_1"/>
   <g id="PathCollection_2"/>
   <g id="PathCollection_3"/>
   <g id="patch_18">
    <path clip-path="url(#p67cdc899b3)" d="M 116.64 614.961712 
L 116.64 614.961712 
L 116.64 614.961712 
L 116.64 614.961712 
z
" style="fill:#176d9c;stroke:#303030;stroke-linejoin:miter;stroke-width:0.5;"/>
   </g>
   <g id="patch_19">
    <path clip-path="url(#p67cdc899b3)" d="M 116.64 614.961712 
L 116.64 614.961712 
L 116.64 614.961712 
L 116.64 614.961712 
z
" style="fill:#c38820;stroke:#303030;stroke-linejoin:miter;stroke-width:0.5;"/>
   </g>
   <g id="patch_20">
    <path clip-path="url(#p67cdc899b3)" d="M 116.64 614.961712 
L 116.64 614.961712 
L 116.64 614.961712 
L 116.64 614.961712 
z
" style="fill:#158b6a;stroke:#303030;stroke-linejoin:miter;stroke-width:0.5;"/>
   </g>
   <g id="line2d_7">
    <path clip-path="url(#p67cdc899b3)" d="M 92.832 163.385482 
L 92.832 200.909751 
" style="fill:none;stroke:#303030;stroke-linecap:round;"/>
   </g>
   <g id="line2d_8">
    <path clip-path="url(#p67cdc899b3)" d="M 92.832 116.928643 
L 92.832 74.345076 
" style="fill:none;stroke:#303030;stroke-linecap:round;"/>
   </g>
   <g id="line2d_9">
    <path clip-path="url(#p67cdc899b3)" d="M 86.99904 200.909751 
L 98.66496 200.909751 
" style="fill:none;stroke:#303030;stroke-linecap:round;"/>
   </g>
   <g id="line2d_10">
    <path clip-path="url(#p67cdc899b3)" d="M 86.99904 74.345076 
L 98.66496 74.345076 
" style="fill:none;stroke:#303030;stroke-linecap:round;"/>
   </g>
   <g id="line2d_11">
    <path clip-path="url(#p67cdc899b3)" d="M 116.64 192.481941 
L 116.64 216.52347 
" style="fill:none;stroke:#303030;stroke-linecap:round;"/>
   </g>
   <g id="line2d_12">
    <path clip-path="url(#p67cdc899b3)" d="M 116.64 111.104844 
L 116.64 81.057083 
" style="fill:none;stroke:#303030;stroke-linecap:round;"/>
   </g>
   <g id="line2d_13">
    <path clip-path="url(#p67cdc899b3)" d="M 110.80704 216.52347 
L 122.47296 216.52347 
" style="fill:none;stroke:#303030;stroke-linecap:round;"/>
   </g>
   <g id="line2d_14">
    <path clip-path="url(#p67cdc899b3)" d="M 110.80704 81.057083 
L 122.47296 81.057083 
" style="fill:none;stroke:#303030;stroke-linecap:round;"/>
   </g>
   <g id="line2d_15">
    <path clip-path="url(#p67cdc899b3)" d="M 140.448 134.190515 
L 140.448 153.413954 
" style="fill:none;stroke:#303030;stroke-linecap:round;"/>
   </g>
   <g id="line2d_16">
    <path clip-path="url(#p67cdc899b3)" d="M 140.448 93.844552 
L 140.448 69.875691 
" style="fill:none;stroke:#303030;stroke-linecap:round;"/>
   </g>
   <g id="line2d_17">
    <path clip-path="url(#p67cdc899b3)" d="M 134.61504 153.413954 
L 146.28096 153.413954 
" style="fill:none;stroke:#303030;stroke-linecap:round;"/>
   </g>
   <g id="line2d_18">
    <path clip-path="url(#p67cdc899b3)" d="M 134.61504 69.875691 
L 146.28096 69.875691 
" style="fill:none;stroke:#303030;stroke-linecap:round;"/>
   </g>
   <g id="line2d_19">
    <path clip-path="url(#p67cdc899b3)" d="M 182.112 183.803197 
L 182.112 218.453781 
" style="fill:none;stroke:#303030;stroke-linecap:round;"/>
   </g>
   <g id="line2d_20">
    <path clip-path="url(#p67cdc899b3)" d="M 182.112 113.869732 
L 182.112 70.395834 
" style="fill:none;stroke:#303030;stroke-linecap:round;"/>
   </g>
   <g id="line2d_21">
    <path clip-path="url(#p67cdc899b3)" d="M 176.27904 218.453781 
L 187.94496 218.453781 
" style="fill:none;stroke:#303030;stroke-linecap:round;"/>
   </g>
   <g id="line2d_22">
    <path clip-path="url(#p67cdc899b3)" d="M 176.27904 70.395834 
L 187.94496 70.395834 
" style="fill:none;stroke:#303030;stroke-linecap:round;"/>
   </g>
   <g id="line2d_23">
    <path clip-path="url(#p67cdc899b3)" d="M 205.92 210.884725 
L 205.92 244.700887 
" style="fill:none;stroke:#303030;stroke-linecap:round;"/>
   </g>
   <g id="line2d_24">
    <path clip-path="url(#p67cdc899b3)" d="M 205.92 125.00957 
L 205.92 71.09264 
" style="fill:none;stroke:#303030;stroke-linecap:round;"/>
   </g>
   <g id="line2d_25">
    <path clip-path="url(#p67cdc899b3)" d="M 200.08704 244.700887 
L 211.75296 244.700887 
" style="fill:none;stroke:#303030;stroke-linecap:round;"/>
   </g>
   <g id="line2d_26">
    <path clip-path="url(#p67cdc899b3)" d="M 200.08704 71.09264 
L 211.75296 71.09264 
" style="fill:none;stroke:#303030;stroke-linecap:round;"/>
   </g>
   <g id="line2d_27">
    <path clip-path="url(#p67cdc899b3)" d="M 229.728 126.401671 
L 229.728 142.866097 
" style="fill:none;stroke:#303030;stroke-linecap:round;"/>
   </g>
   <g id="line2d_28">
    <path clip-path="url(#p67cdc899b3)" d="M 229.728 93.408692 
L 229.728 77.920451 
" style="fill:none;stroke:#303030;stroke-linecap:round;"/>
   </g>
   <g id="line2d_29">
    <path clip-path="url(#p67cdc899b3)" d="M 223.89504 142.866097 
L 235.56096 142.866097 
" style="fill:none;stroke:#303030;stroke-linecap:round;"/>
   </g>
   <g id="line2d_30">
    <path clip-path="url(#p67cdc899b3)" d="M 223.89504 77.920451 
L 235.56096 77.920451 
" style="fill:none;stroke:#303030;stroke-linecap:round;"/>
   </g>
   <g id="line2d_31">
    <path clip-path="url(#p67cdc899b3)" d="M 271.392 112.888283 
L 271.392 119.082623 
" style="fill:none;stroke:#303030;stroke-linecap:round;"/>
   </g>
   <g id="line2d_32">
    <path clip-path="url(#p67cdc899b3)" d="M 271.392 86.779972 
L 271.392 75.122067 
" style="fill:none;stroke:#303030;stroke-linecap:round;"/>
   </g>
   <g id="line2d_33">
    <path clip-path="url(#p67cdc899b3)" d="M 265.55904 119.082623 
L 277.22496 119.082623 
" style="fill:none;stroke:#303030;stroke-linecap:round;"/>
   </g>
   <g id="line2d_34">
    <path clip-path="url(#p67cdc899b3)" d="M 265.55904 75.122067 
L 277.22496 75.122067 
" style="fill:none;stroke:#303030;stroke-linecap:round;"/>
   </g>
   <g id="line2d_35">
    <path clip-path="url(#p67cdc899b3)" d="M 295.2 127.263999 
L 295.2 154.356331 
" style="fill:none;stroke:#303030;stroke-linecap:round;"/>
   </g>
   <g id="line2d_36">
    <path clip-path="url(#p67cdc899b3)" d="M 295.2 100.072243 
L 295.2 70.836949 
" style="fill:none;stroke:#303030;stroke-linecap:round;"/>
   </g>
   <g id="line2d_37">
    <path clip-path="url(#p67cdc899b3)" d="M 289.36704 154.356331 
L 301.03296 154.356331 
" style="fill:none;stroke:#303030;stroke-linecap:round;"/>
   </g>
   <g id="line2d_38">
    <path clip-path="url(#p67cdc899b3)" d="M 289.36704 70.836949 
L 301.03296 70.836949 
" style="fill:none;stroke:#303030;stroke-linecap:round;"/>
   </g>
   <g id="line2d_39">
    <path clip-path="url(#p67cdc899b3)" d="M 319.008 110.847982 
L 319.008 133.325179 
" style="fill:none;stroke:#303030;stroke-linecap:round;"/>
   </g>
   <g id="line2d_40">
    <path clip-path="url(#p67cdc899b3)" d="M 319.008 86.545182 
L 319.008 77.817317 
" style="fill:none;stroke:#303030;stroke-linecap:round;"/>
   </g>
   <g id="line2d_41">
    <path clip-path="url(#p67cdc899b3)" d="M 313.17504 133.325179 
L 324.84096 133.325179 
" style="fill:none;stroke:#303030;stroke-linecap:round;"/>
   </g>
   <g id="line2d_42">
    <path clip-path="url(#p67cdc899b3)" d="M 313.17504 77.817317 
L 324.84096 77.817317 
" style="fill:none;stroke:#303030;stroke-linecap:round;"/>
   </g>
   <g id="line2d_43">
    <path clip-path="url(#p67cdc899b3)" d="M 360.672 112.135651 
L 360.672 141.560257 
" style="fill:none;stroke:#303030;stroke-linecap:round;"/>
   </g>
   <g id="line2d_44">
    <path clip-path="url(#p67cdc899b3)" d="M 360.672 86.842684 
L 360.672 70.477868 
" style="fill:none;stroke:#303030;stroke-linecap:round;"/>
   </g>
   <g id="line2d_45">
    <path clip-path="url(#p67cdc899b3)" d="M 354.83904 141.560257 
L 366.50496 141.560257 
" style="fill:none;stroke:#303030;stroke-linecap:round;"/>
   </g>
   <g id="line2d_46">
    <path clip-path="url(#p67cdc899b3)" d="M 354.83904 70.477868 
L 366.50496 70.477868 
" style="fill:none;stroke:#303030;stroke-linecap:round;"/>
   </g>
   <g id="line2d_47">
    <path clip-path="url(#p67cdc899b3)" d="M 384.48 116.838735 
L 384.48 135.832133 
" style="fill:none;stroke:#303030;stroke-linecap:round;"/>
   </g>
   <g id="line2d_48">
    <path clip-path="url(#p67cdc899b3)" d="M 384.48 78.830889 
L 384.48 69.52183 
" style="fill:none;stroke:#303030;stroke-linecap:round;"/>
   </g>
   <g id="line2d_49">
    <path clip-path="url(#p67cdc899b3)" d="M 378.64704 135.832133 
L 390.31296 135.832133 
" style="fill:none;stroke:#303030;stroke-linecap:round;"/>
   </g>
   <g id="line2d_50">
    <path clip-path="url(#p67cdc899b3)" d="M 378.64704 69.52183 
L 390.31296 69.52183 
" style="fill:none;stroke:#303030;stroke-linecap:round;"/>
   </g>
   <g id="line2d_51">
    <path clip-path="url(#p67cdc899b3)" d="M 408.288 93.499589 
L 408.288 109.060837 
" style="fill:none;stroke:#303030;stroke-linecap:round;"/>
   </g>
   <g id="line2d_52">
    <path clip-path="url(#p67cdc899b3)" d="M 408.288 80.270205 
L 408.288 72.712155 
" style="fill:none;stroke:#303030;stroke-linecap:round;"/>
   </g>
   <g id="line2d_53">
    <path clip-path="url(#p67cdc899b3)" d="M 402.45504 109.060837 
L 414.12096 109.060837 
" style="fill:none;stroke:#303030;stroke-linecap:round;"/>
   </g>
   <g id="line2d_54">
    <path clip-path="url(#p67cdc899b3)" d="M 402.45504 72.712155 
L 414.12096 72.712155 
" style="fill:none;stroke:#303030;stroke-linecap:round;"/>
   </g>
   <g id="line2d_55">
    <path clip-path="url(#p67cdc899b3)" d="M 449.952 98.986917 
L 449.952 118.350072 
" style="fill:none;stroke:#303030;stroke-linecap:round;"/>
   </g>
   <g id="line2d_56">
    <path clip-path="url(#p67cdc899b3)" d="M 449.952 82.654321 
L 449.952 71.1173 
" style="fill:none;stroke:#303030;stroke-linecap:round;"/>
   </g>
   <g id="line2d_57">
    <path clip-path="url(#p67cdc899b3)" d="M 444.11904 118.350072 
L 455.78496 118.350072 
" style="fill:none;stroke:#303030;stroke-linecap:round;"/>
   </g>
   <g id="line2d_58">
    <path clip-path="url(#p67cdc899b3)" d="M 444.11904 71.1173 
L 455.78496 71.1173 
" style="fill:none;stroke:#303030;stroke-linecap:round;"/>
   </g>
   <g id="line2d_59">
    <path clip-path="url(#p67cdc899b3)" d="M 473.76 103.064658 
L 473.76 131.140131 
" style="fill:none;stroke:#303030;stroke-linecap:round;"/>
   </g>
   <g id="line2d_60">
    <path clip-path="url(#p67cdc899b3)" d="M 473.76 80.727487 
L 473.76 67.871212 
" style="fill:none;stroke:#303030;stroke-linecap:round;"/>
   </g>
   <g id="line2d_61">
    <path clip-path="url(#p67cdc899b3)" d="M 467.92704 131.140131 
L 479.59296 131.140131 
" style="fill:none;stroke:#303030;stroke-linecap:round;"/>
   </g>
   <g id="line2d_62">
    <path clip-path="url(#p67cdc899b3)" d="M 467.92704 67.871212 
L 479.59296 67.871212 
" style="fill:none;stroke:#303030;stroke-linecap:round;"/>
   </g>
   <g id="line2d_63">
    <path clip-path="url(#p67cdc899b3)" d="M 497.568 89.31309 
L 497.568 102.417949 
" style="fill:none;stroke:#303030;stroke-linecap:round;"/>
   </g>
   <g id="line2d_64">
    <path clip-path="url(#p67cdc899b3)" d="M 497.568 79.776188 
L 497.568 70.655318 
" style="fill:none;stroke:#303030;stroke-linecap:round;"/>
   </g>
   <g id="line2d_65">
    <path clip-path="url(#p67cdc899b3)" d="M 491.73504 102.417949 
L 503.40096 102.417949 
" style="fill:none;stroke:#303030;stroke-linecap:round;"/>
   </g>
   <g id="line2d_66">
    <path clip-path="url(#p67cdc899b3)" d="M 491.73504 70.655318 
L 503.40096 70.655318 
" style="fill:none;stroke:#303030;stroke-linecap:round;"/>
   </g>
   <g id="line2d_67">
    <path clip-path="url(#p67cdc899b3)" d="M 81.16608 138.351263 
L 104.49792 138.351263 
" style="fill:none;stroke:#303030;stroke-linecap:round;"/>
   </g>
   <g id="line2d_68">
    <path clip-path="url(#p67cdc899b3)" d="M 104.97408 137.335255 
L 128.30592 137.335255 
" style="fill:none;stroke:#303030;stroke-linecap:round;"/>
   </g>
   <g id="line2d_69">
    <path clip-path="url(#p67cdc899b3)" d="M 128.78208 112.380085 
L 152.11392 112.380085 
" style="fill:none;stroke:#303030;stroke-linecap:round;"/>
   </g>
   <g id="line2d_70">
    <path clip-path="url(#p67cdc899b3)" d="M 170.44608 149.408122 
L 193.77792 149.408122 
" style="fill:none;stroke:#303030;stroke-linecap:round;"/>
   </g>
   <g id="line2d_71">
    <path clip-path="url(#p67cdc899b3)" d="M 194.25408 165.430439 
L 217.58592 165.430439 
" style="fill:none;stroke:#303030;stroke-linecap:round;"/>
   </g>
   <g id="line2d_72">
    <path clip-path="url(#p67cdc899b3)" d="M 218.06208 105.647508 
L 241.39392 105.647508 
" style="fill:none;stroke:#303030;stroke-linecap:round;"/>
   </g>
   <g id="line2d_73">
    <path clip-path="url(#p67cdc899b3)" d="M 259.72608 102.541415 
L 283.05792 102.541415 
" style="fill:none;stroke:#303030;stroke-linecap:round;"/>
   </g>
   <g id="line2d_74">
    <path clip-path="url(#p67cdc899b3)" d="M 283.53408 102.603908 
L 306.86592 102.603908 
" style="fill:none;stroke:#303030;stroke-linecap:round;"/>
   </g>
   <g id="line2d_75">
    <path clip-path="url(#p67cdc899b3)" d="M 307.34208 90.068238 
L 330.67392 90.068238 
" style="fill:none;stroke:#303030;stroke-linecap:round;"/>
   </g>
   <g id="line2d_76">
    <path clip-path="url(#p67cdc899b3)" d="M 349.00608 100.818079 
L 372.33792 100.818079 
" style="fill:none;stroke:#303030;stroke-linecap:round;"/>
   </g>
   <g id="line2d_77">
    <path clip-path="url(#p67cdc899b3)" d="M 372.81408 92.696351 
L 396.14592 92.696351 
" style="fill:none;stroke:#303030;stroke-linecap:round;"/>
   </g>
   <g id="line2d_78">
    <path clip-path="url(#p67cdc899b3)" d="M 396.62208 81.929468 
L 419.95392 81.929468 
" style="fill:none;stroke:#303030;stroke-linecap:round;"/>
   </g>
   <g id="line2d_79">
    <path clip-path="url(#p67cdc899b3)" d="M 438.28608 91.203891 
L 461.61792 91.203891 
" style="fill:none;stroke:#303030;stroke-linecap:round;"/>
   </g>
   <g id="line2d_80">
    <path clip-path="url(#p67cdc899b3)" d="M 462.09408 86.370055 
L 485.42592 86.370055 
" style="fill:none;stroke:#303030;stroke-linecap:round;"/>
   </g>
   <g id="line2d_81">
    <path clip-path="url(#p67cdc899b3)" d="M 485.90208 84.308419 
L 509.23392 84.308419 
" style="fill:none;stroke:#303030;stroke-linecap:round;"/>
   </g>
   <g id="patch_21">
    <path d="M 72 367.2 
L 518.4 367.2 
" style="fill:none;stroke:#ffffff;stroke-linecap:square;stroke-linejoin:miter;stroke-width:1.25;"/>
   </g>
   <g id="PathCollection_4">
    <defs>
     <path d="M 0 2.5 
C 0.663008 2.5 1.29895 2.236584 1.767767 1.767767 
C 2.236584 1.29895 2.5 0.663008 2.5 0 
C 2.5 -0.663008 2.236584 -1.29895 1.767767 -1.767767 
C 1.29895 -2.236584 0.663008 -2.5 0 -2.5 
C -0.663008 -2.5 -1.29895 -2.236584 -1.767767 -1.767767 
C -2.236584 -1.29895 -2.5 -0.663008 -2.5 0 
C -2.5 0.663008 -2.236584 1.29895 -1.767767 1.767767 
C -1.29895 2.236584 -0.663008 2.5 0 2.5 
z
" id="C0_0_32b354bdff"/>
    </defs>
    <g clip-path="url(#p67cdc899b3)">
     <use style="fill:#0173b2;stroke:#000000;" x="91.200504" xlink:href="#C0_0_32b354bdff" y="107.732791"/>
    </g>
    <g clip-path="url(#p67cdc899b3)">
     <use style="fill:#0173b2;stroke:#000000;" x="92.542417" xlink:href="#C0_0_32b354bdff" y="123.307946"/>
    </g>
    <g clip-path="url(#p67cdc899b3)">
     <use style="fill:#0173b2;stroke:#000000;" x="91.282342" xlink:href="#C0_0_32b354bdff" y="132.135743"/>
    </g>
    <g clip-path="url(#p67cdc899b3)">
     <use style="fill:#0173b2;stroke:#000000;" x="92.07385" xlink:href="#C0_0_32b354bdff" y="246.004944"/>
    </g>
    <g clip-path="url(#p67cdc899b3)">
     <use style="fill:#0173b2;stroke:#000000;" x="94.260129" xlink:href="#C0_0_32b354bdff" y="200.909751"/>
    </g>
    <g clip-path="url(#p67cdc899b3)">
     <use style="fill:#0173b2;stroke:#000000;" x="93.619078" xlink:href="#C0_0_32b354bdff" y="151.649022"/>
    </g>
    <g clip-path="url(#p67cdc899b3)">
     <use style="fill:#0173b2;stroke:#000000;" x="91.550538" xlink:href="#C0_0_32b354bdff" y="171.761354"/>
    </g>
    <g clip-path="url(#p67cdc899b3)">
     <use style="fill:#0173b2;stroke:#000000;" x="91.973991" xlink:href="#C0_0_32b354bdff" y="161.820932"/>
    </g>
    <g clip-path="url(#p67cdc899b3)">
     <use style="fill:#0173b2;stroke:#000000;" x="93.894077" xlink:href="#C0_0_32b354bdff" y="146.740338"/>
    </g>
    <g clip-path="url(#p67cdc899b3)">
     <use style="fill:#0173b2;stroke:#000000;" x="95.558498" xlink:href="#C0_0_32b354bdff" y="117.561305"/>
    </g>
    <g clip-path="url(#p67cdc899b3)">
     <use style="fill:#0173b2;stroke:#000000;" x="93.360464" xlink:href="#C0_0_32b354bdff" y="168.079131"/>
    </g>
    <g clip-path="url(#p67cdc899b3)">
     <use style="fill:#0173b2;stroke:#000000;" x="93.005281" xlink:href="#C0_0_32b354bdff" y="122.454726"/>
    </g>
    <g clip-path="url(#p67cdc899b3)">
     <use style="fill:#0173b2;stroke:#000000;" x="92.835064" xlink:href="#C0_0_32b354bdff" y="80.180744"/>
    </g>
    <g clip-path="url(#p67cdc899b3)">
     <use style="fill:#0173b2;stroke:#000000;" x="92.170077" xlink:href="#C0_0_32b354bdff" y="144.566782"/>
    </g>
    <g clip-path="url(#p67cdc899b3)">
     <use style="fill:#0173b2;stroke:#000000;" x="90.886675" xlink:href="#C0_0_32b354bdff" y="115.030659"/>
    </g>
    <g clip-path="url(#p67cdc899b3)">
     <use style="fill:#0173b2;stroke:#000000;" x="93.053609" xlink:href="#C0_0_32b354bdff" y="74.345076"/>
    </g>
   </g>
   <g id="PathCollection_5">
    <defs>
     <path d="M 0 2.5 
C 0.663008 2.5 1.29895 2.236584 1.767767 1.767767 
C 2.236584 1.29895 2.5 0.663008 2.5 0 
C 2.5 -0.663008 2.236584 -1.29895 1.767767 -1.767767 
C 1.29895 -2.236584 0.663008 -2.5 0 -2.5 
C -0.663008 -2.5 -1.29895 -2.236584 -1.767767 -1.767767 
C -2.236584 -1.29895 -2.5 -0.663008 -2.5 0 
C -2.5 0.663008 -2.236584 1.29895 -1.767767 1.767767 
C -1.29895 2.236584 -0.663008 2.5 0 2.5 
z
" id="C1_0_1743ecaed5"/>
    </defs>
    <g clip-path="url(#p67cdc899b3)">
     <use style="fill:#de8f05;stroke:#000000;" x="117.682464" xlink:href="#C1_0_1743ecaed5" y="87.395449"/>
    </g>
    <g clip-path="url(#p67cdc899b3)">
     <use style="fill:#de8f05;stroke:#000000;" x="117.487067" xlink:href="#C1_0_1743ecaed5" y="207.983452"/>
    </g>
    <g clip-path="url(#p67cdc899b3)">
     <use style="fill:#de8f05;stroke:#000000;" x="114.65631" xlink:href="#C1_0_1743ecaed5" y="113.314942"/>
    </g>
    <g clip-path="url(#p67cdc899b3)">
     <use style="fill:#de8f05;stroke:#000000;" x="116.20118" xlink:href="#C1_0_1743ecaed5" y="351.798869"/>
    </g>
    <g clip-path="url(#p67cdc899b3)">
     <use style="fill:#de8f05;stroke:#000000;" x="114.890428" xlink:href="#C1_0_1743ecaed5" y="190.750499"/>
    </g>
    <g clip-path="url(#p67cdc899b3)">
     <use style="fill:#de8f05;stroke:#000000;" x="119.363836" xlink:href="#C1_0_1743ecaed5" y="216.52347"/>
    </g>
    <g clip-path="url(#p67cdc899b3)">
     <use style="fill:#de8f05;stroke:#000000;" x="116.613342" xlink:href="#C1_0_1743ecaed5" y="122.474679"/>
    </g>
    <g clip-path="url(#p67cdc899b3)">
     <use style="fill:#de8f05;stroke:#000000;" x="115.831229" xlink:href="#C1_0_1743ecaed5" y="129.631188"/>
    </g>
    <g clip-path="url(#p67cdc899b3)">
     <use style="fill:#de8f05;stroke:#000000;" x="114.359398" xlink:href="#C1_0_1743ecaed5" y="160.301618"/>
    </g>
    <g clip-path="url(#p67cdc899b3)">
     <use style="fill:#de8f05;stroke:#000000;" x="116.571599" xlink:href="#C1_0_1743ecaed5" y="118.752858"/>
    </g>
    <g clip-path="url(#p67cdc899b3)">
     <use style="fill:#de8f05;stroke:#000000;" x="117.800792" xlink:href="#C1_0_1743ecaed5" y="197.676265"/>
    </g>
    <g clip-path="url(#p67cdc899b3)">
     <use style="fill:#de8f05;stroke:#000000;" x="119.089449" xlink:href="#C1_0_1743ecaed5" y="98.432841"/>
    </g>
    <g clip-path="url(#p67cdc899b3)">
     <use style="fill:#de8f05;stroke:#000000;" x="115.345965" xlink:href="#C1_0_1743ecaed5" y="104.474548"/>
    </g>
    <g clip-path="url(#p67cdc899b3)">
     <use style="fill:#de8f05;stroke:#000000;" x="115.004589" xlink:href="#C1_0_1743ecaed5" y="145.039322"/>
    </g>
    <g clip-path="url(#p67cdc899b3)">
     <use style="fill:#de8f05;stroke:#000000;" x="119.185641" xlink:href="#C1_0_1743ecaed5" y="155.654402"/>
    </g>
    <g clip-path="url(#p67cdc899b3)">
     <use style="fill:#de8f05;stroke:#000000;" x="115.809414" xlink:href="#C1_0_1743ecaed5" y="81.057083"/>
    </g>
   </g>
   <g id="PathCollection_6">
    <defs>
     <path d="M 0 2.5 
C 0.663008 2.5 1.29895 2.236584 1.767767 1.767767 
C 2.236584 1.29895 2.5 0.663008 2.5 0 
C 2.5 -0.663008 2.236584 -1.29895 1.767767 -1.767767 
C 1.29895 -2.236584 0.663008 -2.5 0 -2.5 
C -0.663008 -2.5 -1.29895 -2.236584 -1.767767 -1.767767 
C -2.236584 -1.29895 -2.5 -0.663008 -2.5 0 
C -2.5 0.663008 -2.236584 1.29895 -1.767767 1.767767 
C -1.29895 2.236584 -0.663008 2.5 0 2.5 
z
" id="C2_0_e9ead8a62f"/>
    </defs>
    <g clip-path="url(#p67cdc899b3)">
     <use style="fill:#029e73;stroke:#000000;" x="141.927952" xlink:href="#C2_0_e9ead8a62f" y="89.079885"/>
    </g>
    <g clip-path="url(#p67cdc899b3)">
     <use style="fill:#029e73;stroke:#000000;" x="141.332896" xlink:href="#C2_0_e9ead8a62f" y="103.450971"/>
    </g>
    <g clip-path="url(#p67cdc899b3)">
     <use style="fill:#029e73;stroke:#000000;" x="138.601141" xlink:href="#C2_0_e9ead8a62f" y="121.423416"/>
    </g>
    <g clip-path="url(#p67cdc899b3)">
     <use style="fill:#029e73;stroke:#000000;" x="140.774822" xlink:href="#C2_0_e9ead8a62f" y="149.790701"/>
    </g>
    <g clip-path="url(#p67cdc899b3)">
     <use style="fill:#029e73;stroke:#000000;" x="142.812737" xlink:href="#C2_0_e9ead8a62f" y="135.04925"/>
    </g>
    <g clip-path="url(#p67cdc899b3)">
     <use style="fill:#029e73;stroke:#000000;" x="140.090376" xlink:href="#C2_0_e9ead8a62f" y="153.413954"/>
    </g>
    <g clip-path="url(#p67cdc899b3)">
     <use style="fill:#029e73;stroke:#000000;" x="139.52475" xlink:href="#C2_0_e9ead8a62f" y="133.90427"/>
    </g>
    <g clip-path="url(#p67cdc899b3)">
     <use style="fill:#029e73;stroke:#000000;" x="139.581826" xlink:href="#C2_0_e9ead8a62f" y="110.194877"/>
    </g>
    <g clip-path="url(#p67cdc899b3)">
     <use style="fill:#029e73;stroke:#000000;" x="140.812331" xlink:href="#C2_0_e9ead8a62f" y="114.565292"/>
    </g>
    <g clip-path="url(#p67cdc899b3)">
     <use style="fill:#029e73;stroke:#000000;" x="142.101139" xlink:href="#C2_0_e9ead8a62f" y="128.613438"/>
    </g>
    <g clip-path="url(#p67cdc899b3)">
     <use style="fill:#029e73;stroke:#000000;" x="138.4896" xlink:href="#C2_0_e9ead8a62f" y="135.52228"/>
    </g>
    <g clip-path="url(#p67cdc899b3)">
     <use style="fill:#029e73;stroke:#000000;" x="140.662986" xlink:href="#C2_0_e9ead8a62f" y="98.871237"/>
    </g>
    <g clip-path="url(#p67cdc899b3)">
     <use style="fill:#029e73;stroke:#000000;" x="142.238126" xlink:href="#C2_0_e9ead8a62f" y="74.032231"/>
    </g>
    <g clip-path="url(#p67cdc899b3)">
     <use style="fill:#029e73;stroke:#000000;" x="140.448411" xlink:href="#C2_0_e9ead8a62f" y="95.432775"/>
    </g>
    <g clip-path="url(#p67cdc899b3)">
     <use style="fill:#029e73;stroke:#000000;" x="138.488594" xlink:href="#C2_0_e9ead8a62f" y="85.818338"/>
    </g>
    <g clip-path="url(#p67cdc899b3)">
     <use style="fill:#029e73;stroke:#000000;" x="142.040942" xlink:href="#C2_0_e9ead8a62f" y="69.875691"/>
    </g>
   </g>
   <g id="PathCollection_7">
    <defs>
     <path d="M 0 2.5 
C 0.663008 2.5 1.29895 2.236584 1.767767 1.767767 
C 2.236584 1.29895 2.5 0.663008 2.5 0 
C 2.5 -0.663008 2.236584 -1.29895 1.767767 -1.767767 
C 1.29895 -2.236584 0.663008 -2.5 0 -2.5 
C -0.663008 -2.5 -1.29895 -2.236584 -1.767767 -1.767767 
C -2.236584 -1.29895 -2.5 -0.663008 -2.5 0 
C -2.5 0.663008 -2.236584 1.29895 -1.767767 1.767767 
C -1.29895 2.236584 -0.663008 2.5 0 2.5 
z
" id="C3_0_089c0a2ff8"/>
    </defs>
    <g clip-path="url(#p67cdc899b3)">
     <use style="fill:#0173b2;stroke:#000000;" x="183.095261" xlink:href="#C3_0_089c0a2ff8" y="149.408122"/>
    </g>
    <g clip-path="url(#p67cdc899b3)">
     <use style="fill:#0173b2;stroke:#000000;" x="180.671173" xlink:href="#C3_0_089c0a2ff8" y="84.972186"/>
    </g>
    <g clip-path="url(#p67cdc899b3)">
     <use style="fill:#0173b2;stroke:#000000;" x="182.642367" xlink:href="#C3_0_089c0a2ff8" y="218.453781"/>
    </g>
    <g clip-path="url(#p67cdc899b3)">
     <use style="fill:#0173b2;stroke:#000000;" x="184.356049" xlink:href="#C3_0_089c0a2ff8" y="70.395834"/>
    </g>
    <g clip-path="url(#p67cdc899b3)">
     <use style="fill:#0173b2;stroke:#000000;" x="181.466981" xlink:href="#C3_0_089c0a2ff8" y="163.843698"/>
    </g>
    <g clip-path="url(#p67cdc899b3)">
     <use style="fill:#0173b2;stroke:#000000;" x="182.263665" xlink:href="#C3_0_089c0a2ff8" y="176.429046"/>
    </g>
    <g clip-path="url(#p67cdc899b3)">
     <use style="fill:#0173b2;stroke:#000000;" x="179.906755" xlink:href="#C3_0_089c0a2ff8" y="113.677055"/>
    </g>
    <g clip-path="url(#p67cdc899b3)">
     <use style="fill:#0173b2;stroke:#000000;" x="182.531227" xlink:href="#C3_0_089c0a2ff8" y="218.083257"/>
    </g>
    <g clip-path="url(#p67cdc899b3)">
     <use style="fill:#0173b2;stroke:#000000;" x="182.74322" xlink:href="#C3_0_089c0a2ff8" y="175.374685"/>
    </g>
    <g clip-path="url(#p67cdc899b3)">
     <use style="fill:#0173b2;stroke:#000000;" x="184.039892" xlink:href="#C3_0_089c0a2ff8" y="191.177347"/>
    </g>
    <g clip-path="url(#p67cdc899b3)">
     <use style="fill:#0173b2;stroke:#000000;" x="184.422484" xlink:href="#C3_0_089c0a2ff8" y="191.997637"/>
    </g>
    <g clip-path="url(#p67cdc899b3)">
     <use style="fill:#0173b2;stroke:#000000;" x="179.597277" xlink:href="#C3_0_089c0a2ff8" y="113.13106"/>
    </g>
    <g clip-path="url(#p67cdc899b3)">
     <use style="fill:#0173b2;stroke:#000000;" x="179.677202" xlink:href="#C3_0_089c0a2ff8" y="126.7684"/>
    </g>
    <g clip-path="url(#p67cdc899b3)">
     <use style="fill:#0173b2;stroke:#000000;" x="184.412875" xlink:href="#C3_0_089c0a2ff8" y="123.671097"/>
    </g>
    <g clip-path="url(#p67cdc899b3)">
     <use style="fill:#0173b2;stroke:#000000;" x="183.257501" xlink:href="#C3_0_089c0a2ff8" y="114.062409"/>
    </g>
   </g>
   <g id="PathCollection_8">
    <defs>
     <path d="M 0 2.5 
C 0.663008 2.5 1.29895 2.236584 1.767767 1.767767 
C 2.236584 1.29895 2.5 0.663008 2.5 0 
C 2.5 -0.663008 2.236584 -1.29895 1.767767 -1.767767 
C 1.29895 -2.236584 0.663008 -2.5 0 -2.5 
C -0.663008 -2.5 -1.29895 -2.236584 -1.767767 -1.767767 
C -2.236584 -1.29895 -2.5 -0.663008 -2.5 0 
C -2.5 0.663008 -2.236584 1.29895 -1.767767 1.767767 
C -1.29895 2.236584 -0.663008 2.5 0 2.5 
z
" id="C4_0_282c2e5a14"/>
    </defs>
    <g clip-path="url(#p67cdc899b3)">
     <use style="fill:#de8f05;stroke:#000000;" x="203.713762" xlink:href="#C4_0_282c2e5a14" y="185.471361"/>
    </g>
    <g clip-path="url(#p67cdc899b3)">
     <use style="fill:#de8f05;stroke:#000000;" x="206.816186" xlink:href="#C4_0_282c2e5a14" y="109.824912"/>
    </g>
    <g clip-path="url(#p67cdc899b3)">
     <use style="fill:#de8f05;stroke:#000000;" x="208.114704" xlink:href="#C4_0_282c2e5a14" y="214.807152"/>
    </g>
    <g clip-path="url(#p67cdc899b3)">
     <use style="fill:#de8f05;stroke:#000000;" x="204.238208" xlink:href="#C4_0_282c2e5a14" y="128.772154"/>
    </g>
    <g clip-path="url(#p67cdc899b3)">
     <use style="fill:#de8f05;stroke:#000000;" x="207.653079" xlink:href="#C4_0_282c2e5a14" y="132.715689"/>
    </g>
    <g clip-path="url(#p67cdc899b3)">
     <use style="fill:#de8f05;stroke:#000000;" x="208.581575" xlink:href="#C4_0_282c2e5a14" y="214.94962"/>
    </g>
    <g clip-path="url(#p67cdc899b3)">
     <use style="fill:#de8f05;stroke:#000000;" x="205.913776" xlink:href="#C4_0_282c2e5a14" y="165.430439"/>
    </g>
    <g clip-path="url(#p67cdc899b3)">
     <use style="fill:#de8f05;stroke:#000000;" x="204.244199" xlink:href="#C4_0_282c2e5a14" y="204.558823"/>
    </g>
    <g clip-path="url(#p67cdc899b3)">
     <use style="fill:#de8f05;stroke:#000000;" x="205.390272" xlink:href="#C4_0_282c2e5a14" y="121.246986"/>
    </g>
    <g clip-path="url(#p67cdc899b3)">
     <use style="fill:#de8f05;stroke:#000000;" x="203.815557" xlink:href="#C4_0_282c2e5a14" y="234.774922"/>
    </g>
    <g clip-path="url(#p67cdc899b3)">
     <use style="fill:#de8f05;stroke:#000000;" x="208.567299" xlink:href="#C4_0_282c2e5a14" y="244.700887"/>
    </g>
    <g clip-path="url(#p67cdc899b3)">
     <use style="fill:#de8f05;stroke:#000000;" x="205.313629" xlink:href="#C4_0_282c2e5a14" y="96.165538"/>
    </g>
    <g clip-path="url(#p67cdc899b3)">
     <use style="fill:#de8f05;stroke:#000000;" x="206.998135" xlink:href="#C4_0_282c2e5a14" y="143.774677"/>
    </g>
    <g clip-path="url(#p67cdc899b3)">
     <use style="fill:#de8f05;stroke:#000000;" x="207.680976" xlink:href="#C4_0_282c2e5a14" y="206.962297"/>
    </g>
    <g clip-path="url(#p67cdc899b3)">
     <use style="fill:#de8f05;stroke:#000000;" x="204.455964" xlink:href="#C4_0_282c2e5a14" y="71.09264"/>
    </g>
   </g>
   <g id="PathCollection_9">
    <defs>
     <path d="M 0 2.5 
C 0.663008 2.5 1.29895 2.236584 1.767767 1.767767 
C 2.236584 1.29895 2.5 0.663008 2.5 0 
C 2.5 -0.663008 2.236584 -1.29895 1.767767 -1.767767 
C 1.29895 -2.236584 0.663008 -2.5 0 -2.5 
C -0.663008 -2.5 -1.29895 -2.236584 -1.767767 -1.767767 
C -2.236584 -1.29895 -2.5 -0.663008 -2.5 0 
C -2.5 0.663008 -2.236584 1.29895 -1.767767 1.767767 
C -1.29895 2.236584 -0.663008 2.5 0 2.5 
z
" id="C5_0_2fa1281270"/>
    </defs>
    <g clip-path="url(#p67cdc899b3)">
     <use style="fill:#029e73;stroke:#000000;" x="229.664486" xlink:href="#C5_0_2fa1281270" y="192.717962"/>
    </g>
    <g clip-path="url(#p67cdc899b3)">
     <use style="fill:#029e73;stroke:#000000;" x="231.142669" xlink:href="#C5_0_2fa1281270" y="92.50993"/>
    </g>
    <g clip-path="url(#p67cdc899b3)">
     <use style="fill:#029e73;stroke:#000000;" x="227.535087" xlink:href="#C5_0_2fa1281270" y="142.866097"/>
    </g>
    <g clip-path="url(#p67cdc899b3)">
     <use style="fill:#029e73;stroke:#000000;" x="232.022872" xlink:href="#C5_0_2fa1281270" y="111.204529"/>
    </g>
    <g clip-path="url(#p67cdc899b3)">
     <use style="fill:#029e73;stroke:#000000;" x="228.242951" xlink:href="#C5_0_2fa1281270" y="136.211181"/>
    </g>
    <g clip-path="url(#p67cdc899b3)">
     <use style="fill:#029e73;stroke:#000000;" x="227.254536" xlink:href="#C5_0_2fa1281270" y="142.508863"/>
    </g>
    <g clip-path="url(#p67cdc899b3)">
     <use style="fill:#029e73;stroke:#000000;" x="229.483261" xlink:href="#C5_0_2fa1281270" y="116.592161"/>
    </g>
    <g clip-path="url(#p67cdc899b3)">
     <use style="fill:#029e73;stroke:#000000;" x="229.111153" xlink:href="#C5_0_2fa1281270" y="116.470949"/>
    </g>
    <g clip-path="url(#p67cdc899b3)">
     <use style="fill:#029e73;stroke:#000000;" x="227.804216" xlink:href="#C5_0_2fa1281270" y="105.501443"/>
    </g>
    <g clip-path="url(#p67cdc899b3)">
     <use style="fill:#029e73;stroke:#000000;" x="228.323735" xlink:href="#C5_0_2fa1281270" y="85.840363"/>
    </g>
    <g clip-path="url(#p67cdc899b3)">
     <use style="fill:#029e73;stroke:#000000;" x="229.385009" xlink:href="#C5_0_2fa1281270" y="87.43629"/>
    </g>
    <g clip-path="url(#p67cdc899b3)">
     <use style="fill:#029e73;stroke:#000000;" x="231.463472" xlink:href="#C5_0_2fa1281270" y="77.920451"/>
    </g>
    <g clip-path="url(#p67cdc899b3)">
     <use style="fill:#029e73;stroke:#000000;" x="229.954121" xlink:href="#C5_0_2fa1281270" y="94.307454"/>
    </g>
    <g clip-path="url(#p67cdc899b3)">
     <use style="fill:#029e73;stroke:#000000;" x="230.207405" xlink:href="#C5_0_2fa1281270" y="105.647508"/>
    </g>
    <g clip-path="url(#p67cdc899b3)">
     <use style="fill:#029e73;stroke:#000000;" x="228.41108" xlink:href="#C5_0_2fa1281270" y="96.394499"/>
    </g>
   </g>
   <g id="PathCollection_10">
    <defs>
     <path d="M 0 2.5 
C 0.663008 2.5 1.29895 2.236584 1.767767 1.767767 
C 2.236584 1.29895 2.5 0.663008 2.5 0 
C 2.5 -0.663008 2.236584 -1.29895 1.767767 -1.767767 
C 1.29895 -2.236584 0.663008 -2.5 0 -2.5 
C -0.663008 -2.5 -1.29895 -2.236584 -1.767767 -1.767767 
C -2.236584 -1.29895 -2.5 -0.663008 -2.5 0 
C -2.5 0.663008 -2.236584 1.29895 -1.767767 1.767767 
C -1.29895 2.236584 -0.663008 2.5 0 2.5 
z
" id="C6_0_74d1e5d092"/>
    </defs>
    <g clip-path="url(#p67cdc899b3)">
     <use style="fill:#0173b2;stroke:#000000;" x="273.37203" xlink:href="#C6_0_74d1e5d092" y="97.061222"/>
    </g>
    <g clip-path="url(#p67cdc899b3)">
     <use style="fill:#0173b2;stroke:#000000;" x="272.773457" xlink:href="#C6_0_74d1e5d092" y="80.733606"/>
    </g>
    <g clip-path="url(#p67cdc899b3)">
     <use style="fill:#0173b2;stroke:#000000;" x="270.914246" xlink:href="#C6_0_74d1e5d092" y="86.779972"/>
    </g>
    <g clip-path="url(#p67cdc899b3)">
     <use style="fill:#0173b2;stroke:#000000;" x="269.253195" xlink:href="#C6_0_74d1e5d092" y="174.479647"/>
    </g>
    <g clip-path="url(#p67cdc899b3)">
     <use style="fill:#0173b2;stroke:#000000;" x="274.138863" xlink:href="#C6_0_74d1e5d092" y="189.003146"/>
    </g>
    <g clip-path="url(#p67cdc899b3)">
     <use style="fill:#0173b2;stroke:#000000;" x="270.642233" xlink:href="#C6_0_74d1e5d092" y="97.473707"/>
    </g>
    <g clip-path="url(#p67cdc899b3)">
     <use style="fill:#0173b2;stroke:#000000;" x="273.752877" xlink:href="#C6_0_74d1e5d092" y="112.888283"/>
    </g>
    <g clip-path="url(#p67cdc899b3)">
     <use style="fill:#0173b2;stroke:#000000;" x="274.009845" xlink:href="#C6_0_74d1e5d092" y="103.842003"/>
    </g>
    <g clip-path="url(#p67cdc899b3)">
     <use style="fill:#0173b2;stroke:#000000;" x="272.761506" xlink:href="#C6_0_74d1e5d092" y="105.359492"/>
    </g>
    <g clip-path="url(#p67cdc899b3)">
     <use style="fill:#0173b2;stroke:#000000;" x="272.860905" xlink:href="#C6_0_74d1e5d092" y="119.082623"/>
    </g>
    <g clip-path="url(#p67cdc899b3)">
     <use style="fill:#0173b2;stroke:#000000;" x="269.966904" xlink:href="#C6_0_74d1e5d092" y="86.491757"/>
    </g>
    <g clip-path="url(#p67cdc899b3)">
     <use style="fill:#0173b2;stroke:#000000;" x="273.021192" xlink:href="#C6_0_74d1e5d092" y="102.541415"/>
    </g>
    <g clip-path="url(#p67cdc899b3)">
     <use style="fill:#0173b2;stroke:#000000;" x="271.013224" xlink:href="#C6_0_74d1e5d092" y="75.122067"/>
    </g>
   </g>
   <g id="PathCollection_11">
    <defs>
     <path d="M 0 2.5 
C 0.663008 2.5 1.29895 2.236584 1.767767 1.767767 
C 2.236584 1.29895 2.5 0.663008 2.5 0 
C 2.5 -0.663008 2.236584 -1.29895 1.767767 -1.767767 
C 1.29895 -2.236584 0.663008 -2.5 0 -2.5 
C -0.663008 -2.5 -1.29895 -2.236584 -1.767767 -1.767767 
C -2.236584 -1.29895 -2.5 -0.663008 -2.5 0 
C -2.5 0.663008 -2.236584 1.29895 -1.767767 1.767767 
C -1.29895 2.236584 -0.663008 2.5 0 2.5 
z
" id="C7_0_228f12e786"/>
    </defs>
    <g clip-path="url(#p67cdc899b3)">
     <use style="fill:#de8f05;stroke:#000000;" x="296.476881" xlink:href="#C7_0_228f12e786" y="102.603908"/>
    </g>
    <g clip-path="url(#p67cdc899b3)">
     <use style="fill:#de8f05;stroke:#000000;" x="297.703154" xlink:href="#C7_0_228f12e786" y="79.886704"/>
    </g>
    <g clip-path="url(#p67cdc899b3)">
     <use style="fill:#de8f05;stroke:#000000;" x="292.531361" xlink:href="#C7_0_228f12e786" y="102.042602"/>
    </g>
    <g clip-path="url(#p67cdc899b3)">
     <use style="fill:#de8f05;stroke:#000000;" x="294.034432" xlink:href="#C7_0_228f12e786" y="154.356331"/>
    </g>
    <g clip-path="url(#p67cdc899b3)">
     <use style="fill:#de8f05;stroke:#000000;" x="296.891184" xlink:href="#C7_0_228f12e786" y="219.79835"/>
    </g>
    <g clip-path="url(#p67cdc899b3)">
     <use style="fill:#de8f05;stroke:#000000;" x="293.40873" xlink:href="#C7_0_228f12e786" y="125.055667"/>
    </g>
    <g clip-path="url(#p67cdc899b3)">
     <use style="fill:#de8f05;stroke:#000000;" x="294.699329" xlink:href="#C7_0_228f12e786" y="134.890258"/>
    </g>
    <g clip-path="url(#p67cdc899b3)">
     <use style="fill:#de8f05;stroke:#000000;" x="296.112729" xlink:href="#C7_0_228f12e786" y="109.353295"/>
    </g>
    <g clip-path="url(#p67cdc899b3)">
     <use style="fill:#de8f05;stroke:#000000;" x="296.849301" xlink:href="#C7_0_228f12e786" y="100.072243"/>
    </g>
    <g clip-path="url(#p67cdc899b3)">
     <use style="fill:#de8f05;stroke:#000000;" x="293.310949" xlink:href="#C7_0_228f12e786" y="100.921779"/>
    </g>
    <g clip-path="url(#p67cdc899b3)">
     <use style="fill:#de8f05;stroke:#000000;" x="293.998683" xlink:href="#C7_0_228f12e786" y="77.555992"/>
    </g>
    <g clip-path="url(#p67cdc899b3)">
     <use style="fill:#de8f05;stroke:#000000;" x="293.005256" xlink:href="#C7_0_228f12e786" y="127.263999"/>
    </g>
    <g clip-path="url(#p67cdc899b3)">
     <use style="fill:#de8f05;stroke:#000000;" x="295.623863" xlink:href="#C7_0_228f12e786" y="70.836949"/>
    </g>
   </g>
   <g id="PathCollection_12">
    <defs>
     <path d="M 0 2.5 
C 0.663008 2.5 1.29895 2.236584 1.767767 1.767767 
C 2.236584 1.29895 2.5 0.663008 2.5 0 
C 2.5 -0.663008 2.236584 -1.29895 1.767767 -1.767767 
C 1.29895 -2.236584 0.663008 -2.5 0 -2.5 
C -0.663008 -2.5 -1.29895 -2.236584 -1.767767 -1.767767 
C -2.236584 -1.29895 -2.5 -0.663008 -2.5 0 
C -2.5 0.663008 -2.236584 1.29895 -1.767767 1.767767 
C -1.29895 2.236584 -0.663008 2.5 0 2.5 
z
" id="C8_0_b50a874dba"/>
    </defs>
    <g clip-path="url(#p67cdc899b3)">
     <use style="fill:#029e73;stroke:#000000;" x="321.866964" xlink:href="#C8_0_b50a874dba" y="97.329242"/>
    </g>
    <g clip-path="url(#p67cdc899b3)">
     <use style="fill:#029e73;stroke:#000000;" x="321.019342" xlink:href="#C8_0_b50a874dba" y="110.847982"/>
    </g>
    <g clip-path="url(#p67cdc899b3)">
     <use style="fill:#029e73;stroke:#000000;" x="318.175897" xlink:href="#C8_0_b50a874dba" y="78.944882"/>
    </g>
    <g clip-path="url(#p67cdc899b3)">
     <use style="fill:#029e73;stroke:#000000;" x="320.064545" xlink:href="#C8_0_b50a874dba" y="133.325179"/>
    </g>
    <g clip-path="url(#p67cdc899b3)">
     <use style="fill:#029e73;stroke:#000000;" x="320.281265" xlink:href="#C8_0_b50a874dba" y="124.559254"/>
    </g>
    <g clip-path="url(#p67cdc899b3)">
     <use style="fill:#029e73;stroke:#000000;" x="320.618294" xlink:href="#C8_0_b50a874dba" y="123.68003"/>
    </g>
    <g clip-path="url(#p67cdc899b3)">
     <use style="fill:#029e73;stroke:#000000;" x="320.253202" xlink:href="#C8_0_b50a874dba" y="87.074024"/>
    </g>
    <g clip-path="url(#p67cdc899b3)">
     <use style="fill:#029e73;stroke:#000000;" x="318.946815" xlink:href="#C8_0_b50a874dba" y="84.483476"/>
    </g>
    <g clip-path="url(#p67cdc899b3)">
     <use style="fill:#029e73;stroke:#000000;" x="318.534649" xlink:href="#C8_0_b50a874dba" y="90.068238"/>
    </g>
    <g clip-path="url(#p67cdc899b3)">
     <use style="fill:#029e73;stroke:#000000;" x="320.930309" xlink:href="#C8_0_b50a874dba" y="88.311639"/>
    </g>
    <g clip-path="url(#p67cdc899b3)">
     <use style="fill:#029e73;stroke:#000000;" x="321.507014" xlink:href="#C8_0_b50a874dba" y="86.545182"/>
    </g>
    <g clip-path="url(#p67cdc899b3)">
     <use style="fill:#029e73;stroke:#000000;" x="316.271602" xlink:href="#C8_0_b50a874dba" y="109.655775"/>
    </g>
    <g clip-path="url(#p67cdc899b3)">
     <use style="fill:#029e73;stroke:#000000;" x="318.958552" xlink:href="#C8_0_b50a874dba" y="77.817317"/>
    </g>
   </g>
   <g id="PathCollection_13">
    <defs>
     <path d="M 0 2.5 
C 0.663008 2.5 1.29895 2.236584 1.767767 1.767767 
C 2.236584 1.29895 2.5 0.663008 2.5 0 
C 2.5 -0.663008 2.236584 -1.29895 1.767767 -1.767767 
C 1.29895 -2.236584 0.663008 -2.5 0 -2.5 
C -0.663008 -2.5 -1.29895 -2.236584 -1.767767 -1.767767 
C -2.236584 -1.29895 -2.5 -0.663008 -2.5 0 
C -2.5 0.663008 -2.236584 1.29895 -1.767767 1.767767 
C -1.29895 2.236584 -0.663008 2.5 0 2.5 
z
" id="C9_0_2fdbe1dafe"/>
    </defs>
    <g clip-path="url(#p67cdc899b3)">
     <use style="fill:#0173b2;stroke:#000000;" x="358.102087" xlink:href="#C9_0_2fdbe1dafe" y="116.945569"/>
    </g>
    <g clip-path="url(#p67cdc899b3)">
     <use style="fill:#0173b2;stroke:#000000;" x="357.81005" xlink:href="#C9_0_2fdbe1dafe" y="86.842684"/>
    </g>
    <g clip-path="url(#p67cdc899b3)">
     <use style="fill:#0173b2;stroke:#000000;" x="363.310149" xlink:href="#C9_0_2fdbe1dafe" y="108.388434"/>
    </g>
    <g clip-path="url(#p67cdc899b3)">
     <use style="fill:#0173b2;stroke:#000000;" x="362.129418" xlink:href="#C9_0_2fdbe1dafe" y="93.13388"/>
    </g>
    <g clip-path="url(#p67cdc899b3)">
     <use style="fill:#0173b2;stroke:#000000;" x="357.850734" xlink:href="#C9_0_2fdbe1dafe" y="115.218747"/>
    </g>
    <g clip-path="url(#p67cdc899b3)">
     <use style="fill:#0173b2;stroke:#000000;" x="363.025896" xlink:href="#C9_0_2fdbe1dafe" y="98.226461"/>
    </g>
    <g clip-path="url(#p67cdc899b3)">
     <use style="fill:#0173b2;stroke:#000000;" x="359.638325" xlink:href="#C9_0_2fdbe1dafe" y="100.818079"/>
    </g>
    <g clip-path="url(#p67cdc899b3)">
     <use style="fill:#0173b2;stroke:#000000;" x="360.542231" xlink:href="#C9_0_2fdbe1dafe" y="106.893794"/>
    </g>
    <g clip-path="url(#p67cdc899b3)">
     <use style="fill:#0173b2;stroke:#000000;" x="361.117522" xlink:href="#C9_0_2fdbe1dafe" y="84.93399"/>
    </g>
    <g clip-path="url(#p67cdc899b3)">
     <use style="fill:#0173b2;stroke:#000000;" x="361.597641" xlink:href="#C9_0_2fdbe1dafe" y="99.963883"/>
    </g>
    <g clip-path="url(#p67cdc899b3)">
     <use style="fill:#0173b2;stroke:#000000;" x="360.492159" xlink:href="#C9_0_2fdbe1dafe" y="111.281366"/>
    </g>
    <g clip-path="url(#p67cdc899b3)">
     <use style="fill:#0173b2;stroke:#000000;" x="363.452389" xlink:href="#C9_0_2fdbe1dafe" y="82.731623"/>
    </g>
    <g clip-path="url(#p67cdc899b3)">
     <use style="fill:#0173b2;stroke:#000000;" x="359.924358" xlink:href="#C9_0_2fdbe1dafe" y="141.560257"/>
    </g>
    <g clip-path="url(#p67cdc899b3)">
     <use style="fill:#0173b2;stroke:#000000;" x="360.22317" xlink:href="#C9_0_2fdbe1dafe" y="112.135651"/>
    </g>
    <g clip-path="url(#p67cdc899b3)">
     <use style="fill:#0173b2;stroke:#000000;" x="359.179603" xlink:href="#C9_0_2fdbe1dafe" y="70.477868"/>
    </g>
    <g clip-path="url(#p67cdc899b3)">
     <use style="fill:#0173b2;stroke:#000000;" x="358.604809" xlink:href="#C9_0_2fdbe1dafe" y="117.889982"/>
    </g>
    <g clip-path="url(#p67cdc899b3)">
     <use style="fill:#0173b2;stroke:#000000;" x="359.859035" xlink:href="#C9_0_2fdbe1dafe" y="75.762074"/>
    </g>
   </g>
   <g id="PathCollection_14">
    <defs>
     <path d="M 0 2.5 
C 0.663008 2.5 1.29895 2.236584 1.767767 1.767767 
C 2.236584 1.29895 2.5 0.663008 2.5 0 
C 2.5 -0.663008 2.236584 -1.29895 1.767767 -1.767767 
C 1.29895 -2.236584 0.663008 -2.5 0 -2.5 
C -0.663008 -2.5 -1.29895 -2.236584 -1.767767 -1.767767 
C -2.236584 -1.29895 -2.5 -0.663008 -2.5 0 
C -2.5 0.663008 -2.236584 1.29895 -1.767767 1.767767 
C -1.29895 2.236584 -0.663008 2.5 0 2.5 
z
" id="Ca_0_3b3c484903"/>
    </defs>
    <g clip-path="url(#p67cdc899b3)">
     <use style="fill:#de8f05;stroke:#000000;" x="384.118119" xlink:href="#Ca_0_3b3c484903" y="93.7944"/>
    </g>
    <g clip-path="url(#p67cdc899b3)">
     <use style="fill:#de8f05;stroke:#000000;" x="384.55063" xlink:href="#Ca_0_3b3c484903" y="75.868184"/>
    </g>
    <g clip-path="url(#p67cdc899b3)">
     <use style="fill:#de8f05;stroke:#000000;" x="381.801232" xlink:href="#Ca_0_3b3c484903" y="135.832133"/>
    </g>
    <g clip-path="url(#p67cdc899b3)">
     <use style="fill:#de8f05;stroke:#000000;" x="381.597187" xlink:href="#Ca_0_3b3c484903" y="76.596729"/>
    </g>
    <g clip-path="url(#p67cdc899b3)">
     <use style="fill:#de8f05;stroke:#000000;" x="386.385671" xlink:href="#Ca_0_3b3c484903" y="116.838735"/>
    </g>
    <g clip-path="url(#p67cdc899b3)">
     <use style="fill:#de8f05;stroke:#000000;" x="386.465017" xlink:href="#Ca_0_3b3c484903" y="103.806569"/>
    </g>
    <g clip-path="url(#p67cdc899b3)">
     <use style="fill:#de8f05;stroke:#000000;" x="384.269358" xlink:href="#Ca_0_3b3c484903" y="119.657912"/>
    </g>
    <g clip-path="url(#p67cdc899b3)">
     <use style="fill:#de8f05;stroke:#000000;" x="382.348066" xlink:href="#Ca_0_3b3c484903" y="126.783102"/>
    </g>
    <g clip-path="url(#p67cdc899b3)">
     <use style="fill:#de8f05;stroke:#000000;" x="381.861843" xlink:href="#Ca_0_3b3c484903" y="78.830889"/>
    </g>
    <g clip-path="url(#p67cdc899b3)">
     <use style="fill:#de8f05;stroke:#000000;" x="384.83896" xlink:href="#Ca_0_3b3c484903" y="91.505426"/>
    </g>
    <g clip-path="url(#p67cdc899b3)">
     <use style="fill:#de8f05;stroke:#000000;" x="381.980869" xlink:href="#Ca_0_3b3c484903" y="99.837922"/>
    </g>
    <g clip-path="url(#p67cdc899b3)">
     <use style="fill:#de8f05;stroke:#000000;" x="382.663853" xlink:href="#Ca_0_3b3c484903" y="92.696351"/>
    </g>
    <g clip-path="url(#p67cdc899b3)">
     <use style="fill:#de8f05;stroke:#000000;" x="385.01308" xlink:href="#Ca_0_3b3c484903" y="69.641213"/>
    </g>
    <g clip-path="url(#p67cdc899b3)">
     <use style="fill:#de8f05;stroke:#000000;" x="383.994067" xlink:href="#Ca_0_3b3c484903" y="83.231995"/>
    </g>
    <g clip-path="url(#p67cdc899b3)">
     <use style="fill:#de8f05;stroke:#000000;" x="383.592223" xlink:href="#Ca_0_3b3c484903" y="81.116194"/>
    </g>
    <g clip-path="url(#p67cdc899b3)">
     <use style="fill:#de8f05;stroke:#000000;" x="384.123511" xlink:href="#Ca_0_3b3c484903" y="119.940603"/>
    </g>
    <g clip-path="url(#p67cdc899b3)">
     <use style="fill:#de8f05;stroke:#000000;" x="383.567339" xlink:href="#Ca_0_3b3c484903" y="69.52183"/>
    </g>
   </g>
   <g id="PathCollection_15">
    <defs>
     <path d="M 0 2.5 
C 0.663008 2.5 1.29895 2.236584 1.767767 1.767767 
C 2.236584 1.29895 2.5 0.663008 2.5 0 
C 2.5 -0.663008 2.236584 -1.29895 1.767767 -1.767767 
C 1.29895 -2.236584 0.663008 -2.5 0 -2.5 
C -0.663008 -2.5 -1.29895 -2.236584 -1.767767 -1.767767 
C -2.236584 -1.29895 -2.5 -0.663008 -2.5 0 
C -2.5 0.663008 -2.236584 1.29895 -1.767767 1.767767 
C -1.29895 2.236584 -0.663008 2.5 0 2.5 
z
" id="Cb_0_6524b0cc93"/>
    </defs>
    <g clip-path="url(#p67cdc899b3)">
     <use style="fill:#029e73;stroke:#000000;" x="406.217122" xlink:href="#Cb_0_6524b0cc93" y="93.499589"/>
    </g>
    <g clip-path="url(#p67cdc899b3)">
     <use style="fill:#029e73;stroke:#000000;" x="407.634558" xlink:href="#Cb_0_6524b0cc93" y="104.694428"/>
    </g>
    <g clip-path="url(#p67cdc899b3)">
     <use style="fill:#029e73;stroke:#000000;" x="410.090435" xlink:href="#Cb_0_6524b0cc93" y="80.548682"/>
    </g>
    <g clip-path="url(#p67cdc899b3)">
     <use style="fill:#029e73;stroke:#000000;" x="407.884896" xlink:href="#Cb_0_6524b0cc93" y="84.68844"/>
    </g>
    <g clip-path="url(#p67cdc899b3)">
     <use style="fill:#029e73;stroke:#000000;" x="409.822298" xlink:href="#Cb_0_6524b0cc93" y="76.727576"/>
    </g>
    <g clip-path="url(#p67cdc899b3)">
     <use style="fill:#029e73;stroke:#000000;" x="406.607873" xlink:href="#Cb_0_6524b0cc93" y="80.270205"/>
    </g>
    <g clip-path="url(#p67cdc899b3)">
     <use style="fill:#029e73;stroke:#000000;" x="408.336072" xlink:href="#Cb_0_6524b0cc93" y="109.060837"/>
    </g>
    <g clip-path="url(#p67cdc899b3)">
     <use style="fill:#029e73;stroke:#000000;" x="406.435103" xlink:href="#Cb_0_6524b0cc93" y="72.712155"/>
    </g>
    <g clip-path="url(#p67cdc899b3)">
     <use style="fill:#029e73;stroke:#000000;" x="406.439839" xlink:href="#Cb_0_6524b0cc93" y="81.929468"/>
    </g>
    <g clip-path="url(#p67cdc899b3)">
     <use style="fill:#029e73;stroke:#000000;" x="410.751172" xlink:href="#Cb_0_6524b0cc93" y="81.188168"/>
    </g>
    <g clip-path="url(#p67cdc899b3)">
     <use style="fill:#029e73;stroke:#000000;" x="408.371343" xlink:href="#Cb_0_6524b0cc93" y="78.182038"/>
    </g>
    <g clip-path="url(#p67cdc899b3)">
     <use style="fill:#029e73;stroke:#000000;" x="409.839939" xlink:href="#Cb_0_6524b0cc93" y="78.229474"/>
    </g>
    <g clip-path="url(#p67cdc899b3)">
     <use style="fill:#029e73;stroke:#000000;" x="408.333532" xlink:href="#Cb_0_6524b0cc93" y="100.343432"/>
    </g>
    <g clip-path="url(#p67cdc899b3)">
     <use style="fill:#029e73;stroke:#000000;" x="408.201182" xlink:href="#Cb_0_6524b0cc93" y="89.733587"/>
    </g>
    <g clip-path="url(#p67cdc899b3)">
     <use style="fill:#029e73;stroke:#000000;" x="410.139644" xlink:href="#Cb_0_6524b0cc93" y="81.696003"/>
    </g>
    <g clip-path="url(#p67cdc899b3)">
     <use style="fill:#029e73;stroke:#000000;" x="406.221767" xlink:href="#Cb_0_6524b0cc93" y="103.974409"/>
    </g>
    <g clip-path="url(#p67cdc899b3)">
     <use style="fill:#029e73;stroke:#000000;" x="406.881418" xlink:href="#Cb_0_6524b0cc93" y="88.275661"/>
    </g>
   </g>
   <g id="PathCollection_16">
    <defs>
     <path d="M 0 2.5 
C 0.663008 2.5 1.29895 2.236584 1.767767 1.767767 
C 2.236584 1.29895 2.5 0.663008 2.5 0 
C 2.5 -0.663008 2.236584 -1.29895 1.767767 -1.767767 
C 1.29895 -2.236584 0.663008 -2.5 0 -2.5 
C -0.663008 -2.5 -1.29895 -2.236584 -1.767767 -1.767767 
C -2.236584 -1.29895 -2.5 -0.663008 -2.5 0 
C -2.5 0.663008 -2.236584 1.29895 -1.767767 1.767767 
C -1.29895 2.236584 -0.663008 2.5 0 2.5 
z
" id="Cc_0_b35e5cd31d"/>
    </defs>
    <g clip-path="url(#p67cdc899b3)">
     <use style="fill:#0173b2;stroke:#000000;" x="448.168626" xlink:href="#Cc_0_b35e5cd31d" y="134.426908"/>
    </g>
    <g clip-path="url(#p67cdc899b3)">
     <use style="fill:#0173b2;stroke:#000000;" x="450.792906" xlink:href="#Cc_0_b35e5cd31d" y="89.550275"/>
    </g>
    <g clip-path="url(#p67cdc899b3)">
     <use style="fill:#0173b2;stroke:#000000;" x="449.573752" xlink:href="#Cc_0_b35e5cd31d" y="91.192103"/>
    </g>
    <g clip-path="url(#p67cdc899b3)">
     <use style="fill:#0173b2;stroke:#000000;" x="449.984457" xlink:href="#Cc_0_b35e5cd31d" y="81.460768"/>
    </g>
    <g clip-path="url(#p67cdc899b3)">
     <use style="fill:#0173b2;stroke:#000000;" x="449.78951" xlink:href="#Cc_0_b35e5cd31d" y="91.215679"/>
    </g>
    <g clip-path="url(#p67cdc899b3)">
     <use style="fill:#0173b2;stroke:#000000;" x="447.850975" xlink:href="#Cc_0_b35e5cd31d" y="76.221651"/>
    </g>
    <g clip-path="url(#p67cdc899b3)">
     <use style="fill:#0173b2;stroke:#000000;" x="450.903142" xlink:href="#Cc_0_b35e5cd31d" y="75.679442"/>
    </g>
    <g clip-path="url(#p67cdc899b3)">
     <use style="fill:#0173b2;stroke:#000000;" x="450.618185" xlink:href="#Cc_0_b35e5cd31d" y="92.656547"/>
    </g>
    <g clip-path="url(#p67cdc899b3)">
     <use style="fill:#0173b2;stroke:#000000;" x="448.967661" xlink:href="#Cc_0_b35e5cd31d" y="97.024431"/>
    </g>
    <g clip-path="url(#p67cdc899b3)">
     <use style="fill:#0173b2;stroke:#000000;" x="449.445153" xlink:href="#Cc_0_b35e5cd31d" y="114.026436"/>
    </g>
    <g clip-path="url(#p67cdc899b3)">
     <use style="fill:#0173b2;stroke:#000000;" x="447.033593" xlink:href="#Cc_0_b35e5cd31d" y="83.052173"/>
    </g>
    <g clip-path="url(#p67cdc899b3)">
     <use style="fill:#0173b2;stroke:#000000;" x="452.564301" xlink:href="#Cc_0_b35e5cd31d" y="118.350072"/>
    </g>
    <g clip-path="url(#p67cdc899b3)">
     <use style="fill:#0173b2;stroke:#000000;" x="447.517559" xlink:href="#Cc_0_b35e5cd31d" y="84.035536"/>
    </g>
    <g clip-path="url(#p67cdc899b3)">
     <use style="fill:#0173b2;stroke:#000000;" x="452.574273" xlink:href="#Cc_0_b35e5cd31d" y="71.1173"/>
    </g>
    <g clip-path="url(#p67cdc899b3)">
     <use style="fill:#0173b2;stroke:#000000;" x="447.016484" xlink:href="#Cc_0_b35e5cd31d" y="103.386729"/>
    </g>
    <g clip-path="url(#p67cdc899b3)">
     <use style="fill:#0173b2;stroke:#000000;" x="452.782606" xlink:href="#Cc_0_b35e5cd31d" y="97.520313"/>
    </g>
   </g>
   <g id="PathCollection_17">
    <defs>
     <path d="M 0 2.5 
C 0.663008 2.5 1.29895 2.236584 1.767767 1.767767 
C 2.236584 1.29895 2.5 0.663008 2.5 0 
C 2.5 -0.663008 2.236584 -1.29895 1.767767 -1.767767 
C 1.29895 -2.236584 0.663008 -2.5 0 -2.5 
C -0.663008 -2.5 -1.29895 -2.236584 -1.767767 -1.767767 
C -2.236584 -1.29895 -2.5 -0.663008 -2.5 0 
C -2.5 0.663008 -2.236584 1.29895 -1.767767 1.767767 
C -1.29895 2.236584 -0.663008 2.5 0 2.5 
z
" id="Cd_0_13900045f7"/>
    </defs>
    <g clip-path="url(#p67cdc899b3)">
     <use style="fill:#de8f05;stroke:#000000;" x="475.834371" xlink:href="#Cd_0_13900045f7" y="87.601702"/>
    </g>
    <g clip-path="url(#p67cdc899b3)">
     <use style="fill:#de8f05;stroke:#000000;" x="472.518596" xlink:href="#Cd_0_13900045f7" y="78.545726"/>
    </g>
    <g clip-path="url(#p67cdc899b3)">
     <use style="fill:#de8f05;stroke:#000000;" x="474.993165" xlink:href="#Cd_0_13900045f7" y="73.159702"/>
    </g>
    <g clip-path="url(#p67cdc899b3)">
     <use style="fill:#de8f05;stroke:#000000;" x="472.260295" xlink:href="#Cd_0_13900045f7" y="82.693784"/>
    </g>
    <g clip-path="url(#p67cdc899b3)">
     <use style="fill:#de8f05;stroke:#000000;" x="471.252745" xlink:href="#Cd_0_13900045f7" y="114.583417"/>
    </g>
    <g clip-path="url(#p67cdc899b3)">
     <use style="fill:#de8f05;stroke:#000000;" x="475.229983" xlink:href="#Cd_0_13900045f7" y="97.62166"/>
    </g>
    <g clip-path="url(#p67cdc899b3)">
     <use style="fill:#de8f05;stroke:#000000;" x="471.069964" xlink:href="#Cd_0_13900045f7" y="107.710942"/>
    </g>
    <g clip-path="url(#p67cdc899b3)">
     <use style="fill:#de8f05;stroke:#000000;" x="476.160073" xlink:href="#Cd_0_13900045f7" y="85.138408"/>
    </g>
    <g clip-path="url(#p67cdc899b3)">
     <use style="fill:#de8f05;stroke:#000000;" x="475.745229" xlink:href="#Cd_0_13900045f7" y="128.477217"/>
    </g>
    <g clip-path="url(#p67cdc899b3)">
     <use style="fill:#de8f05;stroke:#000000;" x="471.216643" xlink:href="#Cd_0_13900045f7" y="131.140131"/>
    </g>
    <g clip-path="url(#p67cdc899b3)">
     <use style="fill:#de8f05;stroke:#000000;" x="472.728363" xlink:href="#Cd_0_13900045f7" y="72.588707"/>
    </g>
    <g clip-path="url(#p67cdc899b3)">
     <use style="fill:#de8f05;stroke:#000000;" x="470.925862" xlink:href="#Cd_0_13900045f7" y="95.679832"/>
    </g>
    <g clip-path="url(#p67cdc899b3)">
     <use style="fill:#de8f05;stroke:#000000;" x="475.613639" xlink:href="#Cd_0_13900045f7" y="81.454741"/>
    </g>
    <g clip-path="url(#p67cdc899b3)">
     <use style="fill:#de8f05;stroke:#000000;" x="471.032122" xlink:href="#Cd_0_13900045f7" y="67.871212"/>
    </g>
    <g clip-path="url(#p67cdc899b3)">
     <use style="fill:#de8f05;stroke:#000000;" x="472.126966" xlink:href="#Cd_0_13900045f7" y="101.515896"/>
    </g>
    <g clip-path="url(#p67cdc899b3)">
     <use style="fill:#de8f05;stroke:#000000;" x="472.359631" xlink:href="#Cd_0_13900045f7" y="81.747981"/>
    </g>
   </g>
   <g id="PathCollection_18">
    <defs>
     <path d="M 0 2.5 
C 0.663008 2.5 1.29895 2.236584 1.767767 1.767767 
C 2.236584 1.29895 2.5 0.663008 2.5 0 
C 2.5 -0.663008 2.236584 -1.29895 1.767767 -1.767767 
C 1.29895 -2.236584 0.663008 -2.5 0 -2.5 
C -0.663008 -2.5 -1.29895 -2.236584 -1.767767 -1.767767 
C -2.236584 -1.29895 -2.5 -0.663008 -2.5 0 
C -2.5 0.663008 -2.236584 1.29895 -1.767767 1.767767 
C -1.29895 2.236584 -0.663008 2.5 0 2.5 
z
" id="Ce_0_366aba9a09"/>
    </defs>
    <g clip-path="url(#p67cdc899b3)">
     <use style="fill:#029e73;stroke:#000000;" x="498.428873" xlink:href="#Ce_0_366aba9a09" y="78.468423"/>
    </g>
    <g clip-path="url(#p67cdc899b3)">
     <use style="fill:#029e73;stroke:#000000;" x="496.466811" xlink:href="#Ce_0_366aba9a09" y="93.612083"/>
    </g>
    <g clip-path="url(#p67cdc899b3)">
     <use style="fill:#029e73;stroke:#000000;" x="499.235702" xlink:href="#Ce_0_366aba9a09" y="80.21211"/>
    </g>
    <g clip-path="url(#p67cdc899b3)">
     <use style="fill:#029e73;stroke:#000000;" x="494.931653" xlink:href="#Ce_0_366aba9a09" y="86.482078"/>
    </g>
    <g clip-path="url(#p67cdc899b3)">
     <use style="fill:#029e73;stroke:#000000;" x="499.090951" xlink:href="#Ce_0_366aba9a09" y="105.980352"/>
    </g>
    <g clip-path="url(#p67cdc899b3)">
     <use style="fill:#029e73;stroke:#000000;" x="495.078955" xlink:href="#Ce_0_366aba9a09" y="85.222487"/>
    </g>
    <g clip-path="url(#p67cdc899b3)">
     <use style="fill:#029e73;stroke:#000000;" x="495.162485" xlink:href="#Ce_0_366aba9a09" y="102.417949"/>
    </g>
    <g clip-path="url(#p67cdc899b3)">
     <use style="fill:#029e73;stroke:#000000;" x="498.261723" xlink:href="#Ce_0_366aba9a09" y="70.655318"/>
    </g>
    <g clip-path="url(#p67cdc899b3)">
     <use style="fill:#029e73;stroke:#000000;" x="498.385893" xlink:href="#Ce_0_366aba9a09" y="144.531193"/>
    </g>
    <g clip-path="url(#p67cdc899b3)">
     <use style="fill:#029e73;stroke:#000000;" x="494.956716" xlink:href="#Ce_0_366aba9a09" y="83.394351"/>
    </g>
    <g clip-path="url(#p67cdc899b3)">
     <use style="fill:#029e73;stroke:#000000;" x="500.509075" xlink:href="#Ce_0_366aba9a09" y="80.839543"/>
    </g>
    <g clip-path="url(#p67cdc899b3)">
     <use style="fill:#029e73;stroke:#000000;" x="499.071445" xlink:href="#Ce_0_366aba9a09" y="87.880092"/>
    </g>
    <g clip-path="url(#p67cdc899b3)">
     <use style="fill:#029e73;stroke:#000000;" x="499.611331" xlink:href="#Ce_0_366aba9a09" y="77.092801"/>
    </g>
    <g clip-path="url(#p67cdc899b3)">
     <use style="fill:#029e73;stroke:#000000;" x="499.713744" xlink:href="#Ce_0_366aba9a09" y="83.222493"/>
    </g>
    <g clip-path="url(#p67cdc899b3)">
     <use style="fill:#029e73;stroke:#000000;" x="495.031311" xlink:href="#Ce_0_366aba9a09" y="87.344863"/>
    </g>
    <g clip-path="url(#p67cdc899b3)">
     <use style="fill:#029e73;stroke:#000000;" x="496.932586" xlink:href="#Ce_0_366aba9a09" y="77.047265"/>
    </g>
   </g>
   <g id="legend_1">
    <g id="patch_22">
     <path d="M 421.69625 361.7 
L 510.7 361.7 
Q 512.9 361.7 512.9 359.5 
L 512.9 313.791562 
Q 512.9 311.591563 510.7 311.591563 
L 421.69625 311.591563 
Q 419.49625 311.591563 419.49625 313.791562 
L 419.49625 359.5 
Q 419.49625 361.7 421.69625 361.7 
z
" style="fill:#eaeaf2;opacity:0.8;stroke:#cccccc;stroke-linejoin:miter;"/>
    </g>
    <g id="patch_23">
     <path d="M 423.89625 323.865156 
L 445.89625 323.865156 
L 445.89625 316.165156 
L 423.89625 316.165156 
z
" style="fill:#176d9c;stroke:#303030;stroke-linejoin:miter;stroke-width:0.5;"/>
    </g>
    <g id="text_14">
     <!-- Distance -->
     <defs>
      <path d="M 6.640625 61.46875 
L 6.640625 71.578125 
L 15.4375 71.578125 
L 15.4375 61.46875 
z
M 6.640625 0 
L 6.640625 51.859375 
L 15.4375 51.859375 
L 15.4375 0 
z
" id="ArialMT-105"/>
      <path d="M 40.4375 19 
L 49.078125 17.875 
Q 47.65625 8.9375 41.8125 3.875 
Q 35.984375 -1.171875 27.484375 -1.171875 
Q 16.84375 -1.171875 10.375 5.78125 
Q 3.90625 12.75 3.90625 25.734375 
Q 3.90625 34.125 6.6875 40.421875 
Q 9.46875 46.734375 15.15625 49.875 
Q 20.84375 53.03125 27.546875 53.03125 
Q 35.984375 53.03125 41.359375 48.75 
Q 46.734375 44.484375 48.25 36.625 
L 39.703125 35.296875 
Q 38.484375 40.53125 35.375 43.15625 
Q 32.28125 45.796875 27.875 45.796875 
Q 21.234375 45.796875 17.078125 41.03125 
Q 12.9375 36.28125 12.9375 25.984375 
Q 12.9375 15.53125 16.9375 10.796875 
Q 20.953125 6.0625 27.390625 6.0625 
Q 32.5625 6.0625 36.03125 9.234375 
Q 39.5 12.40625 40.4375 19 
z
" id="ArialMT-99"/>
     </defs>
     <g style="fill:#262626;" transform="translate(454.69625 323.865156)scale(0.11 -0.11)">
      <use xlink:href="#ArialMT-68"/>
      <use x="72.216797" xlink:href="#ArialMT-105"/>
      <use x="94.433594" xlink:href="#ArialMT-115"/>
      <use x="144.433594" xlink:href="#ArialMT-116"/>
      <use x="172.216797" xlink:href="#ArialMT-97"/>
      <use x="227.832031" xlink:href="#ArialMT-110"/>
      <use x="283.447266" xlink:href="#ArialMT-99"/>
      <use x="333.447266" xlink:href="#ArialMT-101"/>
     </g>
    </g>
    <g id="patch_24">
     <path d="M 423.89625 339.425 
L 445.89625 339.425 
L 445.89625 331.725 
L 423.89625 331.725 
z
" style="fill:#c38820;stroke:#303030;stroke-linejoin:miter;stroke-width:0.5;"/>
    </g>
    <g id="text_15">
     <!-- Angle -->
     <defs>
      <path d="M 4.984375 -4.296875 
L 13.53125 -5.5625 
Q 14.0625 -9.515625 16.5 -11.328125 
Q 19.78125 -13.765625 25.4375 -13.765625 
Q 31.546875 -13.765625 34.859375 -11.328125 
Q 38.1875 -8.890625 39.359375 -4.5 
Q 40.046875 -1.8125 39.984375 6.78125 
Q 34.234375 0 25.640625 0 
Q 14.9375 0 9.078125 7.71875 
Q 3.21875 15.4375 3.21875 26.21875 
Q 3.21875 33.640625 5.90625 39.90625 
Q 8.59375 46.1875 13.6875 49.609375 
Q 18.796875 53.03125 25.6875 53.03125 
Q 34.859375 53.03125 40.828125 45.609375 
L 40.828125 51.859375 
L 48.921875 51.859375 
L 48.921875 7.03125 
Q 48.921875 -5.078125 46.453125 -10.125 
Q 44 -15.1875 38.640625 -18.109375 
Q 33.296875 -21.046875 25.484375 -21.046875 
Q 16.21875 -21.046875 10.5 -16.875 
Q 4.78125 -12.703125 4.984375 -4.296875 
z
M 12.25 26.859375 
Q 12.25 16.65625 16.296875 11.96875 
Q 20.359375 7.28125 26.46875 7.28125 
Q 32.515625 7.28125 36.609375 11.9375 
Q 40.71875 16.609375 40.71875 26.5625 
Q 40.71875 36.078125 36.5 40.90625 
Q 32.28125 45.75 26.3125 45.75 
Q 20.453125 45.75 16.34375 40.984375 
Q 12.25 36.234375 12.25 26.859375 
z
" id="ArialMT-103"/>
     </defs>
     <g style="fill:#262626;" transform="translate(454.69625 339.425)scale(0.11 -0.11)">
      <use xlink:href="#ArialMT-65"/>
      <use x="66.699219" xlink:href="#ArialMT-110"/>
      <use x="122.314453" xlink:href="#ArialMT-103"/>
      <use x="177.929688" xlink:href="#ArialMT-108"/>
      <use x="200.146484" xlink:href="#ArialMT-101"/>
     </g>
    </g>
    <g id="patch_25">
     <path d="M 423.89625 355.11375 
L 445.89625 355.11375 
L 445.89625 347.41375 
L 423.89625 347.41375 
z
" style="fill:#158b6a;stroke:#303030;stroke-linejoin:miter;stroke-width:0.5;"/>
    </g>
    <g id="text_16">
     <!-- Orientation -->
     <defs>
      <path d="M 4.828125 34.859375 
Q 4.828125 52.6875 14.390625 62.765625 
Q 23.96875 72.859375 39.109375 72.859375 
Q 49.03125 72.859375 56.984375 68.109375 
Q 64.9375 63.375 69.109375 54.90625 
Q 73.296875 46.4375 73.296875 35.6875 
Q 73.296875 24.8125 68.890625 16.21875 
Q 64.5 7.625 56.4375 3.203125 
Q 48.390625 -1.21875 39.0625 -1.21875 
Q 28.953125 -1.21875 20.984375 3.65625 
Q 13.03125 8.546875 8.921875 16.984375 
Q 4.828125 25.4375 4.828125 34.859375 
z
M 14.59375 34.71875 
Q 14.59375 21.78125 21.546875 14.328125 
Q 28.515625 6.890625 39.015625 6.890625 
Q 49.703125 6.890625 56.609375 14.40625 
Q 63.53125 21.921875 63.53125 35.75 
Q 63.53125 44.484375 60.578125 51 
Q 57.625 57.515625 51.921875 61.109375 
Q 46.234375 64.703125 39.15625 64.703125 
Q 29.109375 64.703125 21.84375 57.78125 
Q 14.59375 50.875 14.59375 34.71875 
z
" id="ArialMT-79"/>
     </defs>
     <g style="fill:#262626;" transform="translate(454.69625 355.11375)scale(0.11 -0.11)">
      <use xlink:href="#ArialMT-79"/>
      <use x="77.783203" xlink:href="#ArialMT-114"/>
      <use x="111.083984" xlink:href="#ArialMT-105"/>
      <use x="133.300781" xlink:href="#ArialMT-101"/>
      <use x="188.916016" xlink:href="#ArialMT-110"/>
      <use x="244.53125" xlink:href="#ArialMT-116"/>
      <use x="272.314453" xlink:href="#ArialMT-97"/>
      <use x="327.929688" xlink:href="#ArialMT-116"/>
      <use x="355.712891" xlink:href="#ArialMT-105"/>
      <use x="377.929688" xlink:href="#ArialMT-111"/>
      <use x="433.544922" xlink:href="#ArialMT-110"/>
     </g>
    </g>
   </g>
  </g>
 </g>
 <defs>
  <clipPath id="p67cdc899b3">
   <rect height="315.36" width="446.4" x="72" y="51.84"/>
  </clipPath>
 </defs>
</svg>
