<?xml version="1.0" encoding="utf-8" standalone="no"?>
<!DOCTYPE svg PUBLIC "-//W3C//DTD SVG 1.1//EN"
  "http://www.w3.org/Graphics/SVG/1.1/DTD/svg11.dtd">
<!-- Created with matplotlib (https://matplotlib.org/) -->
<svg height="576pt" version="1.1" viewBox="0 0 648 576" width="648pt" xmlns="http://www.w3.org/2000/svg" xmlns:xlink="http://www.w3.org/1999/xlink">
 <defs>
  <style type="text/css">
*{stroke-linecap:butt;stroke-linejoin:round;}
  </style>
 </defs>
 <g id="figure_1">
  <g id="patch_1">
   <path d="M 0 576 
L 648 576 
L 648 0 
L 0 0 
z
" style="fill:#ffffff;"/>
  </g>
  <g id="axes_1">
   <g id="patch_2">
    <path d="M 66.02 255.208952 
L 617.76 255.208952 
L 617.76 49.2 
L 66.02 49.2 
z
" style="fill:#eaeaf2;"/>
   </g>
   <g id="matplotlib.axis_1">
    <g id="xtick_1"/>
    <g id="xtick_2"/>
   </g>
   <g id="matplotlib.axis_2">
    <g id="ytick_1">
     <g id="line2d_1">
      <path clip-path="url(#p8b0f6fc52d)" d="M 66.02 252.960493 
L 617.76 252.960493 
" style="fill:none;stroke:#ffffff;stroke-linecap:round;"/>
     </g>
     <g id="text_1">
      <!-- 0.4 -->
      <defs>
       <path d="M 4.15625 35.296875 
Q 4.15625 48 6.765625 55.734375 
Q 9.375 63.484375 14.515625 67.671875 
Q 19.671875 71.875 27.484375 71.875 
Q 33.25 71.875 37.59375 69.546875 
Q 41.9375 67.234375 44.765625 62.859375 
Q 47.609375 58.5 49.21875 52.21875 
Q 50.828125 45.953125 50.828125 35.296875 
Q 50.828125 22.703125 48.234375 14.96875 
Q 45.65625 7.234375 40.5 3 
Q 35.359375 -1.21875 27.484375 -1.21875 
Q 17.140625 -1.21875 11.234375 6.203125 
Q 4.15625 15.140625 4.15625 35.296875 
z
M 13.1875 35.296875 
Q 13.1875 17.671875 17.3125 11.828125 
Q 21.4375 6 27.484375 6 
Q 33.546875 6 37.671875 11.859375 
Q 41.796875 17.71875 41.796875 35.296875 
Q 41.796875 52.984375 37.671875 58.78125 
Q 33.546875 64.59375 27.390625 64.59375 
Q 21.34375 64.59375 17.71875 59.46875 
Q 13.1875 52.9375 13.1875 35.296875 
z
" id="ArialMT-48"/>
       <path d="M 9.078125 0 
L 9.078125 10.015625 
L 19.09375 10.015625 
L 19.09375 0 
z
" id="ArialMT-46"/>
       <path d="M 32.328125 0 
L 32.328125 17.140625 
L 1.265625 17.140625 
L 1.265625 25.203125 
L 33.9375 71.578125 
L 41.109375 71.578125 
L 41.109375 25.203125 
L 50.78125 25.203125 
L 50.78125 17.140625 
L 41.109375 17.140625 
L 41.109375 0 
z
M 32.328125 25.203125 
L 32.328125 57.46875 
L 9.90625 25.203125 
z
" id="ArialMT-52"/>
      </defs>
      <g style="fill:#262626;" transform="translate(25.94 260.834086)scale(0.22 -0.22)">
       <use xlink:href="#ArialMT-48"/>
       <use x="55.615234" xlink:href="#ArialMT-46"/>
       <use x="83.398438" xlink:href="#ArialMT-52"/>
      </g>
     </g>
    </g>
    <g id="ytick_2">
     <g id="line2d_2">
      <path clip-path="url(#p8b0f6fc52d)" d="M 66.02 187.605726 
L 617.76 187.605726 
" style="fill:none;stroke:#ffffff;stroke-linecap:round;"/>
     </g>
     <g id="text_2">
      <!-- 0.6 -->
      <defs>
       <path d="M 49.75 54.046875 
L 41.015625 53.375 
Q 39.84375 58.546875 37.703125 60.890625 
Q 34.125 64.65625 28.90625 64.65625 
Q 24.703125 64.65625 21.53125 62.3125 
Q 17.390625 59.28125 14.984375 53.46875 
Q 12.59375 47.65625 12.5 36.921875 
Q 15.671875 41.75 20.265625 44.09375 
Q 24.859375 46.4375 29.890625 46.4375 
Q 38.671875 46.4375 44.84375 39.96875 
Q 51.03125 33.5 51.03125 23.25 
Q 51.03125 16.5 48.125 10.71875 
Q 45.21875 4.9375 40.140625 1.859375 
Q 35.0625 -1.21875 28.609375 -1.21875 
Q 17.625 -1.21875 10.6875 6.859375 
Q 3.765625 14.9375 3.765625 33.5 
Q 3.765625 54.25 11.421875 63.671875 
Q 18.109375 71.875 29.4375 71.875 
Q 37.890625 71.875 43.28125 67.140625 
Q 48.6875 62.40625 49.75 54.046875 
z
M 13.875 23.1875 
Q 13.875 18.65625 15.796875 14.5 
Q 17.71875 10.359375 21.1875 8.171875 
Q 24.65625 6 28.46875 6 
Q 34.03125 6 38.03125 10.484375 
Q 42.046875 14.984375 42.046875 22.703125 
Q 42.046875 30.125 38.078125 34.390625 
Q 34.125 38.671875 28.125 38.671875 
Q 22.171875 38.671875 18.015625 34.390625 
Q 13.875 30.125 13.875 23.1875 
z
" id="ArialMT-54"/>
      </defs>
      <g style="fill:#262626;" transform="translate(25.94 195.47932)scale(0.22 -0.22)">
       <use xlink:href="#ArialMT-48"/>
       <use x="55.615234" xlink:href="#ArialMT-46"/>
       <use x="83.398438" xlink:href="#ArialMT-54"/>
      </g>
     </g>
    </g>
    <g id="ytick_3">
     <g id="line2d_3">
      <path clip-path="url(#p8b0f6fc52d)" d="M 66.02 122.250959 
L 617.76 122.250959 
" style="fill:none;stroke:#ffffff;stroke-linecap:round;"/>
     </g>
     <g id="text_3">
      <!-- 0.8 -->
      <defs>
       <path d="M 17.671875 38.8125 
Q 12.203125 40.828125 9.5625 44.53125 
Q 6.9375 48.25 6.9375 53.421875 
Q 6.9375 61.234375 12.546875 66.546875 
Q 18.171875 71.875 27.484375 71.875 
Q 36.859375 71.875 42.578125 66.421875 
Q 48.296875 60.984375 48.296875 53.171875 
Q 48.296875 48.1875 45.671875 44.5 
Q 43.0625 40.828125 37.75 38.8125 
Q 44.34375 36.671875 47.78125 31.875 
Q 51.21875 27.09375 51.21875 20.453125 
Q 51.21875 11.28125 44.71875 5.03125 
Q 38.234375 -1.21875 27.640625 -1.21875 
Q 17.046875 -1.21875 10.546875 5.046875 
Q 4.046875 11.328125 4.046875 20.703125 
Q 4.046875 27.6875 7.59375 32.390625 
Q 11.140625 37.109375 17.671875 38.8125 
z
M 15.921875 53.71875 
Q 15.921875 48.640625 19.1875 45.40625 
Q 22.46875 42.1875 27.6875 42.1875 
Q 32.765625 42.1875 36.015625 45.375 
Q 39.265625 48.578125 39.265625 53.21875 
Q 39.265625 58.0625 35.90625 61.359375 
Q 32.5625 64.65625 27.59375 64.65625 
Q 22.5625 64.65625 19.234375 61.421875 
Q 15.921875 58.203125 15.921875 53.71875 
z
M 13.09375 20.65625 
Q 13.09375 16.890625 14.875 13.375 
Q 16.65625 9.859375 20.171875 7.921875 
Q 23.6875 6 27.734375 6 
Q 34.03125 6 38.125 10.046875 
Q 42.234375 14.109375 42.234375 20.359375 
Q 42.234375 26.703125 38.015625 30.859375 
Q 33.796875 35.015625 27.4375 35.015625 
Q 21.234375 35.015625 17.15625 30.90625 
Q 13.09375 26.8125 13.09375 20.65625 
z
" id="ArialMT-56"/>
      </defs>
      <g style="fill:#262626;" transform="translate(25.94 130.124553)scale(0.22 -0.22)">
       <use xlink:href="#ArialMT-48"/>
       <use x="55.615234" xlink:href="#ArialMT-46"/>
       <use x="83.398438" xlink:href="#ArialMT-56"/>
      </g>
     </g>
    </g>
    <g id="ytick_4">
     <g id="line2d_4">
      <path clip-path="url(#p8b0f6fc52d)" d="M 66.02 56.896193 
L 617.76 56.896193 
" style="fill:none;stroke:#ffffff;stroke-linecap:round;"/>
     </g>
     <g id="text_4">
      <!-- 1.0 -->
      <defs>
       <path d="M 37.25 0 
L 28.46875 0 
L 28.46875 56 
Q 25.296875 52.984375 20.140625 49.953125 
Q 14.984375 46.921875 10.890625 45.40625 
L 10.890625 53.90625 
Q 18.265625 57.375 23.78125 62.296875 
Q 29.296875 67.234375 31.59375 71.875 
L 37.25 71.875 
z
" id="ArialMT-49"/>
      </defs>
      <g style="fill:#262626;" transform="translate(25.94 64.769787)scale(0.22 -0.22)">
       <use xlink:href="#ArialMT-49"/>
       <use x="55.615234" xlink:href="#ArialMT-46"/>
       <use x="83.398438" xlink:href="#ArialMT-48"/>
      </g>
     </g>
    </g>
   </g>
   <g id="patch_3">
    <path clip-path="url(#p8b0f6fc52d)" d="M 94.342653 128.440421 
L 166.43668 128.440421 
L 166.43668 85.664454 
L 94.342653 85.664454 
L 94.342653 128.440421 
z
" style="fill:#176d9c;stroke:#303030;stroke-linejoin:miter;"/>
   </g>
   <g id="patch_4">
    <path clip-path="url(#p8b0f6fc52d)" d="M 167.907987 165.623984 
L 240.002013 165.623984 
L 240.002013 84.37392 
L 167.907987 84.37392 
L 167.907987 165.623984 
z
" style="fill:#c38820;stroke:#303030;stroke-linejoin:miter;"/>
   </g>
   <g id="patch_5">
    <path clip-path="url(#p8b0f6fc52d)" d="M 241.47332 97.001013 
L 313.567347 97.001013 
L 313.567347 77.302124 
L 241.47332 77.302124 
L 241.47332 97.001013 
z
" style="fill:#158b6a;stroke:#303030;stroke-linejoin:miter;"/>
   </g>
   <g id="patch_6">
    <path clip-path="url(#p8b0f6fc52d)" d="M 370.212653 138.179632 
L 442.30668 138.179632 
L 442.30668 97.792115 
L 370.212653 97.792115 
L 370.212653 138.179632 
z
" style="fill:#176d9c;stroke:#303030;stroke-linejoin:miter;"/>
   </g>
   <g id="patch_7">
    <path clip-path="url(#p8b0f6fc52d)" d="M 443.777987 174.432906 
L 515.872013 174.432906 
L 515.872013 113.261935 
L 443.777987 113.261935 
L 443.777987 174.432906 
z
" style="fill:#c38820;stroke:#303030;stroke-linejoin:miter;"/>
   </g>
   <g id="patch_8">
    <path clip-path="url(#p8b0f6fc52d)" d="M 517.34332 103.607318 
L 589.437347 103.607318 
L 589.437347 81.927786 
L 517.34332 81.927786 
L 517.34332 103.607318 
z
" style="fill:#158b6a;stroke:#303030;stroke-linejoin:miter;"/>
   </g>
   <g id="PathCollection_1"/>
   <g id="PathCollection_2"/>
   <g id="PathCollection_3"/>
   <g id="patch_9">
    <path clip-path="url(#p8b0f6fc52d)" d="M 203.955 383.670026 
L 203.955 383.670026 
L 203.955 383.670026 
L 203.955 383.670026 
z
" style="fill:#176d9c;stroke:#303030;stroke-linejoin:miter;stroke-width:0.5;"/>
   </g>
   <g id="patch_10">
    <path clip-path="url(#p8b0f6fc52d)" d="M 203.955 383.670026 
L 203.955 383.670026 
L 203.955 383.670026 
L 203.955 383.670026 
z
" style="fill:#c38820;stroke:#303030;stroke-linejoin:miter;stroke-width:0.5;"/>
   </g>
   <g id="patch_11">
    <path clip-path="url(#p8b0f6fc52d)" d="M 203.955 383.670026 
L 203.955 383.670026 
L 203.955 383.670026 
L 203.955 383.670026 
z
" style="fill:#158b6a;stroke:#303030;stroke-linejoin:miter;stroke-width:0.5;"/>
   </g>
   <g id="line2d_5">
    <path clip-path="url(#p8b0f6fc52d)" d="M 130.389667 128.440421 
L 130.389667 168.803087 
" style="fill:none;stroke:#303030;stroke-linecap:round;"/>
   </g>
   <g id="line2d_6">
    <path clip-path="url(#p8b0f6fc52d)" d="M 130.389667 85.664454 
L 130.389667 61.333866 
" style="fill:none;stroke:#303030;stroke-linecap:round;"/>
   </g>
   <g id="line2d_7">
    <path clip-path="url(#p8b0f6fc52d)" d="M 112.36616 168.803087 
L 148.413173 168.803087 
" style="fill:none;stroke:#303030;stroke-linecap:round;"/>
   </g>
   <g id="line2d_8">
    <path clip-path="url(#p8b0f6fc52d)" d="M 112.36616 61.333866 
L 148.413173 61.333866 
" style="fill:none;stroke:#303030;stroke-linecap:round;"/>
   </g>
   <g id="line2d_9">
    <path clip-path="url(#p8b0f6fc52d)" d="M 203.955 165.623984 
L 203.955 219.348475 
" style="fill:none;stroke:#303030;stroke-linecap:round;"/>
   </g>
   <g id="line2d_10">
    <path clip-path="url(#p8b0f6fc52d)" d="M 203.955 84.37392 
L 203.955 60.34562 
" style="fill:none;stroke:#303030;stroke-linecap:round;"/>
   </g>
   <g id="line2d_11">
    <path clip-path="url(#p8b0f6fc52d)" d="M 185.931493 219.348475 
L 221.978507 219.348475 
" style="fill:none;stroke:#303030;stroke-linecap:round;"/>
   </g>
   <g id="line2d_12">
    <path clip-path="url(#p8b0f6fc52d)" d="M 185.931493 60.34562 
L 221.978507 60.34562 
" style="fill:none;stroke:#303030;stroke-linecap:round;"/>
   </g>
   <g id="line2d_13">
    <path clip-path="url(#p8b0f6fc52d)" d="M 277.520333 97.001013 
L 277.520333 121.112544 
" style="fill:none;stroke:#303030;stroke-linecap:round;"/>
   </g>
   <g id="line2d_14">
    <path clip-path="url(#p8b0f6fc52d)" d="M 277.520333 77.302124 
L 277.520333 61.601119 
" style="fill:none;stroke:#303030;stroke-linecap:round;"/>
   </g>
   <g id="line2d_15">
    <path clip-path="url(#p8b0f6fc52d)" d="M 259.496827 121.112544 
L 295.54384 121.112544 
" style="fill:none;stroke:#303030;stroke-linecap:round;"/>
   </g>
   <g id="line2d_16">
    <path clip-path="url(#p8b0f6fc52d)" d="M 259.496827 61.601119 
L 295.54384 61.601119 
" style="fill:none;stroke:#303030;stroke-linecap:round;"/>
   </g>
   <g id="line2d_17">
    <path clip-path="url(#p8b0f6fc52d)" d="M 406.259667 138.179632 
L 406.259667 167.632304 
" style="fill:none;stroke:#303030;stroke-linecap:round;"/>
   </g>
   <g id="line2d_18">
    <path clip-path="url(#p8b0f6fc52d)" d="M 406.259667 97.792115 
L 406.259667 79.519348 
" style="fill:none;stroke:#303030;stroke-linecap:round;"/>
   </g>
   <g id="line2d_19">
    <path clip-path="url(#p8b0f6fc52d)" d="M 388.23616 167.632304 
L 424.283173 167.632304 
" style="fill:none;stroke:#303030;stroke-linecap:round;"/>
   </g>
   <g id="line2d_20">
    <path clip-path="url(#p8b0f6fc52d)" d="M 388.23616 79.519348 
L 424.283173 79.519348 
" style="fill:none;stroke:#303030;stroke-linecap:round;"/>
   </g>
   <g id="line2d_21">
    <path clip-path="url(#p8b0f6fc52d)" d="M 479.825 174.432906 
L 479.825 244.053716 
" style="fill:none;stroke:#303030;stroke-linecap:round;"/>
   </g>
   <g id="line2d_22">
    <path clip-path="url(#p8b0f6fc52d)" d="M 479.825 113.261935 
L 479.825 83.367514 
" style="fill:none;stroke:#303030;stroke-linecap:round;"/>
   </g>
   <g id="line2d_23">
    <path clip-path="url(#p8b0f6fc52d)" d="M 461.801493 244.053716 
L 497.848507 244.053716 
" style="fill:none;stroke:#303030;stroke-linecap:round;"/>
   </g>
   <g id="line2d_24">
    <path clip-path="url(#p8b0f6fc52d)" d="M 461.801493 83.367514 
L 497.848507 83.367514 
" style="fill:none;stroke:#303030;stroke-linecap:round;"/>
   </g>
   <g id="line2d_25">
    <path clip-path="url(#p8b0f6fc52d)" d="M 553.390333 103.607318 
L 553.390333 125.385933 
" style="fill:none;stroke:#303030;stroke-linecap:round;"/>
   </g>
   <g id="line2d_26">
    <path clip-path="url(#p8b0f6fc52d)" d="M 553.390333 81.927786 
L 553.390333 71.706757 
" style="fill:none;stroke:#303030;stroke-linecap:round;"/>
   </g>
   <g id="line2d_27">
    <path clip-path="url(#p8b0f6fc52d)" d="M 535.366827 125.385933 
L 571.41384 125.385933 
" style="fill:none;stroke:#303030;stroke-linecap:round;"/>
   </g>
   <g id="line2d_28">
    <path clip-path="url(#p8b0f6fc52d)" d="M 535.366827 71.706757 
L 571.41384 71.706757 
" style="fill:none;stroke:#303030;stroke-linecap:round;"/>
   </g>
   <g id="line2d_29">
    <path clip-path="url(#p8b0f6fc52d)" d="M 94.342653 104.578165 
L 166.43668 104.578165 
" style="fill:none;stroke:#303030;stroke-linecap:round;"/>
   </g>
   <g id="line2d_30">
    <path clip-path="url(#p8b0f6fc52d)" d="M 167.907987 108.799888 
L 240.002013 108.799888 
" style="fill:none;stroke:#303030;stroke-linecap:round;"/>
   </g>
   <g id="line2d_31">
    <path clip-path="url(#p8b0f6fc52d)" d="M 241.47332 87.901399 
L 313.567347 87.901399 
" style="fill:none;stroke:#303030;stroke-linecap:round;"/>
   </g>
   <g id="line2d_32">
    <path clip-path="url(#p8b0f6fc52d)" d="M 370.212653 120.687904 
L 442.30668 120.687904 
" style="fill:none;stroke:#303030;stroke-linecap:round;"/>
   </g>
   <g id="line2d_33">
    <path clip-path="url(#p8b0f6fc52d)" d="M 443.777987 147.666528 
L 515.872013 147.666528 
" style="fill:none;stroke:#303030;stroke-linecap:round;"/>
   </g>
   <g id="line2d_34">
    <path clip-path="url(#p8b0f6fc52d)" d="M 517.34332 87.678896 
L 589.437347 87.678896 
" style="fill:none;stroke:#303030;stroke-linecap:round;"/>
   </g>
   <g id="patch_12">
    <path d="M 66.02 255.208952 
L 66.02 49.2 
" style="fill:none;stroke:#ffffff;stroke-linecap:square;stroke-linejoin:miter;stroke-width:1.25;"/>
   </g>
   <g id="patch_13">
    <path d="M 66.02 255.208952 
L 617.76 255.208952 
" style="fill:none;stroke:#ffffff;stroke-linecap:square;stroke-linejoin:miter;stroke-width:1.25;"/>
   </g>
   <g id="PathCollection_4">
    <defs>
     <path d="M 0 2.5 
C 0.663008 2.5 1.29895 2.236584 1.767767 1.767767 
C 2.236584 1.29895 2.5 0.663008 2.5 0 
C 2.5 -0.663008 2.236584 -1.29895 1.767767 -1.767767 
C 1.29895 -2.236584 0.663008 -2.5 0 -2.5 
C -0.663008 -2.5 -1.29895 -2.236584 -1.767767 -1.767767 
C -2.236584 -1.29895 -2.5 -0.663008 -2.5 0 
C -2.5 0.663008 -2.236584 1.29895 -1.767767 1.767767 
C -1.29895 2.236584 -0.663008 2.5 0 2.5 
z
" id="C0_0_f8b62e6479"/>
    </defs>
    <g clip-path="url(#p8b0f6fc52d)">
     <use style="fill:#0173b2;stroke:#000000;" x="139.074327" xlink:href="#C0_0_f8b62e6479" y="121.106284"/>
    </g>
    <g clip-path="url(#p8b0f6fc52d)">
     <use style="fill:#0173b2;stroke:#000000;" x="125.160008" xlink:href="#C0_0_f8b62e6479" y="80.117793"/>
    </g>
    <g clip-path="url(#p8b0f6fc52d)">
     <use style="fill:#0173b2;stroke:#000000;" x="133.793225" xlink:href="#C0_0_f8b62e6479" y="117.821129"/>
    </g>
    <g clip-path="url(#p8b0f6fc52d)">
     <use style="fill:#0173b2;stroke:#000000;" x="134.365843" xlink:href="#C0_0_f8b62e6479" y="204.655669"/>
    </g>
    <g clip-path="url(#p8b0f6fc52d)">
     <use style="fill:#0173b2;stroke:#000000;" x="138.170198" xlink:href="#C0_0_f8b62e6479" y="124.160714"/>
    </g>
    <g clip-path="url(#p8b0f6fc52d)">
     <use style="fill:#0173b2;stroke:#000000;" x="123.985568" xlink:href="#C0_0_f8b62e6479" y="141.279543"/>
    </g>
    <g clip-path="url(#p8b0f6fc52d)">
     <use style="fill:#0173b2;stroke:#000000;" x="138.161412" xlink:href="#C0_0_f8b62e6479" y="98.465786"/>
    </g>
    <g clip-path="url(#p8b0f6fc52d)">
     <use style="fill:#0173b2;stroke:#000000;" x="137.99092" xlink:href="#C0_0_f8b62e6479" y="100.871526"/>
    </g>
    <g clip-path="url(#p8b0f6fc52d)">
     <use style="fill:#0173b2;stroke:#000000;" x="137.156641" xlink:href="#C0_0_f8b62e6479" y="86.589359"/>
    </g>
    <g clip-path="url(#p8b0f6fc52d)">
     <use style="fill:#0173b2;stroke:#000000;" x="127.420677" xlink:href="#C0_0_f8b62e6479" y="82.889737"/>
    </g>
    <g clip-path="url(#p8b0f6fc52d)">
     <use style="fill:#0173b2;stroke:#000000;" x="132.665484" xlink:href="#C0_0_f8b62e6479" y="168.803087"/>
    </g>
    <g clip-path="url(#p8b0f6fc52d)">
     <use style="fill:#0173b2;stroke:#000000;" x="135.226346" xlink:href="#C0_0_f8b62e6479" y="104.982841"/>
    </g>
    <g clip-path="url(#p8b0f6fc52d)">
     <use style="fill:#0173b2;stroke:#000000;" x="138.250403" xlink:href="#C0_0_f8b62e6479" y="73.539087"/>
    </g>
    <g clip-path="url(#p8b0f6fc52d)">
     <use style="fill:#0173b2;stroke:#000000;" x="136.576881" xlink:href="#C0_0_f8b62e6479" y="144.170275"/>
    </g>
    <g clip-path="url(#p8b0f6fc52d)">
     <use style="fill:#0173b2;stroke:#000000;" x="136.432649" xlink:href="#C0_0_f8b62e6479" y="104.173489"/>
    </g>
    <g clip-path="url(#p8b0f6fc52d)">
     <use style="fill:#0173b2;stroke:#000000;" x="127.462555" xlink:href="#C0_0_f8b62e6479" y="61.333866"/>
    </g>
   </g>
   <g id="PathCollection_5">
    <defs>
     <path d="M 0 2.5 
C 0.663008 2.5 1.29895 2.236584 1.767767 1.767767 
C 2.236584 1.29895 2.5 0.663008 2.5 0 
C 2.5 -0.663008 2.236584 -1.29895 1.767767 -1.767767 
C 1.29895 -2.236584 0.663008 -2.5 0 -2.5 
C -0.663008 -2.5 -1.29895 -2.236584 -1.767767 -1.767767 
C -2.236584 -1.29895 -2.5 -0.663008 -2.5 0 
C -2.5 0.663008 -2.236584 1.29895 -1.767767 1.767767 
C -1.29895 2.236584 -0.663008 2.5 0 2.5 
z
" id="C1_0_b8340ebf09"/>
    </defs>
    <g clip-path="url(#p8b0f6fc52d)">
     <use style="fill:#de8f05;stroke:#000000;" x="199.852871" xlink:href="#C1_0_b8340ebf09" y="152.71207"/>
    </g>
    <g clip-path="url(#p8b0f6fc52d)">
     <use style="fill:#de8f05;stroke:#000000;" x="205.858824" xlink:href="#C1_0_b8340ebf09" y="89.637764"/>
    </g>
    <g clip-path="url(#p8b0f6fc52d)">
     <use style="fill:#de8f05;stroke:#000000;" x="201.084527" xlink:href="#C1_0_b8340ebf09" y="113.554713"/>
    </g>
    <g clip-path="url(#p8b0f6fc52d)">
     <use style="fill:#de8f05;stroke:#000000;" x="209.007163" xlink:href="#C1_0_b8340ebf09" y="219.348475"/>
    </g>
    <g clip-path="url(#p8b0f6fc52d)">
     <use style="fill:#de8f05;stroke:#000000;" x="194.98578" xlink:href="#C1_0_b8340ebf09" y="104.045063"/>
    </g>
    <g clip-path="url(#p8b0f6fc52d)">
     <use style="fill:#de8f05;stroke:#000000;" x="198.886687" xlink:href="#C1_0_b8340ebf09" y="157.900951"/>
    </g>
    <g clip-path="url(#p8b0f6fc52d)">
     <use style="fill:#de8f05;stroke:#000000;" x="195.986574" xlink:href="#C1_0_b8340ebf09" y="139.147587"/>
    </g>
    <g clip-path="url(#p8b0f6fc52d)">
     <use style="fill:#de8f05;stroke:#000000;" x="204.939774" xlink:href="#C1_0_b8340ebf09" y="66.369736"/>
    </g>
    <g clip-path="url(#p8b0f6fc52d)">
     <use style="fill:#de8f05;stroke:#000000;" x="209.627076" xlink:href="#C1_0_b8340ebf09" y="83.281077"/>
    </g>
    <g clip-path="url(#p8b0f6fc52d)">
     <use style="fill:#de8f05;stroke:#000000;" x="199.147381" xlink:href="#C1_0_b8340ebf09" y="95.427163"/>
    </g>
    <g clip-path="url(#p8b0f6fc52d)">
     <use style="fill:#de8f05;stroke:#000000;" x="200.507787" xlink:href="#C1_0_b8340ebf09" y="211.064299"/>
    </g>
    <g clip-path="url(#p8b0f6fc52d)">
     <use style="fill:#de8f05;stroke:#000000;" x="203.227577" xlink:href="#C1_0_b8340ebf09" y="76.981454"/>
    </g>
    <g clip-path="url(#p8b0f6fc52d)">
     <use style="fill:#de8f05;stroke:#000000;" x="210.530897" xlink:href="#C1_0_b8340ebf09" y="84.738201"/>
    </g>
    <g clip-path="url(#p8b0f6fc52d)">
     <use style="fill:#de8f05;stroke:#000000;" x="206.08199" xlink:href="#C1_0_b8340ebf09" y="188.793083"/>
    </g>
    <g clip-path="url(#p8b0f6fc52d)">
     <use style="fill:#de8f05;stroke:#000000;" x="195.481036" xlink:href="#C1_0_b8340ebf09" y="195.361879"/>
    </g>
    <g clip-path="url(#p8b0f6fc52d)">
     <use style="fill:#de8f05;stroke:#000000;" x="200.867018" xlink:href="#C1_0_b8340ebf09" y="60.34562"/>
    </g>
   </g>
   <g id="PathCollection_6">
    <defs>
     <path d="M 0 2.5 
C 0.663008 2.5 1.29895 2.236584 1.767767 1.767767 
C 2.236584 1.29895 2.5 0.663008 2.5 0 
C 2.5 -0.663008 2.236584 -1.29895 1.767767 -1.767767 
C 1.29895 -2.236584 0.663008 -2.5 0 -2.5 
C -0.663008 -2.5 -1.29895 -2.236584 -1.767767 -1.767767 
C -2.236584 -1.29895 -2.5 -0.663008 -2.5 0 
C -2.5 0.663008 -2.236584 1.29895 -1.767767 1.767767 
C -1.29895 2.236584 -0.663008 2.5 0 2.5 
z
" id="C2_0_5882dc9c12"/>
    </defs>
    <g clip-path="url(#p8b0f6fc52d)">
     <use style="fill:#029e73;stroke:#000000;" x="276.558265" xlink:href="#C2_0_5882dc9c12" y="107.467809"/>
    </g>
    <g clip-path="url(#p8b0f6fc52d)">
     <use style="fill:#029e73;stroke:#000000;" x="285.102405" xlink:href="#C2_0_5882dc9c12" y="90.968558"/>
    </g>
    <g clip-path="url(#p8b0f6fc52d)">
     <use style="fill:#029e73;stroke:#000000;" x="281.522955" xlink:href="#C2_0_5882dc9c12" y="88.573263"/>
    </g>
    <g clip-path="url(#p8b0f6fc52d)">
     <use style="fill:#029e73;stroke:#000000;" x="283.320354" xlink:href="#C2_0_5882dc9c12" y="92.138075"/>
    </g>
    <g clip-path="url(#p8b0f6fc52d)">
     <use style="fill:#029e73;stroke:#000000;" x="276.61482" xlink:href="#C2_0_5882dc9c12" y="110.449511"/>
    </g>
    <g clip-path="url(#p8b0f6fc52d)">
     <use style="fill:#029e73;stroke:#000000;" x="271.866708" xlink:href="#C2_0_5882dc9c12" y="85.893589"/>
    </g>
    <g clip-path="url(#p8b0f6fc52d)">
     <use style="fill:#029e73;stroke:#000000;" x="284.112743" xlink:href="#C2_0_5882dc9c12" y="121.112544"/>
    </g>
    <g clip-path="url(#p8b0f6fc52d)">
     <use style="fill:#029e73;stroke:#000000;" x="282.163496" xlink:href="#C2_0_5882dc9c12" y="76.434234"/>
    </g>
    <g clip-path="url(#p8b0f6fc52d)">
     <use style="fill:#029e73;stroke:#000000;" x="269.883336" xlink:href="#C2_0_5882dc9c12" y="93.512081"/>
    </g>
    <g clip-path="url(#p8b0f6fc52d)">
     <use style="fill:#029e73;stroke:#000000;" x="270.539273" xlink:href="#C2_0_5882dc9c12" y="85.523503"/>
    </g>
    <g clip-path="url(#p8b0f6fc52d)">
     <use style="fill:#029e73;stroke:#000000;" x="280.298442" xlink:href="#C2_0_5882dc9c12" y="87.229534"/>
    </g>
    <g clip-path="url(#p8b0f6fc52d)">
     <use style="fill:#029e73;stroke:#000000;" x="270.748805" xlink:href="#C2_0_5882dc9c12" y="69.46865"/>
    </g>
    <g clip-path="url(#p8b0f6fc52d)">
     <use style="fill:#029e73;stroke:#000000;" x="271.885272" xlink:href="#C2_0_5882dc9c12" y="61.601119"/>
    </g>
    <g clip-path="url(#p8b0f6fc52d)">
     <use style="fill:#029e73;stroke:#000000;" x="285.814568" xlink:href="#C2_0_5882dc9c12" y="70.806782"/>
    </g>
    <g clip-path="url(#p8b0f6fc52d)">
     <use style="fill:#029e73;stroke:#000000;" x="283.398675" xlink:href="#C2_0_5882dc9c12" y="110.583453"/>
    </g>
    <g clip-path="url(#p8b0f6fc52d)">
     <use style="fill:#029e73;stroke:#000000;" x="270.542981" xlink:href="#C2_0_5882dc9c12" y="77.59142"/>
    </g>
   </g>
   <g id="PathCollection_7">
    <defs>
     <path d="M 0 2.5 
C 0.663008 2.5 1.29895 2.236584 1.767767 1.767767 
C 2.236584 1.29895 2.5 0.663008 2.5 0 
C 2.5 -0.663008 2.236584 -1.29895 1.767767 -1.767767 
C 1.29895 -2.236584 0.663008 -2.5 0 -2.5 
C -0.663008 -2.5 -1.29895 -2.236584 -1.767767 -1.767767 
C -2.236584 -1.29895 -2.5 -0.663008 -2.5 0 
C -2.5 0.663008 -2.236584 1.29895 -1.767767 1.767767 
C -1.29895 2.236584 -0.663008 2.5 0 2.5 
z
" id="C3_0_64403aa959"/>
    </defs>
    <g clip-path="url(#p8b0f6fc52d)">
     <use style="fill:#0173b2;stroke:#000000;" x="400.047487" xlink:href="#C3_0_64403aa959" y="106.257706"/>
    </g>
    <g clip-path="url(#p8b0f6fc52d)">
     <use style="fill:#0173b2;stroke:#000000;" x="413.694967" xlink:href="#C3_0_64403aa959" y="122.316489"/>
    </g>
    <g clip-path="url(#p8b0f6fc52d)">
     <use style="fill:#0173b2;stroke:#000000;" x="408.830521" xlink:href="#C3_0_64403aa959" y="137.224289"/>
    </g>
    <g clip-path="url(#p8b0f6fc52d)">
     <use style="fill:#0173b2;stroke:#000000;" x="400.147918" xlink:href="#C3_0_64403aa959" y="167.632304"/>
    </g>
    <g clip-path="url(#p8b0f6fc52d)">
     <use style="fill:#0173b2;stroke:#000000;" x="414.744233" xlink:href="#C3_0_64403aa959" y="111.83305"/>
    </g>
    <g clip-path="url(#p8b0f6fc52d)">
     <use style="fill:#0173b2;stroke:#000000;" x="407.07284" xlink:href="#C3_0_64403aa959" y="93.699391"/>
    </g>
    <g clip-path="url(#p8b0f6fc52d)">
     <use style="fill:#0173b2;stroke:#000000;" x="405.948193" xlink:href="#C3_0_64403aa959" y="79.519348"/>
    </g>
    <g clip-path="url(#p8b0f6fc52d)">
     <use style="fill:#0173b2;stroke:#000000;" x="407.02225" xlink:href="#C3_0_64403aa959" y="138.208592"/>
    </g>
    <g clip-path="url(#p8b0f6fc52d)">
     <use style="fill:#0173b2;stroke:#000000;" x="411.267509" xlink:href="#C3_0_64403aa959" y="120.687904"/>
    </g>
    <g clip-path="url(#p8b0f6fc52d)">
     <use style="fill:#0173b2;stroke:#000000;" x="412.023843" xlink:href="#C3_0_64403aa959" y="139.564021"/>
    </g>
    <g clip-path="url(#p8b0f6fc52d)">
     <use style="fill:#0173b2;stroke:#000000;" x="405.218304" xlink:href="#C3_0_64403aa959" y="89.841275"/>
    </g>
    <g clip-path="url(#p8b0f6fc52d)">
     <use style="fill:#0173b2;stroke:#000000;" x="400.401127" xlink:href="#C3_0_64403aa959" y="93.638142"/>
    </g>
    <g clip-path="url(#p8b0f6fc52d)">
     <use style="fill:#0173b2;stroke:#000000;" x="408.986943" xlink:href="#C3_0_64403aa959" y="161.349374"/>
    </g>
    <g clip-path="url(#p8b0f6fc52d)">
     <use style="fill:#0173b2;stroke:#000000;" x="414.658479" xlink:href="#C3_0_64403aa959" y="138.150672"/>
    </g>
    <g clip-path="url(#p8b0f6fc52d)">
     <use style="fill:#0173b2;stroke:#000000;" x="402.327144" xlink:href="#C3_0_64403aa959" y="101.884838"/>
    </g>
   </g>
   <g id="PathCollection_8">
    <defs>
     <path d="M 0 2.5 
C 0.663008 2.5 1.29895 2.236584 1.767767 1.767767 
C 2.236584 1.29895 2.5 0.663008 2.5 0 
C 2.5 -0.663008 2.236584 -1.29895 1.767767 -1.767767 
C 1.29895 -2.236584 0.663008 -2.5 0 -2.5 
C -0.663008 -2.5 -1.29895 -2.236584 -1.767767 -1.767767 
C -2.236584 -1.29895 -2.5 -0.663008 -2.5 0 
C -2.5 0.663008 -2.236584 1.29895 -1.767767 1.767767 
C -1.29895 2.236584 -0.663008 2.5 0 2.5 
z
" id="C4_0_2632e6c5e2"/>
    </defs>
    <g clip-path="url(#p8b0f6fc52d)">
     <use style="fill:#de8f05;stroke:#000000;" x="481.528169" xlink:href="#C4_0_2632e6c5e2" y="147.666528"/>
    </g>
    <g clip-path="url(#p8b0f6fc52d)">
     <use style="fill:#de8f05;stroke:#000000;" x="480.213667" xlink:href="#C4_0_2632e6c5e2" y="141.56777"/>
    </g>
    <g clip-path="url(#p8b0f6fc52d)">
     <use style="fill:#de8f05;stroke:#000000;" x="487.377469" xlink:href="#C4_0_2632e6c5e2" y="104.968739"/>
    </g>
    <g clip-path="url(#p8b0f6fc52d)">
     <use style="fill:#de8f05;stroke:#000000;" x="481.576894" xlink:href="#C4_0_2632e6c5e2" y="235.902442"/>
    </g>
    <g clip-path="url(#p8b0f6fc52d)">
     <use style="fill:#de8f05;stroke:#000000;" x="473.041019" xlink:href="#C4_0_2632e6c5e2" y="121.555131"/>
    </g>
    <g clip-path="url(#p8b0f6fc52d)">
     <use style="fill:#de8f05;stroke:#000000;" x="471.657256" xlink:href="#C4_0_2632e6c5e2" y="83.765538"/>
    </g>
    <g clip-path="url(#p8b0f6fc52d)">
     <use style="fill:#de8f05;stroke:#000000;" x="478.09184" xlink:href="#C4_0_2632e6c5e2" y="101.282504"/>
    </g>
    <g clip-path="url(#p8b0f6fc52d)">
     <use style="fill:#de8f05;stroke:#000000;" x="487.805819" xlink:href="#C4_0_2632e6c5e2" y="156.99143"/>
    </g>
    <g clip-path="url(#p8b0f6fc52d)">
     <use style="fill:#de8f05;stroke:#000000;" x="488.702192" xlink:href="#C4_0_2632e6c5e2" y="154.486364"/>
    </g>
    <g clip-path="url(#p8b0f6fc52d)">
     <use style="fill:#de8f05;stroke:#000000;" x="471.973933" xlink:href="#C4_0_2632e6c5e2" y="244.053716"/>
    </g>
    <g clip-path="url(#p8b0f6fc52d)">
     <use style="fill:#de8f05;stroke:#000000;" x="476.926071" xlink:href="#C4_0_2632e6c5e2" y="83.367514"/>
    </g>
    <g clip-path="url(#p8b0f6fc52d)">
     <use style="fill:#de8f05;stroke:#000000;" x="476.99352" xlink:href="#C4_0_2632e6c5e2" y="153.39106"/>
    </g>
    <g clip-path="url(#p8b0f6fc52d)">
     <use style="fill:#de8f05;stroke:#000000;" x="484.825223" xlink:href="#C4_0_2632e6c5e2" y="191.874383"/>
    </g>
    <g clip-path="url(#p8b0f6fc52d)">
     <use style="fill:#de8f05;stroke:#000000;" x="475.674116" xlink:href="#C4_0_2632e6c5e2" y="195.081737"/>
    </g>
    <g clip-path="url(#p8b0f6fc52d)">
     <use style="fill:#de8f05;stroke:#000000;" x="475.204322" xlink:href="#C4_0_2632e6c5e2" y="133.609068"/>
    </g>
   </g>
   <g id="PathCollection_9">
    <defs>
     <path d="M 0 2.5 
C 0.663008 2.5 1.29895 2.236584 1.767767 1.767767 
C 2.236584 1.29895 2.5 0.663008 2.5 0 
C 2.5 -0.663008 2.236584 -1.29895 1.767767 -1.767767 
C 1.29895 -2.236584 0.663008 -2.5 0 -2.5 
C -0.663008 -2.5 -1.29895 -2.236584 -1.767767 -1.767767 
C -2.236584 -1.29895 -2.5 -0.663008 -2.5 0 
C -2.5 0.663008 -2.236584 1.29895 -1.767767 1.767767 
C -1.29895 2.236584 -0.663008 2.5 0 2.5 
z
" id="C5_0_f5eb48791f"/>
    </defs>
    <g clip-path="url(#p8b0f6fc52d)">
     <use style="fill:#029e73;stroke:#000000;" x="552.553172" xlink:href="#C5_0_f5eb48791f" y="102.726001"/>
    </g>
    <g clip-path="url(#p8b0f6fc52d)">
     <use style="fill:#029e73;stroke:#000000;" x="561.469003" xlink:href="#C5_0_f5eb48791f" y="104.488635"/>
    </g>
    <g clip-path="url(#p8b0f6fc52d)">
     <use style="fill:#029e73;stroke:#000000;" x="558.016328" xlink:href="#C5_0_f5eb48791f" y="106.530883"/>
    </g>
    <g clip-path="url(#p8b0f6fc52d)">
     <use style="fill:#029e73;stroke:#000000;" x="549.126791" xlink:href="#C5_0_f5eb48791f" y="100.716876"/>
    </g>
    <g clip-path="url(#p8b0f6fc52d)">
     <use style="fill:#029e73;stroke:#000000;" x="557.805815" xlink:href="#C5_0_f5eb48791f" y="143.476607"/>
    </g>
    <g clip-path="url(#p8b0f6fc52d)">
     <use style="fill:#029e73;stroke:#000000;" x="545.73999" xlink:href="#C5_0_f5eb48791f" y="81.977353"/>
    </g>
    <g clip-path="url(#p8b0f6fc52d)">
     <use style="fill:#029e73;stroke:#000000;" x="559.430124" xlink:href="#C5_0_f5eb48791f" y="94.047126"/>
    </g>
    <g clip-path="url(#p8b0f6fc52d)">
     <use style="fill:#029e73;stroke:#000000;" x="544.849591" xlink:href="#C5_0_f5eb48791f" y="85.267993"/>
    </g>
    <g clip-path="url(#p8b0f6fc52d)">
     <use style="fill:#029e73;stroke:#000000;" x="545.524311" xlink:href="#C5_0_f5eb48791f" y="87.678896"/>
    </g>
    <g clip-path="url(#p8b0f6fc52d)">
     <use style="fill:#029e73;stroke:#000000;" x="550.576643" xlink:href="#C5_0_f5eb48791f" y="125.385933"/>
    </g>
    <g clip-path="url(#p8b0f6fc52d)">
     <use style="fill:#029e73;stroke:#000000;" x="553.486931" xlink:href="#C5_0_f5eb48791f" y="81.421977"/>
    </g>
    <g clip-path="url(#p8b0f6fc52d)">
     <use style="fill:#029e73;stroke:#000000;" x="555.718473" xlink:href="#C5_0_f5eb48791f" y="81.878218"/>
    </g>
    <g clip-path="url(#p8b0f6fc52d)">
     <use style="fill:#029e73;stroke:#000000;" x="545.784038" xlink:href="#C5_0_f5eb48791f" y="71.706757"/>
    </g>
    <g clip-path="url(#p8b0f6fc52d)">
     <use style="fill:#029e73;stroke:#000000;" x="544.315614" xlink:href="#C5_0_f5eb48791f" y="86.929415"/>
    </g>
    <g clip-path="url(#p8b0f6fc52d)">
     <use style="fill:#029e73;stroke:#000000;" x="557.501418" xlink:href="#C5_0_f5eb48791f" y="73.839943"/>
    </g>
   </g>
   <g id="text_5">
    <!-- Muscles Pose -->
    <defs>
     <path d="M 7.421875 0 
L 7.421875 71.578125 
L 21.6875 71.578125 
L 38.625 20.90625 
Q 40.96875 13.8125 42.046875 10.296875 
Q 43.265625 14.203125 45.84375 21.78125 
L 62.984375 71.578125 
L 75.734375 71.578125 
L 75.734375 0 
L 66.609375 0 
L 66.609375 59.90625 
L 45.796875 0 
L 37.25 0 
L 16.546875 60.9375 
L 16.546875 0 
z
" id="ArialMT-77"/>
     <path d="M 40.578125 0 
L 40.578125 7.625 
Q 34.515625 -1.171875 24.125 -1.171875 
Q 19.53125 -1.171875 15.546875 0.578125 
Q 11.578125 2.34375 9.640625 5 
Q 7.71875 7.671875 6.9375 11.53125 
Q 6.390625 14.109375 6.390625 19.734375 
L 6.390625 51.859375 
L 15.1875 51.859375 
L 15.1875 23.09375 
Q 15.1875 16.21875 15.71875 13.8125 
Q 16.546875 10.359375 19.234375 8.375 
Q 21.921875 6.390625 25.875 6.390625 
Q 29.828125 6.390625 33.296875 8.421875 
Q 36.765625 10.453125 38.203125 13.9375 
Q 39.65625 17.4375 39.65625 24.078125 
L 39.65625 51.859375 
L 48.4375 51.859375 
L 48.4375 0 
z
" id="ArialMT-117"/>
     <path d="M 3.078125 15.484375 
L 11.765625 16.84375 
Q 12.5 11.625 15.84375 8.84375 
Q 19.1875 6.0625 25.203125 6.0625 
Q 31.25 6.0625 34.171875 8.515625 
Q 37.109375 10.984375 37.109375 14.3125 
Q 37.109375 17.28125 34.515625 19 
Q 32.71875 20.171875 25.53125 21.96875 
Q 15.875 24.421875 12.140625 26.203125 
Q 8.40625 27.984375 6.46875 31.125 
Q 4.546875 34.28125 4.546875 38.09375 
Q 4.546875 41.546875 6.125 44.5 
Q 7.71875 47.46875 10.453125 49.421875 
Q 12.5 50.921875 16.03125 51.96875 
Q 19.578125 53.03125 23.640625 53.03125 
Q 29.734375 53.03125 34.34375 51.265625 
Q 38.96875 49.515625 41.15625 46.5 
Q 43.359375 43.5 44.1875 38.484375 
L 35.59375 37.3125 
Q 35.015625 41.3125 32.203125 43.546875 
Q 29.390625 45.796875 24.265625 45.796875 
Q 18.21875 45.796875 15.625 43.796875 
Q 13.03125 41.796875 13.03125 39.109375 
Q 13.03125 37.40625 14.109375 36.03125 
Q 15.1875 34.625 17.484375 33.6875 
Q 18.796875 33.203125 25.25 31.453125 
Q 34.578125 28.953125 38.25 27.359375 
Q 41.9375 25.78125 44.03125 22.75 
Q 46.140625 19.734375 46.140625 15.234375 
Q 46.140625 10.84375 43.578125 6.953125 
Q 41.015625 3.078125 36.171875 0.953125 
Q 31.34375 -1.171875 25.25 -1.171875 
Q 15.140625 -1.171875 9.84375 3.03125 
Q 4.546875 7.234375 3.078125 15.484375 
z
" id="ArialMT-115"/>
     <path d="M 40.4375 19 
L 49.078125 17.875 
Q 47.65625 8.9375 41.8125 3.875 
Q 35.984375 -1.171875 27.484375 -1.171875 
Q 16.84375 -1.171875 10.375 5.78125 
Q 3.90625 12.75 3.90625 25.734375 
Q 3.90625 34.125 6.6875 40.421875 
Q 9.46875 46.734375 15.15625 49.875 
Q 20.84375 53.03125 27.546875 53.03125 
Q 35.984375 53.03125 41.359375 48.75 
Q 46.734375 44.484375 48.25 36.625 
L 39.703125 35.296875 
Q 38.484375 40.53125 35.375 43.15625 
Q 32.28125 45.796875 27.875 45.796875 
Q 21.234375 45.796875 17.078125 41.03125 
Q 12.9375 36.28125 12.9375 25.984375 
Q 12.9375 15.53125 16.9375 10.796875 
Q 20.953125 6.0625 27.390625 6.0625 
Q 32.5625 6.0625 36.03125 9.234375 
Q 39.5 12.40625 40.4375 19 
z
" id="ArialMT-99"/>
     <path d="M 6.390625 0 
L 6.390625 71.578125 
L 15.1875 71.578125 
L 15.1875 0 
z
" id="ArialMT-108"/>
     <path d="M 42.09375 16.703125 
L 51.171875 15.578125 
Q 49.03125 7.625 43.21875 3.21875 
Q 37.40625 -1.171875 28.375 -1.171875 
Q 17 -1.171875 10.328125 5.828125 
Q 3.65625 12.84375 3.65625 25.484375 
Q 3.65625 38.578125 10.390625 45.796875 
Q 17.140625 53.03125 27.875 53.03125 
Q 38.28125 53.03125 44.875 45.953125 
Q 51.46875 38.875 51.46875 26.03125 
Q 51.46875 25.25 51.421875 23.6875 
L 12.75 23.6875 
Q 13.234375 15.140625 17.578125 10.59375 
Q 21.921875 6.0625 28.421875 6.0625 
Q 33.25 6.0625 36.671875 8.59375 
Q 40.09375 11.140625 42.09375 16.703125 
z
M 13.234375 30.90625 
L 42.1875 30.90625 
Q 41.609375 37.453125 38.875 40.71875 
Q 34.671875 45.796875 27.984375 45.796875 
Q 21.921875 45.796875 17.796875 41.75 
Q 13.671875 37.703125 13.234375 30.90625 
z
" id="ArialMT-101"/>
     <path id="ArialMT-32"/>
     <path d="M 7.71875 0 
L 7.71875 71.578125 
L 34.71875 71.578125 
Q 41.84375 71.578125 45.609375 70.90625 
Q 50.875 70.015625 54.4375 67.546875 
Q 58.015625 65.09375 60.1875 60.640625 
Q 62.359375 56.203125 62.359375 50.875 
Q 62.359375 41.75 56.546875 35.421875 
Q 50.734375 29.109375 35.546875 29.109375 
L 17.1875 29.109375 
L 17.1875 0 
z
M 17.1875 37.546875 
L 35.6875 37.546875 
Q 44.875 37.546875 48.734375 40.96875 
Q 52.59375 44.390625 52.59375 50.59375 
Q 52.59375 55.078125 50.3125 58.265625 
Q 48.046875 61.46875 44.34375 62.5 
Q 41.9375 63.140625 35.5 63.140625 
L 17.1875 63.140625 
z
" id="ArialMT-80"/>
     <path d="M 3.328125 25.921875 
Q 3.328125 40.328125 11.328125 47.265625 
Q 18.015625 53.03125 27.640625 53.03125 
Q 38.328125 53.03125 45.109375 46.015625 
Q 51.90625 39.015625 51.90625 26.65625 
Q 51.90625 16.65625 48.90625 10.90625 
Q 45.90625 5.171875 40.15625 2 
Q 34.421875 -1.171875 27.640625 -1.171875 
Q 16.75 -1.171875 10.03125 5.8125 
Q 3.328125 12.796875 3.328125 25.921875 
z
M 12.359375 25.921875 
Q 12.359375 15.96875 16.703125 11.015625 
Q 21.046875 6.0625 27.640625 6.0625 
Q 34.1875 6.0625 38.53125 11.03125 
Q 42.875 16.015625 42.875 26.21875 
Q 42.875 35.84375 38.5 40.796875 
Q 34.125 45.75 27.640625 45.75 
Q 21.046875 45.75 16.703125 40.8125 
Q 12.359375 35.890625 12.359375 25.921875 
z
" id="ArialMT-111"/>
    </defs>
    <g style="fill:#262626;" transform="translate(267.1975 29.2)scale(0.24 -0.24)">
     <use xlink:href="#ArialMT-77"/>
     <use x="83.300781" xlink:href="#ArialMT-117"/>
     <use x="138.916016" xlink:href="#ArialMT-115"/>
     <use x="188.916016" xlink:href="#ArialMT-99"/>
     <use x="238.916016" xlink:href="#ArialMT-108"/>
     <use x="261.132812" xlink:href="#ArialMT-101"/>
     <use x="316.748047" xlink:href="#ArialMT-115"/>
     <use x="366.748047" xlink:href="#ArialMT-32"/>
     <use x="394.53125" xlink:href="#ArialMT-80"/>
     <use x="461.230469" xlink:href="#ArialMT-111"/>
     <use x="516.845703" xlink:href="#ArialMT-115"/>
     <use x="566.845703" xlink:href="#ArialMT-101"/>
    </g>
   </g>
  </g>
  <g id="axes_2">
   <g id="patch_14">
    <path d="M 66.02 520.42 
L 617.76 520.42 
L 617.76 314.411048 
L 66.02 314.411048 
z
" style="fill:#eaeaf2;"/>
   </g>
   <g id="matplotlib.axis_3">
    <g id="xtick_3">
     <g id="text_6">
      <!-- CP AH -->
      <defs>
       <path d="M 58.796875 25.09375 
L 68.265625 22.703125 
Q 65.28125 11.03125 57.546875 4.90625 
Q 49.8125 -1.21875 38.625 -1.21875 
Q 27.046875 -1.21875 19.796875 3.484375 
Q 12.546875 8.203125 8.765625 17.140625 
Q 4.984375 26.078125 4.984375 36.328125 
Q 4.984375 47.515625 9.25 55.828125 
Q 13.53125 64.15625 21.40625 68.46875 
Q 29.296875 72.796875 38.765625 72.796875 
Q 49.515625 72.796875 56.828125 67.328125 
Q 64.15625 61.859375 67.046875 51.953125 
L 57.71875 49.75 
Q 55.21875 57.5625 50.484375 61.125 
Q 45.75 64.703125 38.578125 64.703125 
Q 30.328125 64.703125 24.78125 60.734375 
Q 19.234375 56.78125 16.984375 50.109375 
Q 14.75 43.453125 14.75 36.375 
Q 14.75 27.25 17.40625 20.4375 
Q 20.0625 13.625 25.671875 10.25 
Q 31.296875 6.890625 37.84375 6.890625 
Q 45.796875 6.890625 51.3125 11.46875 
Q 56.84375 16.0625 58.796875 25.09375 
z
" id="ArialMT-67"/>
       <path d="M -0.140625 0 
L 27.34375 71.578125 
L 37.546875 71.578125 
L 66.84375 0 
L 56.0625 0 
L 47.703125 21.6875 
L 17.78125 21.6875 
L 9.90625 0 
z
M 20.515625 29.390625 
L 44.78125 29.390625 
L 37.3125 49.21875 
Q 33.890625 58.25 32.234375 64.0625 
Q 30.859375 57.171875 28.375 50.390625 
z
" id="ArialMT-65"/>
       <path d="M 8.015625 0 
L 8.015625 71.578125 
L 17.484375 71.578125 
L 17.484375 42.1875 
L 54.6875 42.1875 
L 54.6875 71.578125 
L 64.15625 71.578125 
L 64.15625 0 
L 54.6875 0 
L 54.6875 33.734375 
L 17.484375 33.734375 
L 17.484375 0 
z
" id="ArialMT-72"/>
      </defs>
      <g style="fill:#262626;" transform="translate(170.346562 545.667187)scale(0.22 -0.22)">
       <use xlink:href="#ArialMT-67"/>
       <use x="72.216797" xlink:href="#ArialMT-80"/>
       <use x="138.900391" xlink:href="#ArialMT-32"/>
       <use x="166.605469" xlink:href="#ArialMT-65"/>
       <use x="233.304688" xlink:href="#ArialMT-72"/>
      </g>
     </g>
    </g>
    <g id="xtick_4">
     <g id="text_7">
      <!-- CP LA -->
      <defs>
       <path d="M 7.328125 0 
L 7.328125 71.578125 
L 16.796875 71.578125 
L 16.796875 8.453125 
L 52.046875 8.453125 
L 52.046875 0 
z
" id="ArialMT-76"/>
      </defs>
      <g style="fill:#262626;" transform="translate(448.035 545.667187)scale(0.22 -0.22)">
       <use xlink:href="#ArialMT-67"/>
       <use x="72.216797" xlink:href="#ArialMT-80"/>
       <use x="138.900391" xlink:href="#ArialMT-32"/>
       <use x="166.683594" xlink:href="#ArialMT-76"/>
       <use x="222.298828" xlink:href="#ArialMT-65"/>
      </g>
     </g>
    </g>
   </g>
   <g id="matplotlib.axis_4">
    <g id="ytick_5">
     <g id="line2d_35">
      <path clip-path="url(#pf2eff52529)" d="M 66.02 518.171541 
L 617.76 518.171541 
" style="fill:none;stroke:#ffffff;stroke-linecap:round;"/>
     </g>
     <g id="text_8">
      <!-- 0.4 -->
      <g style="fill:#262626;" transform="translate(25.94 526.045134)scale(0.22 -0.22)">
       <use xlink:href="#ArialMT-48"/>
       <use x="55.615234" xlink:href="#ArialMT-46"/>
       <use x="83.398438" xlink:href="#ArialMT-52"/>
      </g>
     </g>
    </g>
    <g id="ytick_6">
     <g id="line2d_36">
      <path clip-path="url(#pf2eff52529)" d="M 66.02 452.816774 
L 617.76 452.816774 
" style="fill:none;stroke:#ffffff;stroke-linecap:round;"/>
     </g>
     <g id="text_9">
      <!-- 0.6 -->
      <g style="fill:#262626;" transform="translate(25.94 460.690368)scale(0.22 -0.22)">
       <use xlink:href="#ArialMT-48"/>
       <use x="55.615234" xlink:href="#ArialMT-46"/>
       <use x="83.398438" xlink:href="#ArialMT-54"/>
      </g>
     </g>
    </g>
    <g id="ytick_7">
     <g id="line2d_37">
      <path clip-path="url(#pf2eff52529)" d="M 66.02 387.462007 
L 617.76 387.462007 
" style="fill:none;stroke:#ffffff;stroke-linecap:round;"/>
     </g>
     <g id="text_10">
      <!-- 0.8 -->
      <g style="fill:#262626;" transform="translate(25.94 395.335601)scale(0.22 -0.22)">
       <use xlink:href="#ArialMT-48"/>
       <use x="55.615234" xlink:href="#ArialMT-46"/>
       <use x="83.398438" xlink:href="#ArialMT-56"/>
      </g>
     </g>
    </g>
    <g id="ytick_8">
     <g id="line2d_38">
      <path clip-path="url(#pf2eff52529)" d="M 66.02 322.107241 
L 617.76 322.107241 
" style="fill:none;stroke:#ffffff;stroke-linecap:round;"/>
     </g>
     <g id="text_11">
      <!-- 1.0 -->
      <g style="fill:#262626;" transform="translate(25.94 329.980835)scale(0.22 -0.22)">
       <use xlink:href="#ArialMT-49"/>
       <use x="55.615234" xlink:href="#ArialMT-46"/>
       <use x="83.398438" xlink:href="#ArialMT-48"/>
      </g>
     </g>
    </g>
   </g>
   <g id="patch_15">
    <path clip-path="url(#pf2eff52529)" d="M 94.342653 381.609402 
L 166.43668 381.609402 
L 166.43668 354.113276 
L 94.342653 354.113276 
L 94.342653 381.609402 
z
" style="fill:#176d9c;stroke:#303030;stroke-linejoin:miter;"/>
   </g>
   <g id="patch_16">
    <path clip-path="url(#pf2eff52529)" d="M 167.907987 398.830546 
L 240.002013 398.830546 
L 240.002013 350.666379 
L 167.907987 350.666379 
L 167.907987 398.830546 
z
" style="fill:#c38820;stroke:#303030;stroke-linejoin:miter;"/>
   </g>
   <g id="patch_17">
    <path clip-path="url(#pf2eff52529)" d="M 241.47332 364.329955 
L 313.567347 364.329955 
L 313.567347 340.450636 
L 241.47332 340.450636 
L 241.47332 364.329955 
z
" style="fill:#158b6a;stroke:#303030;stroke-linejoin:miter;"/>
   </g>
   <g id="patch_18">
    <path clip-path="url(#pf2eff52529)" d="M 370.212653 393.69391 
L 442.30668 393.69391 
L 442.30668 352.302817 
L 370.212653 352.302817 
L 370.212653 393.69391 
z
" style="fill:#176d9c;stroke:#303030;stroke-linejoin:miter;"/>
   </g>
   <g id="patch_19">
    <path clip-path="url(#pf2eff52529)" d="M 443.777987 409.722489 
L 515.872013 409.722489 
L 515.872013 358.896085 
L 443.777987 358.896085 
L 443.777987 409.722489 
z
" style="fill:#c38820;stroke:#303030;stroke-linejoin:miter;"/>
   </g>
   <g id="patch_20">
    <path clip-path="url(#pf2eff52529)" d="M 517.34332 359.720019 
L 589.437347 359.720019 
L 589.437347 340.192666 
L 517.34332 340.192666 
L 517.34332 359.720019 
z
" style="fill:#158b6a;stroke:#303030;stroke-linejoin:miter;"/>
   </g>
   <g id="PathCollection_10"/>
   <g id="PathCollection_11"/>
   <g id="PathCollection_12"/>
   <g id="patch_21">
    <path clip-path="url(#pf2eff52529)" d="M 203.955 648.881074 
L 203.955 648.881074 
L 203.955 648.881074 
L 203.955 648.881074 
z
" style="fill:#176d9c;stroke:#303030;stroke-linejoin:miter;stroke-width:0.5;"/>
   </g>
   <g id="patch_22">
    <path clip-path="url(#pf2eff52529)" d="M 203.955 648.881074 
L 203.955 648.881074 
L 203.955 648.881074 
L 203.955 648.881074 
z
" style="fill:#c38820;stroke:#303030;stroke-linejoin:miter;stroke-width:0.5;"/>
   </g>
   <g id="patch_23">
    <path clip-path="url(#pf2eff52529)" d="M 203.955 648.881074 
L 203.955 648.881074 
L 203.955 648.881074 
L 203.955 648.881074 
z
" style="fill:#158b6a;stroke:#303030;stroke-linejoin:miter;stroke-width:0.5;"/>
   </g>
   <g id="line2d_39">
    <path clip-path="url(#pf2eff52529)" d="M 130.389667 381.609402 
L 130.389667 403.818662 
" style="fill:none;stroke:#303030;stroke-linecap:round;"/>
   </g>
   <g id="line2d_40">
    <path clip-path="url(#pf2eff52529)" d="M 130.389667 354.113276 
L 130.389667 328.909599 
" style="fill:none;stroke:#303030;stroke-linecap:round;"/>
   </g>
   <g id="line2d_41">
    <path clip-path="url(#pf2eff52529)" d="M 112.36616 403.818662 
L 148.413173 403.818662 
" style="fill:none;stroke:#303030;stroke-linecap:round;"/>
   </g>
   <g id="line2d_42">
    <path clip-path="url(#pf2eff52529)" d="M 112.36616 328.909599 
L 148.413173 328.909599 
" style="fill:none;stroke:#303030;stroke-linecap:round;"/>
   </g>
   <g id="line2d_43">
    <path clip-path="url(#pf2eff52529)" d="M 203.955 398.830546 
L 203.955 413.059859 
" style="fill:none;stroke:#303030;stroke-linecap:round;"/>
   </g>
   <g id="line2d_44">
    <path clip-path="url(#pf2eff52529)" d="M 203.955 350.666379 
L 203.955 332.882194 
" style="fill:none;stroke:#303030;stroke-linecap:round;"/>
   </g>
   <g id="line2d_45">
    <path clip-path="url(#pf2eff52529)" d="M 185.931493 413.059859 
L 221.978507 413.059859 
" style="fill:none;stroke:#303030;stroke-linecap:round;"/>
   </g>
   <g id="line2d_46">
    <path clip-path="url(#pf2eff52529)" d="M 185.931493 332.882194 
L 221.978507 332.882194 
" style="fill:none;stroke:#303030;stroke-linecap:round;"/>
   </g>
   <g id="line2d_47">
    <path clip-path="url(#pf2eff52529)" d="M 277.520333 364.329955 
L 277.520333 375.707615 
" style="fill:none;stroke:#303030;stroke-linecap:round;"/>
   </g>
   <g id="line2d_48">
    <path clip-path="url(#pf2eff52529)" d="M 277.520333 340.450636 
L 277.520333 326.264332 
" style="fill:none;stroke:#303030;stroke-linecap:round;"/>
   </g>
   <g id="line2d_49">
    <path clip-path="url(#pf2eff52529)" d="M 259.496827 375.707615 
L 295.54384 375.707615 
" style="fill:none;stroke:#303030;stroke-linecap:round;"/>
   </g>
   <g id="line2d_50">
    <path clip-path="url(#pf2eff52529)" d="M 259.496827 326.264332 
L 295.54384 326.264332 
" style="fill:none;stroke:#303030;stroke-linecap:round;"/>
   </g>
   <g id="line2d_51">
    <path clip-path="url(#pf2eff52529)" d="M 406.259667 393.69391 
L 406.259667 414.202341 
" style="fill:none;stroke:#303030;stroke-linecap:round;"/>
   </g>
   <g id="line2d_52">
    <path clip-path="url(#pf2eff52529)" d="M 406.259667 352.302817 
L 406.259667 326.572186 
" style="fill:none;stroke:#303030;stroke-linecap:round;"/>
   </g>
   <g id="line2d_53">
    <path clip-path="url(#pf2eff52529)" d="M 388.23616 414.202341 
L 424.283173 414.202341 
" style="fill:none;stroke:#303030;stroke-linecap:round;"/>
   </g>
   <g id="line2d_54">
    <path clip-path="url(#pf2eff52529)" d="M 388.23616 326.572186 
L 424.283173 326.572186 
" style="fill:none;stroke:#303030;stroke-linecap:round;"/>
   </g>
   <g id="line2d_55">
    <path clip-path="url(#pf2eff52529)" d="M 479.825 409.722489 
L 479.825 429.737055 
" style="fill:none;stroke:#303030;stroke-linecap:round;"/>
   </g>
   <g id="line2d_56">
    <path clip-path="url(#pf2eff52529)" d="M 479.825 358.896085 
L 479.825 326.9846 
" style="fill:none;stroke:#303030;stroke-linecap:round;"/>
   </g>
   <g id="line2d_57">
    <path clip-path="url(#pf2eff52529)" d="M 461.801493 429.737055 
L 497.848507 429.737055 
" style="fill:none;stroke:#303030;stroke-linecap:round;"/>
   </g>
   <g id="line2d_58">
    <path clip-path="url(#pf2eff52529)" d="M 461.801493 326.9846 
L 497.848507 326.9846 
" style="fill:none;stroke:#303030;stroke-linecap:round;"/>
   </g>
   <g id="line2d_59">
    <path clip-path="url(#pf2eff52529)" d="M 553.390333 359.720019 
L 553.390333 369.464719 
" style="fill:none;stroke:#303030;stroke-linecap:round;"/>
   </g>
   <g id="line2d_60">
    <path clip-path="url(#pf2eff52529)" d="M 553.390333 340.192666 
L 553.390333 331.025735 
" style="fill:none;stroke:#303030;stroke-linecap:round;"/>
   </g>
   <g id="line2d_61">
    <path clip-path="url(#pf2eff52529)" d="M 535.366827 369.464719 
L 571.41384 369.464719 
" style="fill:none;stroke:#303030;stroke-linecap:round;"/>
   </g>
   <g id="line2d_62">
    <path clip-path="url(#pf2eff52529)" d="M 535.366827 331.025735 
L 571.41384 331.025735 
" style="fill:none;stroke:#303030;stroke-linecap:round;"/>
   </g>
   <g id="line2d_63">
    <path clip-path="url(#pf2eff52529)" d="M 94.342653 366.792551 
L 166.43668 366.792551 
" style="fill:none;stroke:#303030;stroke-linecap:round;"/>
   </g>
   <g id="line2d_64">
    <path clip-path="url(#pf2eff52529)" d="M 167.907987 366.191213 
L 240.002013 366.191213 
" style="fill:none;stroke:#303030;stroke-linecap:round;"/>
   </g>
   <g id="line2d_65">
    <path clip-path="url(#pf2eff52529)" d="M 241.47332 351.421148 
L 313.567347 351.421148 
" style="fill:none;stroke:#303030;stroke-linecap:round;"/>
   </g>
   <g id="line2d_66">
    <path clip-path="url(#pf2eff52529)" d="M 370.212653 373.336707 
L 442.30668 373.336707 
" style="fill:none;stroke:#303030;stroke-linecap:round;"/>
   </g>
   <g id="line2d_67">
    <path clip-path="url(#pf2eff52529)" d="M 443.777987 382.819738 
L 515.872013 382.819738 
" style="fill:none;stroke:#303030;stroke-linecap:round;"/>
   </g>
   <g id="line2d_68">
    <path clip-path="url(#pf2eff52529)" d="M 517.34332 347.436379 
L 589.437347 347.436379 
" style="fill:none;stroke:#303030;stroke-linecap:round;"/>
   </g>
   <g id="patch_24">
    <path d="M 66.02 520.42 
L 66.02 314.411048 
" style="fill:none;stroke:#ffffff;stroke-linecap:square;stroke-linejoin:miter;stroke-width:1.25;"/>
   </g>
   <g id="patch_25">
    <path d="M 66.02 520.42 
L 617.76 520.42 
" style="fill:none;stroke:#ffffff;stroke-linecap:square;stroke-linejoin:miter;stroke-width:1.25;"/>
   </g>
   <g id="PathCollection_13">
    <defs>
     <path d="M 0 2.5 
C 0.663008 2.5 1.29895 2.236584 1.767767 1.767767 
C 2.236584 1.29895 2.5 0.663008 2.5 0 
C 2.5 -0.663008 2.236584 -1.29895 1.767767 -1.767767 
C 1.29895 -2.236584 0.663008 -2.5 0 -2.5 
C -0.663008 -2.5 -1.29895 -2.236584 -1.767767 -1.767767 
C -2.236584 -1.29895 -2.5 -0.663008 -2.5 0 
C -2.5 0.663008 -2.236584 1.29895 -1.767767 1.767767 
C -1.29895 2.236584 -0.663008 2.5 0 2.5 
z
" id="C6_0_3085013840"/>
    </defs>
    <g clip-path="url(#pf2eff52529)">
     <use style="fill:#0173b2;stroke:#000000;" x="131.583238" xlink:href="#C6_0_3085013840" y="348.670583"/>
    </g>
    <g clip-path="url(#pf2eff52529)">
     <use style="fill:#0173b2;stroke:#000000;" x="136.913782" xlink:href="#C6_0_3085013840" y="357.888955"/>
    </g>
    <g clip-path="url(#pf2eff52529)">
     <use style="fill:#0173b2;stroke:#000000;" x="127.324191" xlink:href="#C6_0_3085013840" y="363.113809"/>
    </g>
    <g clip-path="url(#pf2eff52529)">
     <use style="fill:#0173b2;stroke:#000000;" x="125.879765" xlink:href="#C6_0_3085013840" y="430.50888"/>
    </g>
    <g clip-path="url(#pf2eff52529)">
     <use style="fill:#0173b2;stroke:#000000;" x="122.38124" xlink:href="#C6_0_3085013840" y="403.818662"/>
    </g>
    <g clip-path="url(#pf2eff52529)">
     <use style="fill:#0173b2;stroke:#000000;" x="137.583953" xlink:href="#C6_0_3085013840" y="374.663015"/>
    </g>
    <g clip-path="url(#pf2eff52529)">
     <use style="fill:#0173b2;stroke:#000000;" x="138.867858" xlink:href="#C6_0_3085013840" y="386.566779"/>
    </g>
    <g clip-path="url(#pf2eff52529)">
     <use style="fill:#0173b2;stroke:#000000;" x="132.56908" xlink:href="#C6_0_3085013840" y="380.683401"/>
    </g>
    <g clip-path="url(#pf2eff52529)">
     <use style="fill:#0173b2;stroke:#000000;" x="123.613165" xlink:href="#C6_0_3085013840" y="371.757742"/>
    </g>
    <g clip-path="url(#pf2eff52529)">
     <use style="fill:#0173b2;stroke:#000000;" x="133.763846" xlink:href="#C6_0_3085013840" y="354.487726"/>
    </g>
    <g clip-path="url(#pf2eff52529)">
     <use style="fill:#0173b2;stroke:#000000;" x="136.716666" xlink:href="#C6_0_3085013840" y="384.387404"/>
    </g>
    <g clip-path="url(#pf2eff52529)">
     <use style="fill:#0173b2;stroke:#000000;" x="124.721096" xlink:href="#C6_0_3085013840" y="357.383965"/>
    </g>
    <g clip-path="url(#pf2eff52529)">
     <use style="fill:#0173b2;stroke:#000000;" x="137.28015" xlink:href="#C6_0_3085013840" y="332.363521"/>
    </g>
    <g clip-path="url(#pf2eff52529)">
     <use style="fill:#0173b2;stroke:#000000;" x="128.365285" xlink:href="#C6_0_3085013840" y="370.471293"/>
    </g>
    <g clip-path="url(#pf2eff52529)">
     <use style="fill:#0173b2;stroke:#000000;" x="121.833889" xlink:href="#C6_0_3085013840" y="352.989927"/>
    </g>
    <g clip-path="url(#pf2eff52529)">
     <use style="fill:#0173b2;stroke:#000000;" x="130.500923" xlink:href="#C6_0_3085013840" y="328.909599"/>
    </g>
   </g>
   <g id="PathCollection_14">
    <defs>
     <path d="M 0 2.5 
C 0.663008 2.5 1.29895 2.236584 1.767767 1.767767 
C 2.236584 1.29895 2.5 0.663008 2.5 0 
C 2.5 -0.663008 2.236584 -1.29895 1.767767 -1.767767 
C 1.29895 -2.236584 0.663008 -2.5 0 -2.5 
C -0.663008 -2.5 -1.29895 -2.236584 -1.767767 -1.767767 
C -2.236584 -1.29895 -2.5 -0.663008 -2.5 0 
C -2.5 0.663008 -2.236584 1.29895 -1.767767 1.767767 
C -1.29895 2.236584 -0.663008 2.5 0 2.5 
z
" id="C7_0_f53d8e6329"/>
    </defs>
    <g clip-path="url(#pf2eff52529)">
     <use style="fill:#de8f05;stroke:#000000;" x="204.051409" xlink:href="#C7_0_f53d8e6329" y="336.633645"/>
    </g>
    <g clip-path="url(#pf2eff52529)">
     <use style="fill:#de8f05;stroke:#000000;" x="198.428437" xlink:href="#C7_0_f53d8e6329" y="408.005331"/>
    </g>
    <g clip-path="url(#pf2eff52529)">
     <use style="fill:#de8f05;stroke:#000000;" x="197.22673" xlink:href="#C7_0_f53d8e6329" y="351.974457"/>
    </g>
    <g clip-path="url(#pf2eff52529)">
     <use style="fill:#de8f05;stroke:#000000;" x="199.231456" xlink:href="#C7_0_f53d8e6329" y="493.124486"/>
    </g>
    <g clip-path="url(#pf2eff52529)">
     <use style="fill:#de8f05;stroke:#000000;" x="198.698016" xlink:href="#C7_0_f53d8e6329" y="397.805768"/>
    </g>
    <g clip-path="url(#pf2eff52529)">
     <use style="fill:#de8f05;stroke:#000000;" x="196.084569" xlink:href="#C7_0_f53d8e6329" y="413.059859"/>
    </g>
    <g clip-path="url(#pf2eff52529)">
     <use style="fill:#de8f05;stroke:#000000;" x="211.137676" xlink:href="#C7_0_f53d8e6329" y="357.395774"/>
    </g>
    <g clip-path="url(#pf2eff52529)">
     <use style="fill:#de8f05;stroke:#000000;" x="199.136062" xlink:href="#C7_0_f53d8e6329" y="361.631454"/>
    </g>
    <g clip-path="url(#pf2eff52529)">
     <use style="fill:#de8f05;stroke:#000000;" x="198.413081" xlink:href="#C7_0_f53d8e6329" y="379.784174"/>
    </g>
    <g clip-path="url(#pf2eff52529)">
     <use style="fill:#de8f05;stroke:#000000;" x="208.324365" xlink:href="#C7_0_f53d8e6329" y="355.192963"/>
    </g>
    <g clip-path="url(#pf2eff52529)">
     <use style="fill:#de8f05;stroke:#000000;" x="212.504941" xlink:href="#C7_0_f53d8e6329" y="401.904879"/>
    </g>
    <g clip-path="url(#pf2eff52529)">
     <use style="fill:#de8f05;stroke:#000000;" x="211.50155" xlink:href="#C7_0_f53d8e6329" y="343.166278"/>
    </g>
    <g clip-path="url(#pf2eff52529)">
     <use style="fill:#de8f05;stroke:#000000;" x="211.806781" xlink:href="#C7_0_f53d8e6329" y="346.742147"/>
    </g>
    <g clip-path="url(#pf2eff52529)">
     <use style="fill:#de8f05;stroke:#000000;" x="199.712849" xlink:href="#C7_0_f53d8e6329" y="370.750972"/>
    </g>
    <g clip-path="url(#pf2eff52529)">
     <use style="fill:#de8f05;stroke:#000000;" x="204.371367" xlink:href="#C7_0_f53d8e6329" y="377.033655"/>
    </g>
    <g clip-path="url(#pf2eff52529)">
     <use style="fill:#de8f05;stroke:#000000;" x="209.110079" xlink:href="#C7_0_f53d8e6329" y="332.882194"/>
    </g>
   </g>
   <g id="PathCollection_15">
    <defs>
     <path d="M 0 2.5 
C 0.663008 2.5 1.29895 2.236584 1.767767 1.767767 
C 2.236584 1.29895 2.5 0.663008 2.5 0 
C 2.5 -0.663008 2.236584 -1.29895 1.767767 -1.767767 
C 1.29895 -2.236584 0.663008 -2.5 0 -2.5 
C -0.663008 -2.5 -1.29895 -2.236584 -1.767767 -1.767767 
C -2.236584 -1.29895 -2.5 -0.663008 -2.5 0 
C -2.5 0.663008 -2.236584 1.29895 -1.767767 1.767767 
C -1.29895 2.236584 -0.663008 2.5 0 2.5 
z
" id="C8_0_154f7a0337"/>
    </defs>
    <g clip-path="url(#pf2eff52529)">
     <use style="fill:#029e73;stroke:#000000;" x="273.276414" xlink:href="#C8_0_154f7a0337" y="337.630601"/>
    </g>
    <g clip-path="url(#pf2eff52529)">
     <use style="fill:#029e73;stroke:#000000;" x="274.982245" xlink:href="#C8_0_154f7a0337" y="346.136329"/>
    </g>
    <g clip-path="url(#pf2eff52529)">
     <use style="fill:#029e73;stroke:#000000;" x="268.87923" xlink:href="#C8_0_154f7a0337" y="356.77357"/>
    </g>
    <g clip-path="url(#pf2eff52529)">
     <use style="fill:#029e73;stroke:#000000;" x="281.74488" xlink:href="#C8_0_154f7a0337" y="373.563142"/>
    </g>
    <g clip-path="url(#pf2eff52529)">
     <use style="fill:#029e73;stroke:#000000;" x="273.53576" xlink:href="#C8_0_154f7a0337" y="364.838209"/>
    </g>
    <g clip-path="url(#pf2eff52529)">
     <use style="fill:#029e73;stroke:#000000;" x="286.584403" xlink:href="#C8_0_154f7a0337" y="375.707615"/>
    </g>
    <g clip-path="url(#pf2eff52529)">
     <use style="fill:#029e73;stroke:#000000;" x="270.162635" xlink:href="#C8_0_154f7a0337" y="364.160537"/>
    </g>
    <g clip-path="url(#pf2eff52529)">
     <use style="fill:#029e73;stroke:#000000;" x="277.775901" xlink:href="#C8_0_154f7a0337" y="350.127803"/>
    </g>
    <g clip-path="url(#pf2eff52529)">
     <use style="fill:#029e73;stroke:#000000;" x="273.127761" xlink:href="#C8_0_154f7a0337" y="352.714494"/>
    </g>
    <g clip-path="url(#pf2eff52529)">
     <use style="fill:#029e73;stroke:#000000;" x="280.193706" xlink:href="#C8_0_154f7a0337" y="361.029085"/>
    </g>
    <g clip-path="url(#pf2eff52529)">
     <use style="fill:#029e73;stroke:#000000;" x="276.707082" xlink:href="#C8_0_154f7a0337" y="365.118178"/>
    </g>
    <g clip-path="url(#pf2eff52529)">
     <use style="fill:#029e73;stroke:#000000;" x="273.667932" xlink:href="#C8_0_154f7a0337" y="343.425749"/>
    </g>
    <g clip-path="url(#pf2eff52529)">
     <use style="fill:#029e73;stroke:#000000;" x="276.682917" xlink:href="#C8_0_154f7a0337" y="328.724438"/>
    </g>
    <g clip-path="url(#pf2eff52529)">
     <use style="fill:#029e73;stroke:#000000;" x="282.603035" xlink:href="#C8_0_154f7a0337" y="341.390647"/>
    </g>
    <g clip-path="url(#pf2eff52529)">
     <use style="fill:#029e73;stroke:#000000;" x="268.738469" xlink:href="#C8_0_154f7a0337" y="335.700209"/>
    </g>
    <g clip-path="url(#pf2eff52529)">
     <use style="fill:#029e73;stroke:#000000;" x="273.129129" xlink:href="#C8_0_154f7a0337" y="326.264332"/>
    </g>
   </g>
   <g id="PathCollection_16">
    <defs>
     <path d="M 0 2.5 
C 0.663008 2.5 1.29895 2.236584 1.767767 1.767767 
C 2.236584 1.29895 2.5 0.663008 2.5 0 
C 2.5 -0.663008 2.236584 -1.29895 1.767767 -1.767767 
C 1.29895 -2.236584 0.663008 -2.5 0 -2.5 
C -0.663008 -2.5 -1.29895 -2.236584 -1.767767 -1.767767 
C -2.236584 -1.29895 -2.5 -0.663008 -2.5 0 
C -2.5 0.663008 -2.236584 1.29895 -1.767767 1.767767 
C -1.29895 2.236584 -0.663008 2.5 0 2.5 
z
" id="C9_0_a3ced4a9a4"/>
    </defs>
    <g clip-path="url(#pf2eff52529)">
     <use style="fill:#0173b2;stroke:#000000;" x="405.963119" xlink:href="#C9_0_a3ced4a9a4" y="373.336707"/>
    </g>
    <g clip-path="url(#pf2eff52529)">
     <use style="fill:#0173b2;stroke:#000000;" x="399.121797" xlink:href="#C9_0_a3ced4a9a4" y="335.199402"/>
    </g>
    <g clip-path="url(#pf2eff52529)">
     <use style="fill:#0173b2;stroke:#000000;" x="405.21954" xlink:href="#C9_0_a3ced4a9a4" y="414.202341"/>
    </g>
    <g clip-path="url(#pf2eff52529)">
     <use style="fill:#0173b2;stroke:#000000;" x="412.875217" xlink:href="#C9_0_a3ced4a9a4" y="326.572186"/>
    </g>
    <g clip-path="url(#pf2eff52529)">
     <use style="fill:#0173b2;stroke:#000000;" x="414.914786" xlink:href="#C9_0_a3ced4a9a4" y="381.880604"/>
    </g>
    <g clip-path="url(#pf2eff52529)">
     <use style="fill:#0173b2;stroke:#000000;" x="411.166095" xlink:href="#C9_0_a3ced4a9a4" y="389.329417"/>
    </g>
    <g clip-path="url(#pf2eff52529)">
     <use style="fill:#0173b2;stroke:#000000;" x="402.756042" xlink:href="#C9_0_a3ced4a9a4" y="352.188778"/>
    </g>
    <g clip-path="url(#pf2eff52529)">
     <use style="fill:#0173b2;stroke:#000000;" x="410.063799" xlink:href="#C9_0_a3ced4a9a4" y="413.983041"/>
    </g>
    <g clip-path="url(#pf2eff52529)">
     <use style="fill:#0173b2;stroke:#000000;" x="413.620894" xlink:href="#C9_0_a3ced4a9a4" y="388.705379"/>
    </g>
    <g clip-path="url(#pf2eff52529)">
     <use style="fill:#0173b2;stroke:#000000;" x="408.015333" xlink:href="#C9_0_a3ced4a9a4" y="398.058404"/>
    </g>
    <g clip-path="url(#pf2eff52529)">
     <use style="fill:#0173b2;stroke:#000000;" x="414.53869" xlink:href="#C9_0_a3ced4a9a4" y="398.543904"/>
    </g>
    <g clip-path="url(#pf2eff52529)">
     <use style="fill:#0173b2;stroke:#000000;" x="411.05437" xlink:href="#C9_0_a3ced4a9a4" y="351.865624"/>
    </g>
    <g clip-path="url(#pf2eff52529)">
     <use style="fill:#0173b2;stroke:#000000;" x="397.590598" xlink:href="#C9_0_a3ced4a9a4" y="359.937073"/>
    </g>
    <g clip-path="url(#pf2eff52529)">
     <use style="fill:#0173b2;stroke:#000000;" x="399.896968" xlink:href="#C9_0_a3ced4a9a4" y="358.103891"/>
    </g>
    <g clip-path="url(#pf2eff52529)">
     <use style="fill:#0173b2;stroke:#000000;" x="400.504093" xlink:href="#C9_0_a3ced4a9a4" y="352.416856"/>
    </g>
   </g>
   <g id="PathCollection_17">
    <defs>
     <path d="M 0 2.5 
C 0.663008 2.5 1.29895 2.236584 1.767767 1.767767 
C 2.236584 1.29895 2.5 0.663008 2.5 0 
C 2.5 -0.663008 2.236584 -1.29895 1.767767 -1.767767 
C 1.29895 -2.236584 0.663008 -2.5 0 -2.5 
C -0.663008 -2.5 -1.29895 -2.236584 -1.767767 -1.767767 
C -2.236584 -1.29895 -2.5 -0.663008 -2.5 0 
C -2.5 0.663008 -2.236584 1.29895 -1.767767 1.767767 
C -1.29895 2.236584 -0.663008 2.5 0 2.5 
z
" id="Ca_0_2b867a66a5"/>
    </defs>
    <g clip-path="url(#pf2eff52529)">
     <use style="fill:#de8f05;stroke:#000000;" x="476.556781" xlink:href="#Ca_0_2b867a66a5" y="394.681236"/>
    </g>
    <g clip-path="url(#pf2eff52529)">
     <use style="fill:#de8f05;stroke:#000000;" x="475.953124" xlink:href="#Ca_0_2b867a66a5" y="349.908834"/>
    </g>
    <g clip-path="url(#pf2eff52529)">
     <use style="fill:#de8f05;stroke:#000000;" x="474.905663" xlink:href="#Ca_0_2b867a66a5" y="412.044033"/>
    </g>
    <g clip-path="url(#pf2eff52529)">
     <use style="fill:#de8f05;stroke:#000000;" x="476.566263" xlink:href="#Ca_0_2b867a66a5" y="361.123023"/>
    </g>
    <g clip-path="url(#pf2eff52529)">
     <use style="fill:#de8f05;stroke:#000000;" x="477.106667" xlink:href="#Ca_0_2b867a66a5" y="363.457059"/>
    </g>
    <g clip-path="url(#pf2eff52529)">
     <use style="fill:#de8f05;stroke:#000000;" x="475.815424" xlink:href="#Ca_0_2b867a66a5" y="412.128354"/>
    </g>
    <g clip-path="url(#pf2eff52529)">
     <use style="fill:#de8f05;stroke:#000000;" x="488.747803" xlink:href="#Ca_0_2b867a66a5" y="382.819738"/>
    </g>
    <g clip-path="url(#pf2eff52529)">
     <use style="fill:#de8f05;stroke:#000000;" x="484.28853" xlink:href="#Ca_0_2b867a66a5" y="405.978416"/>
    </g>
    <g clip-path="url(#pf2eff52529)">
     <use style="fill:#de8f05;stroke:#000000;" x="475.430429" xlink:href="#Ca_0_2b867a66a5" y="356.669147"/>
    </g>
    <g clip-path="url(#pf2eff52529)">
     <use style="fill:#de8f05;stroke:#000000;" x="478.57254" xlink:href="#Ca_0_2b867a66a5" y="423.862235"/>
    </g>
    <g clip-path="url(#pf2eff52529)">
     <use style="fill:#de8f05;stroke:#000000;" x="488.872937" xlink:href="#Ca_0_2b867a66a5" y="429.737055"/>
    </g>
    <g clip-path="url(#pf2eff52529)">
     <use style="fill:#de8f05;stroke:#000000;" x="483.156539" xlink:href="#Ca_0_2b867a66a5" y="341.824343"/>
    </g>
    <g clip-path="url(#pf2eff52529)">
     <use style="fill:#de8f05;stroke:#000000;" x="478.1977" xlink:href="#Ca_0_2b867a66a5" y="370.002475"/>
    </g>
    <g clip-path="url(#pf2eff52529)">
     <use style="fill:#de8f05;stroke:#000000;" x="472.206982" xlink:href="#Ca_0_2b867a66a5" y="407.400946"/>
    </g>
    <g clip-path="url(#pf2eff52529)">
     <use style="fill:#de8f05;stroke:#000000;" x="485.302164" xlink:href="#Ca_0_2b867a66a5" y="326.9846"/>
    </g>
   </g>
   <g id="PathCollection_18">
    <defs>
     <path d="M 0 2.5 
C 0.663008 2.5 1.29895 2.236584 1.767767 1.767767 
C 2.236584 1.29895 2.5 0.663008 2.5 0 
C 2.5 -0.663008 2.236584 -1.29895 1.767767 -1.767767 
C 1.29895 -2.236584 0.663008 -2.5 0 -2.5 
C -0.663008 -2.5 -1.29895 -2.236584 -1.767767 -1.767767 
C -2.236584 -1.29895 -2.5 -0.663008 -2.5 0 
C -2.5 0.663008 -2.236584 1.29895 -1.767767 1.767767 
C -1.29895 2.236584 -0.663008 2.5 0 2.5 
z
" id="Cb_0_09719e8d50"/>
    </defs>
    <g clip-path="url(#pf2eff52529)">
     <use style="fill:#029e73;stroke:#000000;" x="545.260382" xlink:href="#Cb_0_09719e8d50" y="398.970238"/>
    </g>
    <g clip-path="url(#pf2eff52529)">
     <use style="fill:#029e73;stroke:#000000;" x="561.92042" xlink:href="#Cb_0_09719e8d50" y="339.660721"/>
    </g>
    <g clip-path="url(#pf2eff52529)">
     <use style="fill:#029e73;stroke:#000000;" x="553.756058" xlink:href="#Cb_0_09719e8d50" y="369.464719"/>
    </g>
    <g clip-path="url(#pf2eff52529)">
     <use style="fill:#029e73;stroke:#000000;" x="550.534189" xlink:href="#Cb_0_09719e8d50" y="350.72538"/>
    </g>
    <g clip-path="url(#pf2eff52529)">
     <use style="fill:#029e73;stroke:#000000;" x="547.722873" xlink:href="#Cb_0_09719e8d50" y="365.525914"/>
    </g>
    <g clip-path="url(#pf2eff52529)">
     <use style="fill:#029e73;stroke:#000000;" x="548.451916" xlink:href="#Cb_0_09719e8d50" y="369.253285"/>
    </g>
    <g clip-path="url(#pf2eff52529)">
     <use style="fill:#029e73;stroke:#000000;" x="550.934961" xlink:href="#Cb_0_09719e8d50" y="353.914125"/>
    </g>
    <g clip-path="url(#pf2eff52529)">
     <use style="fill:#029e73;stroke:#000000;" x="548.440349" xlink:href="#Cb_0_09719e8d50" y="353.842383"/>
    </g>
    <g clip-path="url(#pf2eff52529)">
     <use style="fill:#029e73;stroke:#000000;" x="559.314736" xlink:href="#Cb_0_09719e8d50" y="347.349929"/>
    </g>
    <g clip-path="url(#pf2eff52529)">
     <use style="fill:#029e73;stroke:#000000;" x="562.002944" xlink:href="#Cb_0_09719e8d50" y="335.713245"/>
    </g>
    <g clip-path="url(#pf2eff52529)">
     <use style="fill:#029e73;stroke:#000000;" x="547.782554" xlink:href="#Cb_0_09719e8d50" y="336.657817"/>
    </g>
    <g clip-path="url(#pf2eff52529)">
     <use style="fill:#029e73;stroke:#000000;" x="556.987498" xlink:href="#Cb_0_09719e8d50" y="331.025735"/>
    </g>
    <g clip-path="url(#pf2eff52529)">
     <use style="fill:#029e73;stroke:#000000;" x="553.45261" xlink:href="#Cb_0_09719e8d50" y="340.72461"/>
    </g>
    <g clip-path="url(#pf2eff52529)">
     <use style="fill:#029e73;stroke:#000000;" x="561.896265" xlink:href="#Cb_0_09719e8d50" y="347.436379"/>
    </g>
    <g clip-path="url(#pf2eff52529)">
     <use style="fill:#029e73;stroke:#000000;" x="558.283568" xlink:href="#Cb_0_09719e8d50" y="341.959857"/>
    </g>
   </g>
   <g id="text_12">
    <!-- Powerbars Pose -->
    <defs>
     <path d="M 16.15625 0 
L 0.296875 51.859375 
L 9.375 51.859375 
L 17.625 21.921875 
L 20.703125 10.796875 
Q 20.90625 11.625 23.390625 21.484375 
L 31.640625 51.859375 
L 40.671875 51.859375 
L 48.4375 21.78125 
L 51.03125 11.859375 
L 54 21.875 
L 62.890625 51.859375 
L 71.4375 51.859375 
L 55.21875 0 
L 46.09375 0 
L 37.84375 31.0625 
L 35.84375 39.890625 
L 25.34375 0 
z
" id="ArialMT-119"/>
     <path d="M 6.5 0 
L 6.5 51.859375 
L 14.40625 51.859375 
L 14.40625 44 
Q 17.4375 49.515625 20 51.265625 
Q 22.5625 53.03125 25.640625 53.03125 
Q 30.078125 53.03125 34.671875 50.203125 
L 31.640625 42.046875 
Q 28.421875 43.953125 25.203125 43.953125 
Q 22.3125 43.953125 20.015625 42.21875 
Q 17.71875 40.484375 16.75 37.40625 
Q 15.28125 32.71875 15.28125 27.15625 
L 15.28125 0 
z
" id="ArialMT-114"/>
     <path d="M 14.703125 0 
L 6.546875 0 
L 6.546875 71.578125 
L 15.328125 71.578125 
L 15.328125 46.046875 
Q 20.90625 53.03125 29.546875 53.03125 
Q 34.328125 53.03125 38.59375 51.09375 
Q 42.875 49.171875 45.625 45.671875 
Q 48.390625 42.1875 49.953125 37.25 
Q 51.515625 32.328125 51.515625 26.703125 
Q 51.515625 13.375 44.921875 6.09375 
Q 38.328125 -1.171875 29.109375 -1.171875 
Q 19.921875 -1.171875 14.703125 6.5 
z
M 14.59375 26.3125 
Q 14.59375 17 17.140625 12.84375 
Q 21.296875 6.0625 28.375 6.0625 
Q 34.125 6.0625 38.328125 11.0625 
Q 42.53125 16.0625 42.53125 25.984375 
Q 42.53125 36.140625 38.5 40.96875 
Q 34.46875 45.796875 28.765625 45.796875 
Q 23 45.796875 18.796875 40.796875 
Q 14.59375 35.796875 14.59375 26.3125 
z
" id="ArialMT-98"/>
     <path d="M 40.4375 6.390625 
Q 35.546875 2.25 31.03125 0.53125 
Q 26.515625 -1.171875 21.34375 -1.171875 
Q 12.796875 -1.171875 8.203125 3 
Q 3.609375 7.171875 3.609375 13.671875 
Q 3.609375 17.484375 5.34375 20.625 
Q 7.078125 23.78125 9.890625 25.6875 
Q 12.703125 27.59375 16.21875 28.5625 
Q 18.796875 29.25 24.03125 29.890625 
Q 34.671875 31.15625 39.703125 32.90625 
Q 39.75 34.71875 39.75 35.203125 
Q 39.75 40.578125 37.25 42.78125 
Q 33.890625 45.75 27.25 45.75 
Q 21.046875 45.75 18.09375 43.578125 
Q 15.140625 41.40625 13.71875 35.890625 
L 5.125 37.0625 
Q 6.296875 42.578125 8.984375 45.96875 
Q 11.671875 49.359375 16.75 51.1875 
Q 21.828125 53.03125 28.515625 53.03125 
Q 35.15625 53.03125 39.296875 51.46875 
Q 43.453125 49.90625 45.40625 47.53125 
Q 47.359375 45.171875 48.140625 41.546875 
Q 48.578125 39.3125 48.578125 33.453125 
L 48.578125 21.734375 
Q 48.578125 9.46875 49.140625 6.21875 
Q 49.703125 2.984375 51.375 0 
L 42.1875 0 
Q 40.828125 2.734375 40.4375 6.390625 
z
M 39.703125 26.03125 
Q 34.90625 24.078125 25.34375 22.703125 
Q 19.921875 21.921875 17.671875 20.9375 
Q 15.4375 19.96875 14.203125 18.09375 
Q 12.984375 16.21875 12.984375 13.921875 
Q 12.984375 10.40625 15.640625 8.0625 
Q 18.3125 5.71875 23.4375 5.71875 
Q 28.515625 5.71875 32.46875 7.9375 
Q 36.421875 10.15625 38.28125 14.015625 
Q 39.703125 17 39.703125 22.796875 
z
" id="ArialMT-97"/>
    </defs>
    <g style="fill:#262626;" transform="translate(253.85125 294.411048)scale(0.24 -0.24)">
     <use xlink:href="#ArialMT-80"/>
     <use x="66.699219" xlink:href="#ArialMT-111"/>
     <use x="122.314453" xlink:href="#ArialMT-119"/>
     <use x="194.53125" xlink:href="#ArialMT-101"/>
     <use x="250.146484" xlink:href="#ArialMT-114"/>
     <use x="283.447266" xlink:href="#ArialMT-98"/>
     <use x="339.0625" xlink:href="#ArialMT-97"/>
     <use x="394.677734" xlink:href="#ArialMT-114"/>
     <use x="427.978516" xlink:href="#ArialMT-115"/>
     <use x="477.978516" xlink:href="#ArialMT-32"/>
     <use x="505.761719" xlink:href="#ArialMT-80"/>
     <use x="572.460938" xlink:href="#ArialMT-111"/>
     <use x="628.076172" xlink:href="#ArialMT-115"/>
     <use x="678.076172" xlink:href="#ArialMT-101"/>
    </g>
   </g>
   <g id="legend_1">
    <g id="patch_26">
     <path d="M 512.265 514.42 
L 609.36 514.42 
Q 611.76 514.42 611.76 512.02 
L 611.76 462.15625 
Q 611.76 459.75625 609.36 459.75625 
L 512.265 459.75625 
Q 509.865 459.75625 509.865 462.15625 
L 509.865 512.02 
Q 509.865 514.42 512.265 514.42 
z
" style="fill:#eaeaf2;opacity:0.8;stroke:#cccccc;stroke-linejoin:miter;"/>
    </g>
    <g id="patch_27">
     <path d="M 514.665 473.145625 
L 538.665 473.145625 
L 538.665 464.745625 
L 514.665 464.745625 
z
" style="fill:#176d9c;stroke:#303030;stroke-linejoin:miter;stroke-width:0.5;"/>
    </g>
    <g id="text_13">
     <!-- Distance -->
     <defs>
      <path d="M 7.71875 0 
L 7.71875 71.578125 
L 32.375 71.578125 
Q 40.71875 71.578125 45.125 70.5625 
Q 51.265625 69.140625 55.609375 65.4375 
Q 61.28125 60.640625 64.078125 53.1875 
Q 66.890625 45.75 66.890625 36.1875 
Q 66.890625 28.03125 64.984375 21.734375 
Q 63.09375 15.4375 60.109375 11.296875 
Q 57.125 7.171875 53.578125 4.796875 
Q 50.046875 2.4375 45.046875 1.21875 
Q 40.046875 0 33.546875 0 
z
M 17.1875 8.453125 
L 32.46875 8.453125 
Q 39.546875 8.453125 43.578125 9.765625 
Q 47.609375 11.078125 50 13.484375 
Q 53.375 16.84375 55.25 22.53125 
Q 57.125 28.21875 57.125 36.328125 
Q 57.125 47.5625 53.4375 53.59375 
Q 49.75 59.625 44.484375 61.671875 
Q 40.671875 63.140625 32.234375 63.140625 
L 17.1875 63.140625 
z
" id="ArialMT-68"/>
      <path d="M 6.640625 61.46875 
L 6.640625 71.578125 
L 15.4375 71.578125 
L 15.4375 61.46875 
z
M 6.640625 0 
L 6.640625 51.859375 
L 15.4375 51.859375 
L 15.4375 0 
z
" id="ArialMT-105"/>
      <path d="M 25.78125 7.859375 
L 27.046875 0.09375 
Q 23.34375 -0.6875 20.40625 -0.6875 
Q 15.625 -0.6875 12.984375 0.828125 
Q 10.359375 2.34375 9.28125 4.8125 
Q 8.203125 7.28125 8.203125 15.1875 
L 8.203125 45.015625 
L 1.765625 45.015625 
L 1.765625 51.859375 
L 8.203125 51.859375 
L 8.203125 64.703125 
L 16.9375 69.96875 
L 16.9375 51.859375 
L 25.78125 51.859375 
L 25.78125 45.015625 
L 16.9375 45.015625 
L 16.9375 14.703125 
Q 16.9375 10.9375 17.40625 9.859375 
Q 17.875 8.796875 18.921875 8.15625 
Q 19.96875 7.515625 21.921875 7.515625 
Q 23.390625 7.515625 25.78125 7.859375 
z
" id="ArialMT-116"/>
      <path d="M 6.59375 0 
L 6.59375 51.859375 
L 14.5 51.859375 
L 14.5 44.484375 
Q 20.21875 53.03125 31 53.03125 
Q 35.6875 53.03125 39.625 51.34375 
Q 43.5625 49.65625 45.515625 46.921875 
Q 47.46875 44.1875 48.25 40.4375 
Q 48.734375 37.984375 48.734375 31.890625 
L 48.734375 0 
L 39.9375 0 
L 39.9375 31.546875 
Q 39.9375 36.921875 38.90625 39.578125 
Q 37.890625 42.234375 35.28125 43.8125 
Q 32.671875 45.40625 29.15625 45.40625 
Q 23.53125 45.40625 19.453125 41.84375 
Q 15.375 38.28125 15.375 28.328125 
L 15.375 0 
z
" id="ArialMT-110"/>
     </defs>
     <g style="fill:#262626;" transform="translate(548.265 473.145625)scale(0.12 -0.12)">
      <use xlink:href="#ArialMT-68"/>
      <use x="72.216797" xlink:href="#ArialMT-105"/>
      <use x="94.433594" xlink:href="#ArialMT-115"/>
      <use x="144.433594" xlink:href="#ArialMT-116"/>
      <use x="172.216797" xlink:href="#ArialMT-97"/>
      <use x="227.832031" xlink:href="#ArialMT-110"/>
      <use x="283.447266" xlink:href="#ArialMT-99"/>
      <use x="333.447266" xlink:href="#ArialMT-101"/>
     </g>
    </g>
    <g id="patch_28">
     <path d="M 514.665 490.12 
L 538.665 490.12 
L 538.665 481.72 
L 514.665 481.72 
z
" style="fill:#c38820;stroke:#303030;stroke-linejoin:miter;stroke-width:0.5;"/>
    </g>
    <g id="text_14">
     <!-- Angle -->
     <defs>
      <path d="M 4.984375 -4.296875 
L 13.53125 -5.5625 
Q 14.0625 -9.515625 16.5 -11.328125 
Q 19.78125 -13.765625 25.4375 -13.765625 
Q 31.546875 -13.765625 34.859375 -11.328125 
Q 38.1875 -8.890625 39.359375 -4.5 
Q 40.046875 -1.8125 39.984375 6.78125 
Q 34.234375 0 25.640625 0 
Q 14.9375 0 9.078125 7.71875 
Q 3.21875 15.4375 3.21875 26.21875 
Q 3.21875 33.640625 5.90625 39.90625 
Q 8.59375 46.1875 13.6875 49.609375 
Q 18.796875 53.03125 25.6875 53.03125 
Q 34.859375 53.03125 40.828125 45.609375 
L 40.828125 51.859375 
L 48.921875 51.859375 
L 48.921875 7.03125 
Q 48.921875 -5.078125 46.453125 -10.125 
Q 44 -15.1875 38.640625 -18.109375 
Q 33.296875 -21.046875 25.484375 -21.046875 
Q 16.21875 -21.046875 10.5 -16.875 
Q 4.78125 -12.703125 4.984375 -4.296875 
z
M 12.25 26.859375 
Q 12.25 16.65625 16.296875 11.96875 
Q 20.359375 7.28125 26.46875 7.28125 
Q 32.515625 7.28125 36.609375 11.9375 
Q 40.71875 16.609375 40.71875 26.5625 
Q 40.71875 36.078125 36.5 40.90625 
Q 32.28125 45.75 26.3125 45.75 
Q 20.453125 45.75 16.34375 40.984375 
Q 12.25 36.234375 12.25 26.859375 
z
" id="ArialMT-103"/>
     </defs>
     <g style="fill:#262626;" transform="translate(548.265 490.12)scale(0.12 -0.12)">
      <use xlink:href="#ArialMT-65"/>
      <use x="66.699219" xlink:href="#ArialMT-110"/>
      <use x="122.314453" xlink:href="#ArialMT-103"/>
      <use x="177.929688" xlink:href="#ArialMT-108"/>
      <use x="200.146484" xlink:href="#ArialMT-101"/>
     </g>
    </g>
    <g id="patch_29">
     <path d="M 514.665 507.235 
L 538.665 507.235 
L 538.665 498.835 
L 514.665 498.835 
z
" style="fill:#158b6a;stroke:#303030;stroke-linejoin:miter;stroke-width:0.5;"/>
    </g>
    <g id="text_15">
     <!-- Orientation -->
     <defs>
      <path d="M 4.828125 34.859375 
Q 4.828125 52.6875 14.390625 62.765625 
Q 23.96875 72.859375 39.109375 72.859375 
Q 49.03125 72.859375 56.984375 68.109375 
Q 64.9375 63.375 69.109375 54.90625 
Q 73.296875 46.4375 73.296875 35.6875 
Q 73.296875 24.8125 68.890625 16.21875 
Q 64.5 7.625 56.4375 3.203125 
Q 48.390625 -1.21875 39.0625 -1.21875 
Q 28.953125 -1.21875 20.984375 3.65625 
Q 13.03125 8.546875 8.921875 16.984375 
Q 4.828125 25.4375 4.828125 34.859375 
z
M 14.59375 34.71875 
Q 14.59375 21.78125 21.546875 14.328125 
Q 28.515625 6.890625 39.015625 6.890625 
Q 49.703125 6.890625 56.609375 14.40625 
Q 63.53125 21.921875 63.53125 35.75 
Q 63.53125 44.484375 60.578125 51 
Q 57.625 57.515625 51.921875 61.109375 
Q 46.234375 64.703125 39.15625 64.703125 
Q 29.109375 64.703125 21.84375 57.78125 
Q 14.59375 50.875 14.59375 34.71875 
z
" id="ArialMT-79"/>
     </defs>
     <g style="fill:#262626;" transform="translate(548.265 507.235)scale(0.12 -0.12)">
      <use xlink:href="#ArialMT-79"/>
      <use x="77.783203" xlink:href="#ArialMT-114"/>
      <use x="111.083984" xlink:href="#ArialMT-105"/>
      <use x="133.300781" xlink:href="#ArialMT-101"/>
      <use x="188.916016" xlink:href="#ArialMT-110"/>
      <use x="244.53125" xlink:href="#ArialMT-116"/>
      <use x="272.314453" xlink:href="#ArialMT-97"/>
      <use x="327.929688" xlink:href="#ArialMT-116"/>
      <use x="355.712891" xlink:href="#ArialMT-105"/>
      <use x="377.929688" xlink:href="#ArialMT-111"/>
      <use x="433.544922" xlink:href="#ArialMT-110"/>
     </g>
    </g>
   </g>
  </g>
 </g>
 <defs>
  <clipPath id="p8b0f6fc52d">
   <rect height="206.008952" width="551.74" x="66.02" y="49.2"/>
  </clipPath>
  <clipPath id="pf2eff52529">
   <rect height="206.008952" width="551.74" x="66.02" y="314.411048"/>
  </clipPath>
 </defs>
</svg>
