<?xml version="1.0" encoding="utf-8" standalone="no"?>
<!DOCTYPE svg PUBLIC "-//W3C//DTD SVG 1.1//EN"
  "http://www.w3.org/Graphics/SVG/1.1/DTD/svg11.dtd">
<!-- Created with matplotlib (https://matplotlib.org/) -->
<svg height="576pt" version="1.1" viewBox="0 0 648 576" width="648pt" xmlns="http://www.w3.org/2000/svg" xmlns:xlink="http://www.w3.org/1999/xlink">
 <defs>
  <style type="text/css">
*{stroke-linecap:butt;stroke-linejoin:round;}
  </style>
 </defs>
 <g id="figure_1">
  <g id="patch_1">
   <path d="M 0 576 
L 648 576 
L 648 0 
L 0 0 
z
" style="fill:#ffffff;"/>
  </g>
  <g id="axes_1">
   <g id="patch_2">
    <path d="M 66.02 258.05 
L 617.76 258.05 
L 617.76 49.2 
L 66.02 49.2 
z
" style="fill:#eaeaf2;"/>
   </g>
   <g id="matplotlib.axis_1">
    <g id="xtick_1"/>
    <g id="xtick_2"/>
   </g>
   <g id="matplotlib.axis_2">
    <g id="ytick_1">
     <g id="line2d_1">
      <path clip-path="url(#p388bfda63d)" d="M 66.02 233.309998 
L 617.76 233.309998 
" style="fill:none;stroke:#ffffff;stroke-linecap:round;"/>
     </g>
     <g id="text_1">
      <!-- 0.7 -->
      <defs>
       <path d="M 4.15625 35.296875 
Q 4.15625 48 6.765625 55.734375 
Q 9.375 63.484375 14.515625 67.671875 
Q 19.671875 71.875 27.484375 71.875 
Q 33.25 71.875 37.59375 69.546875 
Q 41.9375 67.234375 44.765625 62.859375 
Q 47.609375 58.5 49.21875 52.21875 
Q 50.828125 45.953125 50.828125 35.296875 
Q 50.828125 22.703125 48.234375 14.96875 
Q 45.65625 7.234375 40.5 3 
Q 35.359375 -1.21875 27.484375 -1.21875 
Q 17.140625 -1.21875 11.234375 6.203125 
Q 4.15625 15.140625 4.15625 35.296875 
z
M 13.1875 35.296875 
Q 13.1875 17.671875 17.3125 11.828125 
Q 21.4375 6 27.484375 6 
Q 33.546875 6 37.671875 11.859375 
Q 41.796875 17.71875 41.796875 35.296875 
Q 41.796875 52.984375 37.671875 58.78125 
Q 33.546875 64.59375 27.390625 64.59375 
Q 21.34375 64.59375 17.71875 59.46875 
Q 13.1875 52.9375 13.1875 35.296875 
z
" id="ArialMT-48"/>
       <path d="M 9.078125 0 
L 9.078125 10.015625 
L 19.09375 10.015625 
L 19.09375 0 
z
" id="ArialMT-46"/>
       <path d="M 4.734375 62.203125 
L 4.734375 70.65625 
L 51.078125 70.65625 
L 51.078125 63.8125 
Q 44.234375 56.546875 37.515625 44.484375 
Q 30.8125 32.421875 27.15625 19.671875 
Q 24.515625 10.6875 23.78125 0 
L 14.75 0 
Q 14.890625 8.453125 18.0625 20.40625 
Q 21.234375 32.375 27.171875 43.484375 
Q 33.109375 54.59375 39.796875 62.203125 
z
" id="ArialMT-55"/>
      </defs>
      <g style="fill:#262626;" transform="translate(25.94 241.183592)scale(0.22 -0.22)">
       <use xlink:href="#ArialMT-48"/>
       <use x="55.615234" xlink:href="#ArialMT-46"/>
       <use x="83.398438" xlink:href="#ArialMT-55"/>
      </g>
     </g>
    </g>
    <g id="ytick_2">
     <g id="line2d_2">
      <path clip-path="url(#p388bfda63d)" d="M 66.02 173.898381 
L 617.76 173.898381 
" style="fill:none;stroke:#ffffff;stroke-linecap:round;"/>
     </g>
     <g id="text_2">
      <!-- 0.8 -->
      <defs>
       <path d="M 17.671875 38.8125 
Q 12.203125 40.828125 9.5625 44.53125 
Q 6.9375 48.25 6.9375 53.421875 
Q 6.9375 61.234375 12.546875 66.546875 
Q 18.171875 71.875 27.484375 71.875 
Q 36.859375 71.875 42.578125 66.421875 
Q 48.296875 60.984375 48.296875 53.171875 
Q 48.296875 48.1875 45.671875 44.5 
Q 43.0625 40.828125 37.75 38.8125 
Q 44.34375 36.671875 47.78125 31.875 
Q 51.21875 27.09375 51.21875 20.453125 
Q 51.21875 11.28125 44.71875 5.03125 
Q 38.234375 -1.21875 27.640625 -1.21875 
Q 17.046875 -1.21875 10.546875 5.046875 
Q 4.046875 11.328125 4.046875 20.703125 
Q 4.046875 27.6875 7.59375 32.390625 
Q 11.140625 37.109375 17.671875 38.8125 
z
M 15.921875 53.71875 
Q 15.921875 48.640625 19.1875 45.40625 
Q 22.46875 42.1875 27.6875 42.1875 
Q 32.765625 42.1875 36.015625 45.375 
Q 39.265625 48.578125 39.265625 53.21875 
Q 39.265625 58.0625 35.90625 61.359375 
Q 32.5625 64.65625 27.59375 64.65625 
Q 22.5625 64.65625 19.234375 61.421875 
Q 15.921875 58.203125 15.921875 53.71875 
z
M 13.09375 20.65625 
Q 13.09375 16.890625 14.875 13.375 
Q 16.65625 9.859375 20.171875 7.921875 
Q 23.6875 6 27.734375 6 
Q 34.03125 6 38.125 10.046875 
Q 42.234375 14.109375 42.234375 20.359375 
Q 42.234375 26.703125 38.015625 30.859375 
Q 33.796875 35.015625 27.4375 35.015625 
Q 21.234375 35.015625 17.15625 30.90625 
Q 13.09375 26.8125 13.09375 20.65625 
z
" id="ArialMT-56"/>
      </defs>
      <g style="fill:#262626;" transform="translate(25.94 181.771975)scale(0.22 -0.22)">
       <use xlink:href="#ArialMT-48"/>
       <use x="55.615234" xlink:href="#ArialMT-46"/>
       <use x="83.398438" xlink:href="#ArialMT-56"/>
      </g>
     </g>
    </g>
    <g id="ytick_3">
     <g id="line2d_3">
      <path clip-path="url(#p388bfda63d)" d="M 66.02 114.486764 
L 617.76 114.486764 
" style="fill:none;stroke:#ffffff;stroke-linecap:round;"/>
     </g>
     <g id="text_3">
      <!-- 0.9 -->
      <defs>
       <path d="M 5.46875 16.546875 
L 13.921875 17.328125 
Q 14.984375 11.375 18.015625 8.6875 
Q 21.046875 6 25.78125 6 
Q 29.828125 6 32.875 7.859375 
Q 35.9375 9.71875 37.890625 12.8125 
Q 39.84375 15.921875 41.15625 21.1875 
Q 42.484375 26.46875 42.484375 31.9375 
Q 42.484375 32.515625 42.4375 33.6875 
Q 39.796875 29.5 35.234375 26.875 
Q 30.671875 24.265625 25.34375 24.265625 
Q 16.453125 24.265625 10.296875 30.703125 
Q 4.15625 37.15625 4.15625 47.703125 
Q 4.15625 58.59375 10.578125 65.234375 
Q 17 71.875 26.65625 71.875 
Q 33.640625 71.875 39.421875 68.109375 
Q 45.21875 64.359375 48.21875 57.390625 
Q 51.21875 50.4375 51.21875 37.25 
Q 51.21875 23.53125 48.234375 15.40625 
Q 45.265625 7.28125 39.375 3.03125 
Q 33.5 -1.21875 25.59375 -1.21875 
Q 17.1875 -1.21875 11.859375 3.4375 
Q 6.546875 8.109375 5.46875 16.546875 
z
M 41.453125 48.140625 
Q 41.453125 55.71875 37.421875 60.15625 
Q 33.40625 64.59375 27.734375 64.59375 
Q 21.875 64.59375 17.53125 59.8125 
Q 13.1875 55.03125 13.1875 47.40625 
Q 13.1875 40.578125 17.3125 36.296875 
Q 21.4375 32.03125 27.484375 32.03125 
Q 33.59375 32.03125 37.515625 36.296875 
Q 41.453125 40.578125 41.453125 48.140625 
z
" id="ArialMT-57"/>
      </defs>
      <g style="fill:#262626;" transform="translate(25.94 122.360357)scale(0.22 -0.22)">
       <use xlink:href="#ArialMT-48"/>
       <use x="55.615234" xlink:href="#ArialMT-46"/>
       <use x="83.398438" xlink:href="#ArialMT-57"/>
      </g>
     </g>
    </g>
    <g id="ytick_4">
     <g id="line2d_4">
      <path clip-path="url(#p388bfda63d)" d="M 66.02 55.075146 
L 617.76 55.075146 
" style="fill:none;stroke:#ffffff;stroke-linecap:round;"/>
     </g>
     <g id="text_4">
      <!-- 1.0 -->
      <defs>
       <path d="M 37.25 0 
L 28.46875 0 
L 28.46875 56 
Q 25.296875 52.984375 20.140625 49.953125 
Q 14.984375 46.921875 10.890625 45.40625 
L 10.890625 53.90625 
Q 18.265625 57.375 23.78125 62.296875 
Q 29.296875 67.234375 31.59375 71.875 
L 37.25 71.875 
z
" id="ArialMT-49"/>
      </defs>
      <g style="fill:#262626;" transform="translate(25.94 62.94874)scale(0.22 -0.22)">
       <use xlink:href="#ArialMT-49"/>
       <use x="55.615234" xlink:href="#ArialMT-46"/>
       <use x="83.398438" xlink:href="#ArialMT-48"/>
      </g>
     </g>
    </g>
   </g>
   <g id="patch_3">
    <path clip-path="url(#p388bfda63d)" d="M 94.342653 126.771064 
L 166.43668 126.771064 
L 166.43668 92.499955 
L 94.342653 92.499955 
L 94.342653 126.771064 
z
" style="fill:#176d9c;stroke:#303030;stroke-linejoin:miter;"/>
   </g>
   <g id="patch_4">
    <path clip-path="url(#p388bfda63d)" d="M 167.907987 151.241733 
L 240.002013 151.241733 
L 240.002013 84.824558 
L 167.907987 84.824558 
L 167.907987 151.241733 
z
" style="fill:#c38820;stroke:#303030;stroke-linejoin:miter;"/>
   </g>
   <g id="patch_5">
    <path clip-path="url(#p388bfda63d)" d="M 241.47332 92.108114 
L 313.567347 92.108114 
L 313.567347 76.807098 
L 241.47332 76.807098 
L 241.47332 92.108114 
z
" style="fill:#158b6a;stroke:#303030;stroke-linejoin:miter;"/>
   </g>
   <g id="patch_6">
    <path clip-path="url(#p388bfda63d)" d="M 370.212653 104.353452 
L 442.30668 104.353452 
L 442.30668 73.743207 
L 370.212653 73.743207 
L 370.212653 104.353452 
z
" style="fill:#176d9c;stroke:#303030;stroke-linejoin:miter;"/>
   </g>
   <g id="patch_7">
    <path clip-path="url(#p388bfda63d)" d="M 443.777987 105.174826 
L 515.872013 105.174826 
L 515.872013 78.767709 
L 443.777987 78.767709 
L 443.777987 105.174826 
z
" style="fill:#c38820;stroke:#303030;stroke-linejoin:miter;"/>
   </g>
   <g id="patch_8">
    <path clip-path="url(#p388bfda63d)" d="M 517.34332 85.860605 
L 589.437347 85.860605 
L 589.437347 67.99005 
L 517.34332 67.99005 
L 517.34332 85.860605 
z
" style="fill:#158b6a;stroke:#303030;stroke-linejoin:miter;"/>
   </g>
   <g id="PathCollection_1"/>
   <g id="PathCollection_2"/>
   <g id="PathCollection_3"/>
   <g id="patch_9">
    <path clip-path="url(#p388bfda63d)" d="M 203.955 649.191319 
L 203.955 649.191319 
L 203.955 649.191319 
L 203.955 649.191319 
z
" style="fill:#176d9c;stroke:#303030;stroke-linejoin:miter;stroke-width:0.5;"/>
   </g>
   <g id="patch_10">
    <path clip-path="url(#p388bfda63d)" d="M 203.955 649.191319 
L 203.955 649.191319 
L 203.955 649.191319 
L 203.955 649.191319 
z
" style="fill:#c38820;stroke:#303030;stroke-linejoin:miter;stroke-width:0.5;"/>
   </g>
   <g id="patch_11">
    <path clip-path="url(#p388bfda63d)" d="M 203.955 649.191319 
L 203.955 649.191319 
L 203.955 649.191319 
L 203.955 649.191319 
z
" style="fill:#158b6a;stroke:#303030;stroke-linejoin:miter;stroke-width:0.5;"/>
   </g>
   <g id="line2d_5">
    <path clip-path="url(#p388bfda63d)" d="M 130.389667 126.771064 
L 130.389667 141.609011 
" style="fill:none;stroke:#303030;stroke-linecap:round;"/>
   </g>
   <g id="line2d_6">
    <path clip-path="url(#p388bfda63d)" d="M 130.389667 92.499955 
L 130.389667 64.78821 
" style="fill:none;stroke:#303030;stroke-linecap:round;"/>
   </g>
   <g id="line2d_7">
    <path clip-path="url(#p388bfda63d)" d="M 112.36616 141.609011 
L 148.413173 141.609011 
" style="fill:none;stroke:#303030;stroke-linecap:round;"/>
   </g>
   <g id="line2d_8">
    <path clip-path="url(#p388bfda63d)" d="M 112.36616 64.78821 
L 148.413173 64.78821 
" style="fill:none;stroke:#303030;stroke-linecap:round;"/>
   </g>
   <g id="line2d_9">
    <path clip-path="url(#p388bfda63d)" d="M 203.955 151.241733 
L 203.955 246.790469 
" style="fill:none;stroke:#303030;stroke-linecap:round;"/>
   </g>
   <g id="line2d_10">
    <path clip-path="url(#p388bfda63d)" d="M 203.955 84.824558 
L 203.955 77.706942 
" style="fill:none;stroke:#303030;stroke-linecap:round;"/>
   </g>
   <g id="line2d_11">
    <path clip-path="url(#p388bfda63d)" d="M 185.931493 246.790469 
L 221.978507 246.790469 
" style="fill:none;stroke:#303030;stroke-linecap:round;"/>
   </g>
   <g id="line2d_12">
    <path clip-path="url(#p388bfda63d)" d="M 185.931493 77.706942 
L 221.978507 77.706942 
" style="fill:none;stroke:#303030;stroke-linecap:round;"/>
   </g>
   <g id="line2d_13">
    <path clip-path="url(#p388bfda63d)" d="M 277.520333 92.108114 
L 277.520333 108.420829 
" style="fill:none;stroke:#303030;stroke-linecap:round;"/>
   </g>
   <g id="line2d_14">
    <path clip-path="url(#p388bfda63d)" d="M 277.520333 76.807098 
L 277.520333 64.861679 
" style="fill:none;stroke:#303030;stroke-linecap:round;"/>
   </g>
   <g id="line2d_15">
    <path clip-path="url(#p388bfda63d)" d="M 259.496827 108.420829 
L 295.54384 108.420829 
" style="fill:none;stroke:#303030;stroke-linecap:round;"/>
   </g>
   <g id="line2d_16">
    <path clip-path="url(#p388bfda63d)" d="M 259.496827 64.861679 
L 295.54384 64.861679 
" style="fill:none;stroke:#303030;stroke-linecap:round;"/>
   </g>
   <g id="line2d_17">
    <path clip-path="url(#p388bfda63d)" d="M 406.259667 104.353452 
L 406.259667 125.120251 
" style="fill:none;stroke:#303030;stroke-linecap:round;"/>
   </g>
   <g id="line2d_18">
    <path clip-path="url(#p388bfda63d)" d="M 406.259667 73.743207 
L 406.259667 65.234686 
" style="fill:none;stroke:#303030;stroke-linecap:round;"/>
   </g>
   <g id="line2d_19">
    <path clip-path="url(#p388bfda63d)" d="M 388.23616 125.120251 
L 424.283173 125.120251 
" style="fill:none;stroke:#303030;stroke-linecap:round;"/>
   </g>
   <g id="line2d_20">
    <path clip-path="url(#p388bfda63d)" d="M 388.23616 65.234686 
L 424.283173 65.234686 
" style="fill:none;stroke:#303030;stroke-linecap:round;"/>
   </g>
   <g id="line2d_21">
    <path clip-path="url(#p388bfda63d)" d="M 479.825 105.174826 
L 479.825 143.522921 
" style="fill:none;stroke:#303030;stroke-linecap:round;"/>
   </g>
   <g id="line2d_22">
    <path clip-path="url(#p388bfda63d)" d="M 479.825 78.767709 
L 479.825 68.353194 
" style="fill:none;stroke:#303030;stroke-linecap:round;"/>
   </g>
   <g id="line2d_23">
    <path clip-path="url(#p388bfda63d)" d="M 461.801493 143.522921 
L 497.848507 143.522921 
" style="fill:none;stroke:#303030;stroke-linecap:round;"/>
   </g>
   <g id="line2d_24">
    <path clip-path="url(#p388bfda63d)" d="M 461.801493 68.353194 
L 497.848507 68.353194 
" style="fill:none;stroke:#303030;stroke-linecap:round;"/>
   </g>
   <g id="line2d_25">
    <path clip-path="url(#p388bfda63d)" d="M 553.390333 85.860605 
L 553.390333 96.852499 
" style="fill:none;stroke:#303030;stroke-linecap:round;"/>
   </g>
   <g id="line2d_26">
    <path clip-path="url(#p388bfda63d)" d="M 553.390333 67.99005 
L 553.390333 67.247051 
" style="fill:none;stroke:#303030;stroke-linecap:round;"/>
   </g>
   <g id="line2d_27">
    <path clip-path="url(#p388bfda63d)" d="M 535.366827 96.852499 
L 571.41384 96.852499 
" style="fill:none;stroke:#303030;stroke-linecap:round;"/>
   </g>
   <g id="line2d_28">
    <path clip-path="url(#p388bfda63d)" d="M 535.366827 67.247051 
L 571.41384 67.247051 
" style="fill:none;stroke:#303030;stroke-linecap:round;"/>
   </g>
   <g id="line2d_29">
    <path clip-path="url(#p388bfda63d)" d="M 94.342653 114.573563 
L 166.43668 114.573563 
" style="fill:none;stroke:#303030;stroke-linecap:round;"/>
   </g>
   <g id="line2d_30">
    <path clip-path="url(#p388bfda63d)" d="M 167.907987 120.548702 
L 240.002013 120.548702 
" style="fill:none;stroke:#303030;stroke-linecap:round;"/>
   </g>
   <g id="line2d_31">
    <path clip-path="url(#p388bfda63d)" d="M 241.47332 80.161302 
L 313.567347 80.161302 
" style="fill:none;stroke:#303030;stroke-linecap:round;"/>
   </g>
   <g id="line2d_32">
    <path clip-path="url(#p388bfda63d)" d="M 370.212653 94.352967 
L 442.30668 94.352967 
" style="fill:none;stroke:#303030;stroke-linecap:round;"/>
   </g>
   <g id="line2d_33">
    <path clip-path="url(#p388bfda63d)" d="M 443.777987 86.291097 
L 515.872013 86.291097 
" style="fill:none;stroke:#303030;stroke-linecap:round;"/>
   </g>
   <g id="line2d_34">
    <path clip-path="url(#p388bfda63d)" d="M 517.34332 73.85723 
L 589.437347 73.85723 
" style="fill:none;stroke:#303030;stroke-linecap:round;"/>
   </g>
   <g id="patch_12">
    <path d="M 66.02 258.05 
L 66.02 49.2 
" style="fill:none;stroke:#ffffff;stroke-linecap:square;stroke-linejoin:miter;stroke-width:1.25;"/>
   </g>
   <g id="patch_13">
    <path d="M 66.02 258.05 
L 617.76 258.05 
" style="fill:none;stroke:#ffffff;stroke-linecap:square;stroke-linejoin:miter;stroke-width:1.25;"/>
   </g>
   <g id="PathCollection_4">
    <defs>
     <path d="M 0 2.5 
C 0.663008 2.5 1.29895 2.236584 1.767767 1.767767 
C 2.236584 1.29895 2.5 0.663008 2.5 0 
C 2.5 -0.663008 2.236584 -1.29895 1.767767 -1.767767 
C 1.29895 -2.236584 0.663008 -2.5 0 -2.5 
C -0.663008 -2.5 -1.29895 -2.236584 -1.767767 -1.767767 
C -2.236584 -1.29895 -2.5 -0.663008 -2.5 0 
C -2.5 0.663008 -2.236584 1.29895 -1.767767 1.767767 
C -1.29895 2.236584 -0.663008 2.5 0 2.5 
z
" id="C0_0_21af64f670"/>
    </defs>
    <g clip-path="url(#p388bfda63d)">
     <use style="fill:#0173b2;stroke:#000000;" x="128.788518" xlink:href="#C0_0_21af64f670" y="141.609011"/>
    </g>
    <g clip-path="url(#p388bfda63d)">
     <use style="fill:#0173b2;stroke:#000000;" x="127.014998" xlink:href="#C0_0_21af64f670" y="115.510339"/>
    </g>
    <g clip-path="url(#p388bfda63d)">
     <use style="fill:#0173b2;stroke:#000000;" x="135.540195" xlink:href="#C0_0_21af64f670" y="64.78821"/>
    </g>
    <g clip-path="url(#p388bfda63d)">
     <use style="fill:#0173b2;stroke:#000000;" x="125.303454" xlink:href="#C0_0_21af64f670" y="114.573563"/>
    </g>
    <g clip-path="url(#p388bfda63d)">
     <use style="fill:#0173b2;stroke:#000000;" x="137.014839" xlink:href="#C0_0_21af64f670" y="101.806876"/>
    </g>
    <g clip-path="url(#p388bfda63d)">
     <use style="fill:#0173b2;stroke:#000000;" x="121.685019" xlink:href="#C0_0_21af64f670" y="125.788811"/>
    </g>
    <g clip-path="url(#p388bfda63d)">
     <use style="fill:#0173b2;stroke:#000000;" x="131.717462" xlink:href="#C0_0_21af64f670" y="126.771064"/>
    </g>
    <g clip-path="url(#p388bfda63d)">
     <use style="fill:#0173b2;stroke:#000000;" x="136.0011" xlink:href="#C0_0_21af64f670" y="181.99986"/>
    </g>
    <g clip-path="url(#p388bfda63d)">
     <use style="fill:#0173b2;stroke:#000000;" x="121.630768" xlink:href="#C0_0_21af64f670" y="110.980847"/>
    </g>
    <g clip-path="url(#p388bfda63d)">
     <use style="fill:#0173b2;stroke:#000000;" x="139.152281" xlink:href="#C0_0_21af64f670" y="92.499955"/>
    </g>
    <g clip-path="url(#p388bfda63d)">
     <use style="fill:#0173b2;stroke:#000000;" x="134.497784" xlink:href="#C0_0_21af64f670" y="88.718107"/>
    </g>
    <g clip-path="url(#p388bfda63d)">
     <use style="fill:#0173b2;stroke:#000000;" x="125.348669" xlink:href="#C0_0_21af64f670" y="134.527201"/>
    </g>
    <g clip-path="url(#p388bfda63d)">
     <use style="fill:#0173b2;stroke:#000000;" x="139.116414" xlink:href="#C0_0_21af64f670" y="88.55203"/>
    </g>
   </g>
   <g id="PathCollection_5">
    <defs>
     <path d="M 0 2.5 
C 0.663008 2.5 1.29895 2.236584 1.767767 1.767767 
C 2.236584 1.29895 2.5 0.663008 2.5 0 
C 2.5 -0.663008 2.236584 -1.29895 1.767767 -1.767767 
C 1.29895 -2.236584 0.663008 -2.5 0 -2.5 
C -0.663008 -2.5 -1.29895 -2.236584 -1.767767 -1.767767 
C -2.236584 -1.29895 -2.5 -0.663008 -2.5 0 
C -2.5 0.663008 -2.236584 1.29895 -1.767767 1.767767 
C -1.29895 2.236584 -0.663008 2.5 0 2.5 
z
" id="C1_0_8fdc91f775"/>
    </defs>
    <g clip-path="url(#p388bfda63d)">
     <use style="fill:#de8f05;stroke:#000000;" x="212.254541" xlink:href="#C1_0_8fdc91f775" y="185.525079"/>
    </g>
    <g clip-path="url(#p388bfda63d)">
     <use style="fill:#de8f05;stroke:#000000;" x="201.813772" xlink:href="#C1_0_8fdc91f775" y="98.673693"/>
    </g>
    <g clip-path="url(#p388bfda63d)">
     <use style="fill:#de8f05;stroke:#000000;" x="210.135507" xlink:href="#C1_0_8fdc91f775" y="88.786273"/>
    </g>
    <g clip-path="url(#p388bfda63d)">
     <use style="fill:#de8f05;stroke:#000000;" x="198.467761" xlink:href="#C1_0_8fdc91f775" y="131.026101"/>
    </g>
    <g clip-path="url(#p388bfda63d)">
     <use style="fill:#de8f05;stroke:#000000;" x="196.669272" xlink:href="#C1_0_8fdc91f775" y="130.665513"/>
    </g>
    <g clip-path="url(#p388bfda63d)">
     <use style="fill:#de8f05;stroke:#000000;" x="207.536118" xlink:href="#C1_0_8fdc91f775" y="84.824558"/>
    </g>
    <g clip-path="url(#p388bfda63d)">
     <use style="fill:#de8f05;stroke:#000000;" x="203.202345" xlink:href="#C1_0_8fdc91f775" y="151.241733"/>
    </g>
    <g clip-path="url(#p388bfda63d)">
     <use style="fill:#de8f05;stroke:#000000;" x="204.662764" xlink:href="#C1_0_8fdc91f775" y="246.790469"/>
    </g>
    <g clip-path="url(#p388bfda63d)">
     <use style="fill:#de8f05;stroke:#000000;" x="210.756347" xlink:href="#C1_0_8fdc91f775" y="81.551068"/>
    </g>
    <g clip-path="url(#p388bfda63d)">
     <use style="fill:#de8f05;stroke:#000000;" x="200.165628" xlink:href="#C1_0_8fdc91f775" y="120.548702"/>
    </g>
    <g clip-path="url(#p388bfda63d)">
     <use style="fill:#de8f05;stroke:#000000;" x="203.372797" xlink:href="#C1_0_8fdc91f775" y="80.325538"/>
    </g>
    <g clip-path="url(#p388bfda63d)">
     <use style="fill:#de8f05;stroke:#000000;" x="199.532602" xlink:href="#C1_0_8fdc91f775" y="180.58279"/>
    </g>
    <g clip-path="url(#p388bfda63d)">
     <use style="fill:#de8f05;stroke:#000000;" x="208.420393" xlink:href="#C1_0_8fdc91f775" y="77.706942"/>
    </g>
   </g>
   <g id="PathCollection_6">
    <defs>
     <path d="M 0 2.5 
C 0.663008 2.5 1.29895 2.236584 1.767767 1.767767 
C 2.236584 1.29895 2.5 0.663008 2.5 0 
C 2.5 -0.663008 2.236584 -1.29895 1.767767 -1.767767 
C 1.29895 -2.236584 0.663008 -2.5 0 -2.5 
C -0.663008 -2.5 -1.29895 -2.236584 -1.767767 -1.767767 
C -2.236584 -1.29895 -2.5 -0.663008 -2.5 0 
C -2.5 0.663008 -2.236584 1.29895 -1.767767 1.767767 
C -1.29895 2.236584 -0.663008 2.5 0 2.5 
z
" id="C2_0_177bbf8a66"/>
    </defs>
    <g clip-path="url(#p388bfda63d)">
     <use style="fill:#029e73;stroke:#000000;" x="270.650399" xlink:href="#C2_0_177bbf8a66" y="108.420829"/>
    </g>
    <g clip-path="url(#p388bfda63d)">
     <use style="fill:#029e73;stroke:#000000;" x="276.200662" xlink:href="#C2_0_177bbf8a66" y="84.748063"/>
    </g>
    <g clip-path="url(#p388bfda63d)">
     <use style="fill:#029e73;stroke:#000000;" x="275.076349" xlink:href="#C2_0_177bbf8a66" y="80.161302"/>
    </g>
    <g clip-path="url(#p388bfda63d)">
     <use style="fill:#029e73;stroke:#000000;" x="284.829644" xlink:href="#C2_0_177bbf8a66" y="95.106746"/>
    </g>
    <g clip-path="url(#p388bfda63d)">
     <use style="fill:#029e73;stroke:#000000;" x="284.017973" xlink:href="#C2_0_177bbf8a66" y="139.374553"/>
    </g>
    <g clip-path="url(#p388bfda63d)">
     <use style="fill:#029e73;stroke:#000000;" x="283.939036" xlink:href="#C2_0_177bbf8a66" y="76.299871"/>
    </g>
    <g clip-path="url(#p388bfda63d)">
     <use style="fill:#029e73;stroke:#000000;" x="268.832877" xlink:href="#C2_0_177bbf8a66" y="78.742381"/>
    </g>
    <g clip-path="url(#p388bfda63d)">
     <use style="fill:#029e73;stroke:#000000;" x="268.820165" xlink:href="#C2_0_177bbf8a66" y="92.108114"/>
    </g>
    <g clip-path="url(#p388bfda63d)">
     <use style="fill:#029e73;stroke:#000000;" x="284.198296" xlink:href="#C2_0_177bbf8a66" y="76.807098"/>
    </g>
    <g clip-path="url(#p388bfda63d)">
     <use style="fill:#029e73;stroke:#000000;" x="270.1057" xlink:href="#C2_0_177bbf8a66" y="64.861679"/>
    </g>
    <g clip-path="url(#p388bfda63d)">
     <use style="fill:#029e73;stroke:#000000;" x="270.42102" xlink:href="#C2_0_177bbf8a66" y="76.348138"/>
    </g>
    <g clip-path="url(#p388bfda63d)">
     <use style="fill:#029e73;stroke:#000000;" x="270.198924" xlink:href="#C2_0_177bbf8a66" y="77.959851"/>
    </g>
    <g clip-path="url(#p388bfda63d)">
     <use style="fill:#029e73;stroke:#000000;" x="276.912913" xlink:href="#C2_0_177bbf8a66" y="82.762962"/>
    </g>
   </g>
   <g id="PathCollection_7">
    <defs>
     <path d="M 0 2.5 
C 0.663008 2.5 1.29895 2.236584 1.767767 1.767767 
C 2.236584 1.29895 2.5 0.663008 2.5 0 
C 2.5 -0.663008 2.236584 -1.29895 1.767767 -1.767767 
C 1.29895 -2.236584 0.663008 -2.5 0 -2.5 
C -0.663008 -2.5 -1.29895 -2.236584 -1.767767 -1.767767 
C -2.236584 -1.29895 -2.5 -0.663008 -2.5 0 
C -2.5 0.663008 -2.236584 1.29895 -1.767767 1.767767 
C -1.29895 2.236584 -0.663008 2.5 0 2.5 
z
" id="C3_0_ec3c16bea5"/>
    </defs>
    <g clip-path="url(#p388bfda63d)">
     <use style="fill:#0173b2;stroke:#000000;" x="411.967832" xlink:href="#C3_0_ec3c16bea5" y="68.506102"/>
    </g>
    <g clip-path="url(#p388bfda63d)">
     <use style="fill:#0173b2;stroke:#000000;" x="399.403885" xlink:href="#C3_0_ec3c16bea5" y="94.352967"/>
    </g>
    <g clip-path="url(#p388bfda63d)">
     <use style="fill:#0173b2;stroke:#000000;" x="407.266527" xlink:href="#C3_0_ec3c16bea5" y="68.506102"/>
    </g>
    <g clip-path="url(#p388bfda63d)">
     <use style="fill:#0173b2;stroke:#000000;" x="408.515414" xlink:href="#C3_0_ec3c16bea5" y="113.729787"/>
    </g>
    <g clip-path="url(#p388bfda63d)">
     <use style="fill:#0173b2;stroke:#000000;" x="411.32987" xlink:href="#C3_0_ec3c16bea5" y="73.743207"/>
    </g>
    <g clip-path="url(#p388bfda63d)">
     <use style="fill:#0173b2;stroke:#000000;" x="399.920235" xlink:href="#C3_0_ec3c16bea5" y="81.903126"/>
    </g>
    <g clip-path="url(#p388bfda63d)">
     <use style="fill:#0173b2;stroke:#000000;" x="397.42216" xlink:href="#C3_0_ec3c16bea5" y="76.53445"/>
    </g>
    <g clip-path="url(#p388bfda63d)">
     <use style="fill:#0173b2;stroke:#000000;" x="405.129063" xlink:href="#C3_0_ec3c16bea5" y="65.234686"/>
    </g>
    <g clip-path="url(#p388bfda63d)">
     <use style="fill:#0173b2;stroke:#000000;" x="407.221165" xlink:href="#C3_0_ec3c16bea5" y="125.120251"/>
    </g>
    <g clip-path="url(#p388bfda63d)">
     <use style="fill:#0173b2;stroke:#000000;" x="400.289976" xlink:href="#C3_0_ec3c16bea5" y="104.353452"/>
    </g>
    <g clip-path="url(#p388bfda63d)">
     <use style="fill:#0173b2;stroke:#000000;" x="409.129405" xlink:href="#C3_0_ec3c16bea5" y="86.982642"/>
    </g>
    <g clip-path="url(#p388bfda63d)">
     <use style="fill:#0173b2;stroke:#000000;" x="409.20497" xlink:href="#C3_0_ec3c16bea5" y="103.120967"/>
    </g>
    <g clip-path="url(#p388bfda63d)">
     <use style="fill:#0173b2;stroke:#000000;" x="415.169038" xlink:href="#C3_0_ec3c16bea5" y="101.372496"/>
    </g>
    <g clip-path="url(#p388bfda63d)">
     <use style="fill:#0173b2;stroke:#000000;" x="401.432886" xlink:href="#C3_0_ec3c16bea5" y="161.052666"/>
    </g>
    <g clip-path="url(#p388bfda63d)">
     <use style="fill:#0173b2;stroke:#000000;" x="413.674004" xlink:href="#C3_0_ec3c16bea5" y="71.442046"/>
    </g>
    <g clip-path="url(#p388bfda63d)">
     <use style="fill:#0173b2;stroke:#000000;" x="410.984083" xlink:href="#C3_0_ec3c16bea5" y="95.462602"/>
    </g>
    <g clip-path="url(#p388bfda63d)">
     <use style="fill:#0173b2;stroke:#000000;" x="414.630891" xlink:href="#C3_0_ec3c16bea5" y="108.966505"/>
    </g>
   </g>
   <g id="PathCollection_8">
    <defs>
     <path d="M 0 2.5 
C 0.663008 2.5 1.29895 2.236584 1.767767 1.767767 
C 2.236584 1.29895 2.5 0.663008 2.5 0 
C 2.5 -0.663008 2.236584 -1.29895 1.767767 -1.767767 
C 1.29895 -2.236584 0.663008 -2.5 0 -2.5 
C -0.663008 -2.5 -1.29895 -2.236584 -1.767767 -1.767767 
C -2.236584 -1.29895 -2.5 -0.663008 -2.5 0 
C -2.5 0.663008 -2.236584 1.29895 -1.767767 1.767767 
C -1.29895 2.236584 -0.663008 2.5 0 2.5 
z
" id="C4_0_1eb071d952"/>
    </defs>
    <g clip-path="url(#p388bfda63d)">
     <use style="fill:#de8f05;stroke:#000000;" x="486.15339" xlink:href="#C4_0_1eb071d952" y="84.939116"/>
    </g>
    <g clip-path="url(#p388bfda63d)">
     <use style="fill:#de8f05;stroke:#000000;" x="475.181477" xlink:href="#C4_0_1eb071d952" y="74.149159"/>
    </g>
    <g clip-path="url(#p388bfda63d)">
     <use style="fill:#de8f05;stroke:#000000;" x="482.031166" xlink:href="#C4_0_1eb071d952" y="84.939116"/>
    </g>
    <g clip-path="url(#p388bfda63d)">
     <use style="fill:#de8f05;stroke:#000000;" x="487.297654" xlink:href="#C4_0_1eb071d952" y="78.767709"/>
    </g>
    <g clip-path="url(#p388bfda63d)">
     <use style="fill:#de8f05;stroke:#000000;" x="472.62437" xlink:href="#C4_0_1eb071d952" y="86.291097"/>
    </g>
    <g clip-path="url(#p388bfda63d)">
     <use style="fill:#de8f05;stroke:#000000;" x="479.000866" xlink:href="#C4_0_1eb071d952" y="68.353194"/>
    </g>
    <g clip-path="url(#p388bfda63d)">
     <use style="fill:#de8f05;stroke:#000000;" x="486.425351" xlink:href="#C4_0_1eb071d952" y="87.215151"/>
    </g>
    <g clip-path="url(#p388bfda63d)">
     <use style="fill:#de8f05;stroke:#000000;" x="472.552434" xlink:href="#C4_0_1eb071d952" y="76.571572"/>
    </g>
    <g clip-path="url(#p388bfda63d)">
     <use style="fill:#de8f05;stroke:#000000;" x="475.904159" xlink:href="#C4_0_1eb071d952" y="143.522921"/>
    </g>
    <g clip-path="url(#p388bfda63d)">
     <use style="fill:#de8f05;stroke:#000000;" x="482.308523" xlink:href="#C4_0_1eb071d952" y="105.174826"/>
    </g>
    <g clip-path="url(#p388bfda63d)">
     <use style="fill:#de8f05;stroke:#000000;" x="485.454762" xlink:href="#C4_0_1eb071d952" y="100.353446"/>
    </g>
    <g clip-path="url(#p388bfda63d)">
     <use style="fill:#de8f05;stroke:#000000;" x="472.913316" xlink:href="#C4_0_1eb071d952" y="94.860091"/>
    </g>
    <g clip-path="url(#p388bfda63d)">
     <use style="fill:#de8f05;stroke:#000000;" x="487.905193" xlink:href="#C4_0_1eb071d952" y="135.917381"/>
    </g>
    <g clip-path="url(#p388bfda63d)">
     <use style="fill:#de8f05;stroke:#000000;" x="473.848616" xlink:href="#C4_0_1eb071d952" y="180.532849"/>
    </g>
    <g clip-path="url(#p388bfda63d)">
     <use style="fill:#de8f05;stroke:#000000;" x="473.525859" xlink:href="#C4_0_1eb071d952" y="69.696697"/>
    </g>
    <g clip-path="url(#p388bfda63d)">
     <use style="fill:#de8f05;stroke:#000000;" x="472.740895" xlink:href="#C4_0_1eb071d952" y="124.750668"/>
    </g>
    <g clip-path="url(#p388bfda63d)">
     <use style="fill:#de8f05;stroke:#000000;" x="488.744299" xlink:href="#C4_0_1eb071d952" y="81.409615"/>
    </g>
   </g>
   <g id="PathCollection_9">
    <defs>
     <path d="M 0 2.5 
C 0.663008 2.5 1.29895 2.236584 1.767767 1.767767 
C 2.236584 1.29895 2.5 0.663008 2.5 0 
C 2.5 -0.663008 2.236584 -1.29895 1.767767 -1.767767 
C 1.29895 -2.236584 0.663008 -2.5 0 -2.5 
C -0.663008 -2.5 -1.29895 -2.236584 -1.767767 -1.767767 
C -2.236584 -1.29895 -2.5 -0.663008 -2.5 0 
C -2.5 0.663008 -2.236584 1.29895 -1.767767 1.767767 
C -1.29895 2.236584 -0.663008 2.5 0 2.5 
z
" id="C5_0_a5cce02526"/>
    </defs>
    <g clip-path="url(#p388bfda63d)">
     <use style="fill:#029e73;stroke:#000000;" x="545.050066" xlink:href="#C5_0_a5cce02526" y="93.769746"/>
    </g>
    <g clip-path="url(#p388bfda63d)">
     <use style="fill:#029e73;stroke:#000000;" x="557.331097" xlink:href="#C5_0_a5cce02526" y="67.99005"/>
    </g>
    <g clip-path="url(#p388bfda63d)">
     <use style="fill:#029e73;stroke:#000000;" x="561.654399" xlink:href="#C5_0_a5cce02526" y="93.769746"/>
    </g>
    <g clip-path="url(#p388bfda63d)">
     <use style="fill:#029e73;stroke:#000000;" x="544.832877" xlink:href="#C5_0_a5cce02526" y="81.209147"/>
    </g>
    <g clip-path="url(#p388bfda63d)">
     <use style="fill:#029e73;stroke:#000000;" x="546.218433" xlink:href="#C5_0_a5cce02526" y="67.988339"/>
    </g>
    <g clip-path="url(#p388bfda63d)">
     <use style="fill:#029e73;stroke:#000000;" x="548.882687" xlink:href="#C5_0_a5cce02526" y="96.852499"/>
    </g>
    <g clip-path="url(#p388bfda63d)">
     <use style="fill:#029e73;stroke:#000000;" x="544.475713" xlink:href="#C5_0_a5cce02526" y="73.85723"/>
    </g>
    <g clip-path="url(#p388bfda63d)">
     <use style="fill:#029e73;stroke:#000000;" x="561.842428" xlink:href="#C5_0_a5cce02526" y="71.342901"/>
    </g>
    <g clip-path="url(#p388bfda63d)">
     <use style="fill:#029e73;stroke:#000000;" x="550.835734" xlink:href="#C5_0_a5cce02526" y="67.386212"/>
    </g>
    <g clip-path="url(#p388bfda63d)">
     <use style="fill:#029e73;stroke:#000000;" x="557.616786" xlink:href="#C5_0_a5cce02526" y="67.247051"/>
    </g>
    <g clip-path="url(#p388bfda63d)">
     <use style="fill:#029e73;stroke:#000000;" x="559.931238" xlink:href="#C5_0_a5cce02526" y="72.054738"/>
    </g>
    <g clip-path="url(#p388bfda63d)">
     <use style="fill:#029e73;stroke:#000000;" x="555.138517" xlink:href="#C5_0_a5cce02526" y="84.755229"/>
    </g>
    <g clip-path="url(#p388bfda63d)">
     <use style="fill:#029e73;stroke:#000000;" x="547.749033" xlink:href="#C5_0_a5cce02526" y="71.108103"/>
    </g>
    <g clip-path="url(#p388bfda63d)">
     <use style="fill:#029e73;stroke:#000000;" x="554.999954" xlink:href="#C5_0_a5cce02526" y="93.469195"/>
    </g>
    <g clip-path="url(#p388bfda63d)">
     <use style="fill:#029e73;stroke:#000000;" x="544.427948" xlink:href="#C5_0_a5cce02526" y="85.860605"/>
    </g>
    <g clip-path="url(#p388bfda63d)">
     <use style="fill:#029e73;stroke:#000000;" x="547.044596" xlink:href="#C5_0_a5cce02526" y="67.374481"/>
    </g>
    <g clip-path="url(#p388bfda63d)">
     <use style="fill:#029e73;stroke:#000000;" x="558.617442" xlink:href="#C5_0_a5cce02526" y="82.055216"/>
    </g>
   </g>
   <g id="text_5">
    <!-- Muscles Pose -->
    <defs>
     <path d="M 7.421875 0 
L 7.421875 71.578125 
L 21.6875 71.578125 
L 38.625 20.90625 
Q 40.96875 13.8125 42.046875 10.296875 
Q 43.265625 14.203125 45.84375 21.78125 
L 62.984375 71.578125 
L 75.734375 71.578125 
L 75.734375 0 
L 66.609375 0 
L 66.609375 59.90625 
L 45.796875 0 
L 37.25 0 
L 16.546875 60.9375 
L 16.546875 0 
z
" id="ArialMT-77"/>
     <path d="M 40.578125 0 
L 40.578125 7.625 
Q 34.515625 -1.171875 24.125 -1.171875 
Q 19.53125 -1.171875 15.546875 0.578125 
Q 11.578125 2.34375 9.640625 5 
Q 7.71875 7.671875 6.9375 11.53125 
Q 6.390625 14.109375 6.390625 19.734375 
L 6.390625 51.859375 
L 15.1875 51.859375 
L 15.1875 23.09375 
Q 15.1875 16.21875 15.71875 13.8125 
Q 16.546875 10.359375 19.234375 8.375 
Q 21.921875 6.390625 25.875 6.390625 
Q 29.828125 6.390625 33.296875 8.421875 
Q 36.765625 10.453125 38.203125 13.9375 
Q 39.65625 17.4375 39.65625 24.078125 
L 39.65625 51.859375 
L 48.4375 51.859375 
L 48.4375 0 
z
" id="ArialMT-117"/>
     <path d="M 3.078125 15.484375 
L 11.765625 16.84375 
Q 12.5 11.625 15.84375 8.84375 
Q 19.1875 6.0625 25.203125 6.0625 
Q 31.25 6.0625 34.171875 8.515625 
Q 37.109375 10.984375 37.109375 14.3125 
Q 37.109375 17.28125 34.515625 19 
Q 32.71875 20.171875 25.53125 21.96875 
Q 15.875 24.421875 12.140625 26.203125 
Q 8.40625 27.984375 6.46875 31.125 
Q 4.546875 34.28125 4.546875 38.09375 
Q 4.546875 41.546875 6.125 44.5 
Q 7.71875 47.46875 10.453125 49.421875 
Q 12.5 50.921875 16.03125 51.96875 
Q 19.578125 53.03125 23.640625 53.03125 
Q 29.734375 53.03125 34.34375 51.265625 
Q 38.96875 49.515625 41.15625 46.5 
Q 43.359375 43.5 44.1875 38.484375 
L 35.59375 37.3125 
Q 35.015625 41.3125 32.203125 43.546875 
Q 29.390625 45.796875 24.265625 45.796875 
Q 18.21875 45.796875 15.625 43.796875 
Q 13.03125 41.796875 13.03125 39.109375 
Q 13.03125 37.40625 14.109375 36.03125 
Q 15.1875 34.625 17.484375 33.6875 
Q 18.796875 33.203125 25.25 31.453125 
Q 34.578125 28.953125 38.25 27.359375 
Q 41.9375 25.78125 44.03125 22.75 
Q 46.140625 19.734375 46.140625 15.234375 
Q 46.140625 10.84375 43.578125 6.953125 
Q 41.015625 3.078125 36.171875 0.953125 
Q 31.34375 -1.171875 25.25 -1.171875 
Q 15.140625 -1.171875 9.84375 3.03125 
Q 4.546875 7.234375 3.078125 15.484375 
z
" id="ArialMT-115"/>
     <path d="M 40.4375 19 
L 49.078125 17.875 
Q 47.65625 8.9375 41.8125 3.875 
Q 35.984375 -1.171875 27.484375 -1.171875 
Q 16.84375 -1.171875 10.375 5.78125 
Q 3.90625 12.75 3.90625 25.734375 
Q 3.90625 34.125 6.6875 40.421875 
Q 9.46875 46.734375 15.15625 49.875 
Q 20.84375 53.03125 27.546875 53.03125 
Q 35.984375 53.03125 41.359375 48.75 
Q 46.734375 44.484375 48.25 36.625 
L 39.703125 35.296875 
Q 38.484375 40.53125 35.375 43.15625 
Q 32.28125 45.796875 27.875 45.796875 
Q 21.234375 45.796875 17.078125 41.03125 
Q 12.9375 36.28125 12.9375 25.984375 
Q 12.9375 15.53125 16.9375 10.796875 
Q 20.953125 6.0625 27.390625 6.0625 
Q 32.5625 6.0625 36.03125 9.234375 
Q 39.5 12.40625 40.4375 19 
z
" id="ArialMT-99"/>
     <path d="M 6.390625 0 
L 6.390625 71.578125 
L 15.1875 71.578125 
L 15.1875 0 
z
" id="ArialMT-108"/>
     <path d="M 42.09375 16.703125 
L 51.171875 15.578125 
Q 49.03125 7.625 43.21875 3.21875 
Q 37.40625 -1.171875 28.375 -1.171875 
Q 17 -1.171875 10.328125 5.828125 
Q 3.65625 12.84375 3.65625 25.484375 
Q 3.65625 38.578125 10.390625 45.796875 
Q 17.140625 53.03125 27.875 53.03125 
Q 38.28125 53.03125 44.875 45.953125 
Q 51.46875 38.875 51.46875 26.03125 
Q 51.46875 25.25 51.421875 23.6875 
L 12.75 23.6875 
Q 13.234375 15.140625 17.578125 10.59375 
Q 21.921875 6.0625 28.421875 6.0625 
Q 33.25 6.0625 36.671875 8.59375 
Q 40.09375 11.140625 42.09375 16.703125 
z
M 13.234375 30.90625 
L 42.1875 30.90625 
Q 41.609375 37.453125 38.875 40.71875 
Q 34.671875 45.796875 27.984375 45.796875 
Q 21.921875 45.796875 17.796875 41.75 
Q 13.671875 37.703125 13.234375 30.90625 
z
" id="ArialMT-101"/>
     <path id="ArialMT-32"/>
     <path d="M 7.71875 0 
L 7.71875 71.578125 
L 34.71875 71.578125 
Q 41.84375 71.578125 45.609375 70.90625 
Q 50.875 70.015625 54.4375 67.546875 
Q 58.015625 65.09375 60.1875 60.640625 
Q 62.359375 56.203125 62.359375 50.875 
Q 62.359375 41.75 56.546875 35.421875 
Q 50.734375 29.109375 35.546875 29.109375 
L 17.1875 29.109375 
L 17.1875 0 
z
M 17.1875 37.546875 
L 35.6875 37.546875 
Q 44.875 37.546875 48.734375 40.96875 
Q 52.59375 44.390625 52.59375 50.59375 
Q 52.59375 55.078125 50.3125 58.265625 
Q 48.046875 61.46875 44.34375 62.5 
Q 41.9375 63.140625 35.5 63.140625 
L 17.1875 63.140625 
z
" id="ArialMT-80"/>
     <path d="M 3.328125 25.921875 
Q 3.328125 40.328125 11.328125 47.265625 
Q 18.015625 53.03125 27.640625 53.03125 
Q 38.328125 53.03125 45.109375 46.015625 
Q 51.90625 39.015625 51.90625 26.65625 
Q 51.90625 16.65625 48.90625 10.90625 
Q 45.90625 5.171875 40.15625 2 
Q 34.421875 -1.171875 27.640625 -1.171875 
Q 16.75 -1.171875 10.03125 5.8125 
Q 3.328125 12.796875 3.328125 25.921875 
z
M 12.359375 25.921875 
Q 12.359375 15.96875 16.703125 11.015625 
Q 21.046875 6.0625 27.640625 6.0625 
Q 34.1875 6.0625 38.53125 11.03125 
Q 42.875 16.015625 42.875 26.21875 
Q 42.875 35.84375 38.5 40.796875 
Q 34.125 45.75 27.640625 45.75 
Q 21.046875 45.75 16.703125 40.8125 
Q 12.359375 35.890625 12.359375 25.921875 
z
" id="ArialMT-111"/>
    </defs>
    <g style="fill:#262626;" transform="translate(267.1975 29.2)scale(0.24 -0.24)">
     <use xlink:href="#ArialMT-77"/>
     <use x="83.300781" xlink:href="#ArialMT-117"/>
     <use x="138.916016" xlink:href="#ArialMT-115"/>
     <use x="188.916016" xlink:href="#ArialMT-99"/>
     <use x="238.916016" xlink:href="#ArialMT-108"/>
     <use x="261.132812" xlink:href="#ArialMT-101"/>
     <use x="316.748047" xlink:href="#ArialMT-115"/>
     <use x="366.748047" xlink:href="#ArialMT-32"/>
     <use x="394.53125" xlink:href="#ArialMT-80"/>
     <use x="461.230469" xlink:href="#ArialMT-111"/>
     <use x="516.845703" xlink:href="#ArialMT-115"/>
     <use x="566.845703" xlink:href="#ArialMT-101"/>
    </g>
   </g>
  </g>
  <g id="axes_2">
   <g id="patch_14">
    <path d="M 66.02 520.42 
L 617.76 520.42 
L 617.76 311.57 
L 66.02 311.57 
z
" style="fill:#eaeaf2;"/>
   </g>
   <g id="matplotlib.axis_3">
    <g id="xtick_3">
     <g id="text_6">
      <!-- TD Control -->
      <defs>
       <path d="M 25.921875 0 
L 25.921875 63.140625 
L 2.34375 63.140625 
L 2.34375 71.578125 
L 59.078125 71.578125 
L 59.078125 63.140625 
L 35.40625 63.140625 
L 35.40625 0 
z
" id="ArialMT-84"/>
       <path d="M 7.71875 0 
L 7.71875 71.578125 
L 32.375 71.578125 
Q 40.71875 71.578125 45.125 70.5625 
Q 51.265625 69.140625 55.609375 65.4375 
Q 61.28125 60.640625 64.078125 53.1875 
Q 66.890625 45.75 66.890625 36.1875 
Q 66.890625 28.03125 64.984375 21.734375 
Q 63.09375 15.4375 60.109375 11.296875 
Q 57.125 7.171875 53.578125 4.796875 
Q 50.046875 2.4375 45.046875 1.21875 
Q 40.046875 0 33.546875 0 
z
M 17.1875 8.453125 
L 32.46875 8.453125 
Q 39.546875 8.453125 43.578125 9.765625 
Q 47.609375 11.078125 50 13.484375 
Q 53.375 16.84375 55.25 22.53125 
Q 57.125 28.21875 57.125 36.328125 
Q 57.125 47.5625 53.4375 53.59375 
Q 49.75 59.625 44.484375 61.671875 
Q 40.671875 63.140625 32.234375 63.140625 
L 17.1875 63.140625 
z
" id="ArialMT-68"/>
       <path d="M 58.796875 25.09375 
L 68.265625 22.703125 
Q 65.28125 11.03125 57.546875 4.90625 
Q 49.8125 -1.21875 38.625 -1.21875 
Q 27.046875 -1.21875 19.796875 3.484375 
Q 12.546875 8.203125 8.765625 17.140625 
Q 4.984375 26.078125 4.984375 36.328125 
Q 4.984375 47.515625 9.25 55.828125 
Q 13.53125 64.15625 21.40625 68.46875 
Q 29.296875 72.796875 38.765625 72.796875 
Q 49.515625 72.796875 56.828125 67.328125 
Q 64.15625 61.859375 67.046875 51.953125 
L 57.71875 49.75 
Q 55.21875 57.5625 50.484375 61.125 
Q 45.75 64.703125 38.578125 64.703125 
Q 30.328125 64.703125 24.78125 60.734375 
Q 19.234375 56.78125 16.984375 50.109375 
Q 14.75 43.453125 14.75 36.375 
Q 14.75 27.25 17.40625 20.4375 
Q 20.0625 13.625 25.671875 10.25 
Q 31.296875 6.890625 37.84375 6.890625 
Q 45.796875 6.890625 51.3125 11.46875 
Q 56.84375 16.0625 58.796875 25.09375 
z
" id="ArialMT-67"/>
       <path d="M 6.59375 0 
L 6.59375 51.859375 
L 14.5 51.859375 
L 14.5 44.484375 
Q 20.21875 53.03125 31 53.03125 
Q 35.6875 53.03125 39.625 51.34375 
Q 43.5625 49.65625 45.515625 46.921875 
Q 47.46875 44.1875 48.25 40.4375 
Q 48.734375 37.984375 48.734375 31.890625 
L 48.734375 0 
L 39.9375 0 
L 39.9375 31.546875 
Q 39.9375 36.921875 38.90625 39.578125 
Q 37.890625 42.234375 35.28125 43.8125 
Q 32.671875 45.40625 29.15625 45.40625 
Q 23.53125 45.40625 19.453125 41.84375 
Q 15.375 38.28125 15.375 28.328125 
L 15.375 0 
z
" id="ArialMT-110"/>
       <path d="M 25.78125 7.859375 
L 27.046875 0.09375 
Q 23.34375 -0.6875 20.40625 -0.6875 
Q 15.625 -0.6875 12.984375 0.828125 
Q 10.359375 2.34375 9.28125 4.8125 
Q 8.203125 7.28125 8.203125 15.1875 
L 8.203125 45.015625 
L 1.765625 45.015625 
L 1.765625 51.859375 
L 8.203125 51.859375 
L 8.203125 64.703125 
L 16.9375 69.96875 
L 16.9375 51.859375 
L 25.78125 51.859375 
L 25.78125 45.015625 
L 16.9375 45.015625 
L 16.9375 14.703125 
Q 16.9375 10.9375 17.40625 9.859375 
Q 17.875 8.796875 18.921875 8.15625 
Q 19.96875 7.515625 21.921875 7.515625 
Q 23.390625 7.515625 25.78125 7.859375 
z
" id="ArialMT-116"/>
       <path d="M 6.5 0 
L 6.5 51.859375 
L 14.40625 51.859375 
L 14.40625 44 
Q 17.4375 49.515625 20 51.265625 
Q 22.5625 53.03125 25.640625 53.03125 
Q 30.078125 53.03125 34.671875 50.203125 
L 31.640625 42.046875 
Q 28.421875 43.953125 25.203125 43.953125 
Q 22.3125 43.953125 20.015625 42.21875 
Q 17.71875 40.484375 16.75 37.40625 
Q 15.28125 32.71875 15.28125 27.15625 
L 15.28125 0 
z
" id="ArialMT-114"/>
      </defs>
      <g style="fill:#262626;" transform="translate(150.778594 545.667187)scale(0.22 -0.22)">
       <use xlink:href="#ArialMT-84"/>
       <use x="61.083984" xlink:href="#ArialMT-68"/>
       <use x="133.300781" xlink:href="#ArialMT-32"/>
       <use x="161.083984" xlink:href="#ArialMT-67"/>
       <use x="233.300781" xlink:href="#ArialMT-111"/>
       <use x="288.916016" xlink:href="#ArialMT-110"/>
       <use x="344.53125" xlink:href="#ArialMT-116"/>
       <use x="372.314453" xlink:href="#ArialMT-114"/>
       <use x="405.615234" xlink:href="#ArialMT-111"/>
       <use x="461.230469" xlink:href="#ArialMT-108"/>
      </g>
     </g>
    </g>
    <g id="xtick_4">
     <g id="text_7">
      <!-- Adult Control 2 -->
      <defs>
       <path d="M -0.140625 0 
L 27.34375 71.578125 
L 37.546875 71.578125 
L 66.84375 0 
L 56.0625 0 
L 47.703125 21.6875 
L 17.78125 21.6875 
L 9.90625 0 
z
M 20.515625 29.390625 
L 44.78125 29.390625 
L 37.3125 49.21875 
Q 33.890625 58.25 32.234375 64.0625 
Q 30.859375 57.171875 28.375 50.390625 
z
" id="ArialMT-65"/>
       <path d="M 40.234375 0 
L 40.234375 6.546875 
Q 35.296875 -1.171875 25.734375 -1.171875 
Q 19.53125 -1.171875 14.328125 2.25 
Q 9.125 5.671875 6.265625 11.796875 
Q 3.421875 17.921875 3.421875 25.875 
Q 3.421875 33.640625 6 39.96875 
Q 8.59375 46.296875 13.765625 49.65625 
Q 18.953125 53.03125 25.34375 53.03125 
Q 30.03125 53.03125 33.6875 51.046875 
Q 37.359375 49.078125 39.65625 45.90625 
L 39.65625 71.578125 
L 48.390625 71.578125 
L 48.390625 0 
z
M 12.453125 25.875 
Q 12.453125 15.921875 16.640625 10.984375 
Q 20.84375 6.0625 26.5625 6.0625 
Q 32.328125 6.0625 36.34375 10.765625 
Q 40.375 15.484375 40.375 25.140625 
Q 40.375 35.796875 36.265625 40.765625 
Q 32.171875 45.75 26.171875 45.75 
Q 20.3125 45.75 16.375 40.96875 
Q 12.453125 36.1875 12.453125 25.875 
z
" id="ArialMT-100"/>
       <path d="M 50.34375 8.453125 
L 50.34375 0 
L 3.03125 0 
Q 2.9375 3.171875 4.046875 6.109375 
Q 5.859375 10.9375 9.828125 15.625 
Q 13.8125 20.3125 21.34375 26.46875 
Q 33.015625 36.03125 37.109375 41.625 
Q 41.21875 47.21875 41.21875 52.203125 
Q 41.21875 57.421875 37.46875 61 
Q 33.734375 64.59375 27.734375 64.59375 
Q 21.390625 64.59375 17.578125 60.78125 
Q 13.765625 56.984375 13.71875 50.25 
L 4.6875 51.171875 
Q 5.609375 61.28125 11.65625 66.578125 
Q 17.71875 71.875 27.9375 71.875 
Q 38.234375 71.875 44.234375 66.15625 
Q 50.25 60.453125 50.25 52 
Q 50.25 47.703125 48.484375 43.546875 
Q 46.734375 39.40625 42.65625 34.8125 
Q 38.578125 30.21875 29.109375 22.21875 
Q 21.1875 15.578125 18.9375 13.203125 
Q 16.703125 10.84375 15.234375 8.453125 
z
" id="ArialMT-50"/>
      </defs>
      <g style="fill:#262626;" transform="translate(407.066875 545.667187)scale(0.22 -0.22)">
       <use xlink:href="#ArialMT-65"/>
       <use x="66.699219" xlink:href="#ArialMT-100"/>
       <use x="122.314453" xlink:href="#ArialMT-117"/>
       <use x="177.929688" xlink:href="#ArialMT-108"/>
       <use x="200.146484" xlink:href="#ArialMT-116"/>
       <use x="227.929688" xlink:href="#ArialMT-32"/>
       <use x="255.712891" xlink:href="#ArialMT-67"/>
       <use x="327.929688" xlink:href="#ArialMT-111"/>
       <use x="383.544922" xlink:href="#ArialMT-110"/>
       <use x="439.160156" xlink:href="#ArialMT-116"/>
       <use x="466.943359" xlink:href="#ArialMT-114"/>
       <use x="500.244141" xlink:href="#ArialMT-111"/>
       <use x="555.859375" xlink:href="#ArialMT-108"/>
       <use x="578.076172" xlink:href="#ArialMT-32"/>
       <use x="605.859375" xlink:href="#ArialMT-50"/>
      </g>
     </g>
    </g>
   </g>
   <g id="matplotlib.axis_4">
    <g id="ytick_5">
     <g id="line2d_35">
      <path clip-path="url(#p16add397cd)" d="M 66.02 495.679998 
L 617.76 495.679998 
" style="fill:none;stroke:#ffffff;stroke-linecap:round;"/>
     </g>
     <g id="text_8">
      <!-- 0.7 -->
      <g style="fill:#262626;" transform="translate(25.94 503.553592)scale(0.22 -0.22)">
       <use xlink:href="#ArialMT-48"/>
       <use x="55.615234" xlink:href="#ArialMT-46"/>
       <use x="83.398438" xlink:href="#ArialMT-55"/>
      </g>
     </g>
    </g>
    <g id="ytick_6">
     <g id="line2d_36">
      <path clip-path="url(#p16add397cd)" d="M 66.02 436.268381 
L 617.76 436.268381 
" style="fill:none;stroke:#ffffff;stroke-linecap:round;"/>
     </g>
     <g id="text_9">
      <!-- 0.8 -->
      <g style="fill:#262626;" transform="translate(25.94 444.141975)scale(0.22 -0.22)">
       <use xlink:href="#ArialMT-48"/>
       <use x="55.615234" xlink:href="#ArialMT-46"/>
       <use x="83.398438" xlink:href="#ArialMT-56"/>
      </g>
     </g>
    </g>
    <g id="ytick_7">
     <g id="line2d_37">
      <path clip-path="url(#p16add397cd)" d="M 66.02 376.856764 
L 617.76 376.856764 
" style="fill:none;stroke:#ffffff;stroke-linecap:round;"/>
     </g>
     <g id="text_10">
      <!-- 0.9 -->
      <g style="fill:#262626;" transform="translate(25.94 384.730357)scale(0.22 -0.22)">
       <use xlink:href="#ArialMT-48"/>
       <use x="55.615234" xlink:href="#ArialMT-46"/>
       <use x="83.398438" xlink:href="#ArialMT-57"/>
      </g>
     </g>
    </g>
    <g id="ytick_8">
     <g id="line2d_38">
      <path clip-path="url(#p16add397cd)" d="M 66.02 317.445146 
L 617.76 317.445146 
" style="fill:none;stroke:#ffffff;stroke-linecap:round;"/>
     </g>
     <g id="text_11">
      <!-- 1.0 -->
      <g style="fill:#262626;" transform="translate(25.94 325.31874)scale(0.22 -0.22)">
       <use xlink:href="#ArialMT-49"/>
       <use x="55.615234" xlink:href="#ArialMT-46"/>
       <use x="83.398438" xlink:href="#ArialMT-48"/>
      </g>
     </g>
    </g>
   </g>
   <g id="patch_15">
    <path clip-path="url(#p16add397cd)" d="M 94.342653 371.288403 
L 166.43668 371.288403 
L 166.43668 343.193681 
L 94.342653 343.193681 
L 94.342653 371.288403 
z
" style="fill:#176d9c;stroke:#303030;stroke-linejoin:miter;"/>
   </g>
   <g id="patch_16">
    <path clip-path="url(#p16add397cd)" d="M 167.907987 386.757873 
L 240.002013 386.757873 
L 240.002013 357.497274 
L 167.907987 357.497274 
L 167.907987 386.757873 
z
" style="fill:#c38820;stroke:#303030;stroke-linejoin:miter;"/>
   </g>
   <g id="patch_17">
    <path clip-path="url(#p16add397cd)" d="M 241.47332 369.092869 
L 313.567347 369.092869 
L 313.567347 342.941028 
L 241.47332 342.941028 
L 241.47332 369.092869 
z
" style="fill:#158b6a;stroke:#303030;stroke-linejoin:miter;"/>
   </g>
   <g id="patch_18">
    <path clip-path="url(#p16add397cd)" d="M 370.212653 356.329373 
L 442.30668 356.329373 
L 442.30668 338.754137 
L 370.212653 338.754137 
L 370.212653 356.329373 
z
" style="fill:#176d9c;stroke:#303030;stroke-linejoin:miter;"/>
   </g>
   <g id="patch_19">
    <path clip-path="url(#p16add397cd)" d="M 443.777987 360.717362 
L 515.872013 360.717362 
L 515.872013 336.680702 
L 443.777987 336.680702 
L 443.777987 360.717362 
z
" style="fill:#c38820;stroke:#303030;stroke-linejoin:miter;"/>
   </g>
   <g id="patch_20">
    <path clip-path="url(#p16add397cd)" d="M 517.34332 345.919527 
L 589.437347 345.919527 
L 589.437347 335.657025 
L 517.34332 335.657025 
L 517.34332 345.919527 
z
" style="fill:#158b6a;stroke:#303030;stroke-linejoin:miter;"/>
   </g>
   <g id="PathCollection_10"/>
   <g id="PathCollection_11"/>
   <g id="PathCollection_12"/>
   <g id="patch_21">
    <path clip-path="url(#p16add397cd)" d="M 203.955 911.561319 
L 203.955 911.561319 
L 203.955 911.561319 
L 203.955 911.561319 
z
" style="fill:#176d9c;stroke:#303030;stroke-linejoin:miter;stroke-width:0.5;"/>
   </g>
   <g id="patch_22">
    <path clip-path="url(#p16add397cd)" d="M 203.955 911.561319 
L 203.955 911.561319 
L 203.955 911.561319 
L 203.955 911.561319 
z
" style="fill:#c38820;stroke:#303030;stroke-linejoin:miter;stroke-width:0.5;"/>
   </g>
   <g id="patch_23">
    <path clip-path="url(#p16add397cd)" d="M 203.955 911.561319 
L 203.955 911.561319 
L 203.955 911.561319 
L 203.955 911.561319 
z
" style="fill:#158b6a;stroke:#303030;stroke-linejoin:miter;stroke-width:0.5;"/>
   </g>
   <g id="line2d_39">
    <path clip-path="url(#p16add397cd)" d="M 130.389667 371.288403 
L 130.389667 377.95403 
" style="fill:none;stroke:#303030;stroke-linecap:round;"/>
   </g>
   <g id="line2d_40">
    <path clip-path="url(#p16add397cd)" d="M 130.389667 343.193681 
L 130.389667 330.648803 
" style="fill:none;stroke:#303030;stroke-linecap:round;"/>
   </g>
   <g id="line2d_41">
    <path clip-path="url(#p16add397cd)" d="M 112.36616 377.95403 
L 148.413173 377.95403 
" style="fill:none;stroke:#303030;stroke-linecap:round;"/>
   </g>
   <g id="line2d_42">
    <path clip-path="url(#p16add397cd)" d="M 112.36616 330.648803 
L 148.413173 330.648803 
" style="fill:none;stroke:#303030;stroke-linecap:round;"/>
   </g>
   <g id="line2d_43">
    <path clip-path="url(#p16add397cd)" d="M 203.955 386.757873 
L 203.955 415.911483 
" style="fill:none;stroke:#303030;stroke-linecap:round;"/>
   </g>
   <g id="line2d_44">
    <path clip-path="url(#p16add397cd)" d="M 203.955 357.497274 
L 203.955 326.037658 
" style="fill:none;stroke:#303030;stroke-linecap:round;"/>
   </g>
   <g id="line2d_45">
    <path clip-path="url(#p16add397cd)" d="M 185.931493 415.911483 
L 221.978507 415.911483 
" style="fill:none;stroke:#303030;stroke-linecap:round;"/>
   </g>
   <g id="line2d_46">
    <path clip-path="url(#p16add397cd)" d="M 185.931493 326.037658 
L 221.978507 326.037658 
" style="fill:none;stroke:#303030;stroke-linecap:round;"/>
   </g>
   <g id="line2d_47">
    <path clip-path="url(#p16add397cd)" d="M 277.520333 369.092869 
L 277.520333 393.280209 
" style="fill:none;stroke:#303030;stroke-linecap:round;"/>
   </g>
   <g id="line2d_48">
    <path clip-path="url(#p16add397cd)" d="M 277.520333 342.941028 
L 277.520333 333.549116 
" style="fill:none;stroke:#303030;stroke-linecap:round;"/>
   </g>
   <g id="line2d_49">
    <path clip-path="url(#p16add397cd)" d="M 259.496827 393.280209 
L 295.54384 393.280209 
" style="fill:none;stroke:#303030;stroke-linecap:round;"/>
   </g>
   <g id="line2d_50">
    <path clip-path="url(#p16add397cd)" d="M 259.496827 333.549116 
L 295.54384 333.549116 
" style="fill:none;stroke:#303030;stroke-linecap:round;"/>
   </g>
   <g id="line2d_51">
    <path clip-path="url(#p16add397cd)" d="M 406.259667 356.329373 
L 406.259667 377.165743 
" style="fill:none;stroke:#303030;stroke-linecap:round;"/>
   </g>
   <g id="line2d_52">
    <path clip-path="url(#p16add397cd)" d="M 406.259667 338.754137 
L 406.259667 326.339338 
" style="fill:none;stroke:#303030;stroke-linecap:round;"/>
   </g>
   <g id="line2d_53">
    <path clip-path="url(#p16add397cd)" d="M 388.23616 377.165743 
L 424.283173 377.165743 
" style="fill:none;stroke:#303030;stroke-linecap:round;"/>
   </g>
   <g id="line2d_54">
    <path clip-path="url(#p16add397cd)" d="M 388.23616 326.339338 
L 424.283173 326.339338 
" style="fill:none;stroke:#303030;stroke-linecap:round;"/>
   </g>
   <g id="line2d_55">
    <path clip-path="url(#p16add397cd)" d="M 479.825 360.717362 
L 479.825 390.928914 
" style="fill:none;stroke:#303030;stroke-linecap:round;"/>
   </g>
   <g id="line2d_56">
    <path clip-path="url(#p16add397cd)" d="M 479.825 336.680702 
L 479.825 322.846277 
" style="fill:none;stroke:#303030;stroke-linecap:round;"/>
   </g>
   <g id="line2d_57">
    <path clip-path="url(#p16add397cd)" d="M 461.801493 390.928914 
L 497.848507 390.928914 
" style="fill:none;stroke:#303030;stroke-linecap:round;"/>
   </g>
   <g id="line2d_58">
    <path clip-path="url(#p16add397cd)" d="M 461.801493 322.846277 
L 497.848507 322.846277 
" style="fill:none;stroke:#303030;stroke-linecap:round;"/>
   </g>
   <g id="line2d_59">
    <path clip-path="url(#p16add397cd)" d="M 553.390333 345.919527 
L 553.390333 360.02145 
" style="fill:none;stroke:#303030;stroke-linecap:round;"/>
   </g>
   <g id="line2d_60">
    <path clip-path="url(#p16add397cd)" d="M 553.390333 335.657025 
L 553.390333 325.842208 
" style="fill:none;stroke:#303030;stroke-linecap:round;"/>
   </g>
   <g id="line2d_61">
    <path clip-path="url(#p16add397cd)" d="M 535.366827 360.02145 
L 571.41384 360.02145 
" style="fill:none;stroke:#303030;stroke-linecap:round;"/>
   </g>
   <g id="line2d_62">
    <path clip-path="url(#p16add397cd)" d="M 535.366827 325.842208 
L 571.41384 325.842208 
" style="fill:none;stroke:#303030;stroke-linecap:round;"/>
   </g>
   <g id="line2d_63">
    <path clip-path="url(#p16add397cd)" d="M 94.342653 360.154309 
L 166.43668 360.154309 
" style="fill:none;stroke:#303030;stroke-linecap:round;"/>
   </g>
   <g id="line2d_64">
    <path clip-path="url(#p16add397cd)" d="M 167.907987 360.221557 
L 240.002013 360.221557 
" style="fill:none;stroke:#303030;stroke-linecap:round;"/>
   </g>
   <g id="line2d_65">
    <path clip-path="url(#p16add397cd)" d="M 241.47332 346.732129 
L 313.567347 346.732129 
" style="fill:none;stroke:#303030;stroke-linecap:round;"/>
   </g>
   <g id="line2d_66">
    <path clip-path="url(#p16add397cd)" d="M 370.212653 347.954188 
L 442.30668 347.954188 
" style="fill:none;stroke:#303030;stroke-linecap:round;"/>
   </g>
   <g id="line2d_67">
    <path clip-path="url(#p16add397cd)" d="M 443.777987 342.752576 
L 515.872013 342.752576 
" style="fill:none;stroke:#303030;stroke-linecap:round;"/>
   </g>
   <g id="line2d_68">
    <path clip-path="url(#p16add397cd)" d="M 517.34332 340.534084 
L 589.437347 340.534084 
" style="fill:none;stroke:#303030;stroke-linecap:round;"/>
   </g>
   <g id="patch_24">
    <path d="M 66.02 520.42 
L 66.02 311.57 
" style="fill:none;stroke:#ffffff;stroke-linecap:square;stroke-linejoin:miter;stroke-width:1.25;"/>
   </g>
   <g id="patch_25">
    <path d="M 66.02 520.42 
L 617.76 520.42 
" style="fill:none;stroke:#ffffff;stroke-linecap:square;stroke-linejoin:miter;stroke-width:1.25;"/>
   </g>
   <g id="PathCollection_13">
    <defs>
     <path d="M 0 2.5 
C 0.663008 2.5 1.29895 2.236584 1.767767 1.767767 
C 2.236584 1.29895 2.5 0.663008 2.5 0 
C 2.5 -0.663008 2.236584 -1.29895 1.767767 -1.767767 
C 1.29895 -2.236584 0.663008 -2.5 0 -2.5 
C -0.663008 -2.5 -1.29895 -2.236584 -1.767767 -1.767767 
C -2.236584 -1.29895 -2.5 -0.663008 -2.5 0 
C -2.5 0.663008 -2.236584 1.29895 -1.767767 1.767767 
C -1.29895 2.236584 -0.663008 2.5 0 2.5 
z
" id="C6_0_d0c19365a5"/>
    </defs>
    <g clip-path="url(#p16add397cd)">
     <use style="fill:#0173b2;stroke:#000000;" x="127.272927" xlink:href="#C6_0_d0c19365a5" y="354.257164"/>
    </g>
    <g clip-path="url(#p16add397cd)">
     <use style="fill:#0173b2;stroke:#000000;" x="128.902958" xlink:href="#C6_0_d0c19365a5" y="336.687286"/>
    </g>
    <g clip-path="url(#p16add397cd)">
     <use style="fill:#0173b2;stroke:#000000;" x="132.940362" xlink:href="#C6_0_d0c19365a5" y="343.193681"/>
    </g>
    <g clip-path="url(#p16add397cd)">
     <use style="fill:#0173b2;stroke:#000000;" x="130.913786" xlink:href="#C6_0_d0c19365a5" y="437.565852"/>
    </g>
    <g clip-path="url(#p16add397cd)">
     <use style="fill:#0173b2;stroke:#000000;" x="126.477501" xlink:href="#C6_0_d0c19365a5" y="453.194349"/>
    </g>
    <g clip-path="url(#p16add397cd)">
     <use style="fill:#0173b2;stroke:#000000;" x="129.690481" xlink:href="#C6_0_d0c19365a5" y="354.701033"/>
    </g>
    <g clip-path="url(#p16add397cd)">
     <use style="fill:#0173b2;stroke:#000000;" x="121.970073" xlink:href="#C6_0_d0c19365a5" y="371.288403"/>
    </g>
    <g clip-path="url(#p16add397cd)">
     <use style="fill:#0173b2;stroke:#000000;" x="133.542003" xlink:href="#C6_0_d0c19365a5" y="361.553851"/>
    </g>
    <g clip-path="url(#p16add397cd)">
     <use style="fill:#0173b2;stroke:#000000;" x="135.763645" xlink:href="#C6_0_d0c19365a5" y="363.186796"/>
    </g>
    <g clip-path="url(#p16add397cd)">
     <use style="fill:#0173b2;stroke:#000000;" x="138.813879" xlink:href="#C6_0_d0c19365a5" y="377.95403"/>
    </g>
    <g clip-path="url(#p16add397cd)">
     <use style="fill:#0173b2;stroke:#000000;" x="135.986497" xlink:href="#C6_0_d0c19365a5" y="342.883538"/>
    </g>
    <g clip-path="url(#p16add397cd)">
     <use style="fill:#0173b2;stroke:#000000;" x="128.50128" xlink:href="#C6_0_d0c19365a5" y="360.154309"/>
    </g>
    <g clip-path="url(#p16add397cd)">
     <use style="fill:#0173b2;stroke:#000000;" x="135.150478" xlink:href="#C6_0_d0c19365a5" y="330.648803"/>
    </g>
   </g>
   <g id="PathCollection_14">
    <defs>
     <path d="M 0 2.5 
C 0.663008 2.5 1.29895 2.236584 1.767767 1.767767 
C 2.236584 1.29895 2.5 0.663008 2.5 0 
C 2.5 -0.663008 2.236584 -1.29895 1.767767 -1.767767 
C 1.29895 -2.236584 0.663008 -2.5 0 -2.5 
C -0.663008 -2.5 -1.29895 -2.236584 -1.767767 -1.767767 
C -2.236584 -1.29895 -2.5 -0.663008 -2.5 0 
C -2.5 0.663008 -2.236584 1.29895 -1.767767 1.767767 
C -1.29895 2.236584 -0.663008 2.5 0 2.5 
z
" id="C7_0_8fbb936dc1"/>
    </defs>
    <g clip-path="url(#p16add397cd)">
     <use style="fill:#de8f05;stroke:#000000;" x="202.87098" xlink:href="#C7_0_8fbb936dc1" y="360.221557"/>
    </g>
    <g clip-path="url(#p16add397cd)">
     <use style="fill:#de8f05;stroke:#000000;" x="210.476217" xlink:href="#C7_0_8fbb936dc1" y="335.775949"/>
    </g>
    <g clip-path="url(#p16add397cd)">
     <use style="fill:#de8f05;stroke:#000000;" x="205.74434" xlink:href="#C7_0_8fbb936dc1" y="359.617545"/>
    </g>
    <g clip-path="url(#p16add397cd)">
     <use style="fill:#de8f05;stroke:#000000;" x="198.683643" xlink:href="#C7_0_8fbb936dc1" y="415.911483"/>
    </g>
    <g clip-path="url(#p16add397cd)">
     <use style="fill:#de8f05;stroke:#000000;" x="207.451381" xlink:href="#C7_0_8fbb936dc1" y="486.332558"/>
    </g>
    <g clip-path="url(#p16add397cd)">
     <use style="fill:#de8f05;stroke:#000000;" x="202.798894" xlink:href="#C7_0_8fbb936dc1" y="384.381524"/>
    </g>
    <g clip-path="url(#p16add397cd)">
     <use style="fill:#de8f05;stroke:#000000;" x="201.846305" xlink:href="#C7_0_8fbb936dc1" y="394.964364"/>
    </g>
    <g clip-path="url(#p16add397cd)">
     <use style="fill:#de8f05;stroke:#000000;" x="208.359782" xlink:href="#C7_0_8fbb936dc1" y="367.484461"/>
    </g>
    <g clip-path="url(#p16add397cd)">
     <use style="fill:#de8f05;stroke:#000000;" x="195.278262" xlink:href="#C7_0_8fbb936dc1" y="357.497274"/>
    </g>
    <g clip-path="url(#p16add397cd)">
     <use style="fill:#de8f05;stroke:#000000;" x="208.949476" xlink:href="#C7_0_8fbb936dc1" y="358.411446"/>
    </g>
    <g clip-path="url(#p16add397cd)">
     <use style="fill:#de8f05;stroke:#000000;" x="202.449414" xlink:href="#C7_0_8fbb936dc1" y="333.267909"/>
    </g>
    <g clip-path="url(#p16add397cd)">
     <use style="fill:#de8f05;stroke:#000000;" x="197.885964" xlink:href="#C7_0_8fbb936dc1" y="386.757873"/>
    </g>
    <g clip-path="url(#p16add397cd)">
     <use style="fill:#de8f05;stroke:#000000;" x="199.665514" xlink:href="#C7_0_8fbb936dc1" y="326.037658"/>
    </g>
   </g>
   <g id="PathCollection_15">
    <defs>
     <path d="M 0 2.5 
C 0.663008 2.5 1.29895 2.236584 1.767767 1.767767 
C 2.236584 1.29895 2.5 0.663008 2.5 0 
C 2.5 -0.663008 2.236584 -1.29895 1.767767 -1.767767 
C 1.29895 -2.236584 0.663008 -2.5 0 -2.5 
C -0.663008 -2.5 -1.29895 -2.236584 -1.767767 -1.767767 
C -2.236584 -1.29895 -2.5 -0.663008 -2.5 0 
C -2.5 0.663008 -2.236584 1.29895 -1.767767 1.767767 
C -1.29895 2.236584 -0.663008 2.5 0 2.5 
z
" id="C8_0_435ae01e95"/>
    </defs>
    <g clip-path="url(#p16add397cd)">
     <use style="fill:#029e73;stroke:#000000;" x="270.201695" xlink:href="#C8_0_435ae01e95" y="354.545576"/>
    </g>
    <g clip-path="url(#p16add397cd)">
     <use style="fill:#029e73;stroke:#000000;" x="273.920925" xlink:href="#C8_0_435ae01e95" y="369.092869"/>
    </g>
    <g clip-path="url(#p16add397cd)">
     <use style="fill:#029e73;stroke:#000000;" x="282.676684" xlink:href="#C8_0_435ae01e95" y="334.76247"/>
    </g>
    <g clip-path="url(#p16add397cd)">
     <use style="fill:#029e73;stroke:#000000;" x="273.312021" xlink:href="#C8_0_435ae01e95" y="393.280209"/>
    </g>
    <g clip-path="url(#p16add397cd)">
     <use style="fill:#029e73;stroke:#000000;" x="279.116156" xlink:href="#C8_0_435ae01e95" y="383.847342"/>
    </g>
    <g clip-path="url(#p16add397cd)">
     <use style="fill:#029e73;stroke:#000000;" x="271.41959" xlink:href="#C8_0_435ae01e95" y="382.901223"/>
    </g>
    <g clip-path="url(#p16add397cd)">
     <use style="fill:#029e73;stroke:#000000;" x="270.764555" xlink:href="#C8_0_435ae01e95" y="343.510105"/>
    </g>
    <g clip-path="url(#p16add397cd)">
     <use style="fill:#029e73;stroke:#000000;" x="280.348903" xlink:href="#C8_0_435ae01e95" y="340.72246"/>
    </g>
    <g clip-path="url(#p16add397cd)">
     <use style="fill:#029e73;stroke:#000000;" x="273.845507" xlink:href="#C8_0_435ae01e95" y="346.732129"/>
    </g>
    <g clip-path="url(#p16add397cd)">
     <use style="fill:#029e73;stroke:#000000;" x="282.247871" xlink:href="#C8_0_435ae01e95" y="344.841883"/>
    </g>
    <g clip-path="url(#p16add397cd)">
     <use style="fill:#029e73;stroke:#000000;" x="278.105231" xlink:href="#C8_0_435ae01e95" y="342.941028"/>
    </g>
    <g clip-path="url(#p16add397cd)">
     <use style="fill:#029e73;stroke:#000000;" x="285.669827" xlink:href="#C8_0_435ae01e95" y="367.809955"/>
    </g>
    <g clip-path="url(#p16add397cd)">
     <use style="fill:#029e73;stroke:#000000;" x="280.388657" xlink:href="#C8_0_435ae01e95" y="333.549116"/>
    </g>
   </g>
   <g id="PathCollection_16">
    <defs>
     <path d="M 0 2.5 
C 0.663008 2.5 1.29895 2.236584 1.767767 1.767767 
C 2.236584 1.29895 2.5 0.663008 2.5 0 
C 2.5 -0.663008 2.236584 -1.29895 1.767767 -1.767767 
C 1.29895 -2.236584 0.663008 -2.5 0 -2.5 
C -0.663008 -2.5 -1.29895 -2.236584 -1.767767 -1.767767 
C -2.236584 -1.29895 -2.5 -0.663008 -2.5 0 
C -2.5 0.663008 -2.236584 1.29895 -1.767767 1.767767 
C -1.29895 2.236584 -0.663008 2.5 0 2.5 
z
" id="C9_0_b1e08e31bd"/>
    </defs>
    <g clip-path="url(#p16add397cd)">
     <use style="fill:#0173b2;stroke:#000000;" x="400.566395" xlink:href="#C9_0_b1e08e31bd" y="394.465761"/>
    </g>
    <g clip-path="url(#p16add397cd)">
     <use style="fill:#0173b2;stroke:#000000;" x="401.190504" xlink:href="#C9_0_b1e08e31bd" y="346.174758"/>
    </g>
    <g clip-path="url(#p16add397cd)">
     <use style="fill:#0173b2;stroke:#000000;" x="409.587963" xlink:href="#C9_0_b1e08e31bd" y="347.941503"/>
    </g>
    <g clip-path="url(#p16add397cd)">
     <use style="fill:#0173b2;stroke:#000000;" x="405.862193" xlink:href="#C9_0_b1e08e31bd" y="337.469774"/>
    </g>
    <g clip-path="url(#p16add397cd)">
     <use style="fill:#0173b2;stroke:#000000;" x="412.507297" xlink:href="#C9_0_b1e08e31bd" y="347.966873"/>
    </g>
    <g clip-path="url(#p16add397cd)">
     <use style="fill:#0173b2;stroke:#000000;" x="412.699715" xlink:href="#C9_0_b1e08e31bd" y="331.832046"/>
    </g>
    <g clip-path="url(#p16add397cd)">
     <use style="fill:#0173b2;stroke:#000000;" x="400.687177" xlink:href="#C9_0_b1e08e31bd" y="331.248584"/>
    </g>
    <g clip-path="url(#p16add397cd)">
     <use style="fill:#0173b2;stroke:#000000;" x="409.397519" xlink:href="#C9_0_b1e08e31bd" y="349.517366"/>
    </g>
    <g clip-path="url(#p16add397cd)">
     <use style="fill:#0173b2;stroke:#000000;" x="400.13754" xlink:href="#C9_0_b1e08e31bd" y="354.217574"/>
    </g>
    <g clip-path="url(#p16add397cd)">
     <use style="fill:#0173b2;stroke:#000000;" x="400.993676" xlink:href="#C9_0_b1e08e31bd" y="372.513151"/>
    </g>
    <g clip-path="url(#p16add397cd)">
     <use style="fill:#0173b2;stroke:#000000;" x="411.170022" xlink:href="#C9_0_b1e08e31bd" y="339.182258"/>
    </g>
    <g clip-path="url(#p16add397cd)">
     <use style="fill:#0173b2;stroke:#000000;" x="397.969903" xlink:href="#C9_0_b1e08e31bd" y="377.165743"/>
    </g>
    <g clip-path="url(#p16add397cd)">
     <use style="fill:#0173b2;stroke:#000000;" x="409.22553" xlink:href="#C9_0_b1e08e31bd" y="340.240439"/>
    </g>
    <g clip-path="url(#p16add397cd)">
     <use style="fill:#0173b2;stroke:#000000;" x="413.357068" xlink:href="#C9_0_b1e08e31bd" y="326.339338"/>
    </g>
    <g clip-path="url(#p16add397cd)">
     <use style="fill:#0173b2;stroke:#000000;" x="412.830186" xlink:href="#C9_0_b1e08e31bd" y="361.063938"/>
    </g>
    <g clip-path="url(#p16add397cd)">
     <use style="fill:#0173b2;stroke:#000000;" x="399.980533" xlink:href="#C9_0_b1e08e31bd" y="354.751184"/>
    </g>
   </g>
   <g id="PathCollection_17">
    <defs>
     <path d="M 0 2.5 
C 0.663008 2.5 1.29895 2.236584 1.767767 1.767767 
C 2.236584 1.29895 2.5 0.663008 2.5 0 
C 2.5 -0.663008 2.236584 -1.29895 1.767767 -1.767767 
C 1.29895 -2.236584 0.663008 -2.5 0 -2.5 
C -0.663008 -2.5 -1.29895 -2.236584 -1.767767 -1.767767 
C -2.236584 -1.29895 -2.5 -0.663008 -2.5 0 
C -2.5 0.663008 -2.236584 1.29895 -1.767767 1.767767 
C -1.29895 2.236584 -0.663008 2.5 0 2.5 
z
" id="Ca_0_abdb9aafa5"/>
    </defs>
    <g clip-path="url(#p16add397cd)">
     <use style="fill:#de8f05;stroke:#000000;" x="477.723505" xlink:href="#Ca_0_abdb9aafa5" y="344.077931"/>
    </g>
    <g clip-path="url(#p16add397cd)">
     <use style="fill:#de8f05;stroke:#000000;" x="487.95489" xlink:href="#Ca_0_abdb9aafa5" y="334.332945"/>
    </g>
    <g clip-path="url(#p16add397cd)">
     <use style="fill:#de8f05;stroke:#000000;" x="483.897913" xlink:href="#Ca_0_abdb9aafa5" y="328.537134"/>
    </g>
    <g clip-path="url(#p16add397cd)">
     <use style="fill:#de8f05;stroke:#000000;" x="476.219722" xlink:href="#Ca_0_abdb9aafa5" y="338.796602"/>
    </g>
    <g clip-path="url(#p16add397cd)">
     <use style="fill:#de8f05;stroke:#000000;" x="478.56952" xlink:href="#Ca_0_abdb9aafa5" y="373.112508"/>
    </g>
    <g clip-path="url(#p16add397cd)">
     <use style="fill:#de8f05;stroke:#000000;" x="484.754987" xlink:href="#Ca_0_abdb9aafa5" y="354.860242"/>
    </g>
    <g clip-path="url(#p16add397cd)">
     <use style="fill:#de8f05;stroke:#000000;" x="484.948425" xlink:href="#Ca_0_abdb9aafa5" y="365.717152"/>
    </g>
    <g clip-path="url(#p16add397cd)">
     <use style="fill:#de8f05;stroke:#000000;" x="476.998917" xlink:href="#Ca_0_abdb9aafa5" y="341.427221"/>
    </g>
    <g clip-path="url(#p16add397cd)">
     <use style="fill:#de8f05;stroke:#000000;" x="488.548332" xlink:href="#Ca_0_abdb9aafa5" y="388.063397"/>
    </g>
    <g clip-path="url(#p16add397cd)">
     <use style="fill:#de8f05;stroke:#000000;" x="480.800578" xlink:href="#Ca_0_abdb9aafa5" y="390.928914"/>
    </g>
    <g clip-path="url(#p16add397cd)">
     <use style="fill:#de8f05;stroke:#000000;" x="488.255381" xlink:href="#Ca_0_abdb9aafa5" y="327.922696"/>
    </g>
    <g clip-path="url(#p16add397cd)">
     <use style="fill:#de8f05;stroke:#000000;" x="479.644318" xlink:href="#Ca_0_abdb9aafa5" y="352.770674"/>
    </g>
    <g clip-path="url(#p16add397cd)">
     <use style="fill:#de8f05;stroke:#000000;" x="488.353923" xlink:href="#Ca_0_abdb9aafa5" y="337.463288"/>
    </g>
    <g clip-path="url(#p16add397cd)">
     <use style="fill:#de8f05;stroke:#000000;" x="484.802369" xlink:href="#Ca_0_abdb9aafa5" y="322.846277"/>
    </g>
    <g clip-path="url(#p16add397cd)">
     <use style="fill:#de8f05;stroke:#000000;" x="473.093269" xlink:href="#Ca_0_abdb9aafa5" y="359.050766"/>
    </g>
    <g clip-path="url(#p16add397cd)">
     <use style="fill:#de8f05;stroke:#000000;" x="488.065799" xlink:href="#Ca_0_abdb9aafa5" y="337.778839"/>
    </g>
   </g>
   <g id="PathCollection_18">
    <defs>
     <path d="M 0 2.5 
C 0.663008 2.5 1.29895 2.236584 1.767767 1.767767 
C 2.236584 1.29895 2.5 0.663008 2.5 0 
C 2.5 -0.663008 2.236584 -1.29895 1.767767 -1.767767 
C 1.29895 -2.236584 0.663008 -2.5 0 -2.5 
C -0.663008 -2.5 -1.29895 -2.236584 -1.767767 -1.767767 
C -2.236584 -1.29895 -2.5 -0.663008 -2.5 0 
C -2.5 0.663008 -2.236584 1.29895 -1.767767 1.767767 
C -1.29895 2.236584 -0.663008 2.5 0 2.5 
z
" id="Cb_0_95b9cb49ee"/>
    </defs>
    <g clip-path="url(#p16add397cd)">
     <use style="fill:#029e73;stroke:#000000;" x="544.223165" xlink:href="#Cb_0_95b9cb49ee" y="334.24976"/>
    </g>
    <g clip-path="url(#p16add397cd)">
     <use style="fill:#029e73;stroke:#000000;" x="550.600733" xlink:href="#Cb_0_95b9cb49ee" y="350.545602"/>
    </g>
    <g clip-path="url(#p16add397cd)">
     <use style="fill:#029e73;stroke:#000000;" x="553.866746" xlink:href="#Cb_0_95b9cb49ee" y="336.126113"/>
    </g>
    <g clip-path="url(#p16add397cd)">
     <use style="fill:#029e73;stroke:#000000;" x="555.675546" xlink:href="#Cb_0_95b9cb49ee" y="342.873122"/>
    </g>
    <g clip-path="url(#p16add397cd)">
     <use style="fill:#029e73;stroke:#000000;" x="549.170971" xlink:href="#Cb_0_95b9cb49ee" y="363.854893"/>
    </g>
    <g clip-path="url(#p16add397cd)">
     <use style="fill:#029e73;stroke:#000000;" x="550.766812" xlink:href="#Cb_0_95b9cb49ee" y="341.517697"/>
    </g>
    <g clip-path="url(#p16add397cd)">
     <use style="fill:#029e73;stroke:#000000;" x="561.302823" xlink:href="#Cb_0_95b9cb49ee" y="360.02145"/>
    </g>
    <g clip-path="url(#p16add397cd)">
     <use style="fill:#029e73;stroke:#000000;" x="560.189116" xlink:href="#Cb_0_95b9cb49ee" y="325.842208"/>
    </g>
    <g clip-path="url(#p16add397cd)">
     <use style="fill:#029e73;stroke:#000000;" x="549.099876" xlink:href="#Cb_0_95b9cb49ee" y="405.338815"/>
    </g>
    <g clip-path="url(#p16add397cd)">
     <use style="fill:#029e73;stroke:#000000;" x="547.975606" xlink:href="#Cb_0_95b9cb49ee" y="339.550471"/>
    </g>
    <g clip-path="url(#p16add397cd)">
     <use style="fill:#029e73;stroke:#000000;" x="544.414669" xlink:href="#Cb_0_95b9cb49ee" y="336.801283"/>
    </g>
    <g clip-path="url(#p16add397cd)">
     <use style="fill:#029e73;stroke:#000000;" x="546.176965" xlink:href="#Cb_0_95b9cb49ee" y="344.377502"/>
    </g>
    <g clip-path="url(#p16add397cd)">
     <use style="fill:#029e73;stroke:#000000;" x="553.674249" xlink:href="#Cb_0_95b9cb49ee" y="332.769476"/>
    </g>
    <g clip-path="url(#p16add397cd)">
     <use style="fill:#029e73;stroke:#000000;" x="557.39553" xlink:href="#Cb_0_95b9cb49ee" y="339.365537"/>
    </g>
    <g clip-path="url(#p16add397cd)">
     <use style="fill:#029e73;stroke:#000000;" x="550.008604" xlink:href="#Cb_0_95b9cb49ee" y="343.801551"/>
    </g>
    <g clip-path="url(#p16add397cd)">
     <use style="fill:#029e73;stroke:#000000;" x="547.647989" xlink:href="#Cb_0_95b9cb49ee" y="332.720476"/>
    </g>
   </g>
   <g id="text_12">
    <!-- Powerbars Pose -->
    <defs>
     <path d="M 16.15625 0 
L 0.296875 51.859375 
L 9.375 51.859375 
L 17.625 21.921875 
L 20.703125 10.796875 
Q 20.90625 11.625 23.390625 21.484375 
L 31.640625 51.859375 
L 40.671875 51.859375 
L 48.4375 21.78125 
L 51.03125 11.859375 
L 54 21.875 
L 62.890625 51.859375 
L 71.4375 51.859375 
L 55.21875 0 
L 46.09375 0 
L 37.84375 31.0625 
L 35.84375 39.890625 
L 25.34375 0 
z
" id="ArialMT-119"/>
     <path d="M 14.703125 0 
L 6.546875 0 
L 6.546875 71.578125 
L 15.328125 71.578125 
L 15.328125 46.046875 
Q 20.90625 53.03125 29.546875 53.03125 
Q 34.328125 53.03125 38.59375 51.09375 
Q 42.875 49.171875 45.625 45.671875 
Q 48.390625 42.1875 49.953125 37.25 
Q 51.515625 32.328125 51.515625 26.703125 
Q 51.515625 13.375 44.921875 6.09375 
Q 38.328125 -1.171875 29.109375 -1.171875 
Q 19.921875 -1.171875 14.703125 6.5 
z
M 14.59375 26.3125 
Q 14.59375 17 17.140625 12.84375 
Q 21.296875 6.0625 28.375 6.0625 
Q 34.125 6.0625 38.328125 11.0625 
Q 42.53125 16.0625 42.53125 25.984375 
Q 42.53125 36.140625 38.5 40.96875 
Q 34.46875 45.796875 28.765625 45.796875 
Q 23 45.796875 18.796875 40.796875 
Q 14.59375 35.796875 14.59375 26.3125 
z
" id="ArialMT-98"/>
     <path d="M 40.4375 6.390625 
Q 35.546875 2.25 31.03125 0.53125 
Q 26.515625 -1.171875 21.34375 -1.171875 
Q 12.796875 -1.171875 8.203125 3 
Q 3.609375 7.171875 3.609375 13.671875 
Q 3.609375 17.484375 5.34375 20.625 
Q 7.078125 23.78125 9.890625 25.6875 
Q 12.703125 27.59375 16.21875 28.5625 
Q 18.796875 29.25 24.03125 29.890625 
Q 34.671875 31.15625 39.703125 32.90625 
Q 39.75 34.71875 39.75 35.203125 
Q 39.75 40.578125 37.25 42.78125 
Q 33.890625 45.75 27.25 45.75 
Q 21.046875 45.75 18.09375 43.578125 
Q 15.140625 41.40625 13.71875 35.890625 
L 5.125 37.0625 
Q 6.296875 42.578125 8.984375 45.96875 
Q 11.671875 49.359375 16.75 51.1875 
Q 21.828125 53.03125 28.515625 53.03125 
Q 35.15625 53.03125 39.296875 51.46875 
Q 43.453125 49.90625 45.40625 47.53125 
Q 47.359375 45.171875 48.140625 41.546875 
Q 48.578125 39.3125 48.578125 33.453125 
L 48.578125 21.734375 
Q 48.578125 9.46875 49.140625 6.21875 
Q 49.703125 2.984375 51.375 0 
L 42.1875 0 
Q 40.828125 2.734375 40.4375 6.390625 
z
M 39.703125 26.03125 
Q 34.90625 24.078125 25.34375 22.703125 
Q 19.921875 21.921875 17.671875 20.9375 
Q 15.4375 19.96875 14.203125 18.09375 
Q 12.984375 16.21875 12.984375 13.921875 
Q 12.984375 10.40625 15.640625 8.0625 
Q 18.3125 5.71875 23.4375 5.71875 
Q 28.515625 5.71875 32.46875 7.9375 
Q 36.421875 10.15625 38.28125 14.015625 
Q 39.703125 17 39.703125 22.796875 
z
" id="ArialMT-97"/>
    </defs>
    <g style="fill:#262626;" transform="translate(253.85125 291.57)scale(0.24 -0.24)">
     <use xlink:href="#ArialMT-80"/>
     <use x="66.699219" xlink:href="#ArialMT-111"/>
     <use x="122.314453" xlink:href="#ArialMT-119"/>
     <use x="194.53125" xlink:href="#ArialMT-101"/>
     <use x="250.146484" xlink:href="#ArialMT-114"/>
     <use x="283.447266" xlink:href="#ArialMT-98"/>
     <use x="339.0625" xlink:href="#ArialMT-97"/>
     <use x="394.677734" xlink:href="#ArialMT-114"/>
     <use x="427.978516" xlink:href="#ArialMT-115"/>
     <use x="477.978516" xlink:href="#ArialMT-32"/>
     <use x="505.761719" xlink:href="#ArialMT-80"/>
     <use x="572.460938" xlink:href="#ArialMT-111"/>
     <use x="628.076172" xlink:href="#ArialMT-115"/>
     <use x="678.076172" xlink:href="#ArialMT-101"/>
    </g>
   </g>
   <g id="legend_1">
    <g id="patch_26">
     <path d="M 512.265 514.42 
L 609.36 514.42 
Q 611.76 514.42 611.76 512.02 
L 611.76 462.15625 
Q 611.76 459.75625 609.36 459.75625 
L 512.265 459.75625 
Q 509.865 459.75625 509.865 462.15625 
L 509.865 512.02 
Q 509.865 514.42 512.265 514.42 
z
" style="fill:#eaeaf2;opacity:0.8;stroke:#cccccc;stroke-linejoin:miter;"/>
    </g>
    <g id="patch_27">
     <path d="M 514.665 473.145625 
L 538.665 473.145625 
L 538.665 464.745625 
L 514.665 464.745625 
z
" style="fill:#176d9c;stroke:#303030;stroke-linejoin:miter;stroke-width:0.5;"/>
    </g>
    <g id="text_13">
     <!-- Distance -->
     <defs>
      <path d="M 6.640625 61.46875 
L 6.640625 71.578125 
L 15.4375 71.578125 
L 15.4375 61.46875 
z
M 6.640625 0 
L 6.640625 51.859375 
L 15.4375 51.859375 
L 15.4375 0 
z
" id="ArialMT-105"/>
     </defs>
     <g style="fill:#262626;" transform="translate(548.265 473.145625)scale(0.12 -0.12)">
      <use xlink:href="#ArialMT-68"/>
      <use x="72.216797" xlink:href="#ArialMT-105"/>
      <use x="94.433594" xlink:href="#ArialMT-115"/>
      <use x="144.433594" xlink:href="#ArialMT-116"/>
      <use x="172.216797" xlink:href="#ArialMT-97"/>
      <use x="227.832031" xlink:href="#ArialMT-110"/>
      <use x="283.447266" xlink:href="#ArialMT-99"/>
      <use x="333.447266" xlink:href="#ArialMT-101"/>
     </g>
    </g>
    <g id="patch_28">
     <path d="M 514.665 490.12 
L 538.665 490.12 
L 538.665 481.72 
L 514.665 481.72 
z
" style="fill:#c38820;stroke:#303030;stroke-linejoin:miter;stroke-width:0.5;"/>
    </g>
    <g id="text_14">
     <!-- Angle -->
     <defs>
      <path d="M 4.984375 -4.296875 
L 13.53125 -5.5625 
Q 14.0625 -9.515625 16.5 -11.328125 
Q 19.78125 -13.765625 25.4375 -13.765625 
Q 31.546875 -13.765625 34.859375 -11.328125 
Q 38.1875 -8.890625 39.359375 -4.5 
Q 40.046875 -1.8125 39.984375 6.78125 
Q 34.234375 0 25.640625 0 
Q 14.9375 0 9.078125 7.71875 
Q 3.21875 15.4375 3.21875 26.21875 
Q 3.21875 33.640625 5.90625 39.90625 
Q 8.59375 46.1875 13.6875 49.609375 
Q 18.796875 53.03125 25.6875 53.03125 
Q 34.859375 53.03125 40.828125 45.609375 
L 40.828125 51.859375 
L 48.921875 51.859375 
L 48.921875 7.03125 
Q 48.921875 -5.078125 46.453125 -10.125 
Q 44 -15.1875 38.640625 -18.109375 
Q 33.296875 -21.046875 25.484375 -21.046875 
Q 16.21875 -21.046875 10.5 -16.875 
Q 4.78125 -12.703125 4.984375 -4.296875 
z
M 12.25 26.859375 
Q 12.25 16.65625 16.296875 11.96875 
Q 20.359375 7.28125 26.46875 7.28125 
Q 32.515625 7.28125 36.609375 11.9375 
Q 40.71875 16.609375 40.71875 26.5625 
Q 40.71875 36.078125 36.5 40.90625 
Q 32.28125 45.75 26.3125 45.75 
Q 20.453125 45.75 16.34375 40.984375 
Q 12.25 36.234375 12.25 26.859375 
z
" id="ArialMT-103"/>
     </defs>
     <g style="fill:#262626;" transform="translate(548.265 490.12)scale(0.12 -0.12)">
      <use xlink:href="#ArialMT-65"/>
      <use x="66.699219" xlink:href="#ArialMT-110"/>
      <use x="122.314453" xlink:href="#ArialMT-103"/>
      <use x="177.929688" xlink:href="#ArialMT-108"/>
      <use x="200.146484" xlink:href="#ArialMT-101"/>
     </g>
    </g>
    <g id="patch_29">
     <path d="M 514.665 507.235 
L 538.665 507.235 
L 538.665 498.835 
L 514.665 498.835 
z
" style="fill:#158b6a;stroke:#303030;stroke-linejoin:miter;stroke-width:0.5;"/>
    </g>
    <g id="text_15">
     <!-- Orientation -->
     <defs>
      <path d="M 4.828125 34.859375 
Q 4.828125 52.6875 14.390625 62.765625 
Q 23.96875 72.859375 39.109375 72.859375 
Q 49.03125 72.859375 56.984375 68.109375 
Q 64.9375 63.375 69.109375 54.90625 
Q 73.296875 46.4375 73.296875 35.6875 
Q 73.296875 24.8125 68.890625 16.21875 
Q 64.5 7.625 56.4375 3.203125 
Q 48.390625 -1.21875 39.0625 -1.21875 
Q 28.953125 -1.21875 20.984375 3.65625 
Q 13.03125 8.546875 8.921875 16.984375 
Q 4.828125 25.4375 4.828125 34.859375 
z
M 14.59375 34.71875 
Q 14.59375 21.78125 21.546875 14.328125 
Q 28.515625 6.890625 39.015625 6.890625 
Q 49.703125 6.890625 56.609375 14.40625 
Q 63.53125 21.921875 63.53125 35.75 
Q 63.53125 44.484375 60.578125 51 
Q 57.625 57.515625 51.921875 61.109375 
Q 46.234375 64.703125 39.15625 64.703125 
Q 29.109375 64.703125 21.84375 57.78125 
Q 14.59375 50.875 14.59375 34.71875 
z
" id="ArialMT-79"/>
     </defs>
     <g style="fill:#262626;" transform="translate(548.265 507.235)scale(0.12 -0.12)">
      <use xlink:href="#ArialMT-79"/>
      <use x="77.783203" xlink:href="#ArialMT-114"/>
      <use x="111.083984" xlink:href="#ArialMT-105"/>
      <use x="133.300781" xlink:href="#ArialMT-101"/>
      <use x="188.916016" xlink:href="#ArialMT-110"/>
      <use x="244.53125" xlink:href="#ArialMT-116"/>
      <use x="272.314453" xlink:href="#ArialMT-97"/>
      <use x="327.929688" xlink:href="#ArialMT-116"/>
      <use x="355.712891" xlink:href="#ArialMT-105"/>
      <use x="377.929688" xlink:href="#ArialMT-111"/>
      <use x="433.544922" xlink:href="#ArialMT-110"/>
     </g>
    </g>
   </g>
  </g>
 </g>
 <defs>
  <clipPath id="p388bfda63d">
   <rect height="208.85" width="551.74" x="66.02" y="49.2"/>
  </clipPath>
  <clipPath id="p16add397cd">
   <rect height="208.85" width="551.74" x="66.02" y="311.57"/>
  </clipPath>
 </defs>
</svg>
