<?xml version="1.0" encoding="utf-8" standalone="no"?>
<!DOCTYPE svg PUBLIC "-//W3C//DTD SVG 1.1//EN"
  "http://www.w3.org/Graphics/SVG/1.1/DTD/svg11.dtd">
<!-- Created with matplotlib (https://matplotlib.org/) -->
<svg height="360pt" version="1.1" viewBox="0 0 360 360" width="360pt" xmlns="http://www.w3.org/2000/svg" xmlns:xlink="http://www.w3.org/1999/xlink">
 <defs>
  <style type="text/css">
*{stroke-linecap:butt;stroke-linejoin:round;}
  </style>
 </defs>
 <g id="figure_1">
  <g id="patch_1">
   <path d="M 0 360 
L 360 360 
L 360 0 
L 0 0 
z
" style="fill:#ffffff;"/>
  </g>
  <g id="axes_1">
   <g id="patch_2">
    <path d="M 33.64 332.12 
L 346.68 332.12 
L 346.68 13.32 
L 33.64 13.32 
z
" style="fill:#ffffff;"/>
   </g>
   <g id="PathCollection_1">
    <defs>
     <path d="M 0 3 
C 0.795609 3 1.55874 2.683901 2.12132 2.12132 
C 2.683901 1.55874 3 0.795609 3 0 
C 3 -0.795609 2.683901 -1.55874 2.12132 -2.12132 
C 1.55874 -2.683901 0.795609 -3 0 -3 
C -0.795609 -3 -1.55874 -2.683901 -2.12132 -2.12132 
C -2.683901 -1.55874 -3 -0.795609 -3 0 
C -3 0.795609 -2.683901 1.55874 -2.12132 2.12132 
C -1.55874 2.683901 -0.795609 3 0 3 
z
" id="mc03599012c" style="stroke:#1f77b4;stroke-opacity:0.8;"/>
    </defs>
    <g clip-path="url(#pe57a28126d)">
     <use style="fill:#1f77b4;fill-opacity:0.8;stroke:#1f77b4;stroke-opacity:0.8;" x="150.124081" xlink:href="#mc03599012c" y="251.964781"/>
     <use style="fill:#1f77b4;fill-opacity:0.8;stroke:#1f77b4;stroke-opacity:0.8;" x="176.814694" xlink:href="#mc03599012c" y="221.678644"/>
     <use style="fill:#1f77b4;fill-opacity:0.8;stroke:#1f77b4;stroke-opacity:0.8;" x="110.088162" xlink:href="#mc03599012c" y="250.44175"/>
     <use style="fill:#1f77b4;fill-opacity:0.8;stroke:#1f77b4;stroke-opacity:0.8;" x="50.034284" xlink:href="#mc03599012c" y="157.306933"/>
     <use style="fill:#1f77b4;fill-opacity:0.8;stroke:#1f77b4;stroke-opacity:0.8;" x="210.177959" xlink:href="#mc03599012c" y="317.60032"/>
     <use style="fill:#1f77b4;fill-opacity:0.8;stroke:#1f77b4;stroke-opacity:0.8;" x="103.415509" xlink:href="#mc03599012c" y="217.231399"/>
     <use style="fill:#1f77b4;fill-opacity:0.8;stroke:#1f77b4;stroke-opacity:0.8;" x="150.124081" xlink:href="#mc03599012c" y="192.844153"/>
     <use style="fill:#1f77b4;fill-opacity:0.8;stroke:#1f77b4;stroke-opacity:0.8;" x="96.742856" xlink:href="#mc03599012c" y="214.674033"/>
     <use style="fill:#1f77b4;fill-opacity:0.8;stroke:#1f77b4;stroke-opacity:0.8;" x="263.559185" xlink:href="#mc03599012c" y="207.151232"/>
     <use style="fill:#1f77b4;fill-opacity:0.8;stroke:#1f77b4;stroke-opacity:0.8;" x="156.796734" xlink:href="#mc03599012c" y="209.016739"/>
     <use style="fill:#1f77b4;fill-opacity:0.8;stroke:#1f77b4;stroke-opacity:0.8;" x="123.433469" xlink:href="#mc03599012c" y="192.007391"/>
     <use style="fill:#1f77b4;fill-opacity:0.8;stroke:#1f77b4;stroke-opacity:0.8;" x="130.106122" xlink:href="#mc03599012c" y="243.392621"/>
     <use style="fill:#1f77b4;fill-opacity:0.8;stroke:#1f77b4;stroke-opacity:0.8;" x="316.94041" xlink:href="#mc03599012c" y="173.13187"/>
     <use style="fill:#1f77b4;fill-opacity:0.8;stroke:#1f77b4;stroke-opacity:0.8;" x="236.868572" xlink:href="#mc03599012c" y="145.650755"/>
     <use style="fill:#1f77b4;fill-opacity:0.8;stroke:#1f77b4;stroke-opacity:0.8;" x="116.760815" xlink:href="#mc03599012c" y="200.724035"/>
     <use style="fill:#1f77b4;fill-opacity:0.8;stroke:#1f77b4;stroke-opacity:0.8;" x="163.469387" xlink:href="#mc03599012c" y="210.882245"/>
     <use style="fill:#1f77b4;fill-opacity:0.8;stroke:#1f77b4;stroke-opacity:0.8;" x="330.285716" xlink:href="#mc03599012c" y="143.07224"/>
    </g>
   </g>
   <g id="PolyCollection_1">
    <path clip-path="url(#pe57a28126d)" d="M 50.034284 110.439082 
L 50.034284 259.620285 
L 52.865107 257.730844 
L 55.695929 255.857152 
L 58.526752 254.108528 
L 61.357574 253.334413 
L 64.188397 251.863522 
L 67.019219 250.158805 
L 69.850042 248.447799 
L 72.680864 246.740911 
L 75.511687 245.140527 
L 78.34251 244.064855 
L 81.173332 242.446637 
L 84.004155 241.050557 
L 86.834977 239.441147 
L 89.6658 238.336394 
L 92.496622 237.154255 
L 95.327445 235.923629 
L 98.158267 234.766571 
L 100.98909 233.52668 
L 103.819912 233.352892 
L 106.650735 233.242748 
L 109.481558 233.452403 
L 112.31238 233.830927 
L 115.143203 233.958801 
L 117.974025 234.86855 
L 120.804848 235.649603 
L 123.63567 237.08336 
L 126.466493 239.375181 
L 129.297315 241.26657 
L 132.128138 242.753764 
L 134.95896 244.141319 
L 137.789783 246.360036 
L 140.620605 247.949039 
L 143.451428 249.982366 
L 146.282251 250.829008 
L 149.113073 251.820257 
L 151.943896 253.499651 
L 154.774718 255.943235 
L 157.605541 256.982022 
L 160.436363 258.072925 
L 163.267186 259.378699 
L 166.098008 260.136865 
L 168.928831 261.271623 
L 171.759653 262.400803 
L 174.590476 263.228335 
L 177.421299 264.048994 
L 180.252121 264.762711 
L 183.082944 265.314818 
L 185.913766 265.79109 
L 188.744589 266.443753 
L 191.575411 266.799685 
L 194.406234 268.04241 
L 197.237056 268.475826 
L 200.067879 268.766857 
L 202.898701 268.947533 
L 205.729524 268.565654 
L 208.560347 268.624245 
L 211.391169 268.169957 
L 214.221992 267.586423 
L 217.052814 266.902269 
L 219.883637 266.112566 
L 222.714459 265.22143 
L 225.545282 264.233051 
L 228.376104 263.308093 
L 231.206927 262.006194 
L 234.037749 260.859899 
L 236.868572 259.757542 
L 239.699395 258.565668 
L 242.530217 257.071307 
L 245.36104 255.149634 
L 248.191862 253.616099 
L 251.022685 252.787017 
L 253.853507 251.440175 
L 256.68433 250.184997 
L 259.515152 247.893997 
L 262.345975 246.010901 
L 265.176797 243.630339 
L 268.00762 241.092234 
L 270.838442 238.981437 
L 273.669265 236.78361 
L 276.500088 233.960454 
L 279.33091 230.707378 
L 282.161733 227.82063 
L 284.992555 224.974412 
L 287.823378 222.872735 
L 290.6542 220.696241 
L 293.485023 217.67605 
L 296.315845 216.113399 
L 299.146668 213.66648 
L 301.97749 211.237359 
L 304.808313 209.053634 
L 307.639136 206.521934 
L 310.469958 203.912033 
L 313.300781 201.221396 
L 316.131603 199.130178 
L 318.962426 198.5465 
L 321.793248 197.953264 
L 324.624071 197.3513 
L 327.454893 196.098091 
L 330.285716 193.968944 
L 330.285716 27.810909 
L 330.285716 27.810909 
L 327.454893 33.818546 
L 324.624071 40.527565 
L 321.793248 47.270969 
L 318.962426 53.898431 
L 316.131603 60.409953 
L 313.300781 66.805533 
L 310.469958 72.967316 
L 307.639136 78.69621 
L 304.808313 84.326712 
L 301.97749 89.880126 
L 299.146668 95.330406 
L 296.315845 100.677554 
L 293.485023 105.921569 
L 290.6542 111.062452 
L 287.823378 116.100202 
L 284.992555 120.883973 
L 282.161733 125.621979 
L 279.33091 130.558406 
L 276.500088 135.157428 
L 273.669265 137.718548 
L 270.838442 141.590997 
L 268.00762 144.025774 
L 265.176797 144.354894 
L 262.345975 146.050932 
L 259.515152 150.318971 
L 256.68433 156.032329 
L 253.853507 161.240154 
L 251.022685 162.054147 
L 248.191862 164.052226 
L 245.36104 167.344441 
L 242.530217 168.894526 
L 239.699395 170.225377 
L 236.868572 171.540292 
L 234.037749 173.086998 
L 231.206927 174.196418 
L 228.376104 175.733425 
L 225.545282 177.91295 
L 222.714459 179.002264 
L 219.883637 180.044162 
L 217.052814 181.339308 
L 214.221992 182.422842 
L 211.391169 183.619548 
L 208.560347 185.065649 
L 205.729524 186.395845 
L 202.898701 187.929475 
L 200.067879 189.922449 
L 197.237056 190.912894 
L 194.406234 192.270023 
L 191.575411 193.059048 
L 188.744589 194.231304 
L 185.913766 195.433632 
L 183.082944 196.447361 
L 180.252121 197.513167 
L 177.421299 198.332665 
L 174.590476 199.12571 
L 171.759653 199.534755 
L 168.928831 200.107397 
L 166.098008 201.006079 
L 163.267186 201.421935 
L 160.436363 202.0493 
L 157.605541 202.686135 
L 154.774718 203.068193 
L 151.943896 203.950301 
L 149.113073 204.158641 
L 146.282251 204.84467 
L 143.451428 205.085425 
L 140.620605 205.506994 
L 137.789783 205.758283 
L 134.95896 205.409855 
L 132.128138 204.931592 
L 129.297315 204.018133 
L 126.466493 203.392109 
L 123.63567 202.693109 
L 120.804848 202.35098 
L 117.974025 201.076573 
L 115.143203 199.230541 
L 112.31238 197.251008 
L 109.481558 195.192524 
L 106.650735 193.498181 
L 103.819912 191.818531 
L 100.98909 189.103087 
L 98.158267 186.309195 
L 95.327445 183.449691 
L 92.496622 180.028571 
L 89.6658 176.042235 
L 86.834977 171.964351 
L 84.004155 167.813248 
L 81.173332 163.574989 
L 78.34251 159.835125 
L 75.511687 155.062888 
L 72.680864 150.403123 
L 69.850042 145.586257 
L 67.019219 140.844094 
L 64.188397 136.006705 
L 61.357574 131.074091 
L 58.526752 125.710115 
L 55.695929 120.936495 
L 52.865107 115.73524 
L 50.034284 110.439082 
z
" style="fill:#1f77b4;fill-opacity:0.15;"/>
   </g>
   <g id="matplotlib.axis_1">
    <g id="xtick_1">
     <g id="line2d_1">
      <defs>
       <path d="M 0 0 
L 0 3.5 
" id="m232a7b30d2" style="stroke:#000000;stroke-width:0.8;"/>
      </defs>
      <g>
       <use style="stroke:#000000;stroke-width:0.8;" x="36.688978" xlink:href="#m232a7b30d2" y="332.12"/>
      </g>
     </g>
     <g id="text_1">
      <!-- 0 -->
      <defs>
       <path d="M 31.78125 66.40625 
Q 24.171875 66.40625 20.328125 58.90625 
Q 16.5 51.421875 16.5 36.375 
Q 16.5 21.390625 20.328125 13.890625 
Q 24.171875 6.390625 31.78125 6.390625 
Q 39.453125 6.390625 43.28125 13.890625 
Q 47.125 21.390625 47.125 36.375 
Q 47.125 51.421875 43.28125 58.90625 
Q 39.453125 66.40625 31.78125 66.40625 
z
M 31.78125 74.21875 
Q 44.046875 74.21875 50.515625 64.515625 
Q 56.984375 54.828125 56.984375 36.375 
Q 56.984375 17.96875 50.515625 8.265625 
Q 44.046875 -1.421875 31.78125 -1.421875 
Q 19.53125 -1.421875 13.0625 8.265625 
Q 6.59375 17.96875 6.59375 36.375 
Q 6.59375 54.828125 13.0625 64.515625 
Q 19.53125 74.21875 31.78125 74.21875 
z
" id="DejaVuSans-48"/>
      </defs>
      <g transform="translate(33.507728 346.718437)scale(0.1 -0.1)">
       <use xlink:href="#DejaVuSans-48"/>
      </g>
     </g>
    </g>
    <g id="xtick_2">
     <g id="line2d_2">
      <g>
       <use style="stroke:#000000;stroke-width:0.8;" x="103.415509" xlink:href="#m232a7b30d2" y="332.12"/>
      </g>
     </g>
     <g id="text_2">
      <!-- 10 -->
      <defs>
       <path d="M 12.40625 8.296875 
L 28.515625 8.296875 
L 28.515625 63.921875 
L 10.984375 60.40625 
L 10.984375 69.390625 
L 28.421875 72.90625 
L 38.28125 72.90625 
L 38.28125 8.296875 
L 54.390625 8.296875 
L 54.390625 0 
L 12.40625 0 
z
" id="DejaVuSans-49"/>
      </defs>
      <g transform="translate(97.053009 346.718437)scale(0.1 -0.1)">
       <use xlink:href="#DejaVuSans-49"/>
       <use x="63.623047" xlink:href="#DejaVuSans-48"/>
      </g>
     </g>
    </g>
    <g id="xtick_3">
     <g id="line2d_3">
      <g>
       <use style="stroke:#000000;stroke-width:0.8;" x="170.142041" xlink:href="#m232a7b30d2" y="332.12"/>
      </g>
     </g>
     <g id="text_3">
      <!-- 20 -->
      <defs>
       <path d="M 19.1875 8.296875 
L 53.609375 8.296875 
L 53.609375 0 
L 7.328125 0 
L 7.328125 8.296875 
Q 12.9375 14.109375 22.625 23.890625 
Q 32.328125 33.6875 34.8125 36.53125 
Q 39.546875 41.84375 41.421875 45.53125 
Q 43.3125 49.21875 43.3125 52.78125 
Q 43.3125 58.59375 39.234375 62.25 
Q 35.15625 65.921875 28.609375 65.921875 
Q 23.96875 65.921875 18.8125 64.3125 
Q 13.671875 62.703125 7.8125 59.421875 
L 7.8125 69.390625 
Q 13.765625 71.78125 18.9375 73 
Q 24.125 74.21875 28.421875 74.21875 
Q 39.75 74.21875 46.484375 68.546875 
Q 53.21875 62.890625 53.21875 53.421875 
Q 53.21875 48.921875 51.53125 44.890625 
Q 49.859375 40.875 45.40625 35.40625 
Q 44.1875 33.984375 37.640625 27.21875 
Q 31.109375 20.453125 19.1875 8.296875 
z
" id="DejaVuSans-50"/>
      </defs>
      <g transform="translate(163.779541 346.718437)scale(0.1 -0.1)">
       <use xlink:href="#DejaVuSans-50"/>
       <use x="63.623047" xlink:href="#DejaVuSans-48"/>
      </g>
     </g>
    </g>
    <g id="xtick_4">
     <g id="line2d_4">
      <g>
       <use style="stroke:#000000;stroke-width:0.8;" x="236.868572" xlink:href="#m232a7b30d2" y="332.12"/>
      </g>
     </g>
     <g id="text_4">
      <!-- 30 -->
      <defs>
       <path d="M 40.578125 39.3125 
Q 47.65625 37.796875 51.625 33 
Q 55.609375 28.21875 55.609375 21.1875 
Q 55.609375 10.40625 48.1875 4.484375 
Q 40.765625 -1.421875 27.09375 -1.421875 
Q 22.515625 -1.421875 17.65625 -0.515625 
Q 12.796875 0.390625 7.625 2.203125 
L 7.625 11.71875 
Q 11.71875 9.328125 16.59375 8.109375 
Q 21.484375 6.890625 26.8125 6.890625 
Q 36.078125 6.890625 40.9375 10.546875 
Q 45.796875 14.203125 45.796875 21.1875 
Q 45.796875 27.640625 41.28125 31.265625 
Q 36.765625 34.90625 28.71875 34.90625 
L 20.21875 34.90625 
L 20.21875 43.015625 
L 29.109375 43.015625 
Q 36.375 43.015625 40.234375 45.921875 
Q 44.09375 48.828125 44.09375 54.296875 
Q 44.09375 59.90625 40.109375 62.90625 
Q 36.140625 65.921875 28.71875 65.921875 
Q 24.65625 65.921875 20.015625 65.03125 
Q 15.375 64.15625 9.8125 62.3125 
L 9.8125 71.09375 
Q 15.4375 72.65625 20.34375 73.4375 
Q 25.25 74.21875 29.59375 74.21875 
Q 40.828125 74.21875 47.359375 69.109375 
Q 53.90625 64.015625 53.90625 55.328125 
Q 53.90625 49.265625 50.4375 45.09375 
Q 46.96875 40.921875 40.578125 39.3125 
z
" id="DejaVuSans-51"/>
      </defs>
      <g transform="translate(230.506072 346.718437)scale(0.1 -0.1)">
       <use xlink:href="#DejaVuSans-51"/>
       <use x="63.623047" xlink:href="#DejaVuSans-48"/>
      </g>
     </g>
    </g>
    <g id="xtick_5">
     <g id="line2d_5">
      <g>
       <use style="stroke:#000000;stroke-width:0.8;" x="303.595103" xlink:href="#m232a7b30d2" y="332.12"/>
      </g>
     </g>
     <g id="text_5">
      <!-- 40 -->
      <defs>
       <path d="M 37.796875 64.3125 
L 12.890625 25.390625 
L 37.796875 25.390625 
z
M 35.203125 72.90625 
L 47.609375 72.90625 
L 47.609375 25.390625 
L 58.015625 25.390625 
L 58.015625 17.1875 
L 47.609375 17.1875 
L 47.609375 0 
L 37.796875 0 
L 37.796875 17.1875 
L 4.890625 17.1875 
L 4.890625 26.703125 
z
" id="DejaVuSans-52"/>
      </defs>
      <g transform="translate(297.232603 346.718437)scale(0.1 -0.1)">
       <use xlink:href="#DejaVuSans-52"/>
       <use x="63.623047" xlink:href="#DejaVuSans-48"/>
      </g>
     </g>
    </g>
    <g id="text_6">
     <!-- BBT AH -->
     <defs>
      <path d="M 19.671875 34.8125 
L 19.671875 8.109375 
L 35.5 8.109375 
Q 43.453125 8.109375 47.28125 11.40625 
Q 51.125 14.703125 51.125 21.484375 
Q 51.125 28.328125 47.28125 31.5625 
Q 43.453125 34.8125 35.5 34.8125 
z
M 19.671875 64.796875 
L 19.671875 42.828125 
L 34.28125 42.828125 
Q 41.5 42.828125 45.03125 45.53125 
Q 48.578125 48.25 48.578125 53.8125 
Q 48.578125 59.328125 45.03125 62.0625 
Q 41.5 64.796875 34.28125 64.796875 
z
M 9.8125 72.90625 
L 35.015625 72.90625 
Q 46.296875 72.90625 52.390625 68.21875 
Q 58.5 63.53125 58.5 54.890625 
Q 58.5 48.1875 55.375 44.234375 
Q 52.25 40.28125 46.1875 39.3125 
Q 53.46875 37.75 57.5 32.78125 
Q 61.53125 27.828125 61.53125 20.40625 
Q 61.53125 10.640625 54.890625 5.3125 
Q 48.25 0 35.984375 0 
L 9.8125 0 
z
" id="DejaVuSans-66"/>
      <path d="M -0.296875 72.90625 
L 61.375 72.90625 
L 61.375 64.59375 
L 35.5 64.59375 
L 35.5 0 
L 25.59375 0 
L 25.59375 64.59375 
L -0.296875 64.59375 
z
" id="DejaVuSans-84"/>
      <path id="DejaVuSans-32"/>
      <path d="M 34.1875 63.1875 
L 20.796875 26.90625 
L 47.609375 26.90625 
z
M 28.609375 72.90625 
L 39.796875 72.90625 
L 67.578125 0 
L 57.328125 0 
L 50.6875 18.703125 
L 17.828125 18.703125 
L 11.1875 0 
L 0.78125 0 
z
" id="DejaVuSans-65"/>
      <path d="M 9.8125 72.90625 
L 19.671875 72.90625 
L 19.671875 43.015625 
L 55.515625 43.015625 
L 55.515625 72.90625 
L 65.375 72.90625 
L 65.375 0 
L 55.515625 0 
L 55.515625 34.71875 
L 19.671875 34.71875 
L 19.671875 0 
L 9.8125 0 
z
" id="DejaVuSans-72"/>
     </defs>
     <g transform="translate(171.475625 360.396563)scale(0.1 -0.1)">
      <use xlink:href="#DejaVuSans-66"/>
      <use x="68.603516" xlink:href="#DejaVuSans-66"/>
      <use x="137.207031" xlink:href="#DejaVuSans-84"/>
      <use x="198.291016" xlink:href="#DejaVuSans-32"/>
      <use x="230.078125" xlink:href="#DejaVuSans-65"/>
      <use x="298.486328" xlink:href="#DejaVuSans-72"/>
     </g>
    </g>
   </g>
   <g id="matplotlib.axis_2">
    <g id="ytick_1">
     <g id="line2d_6">
      <defs>
       <path d="M 0 0 
L -3.5 0 
" id="m59b7d4dfac" style="stroke:#000000;stroke-width:0.8;"/>
      </defs>
      <g>
       <use style="stroke:#000000;stroke-width:0.8;" x="33.64" xlink:href="#m59b7d4dfac" y="280.440497"/>
      </g>
     </g>
     <g id="text_7">
      <!-- 0.4 -->
      <defs>
       <path d="M 10.6875 12.40625 
L 21 12.40625 
L 21 0 
L 10.6875 0 
z
" id="DejaVuSans-46"/>
      </defs>
      <g transform="translate(10.736875 284.239716)scale(0.1 -0.1)">
       <use xlink:href="#DejaVuSans-48"/>
       <use x="63.623047" xlink:href="#DejaVuSans-46"/>
       <use x="95.410156" xlink:href="#DejaVuSans-52"/>
      </g>
     </g>
    </g>
    <g id="ytick_2">
     <g id="line2d_7">
      <g>
       <use style="stroke:#000000;stroke-width:0.8;" x="33.64" xlink:href="#m59b7d4dfac" y="223.978816"/>
      </g>
     </g>
     <g id="text_8">
      <!-- 0.6 -->
      <defs>
       <path d="M 33.015625 40.375 
Q 26.375 40.375 22.484375 35.828125 
Q 18.609375 31.296875 18.609375 23.390625 
Q 18.609375 15.53125 22.484375 10.953125 
Q 26.375 6.390625 33.015625 6.390625 
Q 39.65625 6.390625 43.53125 10.953125 
Q 47.40625 15.53125 47.40625 23.390625 
Q 47.40625 31.296875 43.53125 35.828125 
Q 39.65625 40.375 33.015625 40.375 
z
M 52.59375 71.296875 
L 52.59375 62.3125 
Q 48.875 64.0625 45.09375 64.984375 
Q 41.3125 65.921875 37.59375 65.921875 
Q 27.828125 65.921875 22.671875 59.328125 
Q 17.53125 52.734375 16.796875 39.40625 
Q 19.671875 43.65625 24.015625 45.921875 
Q 28.375 48.1875 33.59375 48.1875 
Q 44.578125 48.1875 50.953125 41.515625 
Q 57.328125 34.859375 57.328125 23.390625 
Q 57.328125 12.15625 50.6875 5.359375 
Q 44.046875 -1.421875 33.015625 -1.421875 
Q 20.359375 -1.421875 13.671875 8.265625 
Q 6.984375 17.96875 6.984375 36.375 
Q 6.984375 53.65625 15.1875 63.9375 
Q 23.390625 74.21875 37.203125 74.21875 
Q 40.921875 74.21875 44.703125 73.484375 
Q 48.484375 72.75 52.59375 71.296875 
z
" id="DejaVuSans-54"/>
      </defs>
      <g transform="translate(10.736875 227.778035)scale(0.1 -0.1)">
       <use xlink:href="#DejaVuSans-48"/>
       <use x="63.623047" xlink:href="#DejaVuSans-46"/>
       <use x="95.410156" xlink:href="#DejaVuSans-54"/>
      </g>
     </g>
    </g>
    <g id="ytick_3">
     <g id="line2d_8">
      <g>
       <use style="stroke:#000000;stroke-width:0.8;" x="33.64" xlink:href="#m59b7d4dfac" y="167.517135"/>
      </g>
     </g>
     <g id="text_9">
      <!-- 0.8 -->
      <defs>
       <path d="M 31.78125 34.625 
Q 24.75 34.625 20.71875 30.859375 
Q 16.703125 27.09375 16.703125 20.515625 
Q 16.703125 13.921875 20.71875 10.15625 
Q 24.75 6.390625 31.78125 6.390625 
Q 38.8125 6.390625 42.859375 10.171875 
Q 46.921875 13.96875 46.921875 20.515625 
Q 46.921875 27.09375 42.890625 30.859375 
Q 38.875 34.625 31.78125 34.625 
z
M 21.921875 38.8125 
Q 15.578125 40.375 12.03125 44.71875 
Q 8.5 49.078125 8.5 55.328125 
Q 8.5 64.0625 14.71875 69.140625 
Q 20.953125 74.21875 31.78125 74.21875 
Q 42.671875 74.21875 48.875 69.140625 
Q 55.078125 64.0625 55.078125 55.328125 
Q 55.078125 49.078125 51.53125 44.71875 
Q 48 40.375 41.703125 38.8125 
Q 48.828125 37.15625 52.796875 32.3125 
Q 56.78125 27.484375 56.78125 20.515625 
Q 56.78125 9.90625 50.3125 4.234375 
Q 43.84375 -1.421875 31.78125 -1.421875 
Q 19.734375 -1.421875 13.25 4.234375 
Q 6.78125 9.90625 6.78125 20.515625 
Q 6.78125 27.484375 10.78125 32.3125 
Q 14.796875 37.15625 21.921875 38.8125 
z
M 18.3125 54.390625 
Q 18.3125 48.734375 21.84375 45.5625 
Q 25.390625 42.390625 31.78125 42.390625 
Q 38.140625 42.390625 41.71875 45.5625 
Q 45.3125 48.734375 45.3125 54.390625 
Q 45.3125 60.0625 41.71875 63.234375 
Q 38.140625 66.40625 31.78125 66.40625 
Q 25.390625 66.40625 21.84375 63.234375 
Q 18.3125 60.0625 18.3125 54.390625 
z
" id="DejaVuSans-56"/>
      </defs>
      <g transform="translate(10.736875 171.316354)scale(0.1 -0.1)">
       <use xlink:href="#DejaVuSans-48"/>
       <use x="63.623047" xlink:href="#DejaVuSans-46"/>
       <use x="95.410156" xlink:href="#DejaVuSans-56"/>
      </g>
     </g>
    </g>
    <g id="ytick_4">
     <g id="line2d_9">
      <g>
       <use style="stroke:#000000;stroke-width:0.8;" x="33.64" xlink:href="#m59b7d4dfac" y="111.055454"/>
      </g>
     </g>
     <g id="text_10">
      <!-- 1.0 -->
      <g transform="translate(10.736875 114.854673)scale(0.1 -0.1)">
       <use xlink:href="#DejaVuSans-49"/>
       <use x="63.623047" xlink:href="#DejaVuSans-46"/>
       <use x="95.410156" xlink:href="#DejaVuSans-48"/>
      </g>
     </g>
    </g>
    <g id="ytick_5">
     <g id="line2d_10">
      <g>
       <use style="stroke:#000000;stroke-width:0.8;" x="33.64" xlink:href="#m59b7d4dfac" y="54.593773"/>
      </g>
     </g>
     <g id="text_11">
      <!-- 1.2 -->
      <g transform="translate(10.736875 58.392992)scale(0.1 -0.1)">
       <use xlink:href="#DejaVuSans-49"/>
       <use x="63.623047" xlink:href="#DejaVuSans-46"/>
       <use x="95.410156" xlink:href="#DejaVuSans-50"/>
      </g>
     </g>
    </g>
    <g id="text_12">
     <!-- PROP SYMM AH PB -->
     <defs>
      <path d="M 19.671875 64.796875 
L 19.671875 37.40625 
L 32.078125 37.40625 
Q 38.96875 37.40625 42.71875 40.96875 
Q 46.484375 44.53125 46.484375 51.125 
Q 46.484375 57.671875 42.71875 61.234375 
Q 38.96875 64.796875 32.078125 64.796875 
z
M 9.8125 72.90625 
L 32.078125 72.90625 
Q 44.34375 72.90625 50.609375 67.359375 
Q 56.890625 61.8125 56.890625 51.125 
Q 56.890625 40.328125 50.609375 34.8125 
Q 44.34375 29.296875 32.078125 29.296875 
L 19.671875 29.296875 
L 19.671875 0 
L 9.8125 0 
z
" id="DejaVuSans-80"/>
      <path d="M 44.390625 34.1875 
Q 47.5625 33.109375 50.5625 29.59375 
Q 53.5625 26.078125 56.59375 19.921875 
L 66.609375 0 
L 56 0 
L 46.6875 18.703125 
Q 43.0625 26.03125 39.671875 28.421875 
Q 36.28125 30.8125 30.421875 30.8125 
L 19.671875 30.8125 
L 19.671875 0 
L 9.8125 0 
L 9.8125 72.90625 
L 32.078125 72.90625 
Q 44.578125 72.90625 50.734375 67.671875 
Q 56.890625 62.453125 56.890625 51.90625 
Q 56.890625 45.015625 53.6875 40.46875 
Q 50.484375 35.9375 44.390625 34.1875 
z
M 19.671875 64.796875 
L 19.671875 38.921875 
L 32.078125 38.921875 
Q 39.203125 38.921875 42.84375 42.21875 
Q 46.484375 45.515625 46.484375 51.90625 
Q 46.484375 58.296875 42.84375 61.546875 
Q 39.203125 64.796875 32.078125 64.796875 
z
" id="DejaVuSans-82"/>
      <path d="M 39.40625 66.21875 
Q 28.65625 66.21875 22.328125 58.203125 
Q 16.015625 50.203125 16.015625 36.375 
Q 16.015625 22.609375 22.328125 14.59375 
Q 28.65625 6.59375 39.40625 6.59375 
Q 50.140625 6.59375 56.421875 14.59375 
Q 62.703125 22.609375 62.703125 36.375 
Q 62.703125 50.203125 56.421875 58.203125 
Q 50.140625 66.21875 39.40625 66.21875 
z
M 39.40625 74.21875 
Q 54.734375 74.21875 63.90625 63.9375 
Q 73.09375 53.65625 73.09375 36.375 
Q 73.09375 19.140625 63.90625 8.859375 
Q 54.734375 -1.421875 39.40625 -1.421875 
Q 24.03125 -1.421875 14.8125 8.828125 
Q 5.609375 19.09375 5.609375 36.375 
Q 5.609375 53.65625 14.8125 63.9375 
Q 24.03125 74.21875 39.40625 74.21875 
z
" id="DejaVuSans-79"/>
      <path d="M 53.515625 70.515625 
L 53.515625 60.890625 
Q 47.90625 63.578125 42.921875 64.890625 
Q 37.9375 66.21875 33.296875 66.21875 
Q 25.25 66.21875 20.875 63.09375 
Q 16.5 59.96875 16.5 54.203125 
Q 16.5 49.359375 19.40625 46.890625 
Q 22.3125 44.4375 30.421875 42.921875 
L 36.375 41.703125 
Q 47.40625 39.59375 52.65625 34.296875 
Q 57.90625 29 57.90625 20.125 
Q 57.90625 9.515625 50.796875 4.046875 
Q 43.703125 -1.421875 29.984375 -1.421875 
Q 24.8125 -1.421875 18.96875 -0.25 
Q 13.140625 0.921875 6.890625 3.21875 
L 6.890625 13.375 
Q 12.890625 10.015625 18.65625 8.296875 
Q 24.421875 6.59375 29.984375 6.59375 
Q 38.421875 6.59375 43.015625 9.90625 
Q 47.609375 13.234375 47.609375 19.390625 
Q 47.609375 24.75 44.3125 27.78125 
Q 41.015625 30.8125 33.5 32.328125 
L 27.484375 33.5 
Q 16.453125 35.6875 11.515625 40.375 
Q 6.59375 45.0625 6.59375 53.421875 
Q 6.59375 63.09375 13.40625 68.65625 
Q 20.21875 74.21875 32.171875 74.21875 
Q 37.3125 74.21875 42.625 73.28125 
Q 47.953125 72.359375 53.515625 70.515625 
z
" id="DejaVuSans-83"/>
      <path d="M -0.203125 72.90625 
L 10.40625 72.90625 
L 30.609375 42.921875 
L 50.6875 72.90625 
L 61.28125 72.90625 
L 35.5 34.71875 
L 35.5 0 
L 25.59375 0 
L 25.59375 34.71875 
z
" id="DejaVuSans-89"/>
      <path d="M 9.8125 72.90625 
L 24.515625 72.90625 
L 43.109375 23.296875 
L 61.8125 72.90625 
L 76.515625 72.90625 
L 76.515625 0 
L 66.890625 0 
L 66.890625 64.015625 
L 48.09375 14.015625 
L 38.1875 14.015625 
L 19.390625 64.015625 
L 19.390625 0 
L 9.8125 0 
z
" id="DejaVuSans-77"/>
     </defs>
     <g transform="translate(4.657187 219.409063)rotate(-90)scale(0.1 -0.1)">
      <use xlink:href="#DejaVuSans-80"/>
      <use x="60.302734" xlink:href="#DejaVuSans-82"/>
      <use x="129.785156" xlink:href="#DejaVuSans-79"/>
      <use x="208.496094" xlink:href="#DejaVuSans-80"/>
      <use x="268.798828" xlink:href="#DejaVuSans-32"/>
      <use x="300.585938" xlink:href="#DejaVuSans-83"/>
      <use x="364.0625" xlink:href="#DejaVuSans-89"/>
      <use x="425.146484" xlink:href="#DejaVuSans-77"/>
      <use x="511.425781" xlink:href="#DejaVuSans-77"/>
      <use x="597.705078" xlink:href="#DejaVuSans-32"/>
      <use x="629.492188" xlink:href="#DejaVuSans-65"/>
      <use x="697.900391" xlink:href="#DejaVuSans-72"/>
      <use x="773.095703" xlink:href="#DejaVuSans-32"/>
      <use x="804.882812" xlink:href="#DejaVuSans-80"/>
      <use x="865.185547" xlink:href="#DejaVuSans-66"/>
     </g>
    </g>
   </g>
   <g id="line2d_11">
    <path clip-path="url(#pe57a28126d)" d="M 50.034284 169.435595 
L 52.865107 172.061808 
L 55.695929 174.629743 
L 58.526752 177.1394 
L 61.357574 179.590779 
L 64.188397 181.98388 
L 67.019219 184.318702 
L 69.850042 186.595246 
L 72.680864 188.813512 
L 75.511687 190.9735 
L 78.34251 193.07521 
L 81.173332 195.118641 
L 84.004155 197.103794 
L 86.834977 199.030669 
L 89.6658 200.899266 
L 92.496622 202.709585 
L 95.327445 204.461625 
L 98.158267 206.155387 
L 100.98909 207.790871 
L 103.819912 209.368077 
L 106.650735 210.887005 
L 109.481558 212.347654 
L 112.31238 213.750025 
L 115.143203 215.094118 
L 117.974025 216.379933 
L 120.804848 217.60747 
L 123.63567 218.776728 
L 126.466493 219.887709 
L 129.297315 220.940411 
L 132.128138 221.934835 
L 134.95896 222.87098 
L 137.789783 223.748848 
L 140.620605 224.568437 
L 143.451428 225.329748 
L 146.282251 226.032781 
L 149.113073 226.677536 
L 151.943896 227.264013 
L 154.774718 227.792211 
L 157.605541 228.262131 
L 160.436363 228.673773 
L 163.267186 229.027137 
L 166.098008 229.322222 
L 168.928831 229.55903 
L 171.759653 229.737559 
L 174.590476 229.85781 
L 177.421299 229.919783 
L 180.252121 229.923477 
L 183.082944 229.868893 
L 185.913766 229.756032 
L 188.744589 229.584892 
L 191.575411 229.355474 
L 194.406234 229.067777 
L 197.237056 228.721803 
L 200.067879 228.31755 
L 202.898701 227.855019 
L 205.729524 227.33421 
L 208.560347 226.755122 
L 211.391169 226.117757 
L 214.221992 225.422113 
L 217.052814 224.668191 
L 219.883637 223.855991 
L 222.714459 222.985513 
L 225.545282 222.056756 
L 228.376104 221.069721 
L 231.206927 220.024408 
L 234.037749 218.920817 
L 236.868572 217.758948 
L 239.699395 216.538801 
L 242.530217 215.260375 
L 245.36104 213.923671 
L 248.191862 212.528689 
L 251.022685 211.075429 
L 253.853507 209.56389 
L 256.68433 207.994073 
L 259.515152 206.365979 
L 262.345975 204.679606 
L 265.176797 202.934954 
L 268.00762 201.132025 
L 270.838442 199.270817 
L 273.669265 197.351331 
L 276.500088 195.373567 
L 279.33091 193.337525 
L 282.161733 191.243205 
L 284.992555 189.090606 
L 287.823378 186.879729 
L 290.6542 184.610574 
L 293.485023 182.283141 
L 296.315845 179.89743 
L 299.146668 177.45344 
L 301.97749 174.951172 
L 304.808313 172.390626 
L 307.639136 169.771802 
L 310.469958 167.0947 
L 313.300781 164.359319 
L 316.131603 161.565661 
L 318.962426 158.713724 
L 321.793248 155.803509 
L 324.624071 152.835015 
L 327.454893 149.808244 
L 330.285716 146.723194 
" style="fill:none;stroke:#1f77b4;stroke-linecap:square;stroke-width:2.25;"/>
   </g>
   <g id="patch_3">
    <path d="M 33.64 332.12 
L 33.64 13.32 
" style="fill:none;stroke:#000000;stroke-linecap:square;stroke-linejoin:miter;stroke-width:0.8;"/>
   </g>
   <g id="patch_4">
    <path d="M 33.64 332.12 
L 346.68 332.12 
" style="fill:none;stroke:#000000;stroke-linecap:square;stroke-linejoin:miter;stroke-width:0.8;"/>
   </g>
  </g>
 </g>
 <defs>
  <clipPath id="pe57a28126d">
   <rect height="318.8" width="313.04" x="33.64" y="13.32"/>
  </clipPath>
 </defs>
</svg>
