<?xml version="1.0" encoding="utf-8" standalone="no"?>
<!DOCTYPE svg PUBLIC "-//W3C//DTD SVG 1.1//EN"
  "http://www.w3.org/Graphics/SVG/1.1/DTD/svg11.dtd">
<!-- Created with matplotlib (https://matplotlib.org/) -->
<svg height="360pt" version="1.1" viewBox="0 0 360 360" width="360pt" xmlns="http://www.w3.org/2000/svg" xmlns:xlink="http://www.w3.org/1999/xlink">
 <defs>
  <style type="text/css">
*{stroke-linecap:butt;stroke-linejoin:round;}
  </style>
 </defs>
 <g id="figure_1">
  <g id="patch_1">
   <path d="M 0 360 
L 360 360 
L 360 0 
L 0 0 
z
" style="fill:#ffffff;"/>
  </g>
  <g id="axes_1">
   <g id="patch_2">
    <path d="M 33.64 332.12 
L 346.68 332.12 
L 346.68 13.32 
L 33.64 13.32 
z
" style="fill:#ffffff;"/>
   </g>
   <g id="PathCollection_1">
    <defs>
     <path d="M 0 3 
C 0.795609 3 1.55874 2.683901 2.12132 2.12132 
C 2.683901 1.55874 3 0.795609 3 0 
C 3 -0.795609 2.683901 -1.55874 2.12132 -2.12132 
C 1.55874 -2.683901 0.795609 -3 0 -3 
C -0.795609 -3 -1.55874 -2.683901 -2.12132 -2.12132 
C -2.683901 -1.55874 -3 -0.795609 -3 0 
C -3 0.795609 -2.683901 1.55874 -2.12132 2.12132 
C -1.55874 2.683901 -0.795609 3 0 3 
z
" id="m25dc4e6191" style="stroke:#1f77b4;stroke-opacity:0.8;"/>
    </defs>
    <g clip-path="url(#p8dc24852fb)">
     <use style="fill:#1f77b4;fill-opacity:0.8;stroke:#1f77b4;stroke-opacity:0.8;" x="110.961783" xlink:href="#m25dc4e6191" y="222.777676"/>
     <use style="fill:#1f77b4;fill-opacity:0.8;stroke:#1f77b4;stroke-opacity:0.8;" x="232.805194" xlink:href="#m25dc4e6191" y="218.920481"/>
     <use style="fill:#1f77b4;fill-opacity:0.8;stroke:#1f77b4;stroke-opacity:0.8;" x="269.358217" xlink:href="#m25dc4e6191" y="158.876804"/>
     <use style="fill:#1f77b4;fill-opacity:0.8;stroke:#1f77b4;stroke-opacity:0.8;" x="62.224419" xlink:href="#m25dc4e6191" y="213.81729"/>
     <use style="fill:#1f77b4;fill-opacity:0.8;stroke:#1f77b4;stroke-opacity:0.8;" x="123.146124" xlink:href="#m25dc4e6191" y="279.391027"/>
     <use style="fill:#1f77b4;fill-opacity:0.8;stroke:#1f77b4;stroke-opacity:0.8;" x="330.279922" xlink:href="#m25dc4e6191" y="168.411042"/>
     <use style="fill:#1f77b4;fill-opacity:0.8;stroke:#1f77b4;stroke-opacity:0.8;" x="135.330465" xlink:href="#m25dc4e6191" y="209.32169"/>
     <use style="fill:#1f77b4;fill-opacity:0.8;stroke:#1f77b4;stroke-opacity:0.8;" x="135.330465" xlink:href="#m25dc4e6191" y="217.696382"/>
     <use style="fill:#1f77b4;fill-opacity:0.8;stroke:#1f77b4;stroke-opacity:0.8;" x="208.436512" xlink:href="#m25dc4e6191" y="226.357654"/>
     <use style="fill:#1f77b4;fill-opacity:0.8;stroke:#1f77b4;stroke-opacity:0.8;" x="86.593101" xlink:href="#m25dc4e6191" y="281.003579"/>
     <use style="fill:#1f77b4;fill-opacity:0.8;stroke:#1f77b4;stroke-opacity:0.8;" x="50.040078" xlink:href="#m25dc4e6191" y="217.696382"/>
     <use style="fill:#1f77b4;fill-opacity:0.8;stroke:#1f77b4;stroke-opacity:0.8;" x="62.224419" xlink:href="#m25dc4e6191" y="217.696382"/>
     <use style="fill:#1f77b4;fill-opacity:0.8;stroke:#1f77b4;stroke-opacity:0.8;" x="147.514806" xlink:href="#m25dc4e6191" y="155.840965"/>
     <use style="fill:#1f77b4;fill-opacity:0.8;stroke:#1f77b4;stroke-opacity:0.8;" x="147.514806" xlink:href="#m25dc4e6191" y="133.502989"/>
     <use style="fill:#1f77b4;fill-opacity:0.8;stroke:#1f77b4;stroke-opacity:0.8;" x="123.146124" xlink:href="#m25dc4e6191" y="249.483285"/>
     <use style="fill:#1f77b4;fill-opacity:0.8;stroke:#1f77b4;stroke-opacity:0.8;" x="132.28438" xlink:href="#m25dc4e6191" y="261.078423"/>
     <use style="fill:#1f77b4;fill-opacity:0.8;stroke:#1f77b4;stroke-opacity:0.8;" x="238.897364" xlink:href="#m25dc4e6191" y="131.602772"/>
    </g>
   </g>
   <g id="PolyCollection_1">
    <path clip-path="url(#p8dc24852fb)" d="M 50.040078 214.123137 
L 50.040078 317.629091 
L 52.870784 313.848752 
L 55.701489 309.737176 
L 58.532195 305.68164 
L 61.3629 301.682145 
L 64.193606 297.73619 
L 67.024311 293.834733 
L 69.855017 290.44672 
L 72.685722 287.271524 
L 75.516428 284.139344 
L 78.347133 280.949298 
L 81.177839 278.043651 
L 84.008544 274.548096 
L 86.83925 272.470919 
L 89.669955 269.906839 
L 92.500661 266.463683 
L 95.331366 263.609847 
L 98.162071 260.827926 
L 100.992777 257.831918 
L 103.823482 255.42801 
L 106.654188 254.066946 
L 109.484893 251.459827 
L 112.315599 249.483305 
L 115.146304 248.131136 
L 117.97701 248.061162 
L 120.807715 247.995287 
L 123.638421 246.99892 
L 126.469126 246.415158 
L 129.299832 245.690495 
L 132.130537 245.13016 
L 134.961243 245.136253 
L 137.791948 244.660415 
L 140.622654 244.270973 
L 143.453359 243.8484 
L 146.284065 243.495993 
L 149.11477 243.093744 
L 151.945476 242.658003 
L 154.776181 242.177359 
L 157.606887 241.677306 
L 160.437592 241.077245 
L 163.268298 240.467981 
L 166.099003 239.815302 
L 168.929709 239.04061 
L 171.760414 237.816663 
L 174.59112 236.771625 
L 177.421825 236.475944 
L 180.252531 235.871307 
L 183.083236 234.595771 
L 185.913942 233.777358 
L 188.744647 232.988385 
L 191.575353 231.948287 
L 194.406058 230.854564 
L 197.236764 229.726734 
L 200.067469 228.920695 
L 202.898175 227.914478 
L 205.72888 227.218768 
L 208.559586 226.003203 
L 211.390291 224.761042 
L 214.220997 223.654354 
L 217.051702 222.194484 
L 219.882408 221.158565 
L 222.713113 220.059969 
L 225.543819 218.884535 
L 228.374524 218.217157 
L 231.20523 217.542157 
L 234.035935 216.572324 
L 236.866641 216.732158 
L 239.697346 216.122348 
L 242.528052 215.403868 
L 245.358757 214.286998 
L 248.189463 213.771984 
L 251.020168 212.598851 
L 253.850874 211.456801 
L 256.681579 211.570809 
L 259.512285 210.233592 
L 262.34299 209.163415 
L 265.173696 207.888313 
L 268.004401 206.666212 
L 270.835107 205.604924 
L 273.665812 204.028908 
L 276.496518 202.940388 
L 279.327223 203.925027 
L 282.157929 203.68426 
L 284.988634 202.617189 
L 287.819339 202.518159 
L 290.650045 202.994551 
L 293.48075 203.487303 
L 296.311456 204.097946 
L 299.142161 205.90196 
L 301.972867 207.076158 
L 304.803572 209.505333 
L 307.634278 212.606188 
L 310.464983 216.818288 
L 313.295689 221.012418 
L 316.126394 221.156361 
L 318.9571 222.473933 
L 321.787805 223.904222 
L 324.618511 224.225473 
L 327.449216 224.553699 
L 330.279922 224.860594 
L 330.279922 27.810909 
L 330.279922 27.810909 
L 327.449216 32.378192 
L 324.618511 36.975874 
L 321.787805 43.100856 
L 318.9571 47.983738 
L 316.126394 53.359441 
L 313.295689 58.428955 
L 310.464983 62.095674 
L 307.634278 67.225387 
L 304.803572 72.288414 
L 301.972867 76.938435 
L 299.142161 81.28019 
L 296.311456 85.562249 
L 293.48075 89.380648 
L 290.650045 92.90182 
L 287.819339 97.043751 
L 284.988634 101.505891 
L 282.157929 104.27803 
L 279.327223 108.999315 
L 276.496518 112.551151 
L 273.665812 116.078828 
L 270.835107 120.246194 
L 268.004401 124.752755 
L 265.173696 127.955998 
L 262.34299 130.728448 
L 259.512285 133.208867 
L 256.681579 135.483118 
L 253.850874 136.659258 
L 251.020168 138.7526 
L 248.189463 140.782223 
L 245.358757 142.835794 
L 242.528052 144.902114 
L 239.697346 147.771349 
L 236.866641 148.969076 
L 234.035935 150.104194 
L 231.20523 150.140604 
L 228.374524 152.589165 
L 225.543819 153.260643 
L 222.713113 155.085685 
L 219.882408 154.760062 
L 217.051702 155.105239 
L 214.220997 155.958253 
L 211.390291 156.813785 
L 208.559586 158.551085 
L 205.72888 159.399038 
L 202.898175 160.239608 
L 200.067469 161.144763 
L 197.236764 162.097152 
L 194.406058 163.094979 
L 191.575353 164.140039 
L 188.744647 165.034547 
L 185.913942 166.189116 
L 183.083236 167.483899 
L 180.252531 168.825635 
L 177.421825 169.848141 
L 174.59112 171.156323 
L 171.760414 172.040871 
L 168.929709 173.004958 
L 166.099003 174.902246 
L 163.268298 175.762931 
L 160.437592 176.515189 
L 157.606887 177.288735 
L 154.776181 179.00162 
L 151.945476 181.581902 
L 149.11477 182.440387 
L 146.284065 183.485104 
L 143.453359 184.487622 
L 140.622654 186.953043 
L 137.791948 188.244911 
L 134.961243 189.647795 
L 132.130537 190.91995 
L 129.299832 191.882532 
L 126.469126 192.773679 
L 123.638421 193.624269 
L 120.807715 194.587684 
L 117.97701 195.905639 
L 115.146304 197.441274 
L 112.315599 199.13415 
L 109.484893 200.390119 
L 106.654188 201.255588 
L 103.823482 202.360501 
L 100.992777 203.760118 
L 98.162071 204.507249 
L 95.331366 205.45409 
L 92.500661 206.98197 
L 89.669955 208.502948 
L 86.83925 209.411123 
L 84.008544 210.03446 
L 81.177839 211.310895 
L 78.347133 212.075237 
L 75.516428 213.077 
L 72.685722 213.808149 
L 69.855017 214.367188 
L 67.024311 215.235971 
L 64.193606 215.849526 
L 61.3629 215.819029 
L 58.532195 215.690268 
L 55.701489 215.660816 
L 52.870784 215.115811 
L 50.040078 214.123137 
z
" style="fill:#1f77b4;fill-opacity:0.15;"/>
   </g>
   <g id="matplotlib.axis_1">
    <g id="xtick_1">
     <g id="line2d_1">
      <defs>
       <path d="M 0 0 
L 0 3.5 
" id="md7862c02c9" style="stroke:#000000;stroke-width:0.8;"/>
      </defs>
      <g>
       <use style="stroke:#000000;stroke-width:0.8;" x="86.593101" xlink:href="#md7862c02c9" y="332.12"/>
      </g>
     </g>
     <g id="text_1">
      <!-- 2 -->
      <defs>
       <path d="M 19.1875 8.296875 
L 53.609375 8.296875 
L 53.609375 0 
L 7.328125 0 
L 7.328125 8.296875 
Q 12.9375 14.109375 22.625 23.890625 
Q 32.328125 33.6875 34.8125 36.53125 
Q 39.546875 41.84375 41.421875 45.53125 
Q 43.3125 49.21875 43.3125 52.78125 
Q 43.3125 58.59375 39.234375 62.25 
Q 35.15625 65.921875 28.609375 65.921875 
Q 23.96875 65.921875 18.8125 64.3125 
Q 13.671875 62.703125 7.8125 59.421875 
L 7.8125 69.390625 
Q 13.765625 71.78125 18.9375 73 
Q 24.125 74.21875 28.421875 74.21875 
Q 39.75 74.21875 46.484375 68.546875 
Q 53.21875 62.890625 53.21875 53.421875 
Q 53.21875 48.921875 51.53125 44.890625 
Q 49.859375 40.875 45.40625 35.40625 
Q 44.1875 33.984375 37.640625 27.21875 
Q 31.109375 20.453125 19.1875 8.296875 
z
" id="DejaVuSans-50"/>
      </defs>
      <g transform="translate(83.411851 346.718437)scale(0.1 -0.1)">
       <use xlink:href="#DejaVuSans-50"/>
      </g>
     </g>
    </g>
    <g id="xtick_2">
     <g id="line2d_2">
      <g>
       <use style="stroke:#000000;stroke-width:0.8;" x="147.514806" xlink:href="#md7862c02c9" y="332.12"/>
      </g>
     </g>
     <g id="text_2">
      <!-- 3 -->
      <defs>
       <path d="M 40.578125 39.3125 
Q 47.65625 37.796875 51.625 33 
Q 55.609375 28.21875 55.609375 21.1875 
Q 55.609375 10.40625 48.1875 4.484375 
Q 40.765625 -1.421875 27.09375 -1.421875 
Q 22.515625 -1.421875 17.65625 -0.515625 
Q 12.796875 0.390625 7.625 2.203125 
L 7.625 11.71875 
Q 11.71875 9.328125 16.59375 8.109375 
Q 21.484375 6.890625 26.8125 6.890625 
Q 36.078125 6.890625 40.9375 10.546875 
Q 45.796875 14.203125 45.796875 21.1875 
Q 45.796875 27.640625 41.28125 31.265625 
Q 36.765625 34.90625 28.71875 34.90625 
L 20.21875 34.90625 
L 20.21875 43.015625 
L 29.109375 43.015625 
Q 36.375 43.015625 40.234375 45.921875 
Q 44.09375 48.828125 44.09375 54.296875 
Q 44.09375 59.90625 40.109375 62.90625 
Q 36.140625 65.921875 28.71875 65.921875 
Q 24.65625 65.921875 20.015625 65.03125 
Q 15.375 64.15625 9.8125 62.3125 
L 9.8125 71.09375 
Q 15.4375 72.65625 20.34375 73.4375 
Q 25.25 74.21875 29.59375 74.21875 
Q 40.828125 74.21875 47.359375 69.109375 
Q 53.90625 64.015625 53.90625 55.328125 
Q 53.90625 49.265625 50.4375 45.09375 
Q 46.96875 40.921875 40.578125 39.3125 
z
" id="DejaVuSans-51"/>
      </defs>
      <g transform="translate(144.333556 346.718437)scale(0.1 -0.1)">
       <use xlink:href="#DejaVuSans-51"/>
      </g>
     </g>
    </g>
    <g id="xtick_3">
     <g id="line2d_3">
      <g>
       <use style="stroke:#000000;stroke-width:0.8;" x="208.436512" xlink:href="#md7862c02c9" y="332.12"/>
      </g>
     </g>
     <g id="text_3">
      <!-- 4 -->
      <defs>
       <path d="M 37.796875 64.3125 
L 12.890625 25.390625 
L 37.796875 25.390625 
z
M 35.203125 72.90625 
L 47.609375 72.90625 
L 47.609375 25.390625 
L 58.015625 25.390625 
L 58.015625 17.1875 
L 47.609375 17.1875 
L 47.609375 0 
L 37.796875 0 
L 37.796875 17.1875 
L 4.890625 17.1875 
L 4.890625 26.703125 
z
" id="DejaVuSans-52"/>
      </defs>
      <g transform="translate(205.255262 346.718437)scale(0.1 -0.1)">
       <use xlink:href="#DejaVuSans-52"/>
      </g>
     </g>
    </g>
    <g id="xtick_4">
     <g id="line2d_4">
      <g>
       <use style="stroke:#000000;stroke-width:0.8;" x="269.358217" xlink:href="#md7862c02c9" y="332.12"/>
      </g>
     </g>
     <g id="text_4">
      <!-- 5 -->
      <defs>
       <path d="M 10.796875 72.90625 
L 49.515625 72.90625 
L 49.515625 64.59375 
L 19.828125 64.59375 
L 19.828125 46.734375 
Q 21.96875 47.46875 24.109375 47.828125 
Q 26.265625 48.1875 28.421875 48.1875 
Q 40.625 48.1875 47.75 41.5 
Q 54.890625 34.8125 54.890625 23.390625 
Q 54.890625 11.625 47.5625 5.09375 
Q 40.234375 -1.421875 26.90625 -1.421875 
Q 22.3125 -1.421875 17.546875 -0.640625 
Q 12.796875 0.140625 7.71875 1.703125 
L 7.71875 11.625 
Q 12.109375 9.234375 16.796875 8.0625 
Q 21.484375 6.890625 26.703125 6.890625 
Q 35.15625 6.890625 40.078125 11.328125 
Q 45.015625 15.765625 45.015625 23.390625 
Q 45.015625 31 40.078125 35.4375 
Q 35.15625 39.890625 26.703125 39.890625 
Q 22.75 39.890625 18.8125 39.015625 
Q 14.890625 38.140625 10.796875 36.28125 
z
" id="DejaVuSans-53"/>
      </defs>
      <g transform="translate(266.176967 346.718437)scale(0.1 -0.1)">
       <use xlink:href="#DejaVuSans-53"/>
      </g>
     </g>
    </g>
    <g id="xtick_5">
     <g id="line2d_5">
      <g>
       <use style="stroke:#000000;stroke-width:0.8;" x="330.279922" xlink:href="#md7862c02c9" y="332.12"/>
      </g>
     </g>
     <g id="text_5">
      <!-- 6 -->
      <defs>
       <path d="M 33.015625 40.375 
Q 26.375 40.375 22.484375 35.828125 
Q 18.609375 31.296875 18.609375 23.390625 
Q 18.609375 15.53125 22.484375 10.953125 
Q 26.375 6.390625 33.015625 6.390625 
Q 39.65625 6.390625 43.53125 10.953125 
Q 47.40625 15.53125 47.40625 23.390625 
Q 47.40625 31.296875 43.53125 35.828125 
Q 39.65625 40.375 33.015625 40.375 
z
M 52.59375 71.296875 
L 52.59375 62.3125 
Q 48.875 64.0625 45.09375 64.984375 
Q 41.3125 65.921875 37.59375 65.921875 
Q 27.828125 65.921875 22.671875 59.328125 
Q 17.53125 52.734375 16.796875 39.40625 
Q 19.671875 43.65625 24.015625 45.921875 
Q 28.375 48.1875 33.59375 48.1875 
Q 44.578125 48.1875 50.953125 41.515625 
Q 57.328125 34.859375 57.328125 23.390625 
Q 57.328125 12.15625 50.6875 5.359375 
Q 44.046875 -1.421875 33.015625 -1.421875 
Q 20.359375 -1.421875 13.671875 8.265625 
Q 6.984375 17.96875 6.984375 36.375 
Q 6.984375 53.65625 15.1875 63.9375 
Q 23.390625 74.21875 37.203125 74.21875 
Q 40.921875 74.21875 44.703125 73.484375 
Q 48.484375 72.75 52.59375 71.296875 
z
" id="DejaVuSans-54"/>
      </defs>
      <g transform="translate(327.098672 346.718437)scale(0.1 -0.1)">
       <use xlink:href="#DejaVuSans-54"/>
      </g>
     </g>
    </g>
    <g id="text_6">
     <!-- COPM -->
     <defs>
      <path d="M 64.40625 67.28125 
L 64.40625 56.890625 
Q 59.421875 61.53125 53.78125 63.8125 
Q 48.140625 66.109375 41.796875 66.109375 
Q 29.296875 66.109375 22.65625 58.46875 
Q 16.015625 50.828125 16.015625 36.375 
Q 16.015625 21.96875 22.65625 14.328125 
Q 29.296875 6.6875 41.796875 6.6875 
Q 48.140625 6.6875 53.78125 8.984375 
Q 59.421875 11.28125 64.40625 15.921875 
L 64.40625 5.609375 
Q 59.234375 2.09375 53.4375 0.328125 
Q 47.65625 -1.421875 41.21875 -1.421875 
Q 24.65625 -1.421875 15.125 8.703125 
Q 5.609375 18.84375 5.609375 36.375 
Q 5.609375 53.953125 15.125 64.078125 
Q 24.65625 74.21875 41.21875 74.21875 
Q 47.75 74.21875 53.53125 72.484375 
Q 59.328125 70.75 64.40625 67.28125 
z
" id="DejaVuSans-67"/>
      <path d="M 39.40625 66.21875 
Q 28.65625 66.21875 22.328125 58.203125 
Q 16.015625 50.203125 16.015625 36.375 
Q 16.015625 22.609375 22.328125 14.59375 
Q 28.65625 6.59375 39.40625 6.59375 
Q 50.140625 6.59375 56.421875 14.59375 
Q 62.703125 22.609375 62.703125 36.375 
Q 62.703125 50.203125 56.421875 58.203125 
Q 50.140625 66.21875 39.40625 66.21875 
z
M 39.40625 74.21875 
Q 54.734375 74.21875 63.90625 63.9375 
Q 73.09375 53.65625 73.09375 36.375 
Q 73.09375 19.140625 63.90625 8.859375 
Q 54.734375 -1.421875 39.40625 -1.421875 
Q 24.03125 -1.421875 14.8125 8.828125 
Q 5.609375 19.09375 5.609375 36.375 
Q 5.609375 53.65625 14.8125 63.9375 
Q 24.03125 74.21875 39.40625 74.21875 
z
" id="DejaVuSans-79"/>
      <path d="M 19.671875 64.796875 
L 19.671875 37.40625 
L 32.078125 37.40625 
Q 38.96875 37.40625 42.71875 40.96875 
Q 46.484375 44.53125 46.484375 51.125 
Q 46.484375 57.671875 42.71875 61.234375 
Q 38.96875 64.796875 32.078125 64.796875 
z
M 9.8125 72.90625 
L 32.078125 72.90625 
Q 44.34375 72.90625 50.609375 67.359375 
Q 56.890625 61.8125 56.890625 51.125 
Q 56.890625 40.328125 50.609375 34.8125 
Q 44.34375 29.296875 32.078125 29.296875 
L 19.671875 29.296875 
L 19.671875 0 
L 9.8125 0 
z
" id="DejaVuSans-80"/>
      <path d="M 9.8125 72.90625 
L 24.515625 72.90625 
L 43.109375 23.296875 
L 61.8125 72.90625 
L 76.515625 72.90625 
L 76.515625 0 
L 66.890625 0 
L 66.890625 64.015625 
L 48.09375 14.015625 
L 38.1875 14.015625 
L 19.390625 64.015625 
L 19.390625 0 
L 9.8125 0 
z
" id="DejaVuSans-77"/>
     </defs>
     <g transform="translate(175.40375 360.396563)scale(0.1 -0.1)">
      <use xlink:href="#DejaVuSans-67"/>
      <use x="69.824219" xlink:href="#DejaVuSans-79"/>
      <use x="148.535156" xlink:href="#DejaVuSans-80"/>
      <use x="208.837891" xlink:href="#DejaVuSans-77"/>
     </g>
    </g>
   </g>
   <g id="matplotlib.axis_2">
    <g id="ytick_1">
     <g id="line2d_6">
      <defs>
       <path d="M 0 0 
L -3.5 0 
" id="m8e9dffe8fe" style="stroke:#000000;stroke-width:0.8;"/>
      </defs>
      <g>
       <use style="stroke:#000000;stroke-width:0.8;" x="33.64" xlink:href="#m8e9dffe8fe" y="293.780935"/>
      </g>
     </g>
     <g id="text_7">
      <!-- 0.2 -->
      <defs>
       <path d="M 31.78125 66.40625 
Q 24.171875 66.40625 20.328125 58.90625 
Q 16.5 51.421875 16.5 36.375 
Q 16.5 21.390625 20.328125 13.890625 
Q 24.171875 6.390625 31.78125 6.390625 
Q 39.453125 6.390625 43.28125 13.890625 
Q 47.125 21.390625 47.125 36.375 
Q 47.125 51.421875 43.28125 58.90625 
Q 39.453125 66.40625 31.78125 66.40625 
z
M 31.78125 74.21875 
Q 44.046875 74.21875 50.515625 64.515625 
Q 56.984375 54.828125 56.984375 36.375 
Q 56.984375 17.96875 50.515625 8.265625 
Q 44.046875 -1.421875 31.78125 -1.421875 
Q 19.53125 -1.421875 13.0625 8.265625 
Q 6.59375 17.96875 6.59375 36.375 
Q 6.59375 54.828125 13.0625 64.515625 
Q 19.53125 74.21875 31.78125 74.21875 
z
" id="DejaVuSans-48"/>
       <path d="M 10.6875 12.40625 
L 21 12.40625 
L 21 0 
L 10.6875 0 
z
" id="DejaVuSans-46"/>
      </defs>
      <g transform="translate(10.736875 297.580154)scale(0.1 -0.1)">
       <use xlink:href="#DejaVuSans-48"/>
       <use x="63.623047" xlink:href="#DejaVuSans-46"/>
       <use x="95.410156" xlink:href="#DejaVuSans-50"/>
      </g>
     </g>
    </g>
    <g id="ytick_2">
     <g id="line2d_7">
      <g>
       <use style="stroke:#000000;stroke-width:0.8;" x="33.64" xlink:href="#m8e9dffe8fe" y="244.893747"/>
      </g>
     </g>
     <g id="text_8">
      <!-- 0.4 -->
      <g transform="translate(10.736875 248.692965)scale(0.1 -0.1)">
       <use xlink:href="#DejaVuSans-48"/>
       <use x="63.623047" xlink:href="#DejaVuSans-46"/>
       <use x="95.410156" xlink:href="#DejaVuSans-52"/>
      </g>
     </g>
    </g>
    <g id="ytick_3">
     <g id="line2d_8">
      <g>
       <use style="stroke:#000000;stroke-width:0.8;" x="33.64" xlink:href="#m8e9dffe8fe" y="196.006558"/>
      </g>
     </g>
     <g id="text_9">
      <!-- 0.6 -->
      <g transform="translate(10.736875 199.805777)scale(0.1 -0.1)">
       <use xlink:href="#DejaVuSans-48"/>
       <use x="63.623047" xlink:href="#DejaVuSans-46"/>
       <use x="95.410156" xlink:href="#DejaVuSans-54"/>
      </g>
     </g>
    </g>
    <g id="ytick_4">
     <g id="line2d_9">
      <g>
       <use style="stroke:#000000;stroke-width:0.8;" x="33.64" xlink:href="#m8e9dffe8fe" y="147.11937"/>
      </g>
     </g>
     <g id="text_10">
      <!-- 0.8 -->
      <defs>
       <path d="M 31.78125 34.625 
Q 24.75 34.625 20.71875 30.859375 
Q 16.703125 27.09375 16.703125 20.515625 
Q 16.703125 13.921875 20.71875 10.15625 
Q 24.75 6.390625 31.78125 6.390625 
Q 38.8125 6.390625 42.859375 10.171875 
Q 46.921875 13.96875 46.921875 20.515625 
Q 46.921875 27.09375 42.890625 30.859375 
Q 38.875 34.625 31.78125 34.625 
z
M 21.921875 38.8125 
Q 15.578125 40.375 12.03125 44.71875 
Q 8.5 49.078125 8.5 55.328125 
Q 8.5 64.0625 14.71875 69.140625 
Q 20.953125 74.21875 31.78125 74.21875 
Q 42.671875 74.21875 48.875 69.140625 
Q 55.078125 64.0625 55.078125 55.328125 
Q 55.078125 49.078125 51.53125 44.71875 
Q 48 40.375 41.703125 38.8125 
Q 48.828125 37.15625 52.796875 32.3125 
Q 56.78125 27.484375 56.78125 20.515625 
Q 56.78125 9.90625 50.3125 4.234375 
Q 43.84375 -1.421875 31.78125 -1.421875 
Q 19.734375 -1.421875 13.25 4.234375 
Q 6.78125 9.90625 6.78125 20.515625 
Q 6.78125 27.484375 10.78125 32.3125 
Q 14.796875 37.15625 21.921875 38.8125 
z
M 18.3125 54.390625 
Q 18.3125 48.734375 21.84375 45.5625 
Q 25.390625 42.390625 31.78125 42.390625 
Q 38.140625 42.390625 41.71875 45.5625 
Q 45.3125 48.734375 45.3125 54.390625 
Q 45.3125 60.0625 41.71875 63.234375 
Q 38.140625 66.40625 31.78125 66.40625 
Q 25.390625 66.40625 21.84375 63.234375 
Q 18.3125 60.0625 18.3125 54.390625 
z
" id="DejaVuSans-56"/>
      </defs>
      <g transform="translate(10.736875 150.918588)scale(0.1 -0.1)">
       <use xlink:href="#DejaVuSans-48"/>
       <use x="63.623047" xlink:href="#DejaVuSans-46"/>
       <use x="95.410156" xlink:href="#DejaVuSans-56"/>
      </g>
     </g>
    </g>
    <g id="ytick_5">
     <g id="line2d_10">
      <g>
       <use style="stroke:#000000;stroke-width:0.8;" x="33.64" xlink:href="#m8e9dffe8fe" y="98.232181"/>
      </g>
     </g>
     <g id="text_11">
      <!-- 1.0 -->
      <defs>
       <path d="M 12.40625 8.296875 
L 28.515625 8.296875 
L 28.515625 63.921875 
L 10.984375 60.40625 
L 10.984375 69.390625 
L 28.421875 72.90625 
L 38.28125 72.90625 
L 38.28125 8.296875 
L 54.390625 8.296875 
L 54.390625 0 
L 12.40625 0 
z
" id="DejaVuSans-49"/>
      </defs>
      <g transform="translate(10.736875 102.0314)scale(0.1 -0.1)">
       <use xlink:href="#DejaVuSans-49"/>
       <use x="63.623047" xlink:href="#DejaVuSans-46"/>
       <use x="95.410156" xlink:href="#DejaVuSans-48"/>
      </g>
     </g>
    </g>
    <g id="ytick_6">
     <g id="line2d_11">
      <g>
       <use style="stroke:#000000;stroke-width:0.8;" x="33.64" xlink:href="#m8e9dffe8fe" y="49.344993"/>
      </g>
     </g>
     <g id="text_12">
      <!-- 1.2 -->
      <g transform="translate(10.736875 53.144212)scale(0.1 -0.1)">
       <use xlink:href="#DejaVuSans-49"/>
       <use x="63.623047" xlink:href="#DejaVuSans-46"/>
       <use x="95.410156" xlink:href="#DejaVuSans-50"/>
      </g>
     </g>
    </g>
    <g id="text_13">
     <!-- PROP SYMM LA MUS -->
     <defs>
      <path d="M 44.390625 34.1875 
Q 47.5625 33.109375 50.5625 29.59375 
Q 53.5625 26.078125 56.59375 19.921875 
L 66.609375 0 
L 56 0 
L 46.6875 18.703125 
Q 43.0625 26.03125 39.671875 28.421875 
Q 36.28125 30.8125 30.421875 30.8125 
L 19.671875 30.8125 
L 19.671875 0 
L 9.8125 0 
L 9.8125 72.90625 
L 32.078125 72.90625 
Q 44.578125 72.90625 50.734375 67.671875 
Q 56.890625 62.453125 56.890625 51.90625 
Q 56.890625 45.015625 53.6875 40.46875 
Q 50.484375 35.9375 44.390625 34.1875 
z
M 19.671875 64.796875 
L 19.671875 38.921875 
L 32.078125 38.921875 
Q 39.203125 38.921875 42.84375 42.21875 
Q 46.484375 45.515625 46.484375 51.90625 
Q 46.484375 58.296875 42.84375 61.546875 
Q 39.203125 64.796875 32.078125 64.796875 
z
" id="DejaVuSans-82"/>
      <path id="DejaVuSans-32"/>
      <path d="M 53.515625 70.515625 
L 53.515625 60.890625 
Q 47.90625 63.578125 42.921875 64.890625 
Q 37.9375 66.21875 33.296875 66.21875 
Q 25.25 66.21875 20.875 63.09375 
Q 16.5 59.96875 16.5 54.203125 
Q 16.5 49.359375 19.40625 46.890625 
Q 22.3125 44.4375 30.421875 42.921875 
L 36.375 41.703125 
Q 47.40625 39.59375 52.65625 34.296875 
Q 57.90625 29 57.90625 20.125 
Q 57.90625 9.515625 50.796875 4.046875 
Q 43.703125 -1.421875 29.984375 -1.421875 
Q 24.8125 -1.421875 18.96875 -0.25 
Q 13.140625 0.921875 6.890625 3.21875 
L 6.890625 13.375 
Q 12.890625 10.015625 18.65625 8.296875 
Q 24.421875 6.59375 29.984375 6.59375 
Q 38.421875 6.59375 43.015625 9.90625 
Q 47.609375 13.234375 47.609375 19.390625 
Q 47.609375 24.75 44.3125 27.78125 
Q 41.015625 30.8125 33.5 32.328125 
L 27.484375 33.5 
Q 16.453125 35.6875 11.515625 40.375 
Q 6.59375 45.0625 6.59375 53.421875 
Q 6.59375 63.09375 13.40625 68.65625 
Q 20.21875 74.21875 32.171875 74.21875 
Q 37.3125 74.21875 42.625 73.28125 
Q 47.953125 72.359375 53.515625 70.515625 
z
" id="DejaVuSans-83"/>
      <path d="M -0.203125 72.90625 
L 10.40625 72.90625 
L 30.609375 42.921875 
L 50.6875 72.90625 
L 61.28125 72.90625 
L 35.5 34.71875 
L 35.5 0 
L 25.59375 0 
L 25.59375 34.71875 
z
" id="DejaVuSans-89"/>
      <path d="M 9.8125 72.90625 
L 19.671875 72.90625 
L 19.671875 8.296875 
L 55.171875 8.296875 
L 55.171875 0 
L 9.8125 0 
z
" id="DejaVuSans-76"/>
      <path d="M 34.1875 63.1875 
L 20.796875 26.90625 
L 47.609375 26.90625 
z
M 28.609375 72.90625 
L 39.796875 72.90625 
L 67.578125 0 
L 57.328125 0 
L 50.6875 18.703125 
L 17.828125 18.703125 
L 11.1875 0 
L 0.78125 0 
z
" id="DejaVuSans-65"/>
      <path d="M 8.6875 72.90625 
L 18.609375 72.90625 
L 18.609375 28.609375 
Q 18.609375 16.890625 22.84375 11.734375 
Q 27.09375 6.59375 36.625 6.59375 
Q 46.09375 6.59375 50.34375 11.734375 
Q 54.59375 16.890625 54.59375 28.609375 
L 54.59375 72.90625 
L 64.5 72.90625 
L 64.5 27.390625 
Q 64.5 13.140625 57.4375 5.859375 
Q 50.390625 -1.421875 36.625 -1.421875 
Q 22.796875 -1.421875 15.734375 5.859375 
Q 8.6875 13.140625 8.6875 27.390625 
z
" id="DejaVuSans-85"/>
     </defs>
     <g transform="translate(4.657187 223.13875)rotate(-90)scale(0.1 -0.1)">
      <use xlink:href="#DejaVuSans-80"/>
      <use x="60.302734" xlink:href="#DejaVuSans-82"/>
      <use x="129.785156" xlink:href="#DejaVuSans-79"/>
      <use x="208.496094" xlink:href="#DejaVuSans-80"/>
      <use x="268.798828" xlink:href="#DejaVuSans-32"/>
      <use x="300.585938" xlink:href="#DejaVuSans-83"/>
      <use x="364.0625" xlink:href="#DejaVuSans-89"/>
      <use x="425.146484" xlink:href="#DejaVuSans-77"/>
      <use x="511.425781" xlink:href="#DejaVuSans-77"/>
      <use x="597.705078" xlink:href="#DejaVuSans-32"/>
      <use x="629.492188" xlink:href="#DejaVuSans-76"/>
      <use x="685.236328" xlink:href="#DejaVuSans-65"/>
      <use x="753.644531" xlink:href="#DejaVuSans-32"/>
      <use x="785.431641" xlink:href="#DejaVuSans-77"/>
      <use x="871.710938" xlink:href="#DejaVuSans-85"/>
      <use x="944.904297" xlink:href="#DejaVuSans-83"/>
     </g>
    </g>
   </g>
   <g id="line2d_12">
    <path clip-path="url(#p8dc24852fb)" d="M 50.040078 237.577472 
L 52.870784 236.919216 
L 55.701489 236.25687 
L 58.532195 235.590434 
L 61.3629 234.919908 
L 64.193606 234.245294 
L 67.024311 233.566589 
L 69.855017 232.883795 
L 72.685722 232.196911 
L 75.516428 231.505938 
L 78.347133 230.810875 
L 81.177839 230.111723 
L 84.008544 229.408481 
L 86.83925 228.70115 
L 89.669955 227.989729 
L 92.500661 227.274218 
L 95.331366 226.554618 
L 98.162071 225.830928 
L 100.992777 225.103149 
L 103.823482 224.37128 
L 106.654188 223.635321 
L 109.484893 222.895273 
L 112.315599 222.151135 
L 115.146304 221.402908 
L 117.97701 220.650591 
L 120.807715 219.894185 
L 123.638421 219.133689 
L 126.469126 218.369104 
L 129.299832 217.600429 
L 132.130537 216.827664 
L 134.961243 216.05081 
L 137.791948 215.269866 
L 140.622654 214.484833 
L 143.453359 213.69571 
L 146.284065 212.902497 
L 149.11477 212.105195 
L 151.945476 211.303804 
L 154.776181 210.498322 
L 157.606887 209.688752 
L 160.437592 208.875091 
L 163.268298 208.057341 
L 166.099003 207.235502 
L 168.929709 206.409573 
L 171.760414 205.579554 
L 174.59112 204.745446 
L 177.421825 203.907248 
L 180.252531 203.064961 
L 183.083236 202.218584 
L 185.913942 201.368118 
L 188.744647 200.513562 
L 191.575353 199.654916 
L 194.406058 198.792181 
L 197.236764 197.925356 
L 200.067469 197.054442 
L 202.898175 196.179438 
L 205.72888 195.300344 
L 208.559586 194.417161 
L 211.390291 193.529889 
L 214.220997 192.638526 
L 217.051702 191.743075 
L 219.882408 190.843533 
L 222.713113 189.939902 
L 225.543819 189.032182 
L 228.374524 188.120372 
L 231.20523 187.204472 
L 234.035935 186.284483 
L 236.866641 185.360404 
L 239.697346 184.432236 
L 242.528052 183.499978 
L 245.358757 182.563631 
L 248.189463 181.623194 
L 251.020168 180.678667 
L 253.850874 179.730051 
L 256.681579 178.777345 
L 259.512285 177.82055 
L 262.34299 176.859665 
L 265.173696 175.89469 
L 268.004401 174.925626 
L 270.835107 173.952473 
L 273.665812 172.975229 
L 276.496518 171.993897 
L 279.327223 171.008474 
L 282.157929 170.018962 
L 284.988634 169.025361 
L 287.819339 168.02767 
L 290.650045 167.025889 
L 293.48075 166.020019 
L 296.311456 165.010059 
L 299.142161 163.99601 
L 301.972867 162.977871 
L 304.803572 161.955643 
L 307.634278 160.929325 
L 310.464983 159.898917 
L 313.295689 158.86442 
L 316.126394 157.825833 
L 318.9571 156.783157 
L 321.787805 155.736391 
L 324.618511 154.685535 
L 327.449216 153.63059 
L 330.279922 152.571556 
" style="fill:none;stroke:#1f77b4;stroke-linecap:square;stroke-width:2.25;"/>
   </g>
   <g id="patch_3">
    <path d="M 33.64 332.12 
L 33.64 13.32 
" style="fill:none;stroke:#000000;stroke-linecap:square;stroke-linejoin:miter;stroke-width:0.8;"/>
   </g>
   <g id="patch_4">
    <path d="M 33.64 332.12 
L 346.68 332.12 
" style="fill:none;stroke:#000000;stroke-linecap:square;stroke-linejoin:miter;stroke-width:0.8;"/>
   </g>
  </g>
 </g>
 <defs>
  <clipPath id="p8dc24852fb">
   <rect height="318.8" width="313.04" x="33.64" y="13.32"/>
  </clipPath>
 </defs>
</svg>
