<?xml version="1.0" encoding="utf-8" standalone="no"?>
<!DOCTYPE svg PUBLIC "-//W3C//DTD SVG 1.1//EN"
  "http://www.w3.org/Graphics/SVG/1.1/DTD/svg11.dtd">
<!-- Created with matplotlib (https://matplotlib.org/) -->
<svg height="576pt" version="1.1" viewBox="0 0 648 576" width="648pt" xmlns="http://www.w3.org/2000/svg" xmlns:xlink="http://www.w3.org/1999/xlink">
 <defs>
  <style type="text/css">
*{stroke-linecap:butt;stroke-linejoin:round;}
  </style>
 </defs>
 <g id="figure_1">
  <g id="patch_1">
   <path d="M 0 576 
L 648 576 
L 648 0 
L 0 0 
z
" style="fill:#ffffff;"/>
  </g>
  <g id="axes_1">
   <g id="patch_2">
    <path d="M 66.02 258.05 
L 617.76 258.05 
L 617.76 49.2 
L 66.02 49.2 
z
" style="fill:#eaeaf2;"/>
   </g>
   <g id="matplotlib.axis_1">
    <g id="xtick_1"/>
    <g id="xtick_2"/>
   </g>
   <g id="matplotlib.axis_2">
    <g id="ytick_1">
     <g id="line2d_1">
      <path clip-path="url(#p07924edb9a)" d="M 66.02 201.92012 
L 617.76 201.92012 
" style="fill:none;stroke:#ffffff;stroke-linecap:round;"/>
     </g>
     <g id="text_1">
      <!-- 0.6 -->
      <defs>
       <path d="M 4.15625 35.296875 
Q 4.15625 48 6.765625 55.734375 
Q 9.375 63.484375 14.515625 67.671875 
Q 19.671875 71.875 27.484375 71.875 
Q 33.25 71.875 37.59375 69.546875 
Q 41.9375 67.234375 44.765625 62.859375 
Q 47.609375 58.5 49.21875 52.21875 
Q 50.828125 45.953125 50.828125 35.296875 
Q 50.828125 22.703125 48.234375 14.96875 
Q 45.65625 7.234375 40.5 3 
Q 35.359375 -1.21875 27.484375 -1.21875 
Q 17.140625 -1.21875 11.234375 6.203125 
Q 4.15625 15.140625 4.15625 35.296875 
z
M 13.1875 35.296875 
Q 13.1875 17.671875 17.3125 11.828125 
Q 21.4375 6 27.484375 6 
Q 33.546875 6 37.671875 11.859375 
Q 41.796875 17.71875 41.796875 35.296875 
Q 41.796875 52.984375 37.671875 58.78125 
Q 33.546875 64.59375 27.390625 64.59375 
Q 21.34375 64.59375 17.71875 59.46875 
Q 13.1875 52.9375 13.1875 35.296875 
z
" id="ArialMT-48"/>
       <path d="M 9.078125 0 
L 9.078125 10.015625 
L 19.09375 10.015625 
L 19.09375 0 
z
" id="ArialMT-46"/>
       <path d="M 49.75 54.046875 
L 41.015625 53.375 
Q 39.84375 58.546875 37.703125 60.890625 
Q 34.125 64.65625 28.90625 64.65625 
Q 24.703125 64.65625 21.53125 62.3125 
Q 17.390625 59.28125 14.984375 53.46875 
Q 12.59375 47.65625 12.5 36.921875 
Q 15.671875 41.75 20.265625 44.09375 
Q 24.859375 46.4375 29.890625 46.4375 
Q 38.671875 46.4375 44.84375 39.96875 
Q 51.03125 33.5 51.03125 23.25 
Q 51.03125 16.5 48.125 10.71875 
Q 45.21875 4.9375 40.140625 1.859375 
Q 35.0625 -1.21875 28.609375 -1.21875 
Q 17.625 -1.21875 10.6875 6.859375 
Q 3.765625 14.9375 3.765625 33.5 
Q 3.765625 54.25 11.421875 63.671875 
Q 18.109375 71.875 29.4375 71.875 
Q 37.890625 71.875 43.28125 67.140625 
Q 48.6875 62.40625 49.75 54.046875 
z
M 13.875 23.1875 
Q 13.875 18.65625 15.796875 14.5 
Q 17.71875 10.359375 21.1875 8.171875 
Q 24.65625 6 28.46875 6 
Q 34.03125 6 38.03125 10.484375 
Q 42.046875 14.984375 42.046875 22.703125 
Q 42.046875 30.125 38.078125 34.390625 
Q 34.125 38.671875 28.125 38.671875 
Q 22.171875 38.671875 18.015625 34.390625 
Q 13.875 30.125 13.875 23.1875 
z
" id="ArialMT-54"/>
      </defs>
      <g style="fill:#262626;" transform="translate(25.94 209.793713)scale(0.22 -0.22)">
       <use xlink:href="#ArialMT-48"/>
       <use x="55.615234" xlink:href="#ArialMT-46"/>
       <use x="83.398438" xlink:href="#ArialMT-54"/>
      </g>
     </g>
    </g>
    <g id="ytick_2">
     <g id="line2d_2">
      <path clip-path="url(#p07924edb9a)" d="M 66.02 129.058691 
L 617.76 129.058691 
" style="fill:none;stroke:#ffffff;stroke-linecap:round;"/>
     </g>
     <g id="text_2">
      <!-- 0.8 -->
      <defs>
       <path d="M 17.671875 38.8125 
Q 12.203125 40.828125 9.5625 44.53125 
Q 6.9375 48.25 6.9375 53.421875 
Q 6.9375 61.234375 12.546875 66.546875 
Q 18.171875 71.875 27.484375 71.875 
Q 36.859375 71.875 42.578125 66.421875 
Q 48.296875 60.984375 48.296875 53.171875 
Q 48.296875 48.1875 45.671875 44.5 
Q 43.0625 40.828125 37.75 38.8125 
Q 44.34375 36.671875 47.78125 31.875 
Q 51.21875 27.09375 51.21875 20.453125 
Q 51.21875 11.28125 44.71875 5.03125 
Q 38.234375 -1.21875 27.640625 -1.21875 
Q 17.046875 -1.21875 10.546875 5.046875 
Q 4.046875 11.328125 4.046875 20.703125 
Q 4.046875 27.6875 7.59375 32.390625 
Q 11.140625 37.109375 17.671875 38.8125 
z
M 15.921875 53.71875 
Q 15.921875 48.640625 19.1875 45.40625 
Q 22.46875 42.1875 27.6875 42.1875 
Q 32.765625 42.1875 36.015625 45.375 
Q 39.265625 48.578125 39.265625 53.21875 
Q 39.265625 58.0625 35.90625 61.359375 
Q 32.5625 64.65625 27.59375 64.65625 
Q 22.5625 64.65625 19.234375 61.421875 
Q 15.921875 58.203125 15.921875 53.71875 
z
M 13.09375 20.65625 
Q 13.09375 16.890625 14.875 13.375 
Q 16.65625 9.859375 20.171875 7.921875 
Q 23.6875 6 27.734375 6 
Q 34.03125 6 38.125 10.046875 
Q 42.234375 14.109375 42.234375 20.359375 
Q 42.234375 26.703125 38.015625 30.859375 
Q 33.796875 35.015625 27.4375 35.015625 
Q 21.234375 35.015625 17.15625 30.90625 
Q 13.09375 26.8125 13.09375 20.65625 
z
" id="ArialMT-56"/>
      </defs>
      <g style="fill:#262626;" transform="translate(25.94 136.932285)scale(0.22 -0.22)">
       <use xlink:href="#ArialMT-48"/>
       <use x="55.615234" xlink:href="#ArialMT-46"/>
       <use x="83.398438" xlink:href="#ArialMT-56"/>
      </g>
     </g>
    </g>
    <g id="ytick_3">
     <g id="line2d_3">
      <path clip-path="url(#p07924edb9a)" d="M 66.02 56.197262 
L 617.76 56.197262 
" style="fill:none;stroke:#ffffff;stroke-linecap:round;"/>
     </g>
     <g id="text_3">
      <!-- 1.0 -->
      <defs>
       <path d="M 37.25 0 
L 28.46875 0 
L 28.46875 56 
Q 25.296875 52.984375 20.140625 49.953125 
Q 14.984375 46.921875 10.890625 45.40625 
L 10.890625 53.90625 
Q 18.265625 57.375 23.78125 62.296875 
Q 29.296875 67.234375 31.59375 71.875 
L 37.25 71.875 
z
" id="ArialMT-49"/>
      </defs>
      <g style="fill:#262626;" transform="translate(25.94 64.070856)scale(0.22 -0.22)">
       <use xlink:href="#ArialMT-49"/>
       <use x="55.615234" xlink:href="#ArialMT-46"/>
       <use x="83.398438" xlink:href="#ArialMT-48"/>
      </g>
     </g>
    </g>
   </g>
   <g id="patch_3">
    <path clip-path="url(#p07924edb9a)" d="M 94.342653 135.959075 
L 166.43668 135.959075 
L 166.43668 96.186534 
L 94.342653 96.186534 
L 94.342653 135.959075 
z
" style="fill:#176d9c;stroke:#303030;stroke-linejoin:miter;"/>
   </g>
   <g id="patch_4">
    <path clip-path="url(#p07924edb9a)" d="M 167.907987 164.464791 
L 240.002013 164.464791 
L 240.002013 91.333955 
L 167.907987 91.333955 
L 167.907987 164.464791 
z
" style="fill:#c38820;stroke:#303030;stroke-linejoin:miter;"/>
   </g>
   <g id="patch_5">
    <path clip-path="url(#p07924edb9a)" d="M 241.47332 95.86999 
L 313.567347 95.86999 
L 313.567347 77.518567 
L 241.47332 77.518567 
L 241.47332 95.86999 
z
" style="fill:#158b6a;stroke:#303030;stroke-linejoin:miter;"/>
   </g>
   <g id="patch_6">
    <path clip-path="url(#p07924edb9a)" d="M 370.212653 104.845634 
L 442.30668 104.845634 
L 442.30668 79.942326 
L 370.212653 79.942326 
L 370.212653 104.845634 
z
" style="fill:#176d9c;stroke:#303030;stroke-linejoin:miter;"/>
   </g>
   <g id="patch_7">
    <path clip-path="url(#p07924edb9a)" d="M 443.777987 114.999604 
L 515.872013 114.999604 
L 515.872013 78.384368 
L 443.777987 78.384368 
L 443.777987 114.999604 
z
" style="fill:#c38820;stroke:#303030;stroke-linejoin:miter;"/>
   </g>
   <g id="patch_8">
    <path clip-path="url(#p07924edb9a)" d="M 517.34332 82.244941 
L 589.437347 82.244941 
L 589.437347 71.618151 
L 517.34332 71.618151 
L 517.34332 82.244941 
z
" style="fill:#158b6a;stroke:#303030;stroke-linejoin:miter;"/>
   </g>
   <g id="PathCollection_1"/>
   <g id="PathCollection_2"/>
   <g id="PathCollection_3"/>
   <g id="patch_9">
    <path clip-path="url(#p07924edb9a)" d="M 203.955 420.504406 
L 203.955 420.504406 
L 203.955 420.504406 
L 203.955 420.504406 
z
" style="fill:#176d9c;stroke:#303030;stroke-linejoin:miter;stroke-width:0.5;"/>
   </g>
   <g id="patch_10">
    <path clip-path="url(#p07924edb9a)" d="M 203.955 420.504406 
L 203.955 420.504406 
L 203.955 420.504406 
L 203.955 420.504406 
z
" style="fill:#c38820;stroke:#303030;stroke-linejoin:miter;stroke-width:0.5;"/>
   </g>
   <g id="patch_11">
    <path clip-path="url(#p07924edb9a)" d="M 203.955 420.504406 
L 203.955 420.504406 
L 203.955 420.504406 
L 203.955 420.504406 
z
" style="fill:#158b6a;stroke:#303030;stroke-linejoin:miter;stroke-width:0.5;"/>
   </g>
   <g id="line2d_4">
    <path clip-path="url(#p07924edb9a)" d="M 130.389667 135.959075 
L 130.389667 180.957806 
" style="fill:none;stroke:#303030;stroke-linecap:round;"/>
   </g>
   <g id="line2d_5">
    <path clip-path="url(#p07924edb9a)" d="M 130.389667 96.186534 
L 130.389667 74.751763 
" style="fill:none;stroke:#303030;stroke-linecap:round;"/>
   </g>
   <g id="line2d_6">
    <path clip-path="url(#p07924edb9a)" d="M 112.36616 180.957806 
L 148.413173 180.957806 
" style="fill:none;stroke:#303030;stroke-linecap:round;"/>
   </g>
   <g id="line2d_7">
    <path clip-path="url(#p07924edb9a)" d="M 112.36616 74.751763 
L 148.413173 74.751763 
" style="fill:none;stroke:#303030;stroke-linecap:round;"/>
   </g>
   <g id="line2d_8">
    <path clip-path="url(#p07924edb9a)" d="M 203.955 164.464791 
L 203.955 237.308847 
" style="fill:none;stroke:#303030;stroke-linecap:round;"/>
   </g>
   <g id="line2d_9">
    <path clip-path="url(#p07924edb9a)" d="M 203.955 91.333955 
L 203.955 66.758938 
" style="fill:none;stroke:#303030;stroke-linecap:round;"/>
   </g>
   <g id="line2d_10">
    <path clip-path="url(#p07924edb9a)" d="M 185.931493 237.308847 
L 221.978507 237.308847 
" style="fill:none;stroke:#303030;stroke-linecap:round;"/>
   </g>
   <g id="line2d_11">
    <path clip-path="url(#p07924edb9a)" d="M 185.931493 66.758938 
L 221.978507 66.758938 
" style="fill:none;stroke:#303030;stroke-linecap:round;"/>
   </g>
   <g id="line2d_12">
    <path clip-path="url(#p07924edb9a)" d="M 277.520333 95.86999 
L 277.520333 115.901725 
" style="fill:none;stroke:#303030;stroke-linecap:round;"/>
   </g>
   <g id="line2d_13">
    <path clip-path="url(#p07924edb9a)" d="M 277.520333 77.518567 
L 277.520333 61.442597 
" style="fill:none;stroke:#303030;stroke-linecap:round;"/>
   </g>
   <g id="line2d_14">
    <path clip-path="url(#p07924edb9a)" d="M 259.496827 115.901725 
L 295.54384 115.901725 
" style="fill:none;stroke:#303030;stroke-linecap:round;"/>
   </g>
   <g id="line2d_15">
    <path clip-path="url(#p07924edb9a)" d="M 259.496827 61.442597 
L 295.54384 61.442597 
" style="fill:none;stroke:#303030;stroke-linecap:round;"/>
   </g>
   <g id="line2d_16">
    <path clip-path="url(#p07924edb9a)" d="M 406.259667 104.845634 
L 406.259667 134.026451 
" style="fill:none;stroke:#303030;stroke-linecap:round;"/>
   </g>
   <g id="line2d_17">
    <path clip-path="url(#p07924edb9a)" d="M 406.259667 79.942326 
L 406.259667 62.153233 
" style="fill:none;stroke:#303030;stroke-linecap:round;"/>
   </g>
   <g id="line2d_18">
    <path clip-path="url(#p07924edb9a)" d="M 388.23616 134.026451 
L 424.283173 134.026451 
" style="fill:none;stroke:#303030;stroke-linecap:round;"/>
   </g>
   <g id="line2d_19">
    <path clip-path="url(#p07924edb9a)" d="M 388.23616 62.153233 
L 424.283173 62.153233 
" style="fill:none;stroke:#303030;stroke-linecap:round;"/>
   </g>
   <g id="line2d_20">
    <path clip-path="url(#p07924edb9a)" d="M 479.825 114.999604 
L 479.825 136.188086 
" style="fill:none;stroke:#303030;stroke-linecap:round;"/>
   </g>
   <g id="line2d_21">
    <path clip-path="url(#p07924edb9a)" d="M 479.825 78.384368 
L 479.825 65.049197 
" style="fill:none;stroke:#303030;stroke-linecap:round;"/>
   </g>
   <g id="line2d_22">
    <path clip-path="url(#p07924edb9a)" d="M 461.801493 136.188086 
L 497.848507 136.188086 
" style="fill:none;stroke:#303030;stroke-linecap:round;"/>
   </g>
   <g id="line2d_23">
    <path clip-path="url(#p07924edb9a)" d="M 461.801493 65.049197 
L 497.848507 65.049197 
" style="fill:none;stroke:#303030;stroke-linecap:round;"/>
   </g>
   <g id="line2d_24">
    <path clip-path="url(#p07924edb9a)" d="M 553.390333 82.244941 
L 553.390333 88.908396 
" style="fill:none;stroke:#303030;stroke-linecap:round;"/>
   </g>
   <g id="line2d_25">
    <path clip-path="url(#p07924edb9a)" d="M 553.390333 71.618151 
L 553.390333 62.198283 
" style="fill:none;stroke:#303030;stroke-linecap:round;"/>
   </g>
   <g id="line2d_26">
    <path clip-path="url(#p07924edb9a)" d="M 535.366827 88.908396 
L 571.41384 88.908396 
" style="fill:none;stroke:#303030;stroke-linecap:round;"/>
   </g>
   <g id="line2d_27">
    <path clip-path="url(#p07924edb9a)" d="M 535.366827 62.198283 
L 571.41384 62.198283 
" style="fill:none;stroke:#303030;stroke-linecap:round;"/>
   </g>
   <g id="line2d_28">
    <path clip-path="url(#p07924edb9a)" d="M 94.342653 114.232475 
L 166.43668 114.232475 
" style="fill:none;stroke:#303030;stroke-linecap:round;"/>
   </g>
   <g id="line2d_29">
    <path clip-path="url(#p07924edb9a)" d="M 167.907987 111.520711 
L 240.002013 111.520711 
" style="fill:none;stroke:#303030;stroke-linecap:round;"/>
   </g>
   <g id="line2d_30">
    <path clip-path="url(#p07924edb9a)" d="M 241.47332 89.270001 
L 313.567347 89.270001 
" style="fill:none;stroke:#303030;stroke-linecap:round;"/>
   </g>
   <g id="line2d_31">
    <path clip-path="url(#p07924edb9a)" d="M 370.212653 87.665476 
L 442.30668 87.665476 
" style="fill:none;stroke:#303030;stroke-linecap:round;"/>
   </g>
   <g id="line2d_32">
    <path clip-path="url(#p07924edb9a)" d="M 443.777987 94.32997 
L 515.872013 94.32997 
" style="fill:none;stroke:#303030;stroke-linecap:round;"/>
   </g>
   <g id="line2d_33">
    <path clip-path="url(#p07924edb9a)" d="M 517.34332 74.110406 
L 589.437347 74.110406 
" style="fill:none;stroke:#303030;stroke-linecap:round;"/>
   </g>
   <g id="patch_12">
    <path d="M 66.02 258.05 
L 66.02 49.2 
" style="fill:none;stroke:#ffffff;stroke-linecap:square;stroke-linejoin:miter;stroke-width:1.25;"/>
   </g>
   <g id="patch_13">
    <path d="M 66.02 258.05 
L 617.76 258.05 
" style="fill:none;stroke:#ffffff;stroke-linecap:square;stroke-linejoin:miter;stroke-width:1.25;"/>
   </g>
   <g id="PathCollection_4">
    <defs>
     <path d="M 0 2.5 
C 0.663008 2.5 1.29895 2.236584 1.767767 1.767767 
C 2.236584 1.29895 2.5 0.663008 2.5 0 
C 2.5 -0.663008 2.236584 -1.29895 1.767767 -1.767767 
C 1.29895 -2.236584 0.663008 -2.5 0 -2.5 
C -0.663008 -2.5 -1.29895 -2.236584 -1.767767 -1.767767 
C -2.236584 -1.29895 -2.5 -0.663008 -2.5 0 
C -2.5 0.663008 -2.236584 1.29895 -1.767767 1.767767 
C -1.29895 2.236584 -0.663008 2.5 0 2.5 
z
" id="C0_0_44430c9980"/>
    </defs>
    <g clip-path="url(#p07924edb9a)">
     <use style="fill:#0173b2;stroke:#000000;" x="129.321581" xlink:href="#C0_0_44430c9980" y="118.657796"/>
    </g>
    <g clip-path="url(#p07924edb9a)">
     <use style="fill:#0173b2;stroke:#000000;" x="134.721664" xlink:href="#C0_0_44430c9980" y="131.1878"/>
    </g>
    <g clip-path="url(#p07924edb9a)">
     <use style="fill:#0173b2;stroke:#000000;" x="122.302384" xlink:href="#C0_0_44430c9980" y="82.0861"/>
    </g>
    <g clip-path="url(#p07924edb9a)">
     <use style="fill:#0173b2;stroke:#000000;" x="137.651867" xlink:href="#C0_0_44430c9980" y="150.272902"/>
    </g>
    <g clip-path="url(#p07924edb9a)">
     <use style="fill:#0173b2;stroke:#000000;" x="136.832949" xlink:href="#C0_0_44430c9980" y="127.782538"/>
    </g>
    <g clip-path="url(#p07924edb9a)">
     <use style="fill:#0173b2;stroke:#000000;" x="129.758303" xlink:href="#C0_0_44430c9980" y="220.928423"/>
    </g>
    <g clip-path="url(#p07924edb9a)">
     <use style="fill:#0173b2;stroke:#000000;" x="127.129867" xlink:href="#C0_0_44430c9980" y="102.541548"/>
    </g>
    <g clip-path="url(#p07924edb9a)">
     <use style="fill:#0173b2;stroke:#000000;" x="128.918872" xlink:href="#C0_0_44430c9980" y="124.120049"/>
    </g>
    <g clip-path="url(#p07924edb9a)">
     <use style="fill:#0173b2;stroke:#000000;" x="130.504369" xlink:href="#C0_0_44430c9980" y="89.300992"/>
    </g>
    <g clip-path="url(#p07924edb9a)">
     <use style="fill:#0173b2;stroke:#000000;" x="127.44657" xlink:href="#C0_0_44430c9980" y="105.223611"/>
    </g>
    <g clip-path="url(#p07924edb9a)">
     <use style="fill:#0173b2;stroke:#000000;" x="126.810174" xlink:href="#C0_0_44430c9980" y="85.17643"/>
    </g>
    <g clip-path="url(#p07924edb9a)">
     <use style="fill:#0173b2;stroke:#000000;" x="121.896135" xlink:href="#C0_0_44430c9980" y="180.957806"/>
    </g>
    <g clip-path="url(#p07924edb9a)">
     <use style="fill:#0173b2;stroke:#000000;" x="133.594031" xlink:href="#C0_0_44430c9980" y="109.807153"/>
    </g>
    <g clip-path="url(#p07924edb9a)">
     <use style="fill:#0173b2;stroke:#000000;" x="124.901359" xlink:href="#C0_0_44430c9980" y="74.751763"/>
    </g>
    <g clip-path="url(#p07924edb9a)">
     <use style="fill:#0173b2;stroke:#000000;" x="137.468732" xlink:href="#C0_0_44430c9980" y="153.495664"/>
    </g>
    <g clip-path="url(#p07924edb9a)">
     <use style="fill:#0173b2;stroke:#000000;" x="125.731404" xlink:href="#C0_0_44430c9980" y="98.481715"/>
    </g>
   </g>
   <g id="PathCollection_5">
    <defs>
     <path d="M 0 2.5 
C 0.663008 2.5 1.29895 2.236584 1.767767 1.767767 
C 2.236584 1.29895 2.5 0.663008 2.5 0 
C 2.5 -0.663008 2.236584 -1.29895 1.767767 -1.767767 
C 1.29895 -2.236584 0.663008 -2.5 0 -2.5 
C -0.663008 -2.5 -1.29895 -2.236584 -1.767767 -1.767767 
C -2.236584 -1.29895 -2.5 -0.663008 -2.5 0 
C -2.5 0.663008 -2.236584 1.29895 -1.767767 1.767767 
C -1.29895 2.236584 -0.663008 2.5 0 2.5 
z
" id="C1_0_27c82da455"/>
    </defs>
    <g clip-path="url(#p07924edb9a)">
     <use style="fill:#de8f05;stroke:#000000;" x="211.228114" xlink:href="#C1_0_27c82da455" y="114.27976"/>
    </g>
    <g clip-path="url(#p07924edb9a)">
     <use style="fill:#de8f05;stroke:#000000;" x="197.104488" xlink:href="#C1_0_27c82da455" y="108.761661"/>
    </g>
    <g clip-path="url(#p07924edb9a)">
     <use style="fill:#de8f05;stroke:#000000;" x="197.986255" xlink:href="#C1_0_27c82da455" y="92.699537"/>
    </g>
    <g clip-path="url(#p07924edb9a)">
     <use style="fill:#de8f05;stroke:#000000;" x="202.800181" xlink:href="#C1_0_27c82da455" y="168.803448"/>
    </g>
    <g clip-path="url(#p07924edb9a)">
     <use style="fill:#de8f05;stroke:#000000;" x="201.917599" xlink:href="#C1_0_27c82da455" y="163.018571"/>
    </g>
    <g clip-path="url(#p07924edb9a)">
     <use style="fill:#de8f05;stroke:#000000;" x="199.015367" xlink:href="#C1_0_27c82da455" y="237.308847"/>
    </g>
    <g clip-path="url(#p07924edb9a)">
     <use style="fill:#de8f05;stroke:#000000;" x="206.88108" xlink:href="#C1_0_27c82da455" y="147.896069"/>
    </g>
    <g clip-path="url(#p07924edb9a)">
     <use style="fill:#de8f05;stroke:#000000;" x="207.685832" xlink:href="#C1_0_27c82da455" y="119.363592"/>
    </g>
    <g clip-path="url(#p07924edb9a)">
     <use style="fill:#de8f05;stroke:#000000;" x="198.942047" xlink:href="#C1_0_27c82da455" y="85.61272"/>
    </g>
    <g clip-path="url(#p07924edb9a)">
     <use style="fill:#de8f05;stroke:#000000;" x="209.495368" xlink:href="#C1_0_27c82da455" y="66.758938"/>
    </g>
    <g clip-path="url(#p07924edb9a)">
     <use style="fill:#de8f05;stroke:#000000;" x="212.874148" xlink:href="#C1_0_27c82da455" y="99.153908"/>
    </g>
    <g clip-path="url(#p07924edb9a)">
     <use style="fill:#de8f05;stroke:#000000;" x="201.956751" xlink:href="#C1_0_27c82da455" y="228.073149"/>
    </g>
    <g clip-path="url(#p07924edb9a)">
     <use style="fill:#de8f05;stroke:#000000;" x="207.644218" xlink:href="#C1_0_27c82da455" y="78.589521"/>
    </g>
    <g clip-path="url(#p07924edb9a)">
     <use style="fill:#de8f05;stroke:#000000;" x="212.754448" xlink:href="#C1_0_27c82da455" y="87.237209"/>
    </g>
    <g clip-path="url(#p07924edb9a)">
     <use style="fill:#de8f05;stroke:#000000;" x="195.042033" xlink:href="#C1_0_27c82da455" y="203.243856"/>
    </g>
    <g clip-path="url(#p07924edb9a)">
     <use style="fill:#de8f05;stroke:#000000;" x="196.947842" xlink:href="#C1_0_27c82da455" y="102.204019"/>
    </g>
   </g>
   <g id="PathCollection_6">
    <defs>
     <path d="M 0 2.5 
C 0.663008 2.5 1.29895 2.236584 1.767767 1.767767 
C 2.236584 1.29895 2.5 0.663008 2.5 0 
C 2.5 -0.663008 2.236584 -1.29895 1.767767 -1.767767 
C 1.29895 -2.236584 0.663008 -2.5 0 -2.5 
C -0.663008 -2.5 -1.29895 -2.236584 -1.767767 -1.767767 
C -2.236584 -1.29895 -2.5 -0.663008 -2.5 0 
C -2.5 0.663008 -2.236584 1.29895 -1.767767 1.767767 
C -1.29895 2.236584 -0.663008 2.5 0 2.5 
z
" id="C2_0_f11c456435"/>
    </defs>
    <g clip-path="url(#p07924edb9a)">
     <use style="fill:#029e73;stroke:#000000;" x="282.732828" xlink:href="#C2_0_f11c456435" y="76.135928"/>
    </g>
    <g clip-path="url(#p07924edb9a)">
     <use style="fill:#029e73;stroke:#000000;" x="282.090481" xlink:href="#C2_0_f11c456435" y="115.901725"/>
    </g>
    <g clip-path="url(#p07924edb9a)">
     <use style="fill:#029e73;stroke:#000000;" x="273.489244" xlink:href="#C2_0_f11c456435" y="94.183186"/>
    </g>
    <g clip-path="url(#p07924edb9a)">
     <use style="fill:#029e73;stroke:#000000;" x="269.101124" xlink:href="#C2_0_f11c456435" y="88.525305"/>
    </g>
    <g clip-path="url(#p07924edb9a)">
     <use style="fill:#029e73;stroke:#000000;" x="275.624214" xlink:href="#C2_0_f11c456435" y="112.577545"/>
    </g>
    <g clip-path="url(#p07924edb9a)">
     <use style="fill:#029e73;stroke:#000000;" x="280.095912" xlink:href="#C2_0_f11c456435" y="95.487034"/>
    </g>
    <g clip-path="url(#p07924edb9a)">
     <use style="fill:#029e73;stroke:#000000;" x="278.571744" xlink:href="#C2_0_f11c456435" y="127.789517"/>
    </g>
    <g clip-path="url(#p07924edb9a)">
     <use style="fill:#029e73;stroke:#000000;" x="268.416294" xlink:href="#C2_0_f11c456435" y="91.512768"/>
    </g>
    <g clip-path="url(#p07924edb9a)">
     <use style="fill:#029e73;stroke:#000000;" x="270.725358" xlink:href="#C2_0_f11c456435" y="97.018859"/>
    </g>
    <g clip-path="url(#p07924edb9a)">
     <use style="fill:#029e73;stroke:#000000;" x="269.563736" xlink:href="#C2_0_f11c456435" y="77.979447"/>
    </g>
    <g clip-path="url(#p07924edb9a)">
     <use style="fill:#029e73;stroke:#000000;" x="278.91217" xlink:href="#C2_0_f11c456435" y="88.112712"/>
    </g>
    <g clip-path="url(#p07924edb9a)">
     <use style="fill:#029e73;stroke:#000000;" x="282.987163" xlink:href="#C2_0_f11c456435" y="90.014698"/>
    </g>
    <g clip-path="url(#p07924edb9a)">
     <use style="fill:#029e73;stroke:#000000;" x="281.089892" xlink:href="#C2_0_f11c456435" y="70.213794"/>
    </g>
    <g clip-path="url(#p07924edb9a)">
     <use style="fill:#029e73;stroke:#000000;" x="286.42095" xlink:href="#C2_0_f11c456435" y="61.442597"/>
    </g>
    <g clip-path="url(#p07924edb9a)">
     <use style="fill:#029e73;stroke:#000000;" x="270.011955" xlink:href="#C2_0_f11c456435" y="71.705625"/>
    </g>
    <g clip-path="url(#p07924edb9a)">
     <use style="fill:#029e73;stroke:#000000;" x="273.872639" xlink:href="#C2_0_f11c456435" y="88.04027"/>
    </g>
   </g>
   <g id="PathCollection_7">
    <defs>
     <path d="M 0 2.5 
C 0.663008 2.5 1.29895 2.236584 1.767767 1.767767 
C 2.236584 1.29895 2.5 0.663008 2.5 0 
C 2.5 -0.663008 2.236584 -1.29895 1.767767 -1.767767 
C 1.29895 -2.236584 0.663008 -2.5 0 -2.5 
C -0.663008 -2.5 -1.29895 -2.236584 -1.767767 -1.767767 
C -2.236584 -1.29895 -2.5 -0.663008 -2.5 0 
C -2.5 0.663008 -2.236584 1.29895 -1.767767 1.767767 
C -1.29895 2.236584 -0.663008 2.5 0 2.5 
z
" id="C3_0_8c034f2544"/>
    </defs>
    <g clip-path="url(#p07924edb9a)">
     <use style="fill:#0173b2;stroke:#000000;" x="400.734132" xlink:href="#C3_0_8c034f2544" y="93.255625"/>
    </g>
    <g clip-path="url(#p07924edb9a)">
     <use style="fill:#0173b2;stroke:#000000;" x="402.096156" xlink:href="#C3_0_8c034f2544" y="109.259115"/>
    </g>
    <g clip-path="url(#p07924edb9a)">
     <use style="fill:#0173b2;stroke:#000000;" x="405.971779" xlink:href="#C3_0_8c034f2544" y="62.153233"/>
    </g>
    <g clip-path="url(#p07924edb9a)">
     <use style="fill:#0173b2;stroke:#000000;" x="398.617778" xlink:href="#C3_0_8c034f2544" y="72.764697"/>
    </g>
    <g clip-path="url(#p07924edb9a)">
     <use style="fill:#0173b2;stroke:#000000;" x="406.965705" xlink:href="#C3_0_8c034f2544" y="84.852774"/>
    </g>
    <g clip-path="url(#p07924edb9a)">
     <use style="fill:#0173b2;stroke:#000000;" x="407.486772" xlink:href="#C3_0_8c034f2544" y="82.331764"/>
    </g>
    <g clip-path="url(#p07924edb9a)">
     <use style="fill:#0173b2;stroke:#000000;" x="400.406942" xlink:href="#C3_0_8c034f2544" y="104.632712"/>
    </g>
    <g clip-path="url(#p07924edb9a)">
     <use style="fill:#0173b2;stroke:#000000;" x="398.273741" xlink:href="#C3_0_8c034f2544" y="179.307716"/>
    </g>
    <g clip-path="url(#p07924edb9a)">
     <use style="fill:#0173b2;stroke:#000000;" x="411.139896" xlink:href="#C3_0_8c034f2544" y="134.026451"/>
    </g>
    <g clip-path="url(#p07924edb9a)">
     <use style="fill:#0173b2;stroke:#000000;" x="413.577776" xlink:href="#C3_0_8c034f2544" y="90.478177"/>
    </g>
    <g clip-path="url(#p07924edb9a)">
     <use style="fill:#0173b2;stroke:#000000;" x="408.648472" xlink:href="#C3_0_8c034f2544" y="79.145847"/>
    </g>
    <g clip-path="url(#p07924edb9a)">
     <use style="fill:#0173b2;stroke:#000000;" x="413.454577" xlink:href="#C3_0_8c034f2544" y="77.95329"/>
    </g>
    <g clip-path="url(#p07924edb9a)">
     <use style="fill:#0173b2;stroke:#000000;" x="407.952289" xlink:href="#C3_0_8c034f2544" y="104.916608"/>
    </g>
    <g clip-path="url(#p07924edb9a)">
     <use style="fill:#0173b2;stroke:#000000;" x="407.781035" xlink:href="#C3_0_8c034f2544" y="82.484474"/>
    </g>
   </g>
   <g id="PathCollection_8">
    <defs>
     <path d="M 0 2.5 
C 0.663008 2.5 1.29895 2.236584 1.767767 1.767767 
C 2.236584 1.29895 2.5 0.663008 2.5 0 
C 2.5 -0.663008 2.236584 -1.29895 1.767767 -1.767767 
C 1.29895 -2.236584 0.663008 -2.5 0 -2.5 
C -0.663008 -2.5 -1.29895 -2.236584 -1.767767 -1.767767 
C -2.236584 -1.29895 -2.5 -0.663008 -2.5 0 
C -2.5 0.663008 -2.236584 1.29895 -1.767767 1.767767 
C -1.29895 2.236584 -0.663008 2.5 0 2.5 
z
" id="C4_0_017cc50328"/>
    </defs>
    <g clip-path="url(#p07924edb9a)">
     <use style="fill:#de8f05;stroke:#000000;" x="472.957355" xlink:href="#C4_0_017cc50328" y="82.931532"/>
    </g>
    <g clip-path="url(#p07924edb9a)">
     <use style="fill:#de8f05;stroke:#000000;" x="482.536812" xlink:href="#C4_0_017cc50328" y="136.188086"/>
    </g>
    <g clip-path="url(#p07924edb9a)">
     <use style="fill:#de8f05;stroke:#000000;" x="481.235939" xlink:href="#C4_0_017cc50328" y="76.868647"/>
    </g>
    <g clip-path="url(#p07924edb9a)">
     <use style="fill:#de8f05;stroke:#000000;" x="487.223632" xlink:href="#C4_0_017cc50328" y="65.049197"/>
    </g>
    <g clip-path="url(#p07924edb9a)">
     <use style="fill:#de8f05;stroke:#000000;" x="480.101104" xlink:href="#C4_0_017cc50328" y="102.548653"/>
    </g>
    <g clip-path="url(#p07924edb9a)">
     <use style="fill:#de8f05;stroke:#000000;" x="486.447266" xlink:href="#C4_0_017cc50328" y="100.154471"/>
    </g>
    <g clip-path="url(#p07924edb9a)">
     <use style="fill:#de8f05;stroke:#000000;" x="479.817883" xlink:href="#C4_0_017cc50328" y="92.314833"/>
    </g>
    <g clip-path="url(#p07924edb9a)">
     <use style="fill:#de8f05;stroke:#000000;" x="486.663305" xlink:href="#C4_0_017cc50328" y="119.149921"/>
    </g>
    <g clip-path="url(#p07924edb9a)">
     <use style="fill:#de8f05;stroke:#000000;" x="482.235608" xlink:href="#C4_0_017cc50328" y="173.755519"/>
    </g>
    <g clip-path="url(#p07924edb9a)">
     <use style="fill:#de8f05;stroke:#000000;" x="485.795528" xlink:href="#C4_0_017cc50328" y="72.432079"/>
    </g>
    <g clip-path="url(#p07924edb9a)">
     <use style="fill:#de8f05;stroke:#000000;" x="470.85969" xlink:href="#C4_0_017cc50328" y="96.345107"/>
    </g>
    <g clip-path="url(#p07924edb9a)">
     <use style="fill:#de8f05;stroke:#000000;" x="485.786025" xlink:href="#C4_0_017cc50328" y="87.346004"/>
    </g>
    <g clip-path="url(#p07924edb9a)">
     <use style="fill:#de8f05;stroke:#000000;" x="485.271546" xlink:href="#C4_0_017cc50328" y="133.157515"/>
    </g>
    <g clip-path="url(#p07924edb9a)">
     <use style="fill:#de8f05;stroke:#000000;" x="476.714182" xlink:href="#C4_0_017cc50328" y="70.872762"/>
    </g>
   </g>
   <g id="PathCollection_9">
    <defs>
     <path d="M 0 2.5 
C 0.663008 2.5 1.29895 2.236584 1.767767 1.767767 
C 2.236584 1.29895 2.5 0.663008 2.5 0 
C 2.5 -0.663008 2.236584 -1.29895 1.767767 -1.767767 
C 1.29895 -2.236584 0.663008 -2.5 0 -2.5 
C -0.663008 -2.5 -1.29895 -2.236584 -1.767767 -1.767767 
C -2.236584 -1.29895 -2.5 -0.663008 -2.5 0 
C -2.5 0.663008 -2.236584 1.29895 -1.767767 1.767767 
C -1.29895 2.236584 -0.663008 2.5 0 2.5 
z
" id="C5_0_a1bfff5614"/>
    </defs>
    <g clip-path="url(#p07924edb9a)">
     <use style="fill:#029e73;stroke:#000000;" x="560.748555" xlink:href="#C5_0_a1bfff5614" y="74.392451"/>
    </g>
    <g clip-path="url(#p07924edb9a)">
     <use style="fill:#029e73;stroke:#000000;" x="550.280919" xlink:href="#C5_0_a1bfff5614" y="88.908396"/>
    </g>
    <g clip-path="url(#p07924edb9a)">
     <use style="fill:#029e73;stroke:#000000;" x="551.097225" xlink:href="#C5_0_a1bfff5614" y="71.579886"/>
    </g>
    <g clip-path="url(#p07924edb9a)">
     <use style="fill:#029e73;stroke:#000000;" x="549.773264" xlink:href="#C5_0_a1bfff5614" y="73.828361"/>
    </g>
    <g clip-path="url(#p07924edb9a)">
     <use style="fill:#029e73;stroke:#000000;" x="556.306032" xlink:href="#C5_0_a1bfff5614" y="107.888964"/>
    </g>
    <g clip-path="url(#p07924edb9a)">
     <use style="fill:#029e73;stroke:#000000;" x="548.286095" xlink:href="#C5_0_a1bfff5614" y="73.100561"/>
    </g>
    <g clip-path="url(#p07924edb9a)">
     <use style="fill:#029e73;stroke:#000000;" x="559.670126" xlink:href="#C5_0_a1bfff5614" y="74.749348"/>
    </g>
    <g clip-path="url(#p07924edb9a)">
     <use style="fill:#029e73;stroke:#000000;" x="550.933452" xlink:href="#C5_0_a1bfff5614" y="86.645486"/>
    </g>
    <g clip-path="url(#p07924edb9a)">
     <use style="fill:#029e73;stroke:#000000;" x="547.979064" xlink:href="#C5_0_a1bfff5614" y="78.905573"/>
    </g>
    <g clip-path="url(#p07924edb9a)">
     <use style="fill:#029e73;stroke:#000000;" x="546.809143" xlink:href="#C5_0_a1bfff5614" y="69.523116"/>
    </g>
    <g clip-path="url(#p07924edb9a)">
     <use style="fill:#029e73;stroke:#000000;" x="551.766073" xlink:href="#C5_0_a1bfff5614" y="62.198283"/>
    </g>
    <g clip-path="url(#p07924edb9a)">
     <use style="fill:#029e73;stroke:#000000;" x="562.331367" xlink:href="#C5_0_a1bfff5614" y="83.358064"/>
    </g>
    <g clip-path="url(#p07924edb9a)">
     <use style="fill:#029e73;stroke:#000000;" x="549.496209" xlink:href="#C5_0_a1bfff5614" y="70.229975"/>
    </g>
    <g clip-path="url(#p07924edb9a)">
     <use style="fill:#029e73;stroke:#000000;" x="553.806908" xlink:href="#C5_0_a1bfff5614" y="71.732946"/>
    </g>
   </g>
   <g id="text_4">
    <!-- Muscles Pose -->
    <defs>
     <path d="M 7.421875 0 
L 7.421875 71.578125 
L 21.6875 71.578125 
L 38.625 20.90625 
Q 40.96875 13.8125 42.046875 10.296875 
Q 43.265625 14.203125 45.84375 21.78125 
L 62.984375 71.578125 
L 75.734375 71.578125 
L 75.734375 0 
L 66.609375 0 
L 66.609375 59.90625 
L 45.796875 0 
L 37.25 0 
L 16.546875 60.9375 
L 16.546875 0 
z
" id="ArialMT-77"/>
     <path d="M 40.578125 0 
L 40.578125 7.625 
Q 34.515625 -1.171875 24.125 -1.171875 
Q 19.53125 -1.171875 15.546875 0.578125 
Q 11.578125 2.34375 9.640625 5 
Q 7.71875 7.671875 6.9375 11.53125 
Q 6.390625 14.109375 6.390625 19.734375 
L 6.390625 51.859375 
L 15.1875 51.859375 
L 15.1875 23.09375 
Q 15.1875 16.21875 15.71875 13.8125 
Q 16.546875 10.359375 19.234375 8.375 
Q 21.921875 6.390625 25.875 6.390625 
Q 29.828125 6.390625 33.296875 8.421875 
Q 36.765625 10.453125 38.203125 13.9375 
Q 39.65625 17.4375 39.65625 24.078125 
L 39.65625 51.859375 
L 48.4375 51.859375 
L 48.4375 0 
z
" id="ArialMT-117"/>
     <path d="M 3.078125 15.484375 
L 11.765625 16.84375 
Q 12.5 11.625 15.84375 8.84375 
Q 19.1875 6.0625 25.203125 6.0625 
Q 31.25 6.0625 34.171875 8.515625 
Q 37.109375 10.984375 37.109375 14.3125 
Q 37.109375 17.28125 34.515625 19 
Q 32.71875 20.171875 25.53125 21.96875 
Q 15.875 24.421875 12.140625 26.203125 
Q 8.40625 27.984375 6.46875 31.125 
Q 4.546875 34.28125 4.546875 38.09375 
Q 4.546875 41.546875 6.125 44.5 
Q 7.71875 47.46875 10.453125 49.421875 
Q 12.5 50.921875 16.03125 51.96875 
Q 19.578125 53.03125 23.640625 53.03125 
Q 29.734375 53.03125 34.34375 51.265625 
Q 38.96875 49.515625 41.15625 46.5 
Q 43.359375 43.5 44.1875 38.484375 
L 35.59375 37.3125 
Q 35.015625 41.3125 32.203125 43.546875 
Q 29.390625 45.796875 24.265625 45.796875 
Q 18.21875 45.796875 15.625 43.796875 
Q 13.03125 41.796875 13.03125 39.109375 
Q 13.03125 37.40625 14.109375 36.03125 
Q 15.1875 34.625 17.484375 33.6875 
Q 18.796875 33.203125 25.25 31.453125 
Q 34.578125 28.953125 38.25 27.359375 
Q 41.9375 25.78125 44.03125 22.75 
Q 46.140625 19.734375 46.140625 15.234375 
Q 46.140625 10.84375 43.578125 6.953125 
Q 41.015625 3.078125 36.171875 0.953125 
Q 31.34375 -1.171875 25.25 -1.171875 
Q 15.140625 -1.171875 9.84375 3.03125 
Q 4.546875 7.234375 3.078125 15.484375 
z
" id="ArialMT-115"/>
     <path d="M 40.4375 19 
L 49.078125 17.875 
Q 47.65625 8.9375 41.8125 3.875 
Q 35.984375 -1.171875 27.484375 -1.171875 
Q 16.84375 -1.171875 10.375 5.78125 
Q 3.90625 12.75 3.90625 25.734375 
Q 3.90625 34.125 6.6875 40.421875 
Q 9.46875 46.734375 15.15625 49.875 
Q 20.84375 53.03125 27.546875 53.03125 
Q 35.984375 53.03125 41.359375 48.75 
Q 46.734375 44.484375 48.25 36.625 
L 39.703125 35.296875 
Q 38.484375 40.53125 35.375 43.15625 
Q 32.28125 45.796875 27.875 45.796875 
Q 21.234375 45.796875 17.078125 41.03125 
Q 12.9375 36.28125 12.9375 25.984375 
Q 12.9375 15.53125 16.9375 10.796875 
Q 20.953125 6.0625 27.390625 6.0625 
Q 32.5625 6.0625 36.03125 9.234375 
Q 39.5 12.40625 40.4375 19 
z
" id="ArialMT-99"/>
     <path d="M 6.390625 0 
L 6.390625 71.578125 
L 15.1875 71.578125 
L 15.1875 0 
z
" id="ArialMT-108"/>
     <path d="M 42.09375 16.703125 
L 51.171875 15.578125 
Q 49.03125 7.625 43.21875 3.21875 
Q 37.40625 -1.171875 28.375 -1.171875 
Q 17 -1.171875 10.328125 5.828125 
Q 3.65625 12.84375 3.65625 25.484375 
Q 3.65625 38.578125 10.390625 45.796875 
Q 17.140625 53.03125 27.875 53.03125 
Q 38.28125 53.03125 44.875 45.953125 
Q 51.46875 38.875 51.46875 26.03125 
Q 51.46875 25.25 51.421875 23.6875 
L 12.75 23.6875 
Q 13.234375 15.140625 17.578125 10.59375 
Q 21.921875 6.0625 28.421875 6.0625 
Q 33.25 6.0625 36.671875 8.59375 
Q 40.09375 11.140625 42.09375 16.703125 
z
M 13.234375 30.90625 
L 42.1875 30.90625 
Q 41.609375 37.453125 38.875 40.71875 
Q 34.671875 45.796875 27.984375 45.796875 
Q 21.921875 45.796875 17.796875 41.75 
Q 13.671875 37.703125 13.234375 30.90625 
z
" id="ArialMT-101"/>
     <path id="ArialMT-32"/>
     <path d="M 7.71875 0 
L 7.71875 71.578125 
L 34.71875 71.578125 
Q 41.84375 71.578125 45.609375 70.90625 
Q 50.875 70.015625 54.4375 67.546875 
Q 58.015625 65.09375 60.1875 60.640625 
Q 62.359375 56.203125 62.359375 50.875 
Q 62.359375 41.75 56.546875 35.421875 
Q 50.734375 29.109375 35.546875 29.109375 
L 17.1875 29.109375 
L 17.1875 0 
z
M 17.1875 37.546875 
L 35.6875 37.546875 
Q 44.875 37.546875 48.734375 40.96875 
Q 52.59375 44.390625 52.59375 50.59375 
Q 52.59375 55.078125 50.3125 58.265625 
Q 48.046875 61.46875 44.34375 62.5 
Q 41.9375 63.140625 35.5 63.140625 
L 17.1875 63.140625 
z
" id="ArialMT-80"/>
     <path d="M 3.328125 25.921875 
Q 3.328125 40.328125 11.328125 47.265625 
Q 18.015625 53.03125 27.640625 53.03125 
Q 38.328125 53.03125 45.109375 46.015625 
Q 51.90625 39.015625 51.90625 26.65625 
Q 51.90625 16.65625 48.90625 10.90625 
Q 45.90625 5.171875 40.15625 2 
Q 34.421875 -1.171875 27.640625 -1.171875 
Q 16.75 -1.171875 10.03125 5.8125 
Q 3.328125 12.796875 3.328125 25.921875 
z
M 12.359375 25.921875 
Q 12.359375 15.96875 16.703125 11.015625 
Q 21.046875 6.0625 27.640625 6.0625 
Q 34.1875 6.0625 38.53125 11.03125 
Q 42.875 16.015625 42.875 26.21875 
Q 42.875 35.84375 38.5 40.796875 
Q 34.125 45.75 27.640625 45.75 
Q 21.046875 45.75 16.703125 40.8125 
Q 12.359375 35.890625 12.359375 25.921875 
z
" id="ArialMT-111"/>
    </defs>
    <g style="fill:#262626;" transform="translate(267.1975 29.2)scale(0.24 -0.24)">
     <use xlink:href="#ArialMT-77"/>
     <use x="83.300781" xlink:href="#ArialMT-117"/>
     <use x="138.916016" xlink:href="#ArialMT-115"/>
     <use x="188.916016" xlink:href="#ArialMT-99"/>
     <use x="238.916016" xlink:href="#ArialMT-108"/>
     <use x="261.132812" xlink:href="#ArialMT-101"/>
     <use x="316.748047" xlink:href="#ArialMT-115"/>
     <use x="366.748047" xlink:href="#ArialMT-32"/>
     <use x="394.53125" xlink:href="#ArialMT-80"/>
     <use x="461.230469" xlink:href="#ArialMT-111"/>
     <use x="516.845703" xlink:href="#ArialMT-115"/>
     <use x="566.845703" xlink:href="#ArialMT-101"/>
    </g>
   </g>
  </g>
  <g id="axes_2">
   <g id="patch_14">
    <path d="M 66.02 520.42 
L 617.76 520.42 
L 617.76 311.57 
L 66.02 311.57 
z
" style="fill:#eaeaf2;"/>
   </g>
   <g id="matplotlib.axis_3">
    <g id="xtick_3">
     <g id="text_5">
      <!-- CP AH -->
      <defs>
       <path d="M 58.796875 25.09375 
L 68.265625 22.703125 
Q 65.28125 11.03125 57.546875 4.90625 
Q 49.8125 -1.21875 38.625 -1.21875 
Q 27.046875 -1.21875 19.796875 3.484375 
Q 12.546875 8.203125 8.765625 17.140625 
Q 4.984375 26.078125 4.984375 36.328125 
Q 4.984375 47.515625 9.25 55.828125 
Q 13.53125 64.15625 21.40625 68.46875 
Q 29.296875 72.796875 38.765625 72.796875 
Q 49.515625 72.796875 56.828125 67.328125 
Q 64.15625 61.859375 67.046875 51.953125 
L 57.71875 49.75 
Q 55.21875 57.5625 50.484375 61.125 
Q 45.75 64.703125 38.578125 64.703125 
Q 30.328125 64.703125 24.78125 60.734375 
Q 19.234375 56.78125 16.984375 50.109375 
Q 14.75 43.453125 14.75 36.375 
Q 14.75 27.25 17.40625 20.4375 
Q 20.0625 13.625 25.671875 10.25 
Q 31.296875 6.890625 37.84375 6.890625 
Q 45.796875 6.890625 51.3125 11.46875 
Q 56.84375 16.0625 58.796875 25.09375 
z
" id="ArialMT-67"/>
       <path d="M -0.140625 0 
L 27.34375 71.578125 
L 37.546875 71.578125 
L 66.84375 0 
L 56.0625 0 
L 47.703125 21.6875 
L 17.78125 21.6875 
L 9.90625 0 
z
M 20.515625 29.390625 
L 44.78125 29.390625 
L 37.3125 49.21875 
Q 33.890625 58.25 32.234375 64.0625 
Q 30.859375 57.171875 28.375 50.390625 
z
" id="ArialMT-65"/>
       <path d="M 8.015625 0 
L 8.015625 71.578125 
L 17.484375 71.578125 
L 17.484375 42.1875 
L 54.6875 42.1875 
L 54.6875 71.578125 
L 64.15625 71.578125 
L 64.15625 0 
L 54.6875 0 
L 54.6875 33.734375 
L 17.484375 33.734375 
L 17.484375 0 
z
" id="ArialMT-72"/>
      </defs>
      <g style="fill:#262626;" transform="translate(170.346562 545.667187)scale(0.22 -0.22)">
       <use xlink:href="#ArialMT-67"/>
       <use x="72.216797" xlink:href="#ArialMT-80"/>
       <use x="138.900391" xlink:href="#ArialMT-32"/>
       <use x="166.605469" xlink:href="#ArialMT-65"/>
       <use x="233.304688" xlink:href="#ArialMT-72"/>
      </g>
     </g>
    </g>
    <g id="xtick_4">
     <g id="text_6">
      <!-- TD Control -->
      <defs>
       <path d="M 25.921875 0 
L 25.921875 63.140625 
L 2.34375 63.140625 
L 2.34375 71.578125 
L 59.078125 71.578125 
L 59.078125 63.140625 
L 35.40625 63.140625 
L 35.40625 0 
z
" id="ArialMT-84"/>
       <path d="M 7.71875 0 
L 7.71875 71.578125 
L 32.375 71.578125 
Q 40.71875 71.578125 45.125 70.5625 
Q 51.265625 69.140625 55.609375 65.4375 
Q 61.28125 60.640625 64.078125 53.1875 
Q 66.890625 45.75 66.890625 36.1875 
Q 66.890625 28.03125 64.984375 21.734375 
Q 63.09375 15.4375 60.109375 11.296875 
Q 57.125 7.171875 53.578125 4.796875 
Q 50.046875 2.4375 45.046875 1.21875 
Q 40.046875 0 33.546875 0 
z
M 17.1875 8.453125 
L 32.46875 8.453125 
Q 39.546875 8.453125 43.578125 9.765625 
Q 47.609375 11.078125 50 13.484375 
Q 53.375 16.84375 55.25 22.53125 
Q 57.125 28.21875 57.125 36.328125 
Q 57.125 47.5625 53.4375 53.59375 
Q 49.75 59.625 44.484375 61.671875 
Q 40.671875 63.140625 32.234375 63.140625 
L 17.1875 63.140625 
z
" id="ArialMT-68"/>
       <path d="M 6.59375 0 
L 6.59375 51.859375 
L 14.5 51.859375 
L 14.5 44.484375 
Q 20.21875 53.03125 31 53.03125 
Q 35.6875 53.03125 39.625 51.34375 
Q 43.5625 49.65625 45.515625 46.921875 
Q 47.46875 44.1875 48.25 40.4375 
Q 48.734375 37.984375 48.734375 31.890625 
L 48.734375 0 
L 39.9375 0 
L 39.9375 31.546875 
Q 39.9375 36.921875 38.90625 39.578125 
Q 37.890625 42.234375 35.28125 43.8125 
Q 32.671875 45.40625 29.15625 45.40625 
Q 23.53125 45.40625 19.453125 41.84375 
Q 15.375 38.28125 15.375 28.328125 
L 15.375 0 
z
" id="ArialMT-110"/>
       <path d="M 25.78125 7.859375 
L 27.046875 0.09375 
Q 23.34375 -0.6875 20.40625 -0.6875 
Q 15.625 -0.6875 12.984375 0.828125 
Q 10.359375 2.34375 9.28125 4.8125 
Q 8.203125 7.28125 8.203125 15.1875 
L 8.203125 45.015625 
L 1.765625 45.015625 
L 1.765625 51.859375 
L 8.203125 51.859375 
L 8.203125 64.703125 
L 16.9375 69.96875 
L 16.9375 51.859375 
L 25.78125 51.859375 
L 25.78125 45.015625 
L 16.9375 45.015625 
L 16.9375 14.703125 
Q 16.9375 10.9375 17.40625 9.859375 
Q 17.875 8.796875 18.921875 8.15625 
Q 19.96875 7.515625 21.921875 7.515625 
Q 23.390625 7.515625 25.78125 7.859375 
z
" id="ArialMT-116"/>
       <path d="M 6.5 0 
L 6.5 51.859375 
L 14.40625 51.859375 
L 14.40625 44 
Q 17.4375 49.515625 20 51.265625 
Q 22.5625 53.03125 25.640625 53.03125 
Q 30.078125 53.03125 34.671875 50.203125 
L 31.640625 42.046875 
Q 28.421875 43.953125 25.203125 43.953125 
Q 22.3125 43.953125 20.015625 42.21875 
Q 17.71875 40.484375 16.75 37.40625 
Q 15.28125 32.71875 15.28125 27.15625 
L 15.28125 0 
z
" id="ArialMT-114"/>
      </defs>
      <g style="fill:#262626;" transform="translate(426.648594 545.667187)scale(0.22 -0.22)">
       <use xlink:href="#ArialMT-84"/>
       <use x="61.083984" xlink:href="#ArialMT-68"/>
       <use x="133.300781" xlink:href="#ArialMT-32"/>
       <use x="161.083984" xlink:href="#ArialMT-67"/>
       <use x="233.300781" xlink:href="#ArialMT-111"/>
       <use x="288.916016" xlink:href="#ArialMT-110"/>
       <use x="344.53125" xlink:href="#ArialMT-116"/>
       <use x="372.314453" xlink:href="#ArialMT-114"/>
       <use x="405.615234" xlink:href="#ArialMT-111"/>
       <use x="461.230469" xlink:href="#ArialMT-108"/>
      </g>
     </g>
    </g>
   </g>
   <g id="matplotlib.axis_4">
    <g id="ytick_4">
     <g id="line2d_34">
      <path clip-path="url(#p2d379bd69c)" d="M 66.02 464.29012 
L 617.76 464.29012 
" style="fill:none;stroke:#ffffff;stroke-linecap:round;"/>
     </g>
     <g id="text_7">
      <!-- 0.6 -->
      <g style="fill:#262626;" transform="translate(25.94 472.163713)scale(0.22 -0.22)">
       <use xlink:href="#ArialMT-48"/>
       <use x="55.615234" xlink:href="#ArialMT-46"/>
       <use x="83.398438" xlink:href="#ArialMT-54"/>
      </g>
     </g>
    </g>
    <g id="ytick_5">
     <g id="line2d_35">
      <path clip-path="url(#p2d379bd69c)" d="M 66.02 391.428691 
L 617.76 391.428691 
" style="fill:none;stroke:#ffffff;stroke-linecap:round;"/>
     </g>
     <g id="text_8">
      <!-- 0.8 -->
      <g style="fill:#262626;" transform="translate(25.94 399.302285)scale(0.22 -0.22)">
       <use xlink:href="#ArialMT-48"/>
       <use x="55.615234" xlink:href="#ArialMT-46"/>
       <use x="83.398438" xlink:href="#ArialMT-56"/>
      </g>
     </g>
    </g>
    <g id="ytick_6">
     <g id="line2d_36">
      <path clip-path="url(#p2d379bd69c)" d="M 66.02 318.567262 
L 617.76 318.567262 
" style="fill:none;stroke:#ffffff;stroke-linecap:round;"/>
     </g>
     <g id="text_9">
      <!-- 1.0 -->
      <g style="fill:#262626;" transform="translate(25.94 326.440856)scale(0.22 -0.22)">
       <use xlink:href="#ArialMT-49"/>
       <use x="55.615234" xlink:href="#ArialMT-46"/>
       <use x="83.398438" xlink:href="#ArialMT-48"/>
      </g>
     </g>
    </g>
   </g>
   <g id="patch_15">
    <path clip-path="url(#p2d379bd69c)" d="M 94.342653 384.903854 
L 166.43668 384.903854 
L 166.43668 357.088653 
L 94.342653 357.088653 
L 94.342653 384.903854 
z
" style="fill:#176d9c;stroke:#303030;stroke-linejoin:miter;"/>
   </g>
   <g id="patch_16">
    <path clip-path="url(#p2d379bd69c)" d="M 167.907987 404.103022 
L 240.002013 404.103022 
L 240.002013 350.406709 
L 167.907987 350.406709 
L 167.907987 404.103022 
z
" style="fill:#c38820;stroke:#303030;stroke-linejoin:miter;"/>
   </g>
   <g id="patch_17">
    <path clip-path="url(#p2d379bd69c)" d="M 241.47332 365.639686 
L 313.567347 365.639686 
L 313.567347 341.767205 
L 241.47332 341.767205 
L 241.47332 365.639686 
z
" style="fill:#158b6a;stroke:#303030;stroke-linejoin:miter;"/>
   </g>
   <g id="patch_18">
    <path clip-path="url(#p2d379bd69c)" d="M 370.212653 353.87848 
L 442.30668 353.87848 
L 442.30668 336.052061 
L 370.212653 336.052061 
L 370.212653 353.87848 
z
" style="fill:#176d9c;stroke:#303030;stroke-linejoin:miter;"/>
   </g>
   <g id="patch_19">
    <path clip-path="url(#p2d379bd69c)" d="M 443.777987 360.704966 
L 515.872013 360.704966 
L 515.872013 343.267038 
L 443.777987 343.267038 
L 443.777987 360.704966 
z
" style="fill:#c38820;stroke:#303030;stroke-linejoin:miter;"/>
   </g>
   <g id="patch_20">
    <path clip-path="url(#p2d379bd69c)" d="M 517.34332 347.417146 
L 589.437347 347.417146 
L 589.437347 332.900493 
L 517.34332 332.900493 
L 517.34332 347.417146 
z
" style="fill:#158b6a;stroke:#303030;stroke-linejoin:miter;"/>
   </g>
   <g id="PathCollection_10"/>
   <g id="PathCollection_11"/>
   <g id="PathCollection_12"/>
   <g id="patch_21">
    <path clip-path="url(#p2d379bd69c)" d="M 203.955 682.874406 
L 203.955 682.874406 
L 203.955 682.874406 
L 203.955 682.874406 
z
" style="fill:#176d9c;stroke:#303030;stroke-linejoin:miter;stroke-width:0.5;"/>
   </g>
   <g id="patch_22">
    <path clip-path="url(#p2d379bd69c)" d="M 203.955 682.874406 
L 203.955 682.874406 
L 203.955 682.874406 
L 203.955 682.874406 
z
" style="fill:#c38820;stroke:#303030;stroke-linejoin:miter;stroke-width:0.5;"/>
   </g>
   <g id="patch_23">
    <path clip-path="url(#p2d379bd69c)" d="M 203.955 682.874406 
L 203.955 682.874406 
L 203.955 682.874406 
L 203.955 682.874406 
z
" style="fill:#158b6a;stroke:#303030;stroke-linejoin:miter;stroke-width:0.5;"/>
   </g>
   <g id="line2d_37">
    <path clip-path="url(#p2d379bd69c)" d="M 130.389667 384.903854 
L 130.389667 409.664075 
" style="fill:none;stroke:#303030;stroke-linecap:round;"/>
   </g>
   <g id="line2d_38">
    <path clip-path="url(#p2d379bd69c)" d="M 130.389667 357.088653 
L 130.389667 330.00158 
" style="fill:none;stroke:#303030;stroke-linecap:round;"/>
   </g>
   <g id="line2d_39">
    <path clip-path="url(#p2d379bd69c)" d="M 112.36616 409.664075 
L 148.413173 409.664075 
" style="fill:none;stroke:#303030;stroke-linecap:round;"/>
   </g>
   <g id="line2d_40">
    <path clip-path="url(#p2d379bd69c)" d="M 112.36616 330.00158 
L 148.413173 330.00158 
" style="fill:none;stroke:#303030;stroke-linecap:round;"/>
   </g>
   <g id="line2d_41">
    <path clip-path="url(#p2d379bd69c)" d="M 203.955 404.103022 
L 203.955 419.966717 
" style="fill:none;stroke:#303030;stroke-linecap:round;"/>
   </g>
   <g id="line2d_42">
    <path clip-path="url(#p2d379bd69c)" d="M 203.955 350.406709 
L 203.955 329.992325 
" style="fill:none;stroke:#303030;stroke-linecap:round;"/>
   </g>
   <g id="line2d_43">
    <path clip-path="url(#p2d379bd69c)" d="M 185.931493 419.966717 
L 221.978507 419.966717 
" style="fill:none;stroke:#303030;stroke-linecap:round;"/>
   </g>
   <g id="line2d_44">
    <path clip-path="url(#p2d379bd69c)" d="M 185.931493 329.992325 
L 221.978507 329.992325 
" style="fill:none;stroke:#303030;stroke-linecap:round;"/>
   </g>
   <g id="line2d_45">
    <path clip-path="url(#p2d379bd69c)" d="M 277.520333 365.639686 
L 277.520333 378.324186 
" style="fill:none;stroke:#303030;stroke-linecap:round;"/>
   </g>
   <g id="line2d_46">
    <path clip-path="url(#p2d379bd69c)" d="M 277.520333 341.767205 
L 277.520333 325.944512 
" style="fill:none;stroke:#303030;stroke-linecap:round;"/>
   </g>
   <g id="line2d_47">
    <path clip-path="url(#p2d379bd69c)" d="M 259.496827 378.324186 
L 295.54384 378.324186 
" style="fill:none;stroke:#303030;stroke-linecap:round;"/>
   </g>
   <g id="line2d_48">
    <path clip-path="url(#p2d379bd69c)" d="M 259.496827 325.944512 
L 295.54384 325.944512 
" style="fill:none;stroke:#303030;stroke-linecap:round;"/>
   </g>
   <g id="line2d_49">
    <path clip-path="url(#p2d379bd69c)" d="M 406.259667 353.87848 
L 406.259667 362.530608 
" style="fill:none;stroke:#303030;stroke-linecap:round;"/>
   </g>
   <g id="line2d_50">
    <path clip-path="url(#p2d379bd69c)" d="M 406.259667 336.052061 
L 406.259667 328.980499 
" style="fill:none;stroke:#303030;stroke-linecap:round;"/>
   </g>
   <g id="line2d_51">
    <path clip-path="url(#p2d379bd69c)" d="M 388.23616 362.530608 
L 424.283173 362.530608 
" style="fill:none;stroke:#303030;stroke-linecap:round;"/>
   </g>
   <g id="line2d_52">
    <path clip-path="url(#p2d379bd69c)" d="M 388.23616 328.980499 
L 424.283173 328.980499 
" style="fill:none;stroke:#303030;stroke-linecap:round;"/>
   </g>
   <g id="line2d_53">
    <path clip-path="url(#p2d379bd69c)" d="M 479.825 360.704966 
L 479.825 377.535821 
" style="fill:none;stroke:#303030;stroke-linecap:round;"/>
   </g>
   <g id="line2d_54">
    <path clip-path="url(#p2d379bd69c)" d="M 479.825 343.267038 
L 479.825 322.85316 
" style="fill:none;stroke:#303030;stroke-linecap:round;"/>
   </g>
   <g id="line2d_55">
    <path clip-path="url(#p2d379bd69c)" d="M 461.801493 377.535821 
L 497.848507 377.535821 
" style="fill:none;stroke:#303030;stroke-linecap:round;"/>
   </g>
   <g id="line2d_56">
    <path clip-path="url(#p2d379bd69c)" d="M 461.801493 322.85316 
L 497.848507 322.85316 
" style="fill:none;stroke:#303030;stroke-linecap:round;"/>
   </g>
   <g id="line2d_57">
    <path clip-path="url(#p2d379bd69c)" d="M 553.390333 347.417146 
L 553.390333 359.284542 
" style="fill:none;stroke:#303030;stroke-linecap:round;"/>
   </g>
   <g id="line2d_58">
    <path clip-path="url(#p2d379bd69c)" d="M 553.390333 332.900493 
L 553.390333 329.186103 
" style="fill:none;stroke:#303030;stroke-linecap:round;"/>
   </g>
   <g id="line2d_59">
    <path clip-path="url(#p2d379bd69c)" d="M 535.366827 359.284542 
L 571.41384 359.284542 
" style="fill:none;stroke:#303030;stroke-linecap:round;"/>
   </g>
   <g id="line2d_60">
    <path clip-path="url(#p2d379bd69c)" d="M 535.366827 329.186103 
L 571.41384 329.186103 
" style="fill:none;stroke:#303030;stroke-linecap:round;"/>
   </g>
   <g id="line2d_61">
    <path clip-path="url(#p2d379bd69c)" d="M 94.342653 368.385137 
L 166.43668 368.385137 
" style="fill:none;stroke:#303030;stroke-linecap:round;"/>
   </g>
   <g id="line2d_62">
    <path clip-path="url(#p2d379bd69c)" d="M 167.907987 367.714729 
L 240.002013 367.714729 
" style="fill:none;stroke:#303030;stroke-linecap:round;"/>
   </g>
   <g id="line2d_63">
    <path clip-path="url(#p2d379bd69c)" d="M 241.47332 354.952722 
L 313.567347 354.952722 
" style="fill:none;stroke:#303030;stroke-linecap:round;"/>
   </g>
   <g id="line2d_64">
    <path clip-path="url(#p2d379bd69c)" d="M 370.212653 345.185263 
L 442.30668 345.185263 
" style="fill:none;stroke:#303030;stroke-linecap:round;"/>
   </g>
   <g id="line2d_65">
    <path clip-path="url(#p2d379bd69c)" d="M 443.777987 345.127498 
L 515.872013 345.127498 
" style="fill:none;stroke:#303030;stroke-linecap:round;"/>
   </g>
   <g id="line2d_66">
    <path clip-path="url(#p2d379bd69c)" d="M 517.34332 335.19507 
L 589.437347 335.19507 
" style="fill:none;stroke:#303030;stroke-linecap:round;"/>
   </g>
   <g id="patch_24">
    <path d="M 66.02 520.42 
L 66.02 311.57 
" style="fill:none;stroke:#ffffff;stroke-linecap:square;stroke-linejoin:miter;stroke-width:1.25;"/>
   </g>
   <g id="patch_25">
    <path d="M 66.02 520.42 
L 617.76 520.42 
" style="fill:none;stroke:#ffffff;stroke-linecap:square;stroke-linejoin:miter;stroke-width:1.25;"/>
   </g>
   <g id="PathCollection_13">
    <defs>
     <path d="M 0 2.5 
C 0.663008 2.5 1.29895 2.236584 1.767767 1.767767 
C 2.236584 1.29895 2.5 0.663008 2.5 0 
C 2.5 -0.663008 2.236584 -1.29895 1.767767 -1.767767 
C 1.29895 -2.236584 0.663008 -2.5 0 -2.5 
C -0.663008 -2.5 -1.29895 -2.236584 -1.767767 -1.767767 
C -2.236584 -1.29895 -2.5 -0.663008 -2.5 0 
C -2.5 0.663008 -2.236584 1.29895 -1.767767 1.767767 
C -1.29895 2.236584 -0.663008 2.5 0 2.5 
z
" id="C6_0_411bca3dd2"/>
    </defs>
    <g clip-path="url(#p2d379bd69c)">
     <use style="fill:#0173b2;stroke:#000000;" x="127.812895" xlink:href="#C6_0_411bca3dd2" y="330.91349"/>
    </g>
    <g clip-path="url(#p2d379bd69c)">
     <use style="fill:#0173b2;stroke:#000000;" x="135.43051" xlink:href="#C6_0_411bca3dd2" y="409.664075"/>
    </g>
    <g clip-path="url(#p2d379bd69c)">
     <use style="fill:#0173b2;stroke:#000000;" x="126.869045" xlink:href="#C6_0_411bca3dd2" y="358.458872"/>
    </g>
    <g clip-path="url(#p2d379bd69c)">
     <use style="fill:#0173b2;stroke:#000000;" x="132.649231" xlink:href="#C6_0_411bca3dd2" y="377.159604"/>
    </g>
    <g clip-path="url(#p2d379bd69c)">
     <use style="fill:#0173b2;stroke:#000000;" x="134.981542" xlink:href="#C6_0_411bca3dd2" y="348.181675"/>
    </g>
    <g clip-path="url(#p2d379bd69c)">
     <use style="fill:#0173b2;stroke:#000000;" x="129.526463" xlink:href="#C6_0_411bca3dd2" y="439.419936"/>
    </g>
    <g clip-path="url(#p2d379bd69c)">
     <use style="fill:#0173b2;stroke:#000000;" x="128.15004" xlink:href="#C6_0_411bca3dd2" y="390.430636"/>
    </g>
    <g clip-path="url(#p2d379bd69c)">
     <use style="fill:#0173b2;stroke:#000000;" x="134.563782" xlink:href="#C6_0_411bca3dd2" y="364.283854"/>
    </g>
    <g clip-path="url(#p2d379bd69c)">
     <use style="fill:#0173b2;stroke:#000000;" x="126.991462" xlink:href="#C6_0_411bca3dd2" y="373.92063"/>
    </g>
    <g clip-path="url(#p2d379bd69c)">
     <use style="fill:#0173b2;stroke:#000000;" x="123.054744" xlink:href="#C6_0_411bca3dd2" y="383.871493"/>
    </g>
    <g clip-path="url(#p2d379bd69c)">
     <use style="fill:#0173b2;stroke:#000000;" x="126.987015" xlink:href="#C6_0_411bca3dd2" y="354.666976"/>
    </g>
    <g clip-path="url(#p2d379bd69c)">
     <use style="fill:#0173b2;stroke:#000000;" x="131.533103" xlink:href="#C6_0_411bca3dd2" y="388.000938"/>
    </g>
    <g clip-path="url(#p2d379bd69c)">
     <use style="fill:#0173b2;stroke:#000000;" x="123.863389" xlink:href="#C6_0_411bca3dd2" y="357.895878"/>
    </g>
    <g clip-path="url(#p2d379bd69c)">
     <use style="fill:#0173b2;stroke:#000000;" x="121.593697" xlink:href="#C6_0_411bca3dd2" y="330.00158"/>
    </g>
    <g clip-path="url(#p2d379bd69c)">
     <use style="fill:#0173b2;stroke:#000000;" x="135.444627" xlink:href="#C6_0_411bca3dd2" y="372.486419"/>
    </g>
    <g clip-path="url(#p2d379bd69c)">
     <use style="fill:#0173b2;stroke:#000000;" x="133.134224" xlink:href="#C6_0_411bca3dd2" y="358.646184"/>
    </g>
   </g>
   <g id="PathCollection_14">
    <defs>
     <path d="M 0 2.5 
C 0.663008 2.5 1.29895 2.236584 1.767767 1.767767 
C 2.236584 1.29895 2.5 0.663008 2.5 0 
C 2.5 -0.663008 2.236584 -1.29895 1.767767 -1.767767 
C 1.29895 -2.236584 0.663008 -2.5 0 -2.5 
C -0.663008 -2.5 -1.29895 -2.236584 -1.767767 -1.767767 
C -2.236584 -1.29895 -2.5 -0.663008 -2.5 0 
C -2.5 0.663008 -2.236584 1.29895 -1.767767 1.767767 
C -1.29895 2.236584 -0.663008 2.5 0 2.5 
z
" id="C7_0_92ef7f5ef5"/>
    </defs>
    <g clip-path="url(#p2d379bd69c)">
     <use style="fill:#de8f05;stroke:#000000;" x="205.719652" xlink:href="#C7_0_92ef7f5ef5" y="329.992325"/>
    </g>
    <g clip-path="url(#p2d379bd69c)">
     <use style="fill:#de8f05;stroke:#000000;" x="198.274085" xlink:href="#C7_0_92ef7f5ef5" y="402.960538"/>
    </g>
    <g clip-path="url(#p2d379bd69c)">
     <use style="fill:#de8f05;stroke:#000000;" x="207.539748" xlink:href="#C7_0_92ef7f5ef5" y="414.331625"/>
    </g>
    <g clip-path="url(#p2d379bd69c)">
     <use style="fill:#de8f05;stroke:#000000;" x="198.692472" xlink:href="#C7_0_92ef7f5ef5" y="419.966717"/>
    </g>
    <g clip-path="url(#p2d379bd69c)">
     <use style="fill:#de8f05;stroke:#000000;" x="210.824634" xlink:href="#C7_0_92ef7f5ef5" y="334.762172"/>
    </g>
    <g clip-path="url(#p2d379bd69c)">
     <use style="fill:#de8f05;stroke:#000000;" x="195.043092" xlink:href="#C7_0_92ef7f5ef5" y="509.227583"/>
    </g>
    <g clip-path="url(#p2d379bd69c)">
     <use style="fill:#de8f05;stroke:#000000;" x="199.94132" xlink:href="#C7_0_92ef7f5ef5" y="357.909044"/>
    </g>
    <g clip-path="url(#p2d379bd69c)">
     <use style="fill:#de8f05;stroke:#000000;" x="199.391197" xlink:href="#C7_0_92ef7f5ef5" y="351.865033"/>
    </g>
    <g clip-path="url(#p2d379bd69c)">
     <use style="fill:#de8f05;stroke:#000000;" x="198.437146" xlink:href="#C7_0_92ef7f5ef5" y="382.86898"/>
    </g>
    <g clip-path="url(#p2d379bd69c)">
     <use style="fill:#de8f05;stroke:#000000;" x="196.911153" xlink:href="#C7_0_92ef7f5ef5" y="362.631235"/>
    </g>
    <g clip-path="url(#p2d379bd69c)">
     <use style="fill:#de8f05;stroke:#000000;" x="195.814117" xlink:href="#C7_0_92ef7f5ef5" y="355.453217"/>
    </g>
    <g clip-path="url(#p2d379bd69c)">
     <use style="fill:#de8f05;stroke:#000000;" x="195.610365" xlink:href="#C7_0_92ef7f5ef5" y="407.530474"/>
    </g>
    <g clip-path="url(#p2d379bd69c)">
     <use style="fill:#de8f05;stroke:#000000;" x="201.799276" xlink:href="#C7_0_92ef7f5ef5" y="342.045145"/>
    </g>
    <g clip-path="url(#p2d379bd69c)">
     <use style="fill:#de8f05;stroke:#000000;" x="205.565443" xlink:href="#C7_0_92ef7f5ef5" y="346.031738"/>
    </g>
    <g clip-path="url(#p2d379bd69c)">
     <use style="fill:#de8f05;stroke:#000000;" x="210.449766" xlink:href="#C7_0_92ef7f5ef5" y="372.798223"/>
    </g>
    <g clip-path="url(#p2d379bd69c)">
     <use style="fill:#de8f05;stroke:#000000;" x="210.582786" xlink:href="#C7_0_92ef7f5ef5" y="384.516183"/>
    </g>
   </g>
   <g id="PathCollection_15">
    <defs>
     <path d="M 0 2.5 
C 0.663008 2.5 1.29895 2.236584 1.767767 1.767767 
C 2.236584 1.29895 2.5 0.663008 2.5 0 
C 2.5 -0.663008 2.236584 -1.29895 1.767767 -1.767767 
C 1.29895 -2.236584 0.663008 -2.5 0 -2.5 
C -0.663008 -2.5 -1.29895 -2.236584 -1.767767 -1.767767 
C -2.236584 -1.29895 -2.5 -0.663008 -2.5 0 
C -2.5 0.663008 -2.236584 1.29895 -1.767767 1.767767 
C -1.29895 2.236584 -0.663008 2.5 0 2.5 
z
" id="C8_0_c539655281"/>
    </defs>
    <g clip-path="url(#p2d379bd69c)">
     <use style="fill:#029e73;stroke:#000000;" x="277.464751" xlink:href="#C8_0_c539655281" y="337.729462"/>
    </g>
    <g clip-path="url(#p2d379bd69c)">
     <use style="fill:#029e73;stroke:#000000;" x="274.069319" xlink:href="#C8_0_c539655281" y="366.206319"/>
    </g>
    <g clip-path="url(#p2d379bd69c)">
     <use style="fill:#029e73;stroke:#000000;" x="282.667976" xlink:href="#C8_0_c539655281" y="345.356336"/>
    </g>
    <g clip-path="url(#p2d379bd69c)">
     <use style="fill:#029e73;stroke:#000000;" x="269.389157" xlink:href="#C8_0_c539655281" y="378.324186"/>
    </g>
    <g clip-path="url(#p2d379bd69c)">
     <use style="fill:#029e73;stroke:#000000;" x="276.67314" xlink:href="#C8_0_c539655281" y="335.873639"/>
    </g>
    <g clip-path="url(#p2d379bd69c)">
     <use style="fill:#029e73;stroke:#000000;" x="281.205463" xlink:href="#C8_0_c539655281" y="375.933399"/>
    </g>
    <g clip-path="url(#p2d379bd69c)">
     <use style="fill:#029e73;stroke:#000000;" x="278.16745" xlink:href="#C8_0_c539655281" y="365.450809"/>
    </g>
    <g clip-path="url(#p2d379bd69c)">
     <use style="fill:#029e73;stroke:#000000;" x="269.575213" xlink:href="#C8_0_c539655281" y="357.215373"/>
    </g>
    <g clip-path="url(#p2d379bd69c)">
     <use style="fill:#029e73;stroke:#000000;" x="280.71082" xlink:href="#C8_0_c539655281" y="352.690071"/>
    </g>
    <g clip-path="url(#p2d379bd69c)">
     <use style="fill:#029e73;stroke:#000000;" x="279.217897" xlink:href="#C8_0_c539655281" y="349.806272"/>
    </g>
    <g clip-path="url(#p2d379bd69c)">
     <use style="fill:#029e73;stroke:#000000;" x="269.919876" xlink:href="#C8_0_c539655281" y="361.959677"/>
    </g>
    <g clip-path="url(#p2d379bd69c)">
     <use style="fill:#029e73;stroke:#000000;" x="269.85912" xlink:href="#C8_0_c539655281" y="366.518445"/>
    </g>
    <g clip-path="url(#p2d379bd69c)">
     <use style="fill:#029e73;stroke:#000000;" x="268.708021" xlink:href="#C8_0_c539655281" y="342.334418"/>
    </g>
    <g clip-path="url(#p2d379bd69c)">
     <use style="fill:#029e73;stroke:#000000;" x="274.867821" xlink:href="#C8_0_c539655281" y="325.944512"/>
    </g>
    <g clip-path="url(#p2d379bd69c)">
     <use style="fill:#029e73;stroke:#000000;" x="272.328838" xlink:href="#C8_0_c539655281" y="340.065565"/>
    </g>
    <g clip-path="url(#p2d379bd69c)">
     <use style="fill:#029e73;stroke:#000000;" x="268.755958" xlink:href="#C8_0_c539655281" y="359.794802"/>
    </g>
   </g>
   <g id="PathCollection_16">
    <defs>
     <path d="M 0 2.5 
C 0.663008 2.5 1.29895 2.236584 1.767767 1.767767 
C 2.236584 1.29895 2.5 0.663008 2.5 0 
C 2.5 -0.663008 2.236584 -1.29895 1.767767 -1.767767 
C 1.29895 -2.236584 0.663008 -2.5 0 -2.5 
C -0.663008 -2.5 -1.29895 -2.236584 -1.767767 -1.767767 
C -2.236584 -1.29895 -2.5 -0.663008 -2.5 0 
C -2.5 0.663008 -2.236584 1.29895 -1.767767 1.767767 
C -1.29895 2.236584 -0.663008 2.5 0 2.5 
z
" id="C9_0_02666acb63"/>
    </defs>
    <g clip-path="url(#p2d379bd69c)">
     <use style="fill:#0173b2;stroke:#000000;" x="401.339095" xlink:href="#C9_0_02666acb63" y="330.366384"/>
    </g>
    <g clip-path="url(#p2d379bd69c)">
     <use style="fill:#0173b2;stroke:#000000;" x="397.886739" xlink:href="#C9_0_02666acb63" y="341.140088"/>
    </g>
    <g clip-path="url(#p2d379bd69c)">
     <use style="fill:#0173b2;stroke:#000000;" x="411.547604" xlink:href="#C9_0_02666acb63" y="334.356052"/>
    </g>
    <g clip-path="url(#p2d379bd69c)">
     <use style="fill:#0173b2;stroke:#000000;" x="406.634959" xlink:href="#C9_0_02666acb63" y="331.128982"/>
    </g>
    <g clip-path="url(#p2d379bd69c)">
     <use style="fill:#0173b2;stroke:#000000;" x="403.41289" xlink:href="#C9_0_02666acb63" y="401.807555"/>
    </g>
    <g clip-path="url(#p2d379bd69c)">
     <use style="fill:#0173b2;stroke:#000000;" x="414.247677" xlink:href="#C9_0_02666acb63" y="341.412265"/>
    </g>
    <g clip-path="url(#p2d379bd69c)">
     <use style="fill:#0173b2;stroke:#000000;" x="406.155956" xlink:href="#C9_0_02666acb63" y="351.583504"/>
    </g>
    <g clip-path="url(#p2d379bd69c)">
     <use style="fill:#0173b2;stroke:#000000;" x="405.326911" xlink:href="#C9_0_02666acb63" y="362.530608"/>
    </g>
    <g clip-path="url(#p2d379bd69c)">
     <use style="fill:#0173b2;stroke:#000000;" x="402.536331" xlink:href="#C9_0_02666acb63" y="345.614356"/>
    </g>
    <g clip-path="url(#p2d379bd69c)">
     <use style="fill:#0173b2;stroke:#000000;" x="405.989605" xlink:href="#C9_0_02666acb63" y="346.615665"/>
    </g>
    <g clip-path="url(#p2d379bd69c)">
     <use style="fill:#0173b2;stroke:#000000;" x="403.904614" xlink:href="#C9_0_02666acb63" y="355.670811"/>
    </g>
    <g clip-path="url(#p2d379bd69c)">
     <use style="fill:#0173b2;stroke:#000000;" x="398.190811" xlink:href="#C9_0_02666acb63" y="328.980499"/>
    </g>
    <g clip-path="url(#p2d379bd69c)">
     <use style="fill:#0173b2;stroke:#000000;" x="399.742277" xlink:href="#C9_0_02666acb63" y="344.756169"/>
    </g>
    <g clip-path="url(#p2d379bd69c)">
     <use style="fill:#0173b2;stroke:#000000;" x="415.086608" xlink:href="#C9_0_02666acb63" y="354.643472"/>
    </g>
   </g>
   <g id="PathCollection_17">
    <defs>
     <path d="M 0 2.5 
C 0.663008 2.5 1.29895 2.236584 1.767767 1.767767 
C 2.236584 1.29895 2.5 0.663008 2.5 0 
C 2.5 -0.663008 2.236584 -1.29895 1.767767 -1.767767 
C 1.29895 -2.236584 0.663008 -2.5 0 -2.5 
C -0.663008 -2.5 -1.29895 -2.236584 -1.767767 -1.767767 
C -2.236584 -1.29895 -2.5 -0.663008 -2.5 0 
C -2.5 0.663008 -2.236584 1.29895 -1.767767 1.767767 
C -1.29895 2.236584 -0.663008 2.5 0 2.5 
z
" id="Ca_0_fee2fbd2db"/>
    </defs>
    <g clip-path="url(#p2d379bd69c)">
     <use style="fill:#de8f05;stroke:#000000;" x="474.478768" xlink:href="#Ca_0_fee2fbd2db" y="329.80756"/>
    </g>
    <g clip-path="url(#p2d379bd69c)">
     <use style="fill:#de8f05;stroke:#000000;" x="482.002618" xlink:href="#Ca_0_fee2fbd2db" y="344.797405"/>
    </g>
    <g clip-path="url(#p2d379bd69c)">
     <use style="fill:#de8f05;stroke:#000000;" x="483.392744" xlink:href="#Ca_0_fee2fbd2db" y="344.42703"/>
    </g>
    <g clip-path="url(#p2d379bd69c)">
     <use style="fill:#de8f05;stroke:#000000;" x="475.809103" xlink:href="#Ca_0_fee2fbd2db" y="322.85316"/>
    </g>
    <g clip-path="url(#p2d379bd69c)">
     <use style="fill:#de8f05;stroke:#000000;" x="479.781408" xlink:href="#Ca_0_fee2fbd2db" y="422.127632"/>
    </g>
    <g clip-path="url(#p2d379bd69c)">
     <use style="fill:#de8f05;stroke:#000000;" x="471.422987" xlink:href="#Ca_0_fee2fbd2db" y="359.612098"/>
    </g>
    <g clip-path="url(#p2d379bd69c)">
     <use style="fill:#de8f05;stroke:#000000;" x="482.735816" xlink:href="#Ca_0_fee2fbd2db" y="366.101408"/>
    </g>
    <g clip-path="url(#p2d379bd69c)">
     <use style="fill:#de8f05;stroke:#000000;" x="473.55811" xlink:href="#Ca_0_fee2fbd2db" y="377.535821"/>
    </g>
    <g clip-path="url(#p2d379bd69c)">
     <use style="fill:#de8f05;stroke:#000000;" x="471.600131" xlink:href="#Ca_0_fee2fbd2db" y="349.250958"/>
    </g>
    <g clip-path="url(#p2d379bd69c)">
     <use style="fill:#de8f05;stroke:#000000;" x="474.8051" xlink:href="#Ca_0_fee2fbd2db" y="343.126897"/>
    </g>
    <g clip-path="url(#p2d379bd69c)">
     <use style="fill:#de8f05;stroke:#000000;" x="474.089983" xlink:href="#Ca_0_fee2fbd2db" y="343.68746"/>
    </g>
    <g clip-path="url(#p2d379bd69c)">
     <use style="fill:#de8f05;stroke:#000000;" x="470.708902" xlink:href="#Ca_0_fee2fbd2db" y="345.457591"/>
    </g>
    <g clip-path="url(#p2d379bd69c)">
     <use style="fill:#de8f05;stroke:#000000;" x="488.917247" xlink:href="#Ca_0_fee2fbd2db" y="361.069255"/>
    </g>
    <g clip-path="url(#p2d379bd69c)">
     <use style="fill:#de8f05;stroke:#000000;" x="481.009405" xlink:href="#Ca_0_fee2fbd2db" y="337.33196"/>
    </g>
   </g>
   <g id="PathCollection_18">
    <defs>
     <path d="M 0 2.5 
C 0.663008 2.5 1.29895 2.236584 1.767767 1.767767 
C 2.236584 1.29895 2.5 0.663008 2.5 0 
C 2.5 -0.663008 2.236584 -1.29895 1.767767 -1.767767 
C 1.29895 -2.236584 0.663008 -2.5 0 -2.5 
C -0.663008 -2.5 -1.29895 -2.236584 -1.767767 -1.767767 
C -2.236584 -1.29895 -2.5 -0.663008 -2.5 0 
C -2.5 0.663008 -2.236584 1.29895 -1.767767 1.767767 
C -1.29895 2.236584 -0.663008 2.5 0 2.5 
z
" id="Cb_0_43a1943d98"/>
    </defs>
    <g clip-path="url(#p2d379bd69c)">
     <use style="fill:#029e73;stroke:#000000;" x="549.357884" xlink:href="#Cb_0_43a1943d98" y="350.23722"/>
    </g>
    <g clip-path="url(#p2d379bd69c)">
     <use style="fill:#029e73;stroke:#000000;" x="555.318784" xlink:href="#Cb_0_43a1943d98" y="341.31694"/>
    </g>
    <g clip-path="url(#p2d379bd69c)">
     <use style="fill:#029e73;stroke:#000000;" x="547.245633" xlink:href="#Cb_0_43a1943d98" y="329.186103"/>
    </g>
    <g clip-path="url(#p2d379bd69c)">
     <use style="fill:#029e73;stroke:#000000;" x="559.020736" xlink:href="#Cb_0_43a1943d98" y="331.521977"/>
    </g>
    <g clip-path="url(#p2d379bd69c)">
     <use style="fill:#029e73;stroke:#000000;" x="562.00655" xlink:href="#Cb_0_43a1943d98" y="359.284542"/>
    </g>
    <g clip-path="url(#p2d379bd69c)">
     <use style="fill:#029e73;stroke:#000000;" x="551.050454" xlink:href="#Cb_0_43a1943d98" y="358.704389"/>
    </g>
    <g clip-path="url(#p2d379bd69c)">
     <use style="fill:#029e73;stroke:#000000;" x="561.444324" xlink:href="#Cb_0_43a1943d98" y="334.550081"/>
    </g>
    <g clip-path="url(#p2d379bd69c)">
     <use style="fill:#029e73;stroke:#000000;" x="556.444986" xlink:href="#Cb_0_43a1943d98" y="333.079815"/>
    </g>
    <g clip-path="url(#p2d379bd69c)">
     <use style="fill:#029e73;stroke:#000000;" x="550.979757" xlink:href="#Cb_0_43a1943d98" y="332.840719"/>
    </g>
    <g clip-path="url(#p2d379bd69c)">
     <use style="fill:#029e73;stroke:#000000;" x="545.678244" xlink:href="#Cb_0_43a1943d98" y="336.525799"/>
    </g>
    <g clip-path="url(#p2d379bd69c)">
     <use style="fill:#029e73;stroke:#000000;" x="545.990443" xlink:href="#Cb_0_43a1943d98" y="335.366715"/>
    </g>
    <g clip-path="url(#p2d379bd69c)">
     <use style="fill:#029e73;stroke:#000000;" x="555.430331" xlink:href="#Cb_0_43a1943d98" y="335.023425"/>
    </g>
    <g clip-path="url(#p2d379bd69c)">
     <use style="fill:#029e73;stroke:#000000;" x="561.124426" xlink:href="#Cb_0_43a1943d98" y="349.450548"/>
    </g>
    <g clip-path="url(#p2d379bd69c)">
     <use style="fill:#029e73;stroke:#000000;" x="549.348005" xlink:href="#Cb_0_43a1943d98" y="330.895059"/>
    </g>
   </g>
   <g id="text_10">
    <!-- Powerbars Pose -->
    <defs>
     <path d="M 16.15625 0 
L 0.296875 51.859375 
L 9.375 51.859375 
L 17.625 21.921875 
L 20.703125 10.796875 
Q 20.90625 11.625 23.390625 21.484375 
L 31.640625 51.859375 
L 40.671875 51.859375 
L 48.4375 21.78125 
L 51.03125 11.859375 
L 54 21.875 
L 62.890625 51.859375 
L 71.4375 51.859375 
L 55.21875 0 
L 46.09375 0 
L 37.84375 31.0625 
L 35.84375 39.890625 
L 25.34375 0 
z
" id="ArialMT-119"/>
     <path d="M 14.703125 0 
L 6.546875 0 
L 6.546875 71.578125 
L 15.328125 71.578125 
L 15.328125 46.046875 
Q 20.90625 53.03125 29.546875 53.03125 
Q 34.328125 53.03125 38.59375 51.09375 
Q 42.875 49.171875 45.625 45.671875 
Q 48.390625 42.1875 49.953125 37.25 
Q 51.515625 32.328125 51.515625 26.703125 
Q 51.515625 13.375 44.921875 6.09375 
Q 38.328125 -1.171875 29.109375 -1.171875 
Q 19.921875 -1.171875 14.703125 6.5 
z
M 14.59375 26.3125 
Q 14.59375 17 17.140625 12.84375 
Q 21.296875 6.0625 28.375 6.0625 
Q 34.125 6.0625 38.328125 11.0625 
Q 42.53125 16.0625 42.53125 25.984375 
Q 42.53125 36.140625 38.5 40.96875 
Q 34.46875 45.796875 28.765625 45.796875 
Q 23 45.796875 18.796875 40.796875 
Q 14.59375 35.796875 14.59375 26.3125 
z
" id="ArialMT-98"/>
     <path d="M 40.4375 6.390625 
Q 35.546875 2.25 31.03125 0.53125 
Q 26.515625 -1.171875 21.34375 -1.171875 
Q 12.796875 -1.171875 8.203125 3 
Q 3.609375 7.171875 3.609375 13.671875 
Q 3.609375 17.484375 5.34375 20.625 
Q 7.078125 23.78125 9.890625 25.6875 
Q 12.703125 27.59375 16.21875 28.5625 
Q 18.796875 29.25 24.03125 29.890625 
Q 34.671875 31.15625 39.703125 32.90625 
Q 39.75 34.71875 39.75 35.203125 
Q 39.75 40.578125 37.25 42.78125 
Q 33.890625 45.75 27.25 45.75 
Q 21.046875 45.75 18.09375 43.578125 
Q 15.140625 41.40625 13.71875 35.890625 
L 5.125 37.0625 
Q 6.296875 42.578125 8.984375 45.96875 
Q 11.671875 49.359375 16.75 51.1875 
Q 21.828125 53.03125 28.515625 53.03125 
Q 35.15625 53.03125 39.296875 51.46875 
Q 43.453125 49.90625 45.40625 47.53125 
Q 47.359375 45.171875 48.140625 41.546875 
Q 48.578125 39.3125 48.578125 33.453125 
L 48.578125 21.734375 
Q 48.578125 9.46875 49.140625 6.21875 
Q 49.703125 2.984375 51.375 0 
L 42.1875 0 
Q 40.828125 2.734375 40.4375 6.390625 
z
M 39.703125 26.03125 
Q 34.90625 24.078125 25.34375 22.703125 
Q 19.921875 21.921875 17.671875 20.9375 
Q 15.4375 19.96875 14.203125 18.09375 
Q 12.984375 16.21875 12.984375 13.921875 
Q 12.984375 10.40625 15.640625 8.0625 
Q 18.3125 5.71875 23.4375 5.71875 
Q 28.515625 5.71875 32.46875 7.9375 
Q 36.421875 10.15625 38.28125 14.015625 
Q 39.703125 17 39.703125 22.796875 
z
" id="ArialMT-97"/>
    </defs>
    <g style="fill:#262626;" transform="translate(253.85125 291.57)scale(0.24 -0.24)">
     <use xlink:href="#ArialMT-80"/>
     <use x="66.699219" xlink:href="#ArialMT-111"/>
     <use x="122.314453" xlink:href="#ArialMT-119"/>
     <use x="194.53125" xlink:href="#ArialMT-101"/>
     <use x="250.146484" xlink:href="#ArialMT-114"/>
     <use x="283.447266" xlink:href="#ArialMT-98"/>
     <use x="339.0625" xlink:href="#ArialMT-97"/>
     <use x="394.677734" xlink:href="#ArialMT-114"/>
     <use x="427.978516" xlink:href="#ArialMT-115"/>
     <use x="477.978516" xlink:href="#ArialMT-32"/>
     <use x="505.761719" xlink:href="#ArialMT-80"/>
     <use x="572.460938" xlink:href="#ArialMT-111"/>
     <use x="628.076172" xlink:href="#ArialMT-115"/>
     <use x="678.076172" xlink:href="#ArialMT-101"/>
    </g>
   </g>
   <g id="legend_1">
    <g id="patch_26">
     <path d="M 512.265 514.42 
L 609.36 514.42 
Q 611.76 514.42 611.76 512.02 
L 611.76 462.15625 
Q 611.76 459.75625 609.36 459.75625 
L 512.265 459.75625 
Q 509.865 459.75625 509.865 462.15625 
L 509.865 512.02 
Q 509.865 514.42 512.265 514.42 
z
" style="fill:#eaeaf2;opacity:0.8;stroke:#cccccc;stroke-linejoin:miter;"/>
    </g>
    <g id="patch_27">
     <path d="M 514.665 473.145625 
L 538.665 473.145625 
L 538.665 464.745625 
L 514.665 464.745625 
z
" style="fill:#176d9c;stroke:#303030;stroke-linejoin:miter;stroke-width:0.5;"/>
    </g>
    <g id="text_11">
     <!-- Distance -->
     <defs>
      <path d="M 6.640625 61.46875 
L 6.640625 71.578125 
L 15.4375 71.578125 
L 15.4375 61.46875 
z
M 6.640625 0 
L 6.640625 51.859375 
L 15.4375 51.859375 
L 15.4375 0 
z
" id="ArialMT-105"/>
     </defs>
     <g style="fill:#262626;" transform="translate(548.265 473.145625)scale(0.12 -0.12)">
      <use xlink:href="#ArialMT-68"/>
      <use x="72.216797" xlink:href="#ArialMT-105"/>
      <use x="94.433594" xlink:href="#ArialMT-115"/>
      <use x="144.433594" xlink:href="#ArialMT-116"/>
      <use x="172.216797" xlink:href="#ArialMT-97"/>
      <use x="227.832031" xlink:href="#ArialMT-110"/>
      <use x="283.447266" xlink:href="#ArialMT-99"/>
      <use x="333.447266" xlink:href="#ArialMT-101"/>
     </g>
    </g>
    <g id="patch_28">
     <path d="M 514.665 490.12 
L 538.665 490.12 
L 538.665 481.72 
L 514.665 481.72 
z
" style="fill:#c38820;stroke:#303030;stroke-linejoin:miter;stroke-width:0.5;"/>
    </g>
    <g id="text_12">
     <!-- Angle -->
     <defs>
      <path d="M 4.984375 -4.296875 
L 13.53125 -5.5625 
Q 14.0625 -9.515625 16.5 -11.328125 
Q 19.78125 -13.765625 25.4375 -13.765625 
Q 31.546875 -13.765625 34.859375 -11.328125 
Q 38.1875 -8.890625 39.359375 -4.5 
Q 40.046875 -1.8125 39.984375 6.78125 
Q 34.234375 0 25.640625 0 
Q 14.9375 0 9.078125 7.71875 
Q 3.21875 15.4375 3.21875 26.21875 
Q 3.21875 33.640625 5.90625 39.90625 
Q 8.59375 46.1875 13.6875 49.609375 
Q 18.796875 53.03125 25.6875 53.03125 
Q 34.859375 53.03125 40.828125 45.609375 
L 40.828125 51.859375 
L 48.921875 51.859375 
L 48.921875 7.03125 
Q 48.921875 -5.078125 46.453125 -10.125 
Q 44 -15.1875 38.640625 -18.109375 
Q 33.296875 -21.046875 25.484375 -21.046875 
Q 16.21875 -21.046875 10.5 -16.875 
Q 4.78125 -12.703125 4.984375 -4.296875 
z
M 12.25 26.859375 
Q 12.25 16.65625 16.296875 11.96875 
Q 20.359375 7.28125 26.46875 7.28125 
Q 32.515625 7.28125 36.609375 11.9375 
Q 40.71875 16.609375 40.71875 26.5625 
Q 40.71875 36.078125 36.5 40.90625 
Q 32.28125 45.75 26.3125 45.75 
Q 20.453125 45.75 16.34375 40.984375 
Q 12.25 36.234375 12.25 26.859375 
z
" id="ArialMT-103"/>
     </defs>
     <g style="fill:#262626;" transform="translate(548.265 490.12)scale(0.12 -0.12)">
      <use xlink:href="#ArialMT-65"/>
      <use x="66.699219" xlink:href="#ArialMT-110"/>
      <use x="122.314453" xlink:href="#ArialMT-103"/>
      <use x="177.929688" xlink:href="#ArialMT-108"/>
      <use x="200.146484" xlink:href="#ArialMT-101"/>
     </g>
    </g>
    <g id="patch_29">
     <path d="M 514.665 507.235 
L 538.665 507.235 
L 538.665 498.835 
L 514.665 498.835 
z
" style="fill:#158b6a;stroke:#303030;stroke-linejoin:miter;stroke-width:0.5;"/>
    </g>
    <g id="text_13">
     <!-- Orientation -->
     <defs>
      <path d="M 4.828125 34.859375 
Q 4.828125 52.6875 14.390625 62.765625 
Q 23.96875 72.859375 39.109375 72.859375 
Q 49.03125 72.859375 56.984375 68.109375 
Q 64.9375 63.375 69.109375 54.90625 
Q 73.296875 46.4375 73.296875 35.6875 
Q 73.296875 24.8125 68.890625 16.21875 
Q 64.5 7.625 56.4375 3.203125 
Q 48.390625 -1.21875 39.0625 -1.21875 
Q 28.953125 -1.21875 20.984375 3.65625 
Q 13.03125 8.546875 8.921875 16.984375 
Q 4.828125 25.4375 4.828125 34.859375 
z
M 14.59375 34.71875 
Q 14.59375 21.78125 21.546875 14.328125 
Q 28.515625 6.890625 39.015625 6.890625 
Q 49.703125 6.890625 56.609375 14.40625 
Q 63.53125 21.921875 63.53125 35.75 
Q 63.53125 44.484375 60.578125 51 
Q 57.625 57.515625 51.921875 61.109375 
Q 46.234375 64.703125 39.15625 64.703125 
Q 29.109375 64.703125 21.84375 57.78125 
Q 14.59375 50.875 14.59375 34.71875 
z
" id="ArialMT-79"/>
     </defs>
     <g style="fill:#262626;" transform="translate(548.265 507.235)scale(0.12 -0.12)">
      <use xlink:href="#ArialMT-79"/>
      <use x="77.783203" xlink:href="#ArialMT-114"/>
      <use x="111.083984" xlink:href="#ArialMT-105"/>
      <use x="133.300781" xlink:href="#ArialMT-101"/>
      <use x="188.916016" xlink:href="#ArialMT-110"/>
      <use x="244.53125" xlink:href="#ArialMT-116"/>
      <use x="272.314453" xlink:href="#ArialMT-97"/>
      <use x="327.929688" xlink:href="#ArialMT-116"/>
      <use x="355.712891" xlink:href="#ArialMT-105"/>
      <use x="377.929688" xlink:href="#ArialMT-111"/>
      <use x="433.544922" xlink:href="#ArialMT-110"/>
     </g>
    </g>
   </g>
  </g>
 </g>
 <defs>
  <clipPath id="p07924edb9a">
   <rect height="208.85" width="551.74" x="66.02" y="49.2"/>
  </clipPath>
  <clipPath id="p2d379bd69c">
   <rect height="208.85" width="551.74" x="66.02" y="311.57"/>
  </clipPath>
 </defs>
</svg>
